<?xml version="1.0" encoding="utf-8"?>
<!-- Generator: Adobe Illustrator 23.0.0, SVG Export Plug-In . SVG Version: 6.00 Build 0)  -->
<svg version="1.1" id="Layer_1" xmlns="http://www.w3.org/2000/svg" xmlns:xlink="http://www.w3.org/1999/xlink" x="0px" y="0px"
	 viewBox="0 0 45.4 29.4" style="enable-background:new 0 0 45.4 29.4;" xml:space="preserve">
<style type="text/css">
	.st0{fill:#EE4323;}
	.st1{fill:none;}
</style>
<path class="st0" d="M13.8,25.2c-0.4,0-0.5-0.2-0.5-0.6c0-0.1,0-0.2,0-0.4c0.1-0.6,0.3-1,0.8-1c0.4,0,0.5,0.2,0.5,0.4v0.1H15
	c0,0,0-0.1,0-0.2c0-0.4-0.3-0.8-0.9-0.8c-0.8,0-1.2,0.5-1.3,1.4c0,0.1,0,0.2,0,0.4c0,0.5,0.2,1,1,1c0.6,0,0.9-0.3,1.1-0.6l-0.3-0.2
	C14.3,25.1,14,25.2,13.8,25.2L13.8,25.2z M16.1,23.5c-0.7,0-1,0.3-1.1,1c0,0.1,0,0.2,0,0.2c0,0.4,0.2,0.8,0.8,0.8c0.7,0,1-0.4,1.1-1
	c0-0.1,0-0.2,0-0.2C16.9,23.9,16.6,23.5,16.1,23.5L16.1,23.5z M16.3,24.6c-0.1,0.5-0.2,0.7-0.5,0.7c-0.2,0-0.4-0.1-0.4-0.4
	c0-0.1,0-0.2,0-0.3c0.1-0.5,0.2-0.7,0.5-0.7c0.2,0,0.4,0.1,0.4,0.4C16.4,24.4,16.4,24.5,16.3,24.6L16.3,24.6z M18.6,22.9l-0.1,0.7
	c0,0.1,0,0,0,0.1c-0.1-0.1-0.3-0.1-0.4-0.1c-0.6,0-0.9,0.3-1.1,1c0,0.1,0,0.2,0,0.2c0,0.6,0.3,0.8,0.8,0.8c0.2,0,0.4,0,0.5-0.1
	l0,0.2h0.4l0.4-2.8L18.6,22.9L18.6,22.9z M18.2,25.1c-0.2,0.1-0.3,0.1-0.4,0.1c-0.3,0-0.3-0.1-0.3-0.4c0-0.1,0-0.2,0-0.3
	c0.1-0.6,0.3-0.7,0.5-0.7c0.2,0,0.3,0,0.4,0.1L18.2,25.1L18.2,25.1z M20.1,23.5c-0.7,0-1,0.3-1.1,1c0,0.1,0,0.2,0,0.3
	c0,0.5,0.3,0.8,0.8,0.8c0.4,0,0.8-0.2,0.9-0.5L20.4,25c-0.1,0.2-0.2,0.3-0.5,0.3c-0.3,0-0.4-0.1-0.4-0.3c0,0,0-0.1,0-0.1h1.3
	c0-0.2,0-0.3,0-0.4C20.9,24,20.7,23.5,20.1,23.5L20.1,23.5z M20.4,24.4h-0.8c0.1-0.2,0.2-0.5,0.5-0.5c0.2,0,0.3,0.1,0.3,0.3
	C20.4,24.3,20.4,24.4,20.4,24.4L20.4,24.4z M22.3,23.5l0-0.4h-1l0,0.4h0.3l-0.3,1.9H21l0,0.4h1l0-0.4h-0.3l0.3-1.9H22.3L22.3,23.5z
	 M24.4,24l0.1-0.4h-0.4l-0.3,0.1c-0.1-0.1-0.3-0.2-0.5-0.2c-0.5,0-1,0.3-1,0.8c0,0.2,0.1,0.3,0.1,0.4c-0.1,0.1-0.2,0.2-0.2,0.3
	c0,0.1,0,0.1,0.1,0.2c-0.2,0.1-0.4,0.4-0.4,0.6c0,0.5,0.5,0.6,0.9,0.6c0.5,0,1.1-0.1,1.1-0.7c0-0.2-0.1-0.4-0.5-0.5l-0.7-0.1
	c-0.1,0-0.1,0-0.1-0.1c0-0.1,0-0.1,0.1-0.1l0,0c0.1,0,0.2,0,0.3,0c0.5,0,1-0.2,1-0.8c0-0.1,0-0.1-0.1-0.2c0.1,0,0.1,0.1,0.2,0.1
	L24.4,24L24.4,24L24.4,24z M23.4,25.6c0.1,0,0.2,0.1,0.2,0.2c0,0.3-0.3,0.3-0.5,0.3c-0.4,0-0.5-0.1-0.5-0.3c0-0.2,0-0.2,0.2-0.4
	L23.4,25.6z M23.2,24.6c-0.2,0-0.3-0.1-0.3-0.3c0-0.3,0.2-0.4,0.4-0.4c0.2,0,0.3,0.1,0.3,0.3C23.7,24.5,23.5,24.6,23.2,24.6z
	 M25.7,23.5c-0.2,0-0.4,0.1-0.6,0.3l0-0.1h-0.4l-0.3,2.1h0.5l0.2-1.6c0.1-0.1,0.3-0.2,0.5-0.2c0.2,0,0.2,0.1,0.2,0.3
	c0,0,0,0.2,0,0.2l-0.2,1.3h0.5l0.2-1.3c0-0.1,0-0.2,0-0.2C26.3,23.8,26.1,23.5,25.7,23.5L25.7,23.5z M27.2,25.2L27.2,25.2l0.2-1.5
	h-0.8L26.5,24h0.4c0,0,0,0-0.1,0.1l-0.1,1c0,0,0,0.1,0,0.2c0,0.3,0.1,0.4,0.4,0.4h0.2l0.1-0.4h-0.2C27.2,25.4,27.2,25.3,27.2,25.2
	L27.2,25.2z M27.5,22.9H27c0,0,0-0.1,0-0.1l-0.1,0.5c0,0,0,0.1,0,0.1h0.5c0,0,0-0.1,0-0.2L27.5,22.9C27.5,22.9,27.5,22.9,27.5,22.9
	L27.5,22.9z M28.5,25.2c-0.1,0-0.2-0.1-0.2-0.2l0,0l0.2-1H29l0.2-0.4h-0.7l0.1-0.8L28.1,23L28,23.7h-0.3L27.7,24H28
	c0,0.2-0.1,0.1-0.1,0.1L27.8,25c0,0,0,0.1,0,0.1c0,0.3,0.3,0.5,0.6,0.5c0.3,0,0.5-0.1,0.7-0.2l-0.2-0.3
	C28.7,25.2,28.7,25.2,28.5,25.2L28.5,25.2z M30.3,23.5c-0.7,0-1,0.3-1.1,1c0,0.1,0,0.2,0,0.3c0,0.5,0.3,0.8,0.8,0.8
	c0.4,0,0.8-0.2,0.9-0.5L30.5,25c-0.1,0.2-0.2,0.3-0.5,0.3c-0.3,0-0.4-0.1-0.4-0.3c0,0,0-0.1,0-0.1H31c0-0.2,0-0.3,0-0.4
	C31,24,30.9,23.5,30.3,23.5L30.3,23.5z M30.5,24.4h-0.8c0.1-0.2,0.2-0.5,0.5-0.5c0.2,0,0.3,0.1,0.3,0.3
	C30.5,24.3,30.5,24.4,30.5,24.4L30.5,24.4z M32.4,23.5c-0.2,0-0.3,0.1-0.5,0.3l0-0.1h-0.4l-0.3,2.1h0.5l0.2-1.6
	c0.1-0.1,0.3-0.1,0.4-0.1c0.1,0,0.2,0,0.3,0l0.1-0.4C32.5,23.6,32.5,23.5,32.4,23.5L32.4,23.5z M19.9,21.5c-1.1-0.5-2.1-1.7-2.2-2.9
	c0-1.4,0.9-2.5,1.9-3.3c-0.1,0.5-0.2,0.9,0.1,1.4c0.3,0.4,0.8,0.6,1.3,0.5c1.1-0.3,1.2-1.5,0.5-2.2c-0.7-0.7-1.3-1.5-1.1-2.6
	c0.1-0.5,0.5-1,0.9-1.4c-0.3,0.8,0.6,1.7,1.2,2.1c1,0.7,2.2,1.2,3.1,2.1c1,0.9,1.7,2.1,1.6,3.4c-0.2,1.5-1.3,2.5-2.7,3
	c2.8-0.6,5.7-2.8,5.7-5.9c0-2.5-1.7-4.5-3.9-5.6l-0.1-0.1c0.1,0.1,0.1,0.3,0.1,0.4c0-0.1,0-0.2,0-0.3c0,0.1,0,0.2,0,0.3l0-0.1
	c0,0.1-0.1,0.3-0.2,0.4l0,0c-0.4,0.7-1.6,0.9-2.2,0.1c-0.9-1.2,0-2.5,0.2-3.7c0.2-1.6-0.8-3.1-2.1-4c0.7,1.1-0.2,2.5-0.9,3.4
	c-0.7,0.8-1.5,1.4-2.3,2.2c-0.8,0.8-1.6,1.6-2.3,2.5c-1.4,1.8-2.2,4.1-1.6,6.3C15.8,19.5,17.7,20.9,19.9,21.5L19.9,21.5z"/>
<rect class="st1" width="45.4" height="29.4"/>
</svg>
