<?xml version="1.0" encoding="utf-8"?>
<!-- Generator: Adobe Illustrator 23.0.0, SVG Export Plug-In . SVG Version: 6.00 Build 0)  -->
<svg version="1.1" id="Layer_1" xmlns="http://www.w3.org/2000/svg" xmlns:xlink="http://www.w3.org/1999/xlink" x="0px" y="0px"
	 viewBox="0 0 45.4 29.4" style="enable-background:new 0 0 45.4 29.4;" xml:space="preserve">
<style type="text/css">
	.st0{fill:none;}
	.st1{fill:#006BC0;}
	.st2{fill:#0096DC;}
	.st3{fill:#FFFFFF;}
	.st4{fill:#222123;}
</style>
<rect class="st0" width="45.4" height="29.4"/>
<g>
	<path class="st1" d="M31.2,8.1l-1.3,15.5c-2,1.5-4.5,2.5-7.2,2.5s-5.2-0.9-7.2-2.5L14.2,8.1H31.2z"/>
	<polygon class="st2" points="22.7,9.5 22.7,25.7 28.3,24.2 29.5,9.5 	"/>
	<polygon class="st3" points="27.6,15.9 23.6,15.9 27.8,13.7 28,11.6 17.4,11.6 17.6,13.8 21.8,13.8 17.7,15.8 17.9,18.1 17.9,18.1 
		25.2,18.1 25,20.8 22.7,21.4 20.3,20.7 20.2,19 18,19 18.3,22.3 22.7,23.6 27.1,22.3 27.6,15.9 	"/>
	<g>
		<polygon class="st4" points="18.5,5.7 18.5,4.2 20.7,4.2 20.7,3.3 17.7,3.3 17.7,6.5 20.7,6.5 20.7,5.7 		"/>
		<polygon class="st4" points="22,4.6 22,4.2 24.2,4.2 24.2,4.2 24.2,3.3 21.2,3.3 21.2,5.3 23.4,5.3 23.4,5.7 21.2,5.7 21.2,6.5 
			24.2,6.5 24.2,5.7 24.2,4.6 		"/>
		<polygon class="st4" points="25.4,4.6 25.4,4.2 27.6,4.2 27.6,4.2 27.6,3.3 24.6,3.3 24.6,5.3 26.8,5.3 26.8,5.7 24.6,5.7 
			24.6,6.5 27.6,6.5 27.6,5.7 27.6,4.6 		"/>
	</g>
</g>
</svg>
