<?xml version="1.0" encoding="utf-8"?>
<!-- Generator: Adobe Illustrator 23.0.0, SVG Export Plug-In . SVG Version: 6.00 Build 0)  -->
<svg version="1.1" id="Layer_1" xmlns="http://www.w3.org/2000/svg" xmlns:xlink="http://www.w3.org/1999/xlink" x="0px" y="0px"
	 viewBox="0 0 45.4 29.4" style="enable-background:new 0 0 45.4 29.4;" xml:space="preserve">
<style type="text/css">
	.st0{fill:none;}
	.st1{fill-rule:evenodd;clip-rule:evenodd;fill:#E44D26;}
	.st2{fill-rule:evenodd;clip-rule:evenodd;fill:#F16529;}
	.st3{fill-rule:evenodd;clip-rule:evenodd;fill:#EBEBEB;}
	.st4{fill-rule:evenodd;clip-rule:evenodd;fill:#FFFFFF;}
</style>
<rect x="-0.2" y="0" class="st0" width="45.4" height="29.4"/>
<title  id="title3510">Official PHP Logo</title>
<g>
	<polygon class="st1" points="31,5.3 29.5,22.6 22.5,24.6 15.6,22.6 14,5.3 	"/>
	<polygon class="st2" points="22.5,23.1 28.1,21.5 29.5,6.7 22.5,6.7 	"/>
	<path class="st3" d="M19.5,11h3V8.8h-5.3l0.1,0.6l0.5,5.9h4.8v-2.1h-2.8L19.5,11L19.5,11L19.5,11z M20,16.3h-2.1l0.3,3.3l4.4,1.2
		l0,0v-2.2l0,0L20.1,18L20,16.3L20,16.3L20,16.3z"/>
	<path class="st4" d="M22.5,15.3h2.6L24.9,18l-2.4,0.6v2.2l4.4-1.2l0-0.4l0.5-5.6l0.1-0.6h-4.9V15.3L22.5,15.3z M22.5,10.9
		L22.5,10.9l5.1,0l0-0.5l0.1-1.1l0.1-0.6h-5.3V10.9L22.5,10.9L22.5,10.9z"/>
</g>
</svg>
