<?xml version="1.0" encoding="utf-8"?>
<!-- Generator: Adobe Illustrator 23.0.0, SVG Export Plug-In . SVG Version: 6.00 Build 0)  -->
<svg version="1.1" id="Layer_1" xmlns="http://www.w3.org/2000/svg" xmlns:xlink="http://www.w3.org/1999/xlink" x="0px" y="0px"
	 viewBox="0 0 45.4 29.4" style="enable-background:new 0 0 45.4 29.4;" xml:space="preserve">
<style type="text/css">
	.st0{fill:none;}
	.st1{fill:#F0DB4F;}
	.st2{fill:#323330;}
</style>
<rect class="st0" width="45.4" height="29.4"/>
<g>
	<path class="st1" d="M12.8,4.8h19.8v19.8H12.8V4.8z"/>
	<path class="st2" d="M31,19.9c-0.1-0.9-0.7-1.7-2.5-2.4c-0.6-0.3-1.3-0.5-1.5-0.9c-0.1-0.3-0.1-0.4,0-0.6c0.1-0.5,0.8-0.7,1.3-0.5
		c0.3,0.1,0.6,0.4,0.8,0.7c0.9-0.6,0.9-0.6,1.5-0.9c-0.2-0.3-0.3-0.5-0.5-0.6c-0.5-0.6-1.2-0.9-2.3-0.8c-0.2,0-0.4,0.1-0.6,0.1
		c-0.6,0.1-1.1,0.4-1.4,0.8c-0.9,1.1-0.7,2.9,0.5,3.7c1.1,0.8,2.8,1,3,1.8c0.2,1-0.7,1.3-1.6,1.2c-0.7-0.1-1-0.5-1.4-1.1
		c-0.7,0.4-0.7,0.4-1.5,0.9c0.2,0.4,0.4,0.6,0.7,0.9c1.4,1.5,5,1.4,5.7-0.8C30.9,21.2,31.1,20.7,31,19.9z M23.5,13.9h-1.9
		c0,1.6,0,3.2,0,4.8c0,1,0.1,2-0.1,2.2c-0.3,0.6-1,0.5-1.3,0.4c-0.3-0.2-0.5-0.4-0.7-0.7c-0.1-0.1-0.1-0.2-0.1-0.2
		c-0.5,0.3-1,0.6-1.5,0.9c0.3,0.5,0.6,1,1.1,1.3c0.7,0.4,1.7,0.6,2.7,0.3c0.6-0.2,1.2-0.6,1.5-1.2c0.4-0.8,0.3-1.7,0.3-2.8
		C23.6,17.3,23.5,15.6,23.5,13.9L23.5,13.9z"/>
</g>
</svg>
