<?xml version="1.0" encoding="utf-8"?>
<!-- Generator: Adobe Illustrator 23.0.0, SVG Export Plug-In . SVG Version: 6.00 Build 0)  -->
<svg version="1.1" id="Layer_1" xmlns="http://www.w3.org/2000/svg" xmlns:xlink="http://www.w3.org/1999/xlink" x="0px" y="0px"
	 viewBox="0 0 45.4 29.4" style="enable-background:new 0 0 45.4 29.4;" xml:space="preserve">
<style type="text/css">
	.st0{fill:none;}
	.st1{fill-rule:evenodd;clip-rule:evenodd;fill:#FB503B;}
</style>
<rect y="0" class="st0" width="45.4" height="29.4"/>
<g>
	<path class="st1" d="M35.3,14.1c-0.2-0.2-2.5-3.1-2.9-3.6c-0.4-0.5-0.6-0.4-0.9-0.4c-0.3,0-3.2,0.5-3.5,0.6
		c-0.3,0.1-0.5,0.2-0.3,0.5c0.2,0.3,2.1,3,2.5,3.6l-7.7,1.8L16.3,6.4C16.1,6.1,16,5.9,15.5,6c-0.5,0-4.8,0.4-5.1,0.4
		c-0.3,0-0.6,0.2-0.3,0.9c0.3,0.7,5.2,11.2,5.3,11.5c0.1,0.3,0.5,0.8,1.3,0.6c0.8-0.2,3.8-1,5.4-1.4c0.8,1.5,2.5,4.6,2.9,5.1
		c0.4,0.6,0.7,0.5,1.4,0.3c0.5-0.2,7.9-2.8,8.3-3c0.3-0.2,0.5-0.2,0.3-0.6c-0.2-0.2-2.1-2.9-3.2-4.2c0.7-0.2,3.2-0.8,3.5-0.9
		C35.5,14.5,35.5,14.3,35.3,14.1L35.3,14.1L35.3,14.1z M21.3,17c-0.1,0-4.4,1.1-4.6,1.1c-0.2,0.1-0.2,0-0.2-0.1
		C16.3,18,11.3,7.4,11.2,7.3c-0.1-0.1-0.1-0.2,0-0.2c0.1,0,4.1-0.4,4.2-0.4c0.2,0,0.1,0,0.2,0.1c0,0,5.7,9.8,5.8,9.9
		C21.4,16.9,21.4,17,21.3,17L21.3,17L21.3,17z M33.5,19.3c0.1,0.1,0.2,0.2-0.1,0.2c-0.2,0.1-7.3,2.5-7.5,2.5
		c-0.2,0.1-0.2,0.1-0.4-0.2c-0.2-0.3-2.5-4.2-2.5-4.2l7.6-2c0.2-0.1,0.2-0.1,0.4,0.1C31.1,16,33.4,19.2,33.5,19.3L33.5,19.3z
		 M34,13.9c-0.2,0-2.9,0.7-2.9,0.7l-2.3-3.1c-0.1-0.1-0.1-0.2,0-0.2c0.2,0,2.7-0.5,2.9-0.5c0.1,0,0.2-0.1,0.4,0.2
		c0.2,0.2,2.1,2.7,2.2,2.8C34.3,13.9,34.1,13.9,34,13.9L34,13.9L34,13.9z"/>
</g>
</svg>
