<?xml version="1.0" encoding="utf-8"?>
<!-- Generator: Adobe Illustrator 23.0.0, SVG Export Plug-In . SVG Version: 6.00 Build 0)  -->
<svg version="1.1" id="Layer_1" xmlns="http://www.w3.org/2000/svg" xmlns:xlink="http://www.w3.org/1999/xlink" x="0px" y="0px"
	 viewBox="0 0 45.4 29.4" style="enable-background:new 0 0 45.4 29.4;" xml:space="preserve">
<style type="text/css">
	.st0{fill:none;}
	.st1{clip-path:url(#SVGID_2_);}
	.st2{fill:url(#path3462_1_);}
	.st3{clip-path:url(#SVGID_4_);}
	.st4{fill:#777BB3;}
	.st5{clip-path:url(#SVGID_6_);}
	.st6{fill:#FFFFFF;}
</style>
<rect x="-0.2" y="0" class="st0" width="45.4" height="29.4"/>
<title  id="title3510">Official PHP Logo</title>
<g id="g3438" transform="matrix(1.25,0,0,-1.25,-4.4,394.29875)">
	<g id="g3440">
		<g>
			<defs>
				<path id="SVGID_1_" d="M10.6,303.7c0-3.2,4.9-5.7,10.9-5.7l0,0c6,0,10.9,2.6,10.9,5.7l0,0c0,3.2-4.9,5.7-10.9,5.7l0,0
					C15.5,309.4,10.6,306.8,10.6,303.7"/>
			</defs>
			<clipPath id="SVGID_2_">
				<use xlink:href="#SVGID_1_"  style="overflow:visible;"/>
			</clipPath>
			<g id="g3442" class="st1">
				<g id="g3448">
					<g id="g3450">
						
							<radialGradient id="path3462_1_" cx="7.3506" cy="287.8345" r="1.1269" gradientTransform="matrix(15.8548 0 0 -15.8548 -99.366 4870.9653)" gradientUnits="userSpaceOnUse">
							<stop  offset="0" style="stop-color:#AEB2D5"/>
							<stop  offset="0.3" style="stop-color:#AEB2D5"/>
							<stop  offset="0.75" style="stop-color:#484C89"/>
							<stop  offset="1" style="stop-color:#484C89"/>
						</radialGradient>
						<path id="path3462" class="st2" d="M10.6,303.7c0-3.2,4.9-5.7,10.9-5.7l0,0c6,0,10.9,2.6,10.9,5.7l0,0c0,3.2-4.9,5.7-10.9,5.7
							l0,0C15.5,309.4,10.6,306.8,10.6,303.7"/>
					</g>
				</g>
			</g>
		</g>
	</g>
	<g id="g3464">
		<g>
			<defs>
				<rect id="SVGID_3_" x="7.4" y="295.7" width="28.3" height="15.9"/>
			</defs>
			<clipPath id="SVGID_4_">
				<use xlink:href="#SVGID_3_"  style="overflow:visible;"/>
			</clipPath>
			<g id="g3466" class="st3">
				<g id="g3472" transform="translate(288,27.3594)">
					<path id="path3474" class="st4" d="M-266.5,271c5.8,0,10.5,2.4,10.5,5.3c0,2.9-4.7,5.3-10.5,5.3c-5.8,0-10.5-2.4-10.5-5.3
						C-276.9,273.4-272.3,271-266.5,271"/>
				</g>
			</g>
		</g>
	</g>
	<g id="g3476">
		<g>
			<defs>
				<rect id="SVGID_5_" x="7.4" y="295.7" width="28.3" height="15.9"/>
			</defs>
			<clipPath id="SVGID_6_">
				<use xlink:href="#SVGID_5_"  style="overflow:visible;"/>
			</clipPath>
			<g id="g3478" class="st5">
				<g id="g3484" transform="translate(161.7344,145.3066)">
					<path id="path3486" d="M-145.2,157.7c0.5,0,0.8,0.1,1.1,0.3c0.2,0.2,0.4,0.5,0.5,0.9c0.1,0.4,0,0.7-0.1,0.8
						c-0.1,0.1-0.4,0.2-0.9,0.2h-0.8l-0.4-2.2H-145.2z M-147.7,155.1C-147.7,155.1-147.7,155.1-147.7,155.1
						c-0.1,0.1-0.1,0.1-0.1,0.1l1.1,5.7c0,0.1,0.1,0.1,0.1,0.1h2.4c0.8,0,1.3-0.2,1.7-0.6c0.4-0.4,0.5-1,0.3-1.7
						c-0.1-0.3-0.2-0.6-0.3-0.8c-0.1-0.2-0.3-0.5-0.5-0.7c-0.3-0.2-0.6-0.4-0.9-0.5c-0.3-0.1-0.7-0.2-1.2-0.2h-1l-0.3-1.4
						c0-0.1-0.1-0.1-0.1-0.1H-147.7z"/>
				</g>
				<g id="g3488" transform="translate(159.2236,197.3071)">
					<path id="path3490" class="st6" d="M-142.8,107.8h0.7c0.5,0,0.7-0.1,0.8-0.2c0.1-0.1,0.1-0.4,0.1-0.7c-0.1-0.4-0.2-0.7-0.4-0.8
						c-0.2-0.2-0.5-0.2-1-0.2h-0.5L-142.8,107.8z M-141.6,109.1h-2.4c-0.1,0-0.2-0.1-0.2-0.2l-1.1-5.7c0-0.1,0-0.1,0-0.2
						c0-0.1,0.1-0.1,0.2-0.1h1.3c0.1,0,0.2,0.1,0.2,0.2l0.3,1.3h0.9c0.5,0,0.9,0.1,1.2,0.2c0.3,0.1,0.6,0.3,0.9,0.6
						c0.2,0.2,0.4,0.4,0.6,0.7c0.1,0.3,0.2,0.5,0.3,0.8c0.1,0.8,0,1.4-0.4,1.8C-140.2,108.9-140.8,109.1-141.6,109.1 M-143.4,105.6
						h0.8c0.5,0,0.9,0.1,1.1,0.3c0.2,0.2,0.4,0.5,0.5,1c0.1,0.4,0,0.7-0.1,0.9c-0.2,0.2-0.5,0.3-0.9,0.3h-0.9L-143.4,105.6
						 M-141.6,108.9c0.7,0,1.3-0.2,1.6-0.6c0.3-0.4,0.4-0.9,0.3-1.6c-0.1-0.3-0.1-0.5-0.3-0.8c-0.1-0.2-0.3-0.4-0.5-0.6
						c-0.2-0.2-0.5-0.4-0.8-0.5c-0.3-0.1-0.7-0.1-1.2-0.1h-1.1l-0.3-1.5h-1.3l1.1,5.7H-141.6"/>
				</g>
				<g id="g3492" transform="translate(311.583,116.3066)">
					<path id="path3494" d="M-289.1,185.6C-289.2,185.6-289.2,185.6-289.1,185.6c-0.1,0.1-0.1,0.1-0.1,0.1l0.5,2.5
						c0,0.2,0,0.4,0,0.5c0,0-0.2,0.1-0.5,0.1h-0.9l-0.6-3.2c0-0.1-0.1-0.1-0.1-0.1h-1.2c0,0-0.1,0-0.1,0c0,0,0,0.1,0,0.1l1.1,5.7
						c0,0.1,0.1,0.1,0.1,0.1h1.2c0,0,0.1,0,0.1,0c0,0,0-0.1,0-0.1l-0.3-1.4h1c0.7,0,1.2-0.1,1.5-0.4c0.3-0.3,0.4-0.7,0.3-1.3
						l-0.5-2.7c0-0.1-0.1-0.1-0.1-0.1H-289.1z"/>
				</g>
				<g id="g3496" transform="translate(293.6611,271.0571)">
					<path id="path3498" class="st6" d="M-271.9,36.9h-1.2c-0.1,0-0.2-0.1-0.2-0.2l-1.1-5.7c0-0.1,0-0.1,0-0.2
						c0-0.1,0.1-0.1,0.2-0.1h1.2c0.1,0,0.2,0.1,0.2,0.2l0.6,3.1h0.8c0.4,0,0.4-0.1,0.4-0.1c0,0,0.1-0.1,0-0.4l-0.5-2.5
						c0-0.1,0-0.1,0-0.2c0-0.1,0.1-0.1,0.2-0.1h1.3c0.1,0,0.2,0.1,0.2,0.2l0.5,2.7c0.1,0.6,0,1.1-0.3,1.4c-0.3,0.3-0.8,0.4-1.6,0.4
						h-0.8l0.2,1.2c0,0.1,0,0.1,0,0.2C-271.8,36.9-271.8,36.9-271.9,36.9 M-271.9,36.7l-0.3-1.5h1.1c0.7,0,1.2-0.1,1.4-0.4
						c0.3-0.2,0.3-0.6,0.2-1.2l-0.5-2.7h-1.3l0.5,2.5c0.1,0.3,0,0.5-0.1,0.6c-0.1,0.1-0.3,0.2-0.6,0.2h-1l-0.6-3.3h-1.2l1.1,5.7
						H-271.9"/>
				</g>
				<g id="g3500" transform="translate(409.5498,145.3066)">
					<path id="path3502" d="M-383.2,157.7c0.5,0,0.8,0.1,1.1,0.3c0.2,0.2,0.4,0.5,0.5,0.9c0.1,0.4,0,0.7-0.1,0.8
						c-0.1,0.1-0.4,0.2-0.9,0.2h-0.8l-0.4-2.2H-383.2z M-385.7,155.1C-385.8,155.1-385.8,155.1-385.7,155.1
						c-0.1,0.1-0.1,0.1-0.1,0.1l1.1,5.7c0,0.1,0.1,0.1,0.1,0.1h2.4c0.8,0,1.3-0.2,1.7-0.6c0.4-0.4,0.5-1,0.3-1.7
						c-0.1-0.3-0.2-0.6-0.3-0.8c-0.1-0.2-0.3-0.5-0.5-0.7c-0.3-0.2-0.6-0.4-0.9-0.5c-0.3-0.1-0.7-0.2-1.2-0.2h-1l-0.3-1.4
						c0-0.1-0.1-0.1-0.1-0.1H-385.7z"/>
				</g>
				<g id="g3504" transform="translate(407.0391,197.3071)">
					<path id="path3506" class="st6" d="M-380.8,107.8h0.7c0.5,0,0.7-0.1,0.8-0.2c0.1-0.1,0.1-0.4,0.1-0.7c-0.1-0.4-0.2-0.7-0.4-0.8
						c-0.2-0.2-0.5-0.2-1-0.2h-0.5L-380.8,107.8z M-379.7,109.1h-2.4c-0.1,0-0.2-0.1-0.2-0.2l-1.1-5.7c0-0.1,0-0.1,0-0.2
						s0.1-0.1,0.2-0.1h1.3c0.1,0,0.2,0.1,0.2,0.2l0.3,1.3h0.9c0.5,0,0.9,0.1,1.2,0.2c0.3,0.1,0.6,0.3,0.9,0.6
						c0.2,0.2,0.4,0.4,0.6,0.7c0.1,0.3,0.2,0.5,0.3,0.8c0.1,0.8,0,1.4-0.4,1.8C-378.3,108.9-378.9,109.1-379.7,109.1 M-381.5,105.6
						h0.8c0.5,0,0.9,0.1,1.1,0.3c0.2,0.2,0.4,0.5,0.5,1c0.1,0.4,0,0.7-0.1,0.9c-0.2,0.2-0.5,0.3-0.9,0.3h-0.9L-381.5,105.6
						 M-379.7,108.9c0.7,0,1.3-0.2,1.6-0.6c0.3-0.4,0.4-0.9,0.3-1.6c-0.1-0.3-0.1-0.5-0.3-0.8c-0.1-0.2-0.3-0.4-0.5-0.6
						c-0.2-0.2-0.5-0.4-0.8-0.5c-0.3-0.1-0.7-0.1-1.2-0.1h-1.1l-0.3-1.5h-1.3l1.1,5.7H-379.7"/>
				</g>
			</g>
		</g>
	</g>
</g>
</svg>
