<?xml version="1.0" encoding="utf-8"?>
<!-- Generator: Adobe Illustrator 23.0.0, SVG Export Plug-In . SVG Version: 6.00 Build 0)  -->
<svg version="1.1" id="Layer_1" xmlns="http://www.w3.org/2000/svg" xmlns:xlink="http://www.w3.org/1999/xlink" x="0px" y="0px"
	 viewBox="0 0 45.4 29.4" style="enable-background:new 0 0 45.4 29.4;" xml:space="preserve">
<style type="text/css">
	.st0{clip-path:url(#SVGID_2_);}
	.st1{fill:#00749A;}
	.st2{fill:#464342;}
</style>
<g>
	<defs>
		<rect id="SVGID_1_" x="13.2" y="4.7" width="19.9" height="19.9"/>
	</defs>
	<clipPath id="SVGID_2_">
		<use xlink:href="#SVGID_1_"  style="overflow:visible;"/>
	</clipPath>
	<g class="st0">
		<path class="st1" d="M64.1,12.6h-3.5v0.4c1.1,0,1.3,0.2,1.3,1.6V17c0,1.4-0.2,1.6-1.3,1.6c-0.8-0.1-1.4-0.6-2.2-1.4l-0.9-1
			c1.2-0.2,1.8-1,1.8-1.8c0-1.1-0.9-1.9-2.6-1.9h-3.4v0.4c1.1,0,1.3,0.2,1.3,1.6V17c0,1.4-0.2,1.6-1.3,1.6V19h3.8v-0.4
			c-1.1,0-1.3-0.3-1.3-1.6v-0.7h0.3l2.1,2.7h5.6c2.8,0,4-1.5,4-3.2C68.1,14,66.9,12.6,64.1,12.6L64.1,12.6z M56,15.7v-2.6h0.8
			c0.9,0,1.3,0.6,1.3,1.3c0,0.7-0.4,1.3-1.3,1.3L56,15.7z M64.2,18.4H64c-0.7,0-0.8-0.2-0.8-1.1v-4.2h0.9c2,0,2.4,1.5,2.4,2.6
			C66.5,16.9,66.2,18.4,64.2,18.4z M42.7,16.4l1.3-3.9c0.4-1.1,0.2-1.5-1-1.5v-0.4h3.6V11c-1.2,0-1.5,0.3-2,1.7l-2.2,6.6h-0.3l-2-6
			l-2,6H38l-2.1-6.6c-0.5-1.4-0.8-1.7-1.9-1.7v-0.4h4.3V11c-1.1,0-1.4,0.3-1,1.5l1.3,3.9l1.9-5.8h0.4L42.7,16.4L42.7,16.4z
			 M49.3,19.3c-2.1,0-3.9-1.6-3.9-3.5c0-1.9,1.7-3.5,3.9-3.5c2.1,0,3.9,1.6,3.9,3.5C53.1,17.7,51.4,19.3,49.3,19.3z M49.3,12.9
			c-1.8,0-2.4,1.6-2.4,2.9c0,1.3,0.6,2.9,2.4,2.9c1.8,0,2.4-1.6,2.4-2.9C51.7,14.5,51,12.9,49.3,12.9L49.3,12.9z"/>
		<path class="st2" d="M72.8,18.6V19h-4.4v-0.4c1.3,0,1.5-0.3,1.5-2.3v-3.1c0-1.9-0.2-2.2-1.5-2.2v-0.4h4c2,0,3.1,1,3.1,2.4
			c0,1.3-1.1,2.4-3.1,2.4h-1.1v0.9C71.3,18.3,71.5,18.6,72.8,18.6L72.8,18.6z M72.4,11.3h-1.1v3.4h1.1c1.1,0,1.6-0.8,1.6-1.7
			C74,12.1,73.5,11.3,72.4,11.3z M88.7,17.2l-0.1,0.3c-0.2,0.6-0.4,0.9-1.8,0.9h-0.3c-1,0-1.2-0.2-1.2-1.6v-0.9
			c1.5,0,1.6,0.1,1.6,1.1h0.4v-2.9h-0.4c0,1-0.1,1.1-1.6,1.1v-2.2h1.1c1.4,0,1.6,0.2,1.8,0.9l0.1,0.4h0.3l-0.1-1.8h-5.7v0.4
			c1.1,0,1.3,0.2,1.3,1.6V17c0,1.3-0.1,1.6-1,1.6c-0.8-0.1-1.4-0.6-2.1-1.4l-0.9-1c1.2-0.2,1.8-1,1.8-1.8c0-1.1-0.9-1.9-2.6-1.9
			h-3.4v0.4c1.1,0,1.3,0.2,1.3,1.6V17c0,1.4-0.2,1.6-1.3,1.6V19h3.8v-0.4c-1.1,0-1.3-0.3-1.3-1.6v-0.7h0.3L81,19h7.9l0.1-1.8
			L88.7,17.2L88.7,17.2z M78.5,15.7v-2.6h0.8c0.9,0,1.3,0.6,1.3,1.3c0,0.7-0.4,1.3-1.3,1.3L78.5,15.7z M92.6,19.3
			c-0.8,0-1.4-0.4-1.7-0.7c-0.1,0.1-0.3,0.4-0.3,0.7h-0.4v-2.7h0.4c0.2,1.3,1,2,2.2,2c0.6,0,1.1-0.3,1.1-0.9c0-0.5-0.4-0.9-1.2-1.3
			l-1.1-0.5c-0.8-0.4-1.3-1-1.3-1.9c0-0.9,0.9-1.7,2.1-1.7c0.6,0,1.2,0.2,1.5,0.5c0.1-0.1,0.2-0.3,0.3-0.5h0.4v2.3H94
			c-0.1-0.9-0.6-1.7-1.7-1.7c-0.5,0-1,0.3-1,0.8c0,0.5,0.4,0.8,1.3,1.2l1.1,0.5c0.9,0.4,1.3,1.2,1.3,1.7
			C95,18.4,93.9,19.3,92.6,19.3L92.6,19.3z M98.6,19.3c-0.8,0-1.4-0.4-1.7-0.7c-0.1,0.1-0.3,0.4-0.3,0.7h-0.4v-2.7h0.4
			c0.2,1.3,1,2,2.2,2c0.6,0,1.1-0.3,1.1-0.9c0-0.5-0.4-0.9-1.2-1.3l-1.1-0.5c-0.8-0.4-1.3-1-1.3-1.9c0-0.9,0.9-1.7,2.1-1.7
			c0.6,0,1.2,0.2,1.5,0.5c0.1-0.1,0.2-0.3,0.3-0.5h0.4v2.3H100c-0.1-0.9-0.6-1.7-1.7-1.7c-0.5,0-1,0.3-1,0.8c0,0.5,0.4,0.8,1.3,1.2
			l1.1,0.5c0.9,0.4,1.3,1.2,1.3,1.7C100.9,18.4,99.9,19.3,98.6,19.3L98.6,19.3z"/>
		<g>
			<path class="st1" d="M14.7,14.7c0,3.4,2,6.3,4.8,7.7l-4.1-11.2C14.9,12.3,14.7,13.5,14.7,14.7L14.7,14.7z M28.9,14.3
				c0-1.1-0.4-1.8-0.7-2.4c-0.4-0.7-0.8-1.3-0.8-2c0-0.8,0.6-1.5,1.4-1.5c0,0,0.1,0,0.1,0c-1.5-1.4-3.5-2.2-5.8-2.2
				c-3,0-5.6,1.5-7.1,3.8c0.2,0,0.4,0,0.5,0c0.9,0,2.3-0.1,2.3-0.1c0.5,0,0.5,0.6,0.1,0.7c0,0-0.5,0.1-1,0.1l3.1,9.2l1.9-5.6
				l-1.3-3.6c-0.5,0-0.9-0.1-0.9-0.1c-0.5,0-0.4-0.7,0.1-0.7c0,0,1.4,0.1,2.2,0.1c0.9,0,2.3-0.1,2.3-0.1c0.5,0,0.5,0.6,0.1,0.7
				c0,0-0.5,0.1-1,0.1l3.1,9.2l0.9-2.8C28.7,15.8,28.9,15,28.9,14.3L28.9,14.3z"/>
			<path class="st1" d="M23.3,15.4l-2.6,7.4c0.8,0.2,1.6,0.3,2.4,0.3c1,0,1.9-0.2,2.8-0.5c0,0,0-0.1-0.1-0.1L23.3,15.4z M30.7,10.6
				c0,0.3,0.1,0.6,0.1,0.9c0,0.9-0.2,1.8-0.6,3.1l-2.6,7.5c2.5-1.5,4.2-4.2,4.2-7.4C31.7,13.3,31.4,11.9,30.7,10.6L30.7,10.6z"/>
			<path class="st1" d="M23.2,4.7c-5.5,0-9.9,4.5-9.9,9.9c0,5.5,4.5,10,9.9,10c5.5,0,10-4.5,10-10C33.1,9.2,28.7,4.7,23.2,4.7z
				 M23.2,24.2c-5.2,0-9.5-4.3-9.5-9.5c0-5.2,4.3-9.5,9.5-9.5c5.2,0,9.5,4.3,9.5,9.5C32.7,19.9,28.4,24.2,23.2,24.2L23.2,24.2z"/>
		</g>
	</g>
</g>
</svg>
