<?xml version="1.0" encoding="utf-8"?>
<!-- Generator: Adobe Illustrator 23.0.0, SVG Export Plug-In . SVG Version: 6.00 Build 0)  -->
<svg version="1.1" id="Layer_1" xmlns="http://www.w3.org/2000/svg" xmlns:xlink="http://www.w3.org/1999/xlink" x="0px" y="0px"
	 viewBox="0 0 433.9 474.7" style="enable-background:new 0 0 433.9 474.7;" xml:space="preserve">
<style type="text/css">
	.st0{fill-rule:evenodd;clip-rule:evenodd;fill:#102A83;stroke:#1B1918;stroke-width:0.5;}
	.st1{fill-rule:evenodd;clip-rule:evenodd;fill:#FFFFFF;}
	.st2{fill-rule:evenodd;clip-rule:evenodd;fill:#EA2025;stroke:#FFFFFF;stroke-miterlimit:10;}
</style>
<title>lp3i1</title>
<g>
	<path class="st0" d="M124.9,99.2H309c32.9,0.1,59.5,26.7,59.6,59.6v185.8c-0.1,32.9-26.7,59.5-59.6,59.6H124.9
		c-32.9-0.1-59.5-26.7-59.6-59.6V158.8C65.4,126,92,99.3,124.9,99.2z"/>
	<path class="st1" d="M336.7,131v-2.4h-33.6v1.7L302.3,293c-0.4-9.7-13.2-46.1-15.7-47.2c0-0.1,4.5-10.7,8.4-23.3
		c5.8-19.2,7-36,4.4-56c-1.2-9.1-3.4-17.9-7.4-24.1c-4.4-6.9-10.5-12-19-12.6c-3.6-0.3-29.5-0.6-31.1,0.4l-4.2,32
		c-0.9-1.4-2.2-7.3-3.1-9.5c-3.3-8.1-9.2-17.3-17.9-20.4c-4.1-1.5-46.9-2.5-49.8-1.1l-6.5,55.3l36.4-0.6c14.3,0,17.4,5.1,17.2,19.3
		c-0.1,7.8-3.5,21.8-7.2,28.6c-1.5,2.8-10,18.6-13.3,21.5v-61.9h-27.8v30.6l-0.7,95.6c-3.1,0-28,0.2-32.1,0V175.2l0.2-43.8h-0.2
		v-2.8H95.7v176.9l-0.4,68.9c0.1,0,0.2,0,0.4,0v0.2h37.1v-0.1l27.7-0.1c0.5-1,4-30.3,4.5-33.9v34.2l7-0.1h21.4v-53.9
		c0.5-0.6,1.2-1.3,2.2-2.3c9.6-10.1,18.3-22.6,25-34.8c7.3-13.3,13.5-28,16.6-43.1c1.9-8.6,3.2-17.2,4-25.9
		c0.3-3.7,0.2-27.9,0.3-28.3l13.1-0.5c11.8-0.4,17.9,2,15.9,13.9c-2.3,13.2-9.4,23.5-15.3,35.3c-7,14-8,7.7-1.5,20.7
		c6.7,13.4,15.9,27.9,18.4,44.2c0.6,3.8,0.9,9.1-0.2,13.3c-1.7,6.5-6.5,6.7-15.7,6.7l-23,0l6.4,54.7c1.4,1,21.6,0.3,25,0.4
		c7.7,0.1,15,0.7,21.4-3.8c5.5-3.9,8.1-8.9,10.5-14.7c2.6-6.2,4.9-16.8,6.8-23.7v41.9h33.6L336.7,131z"/>
	<path class="st2" d="M321.3,76.2c12.7,0,23.1,10.3,23.1,23s-10.3,23.1-23,23.1c-12.7,0-23.1-10.3-23.1-23c0,0,0,0,0,0
		C298.2,86.5,308.6,76.2,321.3,76.2z"/>
</g>
</svg>
