<?xml version="1.0" encoding="utf-8"?>
<!-- Generator: Adobe Illustrator 23.0.0, SVG Export Plug-In . SVG Version: 6.00 Build 0)  -->
<svg version="1.1" id="Layer_1" xmlns:xodm="http://www.corel.com/coreldraw/odm/2003"
	 xmlns="http://www.w3.org/2000/svg" xmlns:xlink="http://www.w3.org/1999/xlink" x="0px" y="0px" viewBox="0 0 3704 1080"
	 style="enable-background:new 0 0 3704 1080;" xml:space="preserve">
<style type="text/css">
	.st0{fill-rule:evenodd;clip-rule:evenodd;fill:#FFFFFF;}
	.st1{fill-rule:evenodd;clip-rule:evenodd;fill:#79BBE7;}
</style>
<path class="st0" d="M1059,497.7c-8.6-112.8-47.8-205.7-110.7-289.7c-28.5-38-34.1-38.6-63.8-69.7C847.8,99.7,769.9,55.4,720.2,35.8
	C653.5,9.5,568.6-5.6,488.4,2l0,0C309.8,18.9,165.1,113.4,77.2,259.4C20,354.2-6.8,466.6,1.5,581.9
	c20.3,282.1,262.7,520.9,573,496.3C852.9,1056.2,1082.6,805.7,1059,497.7z M840.3,415.5l-0.1,279.6c-2.4,15.9-12.5,6.1-20.8,1.3
	c-179.7-103.7-358.6,105.8-539.2,44.1c-68.2-23.3-59.6-37-59.6-80.6c0-40.3-4-257.7,2.7-277.2h0c16.5-1.2,41.5,29.6,101.8,37.6
	c163.1,21.5,337.2-170.1,498-58.1C843,376,840.3,385.4,840.3,415.5z"/>
<path class="st0" d="M1464.5,813.7c70.4,5,152.5-49.6,181.4-80.9c100.4-108.7,102.8-265.9,1.8-379.7c-37.6-42.4-125.8-89.2-182-82.6
	l-203,0.1l-0.1,542.4L1464.5,813.7z M1376.6,696.2c14.9,2.6,76.4,1.6,93.2,0.1c138.7-12.7,187.7-202.3,71.1-281.7
	c-19.3-13.2-40.9-23.7-69.1-26.8c-15.5-1.7-81.6-2.8-95.2-0.3L1376.6,696.2L1376.6,696.2z"/>
<path class="st0" d="M3242.4,814.7l115.5,0l0.1-116.9l229.1,0l0.7,116.9l115.4,0c0.1-65,0-129.4,0-193.8c0-58,4.9-130.7-9.4-183.4
	c-24.2-89.1-109-168.1-220.5-168.6c-112.7-0.4-194.5,78.4-220.7,166.2c-15.5,52-10.3,126.5-10.3,183.7
	C3242.3,684,3241.7,749.6,3242.4,814.7L3242.4,814.7z M3358,580.2l229.7,0.1c0.6-50.1,5.9-98.9-16.6-137.3
	c-16.1-27.5-50.1-56.2-97.8-56.4c-48.7-0.2-81.1,27.4-98.5,55.9C3352.1,479.7,3357.3,531.2,3358,580.2z"/>
<path class="st0" d="M1921.7,814.6l115.1,0.1c0.1-24.4-3.1-99.2,1.1-116.9l228.2,0l0.8,116.8l115.2,0.1
	c-0.6-64.8-0.1-129.4-0.1-193.9c0-55.3,5.1-134.4-9.4-183.4c-65.9-223.1-372.9-224.7-441.1-2.2c-15.4,50.4-10.2,127.5-10.2,183.6
	C1921.6,683.6,1920.1,750.1,1921.7,814.6L1921.7,814.6z M2036.9,580.1l230,0.1c0.5-49.4,5.9-99.1-16.7-137.4
	c-41.3-70.2-146.3-80.3-196.2-0.3C2031.1,479.1,2036.1,532,2036.9,580.1L2036.9,580.1z"/>
<path class="st0" d="M2584.7,482.3l-1.6,81c0,67.9-3.4,194.7,0.2,249.8l112.8,0.1c2.6-38.6-4.1-314.3,3.1-323.1
	c0-53.6,55.9-103.4,112.4-103.6c34.7-0.1,60,14,78.4,30.8c14.4,13.1,36.4,42.9,35.9,73.1c5.3,3,1.1,290.5,2.8,322.7l113,0.1
	l-0.9-329.2c2.8-25.8-12.7-65.7-22.7-85.9c-83.6-170-323.6-172.2-409.6-2.9C2598.5,415,2582.3,456,2584.7,482.3z"/>
<path class="st1" d="M1464.5,813.7l-201.9-0.7l0.1-542.4l203-0.1c-3.7-5.2-88.4-2.1-100.3-2.1c-29.5,0-76.2-2.8-103.6,0.4
	c-2.6,8.6-3.7,532-0.2,546.1c18.7,2.4,148.9,0.5,190.1,0.7l11.3-1.2C1463.4,814.3,1464,813.9,1464.5,813.7L1464.5,813.7z"/>
<path class="st1" d="M2926,490.4c1.2,44.4-2.4,308.8,1.7,324.6l115,0.5c3-12.7,1.1-218.9,1.1-250.1c0-14.9,4-73.5-3.1-81.4
	l0.9,329.2l-113-0.1C2927.1,780.9,2931.3,493.4,2926,490.4L2926,490.4z"/>
<path class="st1" d="M2699.3,490.1c-7.1,8.8-0.4,284.5-3.1,323.1l-112.8-0.1c-3.6-55.1-0.2-181.8-0.2-249.8l1.6-81
	c-6.4,2.8-3.6,147.2-3.6,165.2c0,26.2-3.1,152.5,1.4,167.5l115,0.4L2699.3,490.1L2699.3,490.1z"/>
</svg>
