<?xml version="1.0" encoding="utf-8"?>
<!-- Generator: Adobe Illustrator 23.0.0, SVG Export Plug-In . SVG Version: 6.00 Build 0)  -->
<svg version="1.1" id="Layer_1" xmlns="http://www.w3.org/2000/svg" xmlns:xlink="http://www.w3.org/1999/xlink" x="0px" y="0px"
	 viewBox="0 0 45.4 29.4" style="enable-background:new 0 0 45.4 29.4;" xml:space="preserve">
<style type="text/css">
	.st0{fill:none;}
	.st1{fill:#108DE8;}
</style>
<rect y="0" class="st0" width="45.4" height="29.4"/>
<g>
	<path class="st1" d="M30.6,15.8c0-0.5,0-1,0-1.5c0-1.2,0.8-2.2,2-2.4c1.3-0.3,2.7,0.7,2.9,2c0,0.2,0,0.3,0,0.5c0,1.1,0,2.1,0,3.2
		c0,0.1,0,0.1-0.1,0.1c-0.3,0-0.6,0-1,0c-0.1,0-0.1,0-0.1-0.1c0-1.1,0-2.1,0-3.2c0-0.7-0.5-1.3-1.2-1.3c-0.7,0-1.2,0.6-1.2,1.2
		c0,0.6,0,1.2,0,1.8c0,0.5,0,0.9,0,1.4c0,0.1,0,0.1-0.1,0.1c-0.3,0-0.6,0-1,0c-0.1,0-0.1,0-0.1-0.1C30.6,16.9,30.6,16.3,30.6,15.8z"
		/>
	<path class="st1" d="M13.6,12c-1.5-3-5.2-4-8.1-2.2c-2.6,1.7-3.4,5.1-1.9,7.8c1.3,2.2,3.7,3.3,6.1,2.7c2.5-0.6,4.5-2.8,4.5-5.7
		C14.3,13.7,14.1,12.9,13.6,12z M11.9,14.7c0,0.5,0,1,0,1.6c0,0.2,0,0.2-0.2,0.1c-0.7-0.4-1.4-0.4-2.1-0.2c-0.6,0.2-1.2,0.4-1.9,0.6
		C7.2,16.9,6.6,17,6,16.8c-0.2-0.1-0.3-0.1-0.5-0.2c-0.1-0.1-0.2-0.2-0.2-0.3c0-0.1,0-0.2,0-0.3c0-0.9,0-1.7,0-2.6
		c0-0.1,0-0.2,0-0.3c0-0.1,0-0.2,0.2-0.1c0.4,0.2,0.8,0.4,1.2,0.4c0.5,0,1-0.1,1.4-0.3c0.6-0.2,1.2-0.5,1.8-0.6
		c0.7-0.2,1.3-0.1,1.9,0.3c0.1,0.1,0.2,0.2,0.2,0.4C11.9,13.6,11.9,14.1,11.9,14.7z"/>
	<path class="st1" d="M42.6,14.2c0-0.3,0-0.5-0.1-0.7c-0.4-1.1-1.5-1.9-2.6-1.7c-1.2,0.2-2.1,1.1-2.2,2.3c0,0.6,0,1.1,0,1.7
		c0,0,0,0,0,0c0,0.6,0,1.2,0,1.7c0,0.1,0,0.1,0.1,0.1c0.3,0,0.7,0,1,0c0.1,0,0.1,0,0.1-0.1c0-0.3,0-0.7,0-1c0-0.1,0-0.1,0.1-0.1
		c0.7,0,1.5,0,2.2,0c0.1,0,0.1,0,0.1,0.1c0,0.3,0,0.7,0,1c0,0.1,0,0.1,0.1,0.1c0.3,0,0.7,0,1,0c0.1,0,0.1,0,0.1-0.1
		C42.6,16.4,42.6,15.3,42.6,14.2z M41.2,15.1c-0.4,0-0.7,0-1.1,0c-0.4,0-0.7,0-1.1,0c-0.1,0-0.1,0-0.1-0.1c0-0.3,0-0.5,0-0.8
		c0.1-0.7,0.6-1.1,1.3-1.1c0.6,0,1.2,0.5,1.2,1.2c0,0.3,0,0.5,0,0.8C41.4,15.1,41.3,15.1,41.2,15.1z"/>
	<path class="st1" d="M28.4,15.8c0-0.5,0-1,0-1.5c0-0.1,0-0.3,0-0.4c-0.2-1.3-1.3-2.2-2.6-2.1c-1.2,0.1-2.3,1.1-2.3,2.4
		c0,1.1,0,2.2,0,3.4c0,0.1,0,0.1,0.1,0.1c0.3,0,0.7,0,1,0c0.1,0,0.1,0,0.1-0.1c0-0.3,0-0.7,0-1c0-0.1,0-0.1,0.1-0.1
		c0.7,0,1.5,0,2.2,0c0.1,0,0.1,0,0.1,0.1c0,0.3,0,0.7,0,1c0,0.1,0,0.1,0.1,0.1c0.3,0,0.7,0,1,0c0.1,0,0.1,0,0.1-0.1
		C28.4,16.9,28.4,16.3,28.4,15.8z M27.1,15.1c-0.4,0-0.7,0-1.1,0c-0.4,0-0.7,0-1.1,0c-0.1,0-0.1,0-0.1-0.1c0-0.3,0-0.7,0-1
		c0.1-0.6,0.7-1,1.3-1c0.6,0.1,1.1,0.6,1.1,1.2c0,0.3,0,0.5,0,0.8C27.2,15.1,27.2,15.1,27.1,15.1z"/>
	<path class="st1" d="M18.5,11.7c-0.6,0-1.3,0-1.9,0c-0.1,0-0.1,0-0.1,0.2c0,0.9,0,1.9,0,2.8c0,0.9,0,1.9,0,2.8c0,0.1,0,0.1,0.1,0.1
		c0.7,0,1.3,0,2,0c0.2,0,0.3,0,0.5,0c1.3-0.3,2.2-1.3,2.4-2.7C21.5,13.2,20.2,11.7,18.5,11.7z M20.1,14.9c-0.1,0.8-0.8,1.4-1.6,1.4
		c-0.2,0-0.5,0-0.7,0c-0.1,0-0.1,0-0.1-0.1c0-0.5,0-1,0-1.6c0-0.5,0-1,0-1.5c0-0.1,0-0.2,0.2-0.1c0.4,0,0.7,0,1.1,0.1
		C19.7,13.3,20.2,14.1,20.1,14.9z"/>
</g>
</svg>
