<?xml version="1.0" encoding="utf-8"?>
<!-- Generator: Adobe Illustrator 23.0.0, SVG Export Plug-In . SVG Version: 6.00 Build 0)  -->
<svg version="1.1" id="Layer_1" xmlns="http://www.w3.org/2000/svg" xmlns:xlink="http://www.w3.org/1999/xlink" x="0px" y="0px"
	 viewBox="0 0 45.4 29.4" style="enable-background:new 0 0 45.4 29.4;" xml:space="preserve">
<style type="text/css">
	.st0{fill:none;}
	.st1{fill:#00AED6;}
	.st2{fill-rule:evenodd;clip-rule:evenodd;fill:#FFFFFF;}
</style>
<rect y="0" class="st0" width="45.4" height="29.4"/>
<g>
	<path class="st1" d="M6,9.5c2.6,0,4.6,2,4.6,4.5S8.6,18.5,6,18.5c-2.6,0-4.6-2-4.6-4.5S3.5,9.5,6,9.5z"/>
	<path class="st2" d="M8.7,13.9c0-0.6-0.5-1-1.1-1H4.7c-0.1,0-0.2-0.1-0.2-0.2c0-0.1,0.1-0.2,0.2-0.2h3c0-0.4-0.3-0.7-0.7-0.8
		c-0.9-0.1-1.8-0.1-2.6,0c-0.5,0.1-0.9,0.5-0.9,1c-0.1,0.9-0.1,1.8,0,2.6c0.1,0.5,0.5,0.9,1.1,1c1.1,0.1,2.2,0.1,3.2,0
		c0.5-0.1,0.8-0.5,0.9-0.9C8.7,14.9,8.7,14.4,8.7,13.9z M7.8,14.5L7.8,14.5v0.2c0,0.1-0.1,0.2-0.2,0.2c-0.1,0-0.2-0.1-0.2-0.2v-0.2
		c-0.1-0.1-0.1-0.1-0.1-0.2c0-0.2,0.1-0.3,0.3-0.3s0.3,0.1,0.3,0.3C7.9,14.4,7.8,14.5,7.8,14.5z"/>
	<path d="M23.9,13.5c0-0.8-0.6-1.4-1.5-1.4c-0.8,0-1.5,0.6-1.5,1.4c0,0.8,0.6,1.4,1.5,1.4c0,0,0,0,0,0c0.8,0,1.4-0.5,1.5-1.3
		C23.9,13.6,23.9,13.6,23.9,13.5L23.9,13.5z M19.5,13.5L19.5,13.5c0-1.5,1.2-2.6,2.9-2.6s2.9,1.1,2.9,2.6c0,1.5-1.2,2.6-2.9,2.6
		S19.5,15,19.5,13.5z"/>
	<path d="M17.2,13.8c0,0.6-0.6,1.1-1.5,1.1c-0.8,0.1-1.4-0.5-1.5-1.2c0-0.1,0-0.1,0-0.2c0-0.8,0.6-1.4,1.6-1.4
		c0.8,0,1.4,0.5,1.4,1.1V13.8z M17.2,10.9L17.2,10.9v0.6c-0.5-0.4-1.1-0.6-1.7-0.6c-1.5,0-2.7,1.2-2.7,2.6c0,1.4,1.2,2.6,2.7,2.6
		c0.6,0,1.2-0.2,1.7-0.6V16c0,0.7-0.6,1.2-1.4,1.2c-0.6,0-1.2-0.2-1.7-0.6l-0.9,0.9c0.7,0.7,1.7,1,2.6,1c1.6,0,2.8-1.1,2.8-2.5v-5.1
		L17.2,10.9L17.2,10.9z"/>
	<path d="M26.2,11h1.4v0.4h0c0.5-0.4,1.1-0.6,1.7-0.6c1.5,0.1,2.7,1.3,2.6,2.7c-0.1,1.4-1.2,2.5-2.6,2.5c-0.6,0-1.2-0.2-1.6-0.5v2.5
		h-1.4L26.2,11L26.2,11z M29,12.1L29,12.1c-0.8,0-1.4,0.5-1.4,1.1v0.6c0,0.6,0.6,1.1,1.4,1.1c0.8,0,1.5-0.6,1.5-1.3
		s-0.6-1.4-1.4-1.5C29.1,12.1,29.1,12.1,29,12.1L29,12.1z"/>
	<path d="M34.6,13c0.9-0.1,1.2-0.3,1.2-0.5c0-0.3-0.4-0.5-0.9-0.5c-0.6,0-1.1,0.3-1.3,0.9l-1.4-0.3c0.2-1,1.3-1.7,2.6-1.7
		c1.5,0,2.4,0.7,2.4,2V16h-1.3v-0.6h0c-0.4,0.5-1.1,0.7-1.7,0.7c-1.1,0-1.9-0.6-1.9-1.5C32.4,13.8,33,13.3,34.6,13L34.6,13z
		 M36,13.6L36,13.6L36,13.6c-0.1,0.2-0.4,0.3-1.1,0.4c-0.8,0.2-1.2,0.3-1.2,0.6c0,0.3,0.3,0.4,0.8,0.4c0.8,0,1.5-0.4,1.5-0.8
		C36,14.2,36,13.6,36,13.6z"/>
	<polygon points="40,15.7 37.6,11 39.2,11 40.7,14.3 40.8,14.3 42.3,11 43.9,11 40.3,18.1 38.7,18.1 	"/>
</g>
</svg>
