<?xml version="1.0" encoding="utf-8"?>
<!-- Generator: Adobe Illustrator 23.0.0, SVG Export Plug-In . SVG Version: 6.00 Build 0)  -->
<svg version="1.1" id="Layer_1" xmlns:xodm="http://www.corel.com/coreldraw/odm/2003"
	 xmlns="http://www.w3.org/2000/svg" xmlns:xlink="http://www.w3.org/1999/xlink" x="0px" y="0px" viewBox="0 0 728 153.4"
	 style="enable-background:new 0 0 728 153.4;" xml:space="preserve">
<style type="text/css">
	.st0{fill:#FFFFFF;}
</style>
<g>
	<path class="st0" d="M105.9,76.7c-2.7,0-5,2.1-5,4.8c0,1.4,0.6,2.7,1.7,3.6v2.8c0,1.8,1.5,3.2,3.3,3.2c1.8,0,3.3-1.4,3.3-3.2v-2.8
		c1-0.9,1.6-2.2,1.6-3.6C110.9,78.9,108.6,76.7,105.9,76.7z"/>
	<path class="st0" d="M79.4,0.1C35.6,0.1,0,34.4,0,76.7c0,42.3,35.6,76.6,79.4,76.6c43.9,0,79.4-34.3,79.4-76.6
		C158.9,34.4,123.3,0.1,79.4,0.1z M123.6,100.5c-1,8-7.2,14.5-15.4,16.1c-18.4,2.2-37,2.2-55.3,0c-9.1-1.5-16.4-8.3-18.1-17.1
		c-2.3-15-2.3-30.3,0-45.4c1.2-8.3,7.5-15,15.9-17c14.8-2.6,30-2.6,44.8,0c6.6,1.8,11.3,7.4,11.6,14H56.3c-1.8,0-3.3,1.4-3.3,3.2
		c0,1.8,1.5,3.2,3.3,3.2h50.2c10.1-0.4,18.7,7,19.3,16.8C126,83.1,125.3,91.9,123.6,100.5z"/>
</g>
<path class="st0" d="M385.1,68.1c0.1-13.4-11.1-24.4-25-24.5c-13.9-0.1-25.3,10.7-25.4,24.1c-0.1,13.4,11.1,24.4,25,24.5
	c0.1,0,0.3,0,0.4,0c13.2,0.7,24.5-9.1,25.2-21.8c0-0.8,0-1.5,0-2.3H385.1z M310.2,68.1L310.2,68.1c0-25.5,20.9-45,49.9-45
	s49.9,19.6,49.9,45c0,25.4-20.7,45.1-49.9,45.1S310.2,93.6,310.2,68.1z"/>
<path class="st0" d="M270.4,72.8c0,10.5-11.1,19.2-25.2,19.2c-12.9,1.3-24.5-7.8-25.8-20.3c-0.1-1.3-0.1-2.5-0.1-3.8
	c0-13.9,10.6-23.5,26.9-23.5c13.2,0,24.2,8.8,24.2,18.7V72.8z M271.4,23L271.4,23v10.1c-8-7.1-18.7-10.7-29.6-10
	c-25.7,0.2-46.3,20.5-46.1,45.3c0.2,24.8,21.3,44.7,46.9,44.5c10.6,0.5,20.9-3.4,28.4-10.5v8.6c0,11.7-10.5,20.3-24.2,20.3
	c-10.5,0.7-20.9-2.8-28.6-9.7l-16.1,15c12.1,11.4,28.4,17.6,45.3,17c28.2,0,47.5-18.3,47.5-42.6V23L271.4,23L271.4,23z"/>
<path class="st0" d="M424.5,25.6h23.7v7.5h0.3c7.8-6.8,18-10.4,28.5-10c25.8,0.9,45.9,21.9,44.9,46.8c-0.9,23.6-20.5,42.5-44.9,43.4
	c-10,0.2-19.8-3-27.7-9V147h-24.7L424.5,25.6L424.5,25.6z M473.2,44.3L473.2,44.3c-13.2,0-24,8.9-24,18.5v10.8
	c0,10.3,10.6,18.8,24.1,18.8c13.8,0.7,25.5-9.5,26.2-22.8s-9.9-24.6-23.6-25.3c-0.9,0-1.7,0-2.6,0H473.2z"/>
<path class="st0" d="M569.4,59.9c16.2-2.1,21-4.3,21-8.7c0-5.6-6.2-9-15.7-9c-10.3-0.8-19.6,5.7-22,15.4l-23.3-4.7
	c3.3-17.4,21.8-29.8,44.7-29.8c25.8,0,41.8,12.8,41.8,33.5v54.2h-22.2v-9.4h-0.3c-7.5,8.2-18.5,12.5-29.8,11.8
	c-19.5,0-33.1-10.3-33.1-25.6C530.5,72.3,541.6,63.6,569.4,59.9L569.4,59.9z M592.4,68.9L592.4,68.9h-0.3c-2.2,3.1-6.6,4.9-18.9,6.9
	c-14.5,2.6-19.8,5.4-19.8,10.3c0,5,4.3,7.4,13.6,7.4c14.2,0,25.2-6.4,25.2-14.5C592.2,79,592.4,68.9,592.4,68.9z"/>
<polygon class="st0" points="660.6,106 619.8,25.6 647,25.6 673.8,81.3 674.2,81.3 700.7,25.6 728,25.6 666.8,147 639.6,147 "/>
</svg>
