<?xml version="1.0" encoding="utf-8"?>
<!-- Generator: Adobe Illustrator 23.0.0, SVG Export Plug-In . SVG Version: 6.00 Build 0)  -->
<svg version="1.1" id="Layer_1" xmlns:xodm="http://www.corel.com/coreldraw/odm/2003"
	 xmlns="http://www.w3.org/2000/svg" xmlns:xlink="http://www.w3.org/1999/xlink" x="0px" y="0px" viewBox="0 0 837 240"
	 style="enable-background:new 0 0 837 240;" xml:space="preserve">
<style type="text/css">
	.st0{fill:#FFFFFF;}
	.st1{fill-rule:evenodd;clip-rule:evenodd;fill:#FFFFFF;}
</style>
<g id="Layer_x0020_1">
	<path class="st0" d="M621,136.8h29.2v100.3H621V136.8z M549.2,237.1v-69.2c0-5.7-0.1-11.1-0.3-16.3c-0.2-5.2-0.5-10.1-0.9-14.8
		h26.7l1.1,17.9c2.5-6.2,6.6-10.8,12.2-14c5.5-3.2,12.5-4.7,20.7-4.7h0.9l-0.1,26.3c-1.8-0.1-3.1-0.2-3.9-0.3
		c-0.9-0.1-1.7-0.1-2.4-0.1c-7.6,0-13.6,1.9-17.9,5.6c-4.3,3.7-6.5,8.9-6.5,15.4v54.1L549.2,237.1L549.2,237.1z M505.1,136.8h29.2
		v100.3h-29.2V136.8z M457.8,237.1l-1-14.3c-3.6,5.4-7.9,9.5-13,12.2c-5.1,2.7-10.8,4.1-17.2,4.1c-12.2,0-22-4.8-29.6-14.3
		c-7.6-9.5-11.4-22.1-11.4-37.8c0-15.8,3.7-28.4,11.1-37.8c7.4-9.4,17.2-14.2,29.5-14.2c6.6,0,12.4,1.3,17.4,3.9
		c5,2.6,9.2,6.5,12.8,11.8V93.2h29v123.7c0,5.1,0.1,9.2,0.2,12.3c0.2,3.2,0.4,5.8,0.7,7.9L457.8,237.1L457.8,237.1z M415.3,187.1
		c0,10.4,1.8,18.4,5.4,24.1c3.6,5.7,8.6,8.5,15,8.5c6.6,0,11.8-2.9,15.6-8.7s5.8-13.8,5.8-23.9c0-10.1-1.9-18.2-5.8-24
		c-3.8-5.9-9.1-8.8-15.6-8.8c-6.4,0-11.5,2.9-15,8.6C417.1,168.8,415.3,176.8,415.3,187.1z M277.4,237.1V156c0-2.9-0.1-5.9-0.2-9
		c-0.2-3.1-0.4-6.6-0.7-10.3h27.8l0.6,15c3.8-6.1,8.3-10.5,13.4-13.3c5.2-2.8,11.5-4.2,19-4.2c11.1,0,19.3,3.1,24.6,9.4
		c5.4,6.3,8.1,15.9,8.1,28.7v64.6h-28.7v-60.6c0-7.5-1.3-12.9-3.9-16.1c-2.6-3.2-6.7-4.9-12.5-4.9c-5.6,0-10.1,1.8-13.5,5.4
		c-3.4,3.6-5.1,8.4-5.1,14.4v61.7L277.4,237.1L277.4,237.1z M1,237.1V156c0-3.6-0.1-7-0.2-10.1c-0.1-3.2-0.3-6.2-0.6-9.1h27.6
		l0.8,15c3.8-6.1,8.2-10.5,13.4-13.3c5.2-2.8,11.5-4.2,18.9-4.2c7.6,0,13.9,1.7,19.2,5c5.2,3.4,9,8.2,11.4,14.6
		c3.3-6.8,7.5-11.7,12.8-14.9c5.3-3.2,11.9-4.7,20-4.7c11.1,0,19.3,3.1,24.7,9.4c5.4,6.3,8.1,15.9,8.1,28.7v64.6h-29v-60.6
		c0-7.5-1.3-12.9-3.9-16.1c-2.6-3.2-6.7-4.9-12.5-4.9c-5.6,0-10.1,1.8-13.4,5.4c-3.4,3.6-5,8.4-5,14.4v61.7h-29v-60.6
		c0-7.4-1.3-12.8-3.8-16.1c-2.5-3.3-6.6-4.9-12.3-4.9c-5.6,0-10,1.8-13.3,5.4c-3.3,3.6-4.9,8.4-4.9,14.4v61.7L1,237.1L1,237.1z
		 M235.4,226.6c-5.8,5.1-17.3,10.6-25.1,12.3c-3,0.7-6.3,1-9.9,1c-8.4,0-15.5-3-21.2-8.9c-5.7-5.9-8.5-13.5-8.5-22.7
		c0-7.4,1.4-13.4,4.3-18c2.9-4.7,7-8.4,12.3-11.1c5.2-2.7,11.8-4.6,19.6-5.7c7.8-1.1,15.9-2,24.2-2.5v-0.5c0-24-34.2-21-48.8-10.7
		l-5.1-18.9c11.4-5.4,22.7-8.1,36.7-8.1c24.5,0,45.2,11.8,45.2,39.9v64.7h-23.8V226.6z M233.1,207v-19.3c-4.4,0.4-9.2,1-14.4,1.7
		c-5.2,0.7-9.1,1.6-11.8,2.5c-3.3,1.2-5.8,2.9-7.5,5.1c-1.7,2.3-2.6,5.2-2.6,8.9C196.8,231.4,226.5,223.1,233.1,207L233.1,207z"/>
	<path class="st1" d="M324,72.9c8.9,10,25.6,37.1,45.3,35.4c46.2-3.9,72.5-53.9,129.5-50.3c23.4,1.5,34.5,40.8,57.7,44.1
		c36.6,5.3,71.7-51,131.3-47.7c24.5,1.3,34.7,42.6,59.1,44.9c22.8,2.2,58.5-30.1,89.9-46.8c-8-13.5-22.8-34.5-38.6-35.5
		c-31.1-2.1-56,37.7-83.4,30.7c-15.9-4-34.1-47.8-60.3-47.7c-48.6,0.2-82.1,48.2-125,52C505.1,54.2,493.4,0,460.7,5
		C416.1,11.8,370.4,48.6,324,72.9z"/>
</g>
</svg>
