<?xml version="1.0" encoding="utf-8"?>
<!-- Generator: Adobe Illustrator 23.0.0, SVG Export Plug-In . SVG Version: 6.00 Build 0)  -->
<svg version="1.1" id="Layer_1" xmlns="http://www.w3.org/2000/svg" xmlns:xlink="http://www.w3.org/1999/xlink" x="0px" y="0px"
	 viewBox="0 0 45.4 29.4" style="enable-background:new 0 0 45.4 29.4;" xml:space="preserve">
<style type="text/css">
	.st0{fill:#0D2B5B;}
	.st1{fill:#FDD213;}
</style>
<g>
	<path class="st0" d="M1.5,16.6c0-0.6,0-1.1,0-1.6h1.2l0.1,0.8h0c0.3-0.4,0.7-0.9,1.6-0.9c0.7,0,1.3,0.4,1.5,1h0
		c0.2-0.3,0.4-0.5,0.7-0.7c0.3-0.2,0.6-0.3,1.1-0.3c0.9,0,1.8,0.6,1.8,2.3v3.1H8.1v-3c0-0.9-0.3-1.4-1-1.4c-0.5,0-0.8,0.3-0.9,0.7
		c0,0.1-0.1,0.3-0.1,0.4v3.2H4.8v-3.1c0-0.7-0.3-1.3-0.9-1.3c-0.5,0-0.8,0.4-1,0.8c-0.1,0.1-0.1,0.3-0.1,0.4v3.2H1.5V16.6L1.5,16.6z
		 M14.5,19.1c0,0.5,0,1,0.1,1.3h-1.2l-0.1-0.6h0c-0.3,0.4-0.9,0.7-1.6,0.7c-1.1,0-1.7-0.8-1.7-1.6c0-1.4,1.2-2,3.2-2v-0.1
		c0-0.4-0.1-0.9-1.1-0.9c-0.5,0-1.1,0.2-1.4,0.4l-0.3-0.9c0.4-0.2,1.1-0.5,1.9-0.5c1.7,0,2.2,1.1,2.2,2.2L14.5,19.1L14.5,19.1z
		 M13.2,17.8c-1,0-1.9,0.2-1.9,1c0,0.5,0.3,0.8,0.8,0.8c0.5,0,0.9-0.4,1.1-0.7c0-0.1,0-0.2,0-0.3L13.2,17.8L13.2,17.8L13.2,17.8z
		 M15.5,16.6c0-0.6,0-1.1,0-1.6h1.2l0.1,0.8h0c0.2-0.4,0.8-0.9,1.7-0.9c0.9,0,1.9,0.6,1.9,2.3v3.2h-1.3v-3c0-0.8-0.3-1.4-1-1.4
		c-0.5,0-0.9,0.4-1.1,0.8c0,0.1-0.1,0.3-0.1,0.4v3.1h-1.4L15.5,16.6L15.5,16.6z M26.2,12.9v6c0,0.5,0,1.1,0,1.5H25l-0.1-0.8h0
		c-0.3,0.6-1,1-1.7,1c-1.3,0-2.3-1.1-2.3-2.7c0-1.8,1.1-2.9,2.4-2.9c0.7,0,1.3,0.3,1.5,0.7h0v-2.7L26.2,12.9L26.2,12.9L26.2,12.9z
		 M24.8,17.3c0-0.1,0-0.2,0-0.4c-0.1-0.5-0.5-1-1.2-1c-0.9,0-1.4,0.8-1.4,1.8c0,1,0.5,1.7,1.3,1.7c0.5,0,1-0.4,1.2-1
		c0-0.1,0-0.3,0-0.4L24.8,17.3L24.8,17.3z M27.1,20.4V15h1.4v5.3L27.1,20.4L27.1,20.4z M29.4,16.8c0-0.7,0-1.2,0-1.7h1.2l0,1h0
		c0.3-0.8,0.9-1,1.5-1c0.1,0,0.2,0,0.3,0v1.2c-0.1,0-0.3,0-0.4,0c-0.6,0-1.1,0.4-1.2,1c0,0.1,0,0.3,0,0.4v2.8h-1.4L29.4,16.8
		L29.4,16.8z M33,20.4V15h1.4v5.3L33,20.4L33,20.4z"/>
	<path class="st1" d="M42.9,9.4c-0.7-0.8-1.4-0.4-2-0.1c-0.2,0.1-2,1.1-2,1.1c-0.9,0.4-1.7,0-2-0.4c0,0-0.1-0.1-0.1-0.1l-0.1-0.1
		c-0.1-0.2-0.2-0.4-0.4-0.6c-0.1-0.1-0.2-0.2-0.3-0.3c-0.6-0.7-1.7-1.1-3.4-0.3c-0.8,0.5-3.5,2-3.5,2c-1,0.4-1.8-0.1-2-0.5
		c0,0,0,0,0,0l0-0.1L27,9.7c-0.1-0.1-0.2-0.2-0.2-0.4c-0.1-0.1-0.2-0.2-0.3-0.3c-0.6-0.7-1.7-1.1-3.4-0.3c-1,0.6-3.5,2-3.5,2l0,0
		l-1.8,1l0.9,1.1c0.4,0.4,1.1,1,2.2,0.5c0,0,3.1-1.8,3.1-1.8c2.6-1.4,3.9-0.1,4.5,0.9c0,0,0,0.1,0.1,0.1l0,0c0,0,0,0,0,0l0.1,0.1
		c0.3,0.4,0.7,0.7,1.2,0.7c0.3,0,0.5-0.1,0.8-0.3l3-1.7l0,0c2.7-1.5,4,0,4.6,0.9c0,0.1,0.1,0.2,0.1,0.2c0.3,0.4,0.7,0.6,1.2,0.6
		c0.3,0,0.7-0.2,0.7-0.2l3.6-2.1C44,10.8,43.6,10.2,42.9,9.4L42.9,9.4z"/>
</g>
</svg>
