<?xml version="1.0" encoding="utf-8"?>
<!-- Generator: Adobe Illustrator 23.0.0, SVG Export Plug-In . SVG Version: 6.00 Build 0)  -->
<svg version="1.1" id="Layer_1" xmlns="http://www.w3.org/2000/svg" xmlns:xlink="http://www.w3.org/1999/xlink" x="0px" y="0px"
	 viewBox="0 0 45.4 29.4" style="enable-background:new 0 0 45.4 29.4;" xml:space="preserve">
<style type="text/css">
	.st0{fill:none;}
	.st1{fill-rule:evenodd;clip-rule:evenodd;fill:#4C3494;}
</style>
<rect y="0" class="st0" width="45.4" height="29.4"/>
<path class="st1" d="M17.2,9.6h4.4l0,1.8l-1.1,0l2.6,6.1l2.5-6.1h-1.1V9.6l3.5,0l0,1l-4.2,9.8c-1,0-1.7-0.4-2-1.1l-3.5-8l-1,0
	L17.2,9.6L17.2,9.6z M11.2,9.3c3,0,5.5,2.5,5.5,5.5s-2.5,5.5-5.5,5.5s-5.5-2.5-5.5-5.5S8.1,9.3,11.2,9.3z M11.2,11.1
	c1.9,0,3.5,1.7,3.5,3.8c0,2.1-1.6,3.8-3.5,3.8c-1.9,0-3.5-1.7-3.5-3.8C7.7,12.8,9.2,11.1,11.2,11.1L11.2,11.1z M34.2,9.3
	c3,0,5.5,2.5,5.5,5.5s-2.5,5.5-5.5,5.5s-5.5-2.5-5.5-5.5S31.1,9.3,34.2,9.3z M34.2,11.1c1.9,0,3.5,1.7,3.5,3.8
	c0,2.1-1.6,3.8-3.5,3.8c-1.9,0-3.5-1.7-3.5-3.8C30.7,12.8,32.2,11.1,34.2,11.1L34.2,11.1z"/>
</svg>
