<?xml version="1.0" encoding="utf-8"?>
<!-- Generator: Adobe Illustrator 23.0.0, SVG Export Plug-In . SVG Version: 6.00 Build 0)  -->
<svg version="1.1" id="Layer_1" xmlns:xodm="http://www.corel.com/coreldraw/odm/2003"
	 xmlns="http://www.w3.org/2000/svg" xmlns:xlink="http://www.w3.org/1999/xlink" x="0px" y="0px" viewBox="0 0 542.6 174.1"
	 style="enable-background:new 0 0 542.6 174.1;" xml:space="preserve">
<style type="text/css">
	.st0{fill-rule:evenodd;clip-rule:evenodd;fill:#FFFFFF;}
</style>
<path class="st0" d="M186.1,4.8h68.3l0,27.4l-16.8,0l39.8,94.4l39.2-94.3h-17.3V4.9l54.6,0l-0.1,15.6l-65.7,153.5
	c-15.9,0-26.2-5.7-31.7-17.7l-54.1-124l-16.2,0L186.1,4.8L186.1,4.8z M92.2,0c47.5,0,85.9,38.7,85.9,86.5S139.7,173,92.2,173
	S6.3,134.3,6.3,86.5S44.7,0,92.2,0z M91.9,28.3c29.9,0,54.2,26.3,54.2,58.8c0,32.5-24.3,58.9-54.2,58.9c-29.9,0-54.2-26.3-54.2-58.8
	C37.7,54.7,62,28.3,91.9,28.3L91.9,28.3z M450.8,0c47.5,0,85.9,38.7,85.9,86.5S498.3,173,450.8,173s-85.9-38.7-85.9-86.5
	S403.3,0,450.8,0z M450.5,28.3c29.9,0,54.2,26.3,54.2,58.8c0,32.5-24.3,58.9-54.2,58.9c-29.9,0-54.2-26.3-54.2-58.8
	C396.3,54.7,420.6,28.3,450.5,28.3L450.5,28.3z"/>
</svg>
