<?xml version="1.0" encoding="utf-8"?>
<!-- Generator: Adobe Illustrator 23.0.0, SVG Export Plug-In . SVG Version: 6.00 Build 0)  -->
<svg version="1.1" id="Layer_1" xmlns="http://www.w3.org/2000/svg" xmlns:xlink="http://www.w3.org/1999/xlink" x="0px" y="0px"
	 viewBox="0 0 45.4 29.4" style="enable-background:new 0 0 45.4 29.4;" xml:space="preserve">
<style type="text/css">
	.st0{fill:none;}
	.st1{fill-rule:evenodd;clip-rule:evenodd;fill:#00A2E9;}
	.st2{fill-rule:evenodd;clip-rule:evenodd;fill:#18438E;}
	.st3{fill-rule:evenodd;clip-rule:evenodd;fill:#1F387C;}
</style>
<rect y="0" class="st0" width="45.4" height="29.4"/>
<g id="Layer_x0020_1">
	<path class="st1" d="M5.2,12.1h2.9c1.6,0,2.1,0.8,2.1,2c-0.1,1.9-1.3,3-2.8,3H6.5c-0.2,0-0.4,0.1-0.4,0.5l-0.3,2.2
		c0,0.1-0.1,0.2-0.2,0.2H3.7c-0.2,0-0.2-0.1-0.2-0.4l1.1-7C4.7,12.3,4.9,12.1,5.2,12.1L5.2,12.1z"/>
	<path class="st2" d="M17.8,12c1,0,1.9,0.5,1.8,1.9c-0.1,1.6-1,2.4-2.3,2.5h-1.2c-0.2,0-0.2,0.1-0.3,0.4l-0.2,1.4
		c0,0.2-0.1,0.3-0.3,0.3h-1.1c-0.2,0-0.2-0.1-0.2-0.4l0.9-5.7c0-0.3,0.2-0.4,0.3-0.4L17.8,12L17.8,12z M16,15.1L16,15.1l0.9,0
		c0.6,0,0.9-0.4,1-1.1c0-0.4-0.3-0.7-0.7-0.7l-0.8,0L16,15.1L16,15.1z M22.5,18.1L22.5,18.1c0.1-0.1,0.2-0.1,0.2,0l0,0.3
		c0,0.1,0,0.2,0.2,0.2h1c0.2,0,0.2-0.1,0.3-0.3l0.6-3.7c0-0.2,0-0.3-0.2-0.3h-1.1c-0.1,0-0.1,0.1-0.2,0.2l0,0.2c0,0.1-0.1,0.1-0.1,0
		c-0.2-0.4-0.6-0.6-1.3-0.6c-1.5,0-2.5,1.2-2.6,2.6c-0.1,1.1,0.7,2,1.8,2C21.8,18.6,22.1,18.4,22.5,18.1L22.5,18.1z M21.7,17.5
		L21.7,17.5c-0.6,0-1.1-0.5-1-1.1c0.1-0.6,0.7-1.1,1.3-1.1c0.6,0,1.1,0.5,1,1.1C22.9,17,22.3,17.5,21.7,17.5z M26.5,14.2L26.5,14.2
		h-1c-0.2,0-0.3,0.1-0.2,0.3l1.2,3.5l-1.2,1.7c-0.1,0.1,0,0.3,0.1,0.3h1.1c0.2,0,0.2,0,0.3-0.2l3.7-5.3c0.1-0.2,0.1-0.3-0.1-0.3
		l-1,0c-0.2,0-0.2,0.1-0.4,0.2l-1.6,2.3l-0.7-2.3C26.8,14.3,26.7,14.2,26.5,14.2L26.5,14.2z"/>
	<path class="st1" d="M34.5,12c1,0,1.9,0.5,1.8,1.9c-0.1,1.6-1,2.4-2.3,2.5h-1.2c-0.2,0-0.2,0.1-0.3,0.4l-0.2,1.4
		c0,0.2-0.1,0.3-0.3,0.3h-1.1c-0.2,0-0.2-0.1-0.2-0.4l0.9-5.7c0-0.3,0.2-0.4,0.3-0.4L34.5,12L34.5,12z M32.7,15.1L32.7,15.1l0.9,0
		c0.6,0,0.9-0.4,1-1.1c0-0.4-0.3-0.7-0.7-0.7l-0.8,0L32.7,15.1L32.7,15.1z M39.2,18.1L39.2,18.1c0.1-0.1,0.2-0.1,0.2,0l0,0.3
		c0,0.1,0,0.2,0.2,0.2h1c0.2,0,0.2-0.1,0.3-0.3l0.6-3.7c0-0.2,0-0.3-0.2-0.3h-1.1c-0.1,0-0.1,0.1-0.2,0.2l0,0.2c0,0.1-0.1,0.1-0.1,0
		c-0.2-0.4-0.6-0.6-1.3-0.6c-1.5,0-2.5,1.2-2.6,2.6c-0.1,1.1,0.7,2,1.8,2C38.5,18.6,38.8,18.4,39.2,18.1L39.2,18.1z M38.4,17.5
		L38.4,17.5c-0.6,0-1.1-0.5-1-1.1c0.1-0.6,0.7-1.1,1.3-1.1s1.1,0.5,1,1.1C39.6,17,39,17.5,38.4,17.5z M42.8,18.5L42.8,18.5h-1.1
		c-0.1,0-0.1-0.1-0.1-0.2l1-6.2c0-0.1,0.1-0.2,0.2-0.2h1.1c0.1,0,0.1,0.1,0.1,0.2l-1,6.2C43,18.4,42.9,18.5,42.8,18.5z"/>
	<path class="st2" d="M3.3,9.7h2.9c0.8,0,1.8,0,2.4,0.6c0.4,0.4,0.7,1,0.6,1.6c-0.2,2.2-1.5,3.5-3.3,3.5H4.6c-0.2,0-0.4,0.2-0.5,0.6
		l-0.4,2.5c0,0.2-0.1,0.3-0.2,0.3H1.7c-0.2,0-0.3-0.2-0.2-0.5l1.3-8.2C2.8,9.9,3,9.7,3.3,9.7z"/>
	<path class="st3" d="M4.2,15.8l0.5-3.2c0-0.3,0.2-0.4,0.5-0.4h2.9c0.5,0,0.9,0.1,1.2,0.2c-0.3,2-1.6,3.1-3.2,3.1H4.6
		C4.4,15.4,4.2,15.5,4.2,15.8z"/>
</g>
</svg>
