<?xml version="1.0" encoding="utf-8"?>
<!-- Generator: Adobe Illustrator 23.0.0, SVG Export Plug-In . SVG Version: 6.00 Build 0)  -->
<svg version="1.1" xmlns="http://www.w3.org/2000/svg" xmlns:xlink="http://www.w3.org/1999/xlink" x="0px" y="0px"
	 viewBox="0 0 500 404.3" style="enable-background:new 0 0 500 404.3;" xml:space="preserve">
<style type="text/css">
	.st0{fill:#FFFFFF;}
	.st1{fill:#BBE2F2;}
	.st2{fill:#1C31B5;}
	.st3{fill:#009CF8;}
	.st4{fill:#006BDE;}
	.st5{fill:#18315B;}
	.st6{fill:#000B29;}
	.st7{fill:#F97853;}
	.st8{fill:#EA5143;}
	.st9{fill:#FFA681;}
	.st10{fill:#264CBE;}
	.st11{fill:#E3E3E3;}
	.st12{fill:#1D567E;}
	.st13{fill:none;}
</style>
<g id="BACKGROUND">
	<rect y="-54.3" class="st0" width="500" height="500"/>
</g>
<g id="OBJECTS">
	<g>
		<g>
			<g>
				<path class="st1" d="M216.8,103.8c-15.6-56.7-86-75-126.4-32.6c-0.6,0.6-1.2,1.2-1.7,1.9C30.8,136,58.1,291,178.9,330.2
					c120.7,39.3,246.3-32.5,253.4-96.6c7.1-64.1-48.7-84.3-135.1-66.3C248.3,177.4,226.5,139.1,216.8,103.8z"/>
				<path class="st1" d="M317.2,113.5c-16.2,2.6-20.6,16.9-8.2,27.1c4.1,3.4,10,6.1,18.4,7.5c32,5.3,48.9-8.8,36.1-27.2
					C355.7,109.6,333.2,110.9,317.2,113.5z"/>
				<path class="st1" d="M59.6,228c-10-12.9-24.8-10-27.7,5.8c-1,5.2-0.6,11.7,2.2,19.8c10.6,30.6,31.2,38.7,41.1,18.7
					C81.4,259.9,69.6,240.8,59.6,228z"/>
				<path class="st1" d="M443.7,241.1c-1.5,7.8,4.9,13.3,12.2,10.3c2.4-1,4.8-2.9,7-6.3c8.2-12.8,4.1-23.8-7.4-22.7
					C448.4,223.2,445.1,233.4,443.7,241.1z"/>
				<path class="st1" d="M402.8,158.9c7.8,1.6,13.4-4.7,10.5-12.1c-1-2.4-2.8-4.9-6.1-7.1c-12.7-8.5-23.7-4.5-22.8,7
					C385,153.8,395.1,157.3,402.8,158.9z"/>
				<path class="st1" d="M214.1,75.5c6.1,5,14.1,2,14.9-5.9c0.3-2.6-0.3-5.6-2.2-9.1c-7.4-13.3-19-14.9-23.5-4.3
					C200.6,62.8,208,70.6,214.1,75.5z"/>
			</g>
			<g>
				<path class="st2" d="M462.9,280.1c12.3-12.4,21.7-26.4,12.4-28.6c-9.3-2.2-25.1,22.2-27.8,44.4l-2.7,7.3
					c2.3-16.2-3.3-35.8-11.4-36.6c-8.1-0.8-3.2,12,3.2,22.9c4.9,8.3,6.2,14.9,6.5,18.3l-12.9,34.6c3.5-25.6-5.2-56.6-18.1-57.9
					c-12.8-1.3-5,19,5.1,36.3c7.7,13.1,9.7,23.4,10.3,28.9l-2.6,6.9c1.1,0.6,2.3,1.3,3.4,1.9l15.4-41.2c3-2.2,7.5-4.9,13.9-7.1
					c12-4.1,24-10.5,17.4-15.2c-5.7-4.1-19.2,3.7-28.5,14.8l5.3-14.3C454.2,291.3,457.6,285.4,462.9,280.1z"/>
				<path class="st2" d="M74.3,118.4c1.6-15,0.4-29.4-7.1-25.9c-7.5,3.6-4.8,28.4,5.3,44.8l2.1,6.4c-7.2-12.1-21.5-22.3-27.4-18.5
					c-5.8,3.8,4.3,9.7,14.5,13.6c7.7,3,12.1,6.7,14.2,8.8l10,30.2c-11.4-19.1-34.1-35.2-43.4-29.2c-9.3,6,6.8,15.5,23,21.6
					c12.2,4.7,19.2,10.5,22.4,13.8l2,6c1.1-0.2,2.2-0.4,3.3-0.6l-11.9-36c0.8-3.1,2.4-7.3,5.5-12.2c5.9-9.2,10.5-20,3.5-19.6
					c-6,0.4-10.9,12.9-11.2,25.3l-4.1-12.4C74.5,130.7,73.6,124.8,74.3,118.4z"/>
				<g>
					<g>
						<path class="st3" d="M379.7,321.3c0.2,0.8,0.3,1.8,0.5,2.8l0,0c2.2,10.3,7.7,27.2,19.9,30.5c0,0-6.7-34.8,17.1-43.9
							c23.8-9.1,21.2-17.7,19.8-33.1c-1.4-15.4-6.6-18.3,9.9-32.7c16.5-14.4,13.3-35.8,13.3-35.8s-15.6,24.5-32.3,25
							c-16.7,0.6-19.6,14.8-18.9,25.4c0.7,10.6-13.5,11.8-21.1,17.9c-7.7,6.1-9.1,38.4-9.1,38.4S379.1,318,379.7,321.3z"/>
					</g>
					<g>
						<path class="st4" d="M379.7,321.3c0.2,0.8,0.3,1.8,0.5,2.8c1.7-5.2,4.1-9.5,6.4-12.9c5.3-7.9,12.9-14.4,19.6-17
							c10.8-4.1,16-14.6,17-34.2c0.6-11.4,12.5-18.1,12.6-18.2c0.3-0.2,0.5-0.6,0.3-1c-0.2-0.4-0.6-0.5-1-0.3
							c-0.5,0.3-12.7,7.2-13.4,19.4c-1,19-5.9,29.1-16.1,33c-7.1,2.7-14.7,9.2-20.3,17.5C383.4,313.3,381.3,316.9,379.7,321.3z"/>
					</g>
				</g>
				<g>
					<g>
						<path class="st4" d="M116.4,354.4h16.7c-9-1.5-31.4-11.1-33.4-30.4c-2.5-24.4-11.2-24.1-25.9-26.7c-14.7-2.6-18.7,1.6-28-17.3
							c-9.3-19-30.1-21.3-30.1-21.3S34.6,279.3,31,295c-3.6,15.7,8.9,22,19,23.9c10,2,7.6,15.5,11.5,24.1c1.7,4,8.9,8.1,16.1,11.3
							H116.4z"/>
					</g>
					<g>
						<path class="st2" d="M80.1,330.3c0.7,7.3,4.9,16,11.2,23.3c0.2,0.3,0.5,0.5,0.7,0.8H94c-0.5-0.6-1.1-1.1-1.5-1.7
							c-6-6.9-10.2-15.6-10.9-22.5c-1.1-11-9.6-18.6-27.7-24.4c-10.5-3.4-13.8-16.2-13.8-16.3c-0.1-0.4-0.5-0.6-0.8-0.5
							c-0.4,0.1-0.6,0.5-0.5,0.8c0.1,0.6,3.5,13.6,14.7,17.3C70.9,312.8,79.1,319.9,80.1,330.3z"/>
					</g>
				</g>
				<g>
					<g>
						<path class="st3" d="M125.4,309.1c-0.4,1.2-0.8,2.5-1.2,3.8l0,0c-4.8,14.4-14.5,38.6-32.5,41.5c0,0,14.3-49.6-18.3-66.2
							c-32.5-16.6-27.5-28.5-23.2-50.2c4.3-21.7,12.3-25.1-9.1-48.1c-21.3-23.1-13.5-53.2-13.5-53.2s18.5,37.3,42.2,40.7
							s25.7,24.1,23.1,39.1c-2.6,15,17.4,18.9,27.4,28.8c10,9.9,7.1,56.2,7.1,56.2S126.7,304.5,125.4,309.1z"/>
					</g>
					<g>
						<path class="st4" d="M125.4,309.1c-0.4,1.2-0.8,2.5-1.2,3.8c-1.6-7.7-4.4-14.2-7.1-19.3c-6.4-12.1-16.1-22.5-25.4-27.2
							c-14.7-7.4-20.6-23.3-19-51.4c0.9-16.3-15.1-27.8-15.2-27.9c-0.5-0.3-0.6-1-0.3-1.4c0.3-0.5,1-0.6,1.4-0.3
							c0.7,0.5,17.1,12.2,16.1,29.7c-1.5,27.2,4,42.5,17.9,49.5c9.8,4.9,19.6,15.4,26.3,28.1C121.3,297.1,123.7,302.6,125.4,309.1z"
							/>
					</g>
				</g>
			</g>
			<g>
				<g>
					<path class="st5" d="M138.3,342.7c0.1,3.8,0.1,7.7,0.2,11.7h36.4c0.1-4.3,0.1-8.5,0.2-12.4c0.1-10.6,0.1-19.3,0.1-24.7
						c0-3.8,0-6,0-6l-37.1-0.4c0,0,0,3.2,0,8.4C138.1,325.1,138.1,333.4,138.3,342.7z"/>
					<path class="st6" d="M138.1,319.3c0,5.8,0.1,14.2,0.2,23.4c11.4,0.9,23.9,0.9,36.7-0.8c0.1-10.6,0.1-19.3,0.1-24.7L138.1,319.3
						z"/>
				</g>
				<g>
					<path class="st5" d="M92.5,334.3c0,5.9,0.1,12.7,0.2,20h36.4c0.1-4.3,0.2-8.5,0.2-12.5c0.1-8.7,0.2-16.5,0.2-22.1
						c0-5.5,0-8.9,0-8.9l-37.1,0.4c0,0,0,3.9,0,10.6C92.4,325.3,92.4,329.5,92.5,334.3z"/>
					<path class="st6" d="M92.4,321.8c0,3.5,0,7.7,0,12.6c7.4,2.2,20.6,5.6,36.8,7.5c0.1-8.7,0.2-16.5,0.2-22.1L92.4,321.8z"/>
				</g>
				<g>
					<path class="st5" d="M153.4,115.8c0,0,5.8-5.6,5.8-11.2c0-5.6-3.8-3.9-5.8-9.1c-2-5.2-8-8.3-11.4-7.7
						c-3.3,0.6-10.3-12.3-19.7-10c-9.5,2.3-8.6,14.4-12.7,16.2c-4.1,1.8-2.9,9-0.8,10.6c2.1,1.6,3.1,8.2,4.3,8.1
						C114.2,112.5,153.4,115.8,153.4,115.8z"/>
					<g>
						<path class="st7" d="M114,115.6c0,0-3.7-4.9-6.4-0.8c-2.7,4.1,1.1,16,7.8,13.1L114,115.6z"/>
						<g>
							<path class="st8" d="M114,124.2c-0.2,0-0.5-0.2-0.5-0.4c-1-3.7-4.9-5.2-4.9-5.2c-0.3-0.1-0.4-0.4-0.3-0.7
								c0.1-0.3,0.4-0.4,0.7-0.3c0.2,0.1,4.4,1.7,5.6,6c0.1,0.3-0.1,0.6-0.4,0.7C114.1,124.2,114,124.2,114,124.2z"/>
						</g>
						<g>
							<path class="st8" d="M110.1,122.3c-0.1,0-0.2,0-0.3-0.1c-0.3-0.2-0.3-0.5-0.2-0.8c0,0,0.7-1.1,2.1-1.7c0.3-0.1,0.6,0,0.7,0.3
								c0.1,0.3,0,0.6-0.3,0.7c-1.1,0.5-1.6,1.3-1.6,1.3C110.5,122.2,110.3,122.3,110.1,122.3z"/>
						</g>
					</g>
					<g>
						<path class="st7" d="M151.9,115.6c0,0,3.7-4.9,6.4-0.8c2.7,4.1-1.1,16-7.8,13.1L151.9,115.6z"/>
						<g>
							<path class="st8" d="M151.9,124.2c0.2,0,0.5-0.2,0.5-0.4c1-3.7,4.9-5.2,4.9-5.2c0.3-0.1,0.4-0.4,0.3-0.7
								c-0.1-0.3-0.4-0.4-0.7-0.3c-0.2,0.1-4.4,1.7-5.6,6c-0.1,0.3,0.1,0.6,0.4,0.7C151.8,124.2,151.9,124.2,151.9,124.2z"/>
						</g>
						<g>
							<g>
								<path class="st8" d="M155.8,122.3c0.1,0,0.2,0,0.3-0.1c0.3-0.2,0.3-0.5,0.2-0.8c0,0-0.7-1.1-2.1-1.7c-0.3-0.1-0.6,0-0.7,0.3
									c-0.1,0.3,0,0.6,0.3,0.7c1.1,0.5,1.6,1.3,1.6,1.3C155.4,122.2,155.6,122.3,155.8,122.3z"/>
							</g>
						</g>
					</g>
					<path class="st9" d="M142,138v11.9c0,0-3.5,6.1-8.3,6.5c-4.8,0.4-9.1-5.2-9.1-5.2v-12.3L142,138z"/>
					<path class="st7" d="M142,138v5.3c-3.2,3.6-8.9,4.5-17.4,3.2v-7.7L142,138z"/>
					<path class="st9" d="M154.6,107.5c-0.2,4.6-0.7,10.4-1.5,15c-0.2,1.2-0.5,2.2-0.7,3.2c-2.5,8.8-8.8,23.8-26.3,17.5
						c-7.7-2.8-11.3-11.4-12.9-20.2c-1.1-6-1.2-12-1.2-16.3c0.1-4.4,2.5-8.4,6.3-10.6c10.3-5.9,21.3-3.7,28.5-0.9
						C151.6,97.2,154.8,102.1,154.6,107.5z"/>
					<path class="st5" d="M113,123.1c0,0,1.7,10.1,3.3,13.8c1.6,3.7,6,4.4,7.6,7.5c2.4,4.5,5.9,8,11.8,5.8c4.9-1.8,4.7-4.3,7.4-6.2
						c4.7-3.3,7-7,7.2-10c0.2-3,2.5-11.5,2.5-11.5l-2.5-0.2c0,0-1.4,3-3.6,6.3c-2.1-4.7-12.4-1.3-12.4-1.3l-2,0.6l-2-0.6
						c0,0-10.4-3.3-12.4,1.6c-1.3-1.9-2.3-4.1-2.7-6.4L113,123.1z M132.6,129.5c11.7-2,9.6,4.9,9.6,5.1v0c0,0,0,0,0,0
						c-0.8,0.8-1.6,1.4-2.4,1.8c-4.6,2.5-5,2.1-6.8,2.2c-1.8,0.1-4.3-0.5-6.9-1.9c-0.8-0.4-2-1.3-3.3-2.5
						C122.7,134.3,120.9,128,132.6,129.5z"/>
					<path class="st5" d="M125.5,117.2c0,1.3-0.7,2.3-1.5,2.3c-0.8,0-1.5-1-1.5-2.3c0-1.3,0.7-2.3,1.5-2.3
						C124.9,114.9,125.5,115.9,125.5,117.2z"/>
					<path class="st5" d="M142.9,117.2c0,1.3-0.7,2.3-1.5,2.3c-0.8,0-1.5-1-1.5-2.3c0-1.3,0.7-2.3,1.5-2.3
						C142.3,114.9,142.9,115.9,142.9,117.2z"/>
					<path class="st5" d="M147.2,109.6c0,0-6-2.4-10.7-0.4l0.5,2.6c0,0,6.8-0.6,10.3,0.8C147.6,111.6,147.6,110.6,147.2,109.6z"/>
					<path class="st5" d="M118.5,109.6c0,0,6.1-2.4,10.8-0.4l-0.5,2.6c0,0-6.9-0.6-10.3,0.8C118.1,111.7,118.1,110.7,118.5,109.6z"
						/>
					<g>
						<path class="st7" d="M133.2,126.8c1,0,1.9-0.4,2-0.4c0.3-0.1,0.4-0.4,0.3-0.7c-0.1-0.3-0.4-0.4-0.7-0.3
							c-0.5,0.2-1.7,0.5-2.3,0.2c-0.1-0.1-0.2-0.2-0.3-0.5c-0.2-2,0.3-8.6,0.3-8.7c0-0.3-0.2-0.6-0.5-0.6c-0.3,0-0.6,0.2-0.6,0.5
							c0,0.3-0.6,6.8-0.3,8.9c0.1,0.8,0.5,1.2,0.8,1.4C132.3,126.7,132.7,126.8,133.2,126.8z"/>
					</g>
					<path class="st0" d="M126,130.7c0.4,2.2,1.9,6.1,6.7,6.1c4.8,0,6.2-3.6,6.6-6.1H126z"/>
					<path class="st5" d="M154.6,107.5c-0.2,4.6-0.7,10.4-1.5,15l-2.5-0.2c0,0,0.6-3.9,0.9-6.4c0.3-2.5,0.8-7.3-1.4-7.9
						c-2.2-0.6-0.9-6-3.9-8.4c-3-2.4-9.7-4.4-14.1-1.7c-4.4,2.7-9.5,1.2-11.5,1.7c-2.1,0.5-4.8,3.3-4.1,5.9c0.8,2.6-1.5,4.2-2.1,7
						c-0.5,2.7,1.2,10.1,1.2,10.1l-2.4,0.5c-1.1-6-1.2-12-1.2-16.3c0.1-4.4,2.5-8.4,6.3-10.6c10.3-5.9,21.3-3.7,28.5-0.9
						C151.6,97.2,154.8,102.1,154.6,107.5z"/>
				</g>
				<g>
					<g>
						<path class="st4" d="M182.8,329.1c-11.4,2.9-22.9,4.8-34.3,5.6c-0.5,0-1,0.1-1.6,0.1c-1.6,0.1-3.1,0.2-4.7,0.3
							c-7.8,0.3-15.6,0.2-23.4-0.4c-1.6-0.1-3.1-0.3-4.7-0.4c-0.5,0-1-0.1-1.5-0.2c-9.3-1-18.6-2.7-27.9-5c-0.1-8.6,0-35.7,0.5-65
							c0.1-3.5,0.1-7.1,0.2-10.7c0.8-38.7,2.4-78,5.3-82c2.7-3.8,11-8.6,18.9-12.9c0.5-0.3,0.9-0.5,1.4-0.8c1.8-1,3.5-1.9,5.1-2.8
							c3.5-1.9,6.5-3.6,8.4-4.9v1.1c0,0,4.3,5.6,9,5.2c4.4-0.4,7.7-5.4,8.3-6.3c2.1,1.5,5.8,3.5,10.1,5.7c1.2,0.6,2.4,1.3,3.7,1.9
							c0.5,0.2,0.9,0.5,1.4,0.7c8.7,4.6,18.2,9.9,21,13.7c0.2,0.3,0.4,0.8,0.6,1.4c1.7,5.7,2.7,24.5,3.3,47.2c0,0.1,0,0.2,0,0.2
							c0,0.9,0.1,1.8,0.1,2.8c0,0.1,0,0.2,0,0.4c0.2,8,0.4,16.4,0.5,24.8c0,0.7,0,1.3,0,2c0,0.3,0,0.7,0,1c0,1.7,0,3.3,0.1,5
							c0,1.2,0,2.4,0,3.7C183,291.3,182.9,320.1,182.8,329.1z"/>
					</g>
					<g>
						<path class="st10" d="M182.1,223.9c-2.8-4.5-5.7-9.1-8.5-13.1c0,0,0,0,0,0c-1.2-1.7-2.3-3.3-3.4-4.8c0,0,0-0.1-0.1-0.1
							c-0.3-0.5-0.7-0.9-1-1.3c-0.1-0.1-0.1-0.2-0.1-0.2l0,0c-0.1-0.3,0-0.6,0.3-0.8c0.3-0.3,0.8-0.2,1.1,0.1
							c3.3,4.4,7.6,10.8,11.7,17.3c0,0.1,0,0.2,0,0.2C182,222.1,182.1,223,182.1,223.9z"/>
					</g>
					<path class="st4" d="M178.2,171.6c0,0,17.2,31.6,27.8,47.6c0,0,6-5.5,13.8-12.8c8.4-8,20-21.3,20-21.3l6.4,7.6
						c0,0-25.9,46.6-37.5,52.5c-11.6,5.9-33-35.6-33-35.6L178.2,171.6z"/>
					<g>
						<path class="st10" d="M105.2,296.1C105.2,296.1,105.1,296.1,105.2,296.1c-0.5,0-0.8-0.4-0.8-0.8c0.9-25.5-12.3-33.8-12.5-33.9
							c-0.4-0.2-0.5-0.7-0.3-1.1c0.2-0.4,0.7-0.5,1.1-0.3c0.1,0.1,3.6,2.2,7,7.7c3.1,5,6.7,13.8,6.2,27.6
							C105.9,295.8,105.6,296.1,105.2,296.1z"/>
					</g>
					<g>
						<path class="st10" d="M161.6,272.1c-0.4,0-0.7-0.3-0.8-0.7c-0.4-5.4,1.4-9.3,3.6-14.3c0.7-1.5,1.3-3,2-4.6
							c4.3-10.5,2.2-22.6,2.1-22.7c-0.1-0.4,0.2-0.8,0.6-0.9c0.4-0.1,0.8,0.2,0.9,0.6c0.1,0.5,2.3,12.6-2.2,23.6
							c-0.7,1.7-1.4,3.2-2,4.7c-2.2,4.9-3.8,8.5-3.5,13.5C162.4,271.7,162.1,272,161.6,272.1C161.6,272.1,161.6,272.1,161.6,272.1z"
							/>
					</g>
					<g>
						<path class="st0" d="M116.2,155c0.3,2.5,0.8,5.8,1.4,9.5c0.2,1.1,0.3,2.2,0.5,3.4c0.5,3.8,1.1,8,1.6,12.2
							c0.1,1.1,0.3,2.3,0.4,3.4c0.4,4.2,0.7,8.3,0.9,12.1c0,1.2,0.1,2.3,0,3.4c0,2.9-0.2,5.6-0.5,7.9c-0.2,1.5-0.4,2.9-0.6,4.3
							c-0.1,1.2-0.3,2.3-0.4,3.4c-0.5,4.3-0.7,8.4-0.7,12.2c0,1.2,0,2.3,0,3.4c0,4.3,0.3,8.4,0.6,12.2c0.1,1.1,0.2,2.3,0.3,3.4
							c0.5,4.2,1,8.2,1.6,12.1c0.2,1.1,0.3,2.3,0.5,3.4c0.2,1.8,0.5,3.6,0.6,5.4c0.2,1.9,0.3,4.2,0.4,6.7c0,1.1,0,2.2,0,3.4
							c0,3.7-0.1,7.9-0.3,12.2c0,1.1-0.1,2.3-0.2,3.4c-0.2,4-0.4,8.1-0.7,12.2c-0.1,1.1-0.2,2.3-0.3,3.4c-0.3,4.2-0.7,8.4-1,12.2
							c-0.1,1.2-0.2,2.3-0.3,3.4c-0.4,4.2-0.8,8-1.1,11c7.8,0.6,15.6,0.7,23.4,0.4c0.2-3.2,0.7-8.3,1.2-14.4
							c0.1-1.1,0.2-2.3,0.3-3.4c0.3-3.9,0.6-8,0.7-12.1c0-1.1,0.1-2.3,0.1-3.4c0.1-4.2,0.1-8.3-0.1-12.1c-0.1-1.2-0.1-2.3-0.2-3.4
							c-0.1-1.1-0.2-2.3-0.3-3.3c-0.4-3-0.5-6-0.5-8.8c0-1.1,0-2.3,0.1-3.4c0.2-4,0.6-7.9,1.1-12.1c0.1-1.1,0.3-2.3,0.4-3.4
							c0.5-3.7,0.9-7.7,1.3-12.1c0.1-1.1,0.2-2.3,0.3-3.4c0.3-3.7,0.4-7.7,0.5-12.1c0-1.1,0-2.3,0-3.4c0-3.8-0.2-7.8-0.5-12.2
							c0-0.4-0.1-0.8-0.1-1.2c-0.1-0.8-0.1-1.5-0.1-2.3c-0.2-4-0.1-8.1,0.1-12.1c0.1-1.1,0.1-2.3,0.2-3.4c0.3-4.1,0.8-8.1,1.3-12
							c0.2-1.2,0.3-2.3,0.5-3.4c0.6-4.2,1.3-8.2,2-11.8c0.2-1.2,0.4-2.3,0.6-3.4c0.4-2.4,0.8-4.6,1.1-6.4c-4.3-2.3-8-4.3-10.1-5.7
							c-0.6,0.9-3.9,6-8.3,6.3c-4.8,0.4-9-5.2-9-5.2v-1.1C122.8,151.4,119.7,153.1,116.2,155z"/>
						<g>
							<g>
								<path class="st11" d="M117.6,164.5c0.2,1.1,0.3,2.2,0.5,3.4c4.3,0.1,9.4-0.5,15.4-2c6.5-1.5,12.3-1.2,16.8-0.4
									c0.2-1.2,0.4-2.3,0.6-3.4c-4.9-0.9-11.1-1.2-18.2,0.5C126.7,164,121.7,164.6,117.6,164.5z"/>
							</g>
							<g>
								<path class="st11" d="M119.7,180.1c0.1,1.1,0.3,2.3,0.4,3.4c3.9-0.1,8.3-0.7,13.5-1.9c5.4-1.2,10.3-1.3,14.4-0.8
									c0.2-1.2,0.3-2.3,0.5-3.4c-4.4-0.5-9.7-0.5-15.6,0.9C127.7,179.4,123.4,180,119.7,180.1z"/>
							</g>
							<g>
								<path class="st11" d="M120.9,195.6c0,1.2,0.1,2.3,0,3.4c3.6-0.2,7.8-0.8,12.6-1.9c4.7-1.1,9.1-1.2,12.8-0.9
									c0.1-1.1,0.1-2.3,0.2-3.4c-4-0.3-8.7-0.1-13.8,1C128.3,194.8,124.3,195.4,120.9,195.6z"/>
							</g>
							<g>
								<path class="st11" d="M119.4,214.7c4,0,8.6-0.7,14.1-2c4.8-1.1,9.2-1.3,13-0.9c0-0.4-0.1-0.8-0.1-1.2
									c-0.1-0.8-0.1-1.5-0.1-2.3c-4-0.3-8.5-0.1-13.5,1.1c-5,1.2-9.3,1.8-13,1.9C119.6,212.4,119.5,213.5,119.4,214.7z"/>
							</g>
							<g>
								<path class="st11" d="M118.6,230.2c4.2,0,9.1-0.6,14.9-2c5-1.2,9.6-1.3,13.5-0.9c0-1.1,0-2.3,0-3.4c-4.1-0.4-9-0.2-14.3,1
									c-5.5,1.3-10.2,1.9-14.1,1.9C118.6,228,118.6,229.1,118.6,230.2z"/>
							</g>
							<g>
								<path class="st11" d="M119.3,242.4c0.1,1.1,0.2,2.3,0.3,3.4c4-0.1,8.5-0.7,13.9-2c4.7-1.1,9-1.3,12.8-0.9
									c0.1-1.1,0.2-2.3,0.3-3.4c-4-0.3-8.7-0.1-13.8,1C127.5,241.7,123.1,242.4,119.3,242.4z"/>
							</g>
							<g>
								<path class="st11" d="M121.2,257.9c0.2,1.1,0.3,2.3,0.5,3.4c3.5-0.2,7.4-0.8,11.9-1.9c4-0.9,7.7-1.2,11.1-1
									c0.1-1.1,0.3-2.3,0.4-3.4c-3.7-0.2-7.8,0.1-12.2,1.1C128.4,257.1,124.5,257.7,121.2,257.9z"/>
							</g>
							<g>
								<path class="st11" d="M122.7,273.4c0,1.1,0,2.2,0,3.4c3.2-0.3,6.8-0.9,10.8-1.8c3.5-0.8,6.9-1.1,9.9-1.1
									c0-1.1,0-2.3,0.1-3.4c-3.3,0-6.9,0.3-10.7,1.2C129,272.6,125.7,273.1,122.7,273.4z"/>
							</g>
							<g>
								<path class="st11" d="M122.3,292.4c3.3-0.3,7-0.9,11.2-1.8c4-0.9,7.6-1.2,10.9-1c-0.1-1.2-0.1-2.3-0.2-3.4
									c-3.5-0.1-7.3,0.2-11.5,1.2c-3.8,0.9-7.2,1.5-10.3,1.7C122.4,290.1,122.4,291.3,122.3,292.4z"/>
							</g>
							<g>
								<path class="st11" d="M121.3,308.1c3.6-0.2,7.6-0.8,12.2-1.9c3.9-0.9,7.6-1.2,10.9-1.1c0-1.1,0.1-2.3,0.1-3.4
									c-3.5-0.1-7.5,0.2-11.7,1.2c-4.2,1-7.9,1.6-11.2,1.8C121.5,305.8,121.4,307,121.3,308.1z"/>
							</g>
							<g>
								<path class="st11" d="M120,323.7c3.9-0.1,8.3-0.7,13.5-1.9c3.5-0.8,6.8-1.1,9.9-1.1c0.1-1.1,0.2-2.3,0.3-3.4
									c-3.3,0-7,0.3-10.9,1.2c-4.7,1.1-8.9,1.7-12.4,1.9C120.2,321.5,120.1,322.6,120,323.7z"/>
							</g>
						</g>
					</g>
					<g>
						<g>
							<path class="st10" d="M146.9,334.9c0.5,0,1-0.1,1.6-0.1c3.1-18,1.3-44.5,0.6-52.6c-0.7-8.4,0.6-19.3,3.6-29.7
								c2.3-8.1,0.9-27-0.2-42.1c-0.3-4.2-0.6-8.3-0.8-11.6c-0.6-10.7,3.3-30.4,5.4-40.3c-0.5-0.3-0.9-0.5-1.4-0.7
								c-2.1,9.8-6.1,29.9-5.5,41.1c0.2,3.3,0.5,7.3,0.8,11.6c1.1,15,2.5,33.7,0.3,41.6c-3,10.6-4.3,21.7-3.6,30.3
								C148.3,290.3,150,317,146.9,334.9z"/>
						</g>
						<g>
							<path class="st10" d="M115.5,261.4c1.8,11.1,1.2,18.3,0.6,26.6c-0.2,2.7-0.4,5.5-0.6,8.6c-0.5,9.7-2.1,29.1-2.8,37.5
								c0.5,0.1,1,0.1,1.5,0.2c0.7-8.4,2.4-27.9,2.8-37.6c0.2-3.1,0.4-5.8,0.6-8.5c0.7-8.4,1.2-15.7-0.6-27
								c-0.4-2.4-0.8-4.9-1.2-7.3c-2-12.1-4.2-24.6-3.2-30.6c0.2-1.5,0.6-3.1,0.9-4.9c1.4-7.2,3-16.2,2.5-24
								c-0.5-7.7-3.7-28.7-4.9-36.6c-0.5,0.3-0.9,0.5-1.4,0.8c1.3,8.3,4.3,28.4,4.8,35.9c0.5,7.6-1.2,16.5-2.5,23.6
								c-0.3,1.8-0.6,3.4-0.9,4.9c-1,6.2,1,18.3,3.2,31.1C114.7,256.6,115.1,259,115.5,261.4z"/>
						</g>
					</g>
				</g>
				<g>
					<path class="st9" d="M85.7,184.3c0,0-15.4,51.5-19.3,69.8c-3.8,18.3-4.1,56.5-4.1,56.5s-6.7,14-6.9,20.2
						c-0.2,6.6,3.3,11.9,2.9,16.3c-0.4,4.3,4.9,2,3.4-6.8s2.7-16.8,4.6-16.5c1.8,0.3-1.5,9.6,0.1,13c1.6,3.4,3.7-3.2,5.8-7.2
						c2.2-4.1,2-13.1,1.1-19.6c-1-6.4,10.7-45.5,10.7-56.8l14.8-49.9C98.8,203.4,93.9,182.5,85.7,184.3z"/>
					<path class="st4" d="M100.7,202.1c-0.5,3.3-2.4,9-4.7,16.1v0c-0.2,0.6-0.4,1.2-0.6,1.8c0,0,0,0.1,0,0.1
						c-0.6,1.8-1.2,3.6-1.8,5.6c0,0,0,0,0,0c-2.6,7.9-5.5,17-7.9,26.4c-0.8,3.2-1.6,6.4-2.3,9.7c-0.9,4.1-1.6,8.2-2.2,12.2
						c-2,14.5-5.7,32.8-5.7,32.8c-5.5,2.3-14.2-0.7-14.2-0.7s-0.2-26.4,1-36.6c1.5-12.7,3.5-21.7,5.9-32
						c6.6-28.5,18.3-56.4,21.5-63.8c0.3-0.6,0.5-1,0.6-1.4h2.8C98.2,175.7,102.1,193.2,100.7,202.1z"/>
					<path class="st3" d="M60.6,300.8l0.4,6.1c0,0,8.2,2.7,14.4,0.8l1.6-5.4C71.1,302.5,65.6,302.4,60.6,300.8z"/>
					<g>
						<path class="st10" d="M95.9,218.2L95.9,218.2c0,0.1,0,0.2,0,0.3c-0.2,0.5-0.4,1-0.6,1.6c0,0,0,0.1,0,0.1
							c-0.6,1.7-1.2,3.6-1.8,5.6c0,0,0,0,0,0c-3.2,10.2-6.5,23.1-8,31.4c0-1.7,0-3.3,0.1-5c-0.8,3.2-1.6,6.4-2.3,9.7
							c0.3-3,1.2-7.5,2.4-12.7c2.4-10.4,6-23.2,8.9-31.1c0.1-0.4,0.6-0.6,1-0.5C95.7,217.6,95.9,217.9,95.9,218.2z"/>
					</g>
				</g>
			</g>
			<g>
				<g>
					<g>
						<g>
							<path class="st5" d="M372.1,354.4h36.5c-0.1-2.5-0.2-5-0.4-7.2c-0.6-12.5-1.2-21-1.2-21l-29.7,1.3l-2.5,0.1l-4.4,0.2
								c0,0,0.4,7.6,1.1,18.7C371.7,349,371.9,351.6,372.1,354.4z"/>
						</g>
					</g>
					<path class="st6" d="M374.9,327.6l-4.4,0.2c0,0,0.4,7.6,1.1,18.7c11.4,0.9,23.8,1.3,36.6,0.6c-0.6-12.5-1.2-21-1.2-21
						l-29.7,1.3L374.9,327.6z"/>
					<g>
						<path class="st6" d="M378.9,354.4c-0.7-11.6-1.2-21.4-1.5-26.9l-2.5,0.1c0.3,5.5,0.8,15.3,1.5,26.8H378.9z"/>
					</g>
				</g>
				<g>
					<g>
						<g>
							<path class="st5" d="M361.4,354.4c0.2-3.1,0.4-6.1,0.5-8.8c0.6-10.6,1-17.8,1-17.8l-4.7-0.2l-2.5-0.1l-29.3-1.3
								c0,0-0.3,5.1-0.8,13.1c-0.2,4.3-0.5,9.4-0.8,15.1H361.4z"/>
						</g>
					</g>
					<path class="st6" d="M325.7,339.3c8,1.9,20.8,4.5,36.2,6.3c0.6-10.6,1-17.8,1-17.8l-4.7-0.2l-2.5-0.1l-29.3-1.3
						C326.4,326.1,326.1,331.2,325.7,339.3z"/>
					<g>
						<path class="st6" d="M356.7,354.4c0.7-11.5,1.2-21.4,1.5-26.8l-2.5-0.1c-0.3,5.5-0.8,15.4-1.5,26.9H356.7z"/>
					</g>
				</g>
				<g>
					<g>
						<g>
							<path class="st4" d="M412.3,331.8c-7.4,2-14.9,3.6-22.3,4.6c-2.6,0.4-5.2,0.7-7.7,0.9c-3.5,0.3-7,0.5-10.4,0.6
								c-5.8,0.2-11.5,0.1-17.3-0.4c-11.1-0.8-22.3-2.8-33.4-5.8c-0.1-10.4,0.1-47.6,0.8-83.5c0-1.6,0.1-3.2,0.1-4.8
								c0-0.3,0-0.7,0-1c0-0.4,0-0.7,0-1.1c0-1.1,0.1-2.3,0.1-3.4c0.1-2.3,0.1-4.6,0.2-6.9c0-1.4,0.1-2.7,0.1-4c0-0.3,0-0.6,0-0.8
								c0-0.9,0.1-1.8,0.1-2.6c0,0,0,0,0,0c0-0.3,0-0.5,0-0.8c0-0.8,0.1-1.6,0.1-2.4c0-0.7,0-1.3,0.1-2c0.9-24.2,2.1-43.3,3.9-46
								c3.1-4.6,13.5-10.6,21.9-15.6c3-1.8,6.6-3.6,8.6-4.9c3,2.4,5.1,4.6,9.5,4.4c4.9-0.2,6.2-3.1,8-5.7c1.1,0.7,4.1,3.1,5.6,4
								c1.3,0.8,2.7,1.6,4.2,2.4c2.3,1.3,4.7,2.7,7.1,4.1c3.5,2.1,7,4.2,9.9,6.3c2.9,2.1,5.2,4,6.3,5.7c1.6,2.5,2.7,18.4,3.4,39.3
								c0,0.7,0,1.5,0.1,2.2c0,0.1,0,0.2,0,0.3c0,0.8,0.1,1.5,0.1,2.3c0.1,2.4,0.1,4.8,0.2,7.2c0,0.5,0,1,0,1.6c0,0.4,0,0.8,0,1.2
								c0,1,0,2,0.1,3c0,0.2,0,0.4,0,0.6c0.1,2.7,0.1,5.4,0.2,8.2c0,0.8,0,1.6,0,2.4C412.6,279.3,412.4,320.7,412.3,331.8z"/>
						</g>
					</g>
					<path class="st10" d="M412,241.6l-11.8,11.9l-11-11.1l-11,11.1l-11-11.2l-11,11.2l-11.1-11.2l-11.1,11.2l-12-12.1
						c0-1.1,0.1-2.3,0.1-3.4c0.1-2.3,0.1-4.6,0.2-6.9l11.7-11.9l11.1,11.2l11.1-11.2l11,11.2l11-11.2l11,11.1l11-11.1l11.6,11.7
						c0.1,2.7,0.1,5.4,0.2,8.2C411.9,240,411.9,240.8,412,241.6z"/>
					<g>
						<path class="st10" d="M391.7,303.1C391.7,303.1,391.7,303.1,391.7,303.1c-15.8-0.1-29.2-7.2-37.7-13.2
							c-9.2-6.5-14.8-13.1-14.8-13.1c-0.3-0.3-0.2-0.8,0.1-1.1c0.3-0.3,0.8-0.2,1.1,0.1c0.1,0.1,5.5,6.5,14.6,12.9
							c8.3,5.9,21.5,12.9,36.8,12.9c0.4,0,0.8,0.3,0.8,0.8C392.4,302.7,392.1,303.1,391.7,303.1z"/>
					</g>
					<g>
						<path class="st10" d="M381.8,293.8c-13.4-2.6-25.3-12.9-25.8-13.4c-0.3-0.3-0.3-0.8-0.1-1.1c0.3-0.3,0.8-0.3,1.1-0.1
							c0.1,0.1,14.1,12.2,28.3,13.5c0.4,0,0.7,0.4,0.7,0.8c0,0.4-0.4,0.7-0.8,0.7C384.1,294.2,383,294,381.8,293.8z"/>
					</g>
					<g>
						<path class="st10" d="M355,177.2c-0.4,0-0.7-0.3-0.7-0.6c-0.1-0.4,0.2-0.8,0.6-0.9c19.2-3.6,25-16,25-16.1
							c0.2-0.4,0.6-0.6,1-0.4c0.4,0.2,0.6,0.6,0.4,1c-0.2,0.5-6.2,13.2-26.1,17C355.1,177.2,355,177.2,355,177.2z"/>
					</g>
					<g>
						<path class="st10" d="M331.5,210.5L331.5,210.5c0,0.1-0.1,0.2-0.1,0.2c-0.3,0.5-0.6,0.9-0.9,1.4c0,0,0,0.1,0,0.1
							c-1,1.6-2,3.2-3,5c0,0,0,0,0,0c-1.6,2.8-3.3,5.9-4.9,9c0-0.9,0.1-1.8,0.1-2.6c0,0,0,0,0,0c0-0.3,0-0.5,0-0.8
							c2.6-4.9,5.3-9.5,7.5-12.9c0.2-0.4,0.7-0.5,1-0.2C331.5,209.9,331.6,210.2,331.5,210.5z"/>
					</g>
				</g>
				<g>
					<path class="st9" d="M428.3,182.4c0,0,24.6-7.9,31.8-24c2.1-4.7-15.2-52-15.2-52l-8.4,0.4c0,0,2.4,16.4,3.8,25.7
						c1.2,7.7,3.1,16.8,3.8,19.8c0.1,0.7,0.2,1,0.2,1c-0.4,0.1-0.8,0.1-1.2,0.2c-11.5,2.3-26.1,9.8-26.1,9.8L428.3,182.4z"/>
					<g>
						<g>
							<path class="st7" d="M450.5,157.8c0.3,0.3,0.8,0.2,1.1-0.2c0.3-0.4,0.2-0.8-0.2-1.1c-1.8-1.3-4.5-2.8-7.3-4.3
								c0.1,0.7,0.2,1,0.2,1c-0.4,0.1-0.8,0.1-1.2,0.2C446,155,448.8,156.6,450.5,157.8z"/>
						</g>
					</g>
					<path class="st4" d="M390.7,160.7c0,0-7.4,17.4,11.5,27.1c13.1,6.7,42.9-10.8,42.9-10.8l-10.6-22.6
						C434.5,154.5,407.2,165.7,390.7,160.7z"/>
					<path class="st9" d="M440.6,79.7c-0.7,0.5-0.6,3.7-0.3,6.7c-0.1,0-0.2,0-0.3,0.1c-0.9-4-2.6-10.9-4.1-9.6
						c-1,0.9,0.3,6.8,1.2,10.3c-0.2,0.1-0.4,0.1-0.6,0.2c-1.1-4.2-3.6-12.3-5.2-10.7c-1.1,1,1,8.2,2.1,11.8
						c-0.2,0.1-0.3,0.1-0.5,0.2c-1.1-3.5-3.4-10.2-5.1-8.6c-1.5,1.4,2.7,11.5,2.7,11.5l0,0l1.1,3.9c0,0-1.3,0.6-3.3-1.7
						c-2-2.3-4.5-2.7-2.8,0.6c1.9,3.8,4.7,6.5,6,9.1c1.2,2.7,5.2,3.5,5.2,3.5l7.8-0.4c0,0,1.5-13.3-1.4-19.6l0,0
						C442.8,83.3,441.9,78.8,440.6,79.7z"/>
				</g>
				<g>
					<path class="st5" d="M343.5,110.3c0,13.4,8.2,22.6,21.6,22.6c13.4,0,22.7-9.9,22.7-23.3c0-3.7-0.6-7.1-1.8-10.2
						c-0.1-0.2-0.1-0.4-0.2-0.5c-0.1-0.3-0.3-0.7-0.4-1c-0.2-0.5-0.5-1-0.8-1.5c-3.5-6.3-9.7-10.2-18.1-10.2
						C350.5,86.1,343.5,96.9,343.5,110.3z"/>
					<g>
						<path class="st7" d="M346.6,116c0,0-3.7-5-6.5-0.9c-2.8,4.1,1.1,16.2,7.9,13.2L346.6,116z"/>
						<g>
							<path class="st8" d="M346.5,124.7c-0.2,0-0.5-0.2-0.5-0.4c-1-3.7-4.9-5.2-5-5.3c-0.3-0.1-0.4-0.4-0.3-0.7
								c0.1-0.3,0.4-0.4,0.7-0.3c0.2,0.1,4.4,1.7,5.6,6c0.1,0.3-0.1,0.6-0.4,0.7C346.6,124.7,346.6,124.7,346.5,124.7z"/>
						</g>
						<g>
							<path class="st8" d="M342.6,122.8c-0.1,0-0.2,0-0.3-0.1c-0.3-0.2-0.3-0.5-0.2-0.8c0,0,0.7-1.1,2.1-1.7c0.3-0.1,0.6,0,0.8,0.3
								c0.1,0.3,0,0.6-0.3,0.8c-1.1,0.5-1.6,1.3-1.6,1.3C343,122.7,342.8,122.8,342.6,122.8z"/>
						</g>
					</g>
					<g>
						<path class="st7" d="M384.8,116c0,0,3.7-5,6.5-0.9c2.8,4.1-1.1,16.2-7.9,13.2L384.8,116z"/>
						<g>
							<path class="st8" d="M384.9,124.7c0.2,0,0.5-0.2,0.5-0.4c1-3.7,4.9-5.2,5-5.3c0.3-0.1,0.4-0.4,0.3-0.7
								c-0.1-0.3-0.4-0.4-0.7-0.3c-0.2,0.1-4.4,1.7-5.6,6c-0.1,0.3,0.1,0.6,0.4,0.7C384.8,124.7,384.8,124.7,384.9,124.7z"/>
						</g>
						<g>
							<g>
								<g>
									<path class="st8" d="M388.8,122.8c0.1,0,0.2,0,0.3-0.1c0.3-0.2,0.3-0.5,0.2-0.8c0,0-0.7-1.1-2.1-1.7
										c-0.3-0.1-0.6,0-0.8,0.3c-0.1,0.3,0,0.6,0.3,0.8c1.1,0.5,1.6,1.3,1.6,1.3C388.4,122.7,388.6,122.8,388.8,122.8z"/>
								</g>
							</g>
						</g>
					</g>
					<path class="st9" d="M374.8,138.7v12c0,0-3.6,6.1-8.4,6.5c-4.8,0.4-9.1-5.3-9.1-5.3v-12.4L374.8,138.7z"/>
					<path class="st7" d="M374.8,138.7v5.3c-3.3,3.6-9,4.5-17.6,3.3v-7.7L374.8,138.7z"/>
					<path class="st9" d="M387.5,107.8c-0.2,4.7-0.7,10.5-1.6,15.2c-0.2,1.2-0.5,2.3-0.8,3.2c-2.5,8.9-8.9,24.1-26.6,17.7
						c-7.8-2.8-11.5-11.5-13.1-20.4c-1.1-6-1.3-12.1-1.2-16.5c0.1-4.4,2.5-8.5,6.4-10.7c10.5-5.9,21.5-3.7,28.8-0.9
						C384.5,97.4,387.8,102.4,387.5,107.8z"/>
					<path class="st5" d="M358.1,117.6c0,1.3-0.7,2.3-1.5,2.3c-0.8,0-1.5-1-1.5-2.3c0-1.3,0.7-2.3,1.5-2.3
						C357.4,115.3,358.1,116.3,358.1,117.6z"/>
					<path class="st5" d="M375.5,117.6c0,1.3-0.7,2.3-1.5,2.3c-0.8,0-1.5-1-1.5-2.3c0-1.3,0.7-2.3,1.5-2.3
						C374.8,115.2,375.5,116.3,375.5,117.6z"/>
					<path class="st5" d="M378.8,109.6c0,0-4.7-1.8-8.3-0.3l0.4,2c0,0,5.3-0.4,7.9,0.6C379.1,111.1,379.1,110.4,378.8,109.6z"/>
					<path class="st5" d="M351.7,109.6c0,0,4.7-1.8,8.3-0.3l-0.4,2c0,0-5.3-0.4-7.9,0.6C351.4,111.1,351.4,110.4,351.7,109.6z"/>
					<g>
						<path class="st7" d="M365.9,127.3c1,0,1.9-0.4,2.1-0.4c0.3-0.1,0.4-0.5,0.3-0.7c-0.1-0.3-0.5-0.4-0.7-0.3
							c-0.5,0.2-1.8,0.5-2.3,0.2c-0.1-0.1-0.2-0.2-0.3-0.5c-0.2-2,0.3-8.7,0.3-8.7c0-0.3-0.2-0.6-0.5-0.6c-0.3,0-0.6,0.2-0.6,0.5
							c0,0.3-0.6,6.9-0.3,9c0.1,0.8,0.5,1.2,0.8,1.4C365,127.3,365.4,127.3,365.9,127.3z"/>
					</g>
					<path class="st0" d="M358.2,130.2c0.9,3.3,3.6,6.6,7.4,6.6c3.7,0,6.4-3.3,7.4-6.6H358.2z"/>
					<g>
						<path class="st7" d="M365.3,140.5c1.5,0,2.7-0.7,2.8-0.8c0.3-0.2,0.4-0.5,0.2-0.8c-0.2-0.3-0.5-0.4-0.8-0.2c0,0-1,0.6-2.2,0.6
							c-1.1,0-2.1-0.6-2.1-0.6c-0.3-0.2-0.6-0.1-0.8,0.2c-0.2,0.3-0.1,0.6,0.2,0.8C362.6,139.7,363.9,140.5,365.3,140.5z"/>
					</g>
					<path class="st5" d="M386.9,116.1h-2.6c0.3-2.6,0.7-7.2-1.4-7.8c-6.7-2.1,2-6.8-1-9.2c-3-2.4-10.6-1.4-15.9-1.5
						c-5.3-0.2-13.8-0.1-15.9,0.4c-2.1,0.5-0.9,3.9-0.2,6.6c0.8,2.7-2.5,5.6-3.1,8.4c-0.2,0.8-0.1,2,0,3.2h-2.2
						c-0.3-3.4-0.3-6.5-0.2-9c0.1-4.4,2.5-8.5,6.4-10.7c10.5-5.9,21.5-3.7,28.8-0.9c5,1.9,8.3,6.9,8,12.3
						C387.4,110.3,387.2,113.3,386.9,116.1z"/>
					<g>
						<g>
							<path class="st0" d="M356.3,124.3c-3.6,0-6.5-2.9-6.5-6.5c0-3.6,2.9-6.5,6.5-6.5c3.6,0,6.5,2.9,6.5,6.5
								C362.8,121.4,359.9,124.3,356.3,124.3z M356.3,112.4c-3,0-5.5,2.4-5.5,5.5c0,3,2.4,5.5,5.5,5.5c3,0,5.5-2.4,5.5-5.5
								C361.8,114.9,359.4,112.4,356.3,112.4z"/>
						</g>
						<g>
							<path class="st0" d="M374,124.3c-3.6,0-6.5-2.9-6.5-6.5c0-3.6,2.9-6.5,6.5-6.5c3.6,0,6.5,2.9,6.5,6.5
								C380.5,121.4,377.6,124.3,374,124.3z M374,112.4c-3,0-5.5,2.4-5.5,5.5c0,3,2.4,5.5,5.5,5.5s5.5-2.4,5.5-5.5
								C379.5,114.9,377,112.4,374,112.4z"/>
						</g>
						<g>
							<path class="st0" d="M351,115.8c-0.1,0-0.3,0-0.4-0.1l0,0c0,0-3-2.9-6.8-2c-0.3,0.1-0.5-0.1-0.6-0.4
								c-0.1-0.3,0.1-0.5,0.4-0.6c4.4-1,7.6,2.1,7.8,2.2c0.2,0.2,0.2,0.5,0,0.7C351.2,115.7,351.1,115.8,351,115.8z"/>
						</g>
						<g>
							<path class="st0" d="M379.5,115.8c-0.2,0-0.3-0.1-0.4-0.2c-0.2-0.2-0.1-0.5,0.1-0.7c0.2-0.1,4.8-3.1,8.7-2.4
								c0.3,0,0.5,0.3,0.4,0.6c0,0.3-0.3,0.5-0.6,0.4c-3.5-0.6-7.9,2.3-7.9,2.3C379.7,115.8,379.6,115.8,379.5,115.8z"/>
						</g>
						<g>
							<path class="st0" d="M367.9,116.4c0,0-1.2-1.6-2.8-1.6c-1.6,0-2.6,1.6-2.7,1.6l-0.8-0.6c0.1-0.1,1.4-2.1,3.5-2.1
								c2.1,0,3.5,2,3.6,2.1L367.9,116.4z"/>
						</g>
					</g>
				</g>
				<g>
					<path class="st9" d="M329.4,209.5c0,0-6.8,13.2-14.8,23.6c-2.4,3.1-4.8,5.9-7.3,8.1c-3.9,3.6-7.8,5.4-10.9,3.8
						c-11.6-5.9-37.5-52.5-37.5-52.5l6.4-7.6c0,0,11.5,13.3,20,21.3c7.8,7.3,13.8,12.8,13.8,12.8c1.1-1.6,2.2-3.4,3.4-5.3
						c1.3-2,2.6-4.2,3.9-6.3c9.7-15.9,20.5-35.1,20.5-35.1L329.4,209.5z"/>
					<path class="st7" d="M314.6,233.2c-2.4,3.1-4.8,5.9-7.3,8.1l-4.9-27.4c1.3-2,2.6-4.2,3.9-6.3L314.6,233.2z"/>
					<path class="st4" d="M326.8,172.5l-23.3,36.6l7.8,32.2l19.3-31.4C330.6,209.9,332.9,188.4,326.8,172.5z"/>
				</g>
			</g>
			<g>
				<g>
					<path class="st4" d="M297.5,354.4c-1.7-9.2-3.3-19.6-4.8-29.7c-0.3-2.2-0.6-4.4-1-6.6c-1.2-8.4-2.3-16.3-3.1-22.8
						c-0.3-2.5-0.6-4.8-0.9-6.8c-0.8-6.5-1.3-10.6-1.3-10.6l-36.8,1.4l-36.9-1.4c0,0-1,8-2.5,19.7c-0.3,2.1-0.6,4.4-0.9,6.7
						c-0.8,6.1-1.8,12.9-2.8,19.8c0,0.1,0,0.2,0,0.3c-0.3,2.2-0.6,4.3-1,6.5c0,0,0,0.1,0,0.1v0c-0.8,5.2-1.6,10.5-2.5,15.5
						c-0.3,2.1-0.7,4.1-1,6.1c-0.1,0.6-0.2,1.2-0.3,1.8H297.5z"/>
					<g>
						<path class="st10" d="M221.2,288.8c0,1.9-1.6,3.5-3.5,3.5c-1.9,0-3.5-1.6-3.5-3.5c0-1.9,1.6-3.5,3.5-3.5
							C219.7,285.3,221.2,286.9,221.2,288.8z"/>
						<path class="st10" d="M229.8,302.2c0,1.9-1.6,3.5-3.5,3.5c-1.9,0-3.5-1.6-3.5-3.5c0-1.9,1.6-3.5,3.5-3.5
							C228.3,298.8,229.8,300.3,229.8,302.2z"/>
						<path class="st10" d="M246.8,295.3c0,1.9-1.6,3.5-3.5,3.5c-1.9,0-3.5-1.6-3.5-3.5c0-1.9,1.6-3.5,3.5-3.5
							C245.2,291.8,246.8,293.4,246.8,295.3z"/>
						<path class="st10" d="M220.1,316.5c0,1.9-1.6,3.5-3.5,3.5c-1.9,0-3.5-1.6-3.5-3.5s1.6-3.5,3.5-3.5
							C218.5,313,220.1,314.6,220.1,316.5z"/>
						<path class="st10" d="M241.2,315c0,1.9-1.6,3.5-3.5,3.5c-1.9,0-3.5-1.6-3.5-3.5c0-1.9,1.6-3.5,3.5-3.5
							C239.7,311.5,241.2,313.1,241.2,315z"/>
						<path class="st10" d="M212.6,300.7c0,1.8-1.4,3.3-3.1,3.4c0.3-2.3,0.6-4.6,0.9-6.7C211.6,298,212.6,299.2,212.6,300.7z"/>
						<path class="st10" d="M275.7,335.4c0,1.9-1.6,3.5-3.5,3.5c-1.9,0-3.5-1.6-3.5-3.5s1.6-3.5,3.5-3.5
							C274.1,331.9,275.7,333.5,275.7,335.4z"/>
						<path class="st10" d="M274,316.5c0,1.9-1.6,3.5-3.5,3.5c-1.9,0-3.5-1.6-3.5-3.5s1.6-3.5,3.5-3.5
							C272.5,313,274,314.6,274,316.5z"/>
						<path class="st10" d="M292.7,324.7c-0.4,0.2-0.9,0.3-1.4,0.3c-1.9,0-3.5-1.6-3.5-3.5c0-1.9,1.6-3.5,3.5-3.5c0.1,0,0.3,0,0.4,0
							C292.1,320.2,292.4,322.4,292.7,324.7z"/>
						<path class="st10" d="M277.5,349.2c0,1.9-1.6,3.5-3.5,3.5c-1.9,0-3.5-1.6-3.5-3.5c0-1.9,1.6-3.5,3.5-3.5
							C275.9,345.7,277.5,347.3,277.5,349.2z"/>
						<path class="st10" d="M292.3,343.7c0,1.9-1.6,3.5-3.5,3.5c-1.9,0-3.5-1.6-3.5-3.5s1.6-3.5,3.5-3.5
							C290.8,340.2,292.3,341.8,292.3,343.7z"/>
						<path class="st10" d="M261.5,354.4c-0.6-0.9-1.7-1.5-2.9-1.5c-1.2,0-2.2,0.6-2.9,1.5H261.5z"/>
						<path class="st10" d="M217.8,338.4c0,1.9-1.6,3.5-3.5,3.5c-1.9,0-3.5-1.6-3.5-3.5c0-1.9,1.6-3.5,3.5-3.5
							C216.2,334.9,217.8,336.5,217.8,338.4z"/>
						<path class="st10" d="M208.6,327.4c0,1.8-1.3,3.2-3,3.4c0,0,0-0.1,0-0.1c0.3-2.2,0.7-4.3,1-6.5
							C207.8,324.8,208.6,326,208.6,327.4z"/>
						<path class="st10" d="M204.6,349.2c0,1.6-1,2.9-2.5,3.3c0.4-2,0.7-4,1-6.1C204,347,204.6,348.1,204.6,349.2z"/>
						<path class="st10" d="M226.4,350.7c0,1.9-1.6,3.5-3.5,3.5c-1.9,0-3.5-1.6-3.5-3.5c0-1.9,1.6-3.5,3.5-3.5
							C224.8,347.2,226.4,348.8,226.4,350.7z"/>
						<path class="st10" d="M244.7,348c0,1.9-1.6,3.5-3.5,3.5s-3.5-1.6-3.5-3.5c0-1.9,1.6-3.5,3.5-3.5S244.7,346,244.7,348z"/>
						<path class="st10" d="M231.6,330.9c0,1.9-1.6,3.5-3.5,3.5c-1.9,0-3.5-1.6-3.5-3.5c0-1.9,1.6-3.5,3.5-3.5
							C230.1,327.5,231.6,329,231.6,330.9z"/>
						<path class="st10" d="M250.2,327.5c0,1.9-1.6,3.5-3.5,3.5c-1.9,0-3.5-1.6-3.5-3.5c0-1.9,1.6-3.5,3.5-3.5
							C248.7,324,250.2,325.5,250.2,327.5z"/>
						<path class="st10" d="M258.6,309.2c0,1.9-1.6,3.5-3.5,3.5c-1.9,0-3.5-1.6-3.5-3.5c0-1.9,1.6-3.5,3.5-3.5
							C257.1,305.7,258.6,307.3,258.6,309.2z"/>
						<path class="st10" d="M288.6,295.2c-0.2,0.1-0.5,0.1-0.7,0.1c-1.9,0-3.5-1.6-3.5-3.5c0-1.9,1.5-3.4,3.3-3.5
							C288,290.4,288.3,292.7,288.6,295.2z"/>
						<path class="st10" d="M270.6,295.3c0,1.9-1.6,3.5-3.5,3.5c-1.9,0-3.5-1.6-3.5-3.5c0-1.9,1.6-3.5,3.5-3.5
							C269,291.8,270.6,293.4,270.6,295.3z"/>
						<path class="st10" d="M283.2,307.7c0,1.9-1.6,3.5-3.5,3.5s-3.5-1.6-3.5-3.5c0-1.9,1.6-3.5,3.5-3.5S283.2,305.7,283.2,307.7z"
							/>
						<path class="st10" d="M262.1,338.4c0,1.9-1.6,3.5-3.5,3.5c-1.9,0-3.5-1.6-3.5-3.5c0-1.9,1.6-3.5,3.5-3.5
							C260.5,334.9,262.1,336.5,262.1,338.4z"/>
					</g>
					<path class="st3" d="M288.7,278.7c-19.4,12.7-55,11.7-77.4,0c2.1-13.3,5-26.6,4.3-44.4c-0.1-1.9-0.2-3.9-0.2-5.8
						c-0.1-1.7-0.2-3.3-0.3-5c-1.9-29.5-7-53.6-4.5-56.7c1.1-1.4,2.9-2.8,5.1-4.3c0.9-0.6,1.8-1.2,2.8-1.8c2.3-1.4,4.9-2.8,7.5-4.2
						c6.2-3.3,12.4-6.3,15.5-8.4c3.1,1.4,5.6,2.1,8.2,2.1c0.1,0,0.2,0,0.2,0c0.1,0,0.2,0,0.2,0c2.7,0,5.1-0.7,8.2-2.1
						c2.9,1.9,8.4,4.6,14,7.6c4.1,2.2,8.3,4.5,11.5,6.7c2.1,1.5,3.9,2.9,4.9,4.2c1.2,1.5,0.7,8.3-0.3,18.3c-1,9.9-2.6,22.9-3.5,37.2
						c-0.3,4-0.5,8.1-0.6,12.2C283.7,252,286.5,265.4,288.7,278.7z"/>
					<g>
						<path class="st4" d="M276.8,263.9C276.8,263.9,276.8,263.9,276.8,263.9c-15.6-0.1-29-7.2-37.4-13.1c-9.1-6.4-14.6-13-14.7-13
							c-0.3-0.3-0.2-0.8,0.1-1.1c0.3-0.3,0.8-0.2,1.1,0.1c0.1,0.1,5.5,6.5,14.5,12.8c8.3,5.8,21.3,12.8,36.5,12.8
							c0.4,0,0.8,0.3,0.7,0.8C277.5,263.6,277.2,263.9,276.8,263.9z"/>
					</g>
					<g>
						<path class="st4" d="M266.5,254.9c-13.3-2.6-25.1-12.8-25.6-13.3c-0.3-0.3-0.3-0.7-0.1-1.1c0.3-0.3,0.7-0.3,1.1-0.1
							c0.1,0.1,14,12.1,28.1,13.4c0.4,0,0.7,0.4,0.7,0.8c0,0.4-0.4,0.7-0.8,0.7C268.7,255.2,267.6,255.1,266.5,254.9z"/>
					</g>
					<g>
						<path class="st4" d="M246.8,186c-0.4,0-0.7-0.3-0.7-0.6c-0.1-0.4,0.2-0.8,0.6-0.9c19-3.6,24.8-15.9,24.8-16
							c0.2-0.4,0.6-0.5,1-0.4c0.4,0.2,0.5,0.6,0.4,1c-0.2,0.5-6.1,13.1-25.9,16.8C246.9,186,246.8,186,246.8,186z"/>
					</g>
					<path class="st9" d="M272.4,155.6c-3.8,8.6-13.1,17.5-25.2,15.5c-11.7-2-17.3-8.2-21.3-14.6c6.2-3.3,12.4-6.3,15.5-8.4
						c3.1,1.4,5.6,2.1,8.2,2.1c0.1,0,0.2,0,0.2,0c0.1,0,0.2,0,0.2,0c2.7,0,5.1-0.7,8.2-2.1C261.3,150,266.8,152.7,272.4,155.6z"/>
					<g>
						<path class="st0" d="M262.3,148.7c-0.3,0-0.6,0.3-0.6,0.6c0,0.5-0.2,11.9-10.4,12.8c-9.5,0.8-13.4-8.3-14.6-12
							c-0.1-0.2-0.3-0.4-0.5-0.4H236c-0.4,0-0.6,0.4-0.5,0.7c1.3,3.9,5.4,13.3,15.1,12.9c0.3,0,0.5,0,0.8,0
							c11.3-1,11.5-13.8,11.5-13.9C262.9,149,262.6,148.7,262.3,148.7z"/>
					</g>
				</g>
				<g>
					<path class="st5" d="M269.5,88.1c0,0,9.1,14.2,8.1,28.9c-1,14.8,1.3,31.8-11.9,31c-13.2-0.7-36.7,5.3-44.2-6.2
						C214.1,130.4,269.5,88.1,269.5,88.1z"/>
					<path class="st6" d="M272.9,114.2c0,0,2.4,21.4-7.8,27.3c-10.1,5.9-17.5-0.7-17.5-0.7S269,110.9,272.9,114.2z"/>
					<g>
						<g>
							<path class="st7" d="M230.8,114.1c0,0-3.6-4.9-6.4-0.8c-2.7,4,1.1,15.9,7.8,13L230.8,114.1z"/>
							<g>
								<path class="st8" d="M230.7,122.5c-0.2,0-0.5-0.2-0.5-0.4c-1-3.7-4.8-5.1-4.9-5.2c-0.3-0.1-0.4-0.4-0.3-0.7
									c0.1-0.3,0.4-0.4,0.7-0.3c0.2,0.1,4.4,1.7,5.5,5.9c0.1,0.3-0.1,0.6-0.4,0.7C230.8,122.5,230.8,122.5,230.7,122.5z"/>
							</g>
							<g>
								<path class="st8" d="M226.9,120.7c-0.1,0-0.2,0-0.3-0.1c-0.3-0.2-0.3-0.5-0.2-0.8c0,0,0.7-1.1,2.1-1.7
									c0.3-0.1,0.6,0,0.7,0.3c0.1,0.3,0,0.6-0.3,0.7c-1.1,0.5-1.6,1.3-1.6,1.3C227.2,120.6,227.1,120.7,226.9,120.7z"/>
							</g>
						</g>
						<g>
							<path class="st7" d="M268.3,114.1c0,0,3.6-4.9,6.4-0.8c2.7,4-1.1,15.9-7.8,13L268.3,114.1z"/>
							<g>
								<path class="st8" d="M268.3,122.5c0.2,0,0.5-0.2,0.5-0.4c1-3.7,4.8-5.1,4.9-5.2c0.3-0.1,0.4-0.4,0.3-0.7
									c-0.1-0.3-0.4-0.4-0.7-0.3c-0.2,0.1-4.4,1.7-5.5,5.9c-0.1,0.3,0.1,0.6,0.4,0.7C268.2,122.5,268.3,122.5,268.3,122.5z"/>
							</g>
							<g>
								<path class="st8" d="M272.2,120.7c0.1,0,0.2,0,0.3-0.1c0.3-0.2,0.3-0.5,0.2-0.8c0,0-0.7-1.1-2.1-1.7c-0.3-0.1-0.6,0-0.7,0.3
									c-0.1,0.3,0,0.6,0.3,0.7c1.1,0.5,1.6,1.3,1.6,1.3C271.8,120.6,272,120.7,272.2,120.7z"/>
							</g>
						</g>
						<path class="st9" d="M258.5,136.3v11.8c0,0-3.5,6-8.3,6.4c-4.8,0.4-9-5.2-9-5.2v-12.2L258.5,136.3z"/>
						<path class="st7" d="M258.5,136.3v5.2c-3.2,3.5-8.9,4.8-17.3,3.6l0-8L258.5,136.3z"/>
						<path class="st9" d="M270.9,106c-0.2,4.6-0.7,10.3-1.5,14.9c-0.2,1.1-0.5,2.2-0.7,3.2c-2.5,8.7-8.7,23.6-26.1,17.4
							c-7.7-2.7-11.2-11.3-12.8-20c-1.1-5.9-1.2-11.9-1.2-16.1c0.1-4.4,2.5-8.3,6.2-10.5c10.3-5.8,21.1-3.6,28.2-0.9
							C268,95.8,271.2,100.7,270.9,106z"/>
						<path class="st5" d="M241.9,114.8c0,1.3-0.6,2.3-1.4,2.3c-0.8,0-1.4-1-1.4-2.3c0-1.3,0.6-2.3,1.4-2.3
							C241.2,112.5,241.9,113.5,241.9,114.8z"/>
						<path class="st5" d="M259.8,114.8c0,1.3-0.6,2.3-1.4,2.3s-1.4-1-1.4-2.3c0-1.3,0.6-2.3,1.4-2.3S259.8,113.5,259.8,114.8z"/>
						<path class="st5" d="M237.6,108c1.2-0.3,3.6-0.9,6.2-0.9c0.7,0,1.2,0.6,1.1,1.3l0,0c-0.1,0.5-0.6,0.9-1.1,0.9
							c-1.7-0.1-6.3,0.2-8.5,1c0-0.4,0.2-0.8,0.5-1.2C236.2,108.5,236.8,108.2,237.6,108z"/>
						<path class="st5" d="M261,108c-1.2-0.3-3.6-0.9-6.2-0.9c-0.7,0-1.2,0.6-1.1,1.3l0,0c0.1,0.5,0.6,0.9,1.1,0.9
							c1.7-0.1,6.3,0.2,8.5,1c0-0.4-0.2-0.8-0.5-1.2C262.3,108.6,261.7,108.2,261,108z"/>
						<g>
							<path class="st7" d="M249.7,125.2c-0.4,0-0.9-0.1-1.2-0.3c-0.3-0.2-0.7-0.6-0.8-1.4c-0.2-2.1,0.3-8.5,0.3-8.8
								c0-0.3,0.3-0.5,0.6-0.5c0.3,0,0.5,0.3,0.5,0.6c0,0.1-0.5,6.6-0.3,8.6c0,0.3,0.2,0.5,0.3,0.5c0.5,0.3,1.7,0,2.2-0.2
								c0.3-0.1,0.6,0,0.7,0.3c0.1,0.3,0,0.6-0.3,0.7C251.6,124.8,250.7,125.2,249.7,125.2z"/>
						</g>
						<path class="st0" d="M242.6,128.7c0.4,2.1,1.8,6.1,6.6,6.1c4.8,0,6.1-3.6,6.5-6.1H242.6z"/>
						<g>
							<path class="st7" d="M249.1,138c-1.4,0-2.6-0.7-2.6-0.8c-0.3-0.2-0.3-0.5-0.2-0.8c0.2-0.3,0.5-0.3,0.8-0.2l0,0
								c0,0,1,0.6,2,0.6c1.1,0,2.1-0.6,2.2-0.6c0.3-0.2,0.6-0.1,0.8,0.2c0.2,0.3,0.1,0.6-0.2,0.8C251.8,137.3,250.6,138,249.1,138z"
								/>
						</g>
					</g>
					<path class="st5" d="M273.2,105.1c-0.2,0.5-0.7,0.8-1.3,1c0,1.2-0.1,2.7-0.2,4.1c-0.7,8.1-2.7,9.5-3.2,7.5
						c-0.3-1.3-0.3-9-0.1-11.4c-1.6-0.1-3-0.4-3-0.4l-1.9-7.9l-0.7,7.8c-2.8,1-9.4-0.6-9.4-0.6l-2.2-7.8l-1.4,7.5
						c-4.2,2.1-9.5,0.7-9.5,0.7l-1.2-8l-2.8,8c0,0-9,3.2-9.1,0c-0.1-1.9,1.3-7.2,2.5-11.3c1.3-4.5,4.2-8.3,8.2-10.4
						c11.2-6,23-2.8,27.1-0.4C273.5,88.7,273.2,105.1,273.2,105.1z"/>
					<path class="st5" d="M232.2,88.7c0,0-7.4,8.8-9.9,24.6c-2.4,15.8-5.8,27.4,3.7,32.6c10.3,5.6,9.4-5.9,9.2-9.1
						c-0.1-3.1-8.9-11.7-3.1-35.9C234,93.2,232.2,88.7,232.2,88.7z"/>
					<path class="st6" d="M230.4,121.3C230.4,121.3,230.4,121.3,230.4,121.3c0,0.1,0,0.8,0.1,1.7c0,0.6,0.1,1.3,0.1,2.2
						c0.3,5.3,1.4,14.5,4.4,17.7c1.2,1.3,3.5,1.9,6.2,2.1v-4.2c-2.9-1.4-5.1-3.6-6.8-6.3c-1.1-2.3-2.9-5.9-3.8-11.7L230.4,121.3z"/>
					<path class="st0" d="M271.1,126.5c0,0.7-0.6,1.3-1.3,1.3s-1.3-0.6-1.3-1.3c0-0.7,0.6-1.3,1.3-1.3S271.1,125.7,271.1,126.5z"/>
				</g>
				<g>
					<path class="st3" d="M297.8,225.4c-3.7,10.6-20.4,9.9-39.3,4.1c0,0-0.1,0-0.1,0c-0.1,0-0.1,0-0.2-0.1l-2.6-0.8
						c-0.4-0.1-0.7-0.2-1.1-0.4c-2-0.7-4.1-1.4-6.2-2.2c-6.8-2.6-13.6-5.6-20.1-8.9l0-0.1l1.9-5l0.7-1.7c0,0,35.2,3.8,52.9,0.1
						c0.3-0.1,0.6-0.1,0.9-0.2c-0.1-0.4-0.1-0.8-0.2-1.2c-9.4-31.9,0.9-38,4.3-42.5C288.8,166.5,304.9,205.3,297.8,225.4z"/>
					<g>
						<path class="st4" d="M292.1,215.5c-0.1,0.1-0.2,0.1-0.3,0.1c-0.3,0-0.5-0.2-0.7-0.4c-1.3-2.7-5.9-4.4-7.3-4.8
							c0.3-0.1,0.6-0.1,0.9-0.2c-0.1-0.4-0.1-0.8-0.2-1.2c1.8,0.6,6.4,2.4,8,5.5C292.6,214.9,292.5,215.3,292.1,215.5z"/>
					</g>
					<g>
						<path class="st4" d="M242.8,214.2c-7.2,0-13-0.4-13.5-0.4c-0.4,0-0.7-0.4-0.7-0.8c0-0.4,0.4-0.7,0.8-0.7
							c0.3,0,26.6,1.9,37.1-2.3c0.4-0.2,0.8,0,1,0.4c0.2,0.4,0,0.8-0.4,1C261.3,213.6,251.2,214.2,242.8,214.2z"/>
					</g>
					<g>
						<path class="st4" d="M255.6,228.5C255.6,228.5,255.6,228.5,255.6,228.5c6-1.7,11.5-3.3,14.7-4.3c4.4-1.4,8-5.8,9.7-9.6
							c0.2-0.4,0.6-0.6,1-0.4c0.4,0.2,0.6,0.6,0.4,1c-1.8,4.1-5.7,8.9-10.6,10.4c-2.3,0.7-5.8,1.8-9.8,2.9
							C259.2,229.1,257.3,229.1,255.6,228.5L255.6,228.5z"/>
					</g>
					<g>
						<path class="st3" d="M271.8,223.4c-54.4,18.3-71.1,6.3-71.1,6.3c-3.7-33.1,9.8-62.8,9.8-62.8c4,6.6,8.5,18,8.5,18l1.2,25.4
							l-0.1,0.7l0,0.3l-0.2,1.7l0,0c0.1,0,0.2,0.1,0.4,0.1c16.4,3.5,46.5-0.4,46.5-0.4L271.8,223.4z"/>
						<g>
							<path class="st4" d="M220.3,213.1c-2.9,2.5-5.7,5.3-8.2,8.6c-0.2,0.3-0.7,0.4-1.1,0.1c-0.3-0.3-0.4-0.7-0.1-1c0,0,0,0,0,0
								c2.8-3.7,6-6.8,9.3-9.5l-0.2,1.7l0,0C220,213.1,220.1,213.1,220.3,213.1z"/>
						</g>
						<path class="st9" d="M266.8,212.7c0,0,6-13.7,15.2-12.5l2.8,9.9c-5,2.1-5.7,10.7-12.9,13.2L266.8,212.7z"/>
					</g>
					<path class="st9" d="M231,210.2c0,0-3.8-8.9-13.8-11.5c-10-2.6-16.4,2.1-17,3.9c-0.7,1.8,3.8,0.1,3.8,0.1s-2.9,0.8-4.6,3.5
						c-1.7,2.7,4-0.2,4-0.2s-4.1,1.8-4.6,3.5c-0.5,1.7,4.9-1.1,5.9-1.1c0,0-4.8,1.9-4.8,3.6c0,1.7,5.5-1.1,9.6-0.9
						c4.1,0.2,10.4,1.9,10.4,1.9c3.4,0.6,6.6,1.1,9.5,1.2L231,210.2z"/>
				</g>
			</g>
			<g>
				<g>
					<g>
						<g>
							<g>
								<path class="st4" d="M327.5,71.5c-3.7,0-6.7-3-6.7-6.7c0-3.7,3-6.7,6.7-6.7c3.7,0,6.7,3,6.7,6.7
									C334.2,68.5,331.2,71.5,327.5,71.5z M327.5,60.2c-2.5,0-4.6,2.1-4.6,4.6c0,2.5,2.1,4.6,4.6,4.6c2.5,0,4.6-2.1,4.6-4.6
									C332.1,62.3,330.1,60.2,327.5,60.2z"/>
							</g>
							<g>
								<path class="st3" d="M386.1,60.1c-3.7,0-6.7-3-6.7-6.7c0-3.7,3-6.7,6.7-6.7c3.7,0,6.7,3,6.7,6.7
									C392.8,57.1,389.8,60.1,386.1,60.1z M386.1,48.8c-2.5,0-4.6,2.1-4.6,4.6c0,2.5,2.1,4.6,4.6,4.6c2.5,0,4.6-2.1,4.6-4.6
									C390.7,50.9,388.7,48.8,386.1,48.8z"/>
							</g>
							<g>
								<g>
									<g>
										<path class="st4" d="M394.4,81.9c-0.6,0-1.1-0.5-1.1-1.1v-4.6c0-0.6,0.5-1.1,1.1-1.1c0.6,0,1.1,0.5,1.1,1.1v4.6
											C395.5,81.5,395,81.9,394.4,81.9z"/>
									</g>
									<g>
										<path class="st4" d="M394.4,90.1c-0.6,0-1.1-0.5-1.1-1.1v-4.6c0-0.6,0.5-1.1,1.1-1.1c0.6,0,1.1,0.5,1.1,1.1V89
											C395.5,89.6,395,90.1,394.4,90.1z"/>
									</g>
								</g>
								<g>
									<g>
										<path class="st4" d="M400.9,83.7h-4.2c-0.6,0-1.1-0.5-1.1-1.1c0-0.6,0.5-1.1,1.1-1.1h4.2c0.6,0,1.1,0.5,1.1,1.1
											C402,83.2,401.5,83.7,400.9,83.7z"/>
									</g>
									<g>
										<path class="st4" d="M392.1,83.7h-4.2c-0.6,0-1.1-0.5-1.1-1.1c0-0.6,0.5-1.1,1.1-1.1h4.2c0.6,0,1.1,0.5,1.1,1.1
											C393.1,83.2,392.6,83.7,392.1,83.7z"/>
									</g>
								</g>
							</g>
							<g>
								<g>
									<g>
										<g>
											<path class="st2" d="M358.9,53.8c-0.6,0-1.1-0.5-1.1-1.1v-4.6c0-0.6,0.5-1.1,1.1-1.1s1.1,0.5,1.1,1.1v4.6
												C360,53.3,359.5,53.8,358.9,53.8z"/>
										</g>
										<g>
											<path class="st2" d="M358.9,61.9c-0.6,0-1.1-0.5-1.1-1.1v-4.6c0-0.6,0.5-1.1,1.1-1.1s1.1,0.5,1.1,1.1v4.6
												C360,61.5,359.5,61.9,358.9,61.9z"/>
										</g>
									</g>
									<g>
										<g>
											<path class="st2" d="M365.5,55.5h-4.2c-0.6,0-1.1-0.5-1.1-1.1c0-0.6,0.5-1.1,1.1-1.1h4.2c0.6,0,1.1,0.5,1.1,1.1
												C366.5,55.1,366,55.5,365.5,55.5z"/>
										</g>
										<g>
											<path class="st2" d="M356.6,55.5h-4.2c-0.6,0-1.1-0.5-1.1-1.1c0-0.6,0.5-1.1,1.1-1.1h4.2c0.6,0,1.1,0.5,1.1,1.1
												C357.6,55.1,357.2,55.5,356.6,55.5z"/>
										</g>
									</g>
								</g>
							</g>
						</g>
					</g>
					<g>
						<g>
							<g>
								<path class="st4" d="M87.6,47.8c0-3.7,3-6.7,6.7-6.7c3.7,0,6.7,3,6.7,6.7c0,3.7-3,6.7-6.7,6.7
									C90.6,54.5,87.6,51.5,87.6,47.8z M89.7,47.8c0,2.5,2.1,4.6,4.6,4.6c2.5,0,4.6-2.1,4.6-4.6c0-2.5-2.1-4.6-4.6-4.6
									C91.7,43.2,89.7,45.2,89.7,47.8z"/>
							</g>
							<g>
								<path class="st3" d="M60.6,73.4c0-3.7,3-6.7,6.7-6.7c3.7,0,6.7,3,6.7,6.7c0,3.7-3,6.7-6.7,6.7
									C63.6,80.1,60.6,77.1,60.6,73.4z M62.7,73.4c0,2.5,2.1,4.6,4.6,4.6c2.5,0,4.6-2.1,4.6-4.6c0-2.5-2.1-4.6-4.6-4.6
									C64.8,68.8,62.7,70.8,62.7,73.4z"/>
							</g>
							<g>
								<g>
									<g>
										<path class="st4" d="M46.6,82.8c0.6,0,1.1-0.5,1.1-1.1v-4.6c0-0.6-0.5-1.1-1.1-1.1s-1.1,0.5-1.1,1.1v4.6
											C45.6,82.3,46.1,82.8,46.6,82.8z"/>
									</g>
									<g>
										<path class="st4" d="M46.6,90.9c0.6,0,1.1-0.5,1.1-1.1v-4.6c0-0.6-0.5-1.1-1.1-1.1s-1.1,0.5-1.1,1.1v4.6
											C45.6,90.4,46.1,90.9,46.6,90.9z"/>
									</g>
								</g>
								<g>
									<g>
										<path class="st4" d="M40.1,84.5h4.2c0.6,0,1.1-0.5,1.1-1.1c0-0.6-0.5-1.1-1.1-1.1h-4.2c-0.6,0-1.1,0.5-1.1,1.1
											C39.1,84.1,39.5,84.5,40.1,84.5z"/>
									</g>
									<g>
										<path class="st4" d="M49,84.5h4.2c0.6,0,1.1-0.5,1.1-1.1c0-0.6-0.5-1.1-1.1-1.1H49c-0.6,0-1.1,0.5-1.1,1.1
											C47.9,84.1,48.4,84.5,49,84.5z"/>
									</g>
								</g>
							</g>
							<g>
								<g>
									<g>
										<g>
											<path class="st2" d="M70.9,47.1c0.6,0,1.1-0.5,1.1-1.1v-4.6c0-0.6-0.5-1.1-1.1-1.1s-1.1,0.5-1.1,1.1V46
												C69.9,46.6,70.3,47.1,70.9,47.1z"/>
										</g>
										<g>
											<path class="st2" d="M70.9,55.2c0.6,0,1.1-0.5,1.1-1.1v-4.6c0-0.6-0.5-1.1-1.1-1.1s-1.1,0.5-1.1,1.1v4.6
												C69.9,54.7,70.3,55.2,70.9,55.2z"/>
										</g>
									</g>
									<g>
										<g>
											<path class="st2" d="M64.4,48.8h4.2c0.6,0,1.1-0.5,1.1-1.1c0-0.6-0.5-1.1-1.1-1.1h-4.2c-0.6,0-1.1,0.5-1.1,1.1
												C63.3,48.4,63.8,48.8,64.4,48.8z"/>
										</g>
										<g>
											<path class="st2" d="M73.3,48.8h4.2c0.6,0,1.1-0.5,1.1-1.1c0-0.6-0.5-1.1-1.1-1.1h-4.2c-0.6,0-1.1,0.5-1.1,1.1
												C72.2,48.4,72.7,48.8,73.3,48.8z"/>
										</g>
									</g>
								</g>
							</g>
						</g>
					</g>
				</g>
				<g>
					<g>
						<g>
							<path class="st1" d="M271.7,48.3c-0.1,0-0.2,0-0.4-0.1c-1.3-0.5-2-0.8-2-0.8c-0.4-0.1-0.6-0.6-0.5-0.9
								c0.1-0.4,0.6-0.6,0.9-0.5c0,0,0.8,0.3,2.1,0.8c0.4,0.2,0.6,0.6,0.4,1C272.2,48.1,272,48.2,271.7,48.3z"/>
						</g>
						<g>
							<path class="st1" d="M309.8,88.4c0.5,1.4,1,2.8,1.4,4.2c0.1,0.3,0.4,0.6,0.8,0.5c0,0,0.1,0,0.1,0c0.4-0.1,0.6-0.5,0.5-0.9
								c-0.4-1.4-0.9-2.9-1.4-4.2c-0.1-0.4-0.6-0.6-1-0.4C309.9,87.5,309.7,88,309.8,88.4z"/>
							<path class="st1" d="M312.4,96.8c0.3,1.4,0.7,2.9,0.9,4.3c0.1,0.4,0.4,0.6,0.8,0.6c0,0,0,0,0.1,0c0.4-0.1,0.7-0.5,0.6-0.9
								c-0.3-1.5-0.6-2.9-0.9-4.4c-0.1-0.4-0.5-0.6-0.9-0.5C312.5,96,312.3,96.4,312.4,96.8z"/>
							<path class="st1" d="M315.5,119.3c0.4,0,0.7-0.3,0.7-0.7c0-1.5,0-3,0-4.5c0-0.4-0.4-0.7-0.8-0.7c-0.4,0-0.7,0.4-0.7,0.8
								c0,1.4,0.1,2.9,0,4.4C314.7,119,315,119.3,315.5,119.3C315.5,119.3,315.5,119.3,315.5,119.3z"/>
							<path class="st1" d="M314.6,104.6c-0.4,0.1-0.7,0.4-0.6,0.8c0.1,0.7,0.2,1.4,0.2,2c0.1,0.8,0.2,1.6,0.2,2.3
								c0,0.4,0.4,0.7,0.8,0.7c0,0,0,0,0,0c0.4,0,0.7-0.4,0.7-0.8c-0.1-0.8-0.1-1.6-0.2-2.4c-0.1-0.7-0.2-1.4-0.2-2.1
								C315.4,104.8,315,104.5,314.6,104.6C314.6,104.6,314.6,104.6,314.6,104.6z"/>
							<path class="st1" d="M308.1,84.3c0.1,0.3,0.4,0.5,0.8,0.4c0.1,0,0.2,0,0.2-0.1c0.4-0.2,0.5-0.6,0.4-1c-0.6-1.4-1.3-2.7-2-4
								c-0.2-0.4-0.6-0.5-1-0.3c-0.4,0.2-0.5,0.6-0.3,1C306.9,81.6,307.5,83,308.1,84.3z"/>
							<path class="st1" d="M275.3,50.1c1.3,0.7,2.6,1.4,3.9,2.1c0.1,0.1,0.3,0.1,0.5,0.1c0.2,0,0.4-0.2,0.6-0.4
								c0.2-0.4,0.1-0.8-0.3-1c-1.3-0.8-2.6-1.5-3.9-2.2c-0.4-0.2-0.8,0-1,0.3C274.8,49.4,274.9,49.9,275.3,50.1z"/>
							<path class="st1" d="M286.4,57.1c0.2,0.1,0.3,0.2,0.5,0.1c0.2,0,0.4-0.1,0.5-0.3c0.3-0.3,0.2-0.8-0.1-1
								c-1.2-0.9-2.4-1.8-3.6-2.6c-0.3-0.2-0.8-0.1-1,0.2c-0.2,0.3-0.1,0.8,0.2,1C284.1,55.3,285.3,56.2,286.4,57.1z"/>
							<path class="st1" d="M299,69.3c0.2,0.2,0.4,0.3,0.7,0.3c0.1,0,0.3-0.1,0.4-0.2c0.3-0.3,0.4-0.7,0.1-1.1
								c-0.9-1.2-1.9-2.3-2.9-3.4c-0.3-0.3-0.8-0.3-1.1-0.1c-0.3,0.3-0.3,0.8-0.1,1.1C297.1,67.1,298.1,68.2,299,69.3z"/>
							<path class="st1" d="M293.1,62.8c0.2,0.2,0.4,0.2,0.6,0.2c0.2,0,0.3-0.1,0.5-0.2c0.3-0.3,0.3-0.8,0-1.1c-1.1-1-2.2-2.1-3.3-3
								c-0.3-0.3-0.8-0.2-1.1,0.1c-0.3,0.3-0.2,0.8,0.1,1.1C291,60.8,292.1,61.8,293.1,62.8z"/>
							<path class="st1" d="M304,76.5c0.2,0.3,0.4,0.4,0.7,0.4c0.1,0,0.2,0,0.3-0.1c0.4-0.2,0.5-0.7,0.2-1c-0.8-1.3-1.6-2.5-2.5-3.8
								c-0.2-0.3-0.7-0.4-1-0.2c-0.3,0.2-0.4,0.7-0.2,1C302.5,74,303.3,75.3,304,76.5z"/>
						</g>
					</g>
					<g>
						<g>
							<polygon class="st3" points="271.7,43.1 274.9,31 234.9,31.4 							"/>
							<polygon class="st4" points="234.8,31.4 269.7,46.1 269.8,46.1 271.3,48.6 271.7,43.1 							"/>
							<polygon class="st4" points="271.3,48.6 268.1,48.1 269.8,46.1 							"/>
							<polygon class="st3" points="265.4,44.3 269.8,46.1 260.8,56.3 234.9,31.4 							"/>
						</g>
					</g>
				</g>
			</g>
			<g>
				<path class="st2" d="M456.1,362v0.7c0,4.2-3.4,7.6-7.6,7.6H52.5c-4.2,0-7.6-3.4-7.6-7.6V362c0-4.2,3.4-7.6,7.6-7.6h395.9
					C452.6,354.4,456.1,357.8,456.1,362z"/>
				<path class="st4" d="M456.1,362v0.4H44.8V362c0-4.2,3.4-7.6,7.6-7.6h395.9C452.6,354.4,456.1,357.8,456.1,362z"/>
			</g>
			<g>
				<path class="st5" d="M311,330.4H186.7c-3,0-5.4-2.4-5.4-5.4v-65.1c0-3,2.4-5.4,5.4-5.4H311c3,0,5.4,2.4,5.4,5.4V325
					C316.4,328,314,330.4,311,330.4z"/>
				<rect x="238.4" y="330.3" class="st6" width="20.9" height="23.9"/>
				<circle class="st12" cx="248.6" cy="293.4" r="10.4"/>
				<path class="st5" d="M275.5,354.1h-54v-1.8c0-3.7,3-6.6,6.6-6.6h40.7c3.7,0,6.6,3,6.6,6.6V354.1z"/>
			</g>
		</g>
		<rect x="0.2" y="-10.9" class="st13" width="499.1" height="418.1"/>
		<rect x="0.3" y="-0.2" class="st13" width="500" height="404.2"/>
	</g>
</g>
<g id="DESIGNED_BY_FREEPIK">
</g>
</svg>
