<?xml version="1.0" encoding="utf-8"?>
<!-- Generator: Adobe Illustrator 23.0.0, SVG Export Plug-In . SVG Version: 6.00 Build 0)  -->
<svg version="1.1" id="OBJECTS" xmlns="http://www.w3.org/2000/svg" xmlns:xlink="http://www.w3.org/1999/xlink" x="0px" y="0px"
	 viewBox="0 0 500 500" style="enable-background:new 0 0 500 500;" xml:space="preserve">
<style type="text/css">
	.st0{fill:#264149;}
	.st1{opacity:0.2;}
	.st2{fill:#FDFDFD;}
	.st3{fill:#A7DFF8;}
	.st4{fill:#060E16;}
	.st5{fill:#FFFFFF;}
	.st6{fill:#F66B3B;}
	.st7{fill:#255560;}
	.st8{opacity:0.3;fill:#FFFFFF;}
	.st9{fill:#41636D;}
	.st10{fill:#FFA82B;}
	.st11{fill:#DC573B;}
	.st12{opacity:0.7;fill:#A7DFF8;}
	.st13{opacity:0.5;fill:#FFFFFF;}
	.st14{fill:#FFD43E;}
	.st15{fill:#008CCD;}
</style>
<g>
	<path class="st0" d="M349.4,74v324.4c0,11.8-9.6,21.4-21.4,21.4H180.2c-5.3,0-10.2-1.9-13.9-5.1c-4.6-3.9-7.5-9.7-7.5-16.2V74
		c0-11.8,9.6-21.4,21.4-21.4H328c5.4,0,10.3,2,14,5.3C346.5,61.8,349.4,67.6,349.4,74z"/>
	<path class="st1" d="M349.4,74v324.4c0,11.8-9.6,21.4-21.4,21.4H180.2c-5.3,0-10.2-1.9-13.9-5.1c0,0,0,0,0,0l9.5-19.2l22.3-45.2
		l20.2-40.9l22.4-45.5l4.7-9.6l6.5-13.3l4.4-8.9l6.5-13.3l4.4-8.9l6.5-13.3l6-12.1l6.1-12.3l11-22.4l5.6-11.4l6.5-13.3l4.4-8.9
		l0.3-0.7l18.8-38.3l9.6-19.4v0C346.5,61.8,349.4,67.6,349.4,74z"/>
	<path class="st2" d="M332.5,78.3v315.8c0,4.8-4,8.8-8.8,8.8H184.5c-1.8,0-3.6-0.6-5-1.5c-2.3-1.6-3.9-4.3-3.9-7.3V78.3
		c0-4.9,4-8.8,8.8-8.8h20.7c3.4,0,6.1,2.5,6.7,5.8c0,0,0,0.1,0,0.1c0.9,4.5,5,7.6,9.5,7.6H287c2.6,0,5-1.1,6.7-2.8
		c1.7-1.7,2.8-4.1,2.8-6.7v0c0-2.2,1.7-4.1,3.9-4.1h23.3c3.2,0,6.1,1.8,7.6,4.4C332.1,75.1,332.5,76.7,332.5,78.3z"/>
	<g>
		<g>
			<g>
				<rect x="192.8" y="263.7" class="st3" width="120.8" height="86.4"/>
				<polygon class="st4" points="313.6,327.3 307.7,317.4 288.3,284.6 249.4,350.1 313.6,350.1 				"/>
				<polygon class="st0" points="241.3,350.1 192.8,350.1 217.1,311.1 241.3,272 265.6,311.1 289.8,350.1 				"/>
				<polygon class="st5" points="225.6,297.3 241.3,309.1 257,297.3 241.3,272 				"/>
				<polygon class="st5" points="275,306.9 288.3,317.4 301.5,306.9 288.3,284.6 				"/>
			</g>
			<rect x="192.8" y="196.5" class="st6" width="120.8" height="13.3"/>
			<rect x="192.8" y="218.7" class="st6" width="120.8" height="13.3"/>
			<rect x="192.8" y="102.9" class="st6" width="120.8" height="13.3"/>
			<rect x="192.8" y="125.1" class="st6" width="120.8" height="13.3"/>
			<rect x="192.8" y="240.8" class="st6" width="120.8" height="13.3"/>
		</g>
		<path class="st3" d="M265.9,184.6H241c-2.8,0-5-2.2-5-5v-24.9c0-2.8,2.2-5,5-5h24.9c2.8,0,5,2.2,5,5v24.9
			C270.9,182.4,268.7,184.6,265.9,184.6z"/>
		<path class="st3" d="M308.6,184.6h-24.9c-2.8,0-5-2.2-5-5v-24.9c0-2.8,2.2-5,5-5h24.9c2.8,0,5,2.2,5,5v24.9
			C313.6,182.4,311.4,184.6,308.6,184.6z"/>
		<path class="st3" d="M226.2,149.8h-8c-1.3,1.3-2.6,2.7-4,4c-2.4,2.8-4.9,5.6-7.5,8.2c-4.4,4.5-9.3,8.6-13.6,13.2v7.6
			c0,1,0.8,1.9,1.9,1.9h31.2c1,0,1.9-0.8,1.9-1.9v-31.1C228.1,150.6,227.2,149.8,226.2,149.8z"/>
	</g>
	<path class="st7" d="M312.5,78.1c0,1.7-1.4,3-3,3s-3-1.4-3-3c0-1.7,1.4-3,3-3S312.5,76.4,312.5,78.1z"/>
	<path class="st7" d="M323.9,78.1c0,1.7-1.4,3-3,3c-1.7,0-3-1.4-3-3c0-1.7,1.4-3,3-3C322.5,75,323.9,76.4,323.9,78.1z"/>
	<path class="st8" d="M332.5,78.3v315.8c0,4.8-4,8.8-8.8,8.8H184.5c-1.8,0-3.6-0.6-5-1.5L331.3,73.8
		C332.1,75.1,332.5,76.7,332.5,78.3z"/>
	<path class="st9" d="M283.3,72.1h-58.4c-0.7,0-1.3-0.6-1.3-1.3v-2.2c0-0.7,0.6-1.3,1.3-1.3h58.4c0.7,0,1.3,0.6,1.3,1.3v2.2
		C284.6,71.6,284,72.1,283.3,72.1z"/>
</g>
<g>
	<g>
		<g>
			<g>
				<rect x="370.3" y="320" class="st0" width="15.4" height="95.3"/>
			</g>
			<path class="st0" d="M385.8,412.8c-2.3-1.2-4.9-1.8-7.7-1.8s-5.4,0.7-7.7,1.8c-5.7,2.8-9.6,8.7-9.6,15.5
				c0,9.6,7.8,17.3,17.3,17.3c9.6,0,17.3-7.8,17.3-17.3C395.4,421.5,391.5,415.6,385.8,412.8z M382.8,436.4h-9.4l-4.7-8.2l4.7-8.2
				h9.4l4.7,8.2L382.8,436.4z"/>
			<path class="st0" d="M387.5,290.6l-4.1,7l5.4,9.3l-5.4,9.3h-10.7l-5.4-9.3l5.4-9.3l-4.1-7l-9.4,16.3l9.4,16.3h18.8l9.4-16.3
				L387.5,290.6z"/>
		</g>
	</g>
	<path class="st1" d="M395.4,428.3c0,9.6-7.8,17.3-17.3,17.3v-9.2h4.7l4.7-8.2l-4.7-8.2H378v-104h5.4l5.4-9.3l-5.4-9.3l4.1-7
		l9.4,16.3l-9.4,16.3h-1.7v89.6C391.5,415.6,395.4,421.5,395.4,428.3z"/>
</g>
<g>
	<polygon class="st0" points="131.1,265.1 125.5,274.2 125.5,330.2 119,330.2 119,274.2 113.5,265.1 122.3,242.7 	"/>
	<polygon class="st1" points="131.1,265.1 125.5,274.2 125.5,330.2 122.3,330.2 122.3,242.7 	"/>
	<polygon class="st6" points="133.7,444 110.9,444 110.9,354.9 122.3,344.8 133.7,354.9 	"/>
	<polygon class="st6" points="110.9,330.4 110.9,346.1 122.3,356.1 133.7,346.1 133.7,330.4 	"/>
	<rect x="108.3" y="329.3" class="st10" width="28" height="4.6"/>
	<rect x="116" y="333.9" class="st11" width="3.9" height="110.2"/>
	<rect x="124.7" y="333.9" class="st11" width="3.9" height="110.2"/>
</g>
<g>
	<path class="st1" d="M346.7,161c-4.7-1.8-9.5-2.6-14.2-2.3c-6.9,0.4-13.5,2.9-18.9,7.2c-4.4,3.5-8,8.2-10.2,13.8c0,0,0,0.1,0,0.1
		c-1.5,3.9-2.3,7.9-2.3,11.9c0,4.6,0.9,9.1,2.6,13.3c1.4,3.2,3.2,6.2,5.5,8.9c1.3,1.5,2.8,3,4.4,4.2c2.5,2,5.4,3.7,8.5,4.9
		c3.4,1.4,6.9,2.1,10.4,2.3c5.9,0.3,11.7-0.9,16.8-3.5v-59.7C348.5,161.7,347.6,161.3,346.7,161z"/>
	<g>
		
			<ellipse transform="matrix(1.242396e-03 -1 1 1.242396e-03 148.824 519.3565)" class="st12" cx="334.4" cy="185.2" rx="28.5" ry="28.5"/>
		<g>
			<g>
				<path class="st0" d="M346.7,154.2c-17.1-6.8-36.5,1.6-43.3,18.7c-6.8,17.1,1.6,36.5,18.7,43.3c17.1,6.8,36.5-1.6,43.3-18.7
					C372.2,180.3,363.8,160.9,346.7,154.2z M361,195.7c-5.8,14.6-22.4,21.8-37.1,16c-14.6-5.8-21.8-22.4-16-37
					c5.8-14.6,22.4-21.8,37.1-16C359.6,164.4,366.7,181,361,195.7z"/>
				<path class="st13" d="M332,161.2c5.2,2,7.7,7.9,5.6,13c-2,5.2-7.9,7.7-13,5.6s-7.7-7.9-5.6-13C321,161.7,326.8,159.2,332,161.2z
					"/>
			</g>
			
				<rect x="366.1" y="191" transform="matrix(0.3682 -0.9298 0.9298 0.3682 48.4882 469.8338)" class="st0" width="7.6" height="16.5"/>
			
				<rect x="366.2" y="199.5" transform="matrix(0.3681 -0.9298 0.9298 0.3681 50.0395 476.7097)" class="st14" width="19.1" height="4"/>
			
				<rect x="421.4" y="221.4" transform="matrix(0.3681 -0.9298 0.9298 0.3681 64.6054 541.8762)" class="st14" width="19.1" height="4"/>
			
				<rect x="396.9" y="184.8" transform="matrix(0.3681 -0.9298 0.9298 0.3681 57.3195 509.2863)" class="st0" width="12.9" height="55.4"/>
			<polygon class="st1" points="429.1,222.7 431.5,216.6 380,196.3 377.6,202.3 432.8,224.1 432.8,224.1 			"/>
			
				<rect x="372.7" y="195.1" transform="matrix(0.3682 -0.9298 0.9298 0.3682 55.2595 475.5174)" class="st10" width="9.5" height="4"/>
			<rect x="428" y="217" transform="matrix(0.3682 -0.9297 0.9297 0.3682 69.8182 540.6763)" class="st10" width="9.5" height="4"/>
		</g>
	</g>
</g>
<g>
	
		<ellipse transform="matrix(5.891579e-03 -1 1 5.891579e-03 -69.0456 307.0861)" class="st2" cx="119.9" cy="188.3" rx="33" ry="33"/>
	<path class="st6" d="M138.1,191.8L120,209.9l0,0l-18.2-18.2c-4.3-4.3-4.3-11.3,0-15.6c2.1-2.1,5-3.2,7.8-3.2c2.8,0,5.6,1.1,7.8,3.2
		l2.7,2.7l0,0l2.7-2.7c4.3-4.3,11.2-4.3,15.5-0.1C142.5,180.2,142.4,187.4,138.1,191.8z"/>
	<path class="st11" d="M138.1,191.8L120,209.9l0,0v-31.2l0,0l2.7-2.7c4.3-4.3,11.2-4.3,15.5-0.1
		C142.5,180.2,142.4,187.4,138.1,191.8z"/>
</g>
<g>
	<g>
		<g>
			<g>
				<g>
					<path class="st15" d="M90.9,192.1l-4-4l-3.5,3.5c-1.5-1-3.1-1.7-4.7-2v-5.4h-5.7v5.5c-1.1,0.3-2.2,0.7-3.2,1.3l-3.7-3.7l-4,4
						l3.5,3.5c-1,1.5-1.7,3.1-2,4.7l-4.7,0v5.7l4.9,0c0.4,1.4,1,2.8,1.8,4.1l-3.5,3.5l4,4l3.7-3.7c1.4,0.8,3,1.3,4.6,1.6l0,5.4h5.7
						v-5.8c1.2-0.4,2.3-0.9,3.4-1.6l3.5,3.5l4-4l-3.7-3.7c0.6-1,1-2.1,1.3-3.2H94l0-5.7l-5.4,0c-0.3-1.4-0.8-2.7-1.5-3.9L90.9,192.1
						z M79.7,205.9c-2,2-5.4,2-7.4,0c-2-2-2-5.4,0-7.4c2-2,5.4-2,7.4,0C81.8,200.6,81.8,203.9,79.7,205.9z"/>
				</g>
			</g>
			<path class="st15" d="M69.9,228.7l-2-2l-1.8,1.8c-0.7-0.5-1.5-0.8-2.4-1v-2.7h-2.9v2.8c-0.6,0.1-1.1,0.4-1.6,0.7l-1.8-1.8l-2,2
				l1.8,1.8c-0.5,0.7-0.8,1.5-1,2.4h-2.3v2.9l2.4,0c0.2,0.7,0.5,1.4,0.9,2l-1.8,1.8l2,2l1.8-1.8c0.7,0.4,1.5,0.7,2.3,0.8l0,2.7h2.9
				l0-2.9c0.6-0.2,1.2-0.5,1.7-0.8l1.8,1.8l2-2l-1.8-1.8c0.3-0.5,0.5-1.1,0.7-1.6l2.8,0v-2.9h-2.7c-0.1-0.7-0.4-1.3-0.7-1.9
				L69.9,228.7z M64.3,235.6c-1,1-2.7,1-3.7,0c-1-1-1-2.7,0-3.7c1-1,2.7-1,3.7,0C65.3,232.9,65.3,234.6,64.3,235.6z"/>
		</g>
	</g>
	<g>
		<g>
			<g>
				<g>
					<path class="st15" d="M443.7,248.8l-4-4l-3.5,3.5c-1.5-1-3.1-1.7-4.7-2V241h-5.7v5.5c-1.1,0.3-2.2,0.7-3.2,1.3l-3.7-3.7l-4,4
						l3.5,3.5c-1,1.5-1.7,3.1-2,4.7l-4.7,0v5.7l4.9,0c0.4,1.4,1,2.8,1.8,4.1l-3.5,3.5l4,4l3.7-3.7c1.4,0.8,3,1.3,4.6,1.6l0,5.4h5.7
						v-5.8c1.2-0.4,2.3-0.9,3.4-1.6l3.5,3.5l4-4l-3.7-3.7c0.6-1,1-2.1,1.3-3.2h5.5v-5.7l-5.4,0c-0.3-1.4-0.8-2.7-1.5-3.9
						L443.7,248.8z M432.5,262.6c-2,2-5.4,2-7.4,0c-2-2-2-5.4,0-7.4c2-2,5.4-2,7.4,0C434.6,257.3,434.6,260.6,432.5,262.6z"/>
				</g>
			</g>
			<path class="st15" d="M422.7,285.4l-2-2l-1.8,1.8c-0.7-0.5-1.5-0.8-2.4-1v-2.7h-2.9v2.8c-0.6,0.1-1.1,0.4-1.6,0.7l-1.8-1.8l-2,2
				l1.8,1.8c-0.5,0.7-0.8,1.5-1,2.4h-2.3v2.9l2.4,0c0.2,0.7,0.5,1.4,0.9,2l-1.8,1.8l2,2l1.8-1.8c0.7,0.4,1.5,0.7,2.3,0.8v2.7h2.9
				l0-2.9c0.6-0.2,1.2-0.5,1.7-0.8l1.8,1.8l2-2l-1.8-1.8c0.3-0.5,0.5-1.1,0.7-1.6l2.8,0v-2.9h-2.7c-0.1-0.7-0.4-1.3-0.7-1.9
				L422.7,285.4z M417.1,292.3c-1,1-2.7,1-3.7,0c-1-1-1-2.7,0-3.7c1-1,2.7-1,3.7,0S418.1,291.3,417.1,292.3z"/>
		</g>
	</g>
</g>
</svg>
