<?xml version="1.0" encoding="utf-8"?>
<!-- Generator: Adobe Illustrator 23.0.0, SVG Export Plug-In . SVG Version: 6.00 Build 0)  -->
<svg version="1.1" id="Layer_1" xmlns="http://www.w3.org/2000/svg" xmlns:xlink="http://www.w3.org/1999/xlink" x="0px" y="0px"
	 viewBox="0 0 368.5 368.5" style="enable-background:new 0 0 368.5 368.5;" xml:space="preserve">
<style type="text/css">
	.st0{fill:#A2D0FF;}
	.st1{fill:#5AA4CA;}
	.st2{fill:#7FB5CA;}
	.st3{fill:#639FB1;}
	.st4{fill:#9FCAFF;}
	.st5{fill:#0098B4;}
	.st6{fill:#E6E6E6;}
	.st7{fill:#E0AC9B;}
	.st8{fill:#E3AE95;}
	.st9{fill:#001C1F;}
	.st10{fill:#00565F;}
	.st11{fill:#004174;}
	.st12{fill:#FFC4A8;}
	.st13{fill:#79B4C9;}
	.st14{fill:#BC8C7A;}
	.st15{fill:#FFFFFF;}
	.st16{fill:#007CAA;}
	.st17{fill:#00467F;}
	.st18{fill:#006B7F;}
	.st19{fill:#003E4A;}
	.st20{fill:#CCE7DE;}
	.st21{fill:#00829F;}
	.st22{fill:#4D8BA1;}
	.st23{fill:#3E77BD;}
	.st24{fill:#008694;}
	.st25{fill:#3E3645;}
	.st26{fill:#00626A;}
	.st27{fill:#DFF0D3;}
	.st28{fill:#D1CCB3;}
	.st29{fill:#0094AA;}
	.st30{fill:#00BBC9;}
	.st31{fill:#006BBF;}
	.st32{fill:#006274;}
	.st33{fill:#0099AA;}
</style>
<path class="st0" d="M253.6,302.2c-1.7-3.2-4.3-4.4-7.6-5.6c-2-0.7-4.2-0.3-6.3-0.6c-0.2,0-0.3-0.1-0.5-0.1c2.5-1.6,4.8-3.4,6.6-6.2
	c3.4-4.9,0.6-10.6-3.7-13.9c-4.3-3.3-9.7-4.1-14.9-2.8c-1.1,0.2-2.3,0.7-3.5,1.2c0.8-2.1,1.3-4.4,1.7-6.5c0.9-4.8-0.2-11.2-4.6-14.2
	c-5-3.4-11-0.4-15.5,2.7c-2.5,1.7-5.4,4.1-7.5,6.7c-0.6-5.3-2-10.4-4.6-15.1c-1.6-2.9-3.9-5.5-6.7-7.2c-3.3-1.9-5.7-2-9.4-0.9
	c-6.1,1.9-9.9,9.7-11.7,15.3c-1.2,3.7-1.5,7.2-0.9,11.1c0.3,1.6,0.8,3.2,1.3,4.7c-4.6-3.1-10.1-4.8-15.5-4.1
	c-5.9,0.8-12.2,3.7-14,9.8c-1,3.4,0.2,6.9,2,9.9c0.7,1.1,1.6,2.1,2.5,3c-5.3,0.9-11.2,4-13.8,8.7c-3.2,5.7,2.1,11.3,6.6,14
	c2.8,1.7,6.1,2.9,9.2,4.1c3.9,1.6,7.7,2.9,11.6,4.2c14.2,4.6,29.8,5,44.6,4.6c8-0.2,15.9-0.9,23.8-1.9c3.5-0.5,7-1.2,10.5-1.7
	c3.6-0.5,7.2-0.5,10.7-1.8C250.8,317.1,257.3,309.5,253.6,302.2z"/>
<path class="st1" d="M156,289.6c-0.1-0.7-0.5-1.5-1.3-1.6c-4-0.6-7.7,3.4-10.5,5.7c-0.9,0.8-1.7,1.6-2.6,2.4
	c0.6-1.8,1.3-3.7,1.9-5.5c1.3-4.3,2.3-9.4,0.9-13.6c-0.2-0.8-1.1-1.3-1.9-1.1c-2.9,1-4.7,3.1-6.7,5.4c-2.2,2.7-4.6,5.2-6,8.4
	c-0.2,0.5-0.4,0.9-0.6,1.4c0.2-3,0.1-6.1-0.1-9.1c-0.2-5-0.1-10.1-0.9-15c-0.3-1.9-0.9-7.1-4-6.2c-3.3,0.9-5,4.6-6.1,7.4
	c-1.7,4.1-2.4,8.3-3,12.7c-0.6,4.1-0.5,8.3-0.3,12.5c-0.6-2.7-1.8-5.1-2.4-7.8c-0.7-3.2-1.8-6.3-3-9.4c-2-5.2-4.3-10.2-6.6-15.4
	c-1-2.3-3.6-6-6.3-3.3c-2,2-2,6.2-2,8.7c-0.2,4.7,0.2,9.4,1.2,14c1.3,5.9,3.4,11.7,5.8,17.2c1.1,2.5,2.4,4.9,3.7,7.3
	c-7.4-7.3-19.1-18.7-22.1-11.1c-0.9,2.3,0.8,4.9,2.2,6.6c2.3,2.9,5.4,5.2,8.3,7.6c2.6,2.1,5.2,4.2,7.9,6.2c-1.7-0.3-3.4-0.5-5.1-0.9
	c-2.2-0.4-4.1-1.8-6.5-1.2c-1.6,0.3-3.2,1.3-3.2,3.1c0,4,4.6,6.3,8,7.2c5.4,1.4,11.6,0.7,17,0.7c3.1,0,6.4,0,9.5,0.2
	c3.4,0.2,6.8,1.4,10.1,1.4c2.4,0,5.7,0.6,7.9-0.5c2-1.1,3.6-2.7,4.6-4.8c2.8-5.2,4.3-10.9,7-16.1C153.2,298.7,156.4,295,156,289.6z"
	/>
<path class="st2" d="M80.2,243.6c-8.4-2.6-15.2,4.8-16.9,12.2c-2.4,9.7,1.7,20.4,5.8,29.2c1.4,5.1,1.2,10-0.4,15.4
	c-1.4,4.8-3,9.7-3.5,14.7c-0.2,1.6-0.2,3.4-0.2,5.1c2.5,10.9,9.1,22.7,21.3,24.6c2.4,0.9,5.8-0.5,6.3-4.1c0.5-9.5-4.9-17.1-5.5-26.2
	c-0.6-4.4,3.1-8,5-12.2c0.6-1.3,1.1-2.6,1.6-4c1.8-5.3,2.9-11,3.9-16.5c1.5-8.3-1.1-17.6-4.5-25.3C90.5,251,86.3,245.5,80.2,243.6z"
	/>
<path class="st3" d="M77.6,254.7c-0.6-0.6-1.5,0.2-1,0.9c9.4,13.9,2.8,33.2,0.2,48.2c-0.7,4-1.4,7.6-1,11.6
	c0.3,3.7,1.4,7.2,2.9,10.6c1.4,3.3,3.1,6.4,5.6,9c1.1,1.2,2.2,2.4,3.1,3.7c0.9,1.2,2.8,1.7,3.9,2.8c0.3,0.4,0.9,0,0.8-0.5
	c-0.4-1.1-1-1.8-1.9-2.6c-1.3-1.2-1.7-3-3-4.3c-2.8-3-4.6-6.4-6.3-10.1c-1.7-3.8-2.3-7.9-2.4-12.1c-0.1-2.1,0.7-4.5,1-6.6
	c0.4-2.3,0.9-4.7,1.3-7.1C83,284.7,88.5,266,77.6,254.7z"/>
<path class="st4" d="M67.2,296.6c-2.6-6.2-9-11.4-14.9-14.3c-3.5-1.8-6.6-2.7-9.2-5.8c-2.5-3.1-4-6.9-5.4-10.7
	c-2.3-6.1-3.5-13.3-8.3-18c-7.2-7.3-17.9-6.8-24.9,0.5c-3.2,3.4-4.4,7.6-4.3,12.2c0.1,2.7,0.7,5.5,1.1,8.2c0.4,2.9,1.9,5.2,3.2,7.8
	c2.7,5,6,9.4,10.3,13.1c2.2,1.9,4.6,3.4,6.9,5.1c2.2,1.6,4.3,3.5,6.6,4.9c2.1,1.2,3.6,3,6,3.8c2.4,0.9,4.9,2.2,7.2,3.5
	c2.4,1.3,3.9,3.3,4.6,5.5c0.2,2.4,0.1,4.8-0.5,7.2c-0.9,3.7-2.2,7.3-2,11.1c0.4,5.2,3.2,11.2,7.8,14c6.1,3.7,11.4-1.9,14.8-6.4
	c4.5-5.9,2.8-14,2.8-20.9c0-3.4,0.9-6.5,0.6-9.8C69.6,303.9,68.7,300.1,67.2,296.6z"/>
<path class="st3" d="M59.3,308c-1.6-4.1-4.5-7.9-7.5-11.1c-2.6-2.8-6-5.8-9.4-7.5c-4.3-2-7.2-5.1-10.4-8.6c-1.7-1.8-2.9-3.9-4.3-5.8
	c-1.4-1.9-2.8-3.8-4-6c-1-1.9-1.7-3.9-2.7-5.8c-1.2-2.3-2.7-4.8-2.6-7.3c0.1-1-1.5-1.2-1.7-0.2c-0.4,3.6,1.6,6.8,3.1,10
	c0.9,1.9,1.6,4.1,2.6,6c1.1,2.1,2.5,3.9,3.9,5.8c2.6,3.6,5.3,7.1,8.6,10.1c3.3,3,7.6,4.8,11,7.6c3.9,3,7.2,7.1,9.5,11.4
	c2.5,4.5,3.2,10.1,3.1,15.1c-0.2,4.8-1.6,9.7-2.5,14.3c-0.7,3.4-1.4,7.1,1.4,9.6c0.4,0.3,1,0,1-0.5c0.1-1.6-0.3-3.3-0.2-4.9
	c0.1-2.3,0.9-4.6,1.3-6.9c0.8-4.2,2-8.3,2-12.7C61.5,316.4,60.9,312,59.3,308z"/>
<path class="st1" d="M289.1,230.9c1.4-7.1-1.6-15-6.8-20c-3.5-3.4-9.1-5.1-13.8-3.6c-5.3,1.6-7.1,7.5-8.7,12.2
	c-2,6.2-2.3,12.6-7.2,17.3c-2,1.9-4.3,3.9-5.6,6.4c-1.4,2.9-2.1,5.7-2.6,9c-1.6,12.1-0.1,25,5.4,36c1.3,2.6,2.9,5,4.7,7.2
	c2.3,2.7,4.1,5.8,6.3,8.6c0.4,0.5,0.7,0.9,1.1,1.4c2.2,3.2,4.1,6.5,6.1,9.8c2,3.4,3.1,7,5,10.4c1.3,2.3,3.5,4.3,6.2,3
	c5.1-2.3,3.8-12.1,3.9-16.3c0.4-8.3,6-14.4,8.4-22.1c2-6.5,0.2-14.8-4.6-19.6c-2.2-2.3-5.3-4.2-6.8-7.1c-2.1-4.1-2-9-0.6-13.4
	C282,243.2,287.7,238.1,289.1,230.9z"/>
<path class="st5" d="M273.1,220.9c-0.5,1.9-0.6,3.9-1.3,5.8c-0.8,2.3-1.6,4.5-2.6,6.7c-2,4.1-4.3,8-5.4,12.4
	c-2.7,9.5-2.6,18.8,0.2,28.2c1.2,4.1,4,7.3,5.9,11c1,2,1.3,4.3,2,6.4c0.8,2.6,1.2,4.8,0.9,7.5c-0.5,4.9-0.6,9.7-0.1,14.6
	c0.6,4.6,1.9,8.4,3.8,12.6c0.6,1.2,2.2,0.5,2-0.6c-0.3-2.1-1.1-3.9-1.7-5.8c-0.6-2.1-0.9-4.4-1.2-6.5c-0.6-5.2-0.1-10.4,0.2-15.6
	c0.2-1.9-0.3-3.8-0.9-5.7c-0.6-1.8-0.9-3.7-1.5-5.5c-1.5-4.2-4.5-7.6-6.3-11.5c-4.2-9-3.1-20.6-0.2-29.8c1.3-4,3.5-7.6,5.1-11.4
	c0.9-1.9,1.5-3.9,2-6c0.6-2.1,0.4-4.1,0.7-6.2C275,220.4,273.4,220,273.1,220.9z"/>
<path class="st2" d="M367.9,286.3c-1.5-3.2-6.5-2.1-9.1-1.9c-5.1,0.5-10.7,4.1-15,6.9c-2.3,1.5-4.6,2.9-6.9,4.3
	c4.3-5.2,8.7-10.4,12.4-16.1c3.5-5.5,7.7-11.5,9.7-17.6c1.3-4.2,4.5-9.5,1.5-13.6c-0.8-1.1-1.8-1.5-3.1-1.2
	c-5.5,0.8-10.5,6.8-14.5,10.2c-5.9,5.1-10.5,11-15.8,16.7c0.6-1.9,1.1-3.9,1.7-5.8c2.4-8.7,3.9-17.5,6.1-26.2
	c0.9-3.4,1.7-12.2-4.1-11.7c-4.3,0.4-7.3,5.5-9.4,8.6c-3.5,5.1-6.6,10.7-9,16.5c-2.5,6.2-4.4,12.6-6.1,18.9
	c-0.2-6.4-1.2-31.2-7.1-36.4c-5.9-5.2-8.3,4.7-9.9,9c-3.1,8.2-2,18.5-1.3,27c0.4,4.8,1,9.5,1.7,14.2c-1.7-2.2-3.3-4.2-5.4-6.2
	c-4.3-4-15.7-11.2-18.3-1.8c-0.9,3.5,0.4,7.9,1.9,11.1c1.9,4.1,3.7,8.4,6.8,11.9c1.6,1.8,2.6,3.9,4.2,5.8c1.9,2.3,3.9,4.4,6,6.5
	c4.1,4.3,8.3,8.7,13.1,12.3c4.1,3.1,8.8,6.1,14.2,5.5c2.8-0.3,5-1.9,7.6-2.9c2.9-1.2,5.8-2.4,8.6-4c5-2.8,9.5-6.2,14.4-9.1
	c5.3-3.1,9.3-6.8,13.8-10.8C361.1,302.1,371.5,293.7,367.9,286.3z"/>
<path class="st3" d="M310.7,333.3c-1.4-1.3-1.7-3.1-2.6-4.7c-1.4-2.1-2.8-4.4-4.1-6.5c-2.6-4.3-6.2-8-9.4-11.8
	c-7.2-8.6-14.7-17-21.3-26c-0.7-1-2.4-0.1-1.7,1c5.9,9.2,13.1,17.3,19.9,25.7c4,5,8.1,9.7,11.7,15.1c1.8,2.8,4.1,6.2,7.2,7.7
	C310.6,334,311,333.6,310.7,333.3z"/>
<path class="st3" d="M305.6,304c-1.3-6.1-2.5-12.1-3.9-18.1c-3.1-13.6-4.6-27.5-5.2-41.3c-0.1-0.9-1.5-0.9-1.5,0
	c-0.4,12.6,0.9,25.1,3.1,37.5c2.2,12.2,4.7,24.5,8.3,36.2c0.2,0.5,0.9,0.5,1,0C308.3,313.7,306.5,308.5,305.6,304z"/>
<path class="st3" d="M323.9,252.1c-1.8,5.8-4.4,11.2-6.1,17.1c-1.7,6.2-2.8,12.5-3.5,18.8c-0.7,6.7-1.9,13.4-2.7,20.1
	c-0.8,6.3-0.9,13.2-2.7,19.3c-0.2,0.9,1,1.2,1.4,0.4c2.1-5.1,2.6-11,3.1-16.4c0.7-6.8,2-13.6,2.9-20.3c0.9-7.2,1.9-14.2,3.7-21.2
	c1.6-5.8,3.2-11.6,4.6-17.5C324.8,251.8,324.1,251.7,323.9,252.1z"/>
<path class="st3" d="M346.4,264c-7.2,10-14.1,20-20.4,30.6c-2.8,4.8-5.4,9.9-7.2,15.2c-1.7,4.8-3.9,10.1-3.9,15.2c0,1,1.4,0.9,1.5,0
	c0.6-5.2,3.5-11.1,5.4-16c2-5.5,5.2-10.7,8.3-15.7c3-4.8,5.7-9.7,9.1-14.3c1.6-2.1,3.3-3.9,4.3-6.2c1.3-2.8,2.2-5.7,3.7-8.3
	C347.4,264,346.7,263.6,346.4,264z"/>
<path class="st3" d="M359.3,290.2c-2.7,2.4-6.3,4.2-9.2,6.5c-4.5,3.5-8.7,7.2-13.1,10.6c-3.9,2.9-7.3,6.2-10.7,9.6
	c-2.9,3-6.1,5.6-8,9.3c-0.6,1.2,1.1,2.3,1.9,1.1c2.3-3.7,6.1-6.5,9.3-9.5c3.8-3.6,7.9-6.7,12-9.9c4.5-3.5,8.6-7.3,13.1-10.6
	c2.3-1.6,4.9-3.7,6-6.2C360.8,290.2,359.7,289.8,359.3,290.2z"/>
<ellipse class="st6" cx="186.6" cy="337.8" rx="149.3" ry="30.9"/>
<path class="st7" d="M183.6,107.5c0,0,20.4,16.8,33.4,12.9c13-3.9,21.2-20.6,23.1-27.6c2-7-2.8-14-10.6-13.3
	c-7.9,0.8-14.6,22.6-17.2,24.9c-2.2,1.9-19.2-4.4-20.4-5.1C189.1,97.8,183.6,107.5,183.6,107.5z"/>
<path class="st8" d="M283.5,235c0,0,12.8,22.9,19.3,46.8c3.1,11.5,12,27.2,11.3,29c-2.2,5-4.3,9.7-8.5,10.3
	c-4.2,0.5-3.9-7.6-5.5-11.5c-1.7-4-42.7-70.4-42.7-70.4L283.5,235z"/>
<path class="st9" d="M312.1,304c0,0,8.7,17.8,8.3,24.1c-0.5,6.2-4.3,3.7-4.3,3.7l-3.7-4.2c0,0,0.4,9.7-9.1,15.1s-14.1,5.6-15.4,0.8
	s5.7-16.3,7.5-23.4c1.8-7.1,3.9-12.6,3.9-12.6L312.1,304z"/>
<path class="st10" d="M297.3,317c2-1.6,4.5-1.9,6.9-1c1.3,0.5,0.3,2.3-0.9,1.9c-1.1-0.4-2.1-0.1-3.2-0.1c-0.9,0-1.7-0.1-2.6-0.2
	C297.2,317.5,297.2,317.1,297.3,317z"/>
<path class="st10" d="M294.4,322.4c1-0.9,2.4-1.1,3.6-1.3c1.2-0.2,2.4-0.4,3.6-0.2c1.1,0.2,0.8,1.9-0.3,1.7
	c-2.3-0.3-4.6,1.4-6.8,0.7C294.2,323.1,294.1,322.7,294.4,322.4z"/>
<path class="st11" d="M225.1,170.8c0,0,13.5,43.7,22.5,60.2c12.1,22.1,43.8,70,43.8,70l16.5-10.4c0,0-15.4-54.6-22.8-65.5
	c-2.8-4.1-3.9-7.7-5-16.5c-1.3-11.1-3.1-23.4-2.8-28.9c0.6-9.9-4.1-30.8-15.4-36.9C250.7,136.7,225.1,170.8,225.1,170.8z"/>
<path class="st12" d="M244.2,253c0,0-2,26.1-9.8,49.7c-3.7,11.3-5,29.3-6.6,30.3c-4.6,3-9,5.8-12.8,4c-3.8-1.8,1-8.4,1.7-12.6
	c0.8-4.2,3.4-82,3.4-82L244.2,253z"/>
<path class="st9" d="M230.1,326.3c0,0,0.8,19.8-2.2,25.3c-3,5.5-5.4,1.6-5.4,1.6l-1.7-5.3c0,0-3.5,9-14.4,10.2
	c-10.9,1.2-15.2-0.5-14.4-5.4c0.8-4.9,11.8-12.7,16.3-18.5c4.6-5.8,8.7-10.1,8.7-10.1L230.1,326.3z"/>
<path class="st10" d="M211.3,332.4c2.5-0.6,4.9-0.1,6.8,1.8c0.9,0.9-0.6,2.2-1.7,1.3c-0.9-0.8-1.9-0.9-2.9-1.4
	c-0.9-0.4-1.6-0.7-2.4-1.2C210.9,332.8,211,332.5,211.3,332.4z"/>
<path class="st10" d="M206.4,336.2c1.3-0.4,2.7,0,3.9,0.2c1.2,0.2,2.4,0.6,3.4,1.2c0.9,0.6-0.1,2-1,1.4c-2-1.2-4.7-0.5-6.5-2
	C205.8,336.8,205.9,336.3,206.4,336.2z"/>
<path class="st13" d="M215.7,167.2c0,0-4.6,23.8-1.8,55s2,88.1,2,88.1l18.4,4.1c0,0,13-56.2,14.2-67.3c1.3-11.1,5.2-40.4,10.1-49
	c4.9-8.7,10-29.4,2.7-39.8C253.9,147.7,215.7,167.2,215.7,167.2z"/>
<path class="st7" d="M216.1,55.1c0,0,2.3,9.8,5,19.3c8.3,2.3,17.8-9,17.8-9l-8.6-15L216.1,55.1z"/>
<path class="st7" d="M200.6,40.6c-0.1-0.7-1.1-7-1.3-9.5c-1.1-15.9,15.9-17.7,15.9-17.7c26.8-8.6,30,17.9,28,24.9
	c-1.9,6.9-7,14.5-10.2,17.2c-3.2,2.8-8.7,6.4-12.8,6.9c-4.8,0.6-9.7-0.5-12.4-3.5c-3.6-3.7-3.9-6.2-4.7-6.7c-1.4-0.8-4.7-1.3-5-3.3
	C199.1,46.1,200.7,41.3,200.6,40.6z"/>
<path class="st14" d="M219,61.9c1.3-1.3,3.7-1.4,5.4-2.2c1.7-0.9,3.3-1.7,5.3-2c0.6-0.2,0.8,0.7,0.3,1c-2,1.2-3.9,2.4-6,3.4
	c-1.5,0.7-3.5,1.6-4.9,0.5C218.7,62.4,218.7,62.1,219,61.9z"/>
<path class="st9" d="M213.2,25.8c0,3.6,1.8,11.5,5.6,16.4c7.6,10.4-7.1,15.7,1.5,16.9s12-0.3,19.4-3.2c7.4-2.9,7.8-11.6,8.5-16.9
	c1.7-11.8-3.9-22.3-12.1-27.7c-10.5-6.8-20.6-0.5-20.6-0.5S201,9.7,197.3,23c-1,3.9,0.2,9.5,0.2,9.5s3.9-0.2,6.5-1.1
	C209.7,29.2,213.2,25.8,213.2,25.8z"/>
<path class="st15" d="M205.5,53.6c0,0,7.4-4.7,7.9-3.3s0.4,5.5-1.9,6.4C209.2,57.5,205.1,55.4,205.5,53.6z"/>
<path class="st16" d="M235.5,59.9c0,0-14.6,3.1-18.1,9.8c-1.5,2.9-2.7,9.1-4.6,13.4c-2.6,5.8-5.7,12.8-5.3,15.7
	c1.2,8.7,9.3,23.2,9.3,27.5c-0.1,5.7-2.1,42.8-2.1,42.8s17.2,1.4,31.2-2.5c14-3.9,26.7-12.1,26.7-12.1s-16.5-28-15.7-45
	c0.6-13.2-1.5-33.1-10.7-42.2C243.5,65,238.8,60.4,235.5,59.9z"/>
<path class="st17" d="M226.9,100.4c-1.2-4.9-2-10-2.3-15c-0.1-0.8-1.1-0.7-1.2,0c-0.5,4.1-0.3,8.1,0.3,12.2
	c0.7,4.3,0.9,9.7,3.8,13.2c0.3,0.4,1.2,0.5,1.3-0.2C229.3,107.2,227.8,103.9,226.9,100.4z"/>
<path class="st17" d="M248.3,84.9c-0.1-1.1-1.7-1-1.7,0c-0.3,4.3,0.3,8.4,0.9,12.7c0.5,4.1-0.2,8-0.6,12c-0.1,0.5,0.6,0.7,0.9,0.5
	C255,104.9,248.7,91.9,248.3,84.9z"/>
<path class="st12" d="M211.5,156.9c5.9-2.9,27.1-9,32.8-16c5.7-6.9,2-32.3,2-32.3l-17.2,1.5c0,0,4.4,18.4,1.2,22.4
	c-3.2,4-24.6,16.1-24.6,16.1S205.6,159.7,211.5,156.9z"/>
<polygon class="st18" points="136.2,264.1 127.4,264.4 101.7,41.6 110.5,41.3 "/>
<g>
	<polygon class="st18" points="96.5,340.6 104.4,131.1 95.5,130.1 87.6,340.6 	"/>
	<polygon class="st18" points="202.2,334.8 135.9,127.6 127.5,129.7 193.2,334.8 	"/>
</g>
<polygon class="st19" points="102.6,155.1 52.4,329.5 61.3,329.5 111.5,155.1 "/>
<polygon class="st20" points="174,217 76.7,222.8 63.8,90.6 152.9,84.8 "/>
<polygon class="st21" points="126.5,88.2 96.6,89.4 95.5,80 125.4,78.8 "/>
<polygon class="st18" points="178.4,222.5 73,228.9 71.7,219.5 177,213.1 "/>
<polygon class="st18" points="175.4,262.8 94.1,267.7 93.2,261.3 174.5,256.4 "/>
<path class="st13" d="M149.3,149.5c-0.2-2.1-0.1-4.8-0.6-6.9c-0.5-1.8-0.7-3.6-1-5.4c-0.3-1.9-1.3-3.7-2.3-5.3
	c-2.2-3.7-6.5-6.5-7.9-10.8c-2.4-6.8-5.2-13.7-12.5-16.3c-6.3-2.3-14,0.2-18.9,4.3c-2.7,2.2-4.6,5.7-4.3,9.1
	c0.2,4.2,3.2,7.7,5.1,11.3c1.6,2.8,2.8,5.8,3.5,9c0.7,4.6,1.5,9,1.2,13.7c-0.2,3.5-2.7,6.5-4.5,9.4c-1.7,2.7-3.1,7.6,0.6,9.4
	c3,1.5,6.2,1.9,9.4,2.7c1.9,0.5,3.5,1.6,5.4,2.1c2,0.5,4.3,0.8,6.4,0.6c7.8-0.5,14.4-5.4,18.1-12.1c1.7-3,2.1-6.5,2.4-9.8
	C149.5,153,149.5,151.3,149.3,149.5z"/>
<path class="st22" d="M125.3,165.9c0-0.4,0-0.9,0-1.2c1.9-4.2,1.7-8.2,0.4-12.6c-1.3-4.7-3.8-8.7-8.2-11c-2.6-1.3-6.3-2.3-9.2-1.3
	c-0.7-0.2-1.4-0.2-2.1-0.2c-5.7-0.2-12.4,4.1-13.9,9.6c-0.9,3.2-1.6,6.7-2,10c-0.6,3.6,0.2,6.9,1.5,10.3c1.3,3.4,2.8,6.8,4.3,10.1
	c1.5,3.1,2.4,6.2,4.6,9c2.1,2.7,5.7,3.4,8.8,4c3,0.5,5.7,1.2,8.7,0.1c6-2.5,8.6-8.8,7.6-15C125.1,173.5,125.4,169.7,125.3,165.9z"/>
<path class="st23" d="M151.9,176.4c-1.8-4-6.1-4.8-8.6-8.2c-3.2-4.5-8.1-6.2-13.5-6.1c-2.6,0.1-6.7,0.2-9.4,1.7c0,0,0,0-0.1,0
	c-1.9,0.2-3.5,1.7-4.5,3.1c-2.3,3-1.5,7.6,0.9,10.2c1.3,1.3,3.1,1.6,4.8,1.8c0.7,0.5,1.4,1,2.1,1.5c2.5,1.7,5.4,2.6,8,4
	c2.8,1.5,5.5,2.7,8.3,3.9c3.5,1.6,9.9,2.2,12.3-1.5C154.5,183.8,153.4,179.7,151.9,176.4z"/>
<path class="st24" d="M235.5,8.5c-0.5-0.2-1-0.5-1.5-0.6c0.2-0.4,0.3-0.8,0.5-1.1c0.8-1.6,1.8-3.4,1.4-5.2c-0.2-1-1.3-1.5-2.3-1.3
	c-1.7,0.4-2.2,1.9-2.8,3.2c-0.4,0.9-0.6,1.7-0.9,2.5c0,0.1-0.1,0.2-0.1,0.2c-5.1-1.9-10.5-3.1-16-2.3c-5.7,0.9-12,5.5-9.1,11.7
	c1.2,2.4,3.7,4.3,5.8,5.9c3.2,2.4,6.8,4.3,10.4,6.2c2.9,1.5,6.1,2.7,9.3,3c2.7,0.7,5.4,0.6,8.1,0.1c3.6-0.8,5.6-3.4,6.9-6.6
	C247.9,17.3,241,10.9,235.5,8.5z"/>
<path class="st7" d="M185.2,91.5c0,0-7.9-5.1-10.2-5.1s-5.5,2.3-7.5,4.7s-3.1,5.5-3.9,7.4s0,3.5,3.1,5.8c1.2,0.9,5.2,0.2,7.1,0.8
	c3.1,0.8,7.2,4,10.6,3.5c5.5-0.8,7.5-4.7,7.9-6.6C192.7,100.1,186.8,91.2,185.2,91.5z"/>
<g>
	<path class="st25" d="M151.3,114.6c-2.1-0.9-1.4-1.9-1.4-1.9s34.3-28.2,38.1-30.2c3.8-1.9,5.9-0.9,2.8,3
		C190.7,85.3,151.3,114.5,151.3,114.6z"/>
</g>
<path class="st26" d="M151,114.5c0,0-1.7,1.9-4.3,3.4c-2.6,1.5-6.9-1.4-8.3-2.6c0,0,2.9-1,5.1-1.1c2.2-0.1,4-1.9,5.7-1.6
	C151.2,113,151,114.5,151,114.5z"/>
<path class="st7" d="M183,94.1c-0.2-0.2-0.2-0.2-0.4-0.4c-0.2-0.1-1.7-1-1.1-0.5c-0.9-0.9-2.3-1-3.5-1c-1.7,0.1-4.4,0.4-5.7,1.6
	c-1,1-0.9,2.6-0.4,3.7c0.5,1.1,2,1.4,3,1.6c2.5,0.2,5.2-0.1,7.8-0.1C185.8,99.1,185.9,94.4,183,94.1z"/>
<path class="st14" d="M170.6,89c-1.3,2.2-3.3,6.1-0.5,8c0.3,0.2,0.6-0.2,0.5-0.5c-1.2-2.3-0.2-4.8,0.9-6.9
	C171.9,88.9,171,88.3,170.6,89z"/>
<path class="st14" d="M167.1,92.7c0-0.4-0.6-0.5-0.7-0.1c-0.1,0.7-0.4,1.2-0.5,1.9c0,0.2,0,0.2,0,0.4c0,0.5-0.3,0.7-0.5,1.2
	c-0.3,1.1-0.1,2.6,0.6,3.5c0.2,0.2,0.6,0.1,0.6-0.2c-0.1-1.2-0.3-2.4,0.1-3.6c0.1-0.3,0.1-0.7,0.1-1.1
	C166.8,94,167.1,93.4,167.1,92.7z"/>
<path class="st14" d="M185.9,94.2c-1.1-1.2-2.6-2-4.3-1.9c-0.6,0-0.7,0.9-0.2,0.9c1.5,0.2,3,1.4,3.9,2.7c0.6,0.9,1.7,2.6,3,2.7
	c0.2,0,0.2-0.2,0.3-0.3C188.7,96.7,186.9,95.2,185.9,94.2z"/>
<path class="st14" d="M179.9,99.4c-1.2-0.2-2.3-0.5-3.4-0.8c-1.3-0.3-2.5-0.2-3.7-0.8c-0.4-0.2-0.7,0.3-0.3,0.6
	c1.6,1.2,3.6,1.2,5.5,1.9c0.9,0.3,1.7,0.4,2.6,0.6c1,0.2,1.6,1.2,2.5,1.7c0.2,0.1,0.5-0.1,0.4-0.3C182.9,100.3,182,99.8,179.9,99.4z
	"/>
<path class="st27" d="M234.7,148.8c-7.9-3.9-30.9-10.8-44.8-8.2c-10.2,1.9-10.9,5.4-7.4,8.1c3.5,2.7,0.6,4.1-5.6,4.8
	c-6.2,0.7-8.5,9.6-3.5,13.4c6.3,4.8,15.7,8,28.7,8c13,0,30.2-4.7,34.6-8.2C240.9,163.1,242.5,152.6,234.7,148.8z"/>
<path class="st28" d="M194.7,151.1c0,1.7-2.1,3.1-4.7,3.1c-2.6,0-4.7-1.4-4.7-3.1s2.1-3.1,4.7-3.1
	C192.5,148,194.7,149.3,194.7,151.1z"/>
<path class="st29" d="M187.3,146.8c-0.6-0.2-1.1-0.2-1.7-0.3c-1.7-0.2-5.9-0.1-5.9,2.3c0,2.1,2.8,2.7,4.4,2.9c0.5,0,0.9,0,1.3-0.2
	c0.1,0.1,0.2,0.1,0.2,0.2c0.8,0.5,1.7,0.9,2.7,1.1c1.6,0.3,4.3,0.3,4.8-1.6C194.2,148.1,190.1,146.3,187.3,146.8z"/>
<path class="st30" d="M216.9,146.4c-0.9-0.9-2.4-1.3-3.7-1.7c-1.5-2.2-5.1-1-7.3-0.6c-1.3,0.2-1.4,1.9-0.6,2.7
	c0.1,1.2,0.9,2.3,2.4,2.3c0.6,0,1.8,0.3,3,0.1c0.6,0.2,1,0.5,1.6,0.5c1.6,0.2,2.6,1.2,4.3,0.2C217.7,149.2,217.9,147.4,216.9,146.4z
	"/>
<path class="st31" d="M231.6,152.7c-0.2-1.2-1.3-2.1-2.3-2.8c-0.1-0.1-0.2-0.2-0.3-0.2c-0.3-0.3-0.7-0.5-1.1-0.8
	c-1.9-0.8-4.8-1.2-6.1,0.9c-0.6,1.1-0.3,2.3,0.6,3.1c0,0.5,0.2,0.9,0.4,1.2c0.6,1.1,1.5,1.9,2.8,2.2c0.6,0.1,1.3,0.1,1.8-0.1
	c0.7,0.2,1.4,0.2,2.1,0C231.2,155.9,231.9,154.2,231.6,152.7z"/>
<path class="st23" d="M228.6,160c-2,0.1-3.6,1.2-5,2.7c-0.7,0-1.3,0-2,0.2c-1.1-0.1-2,0.3-2.6,1.6c-0.8,1.7,0.1,4.5,2.5,4.3
	c0.7-0.1,1.2-0.2,1.8-0.5c-0.8,0.3,0.3,0.1,0.5,0.1c1,0,2.1-0.2,3.1-0.5c1.9-0.5,3.5-1.6,4.5-3.1C232.8,162.8,230.8,159.9,228.6,160
	z"/>
<path class="st32" d="M209.9,167.3c-0.1-0.9-0.5-1.4-0.9-1.8c-0.3-1.6-1.7-2.8-3.5-2.2s-3.7,1.5-5.3,2.3c-0.2,0.2-0.4,0.3-0.6,0.5
	c0,0,0,0-0.1,0c-0.9,0-1.9,0.5-2.4,1.3c0,0.1-0.1,0.1-0.1,0.2c-1.2,2.1,0.4,4.2,2.6,4.4c1.4,0.2,2.8-0.5,4.2-0.6c0.3,0,0.6,0,0.9,0
	h0.1c0.8,0.2,1.6,0.2,2.4,0C209.2,171,210.2,169.3,209.9,167.3z"/>
<path class="st33" d="M188.1,162.6c-0.1-0.1-0.2-0.2-0.4-0.2c-0.3-0.3-0.7-0.5-1.1-0.6c-0.7-0.2-1.6-0.2-2.3-0.1
	c-0.2-0.1-0.4-0.2-0.6-0.3c-0.4-0.2-0.7-0.4-1-0.6c-3-1.9-6.3,2.4-3.8,4.8c0.8,0.7,1.5,1,2.4,1.4c0.7,0.2,1.3,0.5,2.1,0.9
	c1.8,0.8,3.7,0.6,5.2-0.7C190.2,165.9,189.6,163.5,188.1,162.6z"/>
<g id="DESIGNED_BY_FREEPIK">
</g>
</svg>
