<?xml version="1.0" encoding="utf-8"?>
<!-- Generator: Adobe Illustrator 23.0.0, SVG Export Plug-In . SVG Version: 6.00 Build 0)  -->
<svg version="1.1" id="Layer_1" xmlns="http://www.w3.org/2000/svg" xmlns:xlink="http://www.w3.org/1999/xlink" x="0px" y="0px"
	 viewBox="0 0 500 500" style="enable-background:new 0 0 500 500;" xml:space="preserve">
<style type="text/css">
	.st0{fill:#F1B791;}
	.st1{fill:none;stroke:#17014E;stroke-linecap:round;stroke-linejoin:round;stroke-miterlimit:10;}
	.st2{fill:none;stroke:#FFFFFF;stroke-linecap:round;stroke-linejoin:round;stroke-miterlimit:10;}
	.st3{fill:#FFFFFF;}
	.st4{fill:#FFD8B9;}
	.st5{fill:#5DC3DE;}
	.st6{fill:#39ADCC;}
	.st7{clip-path:url(#SVGID_2_);fill:none;stroke:#FFFFFF;stroke-linecap:round;stroke-linejoin:round;stroke-miterlimit:10;}
	.st8{clip-path:url(#SVGID_4_);fill:none;stroke:#FFFFFF;stroke-linecap:round;stroke-linejoin:round;stroke-miterlimit:10;}
	.st9{clip-path:url(#SVGID_6_);fill:none;stroke:#FFFFFF;stroke-linecap:round;stroke-linejoin:round;stroke-miterlimit:10;}
	.st10{clip-path:url(#SVGID_8_);fill:none;stroke:#FFFFFF;stroke-linecap:round;stroke-linejoin:round;stroke-miterlimit:10;}
	.st11{opacity:9.000000e-02;fill:#17014E;enable-background:new    ;}
	.st12{fill:#7F7AFF;}
	.st13{fill:#6560D6;}
	.st14{fill:#EF5E9C;}
	.st15{fill:none;stroke:#D64583;stroke-linecap:round;stroke-linejoin:round;stroke-miterlimit:10;}
	.st16{fill:#17014E;}
	.st17{fill:#FFAA08;}
	.st18{fill:#FFBAD7;}
	.st19{fill:#3A257A;}
	.st20{fill:#D5603E;}
	.st21{fill:#EE3A59;}
	.st22{fill:#D6CEFF;}
	.st23{fill:#B9ABFF;}
	.st24{fill:#FFCF4E;}
	.st25{fill:#FF96C3;}
</style>
<g id="BACKGROUND">
</g>
<g id="OBJECTS">
	<g>
		<path class="st0" d="M79.7,245.6c17.3-33.8,39.9-64.7,67.1-91.7c50.9-50.5,128.7-57.4,187.1-16.8c21.5,15,41.4,32.4,59.4,52.1
			c31.9,34.8,31,90.2-2,123.9c-40.2,41.1-92.2,69.7-147.5,79.8c-29.2,5.3-59.6,5.7-88-3s-54.7-27.1-70.3-53.5
			C70,310,65,274.4,79.7,245.6z"/>
		<path class="st1" d="M424,306.7c0-1-0.7-1.8-1.7-1.8c-0.9,0-1.7,0.8-1.7,1.8s0.7,1.8,1.7,1.8C423.2,308.4,424,307.6,424,306.7z"/>
		<path class="st1" d="M436,89.4c0-1-0.7-1.8-1.7-1.8c-0.9,0-1.7,0.8-1.7,1.8s0.7,1.8,1.7,1.8C435.2,91.2,436,90.4,436,89.4z"/>
		<path class="st1" d="M388.4,437.6c0-1-0.7-1.8-1.7-1.8c-0.9,0-1.7,0.8-1.7,1.8s0.7,1.8,1.7,1.8
			C387.6,439.3,388.4,438.6,388.4,437.6z"/>
		<path class="st0" d="M180.1,384.4l-12.8-3.9c-0.9-0.3-1.6-1-1.8-2l0,0c-0.2-0.9,0.1-1.9,0.8-2.5l9.9-9.3c0.8-0.8,1.1-2,0.6-3.1
			c-0.7-1.7-1.6-3.3-2.4-4.9c-0.6-1-1.7-1.5-2.8-1.2l-12.9,3.3c-0.9,0.2-1.8-0.1-2.5-0.8l0,0c-0.6-0.7-0.8-1.7-0.5-2.6l4.2-13.3
			c0.3-1.1,0-2.3-0.9-3c-1.4-1-2.9-2-4.4-2.9c-1-0.6-2.2-0.4-3,0.4l-9.6,9.6c-0.7,0.7-1.6,0.9-2.5,0.6l0,0c-0.9-0.3-1.5-1-1.7-2
			l-2.7-13.6c-0.2-1.1-1.1-2-2.2-2.1c-0.9-0.1-1.8-0.1-2.6-0.2c-0.9,0-1.8,0-2.6,0c-1.1,0-2.1,0.8-2.4,1.9l-3.7,13.4
			c-0.3,0.9-1,1.6-1.9,1.8l0,0c-0.9,0.2-1.8-0.1-2.4-0.8l-8.9-10.4c-0.7-0.9-1.9-1.1-3-0.6c-1.6,0.8-3.1,1.6-4.6,2.6
			c-1,0.6-1.4,1.8-1.2,2.9l3.2,13.6c0.2,0.9-0.1,1.9-0.7,2.6l0,0c-0.7,0.7-1.6,0.9-2.5,0.6L86.5,354c-1.1-0.4-2.2,0-2.9,1
			c-1,1.5-1.9,3-2.8,4.6c-0.5,1-0.4,2.3,0.4,3.1l9.2,10.1c0.6,0.7,0.9,1.7,0.6,2.6c0,0,0,0,0,0.1c-0.3,0.9-1,1.6-1.9,1.8l-13,2.9
			c-1.1,0.2-1.9,1.2-2,2.3c-0.1,0.9-0.1,1.8-0.2,2.8c0,0.9,0,1.9,0,2.8c0,1.2,0.8,2.2,1.8,2.5l12.8,3.9c0.9,0.3,1.6,1,1.8,2l0,0
			c0.2,0.9-0.1,1.9-0.8,2.5l-9.9,9.3c-0.8,0.8-1.1,2-0.6,3.1c0.7,1.7,1.6,3.3,2.4,4.9c0.6,1,1.7,1.5,2.8,1.2l12.9-3.3
			c0.9-0.2,1.8,0.1,2.4,0.8l0,0c0.6,0.7,0.8,1.7,0.5,2.6l-4,13.2c-0.3,1.1,0,2.3,0.9,3c1.4,1,2.9,2,4.4,2.9c1,0.6,2.2,0.4,3-0.4
			l9.6-9.6c0.7-0.7,1.6-0.9,2.5-0.6l0,0c0.9,0.3,1.5,1,1.7,2l2.7,13.6c0.2,1.1,1.1,2,2.2,2.1c0.9,0.1,1.8,0.1,2.6,0.2
			c0.9,0,1.8,0,2.6,0c1.1,0,2.1-0.8,2.4-1.9l3.7-13.4c0.3-0.9,1-1.6,1.9-1.8l0,0c0.9-0.2,1.8,0.1,2.4,0.8l8.9,10.4
			c0.7,0.9,1.9,1.1,3,0.6c1.6-0.8,3.1-1.6,4.6-2.6c1-0.6,1.4-1.8,1.2-2.9l-3.2-13.6c-0.2-0.9,0.1-1.9,0.7-2.6l0,0
			c0.7-0.7,1.6-0.9,2.5-0.6l12.7,4.4c1.1,0.4,2.2,0,2.9-1c1-1.5,1.9-3,2.8-4.6c0.5-1,0.4-2.3-0.4-3.1l-9.2-10.1
			c-0.6-0.7-0.9-1.7-0.6-2.6l0,0c0.3-0.9,1-1.6,1.9-1.8l13-2.9c1.1-0.2,1.9-1.2,2-2.3c0.1-0.9,0.1-1.8,0.2-2.8c0-0.9,0-1.8,0-2.8
			C181.9,385.7,181.2,384.7,180.1,384.4z M148.8,388.3c-0.5,12.1-10.2,21.5-21.7,21s-20.5-10.6-20.1-22.7s10.2-21.5,21.7-21
			C140.3,366.1,149.2,376.2,148.8,388.3z"/>
		<path class="st0" d="M356.4,83.3l-7.8-6.4l0.8-6.1c0.2-1.7-0.7-3.4-2.2-4c-2.3-0.9-4.7-1.6-7.1-2.1c-1.6-0.3-3.2,0.6-3.9,2.2
			l-2.3,5.7l-9.8,1.2l-3.5-5c-1-1.4-2.8-1.9-4.3-1.2c-2.2,1-4.4,2.3-6.4,3.8c-1.4,1-1.9,2.8-1.3,4.4l2.2,5.7l-6.1,8.1l-5.8-0.9
			c-1.6-0.2-3.2,0.7-3.8,2.3c-0.9,2.4-1.5,4.9-2,7.4c-0.3,1.7,0.6,3.4,2.1,4.1l5.4,2.4l1.2,10.3l-4.7,3.7c-1.3,1-1.8,2.9-1.1,4.5
			c1,2.3,2.2,4.6,3.6,6.7c0.9,1.4,2.7,2,4.2,1.3l5.5-2.3l7.8,6.4l-0.8,6.1c-0.2,1.7,0.7,3.4,2.2,4c2.3,0.9,4.7,1.6,7.1,2.1
			c1.6,0.3,3.2-0.6,3.9-2.2l2.3-5.7l9.8-1.2l3.5,5c1,1.4,2.8,1.9,4.3,1.2c2.2-1,4.4-2.3,6.4-3.8c1.4-1,1.9-2.8,1.3-4.4l-2.2-5.7
			l6.1-8.1l5.8,0.9c1.6,0.2,3.2-0.7,3.8-2.3c0.9-2.4,1.5-4.9,2-7.4c0.3-1.7-0.6-3.4-2.1-4.1l-5.4-2.4l-1.2-10.3l4.7-3.7
			c1.3-1,1.8-2.9,1.1-4.5c-1-2.3-2.2-4.6-3.6-6.7c-0.9-1.4-2.7-2-4.2-1.3L356.4,83.3z M345.3,116.5c-5.4,7.2-15.3,8.4-22.1,2.8
			c-6.8-5.6-8-16-2.7-23.2c5.4-7.2,15.3-8.4,22.1-2.8C349.5,99,350.7,109.4,345.3,116.5z"/>
		<g>
			<g>
				<ellipse class="st2" cx="82.5" cy="181.3" rx="7.6" ry="8"/>
				<ellipse class="st3" cx="82.5" cy="181.3" rx="5" ry="5.2"/>
			</g>
			<path class="st0" d="M92.4,155c0-1.3-1-2.4-2.3-2.4s-2.3,1.1-2.3,2.4c0,1.3,1,2.4,2.3,2.4S92.4,156.3,92.4,155z"/>
		</g>
		<g>
			<path class="st1" d="M65.2,351.7c0-1-0.7-1.8-1.7-1.8c-0.9,0-1.7,0.8-1.7,1.8s0.7,1.8,1.7,1.8C64.4,353.5,65.2,352.7,65.2,351.7z
				"/>
			<ellipse class="st0" cx="61.8" cy="370.6" rx="2.3" ry="2.4"/>
		</g>
		<g>
			<path class="st1" d="M216.6,68.6c0-1-0.7-1.8-1.7-1.8s-1.7,0.8-1.7,1.8s0.7,1.8,1.7,1.8S216.6,69.6,216.6,68.6z"/>
			<path class="st0" d="M234.2,83.9c0-1.3-1-2.4-2.3-2.4s-2.3,1.1-2.3,2.4s1,2.4,2.3,2.4S234.2,85.2,234.2,83.9z"/>
		</g>
		<g>
			<g>
				<ellipse class="st2" cx="436.5" cy="382.1" rx="7.6" ry="8"/>
				<ellipse class="st3" cx="436.5" cy="382.1" rx="5" ry="5.2"/>
			</g>
			<path class="st0" d="M425.1,364.5c0-1.3-1-2.4-2.3-2.4s-2.3,1.1-2.3,2.4s1,2.4,2.3,2.4C424.1,366.8,425.1,365.8,425.1,364.5z"/>
		</g>
		<path class="st0" d="M147.2,449c0-1.3-1-2.4-2.3-2.4s-2.3,1.1-2.3,2.4s1,2.4,2.3,2.4S147.2,450.3,147.2,449z"/>
		<path class="st0" d="M381.5,74.2c0-1.3-1-2.4-2.3-2.4s-2.3,1.1-2.3,2.4s1,2.4,2.3,2.4S381.5,75.5,381.5,74.2z"/>
		<ellipse class="st4" cx="132.5" cy="318.6" rx="2.3" ry="2.4"/>
		<ellipse class="st4" cx="380.9" cy="294.6" rx="2.3" ry="2.4"/>
		<g>
			<g>
				<path class="st5" d="M175.2,358.4c-10.9,7.6-19.7,18.4-25.2,30.9c-2,4.5-3.5,10.1-1,14.3c1.5,2.6,4.2,4.2,7.1,4.9
					c2.8,0.7,5.8,0.6,9.9,1.3c-6.8,7.9-7.5,20.8-1.5,29.5c5.9,8.6,17.9,12,27.2,7.8c6.1-2.8,10.7-8.3,13.8-14.5s4.7-13,7.2-18
					c17.8,10,41.4,7.4,56.8-6.4c15.4-13.7,21.7-37.7,15.1-57.7c-3.2-9.9-9.7-19-19-22.9c-7.8-3.3-16.6-2.5-24.8-0.9
					C216.1,331.3,194.1,345.2,175.2,358.4z"/>
				<g>
					<path class="st6" d="M199.7,427.2c2.1-9.2,1.4-19.4-3.1-27.6c-4.3-7.8-11.5-13.2-17.2-19.8c-4.4-5.1-8.1-11.8-8.2-18.4
						c-4.3,3.4-8.2,7.4-11.6,11.8c1,1.5,2.4,2.7,3.8,3.7c3,2.1,6.6,3.3,9.6,5.4c6.8,4.8,10,14.1,9.2,22.7s-5.1,16.5-10.6,22.9
						c-2.7,3.1-5.7,5.9-8.9,8.4c0.5,1,1,2,1.7,2.9c1.4,2.1,3.2,3.8,5.2,5.3c1.5,0.8,3,1.7,4.5,2.5c5.4,2.2,11.5,2.5,16.9,0.2
						C195,441,198.1,434.4,199.7,427.2z"/>
					<path class="st6" d="M265.9,372.8c-8.4,1-16.8,3.3-25.2,2.2c-8.7-1.2-16.9-6.2-22.2-13.6c-5.1-7.2-7.3-16.5-6.1-25.4
						c-3.5,1.6-6.9,3.4-10.2,5.2c-1.1,7-1.2,14.1,0.2,21c1.7,8.2,5.9,16,12.5,20.8c9.8,7.2,23.4,7,33,14.5
						c5.5,4.3,9.1,10.9,11.3,17.3c3.6-1.8,7.1-4.2,10.2-6.9c9.2-8.2,15.1-20,17-32.4C280.4,372.2,272.8,371.9,265.9,372.8z"/>
					<path class="st6" d="M248.6,345c5.5,4.4,13.3,5.2,19.6,2.4c4.2-1.9,7.8-5.2,10.3-9.2c-3.4-4.8-7.7-8.7-13-10.9
						c-7.5-3.2-15.9-2.6-23.9-1.1C240.6,332.9,243.3,340.7,248.6,345z"/>
				</g>
			</g>
			<g>
				<g>
					<defs>
						<path id="SVGID_1_" d="M175.2,358.4c-10.9,7.6-19.7,18.4-25.2,30.9c-2,4.5-3.5,10.1-1,14.3c1.5,2.6,4.2,4.2,7.1,4.9
							c2.8,0.7,5.8,0.6,9.9,1.3c-6.8,7.9-7.5,20.8-1.5,29.5c5.9,8.6,17.9,12,27.2,7.8c6.1-2.8,10.7-8.3,13.8-14.5s4.7-13,7.2-18
							c17.8,10,41.4,7.4,56.8-6.4c15.4-13.7,21.7-37.7,15.1-57.7c-3.2-9.9-9.7-19-19-22.9c-7.8-3.3-16.6-2.5-24.8-0.9
							C216.1,331.3,194.1,345.2,175.2,358.4z"/>
					</defs>
					<clipPath id="SVGID_2_">
						<use xlink:href="#SVGID_1_"  style="overflow:visible;"/>
					</clipPath>
					<path class="st7" d="M154.7,375.2c1.3,5.8,7.4,8.8,12.9,10.2c5.5,1.4,11.7,2.3,15.6,6.7c3.4,3.9,4.2,9.6,4.1,14.9
						c-0.2,5.3-1.1,10.6-0.4,15.9c1.5,10.9,10.9,19.9,21.3,20.7"/>
				</g>
				<g>
					<defs>
						<path id="SVGID_3_" d="M175.2,358.4c-10.9,7.6-19.7,18.4-25.2,30.9c-2,4.5-3.5,10.1-1,14.3c1.5,2.6,4.2,4.2,7.1,4.9
							c2.8,0.7,5.8,0.6,9.9,1.3c-6.8,7.9-7.5,20.8-1.5,29.5c5.9,8.6,17.9,12,27.2,7.8c6.1-2.8,10.7-8.3,13.8-14.5s4.7-13,7.2-18
							c17.8,10,41.4,7.4,56.8-6.4c15.4-13.7,21.7-37.7,15.1-57.7c-3.2-9.9-9.7-19-19-22.9c-7.8-3.3-16.6-2.5-24.8-0.9
							C216.1,331.3,194.1,345.2,175.2,358.4z"/>
					</defs>
					<clipPath id="SVGID_4_">
						<use xlink:href="#SVGID_3_"  style="overflow:visible;"/>
					</clipPath>
					<path class="st8" d="M233.6,424.9c8.4-15.2,11.8-34.6,9.1-52.7s-11.4-34.8-23.6-45.4"/>
				</g>
			</g>
		</g>
		<g>
			<g>
				<path class="st5" d="M191.7,148.3c0.8-4,1.7-8,3.3-11.7s4-7.2,7.3-9.3c3.9-2.5,8.8-2.9,13.2-1.7c4.4,1.1,8.4,3.7,12.4,6.4
					c0-6,0.1-12,1.6-17.7s4.8-11.2,9.8-14c8.2-4.5,18.7-0.6,25,6.5s9.2,16.7,11.2,25.4c8.1-8.1,16.4-16.5,26.8-20.9s23.4-4.1,31.5,4
					c6,5.9,8.4,15,7.8,23.6s-3.9,16.7-7.9,24.2c-10.6,19.7-26.7,36.3-46.5,45.2s-43.2,9.5-62.7-0.2
					C205,198.3,185.6,177.4,191.7,148.3z"/>
				<g>
					<path class="st6" d="M244.2,214.2c8.3,1.3,16.8,1.1,25.1-0.4c1.9-10.2,3.6-20.6,2.7-30.9c-1.1-11.7-6-23.7-15.4-30.1
						c-8.1-5.6-18.3-6.5-27.9-8.2c-4.6-0.8-9.9-2.6-11.1-7.3c-0.5-1.9-0.1-4,0.4-5.9c0.4-1.5,0.8-3.1,0.9-4.7
						c-1.1-0.4-2.1-0.8-3.2-1.1c-1.5-0.4-3.1-0.6-4.7-0.6c1.3,5.5-1.6,12,0.3,17.5c1.8,5,7,7.6,11.9,8.6c5,1,10.2,0.9,14.9,2.6
						c7.5,2.7,13,10,15.2,18s1.3,16.6-1.1,24.6C250.2,202.5,247.3,208.4,244.2,214.2z"/>
					<path class="st6" d="M340.4,146.1c-3.9-12.5-14.8-22.5-27.3-24.2c-3.9-0.5-7.8-0.4-11.5-1.8c-2.5-1-4.8-2.9-5.9-5.4
						c-2.9,1.8-5.6,3.8-8.2,6c0.1,1.6,0.9,3.2,2,4.3c1.8,1.7,4.4,2.4,6.8,2.7c2.5,0.3,5,0.4,7.3,1.2c5.3,1.8,9.1,7.7,8.7,13.6
						c-0.4,5.4-3.7,9.9-5.9,14.8c-5.1,11.4-3.5,25.6,3.5,35.8c9.5-8.4,17.5-18.8,23.6-30.2C336.5,157.7,339,152,340.4,146.1z"/>
					<path class="st6" d="M248,121.3c7.6,0.9,15.6-2.3,20.7-8.3c-1.3-2.2-2.7-4.4-4.4-6.3c-6.3-7.1-16.8-11.1-25-6.5
						c-3.8,2.1-6.6,5.7-8.4,9.9C234.6,116.1,241,120.5,248,121.3z"/>
					<path class="st6" d="M278.5,165.6c1.8,1.3,4.4,1.1,6.3-0.2s3.1-3.5,3.7-5.7c0.6-2.3,0.7-4.6,0.8-7c0.1-4-0.3-6.4-1.8-7.8
						c-1.5-1.4-3.8-1.8-5.7-1c-2.4,1-3.8,3.6-4.6,6.1c-0.9,2.8-1.3,5.7-1.3,8.6C275.8,161.3,276.4,164.1,278.5,165.6z"/>
				</g>
			</g>
			<g>
				<g>
					<defs>
						<path id="SVGID_5_" d="M191.7,148.3c0.8-4,1.7-8,3.3-11.7s4-7.2,7.3-9.3c3.9-2.5,8.8-2.9,13.2-1.7c4.4,1.1,8.4,3.7,12.4,6.4
							c0-6,0.1-12,1.6-17.7s4.8-11.2,9.8-14c8.2-4.5,18.7-0.6,25,6.5s9.2,16.7,11.2,25.4c8.1-8.1,16.4-16.5,26.8-20.9
							s23.4-4.1,31.5,4c6,5.9,8.4,15,7.8,23.6s-3.9,16.7-7.9,24.2c-10.6,19.7-26.7,36.3-46.5,45.2s-43.2,9.5-62.7-0.2
							C205,198.3,185.6,177.4,191.7,148.3z"/>
					</defs>
					<clipPath id="SVGID_6_">
						<use xlink:href="#SVGID_5_"  style="overflow:visible;"/>
					</clipPath>
					<path class="st9" d="M280.4,121c1.5,6.9,8.5,11,15.1,12.4c17.1,3.6,35.9-6.2,43.6-22.6"/>
				</g>
				<g>
					<defs>
						<path id="SVGID_7_" d="M191.7,148.3c0.8-4,1.7-8,3.3-11.7s4-7.2,7.3-9.3c3.9-2.5,8.8-2.9,13.2-1.7c4.4,1.1,8.4,3.7,12.4,6.4
							c0-6,0.1-12,1.6-17.7s4.8-11.2,9.8-14c8.2-4.5,18.7-0.6,25,6.5s9.2,16.7,11.2,25.4c8.1-8.1,16.4-16.5,26.8-20.9
							s23.4-4.1,31.5,4c6,5.9,8.4,15,7.8,23.6s-3.9,16.7-7.9,24.2c-10.6,19.7-26.7,36.3-46.5,45.2s-43.2,9.5-62.7-0.2
							C205,198.3,185.6,177.4,191.7,148.3z"/>
					</defs>
					<clipPath id="SVGID_8_">
						<use xlink:href="#SVGID_7_"  style="overflow:visible;"/>
					</clipPath>
					<path class="st10" d="M223.1,120.3c7.6,2.2,14.4,7.8,17.7,15.4c3.3,7.5,2.8,16.9-1.6,23.7c-3.7,5.6-9.5,9.3-15.5,12.1
						c-5.9,2.8-12.2,5-17.7,8.7s-10.3,9.2-11.2,16"/>
				</g>
			</g>
		</g>
		<g>
			<path class="st2" d="M174.2,107.8V84.7c0-1.2,0.9-2.1,2-2.1H197c1.1,0,2,0.9,2,2.1v23.1c0,1.2-0.9,2.1-2,2.1h-20.9
				C175,109.9,174.2,109,174.2,107.8z"/>
			<path class="st2" d="M174.2,76.1L174.2,76.1c0-1.2,0.9-2.1,2-2.1H197c1.1,0,2,0.9,2,2.1s-0.9,2.1-2,2.1h-20.9
				C175,78.2,174.2,77.3,174.2,76.1z"/>
			<path class="st2" d="M174.2,67.5L174.2,67.5c0-1.2,0.9-2.1,2-2.1H197c1.1,0,2,0.9,2,2.1s-0.9,2.1-2,2.1h-20.9
				C175,69.6,174.2,68.7,174.2,67.5z"/>
		</g>
		<g>
			<path class="st2" d="M115.6,310.6h-22c-1.1,0-2-0.9-2-2.1v-21.9c0-1.2,0.9-2.1,2-2.1h22c1.1,0,2,0.9,2,2.1v21.9
				C117.6,309.7,116.7,310.6,115.6,310.6z"/>
			<path class="st2" d="M85.4,310.6L85.4,310.6c-1.1,0-2-0.9-2-2.1v-21.9c0-1.2,0.9-2.1,2-2.1s2,0.9,2,2.1v21.9
				C87.4,309.7,86.5,310.6,85.4,310.6z"/>
		</g>
		<g>
			<path class="st2" d="M450.5,197.9h-22c-1.1,0-2-0.9-2-2.1v-21.9c0-1.2,0.9-2.1,2-2.1h22c1.1,0,2,0.9,2,2.1v21.9
				C452.5,196.9,451.6,197.9,450.5,197.9z"/>
			<path class="st2" d="M420.3,197.9L420.3,197.9c-1.1,0-2-0.9-2-2.1v-21.9c0-1.2,0.9-2.1,2-2.1s2,0.9,2,2.1v21.9
				C422.3,196.9,421.4,197.9,420.3,197.9z"/>
		</g>
		<g>
			<path class="st2" d="M390.3,333.3L390.3,333.3c0-1.6,1.3-3,2.8-3h52.5c1.6,0,2.8,1.3,2.8,3s-1.3,3-2.8,3h-52.5
				C391.6,336.3,390.3,335,390.3,333.3z"/>
			<path class="st2" d="M390.3,345.6L390.3,345.6c0-1.6,1.3-3,2.8-3h30c1.6,0,2.8,1.3,2.8,3c0,1.6-1.3,3-2.8,3h-30
				C391.6,348.5,390.3,347.2,390.3,345.6z"/>
			<path class="st2" d="M390.3,321.1L390.3,321.1c0-1.6,1.3-3,2.8-3h52.5c1.6,0,2.8,1.3,2.8,3c0,1.6-1.3,3-2.8,3h-52.5
				C391.6,324.1,390.3,322.7,390.3,321.1z"/>
		</g>
		<g>
			<rect x="110.2" y="97.2" class="st1" width="295.6" height="317.9"/>
			<rect x="399.2" y="249.9" class="st1" width="13.2" height="13.8"/>
			<rect x="103.7" y="249.3" class="st1" width="13.2" height="13.8"/>
			<rect x="104.6" y="90.3" class="st1" width="13.2" height="13.8"/>
			<rect x="251.4" y="90.3" class="st1" width="13.2" height="13.8"/>
			<rect x="399.2" y="90.3" class="st1" width="13.2" height="13.8"/>
			<rect x="104.6" y="408.3" class="st1" width="13.2" height="13.8"/>
			<rect x="251.4" y="408.3" class="st1" width="13.2" height="13.8"/>
			<rect x="399.2" y="408.3" class="st1" width="13.2" height="13.8"/>
		</g>
		<g>
			<g>
				<path class="st11" d="M376.1,328.1c-17.7-19.2-35.5-37.2-52.6-55.9c-0.8-0.9-0.9-2.3-0.1-3.3c15.8-19.3,32.3-38.7,48-58.9
					c1.8-2.3,1.9-5.6,0.3-8c-14.1-21.3-31.2-39.3-50.2-54.4c-3.3-2.7-8-2.5-11.2,0.4c-17.4,15.9-34,33.2-49.7,51.3
					c-1,1.2-2.7,1.3-3.8,0.3c-11.4-9.9-21-19.5-30.5-29.1c-2.3-2.3-5.3-4.8-8.3-4.8c-5.3-5.3-10.6-10.6-15.9-15.9
					c-2.8-2.8-7.3-2.9-10.1,0c-17.1,17.1-36,35.7-52.2,52.7c-2.8,3-2.9,7.8,0,10.8c11.4,12.1,40.1,40.9,56.6,57.3
					c-17.6,20.8-35.4,40.1-53.3,59.2c-2.7,2.9-2.8,7.4-0.3,10.4c14.7,17.8,30.8,34.5,48.3,49.4c2.8,2.3,6.7,2.3,9.4-0.1
					c13-11.7,25.8-23.7,38.5-36c0.7,0,1.4,0,2.1-0.3c1.4-0.4,2.7-1.2,3.8-2.2c5.8-5.4,7-6.3,8.4-7.3c3.4-2.5,8.2-2,11,1.2
					c14.3,16,29.1,31.4,44.5,46.2c4.4,4.2,11.1,4.4,15.6,0.4c18.6-16.2,35.9-34,51.8-53.2C378.8,335.4,378.7,330.9,376.1,328.1z"/>
				<g>
					<g>
						<path class="st12" d="M257.9,327.2c-18.2,19.5-36.8,38.6-55.9,56.8c-2.6,2.5-6.6,2.7-9.4,0.4c-17.9-14.3-34.5-30.4-49.8-47.7
							c-2.6-2.9-2.6-7.5,0-10.4c17.3-19.8,34.6-39.7,51.5-61c-17-15.9-46.6-43.6-58.3-55.4c-2.9-2.9-3.1-7.7-0.3-10.8
							c15.6-17.6,33.9-36.8,50.5-54.5c2.8-2.9,7.2-3.1,10.1-0.3c18.6,17.5,37.3,35,57.7,53.1c16.2-19.9,33.4-38.9,51.9-56.1
							c2.6-2.5,6.6-2.6,9.4-0.4c17.4,13.9,33.8,29.5,49.7,47.4c2.5,2.8,2.6,7,0.4,10c-15.3,20.8-32,40.8-50.5,61.7
							c19.1,17.9,38.2,35.7,57.7,54.6c3,2.9,3.2,7.8,0.4,10.9l-49.4,54.7c-2.8,3.1-7.4,3.2-10.3,0.4L257.9,327.2z"/>
						<path class="st13" d="M135.7,199.1c-2.7,3.1-2.6,7.9,0.3,10.8c11.8,11.7,41.3,39.5,58.3,55.4l12.5-12.3
							c-20.4-21.6-40.9-43.2-61.4-64.7C142.1,191.9,138.8,195.5,135.7,199.1z"/>
						<path class="st13" d="M269.7,313l-11.8,14.2l55.3,53.5c3,2.9,7.6,2.7,10.3-0.4l9.5-10.5L269.7,313z"/>
						<path class="st13" d="M202,384c2.4-2.3,4.7-4.6,7.1-6.9c-19.4-20-38.8-40-58.3-60c-2.7,3.1-5.3,6.1-8,9.2
							c-2.6,3-2.6,7.5,0,10.4c15.2,17.3,31.8,33.4,49.8,47.7C195.4,386.7,199.4,386.5,202,384z"/>
					</g>
					<g>
						<path class="st14" d="M376.1,326.8c-15.3,19.7-32.1,38.1-50.1,54.9c-4.4,4.1-11.1,4.2-15.6,0.1
							c-15.8-14.2-31.2-29.1-45.9-44.6c-3-3.1-7.7-3.5-11.1-0.8c-1.4,1.1-2.5,2-8.1,7.6c-1.1,1.1-2.3,1.9-3.7,2.4
							c-5.6,1.7-8.4-3.7-9.4-8.4c-2.4-12.2,2.1-25.7,11.2-33.7c7.5-6.6,17.5-9.5,25.1-16.1c2.2-1.9,4.4-4.5,3.3-8
							c-0.5-1.6-1.7-3-3.1-3.8c-3.4-2.1-7.3-1.9-11.1-2.6c-7.4-1.3-14.1-6.4-17.7-13.4c-3.4-6.8-4.5-15.5-1.7-21.6
							c2.6-5.7,2.3-12.5-1.4-17.5c-4-5.5-10-8.8-15-13.2c-11.4-10.1-17.5-26.5-15.3-42c0.3-1.9,1.1-3.8,2.6-5c4-3.5,8.6-0.1,12,3.1
							c9.8,9.3,19.6,18.5,31.4,28.1c1.2,1,2.9,0.8,3.8-0.4c15.1-18.6,31.1-36.5,48-53c3.1-3,7.7-3.3,11.1-0.8
							c19.5,14.5,37,31.8,51.8,52.7c1.7,2.4,1.7,5.7,0,8c-15,20.7-31,40.7-46.2,60.5c-0.8,1-0.7,2.4,0.2,3.3
							c17.7,18.1,36,35.5,54.3,54C378.3,319.3,378.5,323.7,376.1,326.8z"/>
						<path class="st15" d="M239.8,233.4c0.5-4.3-0.4-8.6-3-12.1c-4-5.5-10-8.8-15-13.2c-11.4-10.1-17.5-26.5-15.3-42
							c0.2-1.5,0.8-2.9,1.7-4.1"/>
						<path class="st15" d="M247.2,301.3c6.9-4.7,14.9-7.6,21.3-13.1c2.2-1.9,4.4-4.5,3.3-8c-0.5-1.6-1.7-3-3.1-3.8
							c-3.4-2.1-7.3-1.9-11.1-2.6c-7.4-1.3-14.1-6.4-17.7-13.4c-3.4-6.8-4.5-15.5-1.7-21.6"/>
						<path class="st15" d="M275,348.1c-3.5-3.6-7.1-7.2-10.6-10.9c-3-3.1-7.7-3.5-11.1-0.8c-1.4,1.1-2.5,2-8.1,7.6
							c-1.1,1.1-2.3,1.9-3.7,2.4c-5.6,1.7-8.4-3.7-9.4-8.4c-2.3-11.9,1.9-25,10.5-33.1"/>
						<path class="st15" d="M284.7,357.8c-2.1-2-4.2-4.1-6.3-6.2"/>
						<path class="st15" d="M281.9,162c7.3-8,14.8-15.7,22.4-23.2c3.1-3,7.7-3.3,11.1-0.8c6.4,4.7,12.5,9.8,18.5,15.1"/>
						<path class="st15" d="M210.5,160.2c3.7-1.8,7.6,1.2,10.6,4c9.8,9.3,19.6,18.5,31.4,28.1c1.2,1,2.9,0.8,3.8-0.4
							c7.3-9,14.7-17.7,22.4-26.2"/>
					</g>
				</g>
			</g>
			<g>
				<path class="st11" d="M214.2,238.4c-1.7-1.7-3.5-3.5-4.7-5.6c-1.2-2.2-1.8-4.9-0.9-7.2c1.2-3.3,4.8-5,8.1-4.8
					c3.3,0.3,6.3,2.2,8.9,4.4c1.6,1.4,3.1,3,4,4.9s1.3,4.3,0.5,6.3c-1.1,2.9-4.3,4.4-7.3,4.4C219.8,240.8,216.4,240.6,214.2,238.4z"
					/>
				<path class="st14" d="M214.8,237.2c-1.9-1.5-3.8-3.1-5.2-5.1s-2.2-4.6-1.6-7.1c0.8-3.4,4.3-5.5,7.6-5.6s6.5,1.5,9.3,3.5
					c1.7,1.2,3.4,2.6,4.5,4.4c1.1,1.8,1.7,4.1,1.1,6.2c-0.8,3-3.9,4.8-6.8,5.1C220.6,239,217.2,239.1,214.8,237.2z"/>
				<path class="st3" d="M210.6,225.5c-2,3.7,3.5,7,5.7,3.7C218.5,225.8,213.3,220.5,210.6,225.5z"/>
			</g>
			<g>
				<path class="st11" d="M235.1,292.8c-1.2,0.7-2.4,1.4-3.8,1.7c-1.3,0.3-2.8,0.1-3.9-0.8c-1.5-1.2-1.8-3.6-1-5.5
					c0.7-1.8,2.3-3.2,3.9-4.3c1-0.7,2.1-1.2,3.3-1.4c1.2-0.2,2.5,0,3.4,0.8c1.3,1.2,1.5,3.2,1,4.9
					C237.3,290,236.6,291.9,235.1,292.8z"/>
				<path class="st14" d="M232.8,291.1c-1.3,0.4-2.6,0.9-4,0.9s-2.8-0.4-3.7-1.5c-1.2-1.5-1.1-3.9,0-5.6c1-1.7,2.8-2.7,4.6-3.5
					c1.1-0.5,2.3-0.8,3.5-0.8s2.4,0.5,3.2,1.5c1.1,1.4,0.9,3.5,0.1,5C235.5,288.8,234.5,290.5,232.8,291.1z"/>
				<path class="st3" d="M230.4,282.3c-2.6,1.7,0.6,4.9,3.2,3.4C236.2,284.3,233.9,280,230.4,282.3z"/>
			</g>
			<g>
				<path class="st11" d="M201.7,199.9c-1.5-0.6-3.5,0.2-4.1,1.8s0.2,3.6,1.7,4.3s3.5-0.1,4.1-1.7
					C204.1,202.8,203.4,200.6,201.7,199.9z"/>
				<path class="st14" d="M201.3,198.9c-1.5-0.6-3.5,0.2-4.1,1.8s0.2,3.6,1.7,4.3s3.5-0.1,4.1-1.7
					C203.7,201.8,203,199.6,201.3,198.9z"/>
				<path class="st3" d="M198.3,200.4c-0.7,1.3,1.3,2.5,2,1.3C201.1,200.6,199.3,198.7,198.3,200.4z"/>
			</g>
			<g>
				<path class="st11" d="M222.3,320.4c-1.5-0.6-3.5,0.2-4.1,1.8c-0.6,1.6,0.2,3.6,1.7,4.3c1.5,0.7,3.5-0.1,4.1-1.7
					C224.6,323.2,223.9,321.1,222.3,320.4z"/>
				<path class="st14" d="M221.8,318.8c-1.5-0.6-3.5,0.2-4.1,1.8c-0.6,1.6,0.2,3.6,1.7,4.3c1.5,0.7,3.5-0.1,4.1-1.7
					C224.1,321.7,223.4,319.5,221.8,318.8z"/>
				<path class="st3" d="M219.3,320.3c-0.7,1.3,1.3,2.5,2,1.3C222.1,320.4,220.3,318.5,219.3,320.3z"/>
			</g>
		</g>
		<g>
			<g>
				<ellipse class="st1" cx="298" cy="213.3" rx="1.9" ry="2"/>
				<path class="st1" d="M299,215.1c27.7,53,81.9,86.3,92.5,29.1"/>
			</g>
			<g>
				<path class="st11" d="M426.1,249.9c-22.9-0.4-45.8-1.9-68.6-4.4c-5-0.5-8.8-4.8-9.1-10c-2.1-37.7-1.1-75.7,3.4-113.4
					c0.6-5.2,4.8-9.2,9.9-9.3c23.9-0.5,47.8,0.5,71.9,4.1c5.2,0.8,9,5.6,8.7,11.1c-1.9,36.8-3.9,73.7-5.8,111.8
					C436.2,245.5,431.6,250,426.1,249.9z"/>
				<path class="st3" d="M425.4,245.1c-22.9,0.8-45.8,0.6-68.7-0.6c-5-0.3-9.1-4.3-9.6-9.5c-4-37.6-5-75.6-2.3-113.4
					c0.4-5.3,4.4-9.5,9.4-9.9c23.8-1.8,47.8-2.1,72,0.1c5.2,0.5,9.2,5.1,9.2,10.6c-0.1,36.9-0.2,73.9-0.2,112
					C435.2,240.2,430.9,244.9,425.4,245.1z"/>
				<path class="st12" d="M435.2,232c-1.7,3.2-4.9,5.8-8.3,7.1c-4.7,1.8-9.9,1.9-14.9,1.8c-14.5,0-28.9-0.1-43.3-0.1
					c-7,0-14.3-0.1-20.9-2.8c1.5,3.7,4.9,6.4,8.9,6.6c22.9,1.2,45.8,1.4,68.7,0.6c5.5-0.2,9.8-4.9,9.8-10.6
					C435.2,233.6,435.2,232.8,435.2,232z"/>
				<path class="st1" d="M420.3,240.6c-2.7,0.3-5.5,0.3-8.3,0.3c-14.5,0-28.9-0.1-43.3-0.1c-5.8,0-11.8-0.1-17.4-1.7"/>
				<path class="st1" d="M432.7,235.3c-1.6,1.6-3.6,2.9-5.8,3.7"/>
			</g>
			<g>
				<path class="st14" d="M383.6,202.5c0.7,5.9,0.9,11.8,0.4,17.7c-0.2,2.5-2.1,4.6-4.5,4.9c-4.9,0.7-9.8,0.8-14.7,0.5
					c-2.5-0.2-4.5-2.3-4.8-4.9c-0.5-6.2-0.4-12.5,0.2-18.5c0.3-2.5,2.2-4.5,4.7-4.8c4.5-0.4,9.1-0.4,14.1,0.4
					C381.5,198.2,383.3,200.1,383.6,202.5z"/>
				<g>
					<path class="st3" d="M383.8,229c-1.9,0.1-3.8,0.1-5.7-0.1c-1-0.1-1.7-0.9-1.9-1.9c-0.2-1.7-0.3-3.3-0.2-5
						c0.1-1.1,0.9-1.9,1.9-2c1.8-0.1,3.7-0.2,5.6-0.1c1,0.1,1.8,0.8,2,1.9c0.2,1.7,0.3,3.4,0.1,5.1C385.6,228.1,384.8,229,383.8,229
						z"/>
					<path class="st1" d="M383.8,229c-1.9,0.1-3.8,0.1-5.7-0.1c-1-0.1-1.7-0.9-1.9-1.9c-0.2-1.7-0.3-3.3-0.2-5
						c0.1-1.1,0.9-1.9,1.9-2c1.8-0.1,3.7-0.2,5.6-0.1c1,0.1,1.8,0.8,2,1.9c0.2,1.7,0.3,3.4,0.1,5.1C385.6,228.1,384.8,229,383.8,229
						z"/>
				</g>
			</g>
			<g>
				<path class="st16" d="M404.8,214.5c0,0-0.7-2.5,0.6-3.9c1.7-1.9,4.1-1,4.1-1s-1.1-3.1-4.6-2.6
					C401.3,207.4,401.6,213.1,404.8,214.5z"/>
				<path class="st16" d="M393.3,215.4c0,0,3.6,14.4,16,11.9c12.6-2.5,13.6-15.9,8.7-23.2c0,0-0.5,9.4-10.5,13
					C397.6,220.8,393.3,215.4,393.3,215.4z"/>
				<g>
					<path class="st14" d="M410.8,198c-5.4-1.9-11.8,0.2-15.2,4.9c-3.4,4.7-3.6,11.7-0.5,16.6c3.1,4.9,9.4,7.4,14.9,5.9
						s9.7-6.9,10.1-12.9C420.5,206.6,417.1,200.2,410.8,198z M408.6,213.6c-1,1.2-3,1.2-4.1,0.2c-1.1-1.1-1.3-3.1-0.3-4.3
						s2.9-1.4,4.1-0.5C409.8,210.2,409.6,212.4,408.6,213.6z"/>
					<path class="st17" d="M409.2,225.6l-2.2-11.1c-0.9,0.2-1.9,0-2.6-0.7c-0.1-0.1-0.2-0.2-0.2-0.3l-8,7.6
						C399.5,224.7,404.6,226.5,409.2,225.6z"/>
					<path class="st18" d="M395.1,219.5c0.4,0.6,0.8,1.1,1.2,1.6l8-7.6c-0.4-0.5-0.7-1.1-0.7-1.8c-3.2,0.3-8.2,0.9-10.6,1.1
						C393.1,215.2,393.8,217.5,395.1,219.5z"/>
					<path class="st19" d="M410.8,198c-4.3-1.5-9.3-0.5-12.8,2.4l6.7,8.6c0.8-0.7,2-0.8,3-0.4l4.1-10.2
						C411.4,198.2,411.1,198.1,410.8,198z"/>
					<path class="st5" d="M411.7,198.4l-4.1,10.2c0.2,0.1,0.5,0.2,0.7,0.4c0.3,0.2,0.5,0.5,0.7,0.8l9.1-5.7
						C416.7,201.7,414.5,199.6,411.7,198.4z"/>
					<path class="st12" d="M417,220.5c1.8-2.3,2.9-5.1,3.1-8s-0.5-5.8-2-8.4l-9.1,5.7c0.7,1.1,0.5,2.6-0.2,3.5L417,220.5z"/>
					<path class="st20" d="M417,220.5l-8.2-7.1c0,0.1-0.1,0.1-0.1,0.2c-0.4,0.5-1,0.7-1.5,0.9l2.2,11.1c0.2-0.1,0.5-0.1,0.7-0.2
						C412.7,224.6,415.2,222.8,417,220.5z"/>
				</g>
				<path class="st1" d="M396.6,201.6c-0.4,0.4-0.7,0.8-1,1.2c-2.3,3.2-3.2,7.4-2.5,11.3 M406.7,197.3c-2.3,0-4.7,0.6-6.8,1.7"/>
			</g>
			<path class="st21" d="M365.8,173.7h-5c-1.5,0-2.8,1.2-2.8,2.8v5.5c0,1.5,1.2,2.8,2.8,2.8h5c1.5,0,2.8-1.2,2.8-2.8v-5.5
				C368.6,175,367.4,173.7,365.8,173.7z"/>
			<path class="st22" d="M383.9,173.7h-5c-1.5,0-2.8,1.2-2.8,2.8v5.5c0,1.5,1.2,2.8,2.8,2.8h5c1.5,0,2.8-1.2,2.8-2.8v-5.5
				C386.7,175,385.4,173.7,383.9,173.7z"/>
			<path class="st17" d="M365.8,152.2h-5c-1.5,0-2.8,1.2-2.8,2.8v5.5c0,1.5,1.2,2.8,2.8,2.8h5c1.5,0,2.8-1.2,2.8-2.8V155
				C368.6,153.4,367.4,152.2,365.8,152.2z"/>
			<path class="st14" d="M383.9,152.2h-5c-1.5,0-2.8,1.2-2.8,2.8v5.5c0,1.5,1.2,2.8,2.8,2.8h5c1.5,0,2.8-1.2,2.8-2.8V155
				C386.7,153.4,385.4,152.2,383.9,152.2z"/>
			<path class="st18" d="M402,152.2h-5c-1.5,0-2.8,1.2-2.8,2.8v5.5c0,1.5,1.2,2.8,2.8,2.8h5c1.5,0,2.8-1.2,2.8-2.8V155
				C404.7,153.4,403.5,152.2,402,152.2z"/>
			<path class="st6" d="M420,152.2h-5c-1.5,0-2.8,1.2-2.8,2.8v5.5c0,1.5,1.2,2.8,2.8,2.8h5c1.5,0,2.8-1.2,2.8-2.8V155
				C422.8,153.4,421.6,152.2,420,152.2z"/>
			<path class="st19" d="M365.8,130.7h-5c-1.5,0-2.8,1.2-2.8,2.8v5.5c0,1.5,1.2,2.8,2.8,2.8h5c1.5,0,2.8-1.2,2.8-2.8v-5.5
				C368.6,131.9,367.4,130.7,365.8,130.7z"/>
			<path class="st5" d="M383.9,130.7h-5c-1.5,0-2.8,1.2-2.8,2.8v5.5c0,1.5,1.2,2.8,2.8,2.8h5c1.5,0,2.8-1.2,2.8-2.8v-5.5
				C386.7,131.9,385.4,130.7,383.9,130.7z"/>
			<path class="st12" d="M402,130.7h-5c-1.5,0-2.8,1.2-2.8,2.8v5.5c0,1.5,1.2,2.8,2.8,2.8h5c1.5,0,2.8-1.2,2.8-2.8v-5.5
				C404.7,131.9,403.5,130.7,402,130.7z"/>
			<path class="st20" d="M420,130.7h-5c-1.5,0-2.8,1.2-2.8,2.8v5.5c0,1.5,1.2,2.8,2.8,2.8h5c1.5,0,2.8-1.2,2.8-2.8v-5.5
				C422.8,131.9,421.6,130.7,420,130.7z"/>
		</g>
		<g>
			<g>
				<path class="st1" d="M190.4,178.6c0-1.1-0.8-2-1.8-2s-1.9,0.8-2,1.9c0,1.1,0.8,2,1.8,2C189.5,180.6,190.4,179.7,190.4,178.6z"/>
				<path class="st1" d="M127.9,116.4c0.3,28.4,4.4,52.1,20.5,60.1c16,8,25.8-10.9,38.9,0.5"/>
			</g>
			<g>
				<g>
					<path class="st11" d="M161.3,68c1.6,17.2,2.3,34.4,2,51.7c-0.1,3.1-2.4,5.7-5.3,6c-15.8,1.5-31.7,2.5-47.6,2.6
						c-2.9,0-5.3-2.1-5.8-5.1c-3.1-17.7-4-35-3-53.6c0.2-3.1,2.5-5.6,5.4-5.8c16-1.5,32.2-2.1,48.7-1.3
						C158.6,62.6,161,64.9,161.3,68z"/>
					<path class="st3" d="M159.2,65.8c0.8,17.2,0.7,34.5-0.5,51.7c-0.2,3.1-2.6,5.6-5.6,5.7c-15.8,0.7-31.7,0.8-47.6,0.1
						c-2.9-0.1-5.2-2.4-5.6-5.4c-2.3-17.8-2.3-35.2-0.4-53.7c0.3-3.1,2.7-5.4,5.7-5.5c16.1-0.6,32.2-0.4,48.7,1.3
						C156.7,60.3,159,62.7,159.2,65.8z"/>
					<path class="st12" d="M153.1,123.2c3-0.1,5.4-2.6,5.6-5.7c0.1-0.9,0.1-1.8,0.2-2.7c-0.8,1-1.8,1.8-2.9,2.4
						c-1.9,1-4.1,1.4-6.2,1.7c-14.5,2.2-29.3,1.3-43.9,0.2c-2.1-0.2-4.4-0.4-5.9-1.3c0,0.1,0,0.1,0,0.2c0.4,3,2.7,5.3,5.6,5.4
						C121.3,124,137.2,123.9,153.1,123.2z"/>
					<path class="st1" d="M136,120.1c-10,0.4-20.2-0.3-30.2-1c-0.7,0-1.3-0.1-2-0.2"/>
					<path class="st1" d="M155.9,117.2c-1.9,1-4.1,1.4-6.2,1.7c-2.7,0.4-5.4,0.7-8.1,0.9"/>
				</g>
				<g>
					<g>
						<path class="st22" d="M150.7,66.1c0.9,15.1,0.7,30.2-0.4,45.3c-13.9,0.8-27.9,0.8-41.8,0.1C106,96,106.1,81.1,108,65
							C122.1,64.2,136.2,64.4,150.7,66.1z"/>
						<g>
							<path class="st23" d="M114.9,102.7c-0.1,3-0.2,6-0.3,9.1c-2.1-0.1-4.2-0.2-6.2-0.3c-0.4-2.9-0.8-5.9-1.1-8.8
								C109.8,102.7,112.4,102.7,114.9,102.7z"/>
							<path class="st23" d="M124.1,92.7c-0.2,3.3-0.3,6.6-0.5,9.9c-2.9,0-5.8,0-8.7,0.1c0.1-3.3,0.2-6.5,0.3-9.8
								C118.2,92.8,121.1,92.8,124.1,92.7z"/>
							<path class="st23" d="M133,111.9c-3.3,0-6.6,0-9.8,0c0.2-3.1,0.3-6.2,0.5-9.3c3.1,0,6.2-0.1,9.3-0.2
								C132.9,105.6,132.9,108.8,133,111.9z"/>
							<path class="st23" d="M141.6,92.5c-0.1,3.3-0.2,6.6-0.3,9.8c-2.8,0.1-5.5,0.1-8.3,0.2c0-3.3,0.1-6.6,0.1-9.9
								C135.9,92.6,138.7,92.5,141.6,92.5z"/>
							<path class="st23" d="M150.8,102c-0.1,3.1-0.3,6.2-0.6,9.4c-3.1,0.2-6.2,0.3-9.2,0.4c0-3.1,0.1-6.3,0.2-9.4
								C144.4,102.2,147.6,102.1,150.8,102z"/>
							<path class="st23" d="M151.2,92.3c-3.2,0.1-6.4,0.1-9.6,0.2c0.1-3.3,0.3-6.7,0.5-10c3.1,0,6.2,0,9.2,0
								C151.3,85.7,151.3,89,151.2,92.3z"/>
							<path class="st23" d="M133.5,82.4c-0.2,3.4-0.3,6.8-0.4,10.2c-3,0.1-6,0.1-9,0.1c0.2-3.5,0.3-6.9,0.5-10.4
								C127.6,82.4,130.5,82.4,133.5,82.4z"/>
							<path class="st23" d="M115.5,82.3l-0.3,10.5c-2.8,0-5.7,0.1-8.5,0.1c-0.1-3.5-0.1-7.1,0-10.7
								C109.6,82.3,112.5,82.3,115.5,82.3z"/>
							<path class="st23" d="M125,74.1c-0.1,2.8-0.3,5.5-0.4,8.3c-3,0-6.1,0-9.1,0c0.1-2.8,0.2-5.6,0.2-8.4
								C118.8,74,121.9,74.1,125,74.1z"/>
							<path class="st23" d="M142.5,74.2c-0.2,2.7-0.3,5.5-0.5,8.2c-2.8,0-5.7,0-8.6,0c0.1-2.7,0.3-5.5,0.4-8.2
								C136.8,74.2,139.6,74.2,142.5,74.2z"/>
							<path class="st23" d="M151.1,74.1c-2.9,0-5.7,0.1-8.6,0.1c0.2-3,0.4-5.9,0.6-8.9c2.5,0.2,5,0.4,7.6,0.7
								C150.8,68.8,151,71.4,151.1,74.1z"/>
							<path class="st23" d="M134.6,64.8c-0.3,3.1-0.5,6.3-0.7,9.4c-3,0-5.9,0-8.9-0.1c0.2-3.2,0.3-6.4,0.5-9.5
								C128.5,64.6,131.5,64.7,134.6,64.8z"/>
							<path class="st23" d="M116,64.6c-0.1,3.1-0.2,6.2-0.3,9.3c-2.9-0.1-5.7-0.2-8.6-0.3c0.2-2.9,0.5-5.8,0.9-8.7
								C110.7,64.8,113.3,64.7,116,64.6z"/>
						</g>
					</g>
					<g>
						<path class="st11" d="M116.9,105.5c0-1.5,5.9-2.5,13.2-2.3c7.2,0.2,13.1,1.6,13,3.1c0,1.5-5.9,2.5-13.2,2.3
							C122.7,108.4,116.8,107,116.9,105.5z"/>
						<g>
							<path class="st12" d="M135,74.9c-5.8-2.2-12.9-0.2-16.8,4.9c-3.9,5-4.4,12.7-1.1,18.3c3.3,5.5,10.1,8.5,16.1,7
								s10.9-7.3,11.4-13.8C145.1,84.8,141.6,77.4,135,74.9z"/>
							<path class="st3" d="M126.3,80.9c-0.9,2.8-2.5,5.3-4.5,7.3c-0.5,0.5-1.1,1-1.7,1.2c-0.7,0.2-1.4,0.1-1.9-0.4
								c-0.6-0.6-0.6-1.7-0.4-2.6c0.6-3,2.3-5.8,4.6-7.7c0.6-0.5,1.2-0.9,1.9-1c0.7-0.2,1.5-0.1,2,0.4
								C126.9,78.5,126.8,79.2,126.3,80.9z"/>
							<path class="st13" d="M135,95.1c-4.6,3.8-10.7,5.3-16.5,5c3.6,4.2,9.4,6.3,14.7,5c6-1.5,10.9-7.3,11.4-13.8
								c0.3-3.7-0.7-7.7-2.8-10.8C142,86,139.2,91.6,135,95.1z"/>
						</g>
					</g>
				</g>
			</g>
		</g>
		<g>
			<g>
				<ellipse class="st1" cx="165" cy="344.2" rx="1.9" ry="2"/>
				<path class="st1" d="M166.9,345.3c11.7,8.8,5.2,39.4,20.9,49c18.2,11.2,54.6,6.3,54.6,6.3"/>
			</g>
			<g>
				<path class="st11" d="M366.8,441.7c-41.4,0.6-82.8-0.9-124.1-4.6c-4.5-0.4-8-4.2-8.3-8.9c-1.1-17.9-1.1-31.2,0.8-48
					c0.5-4.8,4.5-8.5,9.1-8.5c42,0.2,84.1,1.2,126.4,4.1c4.9,0.3,8.6,4.7,8.5,9.8c-0.4,16-1.4,32-3.5,47.9
					C375.1,438.1,371.3,441.6,366.8,441.7z"/>
				<path class="st3" d="M364.1,434.7c-41.4,2.4-82.8,2.7-124.2,0.9c-4.5-0.2-8.2-3.8-8.7-8.6c-1.8-17.8-2.3-31.1-1.1-48
					c0.3-4.9,4.1-8.7,8.8-8.9c42-1.6,84.1-2.5,126.5-1.5c4.9,0.1,8.8,4.3,8.9,9.4c0.2,16-0.2,32-1.6,48
					C372.2,430.7,368.6,434.4,364.1,434.7z"/>
				<path class="st12" d="M372.9,423.1c-1.9,2.9-5,5-8.2,6.1c-4.3,1.5-8.8,1.6-13.3,1.6c-31.9,0.5-63.8,0.9-95.7,1.4
					c-5.1,0.1-10.3,0.1-15.2-1.2c-3.4-0.9-6.7-2.5-9.3-4.7c0,0.2,0,0.4,0.1,0.7c0.5,4.7,4.2,8.4,8.7,8.6
					c41.4,1.8,82.8,1.5,124.2-0.9c4.5-0.3,8.2-4,8.6-8.7C372.7,425,372.8,424,372.9,423.1z"/>
				<path class="st1" d="M324.3,431.2c-22.9,0.3-45.8,0.7-68.7,1c-5.1,0.1-10.3,0.1-15.2-1.2c-1.6-0.4-3.3-1-4.8-1.8"/>
				<path class="st1" d="M351.4,430.8c-6.4,0.1-12.8,0.2-19.2,0.3"/>
				<path class="st1" d="M371.5,424.8c-1.9,2-4.3,3.5-6.8,4.4c-2,0.7-4,1.1-6.1,1.3"/>
			</g>
			<g>
				<g>
					<path class="st16" d="M346.2,398.7v-5.3l-0.8,0.5v-1.1c0,0,0.1-0.1,0.2-0.1c0.1-0.1,0.2-0.2,0.3-0.2c0.1-0.1,0.2-0.1,0.3-0.2
						s0.2-0.1,0.2-0.2h1.1v6.7L346.2,398.7L346.2,398.7z"/>
					<path class="st16" d="M351.1,398.8c-0.6,0-1-0.2-1.3-0.5s-0.5-0.8-0.5-1.4v-3.1c0-0.6,0.1-1.1,0.4-1.4s0.7-0.5,1.3-0.5
						c0.6,0,1,0.2,1.3,0.5c0.3,0.4,0.4,0.8,0.4,1.4v3.1c0,0.6-0.2,1-0.5,1.4C352.1,398.6,351.6,398.8,351.1,398.8z M351.1,397.4
						c0.2,0,0.3-0.2,0.3-0.6v-3c0,0,0,0,0-0.1v-0.1c0,0,0,0,0-0.1v-0.1v-0.1v-0.1c0,0,0,0-0.1-0.1c0,0,0,0-0.1,0h-0.1H351
						c0,0-0.1,0-0.1,0.1c0,0,0,0.1-0.1,0.1v0.1c0,0.1,0,0.1,0,0.1l0,0c0,0,0,0,0,0.1s0,0.1,0,0.1v3
						C350.8,397.2,350.9,397.4,351.1,397.4z"/>
					<path class="st16" d="M355.4,398.8c-0.6,0-1-0.2-1.3-0.5s-0.5-0.8-0.5-1.4v-3.1c0-0.6,0.1-1.1,0.4-1.4s0.7-0.5,1.3-0.5
						c0.6,0,1,0.2,1.3,0.5c0.3,0.4,0.4,0.8,0.4,1.4v3.1c0,0.6-0.2,1-0.5,1.4C356.4,398.6,355.9,398.8,355.4,398.8z M355.4,397.4
						c0.2,0,0.3-0.2,0.3-0.6v-3c0,0,0,0,0-0.1v-0.1c0,0,0,0,0-0.1v-0.1v-0.1v-0.1c0,0,0,0-0.1-0.1c0,0,0,0-0.1,0h-0.1h-0.1
						c0,0-0.1,0-0.1,0.1c0,0,0,0.1-0.1,0.1v0.1c0,0.1,0,0.1,0,0.1l0,0c0,0,0,0,0,0.1s0,0.1,0,0.1v3
						C355.1,397.2,355.2,397.4,355.4,397.4z"/>
				</g>
				<path class="st12" d="M350.9,386.5c-0.9,1-1.9,1.9-2.8,2.9c-0.1,0.1-0.3,0.1-0.5,0c-0.9-0.7-1.7-1.5-2.5-2.4
					c-0.1-0.1-0.1-0.4,0-0.5c0.9-1,1.7-2,2.6-3.1c-0.9-0.8-2.3-2.2-2.9-2.8c-0.1-0.1-0.2-0.4,0-0.5c0.8-0.9,1.7-1.9,2.5-2.7
					c0.1-0.1,0.4-0.2,0.5,0c0.9,0.9,1.9,1.8,2.9,2.7c0.8-1,1.7-2,2.6-2.8c0.1-0.1,0.3-0.1,0.5,0c0.9,0.7,1.7,1.5,2.5,2.4
					c0.1,0.1,0.1,0.4,0,0.5c-0.8,1.1-1.6,2.1-2.5,3.1c1,0.9,1.9,1.8,2.9,2.8c0.2,0.1,0.2,0.4,0,0.6l-2.5,2.8c-0.1,0.2-0.4,0.2-0.5,0
					L350.9,386.5z"/>
			</g>
			<g>
				<g>
					<path class="st12" d="M330.7,388.6h-61.2c-1.7,0-3.1-1.5-3.1-3.3l0,0c0-1.8,1.4-3.3,3.1-3.3h61.2c1.7,0,3.1,1.5,3.1,3.3l0,0
						C333.8,387.2,332.4,388.6,330.7,388.6z"/>
					<path class="st16" d="M313.6,383.2h7.4c1.1,0,2,0.9,2,2.1l0,0c0,1.2-0.9,2.1-2,2.1h-7.4c-1.1,0-2-0.9-2-2.1l0,0
						C311.6,384.2,312.5,383.2,313.6,383.2z"/>
				</g>
				<g>
					<path class="st16" d="M315.6,398.7c-0.3,0-0.6-0.1-0.8-0.2c-0.2-0.1-0.4-0.3-0.6-0.5c-0.1-0.2-0.2-0.4-0.3-0.7
						c-0.1-0.2-0.1-0.5-0.1-0.8c0,0,0,0,0-0.1c0-0.3,0.1-0.6,0.2-0.9s0.3-0.5,0.5-0.6c-0.2-0.1-0.3-0.3-0.4-0.6
						c-0.1-0.2-0.2-0.5-0.2-0.9v-0.1c0-0.5,0.1-1,0.4-1.3s0.7-0.5,1.3-0.5c0.6,0,1,0.2,1.3,0.5s0.4,0.7,0.4,1.3v0.1
						c0,0.4-0.1,0.6-0.2,0.9c-0.1,0.2-0.3,0.4-0.4,0.5c0.2,0.1,0.4,0.3,0.5,0.6c0.1,0.3,0.2,0.6,0.2,0.9v0.1c0,0.3,0,0.5-0.1,0.8
						s-0.2,0.5-0.3,0.7c-0.1,0.2-0.3,0.3-0.6,0.5C316.2,398.7,315.9,398.7,315.6,398.7z M315.6,397.6h0.1c0,0,0.1,0,0.1-0.1
						c0,0,0-0.1,0.1-0.1v-0.1c0-0.1,0-0.1,0-0.1s0-0.1,0-0.2s0-0.1,0-0.1v-0.1c0-0.1,0-0.2,0-0.2c0-0.1,0-0.2,0-0.2
						c0-0.1,0-0.1,0-0.2s0-0.1-0.1-0.2l-0.1-0.1c0,0-0.1,0-0.2,0s-0.1,0-0.2,0l-0.1,0.1c0,0.1,0,0.1-0.1,0.1c0,0,0,0.1,0,0.2
						s0,0.2,0,0.2c0,0.1,0,0.1,0,0.2l0,0c0,0.1,0,0.1,0,0.1s0,0.1,0,0.2s0,0.1,0,0.2c0,0,0,0.1,0,0.2s0,0.1,0.1,0.1l0.1,0.1
						C315.5,397.6,315.6,397.6,315.6,397.6z M315.6,394.6c0.2,0,0.3-0.3,0.3-1c0-0.2,0-0.4-0.1-0.5s-0.1-0.2-0.2-0.2
						s-0.2,0.1-0.2,0.2c-0.1,0.1-0.1,0.3-0.1,0.5C315.3,394.3,315.4,394.6,315.6,394.6z"/>
					<path class="st16" d="M319.4,398.6v-5.3l-0.8,0.5v-1.1c0,0,0.1-0.1,0.2-0.1c0.1-0.1,0.2-0.2,0.3-0.2c0.1-0.1,0.2-0.1,0.3-0.2
						c0.1-0.1,0.2-0.1,0.2-0.2h1.2v6.7L319.4,398.6L319.4,398.6z"/>
				</g>
			</g>
			<g>
				<g>
					<path class="st24" d="M330.7,412.2h-61.2c-1.7,0-3.1-1.5-3.1-3.3l0,0c0-1.8,1.4-3.3,3.1-3.3h61.2c1.7,0,3.1,1.5,3.1,3.3l0,0
						C333.8,410.8,332.4,412.2,330.7,412.2z"/>
					<path class="st16" d="M288.1,406.9h7.4c1.1,0,2,0.9,2,2.1l0,0c0,1.2-0.9,2.1-2,2.1h-7.4c-1.1,0-2-0.9-2-2.1l0,0
						C286.1,407.8,287,406.9,288.1,406.9z"/>
				</g>
				<g>
					<path class="st16" d="M289.7,422.4c-0.3,0-0.5,0-0.7-0.1s-0.4-0.2-0.5-0.3c-0.1-0.1-0.2-0.3-0.3-0.5c-0.1-0.2-0.1-0.4-0.2-0.6
						c0-0.2-0.1-0.5-0.1-0.7V420h1.5v0.3c0,0.3,0,0.6,0.1,0.7s0.2,0.2,0.3,0.2c0.1,0,0.2-0.1,0.3-0.2c0-0.1,0.1-0.3,0.1-0.6
						c0-0.4,0-0.6-0.1-0.7s-0.3-0.2-0.5-0.2h-0.3v-1h0.2c0.3,0,0.4-0.1,0.5-0.2s0.1-0.4,0.1-0.8c0-0.3,0-0.4-0.1-0.6
						c-0.1-0.1-0.2-0.2-0.3-0.2c-0.1,0-0.2,0.1-0.3,0.2c0,0.1-0.1,0.3-0.1,0.6v0.4h-1.5v-0.5c0-0.6,0.2-1.1,0.5-1.4s0.8-0.5,1.3-0.5
						c0.6,0,1,0.2,1.3,0.5s0.5,0.8,0.5,1.4c0,0.4-0.1,0.7-0.2,1s-0.3,0.4-0.5,0.5c0.1,0,0.2,0.1,0.3,0.2c0.1,0.1,0.2,0.2,0.2,0.3
						c0.1,0.1,0.1,0.3,0.2,0.4c0,0.2,0.1,0.4,0.1,0.6c0,0.3,0,0.6-0.1,0.9s-0.2,0.5-0.3,0.7s-0.3,0.3-0.6,0.4
						C290.3,422.4,290,422.4,289.7,422.4z"/>
					<path class="st16" d="M294,422.4c-0.3,0-0.5,0-0.7-0.1s-0.4-0.2-0.5-0.3c-0.1-0.1-0.2-0.3-0.3-0.5c-0.1-0.2-0.1-0.4-0.1-0.6
						s0-0.4,0-0.7h1.4c0,0.3,0,0.5,0,0.6s0.1,0.2,0.1,0.3c0.1,0,0.1,0.1,0.2,0.1l0,0c0.2,0,0.2-0.1,0.3-0.3c0-0.2,0.1-0.5,0.1-1
						c0-0.2,0-0.3,0-0.4s0-0.2-0.1-0.3c0-0.1-0.1-0.2-0.1-0.2c-0.1-0.1-0.1-0.1-0.2-0.1s-0.2,0-0.3,0.1c-0.1,0.1-0.1,0.3-0.1,0.5
						h-1.3l0.1-3.9h3.1v1.2h-1.9l-0.1,1.2c0-0.1,0.1-0.1,0.3-0.2c0.1-0.1,0.3-0.1,0.5-0.1c0.1,0,0.1,0,0.2,0c0.4,0,0.7,0.2,0.9,0.5
						c0.3,0.4,0.4,1,0.4,1.7c0,0.2,0,0.4,0,0.6s0,0.3-0.1,0.5c0,0.2-0.1,0.3-0.1,0.5c-0.1,0.1-0.1,0.3-0.2,0.4s-0.2,0.2-0.3,0.3
						c-0.1,0.1-0.3,0.1-0.4,0.2C294.4,422.4,294.2,422.4,294,422.4z"/>
				</g>
			</g>
			<g>
				<g>
					<path class="st16" d="M346.2,422.3V417l-0.8,0.5v-1.1c0,0,0.1-0.1,0.2-0.1s0.2-0.2,0.3-0.2c0.1-0.1,0.2-0.1,0.3-0.2
						s0.2-0.1,0.2-0.2h1.1v6.7L346.2,422.3L346.2,422.3z"/>
					<path class="st16" d="M351.1,422.4c-0.6,0-1-0.2-1.3-0.5s-0.5-0.8-0.5-1.4v-3.1c0-0.6,0.1-1.1,0.4-1.4s0.7-0.5,1.3-0.5
						c0.6,0,1,0.2,1.3,0.5c0.3,0.4,0.4,0.8,0.4,1.4v3.1c0,0.6-0.2,1-0.5,1.4C352.1,422.2,351.6,422.4,351.1,422.4z M351.1,421
						c0.2,0,0.3-0.2,0.3-0.6v-3c0,0,0,0,0-0.1v-0.1c0,0,0,0,0-0.1V417v-0.1v-0.1c0,0,0,0-0.1-0.1c0,0,0,0-0.1,0h-0.1H351
						c0,0-0.1,0-0.1,0.1c0,0,0,0.1-0.1,0.1v0.1c0,0.1,0,0.1,0,0.1l0,0c0,0,0,0,0,0.1s0,0.1,0,0.1v3C350.8,420.8,350.9,421,351.1,421
						z"/>
					<path class="st16" d="M355.4,422.4c-0.6,0-1-0.2-1.3-0.5s-0.5-0.8-0.5-1.4v-3.1c0-0.6,0.1-1.1,0.4-1.4s0.7-0.5,1.3-0.5
						c0.6,0,1,0.2,1.3,0.5c0.3,0.4,0.4,0.8,0.4,1.4v3.1c0,0.6-0.2,1-0.5,1.4C356.4,422.2,355.9,422.4,355.4,422.4z M355.4,421
						c0.2,0,0.3-0.2,0.3-0.6v-3c0,0,0,0,0-0.1v-0.1c0,0,0,0,0-0.1V417v-0.1v-0.1c0,0,0,0-0.1-0.1c0,0,0,0-0.1,0h-0.1h-0.1
						c0,0-0.1,0-0.1,0.1c0,0,0,0.1-0.1,0.1v0.1c0,0.1,0,0.1,0,0.1l0,0c0,0,0,0,0,0.1s0,0.1,0,0.1v3C355.1,420.8,355.2,421,355.4,421
						z"/>
				</g>
				<g>
					<line class="st1" x1="346" y1="407.8" x2="346" y2="413.6"/>
					<line class="st1" x1="344.6" y1="412.5" x2="347.5" y2="408.9"/>
					<line class="st1" x1="356.4" y1="407.8" x2="356.4" y2="413.6"/>
					<line class="st1" x1="354.9" y1="412.5" x2="357.8" y2="408.9"/>
					<line class="st1" x1="346" y1="410.7" x2="356.4" y2="410.7"/>
				</g>
			</g>
			<g>
				<path class="st12" d="M252.3,387.4c-0.6,0.6-1.1,1.2-1.7,1.8c-0.1,0.1-0.2,0.1-0.3,0c-0.6-0.4-1.1-0.9-1.5-1.5
					c-0.1-0.1-0.1-0.2,0-0.3c0.5-0.6,1.1-1.2,1.6-1.9c-0.5-0.5-1.4-1.4-1.8-1.7c-0.1-0.1-0.1-0.2,0-0.3c0.5-0.5,1.1-1.1,1.6-1.7
					c0.1-0.1,0.2-0.1,0.3,0c0.6,0.5,1.2,1.1,1.8,1.6c0.5-0.6,1-1.2,1.6-1.7c0.1-0.1,0.2-0.1,0.3,0c0.5,0.4,1,0.9,1.5,1.5
					c0.1,0.1,0.1,0.2,0,0.3c-0.5,0.6-1,1.3-1.6,1.9c0.6,0.6,1.2,1.1,1.8,1.7c0.1,0.1,0.1,0.2,0,0.3l-1.5,1.7c-0.1,0.1-0.2,0.1-0.3,0
					L252.3,387.4z"/>
				<g>
					<path class="st16" d="M252.5,398.8c-0.6,0-1-0.2-1.3-0.5s-0.5-0.8-0.5-1.4v-3.1c0-0.6,0.1-1.1,0.4-1.4c0.3-0.3,0.7-0.5,1.3-0.5
						s1,0.2,1.3,0.5c0.3,0.4,0.4,0.8,0.4,1.4v3.1c0,0.6-0.2,1-0.5,1.4C253.5,398.6,253.1,398.8,252.5,398.8z M252.5,397.4
						c0.2,0,0.3-0.2,0.3-0.6v-3c0,0,0,0,0-0.1v-0.1c0,0,0,0,0-0.1v-0.1v-0.1v-0.1c0,0,0,0-0.1-0.1c0,0,0,0-0.1,0h-0.1h-0.1
						c0,0-0.1,0-0.1,0.1c0,0,0,0.1-0.1,0.1v0.1c0,0.1,0,0.1,0,0.1l0,0c0,0,0,0,0,0.1s0,0.1,0,0.1v3
						C252.2,397.2,252.3,397.4,252.5,397.4z"/>
				</g>
			</g>
			<g>
				<g>
					<line class="st1" x1="250.4" y1="405.9" x2="250.4" y2="411.8"/>
					<line class="st1" x1="249" y1="410.6" x2="251.9" y2="407.1"/>
					<line class="st1" x1="254.6" y1="405.9" x2="254.6" y2="411.8"/>
					<line class="st1" x1="253.1" y1="410.6" x2="256.1" y2="407.1"/>
					<line class="st1" x1="250.4" y1="408.8" x2="254.6" y2="408.8"/>
				</g>
				<g>
					<path class="st16" d="M252.5,422.4c-0.6,0-1-0.2-1.3-0.5s-0.5-0.8-0.5-1.4v-3.1c0-0.6,0.1-1.1,0.4-1.4c0.3-0.3,0.7-0.5,1.3-0.5
						s1,0.2,1.3,0.5c0.3,0.4,0.4,0.8,0.4,1.4v3.1c0,0.6-0.2,1-0.5,1.4C253.5,422.2,253.1,422.4,252.5,422.4z M252.5,421
						c0.2,0,0.3-0.2,0.3-0.6v-3c0,0,0,0,0-0.1v-0.1c0,0,0,0,0-0.1V417v-0.1v-0.1c0,0,0,0-0.1-0.1c0,0,0,0-0.1,0h-0.1h-0.1
						c0,0-0.1,0-0.1,0.1c0,0,0,0.1-0.1,0.1v0.1c0,0.1,0,0.1,0,0.1l0,0c0,0,0,0,0,0.1s0,0.1,0,0.1v3C252.2,420.8,252.3,421,252.5,421
						z"/>
				</g>
			</g>
		</g>
		<g>
			<path class="st11" d="M205.9,254.2c-11.4-7.8-26.6-4.4-34,7.6c-3.2,5.2-4.4,11.2-3.8,17c-6.8,1.3-28.1,5.5-43.3,12.3
				c-1.3,0.6-2.1,2.1-1.8,3.5c0.1,0.8,0.3,1.8,0.6,2.8c0.4,1.7,2,2.7,3.7,2.3c6.4-1.6,23-6,42.7-14c1.8,4.7,5,8.8,9.3,11.8
				c11.4,7.8,26.6,4.4,34-7.6C220.6,277.9,217.3,262,205.9,254.2z"/>
			<g>
				<g>
					<path class="st12" d="M167.2,272.9c0,0-26.7,6.6-44.5,16.2c-1.3,0.7-1.9,2.2-1.6,3.7c0.2,0.8,0.4,1.8,0.7,2.7
						c0.5,1.7,2.2,2.6,3.8,2c6.5-2.1,23.7-8.1,43.6-18.3L167.2,272.9z"/>
					<path class="st19" d="M140.7,292c2.9-1.2,6.2-2.5,9.6-4c-0.5-2.8-1.3-6.3-2.4-9.5c-3.2,1.1-6.5,2.2-9.8,3.5
						C138.6,285,139.4,288.7,140.7,292z"/>
				</g>
				<g>
					<ellipse class="st14" cx="189.3" cy="268.6" rx="24.6" ry="25.8"/>
					<ellipse class="st22" cx="189.3" cy="268.6" rx="19.3" ry="20.2"/>
					<path class="st1" d="M164.8,271.6c0.4,3.5,1.5,6.8,3.1,9.9"/>
					<path class="st12" d="M206.2,278.3c5.1-9.8,1.7-22.1-7.6-27.4c-8-4.6-17.8-2.6-23.6,4.2v1.1h3.1v3.2h3.1v3.2h3.1v3.2h3.1v3.2
						h3.1l0,0l0,0l0,0v3.2l0,0l0,0l0,0h-3.1v3.2h-3.1v3.2l0,0H181v3.2l0,0h-3v3.2c0.6,0.5,1.3,0.9,2,1.3
						C189.3,291.7,201.1,288.1,206.2,278.3z"/>
					<path class="st3" d="M183.5,251.8c-4.9,1.4-9.1,6.5-8.5,10.1s3.9,3.4,5.3,0.7c1.4-2.6,1.1-4.7,4.3-6
						C187.7,255.3,189.2,250.2,183.5,251.8z"/>
				</g>
			</g>
		</g>
		<g>
			<g>
				<path class="st1" d="M198.9,270.4c0-1.1-0.9-2-1.9-2c-1.1,0-1.9,0.9-1.9,2s0.9,2,1.9,2C198.1,272.4,198.9,271.5,198.9,270.4z"/>
				<path class="st1" d="M197,268.4c2.9-12.5-5.5-39.8-36.1-33.9"/>
			</g>
			<g>
				<path class="st11" d="M156.7,260.2c-26.4,0.4-52.8-0.6-79.1-3.2c-4.5-0.4-8.1-4.2-8.4-8.9c-0.5-7.8-0.5-15.5-0.1-23.1
					c0.3-5.2,4.4-9.2,9.4-9.1c25.7,0.6,51.5,1.2,78.6,2.2c4.6,0.2,8.4,3.8,8.9,8.6c0.8,8.3,0.7,16.6-0.2,25
					C165.2,256.5,161.3,260.1,156.7,260.2z"/>
				<path class="st3" d="M154.1,255.5c-26.4,1.6-52.8,1.8-79.2,0.4c-4.5-0.2-8.2-3.8-8.7-8.5c-0.8-7.8-1.1-15.5-1.1-23.1
					c0-5.2,4.1-9.4,9-9.5c25.7-0.6,51.5-1.1,78.6-1.4c4.6-0.1,8.6,3.4,9.2,8.2c1.1,8.2,1.4,16.6,0.8,25
					C162.5,251.4,158.7,255.2,154.1,255.5z"/>
				<path class="st12" d="M69.4,253.6c1.5,1.3,3.4,2.2,5.5,2.3c26.4,1.4,52.8,1.3,79.2-0.4c4.6-0.3,8.3-4,8.7-8.8
					c-1.5,2.5-4.1,4.4-6.8,5.3c-3.4,1.1-7.1,1.1-10.7,1.1C119.9,252.8,94.6,252.5,69.4,253.6z"/>
				<path class="st1" d="M145.2,253.1c-24-0.3-48-0.5-71.9,0.4"/>
				<path class="st1" d="M160.9,249.1c-1.4,1.3-3.1,2.3-4.9,2.9c-1.5,0.5-3.1,0.8-4.8,0.9"/>
			</g>
			<path class="st25" d="M102.5,225.1H76.6c-1.1,0-2.1-1-2.1-2.2l0,0c0-1.2,0.9-2.2,2.1-2.2h25.9c1.1,0,2.1,1,2.1,2.2l0,0
				C104.5,224.1,103.6,225.1,102.5,225.1z"/>
			<path class="st25" d="M130.5,225.1h-5.3c-1.1,0-2.1-1-2.1-2.2l0,0c0-1.2,0.9-2.2,2.1-2.2h5.3c1.1,0,2.1,1,2.1,2.2l0,0
				C132.5,224.1,131.6,225.1,130.5,225.1z"/>
			<path class="st25" d="M152.2,225.1H147c-1.1,0-2.1-1-2.1-2.2l0,0c0-1.2,0.9-2.2,2.1-2.2h5.3c1.1,0,2.1,1,2.1,2.2l0,0
				C154.3,224.1,153.4,225.1,152.2,225.1z"/>
			<g>
				<line class="st1" x1="74.5" y1="233.9" x2="116.3" y2="233.9"/>
				<line class="st1" x1="74.5" y1="240.4" x2="98.3" y2="240.4"/>
			</g>
			<g>
				<line class="st1" x1="136.4" y1="237.1" x2="141.4" y2="237.1"/>
				<polyline class="st1" points="139.4,235.2 141.4,237.1 139.4,239.3 				"/>
			</g>
			<g>
				<path class="st12" d="M132.5,233H129v3.7l0,0h-3.6v3.7l0,0h-2.3v0.7c0,1.4,1.1,2.5,2.4,2.5h4.6c1.3,0,2.4-1.1,2.4-2.5V233
					c0,0,0-0.1,0-0.2V233z"/>
				<path class="st1" d="M129.8,243.7h-3.9c-1.5,0-2.7-1.2-2.7-2.7v-7.7c0-1.5,1.2-2.7,2.7-2.7h3.9c1.5,0,2.7,1.2,2.7,2.7v7.7
					C132.5,242.5,131.3,243.7,129.8,243.7z"/>
			</g>
			<g>
				<path class="st12" d="M154.3,233.1c0-0.3-0.1-0.6-0.1-0.8H152v2.8h-2.6v2.8l0,0h-2.6v2.8l0,0H145v0.6c0,1.4,1.1,2.5,2.4,2.5h4.6
					c1.3,0,2.4-1.1,2.4-2.5L154.3,233.1L154.3,233.1z"/>
				<path class="st1" d="M151.6,243.7h-3.9c-1.5,0-2.7-1.2-2.7-2.7v-7.7c0-1.5,1.2-2.7,2.7-2.7h3.9c1.5,0,2.7,1.2,2.7,2.7v7.7
					C154.3,242.5,153.1,243.7,151.6,243.7z"/>
			</g>
		</g>
		<path class="st3" d="M212.9,168c-5.7,2.8,2.4,18.3,7.4,14.7C225.4,179.1,218.3,165.5,212.9,168z"/>
	</g>
</g>
</svg>
