<?xml version="1.0" encoding="utf-8"?>
<!-- Generator: Adobe Illustrator 23.0.0, SVG Export Plug-In . SVG Version: 6.00 Build 0)  -->
<svg version="1.1" id="Layer_1" xmlns="http://www.w3.org/2000/svg" xmlns:xlink="http://www.w3.org/1999/xlink" x="0px" y="0px"
	 viewBox="0 0 2000 2000" style="enable-background:new 0 0 2000 2000;" xml:space="preserve">
<style type="text/css">
	.st0{fill:#FFFFFF;}
	.st1{fill:#FAE0B2;}
	.st2{fill:#466EB6;}
	.st3{fill:#355389;}
	.st4{fill:#F48C7F;}
	.st5{fill:#F47458;}
	.st6{fill:#F7CC7F;}
	.st7{fill:#13375B;}
	.st8{fill:#96D9C9;}
	.st9{fill:#86B1F2;}
	.st10{fill:#50BFA5;}
	.st11{fill:#F7A491;}
	.st12{fill:#3C8F7C;}
	.st13{fill:#184655;}
	.st14{fill:#B75742;}
	.st15{fill:#F8A492;}
</style>
<rect class="st0" width="2000" height="2000"/>
<g>
	<g>
		<path class="st1" d="M330.9,1315.7l-16.4-9.3c-4.5,7.2-10,13.7-15.4,18.6c-4.5,4.1-11.3,4-15.7-0.2l-0.5-0.5
			c-4.8-4.6-4.7-12.4,0.3-16.8c5.1-4.5,10-10.1,13.8-16.9c5.6-9.8,5.6-18.7-1.3-22.6c-6.6-3.7-13.8-0.5-25.4,9.8
			c-16.7,14.9-32.4,22.6-49.2,13.1c-15.2-8.6-21-26-14.2-46.5l-16.4-9.3l9.6-16.9l15.2,8.6c3.8-6.1,7.6-10.8,11.2-14.4
			c4.4-4.5,11.6-4.5,16.1-0.2l0,0c4.7,4.5,4.7,12,0,16.5c-3.5,3.4-7.3,7.8-10.7,13.9c-6.4,11.2-3.6,17.6,1.2,20.3
			c5.7,3.2,12.7-0.8,26.6-12.3c18.9-16.4,33.1-19.3,48.6-10.5c15.3,8.7,22.3,27,14.5,48.8l17.6,10L330.9,1315.7z"/>
	</g>
	<g>
		<g>
			<g>
				<path class="st2" d="M1118.8,1578.6c41.3-55.6,74.5-56.1,74.5-56.1s15.1-97.7,3-139.2c-12-41.5-66.3-5.1-66.3-5.1
					s72-141.2,42.5-157c-55-29.5-141.7,120.2-141.7,120.2s20.3-65.9-18.6-65.7c-58.7,0.4-63.8,151.5-63.8,151.5
					s-11.6-29.8-47.8-12.7c-39,18.4-49.6,129-51.8,214.5h205.5C1083.9,1611,1107.9,1593.3,1118.8,1578.6z"/>
			</g>
			<path class="st3" d="M1038,1329.4c0,0,2.4-75.1-36.5-74.9c-58.7,0.4-53.1,172.7-53.1,172.7s-24.5-48.8-60.7-31.7
				c-39.7,18.7-44.5,141-42.9,233.5h68.3l259.4-407.8C1117.5,1191.7,1038,1329.4,1038,1329.4z"/>
		</g>
	</g>
	<g>
		<g>
			<g>
				<path class="st2" d="M1357.5,1624.1c0,0,187.3,21.6,232.7,5.7c45.4-15.9,15.3-41.3,15.3-41.3s96-12.3,105.2-40.8
					c9.3-28.6-36.1-28.7-36.1-28.7s96.3-53.1,85.5-73.8c-20.1-38.4-128.2,14-128.2,14s37.3-30,14.8-45
					c-33.9-22.6-95.6,62.3-95.6,62.3s4.9-21.6-22.5-25.9C1479.4,1442.9,1357.5,1624.1,1357.5,1624.1z"/>
			</g>
			<path class="st3" d="M1528.6,1434.6c27.4,4.3,22.6,41.8,22.6,41.8s63.8-101.3,97.7-78.7c22.5,15-8.1,57.2-8.1,57.2
				s99.3-48.2,119.4-9.9l-384.7,166.9C1389.6,1590.9,1482.6,1427.5,1528.6,1434.6z"/>
		</g>
		<g>
			<g>
				<path class="st2" d="M1356.3,1626.9c0,0,170.4-118.6,195-170.7c24.5-52.1-22.4-47.8-22.4-47.8s70.1-92.3,53.5-124.2
					c-16.6-31.9-54.9,6.8-54.9,6.8s35.5-127,8.8-135c-49.7-15-98.4,145.8-98.4,145.8s-18.6-89-50.3-82.4
					c-47.8,10-0.1,141.5-0.1,141.5s-14.1-42.8-40.8-23C1298.7,1373.4,1356.3,1626.9,1356.3,1626.9z"/>
			</g>
			<path class="st3" d="M1300,1339.8c30.1-14.2,36.1-44.2,36.1-44.2s0.2-74.4,48-84.3c31.7-6.6,53.9,53.1,53.9,53.1
				s48.4-123.6,98.2-108.6l-180.4,469C1349.5,1595,1264.2,1356.8,1300,1339.8z"/>
		</g>
	</g>
	<g>
		<path class="st4" d="M1303.8,1627.2H960.1c-11,0-19.8-8.9-19.8-19.8l0,0c0-11,8.9-19.8,19.8-19.8h343.7c11,0,19.8,8.9,19.8,19.8
			l0,0C1323.6,1618.3,1314.8,1627.2,1303.8,1627.2z"/>
		<path class="st5" d="M1363.9,1588.7h-343.7c-11,0-19.8-8.9-19.8-19.8l0,0c0-11,8.9-19.8,19.8-19.8h343.7c11,0,19.8,8.9,19.8,19.8
			l0,0C1383.8,1579.8,1374.9,1588.7,1363.9,1588.7z"/>
		<path class="st4" d="M1315.8,1552.2H972.1c-11,0-19.8-8.9-19.8-19.8l0,0c0-11,8.9-19.8,19.8-19.8h343.7c11,0,19.8,8.9,19.8,19.8
			l0,0C1335.7,1543.3,1326.8,1552.2,1315.8,1552.2z"/>
		<path class="st5" d="M1275.7,1512.7H932c-11,0-19.8-8.9-19.8-19.8l0,0c0-11,8.9-19.8,19.8-19.8h343.7c11,0,19.8,8.9,19.8,19.8l0,0
			C1295.6,1503.8,1286.7,1512.7,1275.7,1512.7z"/>
		<g>
			<circle class="st1" cx="1347.4" cy="1466.9" r="171.8"/>
			
				<ellipse transform="matrix(0.7071 -0.7071 0.7071 0.7071 -642.6318 1382.3718)" class="st6" cx="1347.4" cy="1466.9" rx="144.2" ry="144.2"/>
			<g>
				<path class="st0" d="M1302.7,1559.5l8.2-22.6c-10.1-4.2-19.4-9.7-26.7-15.4c-6.1-4.8-7.4-13.4-3.1-19.8l0.5-0.8
					c4.8-7,14.6-8.5,21.2-3.2c6.8,5.4,14.9,10.4,24.2,13.8c13.6,4.9,24.8,3.1,28.2-6.5c3.3-9.1-2.3-17.5-17.7-29.9
					c-22.4-17.8-35.5-36-27.1-59.1c7.6-21,28.3-32,55.6-27.8l8.2-22.6l23.3,8.5l-7.6,21c8.5,3.5,15.2,7.3,20.6,11
					c6.6,4.6,8.2,13.6,3.7,20.2l0,0c-4.7,6.8-14.1,8.5-20.8,3.6c-5-3.7-11.4-7.5-19.9-10.6c-15.5-5.6-22.9-0.8-25.3,5.9
					c-2.9,7.9,3.7,15.9,21.2,30.9c24.7,20.3,31.4,37.5,23.6,59c-7.7,21.2-29.3,33.9-58.4,28.7l-8.8,24.3L1302.7,1559.5z"/>
			</g>
		</g>
	</g>
	<g>
		<g>
			<g>
				<path class="st3" d="M727.6,1620.2c0,0-267.1-131.7-313-200.3c-45.9-68.7,21.6-72.6,21.6-72.6S317,1231.4,333.8,1182.6
					s79.3-2.2,79.3-2.2s-77.5-172.5-41.3-189.6c67.3-31.9,161.7,151.6,161.7,151.6s-20.3-79.7,26.1-77.1c69.9,3.9,67,184.3,67,184.3
					s7.9-69.2,50-46.7C752.1,1243.2,727.6,1620.2,727.6,1620.2z"/>
			</g>
			<path class="st2" d="M691.8,1175c-32.9-18.3-65.7,35.1-65.7,35.1s3.3-140.9-66.6-144.8c-46.3-2.6-26.1,77.1-26.1,77.1
				s-94.4-183.5-161.7-151.6l356.1,626.5C730.4,1573.6,756.9,1211.1,691.8,1175z"/>
		</g>
		<g>
			<g>
				<path class="st3" d="M720.7,1621.9c0,0-218.4,27.1-275,3c-56.6-24.2-16-54-16-54s-121.4-23.9-130.8-61.1
					c-9.4-37.2,48.6-33.6,48.6-33.6s-118.4-76.1-102.8-101.5c29-47.3,162.5,28.8,162.5,28.8s-45.1-41.5-15.1-58.7
					c45.2-26,116.7,87.7,116.7,87.7s-4.4-28,31-31.1C603.2,1395.8,720.7,1621.9,720.7,1621.9z"/>
			</g>
			<path class="st2" d="M541.1,1381c-35.4,3.1-32.4,51.5-32.4,51.5s-72.8-134.7-118-108.8c-30,17.2,5.5,73.8,5.5,73.8
				s-122.6-70.1-151.6-22.8l476.7,246C705.1,1592.3,600.4,1375.8,541.1,1381z"/>
		</g>
	</g>
	<g>
		<path class="st7" d="M266.3,1633.1L266.3,1633.1c0,3.4,2.7,6.1,6.1,6.1h1530.7c3.4,0,6.1-2.8,6.1-6.1l0,0c0-3.4-2.7-6.1-6.1-6.1
			H272.4C269,1626.9,266.3,1629.7,266.3,1633.1z"/>
	</g>
	<polygon class="st2" points="1337.7,565.2 1329.9,584.6 1297.3,575.5 1282.4,602.5 1256.9,599.7 1255.4,612.6 1289.6,616.3 
		1303.7,590.8 1337.6,600.2 1349.3,571 	"/>
	<g>
		<path class="st8" d="M1453.7,1085.1l8-19.9c-8.8-4-17-9.3-23.3-14.6c-5.3-4.4-6.2-12.2-2.1-17.7l0.5-0.7c4.5-6.1,13.3-7.2,19-2.2
			c5.8,5.1,12.9,9.8,21.1,13.1c11.9,4.8,22,3.5,25.3-4.9c3.2-8-1.5-15.7-14.9-27.2c-19.4-16.6-30.4-33.2-22.3-53.5
			c7.4-18.4,26.2-27.6,50.4-23l8-19.9l20.5,8.3l-7.4,18.4c7.5,3.4,13.3,7,18,10.5c5.7,4.3,6.9,12.4,2.6,18.1l0,0
			c-4.4,5.9-12.8,7.1-18.6,2.5c-4.3-3.4-10-7-17.3-10c-13.6-5.5-20.4-1.4-22.7,4.5c-2.8,6.9,2.8,14.3,17.9,28.1
			c21.4,18.8,26.8,34.4,19.2,53.2c-7.5,18.6-27.1,29.2-52.9,23.7l-8.6,21.4L1453.7,1085.1z"/>
	</g>
	<path class="st1" d="M1013.2,1627H609.5c-16.1,0-29.1-13-29.1-29.1l0,0c0-16.1,13-29.1,29.1-29.1h403.7c16.1,0,29.1,13,29.1,29.1
		l0,0C1042.3,1614,1029.3,1627,1013.2,1627z"/>
	<path class="st6" d="M1073.9,1569.3H693.8c-16.1,0-29.1-13-29.1-29.1l0,0c0-16.1,13-29.1,29.1-29.1h380.1c16.1,0,29.1,13,29.1,29.1
		l0,0C1103,1556.3,1090,1569.3,1073.9,1569.3z"/>
	<path class="st1" d="M1019.7,1511.1H656.2c-15.7,0-28.5-12.7-28.5-28.5v-1.3c0-15.7,12.7-28.5,28.5-28.5h363.6
		c15.7,0,28.5,12.7,28.5,28.5v1.3C1048.2,1498.3,1035.5,1511.1,1019.7,1511.1z"/>
	<path class="st6" d="M1019.4,1453H654.1c-15.4,0-28-12.5-28-28v-2.3c0-15.4,12.5-28,28-28h365.3c15.4,0,28,12.5,28,28v2.3
		C1047.3,1440.4,1034.8,1453,1019.4,1453z"/>
	<path class="st1" d="M1031.4,1398.1H662.8c-16.1,0-29.1-13-29.1-29.1l0,0c0-16.1,13-29.1,29.1-29.1h368.6c16.1,0,29.1,13,29.1,29.1
		l0,0C1060.5,1385.1,1047.5,1398.1,1031.4,1398.1z"/>
	<path class="st6" d="M1015.5,1340.6H646.9c-16.1,0-29.1-13-29.1-29.1l0,0c0-16.1,13-29.1,29.1-29.1h368.6c16.1,0,29.1,13,29.1,29.1
		l0,0C1044.6,1327.6,1031.6,1340.6,1015.5,1340.6z"/>
	<path class="st6" d="M1034,1228.1H680.9c-15.8,0-28.5-12.8-28.5-28.5v-1.2c0-15.8,12.8-28.5,28.5-28.5H1034
		c15.8,0,28.5,12.8,28.5,28.5v1.2C1062.5,1215.3,1049.7,1228.1,1034,1228.1z"/>
	<path class="st1" d="M1065.6,1284.1H726.4c-15.5,0-28-12.5-28-28v-2.2c0-15.5,12.5-28,28-28h339.2c15.5,0,28,12.5,28,28v2.2
		C1093.6,1271.6,1081.1,1284.1,1065.6,1284.1z"/>
	
		<ellipse transform="matrix(0.7071 -0.7071 0.7071 0.7071 -872.2643 822.8801)" class="st4" cx="557.2" cy="1464.4" rx="171" ry="171"/>
	<path class="st6" d="M654.5,1358.9c58.3,53.7,61.9,144.5,8.2,202.8c-53.7,58.3-144.5,61.9-202.8,8.2
		c-58.3-53.7-61.9-144.5-8.2-202.8C505.4,1308.8,596.2,1305.2,654.5,1358.9z"/>
	<path class="st0" d="M651.3,1509.2c3.3,4.3,3.1,10.4-0.6,14.5c-7.1,8-18.7,17.6-33.3,24.8c-21.3,10.5-45.9,13.7-69,5.8
		c-14.5-4.9-28.2-15-38.6-28.8l-12.6,6.2c-4.3,2.1-9.5,0.3-11.6-4l-0.2-0.3c-2.1-4.3-0.3-9.5,4-11.6l10.4-5.1
		c-2.1-3.4-3.5-5.5-4.5-7.4c-1.6-3.2-3.2-7.3-4.6-11.8l-10.7,5.2c-4.3,2.1-9.5,0.3-11.6-4l0,0c-2.1-4.3-0.3-9.5,4-11.6l12.9-6.4
		c-3.7-16.6-3.1-33.4,1.8-47.8c8.4-24.6,26.9-43.3,49.2-54.3c13-6.4,24-9,32.9-9.9c6.2-0.7,11.9,3.7,12.8,9.9l0,0.2
		c0.9,6.4-3.6,12.4-10,13.2c-7.3,1-15.9,3.3-25.6,8.1c-14.2,7-26.2,18.5-32.2,35.1c-3.3,9.6-4.2,20.9-0.9,31.7l72.8-35.7
		c4.3-2.1,9.5-0.3,11.6,4l0,0c2.1,4.3,0.3,9.5-4,11.6l-76,37.3c1.4,3.7,2.8,7.4,4,9.7c1.4,2.9,2.9,5.8,5.1,9.5l76.2-37.4
		c4.4-2.1,9.7-0.3,11.8,4l0,0c2.1,4.4,0.3,9.7-4,11.8l-72.9,35.8c6.9,8.3,15.4,14.1,24,17.1c17.2,5.6,32.4,3.8,48.5-4.2
		c9.9-4.8,17.9-10.9,23.8-16.7C639.2,1503.1,647.2,1503.8,651.3,1509.2L651.3,1509.2z"/>
	<path class="st9" d="M651.3,1005.5c2.3,3.7,1.6,8.4-1.6,11.4c-6.2,5.8-16.1,12.5-28.2,17c-17.7,6.6-37.3,7.3-54.9-0.8
		c-11-5-21.1-14-28.3-25.7l-10.4,3.9c-3.5,1.3-7.5-0.5-8.8-4l-0.1-0.3c-1.3-3.5,0.5-7.5,4-8.8l8.6-3.2c-1.4-2.8-2.3-4.6-2.9-6.2
		c-1-2.7-1.9-6-2.7-9.7l-8.8,3.3c-3.5,1.3-7.5-0.5-8.8-4l0,0c-1.3-3.5,0.5-7.5,4-8.8l10.7-4c-1.7-13.4,0.1-26.6,5.1-37.6
		c8.5-18.8,24.6-32.1,43-39c10.8-4,19.6-5.2,26.8-5.3c5-0.1,9.1,3.8,9.3,8.8l0,0.2c0.2,5.2-3.8,9.5-8.9,9.7
		c-5.9,0.2-12.8,1.4-20.8,4.4c-11.8,4.4-22.1,12.6-28.1,25.2c-3.3,7.4-4.9,16.2-3.1,25l60.2-22.6c3.5-1.3,7.5,0.5,8.8,4l0,0
		c1.3,3.5-0.5,7.5-4,8.8l-62.9,23.6c0.8,3,1.7,6.1,2.4,8c0.9,2.4,1.8,4.8,3.3,7.9l63-23.7c3.6-1.4,7.7,0.5,9,4.1l0,0
		c1.4,3.6-0.5,7.7-4.1,9l-60.3,22.6c4.8,7.1,11,12.3,17.7,15.3c13.1,5.7,25.3,5.5,38.6,0.5c8.2-3.1,14.9-7.3,20.1-11.3
		C642.2,999.8,648.4,1000.9,651.3,1005.5L651.3,1005.5z"/>
	<path class="st6" d="M1210.1,804.3l19.2-9.7l18.9,10.3c2.2,1.2,4.7-0.6,4.3-3.1l-3.3-21.3l15.6-14.8c1.8-1.7,0.9-4.7-1.6-5.1
		l-21.3-3.4l-9.2-19.5c-1.1-2.2-4.2-2.3-5.3-0.1l-9.8,19.2l-21.4,2.8c-2.4,0.3-3.4,3.3-1.7,5l15.2,15.3l-4,21.2
		C1205.4,803.5,1207.9,805.4,1210.1,804.3z"/>
	<polygon class="st10" points="824.5,413.8 804.6,415.8 797.9,384.2 768.5,383.6 759.5,360.8 748,365.3 759.9,395.8 787.8,396.4 
		794.8,429.3 824.7,426.2 	"/>
	<g>
		<path class="st1" d="M1232.4,887.1l21.2,7c0,0,33.7-10.9,37-17.8c3.3-6.9,4.3-23.5,9-24c4.8-0.5,14.1,1.1,16.3,12.5
			c1.6,8.3-10.5,32.2-8.6,34.7c1.2,1.6,13.3,6,22.2,9c5.8,2,10.1,7.2,11,13.4l0,0c0.6,4.2-1.8,8.3-5.7,9.8l-6.1,2.4l2,6.3
			c1.5,4.7-1.1,9.7-5.8,11.3l-4.7,1.6l1.5,3.8c1.9,4.9-0.8,10.6-5.9,12l-4.1,1.2l0.2,1.1c0.7,4.6-2.2,9-6.6,10.2l-4.1,1.1
			l-56.6-18.7c-5.3-1.7-10.2-4.6-14.3-8.3l-18.8-9.9c-2-1.1-2.9-3.5-2.2-5.7l17.4-50.2C1227.4,887.7,1230,886.3,1232.4,887.1z"/>
	</g>
	<path class="st6" d="M551.4,818.7c-0.3-0.8-6.9-12.2-15.5-24.5c-39.9-57.6-99.2-113-168.6-110.9l0-0.4c31.4-3.4,62.2,4.9,89.2,19.8
		c44.6,24,88,69.8,111.7,105L551.4,818.7z"/>
	<g>
		<path class="st11" d="M1008.2,746.9c0,0,2-4.1,1.9-13.6c-0.2-11.8-2.5-29.5-3-31.1c-0.9-2.8,37.2-14.8,37.2-14.8
			s61.1-3.1,70.1-9.9c9.1-6.8,16.7-9.6,12.5-2.6c-7.7,12.8-25.6,31.5-29.5,34.1c-4,2.6-51.4,14.5-52.3,14.5s-0.6,29.8-0.6,29.8
			L1008.2,746.9z"/>
		<g>
			<path class="st12" d="M1047.8,734.2c0,0-39.5-6.7-40.3-2.8c-16,87.5-18.7,116.4-20.4,117.3c-6,3.1-92.1-72.4-106.3-77.4
				c-6.8-2.4-14.2-2-21.3-1.8c-16.9,0.5-11.2,0.1-20.1,0.5l0,0c-0.5,0-0.8,0.1-0.8,0.1l0.1,15.9c19.1,17.1,62.7,276.8,66.4,276.7
				c4.1-0.2,90.3,21.5,88.8,14.2c-0.2-1.2-58.5-48.8-75-117.6c-5.5-23.1-8.3-47.9-11.3-69.7c19.2,9.6,94,46.4,105.8,41.6
				C1050.4,916.2,1047.8,734.2,1047.8,734.2z"/>
			<path class="st11" d="M1196.3,1195.3c0,0,80.2,62.8,82.9,74c3.9,16,77.3-5,59.6-8.3c-4.1-0.8-17.1-4.1-18.2-4.6
				c-5.7-3.1-77.1-89.1-77.1-89.1L1196.3,1195.3z"/>
			<path class="st13" d="M1373.3,1260.9l-51.2-4.2c0,0-14.6,12.1-42.8,12.7c0,0-4.5,12.9-2.4,27.9c0.4,2.6,0.8,10.4,3.4,10.2
				c9.5-0.6,34.7-6.9,63.4-12.7c0,0,38.6-8.2,60.9-21.5C1427,1260.1,1373.3,1260.9,1373.3,1260.9z"/>
			<path class="st14" d="M836.9,1037.6c0,0,58.7,9.9,123.7-5.3c75.2-17.6,158.3-33.8,182.7-19.7c19.6,11.4,142,196.4,142,196.4
				l-47.3,34.5l-134.8-151c0,0-172,63.5-210.6,56.4C804.6,1133,803.4,1062.7,836.9,1037.6z"/>
			<polygon class="st14" points="901.1,1000.3 959.9,1070.2 850.8,1103.4 836.9,1037.6 			"/>
			<path class="st11" d="M1020.6,1319.4c0,0-3.6,97-5.8,113.5c-2.2,16.4,41.2,65.6,35.6,48.5c-1.3-3.9-4.6-17-4.6-18.2
				c0-6.5,16.1-117.2,16.1-117.2L1020.6,1319.4z"/>
			<path class="st13" d="M1066.8,1511.7l-20.7-47.1c0,0-17.6-7.1-31.5-31.6c0,0-13.4,2.1-25.7,11.2c-2.1,1.6-16.5,12-15.5,14.5
				c3.7,8.9,23.2,28,44.6,48.8c0,0,30.3,24.4,52.6,37.7C1093,1558.5,1066.8,1511.7,1066.8,1511.7z"/>
			<path class="st5" d="M1115.8,1128.1c-20.5-27.4-186.3-53.4-186.3-53.4l-46.2-88.9l-102.2,63c0,0,10.2,81.3,17.9,103.1
				c10.2,29,78.9,30.4,120.9,30c38.6-0.4,109.1,7.5,109.1,7.5l-23.9,210.4c0,0,46.9,10.7,60.1,8.9
				C1066.6,1408.6,1141.3,1162.2,1115.8,1128.1z"/>
			<path class="st0" d="M839.3,770.3l-57.7,3.2c0,0-1.3,0.5-1.7,0.5c-4.7,0.9-0.4,168.9,3.8,231.7c4.2,62.8,12.7,89.1,12.7,89.1
				s78.2-13.9,102.2-23.2c10-3.9,34.1-34,34.1-34s-24.6-33.1-37-86.9c-9.6-41.5-21.4-115-28.1-130.4
				C851.9,785.1,839.3,770.3,839.3,770.3z"/>
		</g>
		<path class="st11" d="M783.2,722.6l-1.6,50.9c0,0,37.3,64.3,56.5,55.4c16.1-7.5,1.8-56.5,1.8-56.5s-2.8-11.2-6.6-24.1
			c-2.7-9-4.9-18.8-4.8-25.9C828.9,705,783.2,722.6,783.2,722.6z"/>
		<g>
			<path class="st13" d="M827.8,606.4c0,0,19,28.7,20.4,52.8c1.4,24.1-3.7,40.6-3.7,40.6l-61.1-73L827.8,606.4z"/>
			<path class="st4" d="M854.6,654.3c0.9,8.5-2.4,15.7-7.3,16.2s-9.6-5.9-10.5-14.4c-0.9-8.5,2.4-15.7,7.3-16.2
				C849.1,639.4,853.7,645.9,854.6,654.3z"/>
			<path class="st11" d="M763.8,638.6c-1.4-0.3-1.3,70,19.1,86.5c20.4,16.5,55.8,18,66.2,1.3c11.4-18.4,0.6-92.5-29.7-108.2
				C789,602.5,763.8,638.6,763.8,638.6z"/>
			<path class="st13" d="M758.6,595c-15.5,13.6-23.1,23.6-33.6,47.8c-12.9,29.8,12.7,60.7,34.2,72.9c21.5,12.3,23.3,27.3,23.3,27.3
				l0.9-9.4c0.9-7.3-1.3-11.4-3.3-15.8c-1.8-3.9-7.7-17.3-10-20.9c-6.1-9.3-7.2-11.4-4.3-20.2c2.3-6.8-0.4-21.9,3.2-33.2l29-6.2
				c0,0,18.1-4.4,27.3-14.9C851.6,592.2,799.6,558.4,758.6,595z"/>
			<path class="st11" d="M772.8,684.5c3.6,7.7,2.8,15.6-1.7,17.7c-4.5,2.1-11-2.5-14.6-10.2c-3.6-7.7-2.8-15.6,1.7-17.7
				C762.7,672.2,769.2,676.8,772.8,684.5z"/>
		</g>
		<path class="st6" d="M382.7,709.7l-4.7-32.4l24-22.2c2.7-2.5,1.4-7.1-2.3-7.7l-32.2-5.5l-13.7-29.7c-1.6-3.4-6.3-3.5-8.1-0.2
			l-15.2,28.9l-32.5,3.9c-3.7,0.4-5.3,4.9-2.7,7.6l22.8,23.4l-6.4,32.1c-0.7,3.7,3.1,6.6,6.4,4.9l29.3-14.5l28.5,16
			C379.3,716,383.2,713.3,382.7,709.7z"/>
		<path class="st15" d="M575.4,490.7c3.3,13.5,9.2,34.9,9.2,34.9c-0.5,5.9-2.2,30.3-4.3,60.3l44.1-17.6c0,0-0.5-48.8,1.4-51.8
			c1.7-2.5,4.5,0.6,18-18.7c3.9-5.6,4.6-15.5,4.6-15.5s0.8-12.3-2-13.4c-2.8-1.1-5.9,0.7-6.9,2.8c-1,2.1-0.7,7.1-1.7,9.2
			c-1,2.1-7.4,4.7-10.1,4.5c-2.7-0.1,0.3-36.3,0.3-36.3s1.5-10.3,2.3-13.6c0.6-2.9,3.3-11.2,3.3-11.2s3.1-12.2-0.7-13.1
			c-2.2-0.5-7.9,9.3-11.8,19.8c-4.2,11.3-6.6,23.3-7.8,23.1c-2.8-0.4-1.3-20.2-1.3-20.2s2.8-9.1,2.7-13.4c2.6-5.2,4.4-15-0.3-15.8
			c-0.9-0.1-7,12.2-7,12.2s-2.4,8.7-3.8,12.8c-2.5,7.2-2.9,18.5-4.2,23.5c-1.1,4.2-2.1,2.4-2.5,2.6c-0.3,0.1,0.3-5.6,0.9-13.5
			c0.3-4-0.1-8.6,1-13.1c1-4.2,1.6-10.2,1.9-13.8c0.8-10.3-5.7-9.2-7.9,0.2c-0.9,3.6-1.7,7.5-2.6,11.4c-3.5,15.4-3.4,30.2-5,30.3
			c-2.2,0.2-0.7-26.8-0.7-26.8s-3.3-14.9-6.6-1.1c-3.8,16.1-3.4,29.2-3.4,29.8C574.9,463.1,572.1,477.1,575.4,490.7z"/>
		<path class="st12" d="M781.5,773.5c0,0-57.1-2.7-71.9-9.4c-8.9-4-82.4-63.3-82.4-63.3l0.8-158.5l-51.7-3.9
			c0,0-26.8,175.2-17.5,194.4c9.6,19.8,117.1,101.3,138.6,136.7c12.4,20.4,38.2,297.6,42.1,300.1c27.8,14.5,113.8,28.9,111.7,20.2
			C795.5,947.1,781.5,773.5,781.5,773.5z"/>
		<g>
			<circle class="st1" cx="1036.8" cy="532.8" r="171.8"/>
			
				<ellipse transform="matrix(0.7071 -0.7071 0.7071 0.7071 -73.0659 889.2149)" class="st6" cx="1036.8" cy="532.8" rx="144.2" ry="144.2"/>
			<g>
				<path class="st0" d="M992.2,625.4l8.2-22.6c-10.1-4.2-19.4-9.7-26.7-15.4c-6.1-4.8-7.4-13.4-3.1-19.8l0.5-0.8
					c4.8-7,14.6-8.5,21.2-3.2c6.8,5.4,14.9,10.4,24.2,13.8c13.6,4.9,24.8,3.1,28.2-6.5c3.3-9.1-2.3-17.5-17.7-29.9
					c-22.4-17.8-35.5-36-27.1-59.1c7.6-21,28.3-32,55.6-27.8l8.2-22.6l23.3,8.5l-7.6,21c8.5,3.5,15.2,7.3,20.6,11
					c6.6,4.6,8.2,13.6,3.7,20.2l0,0c-4.7,6.8-14.1,8.5-20.8,3.6c-5-3.7-11.4-7.5-19.9-10.6c-15.5-5.6-22.9-0.8-25.3,5.9
					c-2.8,7.9,3.7,15.9,21.2,30.9c24.7,20.3,31.4,37.5,23.6,59c-7.7,21.2-29.3,33.9-58.4,28.7l-8.8,24.3L992.2,625.4z"/>
			</g>
		</g>
		<path class="st11" d="M1032.4,705.5c0,0,15.9-6.8,20.2-8.2c4.3-1.4,17.9-4,17.9-4s21.2-21.7,26.6-22.3
			c5.4-0.6-12.4,23.7-12.4,23.7l-7.4,7.1c0,0,11.9-10.2,14.2-11.6c2.3-1.4,20.2-27.3,24.7-25.6c4.5,1.7-7.7,19.9-13.6,29.5
			c-6,9.7-33.2,15.6-33.2,15.6L1032.4,705.5z"/>
		<path class="st6" d="M1222.5,775.7c0,4.3-96.6,5.4-116.6,91.1l-12.9-4.2c28.7-87.1,124.3-83.5,129-86.7c0.1,0,0.1-0.1,0.1-0.1
			H1222.5z"/>
	</g>
	<g>
		<path class="st6" d="M1628.8,1326.6l3.3-11.4c17.6-3.3,32.7-15.3,37.7-32.4c1.6-5.5,2.7-10.1,3.5-16.3l-23.5-6.8l4.2-14.4
			l21.2,6.2c0.8-7.2,2.1-16.5,4.7-25.4c7.8-26.9,31.4-39.2,56.8-31.8c7.2,2.1,12.8,4.8,17,7.6c3.8,2.5,4.8,7.7,2.3,11.5l0,0
			c-2.5,3.8-7.6,4.9-11.5,2.5c-3.2-2-7.3-3.9-12.5-5.4c-17.8-5.2-28.7,5-33.4,21.2c-2.9,9.8-3.6,17.5-4.4,25.2l32.9,9.6l-4.2,14.4
			l-31.1-9c-1.8,8.9-3.9,17.7-8.3,25.3c-5.4,9.1-13.2,15.7-22.9,20.1l-0.1,0.5l60,17.4c4.4,1.3,7,5.9,5.7,10.4l-0.2,0.6
			c-1.3,4.4-5.9,7-10.4,5.7L1628.8,1326.6z"/>
	</g>
</g>
</svg>
