<?xml version="1.0" encoding="utf-8"?>
<!-- Generator: Adobe Illustrator 23.0.0, SVG Export Plug-In . SVG Version: 6.00 Build 0)  -->
<svg version="1.1" xmlns="http://www.w3.org/2000/svg" xmlns:xlink="http://www.w3.org/1999/xlink" x="0px" y="0px"
	 viewBox="0 0 3710 3710" style="enable-background:new 0 0 3710 3710;" xml:space="preserve">
<style type="text/css">
	.st0{fill:none;}
	.st1{fill:url(#SVGID_1_);}
	.st2{fill:#BDD0FB;}
	.st3{fill:url(#SVGID_2_);}
	.st4{fill:#91B3FA;}
	.st5{opacity:0.5;fill:#FFFFFF;}
	.st6{fill:url(#SVGID_3_);}
	.st7{opacity:0.78;fill:#FFFFFF;}
	.st8{fill:url(#SVGID_4_);}
	.st9{fill:url(#SVGID_5_);}
	.st10{opacity:0.6;}
	.st11{fill:#FFFFFF;}
	.st12{opacity:0.6;fill:#FFFFFF;}
	.st13{fill:url(#SVGID_6_);}
	.st14{fill:url(#SVGID_7_);}
	.st15{fill:url(#SVGID_8_);}
	.st16{fill:url(#SVGID_9_);}
	.st17{fill:url(#SVGID_10_);}
	.st18{fill:url(#SVGID_11_);}
	.st19{fill:#7D97F4;}
	.st20{fill:url(#SVGID_12_);}
	.st21{fill:url(#SVGID_13_);}
	.st22{fill:url(#SVGID_14_);}
	.st23{fill:url(#SVGID_15_);}
	.st24{fill:url(#SVGID_16_);}
	.st25{fill:url(#SVGID_17_);}
	.st26{fill:url(#SVGID_18_);}
	.st27{fill:url(#SVGID_19_);}
	.st28{fill:url(#SVGID_20_);}
	.st29{filter:url(#Adobe_OpacityMaskFilter);}
	.st30{filter:url(#Adobe_OpacityMaskFilter_1_);}
	.st31{mask:url(#SVGID_21_);fill:url(#SVGID_22_);}
	.st32{fill:url(#SVGID_23_);}
	.st33{fill:url(#SVGID_24_);}
	.st34{fill:url(#SVGID_25_);}
	.st35{fill:url(#SVGID_26_);}
	.st36{fill:url(#SVGID_27_);}
	.st37{fill:url(#SVGID_28_);}
	.st38{fill:url(#SVGID_29_);}
	.st39{fill:url(#SVGID_30_);}
	.st40{fill:url(#SVGID_31_);}
	.st41{fill:url(#SVGID_32_);}
	.st42{fill:url(#SVGID_33_);}
	.st43{fill:url(#SVGID_34_);}
	.st44{fill:url(#SVGID_35_);}
	.st45{fill:url(#SVGID_36_);}
	.st46{fill:url(#SVGID_37_);}
	.st47{fill:url(#SVGID_38_);}
	.st48{fill:url(#SVGID_39_);}
	.st49{fill:url(#SVGID_40_);}
	.st50{fill:url(#SVGID_41_);}
</style>
<g id="Background">
	<g>
		<g>
			<rect class="st0" width="3710" height="3710"/>
		</g>
	</g>
</g>
<g id="Illustration">
	<g>
		<linearGradient id="SVGID_1_" gradientUnits="userSpaceOnUse" x1="3231.9402" y1="3481.468" x2="718.4438" y2="617.9866">
			<stop  offset="0" style="stop-color:#DAE3FE"/>
			<stop  offset="1" style="stop-color:#E9EFFD"/>
		</linearGradient>
		<path class="st1" d="M2887.1,2848.7c-506.2,534.2-1283.8,376.2-1398.7,350.8c-144.8-32-489.3-108.1-746.4-408.7
			c-393.6-460.1-353.8-1179.3-49.9-1664.1c88.4-141.1,386.1-560.3,945.1-651.5c32.7-5.3,616.4-90.9,1086,303.1
			c63.3,53.1,165.5,149.3,255.1,289.4C3256.1,1502.5,3387.7,2320.5,2887.1,2848.7z"/>
		<g>
			<g>
				<path class="st2" d="M2318.5,1431.1c-31.3,113.5-84,261.6-138.2,387.7l-19.5-3.4c68.1-151.7,143.3-362.5,176.5-615
					c33.5-254.6,25.6-572.3,166.8-698.6c117.5-105.1,528.3-51.6,662.8-30.7c16.8,2.6,23,23.6,10.3,34.9
					c-62.8,55.6-196.7,186.4-229.1,315.5c-42.7,170.2-200.4,281.8-343.4,314.7C2461.7,1169,2382.4,1199.4,2318.5,1431.1z"/>
				
					<linearGradient id="SVGID_2_" gradientUnits="userSpaceOnUse" x1="2481.9246" y1="616.9301" x2="2986.7786" y2="616.9301" gradientTransform="matrix(0.9849 0.1733 -0.1733 0.9849 78.0869 -171.1183)">
					<stop  offset="0" style="stop-color:#DAE3FE"/>
					<stop  offset="1" style="stop-color:#E9EFFD"/>
				</linearGradient>
				<path class="st3" d="M2980.5,548.1c-86.1,6.4-170.7,30.3-248,69.8c-38.7,19.6-75,44.3-107.6,73.3
					c-32.4,29.2-61.2,62.8-83.6,100.3l-8.4,14.1c-2.8,4.7-5.1,9.7-7.6,14.5c-2.4,4.9-5.1,9.8-7.3,14.6l-6.8,14.6
					c-9.1,19.4-18,38.9-26.8,58.5c-17.6,39.1-34.6,78.6-50.9,118.2c-32.8,79.3-63.1,159.7-88.4,241.8c-0.6,2,0.5,4.1,2.5,4.7
					c1.9,0.6,3.9-0.4,4.6-2.3l0-0.1c14.8-40,30.4-79.9,46.7-119.4c16.2-39.6,32.8-79,49.9-118.2l25.8-58.7l26.4-58.4
					c8.8-19.5,17.8-38.9,26.9-58.2l6.8-14.5c2.3-4.8,4.7-9.4,7.1-14.1c2.4-4.6,4.6-9.4,7.2-14l7.9-13.6c21.3-36.2,48.9-68.3,79.6-97
					c15.7-14,31.8-27.5,49.3-39.4l6.4-4.6l6.6-4.3c4.4-2.9,8.8-5.9,13.3-8.6c9.1-5.4,18-11,27.4-15.9c37-20.5,76.5-36.4,117-49.4
					c40.4-12.9,82.3-22.5,124.4-27.6l0.2,0c1.6-0.2,2.8-1.7,2.6-3.3C2983.5,549.1,2982.1,548,2980.5,548.1z"/>
			</g>
			<g>
				<path class="st4" d="M2547.8,1495.1c-21.9,137.1,14.5,191,35.4,241.2c3.7,8.9,9,21.5,14.9,36.6l-19.3,9.1
					c-5.5-21.9-12.2-43.4-20.5-63.7c-57-139.2-135.4-385.6-83.4-579.5c52-193.9,174.4-266.9,395.5-216.8
					c184.2,41.8,293.3,55.3,347.2,42c13.4-3.3,26.1,7.6,25.3,21.3c-4.2,73.1-30.8,248.9-185.4,310.1
					C2860.4,1373.4,2569.7,1358,2547.8,1495.1z"/>
				<path class="st5" d="M2894.2,1114.9c-15.3-5.1-30.8-8.9-46.5-12.2c-15.7-3.3-31.5-6-47.5-7.8c-31.9-3.7-64.5-4.3-96.9,0
					c-16.2,2.2-32.3,5.6-48,10.6c-15.7,5.2-30.9,12-45.1,21c-3.5,2.4-7.1,4.5-10.4,7.1c-3.3,2.6-6.7,5.1-9.8,7.8l-18,16.5
					l-16.9,17.7l-15.5,19c-19.7,26.2-34.7,56-44.1,87.3c-9.6,31.3-13.3,63.9-13.8,96.2l-0.2,12.1c-0.1,4,0.3,8.1,0.4,12.1
					c0.5,8,0.7,16.1,1.3,24.1l2.6,23.9c0.7,8,2.4,15.8,3.7,23.8c5.1,31.6,12.9,62.6,21.5,93.3c0.5,1.7,2.3,2.7,4,2.2
					c1.6-0.5,2.6-2.1,2.3-3.7l0-0.1c-6.4-31-13-62-16.4-93.3c-2.2-15.6-3.1-31.3-4.4-47c-0.4-7.8-0.4-15.7-0.6-23.5
					c0-3.9-0.3-7.8-0.1-11.7l0.5-11.7c1.3-31.2,6.1-62.1,15.4-91.5c9.3-29.4,23.8-56.9,42.4-81.5l14.7-17.8l16-16.7l17.2-15.6
					c2.9-2.5,5.9-4.7,8.8-7c2.9-2.3,6.2-4.2,9.3-6.4c12.7-8.1,26.5-14.5,40.9-19.4c14.4-5,29.4-8.5,44.7-10.9
					c30.6-4.8,62-5.3,93.2-3.4c15.6,1.1,31.3,2.5,46.9,4.7c15.6,2.2,31.2,5,46.5,8.4l0.1,0c1.8,0.4,3.6-0.7,4-2.5
					C2896.8,1117.1,2895.8,1115.5,2894.2,1114.9z"/>
			</g>
		</g>
		<g>
			<linearGradient id="SVGID_3_" gradientUnits="userSpaceOnUse" x1="1547.0253" y1="3065.0447" x2="1410.5895" y2="-973.5223">
				<stop  offset="0" style="stop-color:#09005D"/>
				<stop  offset="1" style="stop-color:#1A0F91"/>
			</linearGradient>
			<path class="st6" d="M587.1,937.4c0-96.3,78.1-174.4,174.4-174.4H2245c81.8,0,149.3,64.1,153.5,145.9L2508,3059.5
				c3.3,64-47.1,117.9-111.1,119.1l-1700.2,30.9c-60.2,1.1-109.5-47.4-109.5-107.6V937.4z"/>
			<g>
				<path class="st4" d="M708.7,796c-0.2-30.8,26.9-54.7,57.5-50.5c202.6,27.5,899.2,112.4,1475.1,68.2c26.3-2,49.1,17.9,50.5,44.2
					l114.8,2160.3c1.6,29.6-21,55-50.7,56.7c-242.2,14.3-1239.8,69.8-1595.7,32.5c-21.7-2.3-38.1-20.5-38.2-42.3L708.7,796z"/>
				<path class="st2" d="M732.5,850.2c-0.2-29.7,25.9-52.6,55.3-48.6c195,26.4,865.3,108.2,1419.6,65.7
					c25.3-1.9,47.2,17.2,48.6,42.5l110.5,2079c1.5,28.5-20.3,52.9-48.7,54.6c-233.1,13.8-1193.1,67.1-1535.6,31.3
					c-20.8-2.2-36.7-19.7-36.8-40.7L732.5,850.2z"/>
				<path class="st7" d="M913,1010.5l20.7,445.7c0.7,14.8,12.7,26.6,27.5,27c82.5,2.3,339.8,8.6,485,1c16.4-0.9,29.4-14.1,30-30.6
					c2.8-83.6,8.8-326.9-10.2-428.6c-3.1-16.4-17.2-28.5-33.9-29L944.2,979C926.6,978.3,912.2,992.9,913,1010.5z"/>
				<linearGradient id="SVGID_4_" gradientUnits="userSpaceOnUse" x1="1162.9949" y1="1253.7015" x2="1538.6909" y2="229.0758">
					<stop  offset="0" style="stop-color:#FF928E"/>
					<stop  offset="1" style="stop-color:#FE7062"/>
				</linearGradient>
				<circle class="st8" cx="1193.8" cy="1169.8" r="95.8"/>
				<linearGradient id="SVGID_5_" gradientUnits="userSpaceOnUse" x1="1251.8356" y1="1286.2773" x2="1627.532" y2="261.6507">
					<stop  offset="0" style="stop-color:#FF928E"/>
					<stop  offset="1" style="stop-color:#FE7062"/>
				</linearGradient>
				<path class="st9" d="M1048.2,1451.1h305.2c18.7,0,29.9-20.7,19.8-36.4c-25.9-40.6-80.2-100.2-174.1-97.5
					c-90.5,2.6-144.2,56.4-171.2,95C1016.5,1428.6,1028.2,1451.1,1048.2,1451.1z"/>
				<g class="st10">
					<path class="st11" d="M2146.6,1049.3c2.4,0,4.4-2,4.3-4.4l-0.6-21c-0.1-2.4-2.1-4.5-4.6-4.5l-560.9-10c-2.4,0-3.8,1.8-3,4.1
						l11.2,31.7c0.8,2.3,3.5,4.2,5.9,4.2H2146.6z"/>
				</g>
				<g class="st10">
					<path class="st11" d="M1584.8,1092.4c-2.4,0-3.8,1.8-3,4.1l11.2,31.7c0.8,2.3,3.5,4.2,5.9,4.2h547.7c2.4,0,4.4-2,4.3-4.4
						l-0.6-21c-0.1-2.4-2.1-4.5-4.6-4.5L1584.8,1092.4z"/>
				</g>
				<g class="st10">
					<path class="st11" d="M1584.8,1176.7c-2.4,0-3.8,1.8-3,4.1l11.2,31.7c0.8,2.3,3.5,4.2,5.9,4.2h547.7c2.4,0,4.4-2,4.3-4.4
						l-0.6-21c-0.1-2.4-2.1-4.5-4.6-4.5L1584.8,1176.7z"/>
				</g>
				<g class="st10">
					<path class="st11" d="M2198.6,1623.2c2.4,0,4.3-2,4.1-4.4l-1.4-21c-0.2-2.4-2.3-4.4-4.7-4.5l-1279.3-10.1
						c-2.4,0-3.2,1.5-1.7,3.4l26.4,33.1c1.5,1.9,4.8,3.5,7.2,3.5H2198.6z"/>
				</g>
				<g class="st10">
					<path class="st11" d="M917.3,1666.3c-2.4,0-3.2,1.5-1.7,3.4l26.4,33.1c1.5,1.9,4.8,3.5,7.2,3.5h1249.4c2.4,0,4.3-2,4.1-4.4
						l-1.4-21c-0.2-2.4-2.3-4.4-4.7-4.5L917.3,1666.3z"/>
				</g>
				<g>
					<path class="st11" d="M1086.3,2233c-0.1,0-0.2,0-0.3,0l-105.8-1c-15.1-0.1-27.6-10.5-29-24.2l-9.3-88.8
						c-0.5-5.2,1.1-10.4,4.6-14.5c3.9-4.6,9.8-7.5,16.2-8l0,0c8.9-0.6,21.5-1.7,34.8-2.8c28-2.4,62.8-5.3,82.4-5.6
						c14.2-0.1,26.3,8.3,29.6,20.7c5.5,20.4,5,58.9,4,100C1113.1,2222.2,1101,2233,1086.3,2233z M963.2,2104.6
						c-4.2,0.3-8,2.1-10.5,5.1c-2.1,2.4-3,5.4-2.7,8.4l9.3,88.8c1,9.5,10,16.8,21,16.9l105.8,1c0.1,0,0.1,0,0.2,0
						c10.3,0,18.7-7.2,19-16.2c1-40.5,1.5-78.4-3.7-97.7c-2.3-8.7-11.4-14.7-21.7-14.7c-19.3,0.2-54,3.2-81.8,5.6
						C984.8,2102.9,972.2,2104,963.2,2104.6L963.2,2104.6z"/>
					<path class="st12" d="M974.6,2113.8c22.2-1.5,70.5-6.4,93.4-6.7c9.7-0.1,18.2,5.7,20.5,14.2c4.4,16.3,3.8,48.9,3.1,79
						c-0.2,9-8.5,16.2-18.6,16.1l-84.5-0.8c-10.4-0.1-19-7.2-20-16.4l-7.4-70.9C960.3,2120.9,966.4,2114.4,974.6,2113.8z"/>
					<g class="st10">
						<path class="st11" d="M1179.3,2174c3.1,11.6,13.6,19.7,25.6,19.6l978.8-8.3c11.1-0.1,19.9-9.2,19.7-20.3
							c-0.2-10.8-9-19.4-19.8-19.4l-978.8-4.5C1187.5,2141,1174.8,2157.3,1179.3,2174z"/>
					</g>
					<linearGradient id="SVGID_6_" gradientUnits="userSpaceOnUse" x1="1289.7396" y1="1689.0652" x2="749.5572" y2="2611.0298">
						<stop  offset="0" style="stop-color:#E1473D"/>
						<stop  offset="1" style="stop-color:#E9605A"/>
					</linearGradient>
					<path class="st13" d="M979.1,2127.7L979.1,2127.7c7.9-4.6,18-1.9,22.4,6.1l20.9,37.4c2.1,3.7,7.6,3.5,9.3-0.4l51.8-115.2
						c2.6-5.7,11.1-3.8,11,2.5c-0.5,35.2-9.9,102.2-66.2,158.3c0,0-31-12.1-56-66.9C968.7,2141.5,971.6,2132.1,979.1,2127.7z"/>
					<path class="st11" d="M1086.3,2459.7c-0.1,0-0.2,0-0.3,0l-105.8-1c-15.1-0.1-27.6-10.5-29-24.2l-9.3-88.8
						c-0.5-5.2,1.1-10.4,4.6-14.5c3.9-4.6,9.8-7.5,16.2-8l0,0c8.9-0.6,21.5-1.7,34.8-2.8c28-2.4,62.8-5.3,82.4-5.6
						c0.1,0,0.3,0,0.4,0c13.9,0,25.9,8.5,29.2,20.7c5.5,20.4,5,58.9,4,100C1113.1,2449,1101,2459.7,1086.3,2459.7z M963.2,2331.4
						c-4.2,0.3-8,2.2-10.5,5.1c-2.1,2.4-3,5.4-2.7,8.4l9.3,88.8c1,9.5,10,16.8,21,16.9l105.8,1c0.1,0,0.1,0,0.2,0
						c10.3,0,18.7-7.2,19-16.2c1-40.5,1.5-78.4-3.7-97.7c-2.3-8.7-11.5-14.9-21.7-14.7c-19.3,0.2-54,3.2-81.8,5.6
						C984.8,2329.7,972.2,2330.7,963.2,2331.4L963.2,2331.4z"/>
					<path class="st12" d="M974.6,2340.5c22.2-1.5,70.5-6.4,93.4-6.7c9.7-0.1,18.2,5.7,20.5,14.2c4.4,16.3,3.8,48.9,3.1,79
						c-0.2,9-8.5,16.2-18.6,16.1l-84.5-0.8c-10.4-0.1-19-7.2-20-16.4l-7.4-70.9C960.3,2347.6,966.4,2341.1,974.6,2340.5z"/>
					<g class="st10">
						<path class="st11" d="M1179.3,2400.8c3.1,11.6,13.6,19.7,25.6,19.6l978.8-8.3c11.1-0.1,19.9-9.2,19.7-20.3
							c-0.2-10.8-9-19.4-19.8-19.4l-978.8-4.5C1187.5,2367.7,1174.8,2384.1,1179.3,2400.8z"/>
					</g>
					<linearGradient id="SVGID_7_" gradientUnits="userSpaceOnUse" x1="1388.6326" y1="1747.006" x2="848.4489" y2="2668.9724">
						<stop  offset="0" style="stop-color:#E1473D"/>
						<stop  offset="1" style="stop-color:#E9605A"/>
					</linearGradient>
					<path class="st14" d="M979.1,2354.4L979.1,2354.4c7.9-4.6,18-1.9,22.4,6.1l20.9,37.4c2.1,3.7,7.6,3.5,9.3-0.4l51.8-115.2
						c2.6-5.7,11.1-3.8,11,2.5c-0.5,35.2-9.9,102.2-66.2,158.3c0,0-31-12.1-56-66.9C968.7,2368.3,971.6,2358.8,979.1,2354.4z"/>
					<path class="st11" d="M1086.3,2686.4c-0.1,0-0.2,0-0.3,0l-105.8-1c-15.1-0.1-27.6-10.5-29-24.2l-9.3-88.8
						c-0.5-5.2,1.1-10.4,4.6-14.5c3.9-4.6,9.8-7.5,16.2-8l0,0c8.9-0.6,21.5-1.7,34.8-2.8c28-2.4,62.8-5.3,82.4-5.6
						c0.1,0,0.3,0,0.4,0c13.9,0,25.9,8.5,29.2,20.7c5.5,20.4,5,58.9,4,100C1113.1,2675.7,1101,2686.4,1086.3,2686.4z M963.2,2558.1
						c-4.2,0.3-8,2.1-10.5,5.1c-2.1,2.4-3,5.4-2.7,8.4l9.3,88.8c1,9.5,10,16.8,21,16.9l105.8,1c0.1,0,0.1,0,0.2,0
						c10.3,0,18.7-7.2,19-16.2c1-40.5,1.5-78.4-3.7-97.7c-2.3-8.7-11.5-14.9-21.7-14.7c-19.3,0.2-54,3.2-81.8,5.6
						C984.8,2556.4,972.2,2557.5,963.2,2558.1L963.2,2558.1z"/>
					<path class="st12" d="M974.6,2567.2c22.2-1.5,70.5-6.4,93.4-6.7c9.7-0.1,18.2,5.7,20.5,14.2c4.4,16.3,3.8,48.9,3.1,79
						c-0.2,9-8.5,16.2-18.6,16.1l-84.5-0.8c-10.4-0.1-19-7.2-20-16.4l-7.4-70.9C960.3,2574.3,966.4,2567.8,974.6,2567.2z"/>
					<g class="st10">
						<path class="st11" d="M1179.3,2627.5c3.1,11.6,13.6,19.7,25.6,19.6l978.8-8.3c11.1-0.1,19.9-9.2,19.7-20.3
							c-0.2-10.8-9-19.4-19.8-19.4l-978.8-4.5C1187.5,2594.5,1174.8,2610.8,1179.3,2627.5z"/>
					</g>
					<linearGradient id="SVGID_8_" gradientUnits="userSpaceOnUse" x1="1471.7828" y1="1974.2821" x2="761.0159" y2="2965.2939">
						<stop  offset="0" style="stop-color:#E1473D"/>
						<stop  offset="1" style="stop-color:#E9605A"/>
					</linearGradient>
					<path class="st15" d="M979.1,2581.2L979.1,2581.2c7.9-4.6,18-1.9,22.4,6.1l20.9,37.4c2.1,3.7,7.6,3.5,9.3-0.4l51.8-115.2
						c2.6-5.7,11.1-3.8,11,2.5c-0.5,35.2-9.9,102.2-66.2,158.3c0,0-31-12.1-56-66.9C968.7,2595,971.6,2585.6,979.1,2581.2z"/>
					<path class="st11" d="M1086.3,2913.2c-0.1,0-0.2,0-0.3,0l-105.8-1c-15.1-0.1-27.6-10.5-29-24.2l-9.3-88.8
						c-0.5-5.2,1.1-10.4,4.6-14.5c3.9-4.6,9.8-7.5,16.2-8l0,0c8.9-0.6,21.5-1.7,34.8-2.8c28-2.4,62.8-5.3,82.4-5.6
						c0.1,0,0.3,0,0.4,0c13.9,0,25.9,8.5,29.2,20.7c5.5,20.4,5,58.9,4,100C1113.1,2902.4,1101,2913.2,1086.3,2913.2z M963.2,2784.8
						c-4.2,0.3-8,2.1-10.5,5.1c-2.1,2.4-3,5.4-2.7,8.4l9.3,88.8c1,9.5,10,16.8,21,16.9l105.8,1c0.1,0,0.1,0,0.2,0
						c10.3,0,18.7-7.2,19-16.2c1-40.5,1.5-78.4-3.7-97.7c-2.3-8.7-11.5-14.9-21.7-14.7c-19.3,0.2-54,3.2-81.8,5.6
						C984.8,2783.1,972.2,2784.2,963.2,2784.8L963.2,2784.8z"/>
					<path class="st12" d="M974.6,2794c22.2-1.5,70.5-6.4,93.4-6.7c9.7-0.1,18.2,5.7,20.5,14.2c4.4,16.3,3.8,48.9,3.1,79
						c-0.2,9-8.5,16.2-18.6,16.1l-84.5-0.8c-10.4-0.1-19-7.2-20-16.4l-7.4-70.9C960.3,2801,966.4,2794.5,974.6,2794z"/>
					<g class="st10">
						<path class="st11" d="M1179.3,2854.2L1179.3,2854.2c3.1,11.6,13.6,19.7,25.6,19.6l978.8-8.3c11.1-0.1,19.9-9.2,19.7-20.3
							c-0.2-10.8-9-19.4-19.8-19.4l-978.8-4.5C1187.5,2821.2,1174.8,2837.5,1179.3,2854.2z"/>
					</g>
				</g>
				<path class="st11" d="M1071.7,2011.1c-0.1,0-0.2,0-0.3,0l-105.8-1c-15.1-0.1-27.6-10.5-29-24.2l-9.3-88.8
					c-0.5-5.2,1.1-10.4,4.6-14.5c3.9-4.6,9.8-7.5,16.2-8l0,0c8.9-0.6,21.5-1.7,34.8-2.8c28-2.4,62.8-5.3,82.4-5.6c0.1,0,0.3,0,0.4,0
					c13.9,0,25.9,8.5,29.2,20.7c5.5,20.4,5,58.9,4,100C1098.4,2000.4,1086.3,2011.1,1071.7,2011.1z M948.6,1882.8
					c-4.2,0.3-8,2.1-10.5,5.1c-2.1,2.4-3,5.4-2.7,8.4l9.3,88.8c1,9.5,10,16.8,21,16.9l105.8,1c0.1,0,0.1,0,0.2,0
					c10.3,0,18.7-7.2,19-16.2c1-40.5,1.5-78.4-3.7-97.7c-2.3-8.7-11.5-14.9-21.7-14.7c-19.3,0.2-54,3.2-81.8,5.6
					C970.1,1881.1,957.6,1882.2,948.6,1882.8L948.6,1882.8z"/>
				<path class="st12" d="M960,1891.9c22.2-1.5,70.5-6.4,93.4-6.7c9.7-0.1,18.2,5.7,20.5,14.2c4.4,16.3,3.8,48.9,3.1,79
					c-0.2,9-8.5,16.2-18.6,16.1l-84.5-0.8c-10.4-0.1-19-7.2-20-16.4l-7.4-70.9C945.6,1899,951.7,1892.5,960,1891.9z"/>
				<g class="st10">
					<path class="st11" d="M1164.6,1952.2L1164.6,1952.2c3.1,11.6,13.6,19.7,25.6,19.6l978.8-8.3c11.1-0.1,19.9-9.2,19.7-20.3
						c-0.2-10.8-9-19.4-19.8-19.4l-978.8-4.5C1172.8,1919.1,1160.2,1935.5,1164.6,1952.2z"/>
				</g>
				<linearGradient id="SVGID_9_" gradientUnits="userSpaceOnUse" x1="1571.759" y1="960.8394" x2="1031.5759" y2="1882.8049">
					<stop  offset="0" style="stop-color:#E1473D"/>
					<stop  offset="1" style="stop-color:#E9605A"/>
				</linearGradient>
				<path class="st16" d="M964.5,1905.8L964.5,1905.8c7.9-4.6,18-1.9,22.4,6.1l20.9,37.4c2.1,3.7,7.6,3.5,9.3-0.4l51.8-115.2
					c2.6-5.7,11.1-3.8,11,2.5c-0.5,35.2-9.9,102.2-66.2,158.3c0,0-31-12.1-56-66.9C954,1919.7,957,1910.3,964.5,1905.8z"/>
			</g>
			<linearGradient id="SVGID_10_" gradientUnits="userSpaceOnUse" x1="1760.8176" y1="248.2701" x2="1078.4835" y2="1145.8646">
				<stop  offset="0" style="stop-color:#09005D"/>
				<stop  offset="1" style="stop-color:#1A0F91"/>
			</linearGradient>
			<path class="st17" d="M1595.3,469.7c-53.6-37.3-100.2-36.5-133-26.9c-29.9,8.8-49.3,37.7-46.5,68.8L1430,666l168.3,14.9
				C1598.3,680.9,1700.4,542.8,1595.3,469.7z M1521.3,594.3c-23.2,0-42-18.8-42-42c0-23.2,18.8-42,42-42c23.2,0,42,18.8,42,42
				C1563.3,575.5,1544.5,594.3,1521.3,594.3z"/>
			<path class="st4" d="M1446.8,601.1c-2.1,0-3.8-1.6-4-3.7l-2.3-24.6c-0.2-2.2,1.4-4.2,3.7-4.4c2.3-0.2,4.2,1.4,4.4,3.7l2.3,24.6
				c0.2,2.2-1.4,4.2-3.7,4.4C1447.1,601.1,1447,601.1,1446.8,601.1z M1442.4,552.9c-2.1,0-3.8-1.6-4-3.7l-1.7-18.7
				c-2.7-29.6,15.9-57.1,44.3-65.5c20.1-5.9,40.8-6.8,61.5-2.5c2.2,0.4,3.6,2.6,3.2,4.8c-0.5,2.2-2.6,3.6-4.8,3.2
				c-19.4-4-38.8-3.2-57.6,2.4c-24.7,7.3-40.8,31.2-38.5,57l1.7,18.7c0.2,2.2-1.4,4.2-3.7,4.4
				C1442.7,552.9,1442.5,552.9,1442.4,552.9z"/>
			<linearGradient id="SVGID_11_" gradientUnits="userSpaceOnUse" x1="1835.6644" y1="305.1653" x2="1153.3296" y2="1202.7607">
				<stop  offset="0" style="stop-color:#09005D"/>
				<stop  offset="1" style="stop-color:#1A0F91"/>
			</linearGradient>
			<path class="st18" d="M1200.3,765.8v-77.6c0-26.8,22.2-48.3,49-47.3l535.2,18.3c23.8,0.8,43,19.6,44.4,43.3l4.5,74.6
				L1200.3,765.8z"/>
			<path class="st4" d="M1399.8,670.1h-23c-2.2,0-4.1-1.8-4.1-4.1c0-2.2,1.8-4.1,4.1-4.1h23c2.2,0,4.1,1.8,4.1,4.1
				C1403.9,668.3,1402.1,670.1,1399.8,670.1z"/>
			<path class="st4" d="M1229.3,741.4c-2.2,0-4.1-1.8-4.1-4.1v-31.4c0-24.3,19.7-44,44-44h84.6c2.2,0,4.1,1.8,4.1,4.1
				c0,2.2-1.8,4.1-4.1,4.1h-84.6c-19.8,0-35.9,16.1-35.9,35.9v31.4C1233.3,739.6,1231.5,741.4,1229.3,741.4z"/>
			<path class="st19" d="M982.2,785.4c1.3-26.9,23.5-48,50.4-48l935.8,0c33.7,0,62.4,24.2,68.2,57.4l0.8,4.6
				c6.3,36.3-21.7,69.5-58.5,69.5h-960.1c-22.1,0-39.6-18.4-38.6-40.5L982.2,785.4z"/>
		</g>
		<g>
			<g>
				<linearGradient id="SVGID_12_" gradientUnits="userSpaceOnUse" x1="2041.2195" y1="2293.04" x2="3734.0017" y2="1130.4668">
					<stop  offset="0" style="stop-color:#4F52FF"/>
					<stop  offset="1" style="stop-color:#4042E2"/>
				</linearGradient>
				<path class="st20" d="M1521.5,1449.6c12.7-11.9,29.8-17.8,47.2-16.2c185.2,16.7,530.8-72.6,756.7-303.7c15.7-16,44.3-7,62.3,6.5
					c251.2,187.7,667.6,226.6,812.1,234.6c29.9,1.6,54.2,24.8,57.2,54.6c131.5,1269.6-695.2,1729.7-866.6,1810.9
					c-18.7,8.9-40.8,7.6-58.4-3.4c-854.5-532.2-817.9-1224.4-829.7-1737.3C1501.8,1478.2,1508.8,1461.5,1521.5,1449.6z"/>
				<path class="st4" d="M2367.2,3144.9c-4,0-8-1.1-11.4-3.3c-327.7-209.5-541.4-460-653.1-765.8
					c-99.7-273.1-104.6-551.1-108.9-796.3l-0.6-32.7c-0.1-5.7,2-11,6-15.1c4-4.1,9.4-6.3,15.1-6.3h0c202.7,0,507-89.5,730.1-289.5
					c7.1-6.4,17.7-7.2,25.7-1.9c245.2,162.7,595.1,210.1,781.8,223.9c10.3,0.8,18.5,8.8,19.4,19.2
					c43.4,495.6-59.7,914.7-306.4,1245.6c-184.3,247.2-402.9,376-488.3,419.9l0,0C2373.8,3144.1,2370.5,3144.9,2367.2,3144.9z
					 M1614.6,1535.3c-3.2,0-6.1,1.2-8.2,3.3c-2.1,2.1-3.2,4.9-3.1,7.9l0.6,32.7c4.3,244.5,9.2,521.6,108.3,793.1
					c110.9,303.6,323.2,552.5,649.1,760.8c3.3,2.1,7.6,2.3,11.1,0.5l0,0c84.8-43.6,301.8-171.5,484.8-417
					c245.3-328.9,347.7-745.7,304.5-1238.8c-0.5-5.5-4.8-9.7-10.2-10.1c-187.7-13.8-539.5-61.5-786.6-225.5c-4.2-2.8-9.8-2.4-13.5,1
					C2126.1,1445,1819,1535.3,1614.6,1535.3L1614.6,1535.3z"/>
			</g>
		</g>
		<g>
			<linearGradient id="SVGID_13_" gradientUnits="userSpaceOnUse" x1="699.5376" y1="3645.6365" x2="761.015" y2="3193.0938">
				<stop  offset="0" style="stop-color:#4F52FF"/>
				<stop  offset="1" style="stop-color:#4042E2"/>
			</linearGradient>
			<path class="st21" d="M450.5,2957.6l7,218.3c1.2,38.1,32.5,68.3,70.7,68.6l522.7,3.1c25.6,0.2,47.4-18.4,51.1-43.6
				c8.2-55.1,18.6-153.7,6.9-246.3H450.5z"/>
			<path class="st11" d="M1032.4,3234.1L1032.4,3234.1l-3.8,0c-0.4,0-0.6-0.3-0.6-0.6c0-0.3,0.3-0.6,0.6-0.6h0l3.8,0
				c0.4,0,0.6,0.3,0.6,0.6C1033,3233.8,1032.7,3234.1,1032.4,3234.1z M1041.3,3234c-0.3,0-0.6-0.3-0.6-0.6c0-0.3,0.2-0.7,0.6-0.7
				c1.2-0.1,2.5-0.2,3.7-0.4c0.3-0.1,0.7,0.2,0.7,0.5c0,0.3-0.2,0.7-0.5,0.7C1043.9,3233.8,1042.6,3234,1041.3,3234
				C1041.3,3234,1041.3,3234,1041.3,3234z M1019.7,3234L1019.7,3234l-3.8,0c-0.4,0-0.6-0.3-0.6-0.6c0-0.3,0.3-0.6,0.6-0.6h0l3.8,0
				c0.4,0,0.6,0.3,0.6,0.6C1020.3,3233.8,1020,3234,1019.7,3234z M1007,3234L1007,3234l-3.8,0c-0.4,0-0.6-0.3-0.6-0.6
				c0-0.3,0.3-0.6,0.6-0.6h0l3.8,0c0.4,0,0.6,0.3,0.6,0.6C1007.6,3233.7,1007.4,3234,1007,3234z M994.3,3233.9L994.3,3233.9l-3.8,0
				c-0.4,0-0.6-0.3-0.6-0.6c0-0.4,0.3-0.6,0.6-0.6l3.8,0c0.4,0,0.6,0.3,0.6,0.6C994.9,3233.6,994.7,3233.9,994.3,3233.9z
				 M981.6,3233.8L981.6,3233.8l-3.8,0c-0.4,0-0.6-0.3-0.6-0.6c0-0.3,0.3-0.6,0.6-0.6h0l3.8,0c0.4,0,0.6,0.3,0.6,0.6
				C982.3,3233.5,982,3233.8,981.6,3233.8z M968.9,3233.7L968.9,3233.7l-3.8,0c-0.4,0-0.6-0.3-0.6-0.6c0-0.4,0.3-0.6,0.6-0.6l3.8,0
				c0.4,0,0.6,0.3,0.6,0.6C969.6,3233.5,969.3,3233.7,968.9,3233.7z M956.2,3233.7L956.2,3233.7l-3.8,0c-0.4,0-0.6-0.3-0.6-0.6
				c0-0.3,0.3-0.6,0.6-0.6h0l3.8,0c0.4,0,0.6,0.3,0.6,0.6C956.9,3233.4,956.6,3233.7,956.2,3233.7z M943.6,3233.6L943.6,3233.6
				l-3.8,0c-0.4,0-0.6-0.3-0.6-0.6c0-0.3,0.3-0.6,0.6-0.6h0l3.8,0c0.4,0,0.6,0.3,0.6,0.6C944.2,3233.3,943.9,3233.6,943.6,3233.6z
				 M930.9,3233.5L930.9,3233.5l-3.8,0c-0.4,0-0.6-0.3-0.6-0.6c0-0.3,0.3-0.6,0.6-0.6h0l3.8,0c0.4,0,0.6,0.3,0.6,0.6
				C931.5,3233.2,931.2,3233.5,930.9,3233.5z M918.2,3233.4L918.2,3233.4l-3.8,0c-0.4,0-0.6-0.3-0.6-0.6c0-0.3,0.3-0.6,0.6-0.6h0
				l3.8,0c0.4,0,0.6,0.3,0.6,0.6C918.8,3233.2,918.5,3233.4,918.2,3233.4z M905.5,3233.4L905.5,3233.4l-3.8,0
				c-0.4,0-0.6-0.3-0.6-0.6c0-0.3,0.3-0.6,0.6-0.6h0l3.8,0c0.4,0,0.6,0.3,0.6,0.6C906.1,3233.1,905.8,3233.4,905.5,3233.4z
				 M892.8,3233.3L892.8,3233.3l-3.8,0c-0.4,0-0.6-0.3-0.6-0.6c0-0.3,0.3-0.6,0.6-0.6h0l3.8,0c0.4,0,0.6,0.3,0.6,0.6
				C893.4,3233,893.1,3233.3,892.8,3233.3z M880.1,3233.2L880.1,3233.2l-3.8,0c-0.4,0-0.6-0.3-0.6-0.6c0-0.3,0.3-0.6,0.6-0.6h0
				l3.8,0c0.4,0,0.6,0.3,0.6,0.6C880.7,3232.9,880.4,3233.2,880.1,3233.2z M867.4,3233.1L867.4,3233.1l-3.8,0
				c-0.4,0-0.6-0.3-0.6-0.6c0-0.3,0.3-0.6,0.6-0.6h0l3.8,0c0.4,0,0.6,0.3,0.6,0.6C868,3232.9,867.8,3233.1,867.4,3233.1z
				 M854.7,3233.1L854.7,3233.1l-3.8,0c-0.4,0-0.6-0.3-0.6-0.6c0-0.3,0.3-0.6,0.6-0.6h0l3.8,0c0.4,0,0.6,0.3,0.6,0.6
				C855.3,3232.8,855.1,3233.1,854.7,3233.1z M842,3233L842,3233l-3.8,0c-0.4,0-0.6-0.3-0.6-0.6c0-0.3,0.3-0.6,0.6-0.6l3.8,0
				c0.4,0,0.6,0.3,0.6,0.6C842.7,3232.7,842.4,3233,842,3233z M829.3,3232.9L829.3,3232.9l-3.8,0c-0.4,0-0.6-0.3-0.6-0.6
				c0-0.3,0.3-0.6,0.6-0.6h0l3.8,0c0.4,0,0.6,0.3,0.6,0.6C830,3232.6,829.7,3232.9,829.3,3232.9z M816.6,3232.8L816.6,3232.8l-3.8,0
				c-0.4,0-0.6-0.3-0.6-0.6s0.3-0.6,0.6-0.6l3.8,0c0.4,0,0.6,0.3,0.6,0.6C817.3,3232.6,817,3232.8,816.6,3232.8z M803.9,3232.8
				L803.9,3232.8l-3.8,0c-0.4,0-0.6-0.3-0.6-0.6c0-0.3,0.3-0.6,0.6-0.6h0l3.8,0c0.4,0,0.6,0.3,0.6,0.6
				C804.6,3232.5,804.3,3232.8,803.9,3232.8z M791.3,3232.7L791.3,3232.7l-3.8,0c-0.4,0-0.6-0.3-0.6-0.6c0-0.4,0.3-0.6,0.6-0.6
				l3.8,0c0.4,0,0.6,0.3,0.6,0.6C791.9,3232.4,791.6,3232.7,791.3,3232.7z M778.6,3232.6L778.6,3232.6l-3.8,0
				c-0.4,0-0.6-0.3-0.6-0.6c0-0.3,0.3-0.6,0.6-0.6h0l3.8,0c0.4,0,0.6,0.3,0.6,0.6C779.2,3232.3,778.9,3232.6,778.6,3232.6z
				 M765.9,3232.5L765.9,3232.5l-3.8,0c-0.4,0-0.6-0.3-0.6-0.6c0-0.3,0.3-0.6,0.6-0.6h0l3.8,0c0.4,0,0.6,0.3,0.6,0.6
				C766.5,3232.3,766.2,3232.5,765.9,3232.5z M753.2,3232.5L753.2,3232.5l-3.8,0c-0.3,0-0.6-0.3-0.6-0.6c0-0.3,0.3-0.6,0.6-0.6h0
				l3.8,0c0.4,0,0.6,0.3,0.6,0.6C753.8,3232.2,753.5,3232.5,753.2,3232.5z M740.5,3232.4L740.5,3232.4l-3.8,0
				c-0.3,0-0.6-0.3-0.6-0.6c0-0.3,0.3-0.6,0.6-0.6h0l3.8,0c0.4,0,0.6,0.3,0.6,0.6C741.1,3232.1,740.8,3232.4,740.5,3232.4z
				 M727.8,3232.3L727.8,3232.3l-3.8,0c-0.4,0-0.6-0.3-0.6-0.6c0-0.3,0.3-0.6,0.6-0.6h0l3.8,0c0.4,0,0.6,0.3,0.6,0.6
				C728.4,3232,728.2,3232.3,727.8,3232.3z M715.1,3232.2L715.1,3232.2l-3.8,0c-0.4,0-0.6-0.3-0.6-0.6c0-0.3,0.3-0.6,0.6-0.6h0
				l3.8,0c0.4,0,0.6,0.3,0.6,0.6C715.7,3232,715.5,3232.2,715.1,3232.2z M702.4,3232.2L702.4,3232.2l-3.8,0c-0.4,0-0.6-0.3-0.6-0.6
				c0-0.3,0.3-0.6,0.6-0.6h0l3.8,0c0.4,0,0.6,0.3,0.6,0.6C703.1,3231.9,702.8,3232.2,702.4,3232.2z M689.7,3232.1L689.7,3232.1
				l-3.8,0c-0.4,0-0.6-0.3-0.6-0.6c0-0.3,0.3-0.6,0.6-0.6h0l3.8,0c0.4,0,0.6,0.3,0.6,0.6C690.4,3231.8,690.1,3232.1,689.7,3232.1z
				 M677,3232L677,3232l-3.8,0c-0.4,0-0.6-0.3-0.6-0.6c0-0.3,0.3-0.6,0.6-0.6h0l3.8,0c0.4,0,0.6,0.3,0.6,0.6
				C677.7,3231.7,677.4,3232,677,3232z M664.3,3231.9L664.3,3231.9l-3.8,0c-0.4,0-0.6-0.3-0.6-0.6c0-0.3,0.3-0.6,0.6-0.6l3.8,0
				c0.3,0,0.6,0.3,0.6,0.6C665,3231.7,664.7,3231.9,664.3,3231.9z M651.7,3231.9L651.7,3231.9l-3.8,0c-0.4,0-0.6-0.3-0.6-0.6
				c0-0.3,0.3-0.6,0.6-0.6h0l3.8,0c0.3,0,0.6,0.3,0.6,0.6C652.3,3231.6,652,3231.9,651.7,3231.9z M639,3231.8L639,3231.8l-3.8,0
				c-0.4,0-0.6-0.3-0.6-0.6c0-0.4,0.3-0.6,0.6-0.6l3.8,0c0.4,0,0.6,0.3,0.6,0.6C639.6,3231.5,639.3,3231.8,639,3231.8z
				 M626.3,3231.7L626.3,3231.7l-3.8,0c-0.4,0-0.6-0.3-0.6-0.6c0-0.3,0.3-0.6,0.6-0.6h0l3.8,0c0.4,0,0.6,0.3,0.6,0.6
				C626.9,3231.4,626.6,3231.7,626.3,3231.7z M1053.7,3231.6c-0.3,0-0.5-0.2-0.6-0.4c-0.1-0.3,0.1-0.7,0.4-0.8
				c1.2-0.4,2.4-0.8,3.5-1.3c0.3-0.1,0.7,0,0.8,0.3c0.1,0.3,0,0.7-0.3,0.8c-1.2,0.5-2.4,1-3.6,1.4
				C1053.8,3231.6,1053.8,3231.6,1053.7,3231.6z M613.6,3231.6L613.6,3231.6l-3.8,0c-0.4,0-0.6-0.3-0.6-0.6c0-0.4,0.3-0.6,0.6-0.6
				l3.8,0c0.4,0,0.6,0.3,0.6,0.6C614.2,3231.4,613.9,3231.6,613.6,3231.6z M600.9,3231.6L600.9,3231.6l-3.8,0
				c-0.4,0-0.6-0.3-0.6-0.6c0-0.3,0.3-0.6,0.6-0.6h0l3.8,0c0.4,0,0.6,0.3,0.6,0.6C601.5,3231.3,601.2,3231.6,600.9,3231.6z
				 M588.2,3231.5L588.2,3231.5l-3.8,0c-0.4,0-0.6-0.3-0.6-0.6c0-0.3,0.3-0.6,0.6-0.6h0l3.8,0c0.4,0,0.6,0.3,0.6,0.6
				C588.8,3231.2,588.5,3231.5,588.2,3231.5z M575.5,3231.4L575.5,3231.4l-3.8,0c-0.4,0-0.6-0.3-0.6-0.6c0-0.3,0.3-0.6,0.6-0.6h0
				l3.8,0c0.4,0,0.6,0.3,0.6,0.6C576.1,3231.1,575.9,3231.4,575.5,3231.4z M562.8,3231.3L562.8,3231.3l-3.8,0
				c-0.4,0-0.6-0.3-0.6-0.6c0-0.3,0.3-0.6,0.6-0.6h0l3.8,0c0.4,0,0.6,0.3,0.6,0.6C563.5,3231.1,563.2,3231.3,562.8,3231.3z
				 M550.1,3231.3L550.1,3231.3l-3.8,0c-0.4,0-0.6-0.3-0.6-0.6c0-0.3,0.3-0.6,0.6-0.6h0l3.8,0c0.4,0,0.6,0.3,0.6,0.6
				C550.8,3231,550.5,3231.3,550.1,3231.3z M537.4,3231.1C537.4,3231.1,537.4,3231.1,537.4,3231.1c-1.3-0.1-2.6-0.2-3.9-0.3
				c-0.3,0-0.6-0.3-0.6-0.7c0-0.3,0.3-0.6,0.7-0.6c1.2,0.1,2.5,0.2,3.8,0.3c0.4,0,0.6,0.3,0.6,0.7
				C538.1,3230.9,537.8,3231.1,537.4,3231.1z M524.9,3229.3c0,0-0.1,0-0.1,0c-1.2-0.3-2.5-0.6-3.7-1c-0.3-0.1-0.5-0.5-0.4-0.8
				c0.1-0.3,0.5-0.5,0.8-0.4c1.2,0.4,2.4,0.7,3.6,1c0.3,0.1,0.6,0.4,0.5,0.8C525.4,3229.1,525.2,3229.3,524.9,3229.3z
				 M1065.1,3226.1c-0.2,0-0.4-0.1-0.5-0.3c-0.2-0.3-0.1-0.7,0.2-0.9c1-0.7,2.1-1.4,3.1-2.2c0.3-0.2,0.7-0.2,0.9,0.1
				c0.2,0.3,0.2,0.7-0.1,0.9c-1,0.8-2.1,1.5-3.1,2.2C1065.3,3226.1,1065.2,3226.1,1065.1,3226.1z M512.9,3225.2
				c-0.1,0-0.2,0-0.3-0.1c-1.2-0.5-2.3-1.1-3.5-1.7c-0.3-0.2-0.4-0.5-0.3-0.9c0.2-0.3,0.5-0.4,0.9-0.3c1.1,0.6,2.3,1.1,3.4,1.6
				c0.3,0.1,0.5,0.5,0.3,0.8C513.4,3225.1,513.2,3225.2,512.9,3225.2z M501.9,3218.9c-0.1,0-0.3,0-0.4-0.1c-1-0.7-2.1-1.5-3.1-2.3
				c-0.3-0.2-0.3-0.6-0.1-0.9c0.2-0.3,0.6-0.3,0.9-0.1c1,0.8,2,1.5,3,2.2c0.3,0.2,0.4,0.6,0.2,0.9
				C502.3,3218.8,502.1,3218.9,501.9,3218.9z M1074.7,3217.9c-0.2,0-0.3-0.1-0.4-0.2c-0.3-0.2-0.3-0.6,0-0.9
				c0.8-0.9,1.6-1.9,2.4-2.9c0.2-0.3,0.6-0.3,0.9-0.1c0.3,0.2,0.3,0.6,0.1,0.9c-0.8,1-1.6,2-2.5,3
				C1075,3217.8,1074.9,3217.9,1074.7,3217.9z M492.3,3210.7c-0.2,0-0.3-0.1-0.5-0.2c-0.9-0.9-1.8-1.9-2.6-2.8
				c-0.2-0.3-0.2-0.7,0.1-0.9c0.3-0.2,0.7-0.2,0.9,0.1c0.8,0.9,1.7,1.9,2.6,2.8c0.2,0.3,0.2,0.7,0,0.9
				C492.6,3210.7,492.4,3210.7,492.3,3210.7z M1081.8,3207.5c-0.1,0-0.2,0-0.3-0.1c-0.3-0.2-0.4-0.5-0.3-0.9
				c0.6-1.1,1.1-2.3,1.6-3.4c0.1-0.3,0.5-0.5,0.8-0.3c0.3,0.1,0.5,0.5,0.3,0.8c-0.5,1.2-1,2.4-1.6,3.5
				C1082.3,3207.3,1082.1,3207.5,1081.8,3207.5z M484.3,3200.9c-0.2,0-0.4-0.1-0.5-0.3c-0.7-1.1-1.4-2.2-2-3.3
				c-0.2-0.3-0.1-0.7,0.2-0.9c0.3-0.2,0.7-0.1,0.9,0.2c0.6,1.1,1.3,2.2,2,3.2c0.2,0.3,0.1,0.7-0.2,0.9
				C484.6,3200.8,484.4,3200.9,484.3,3200.9z M1086,3195.5c0,0-0.1,0-0.1,0c-0.3-0.1-0.6-0.4-0.5-0.8c0.2-0.9,0.4-1.9,0.5-2.8
				l0.1-0.9c0.1-0.3,0.4-0.6,0.7-0.5c0.3,0.1,0.6,0.4,0.5,0.7l-0.1,0.9c-0.1,1-0.3,2-0.5,2.9
				C1086.6,3195.3,1086.3,3195.5,1086,3195.5z M478.3,3189.7c-0.2,0-0.5-0.1-0.6-0.4c-0.5-1.2-1-2.4-1.4-3.6
				c-0.1-0.3,0.1-0.7,0.4-0.8c0.3-0.1,0.7,0.1,0.8,0.4c0.4,1.2,0.9,2.4,1.4,3.5c0.1,0.3,0,0.7-0.3,0.8
				C478.5,3189.7,478.4,3189.7,478.3,3189.7z M1087.9,3183C1087.9,3183,1087.9,3183,1087.9,3183c-0.4-0.1-0.7-0.4-0.6-0.7
				c0.2-1.2,0.3-2.5,0.5-3.8c0-0.3,0.4-0.6,0.7-0.5c0.3,0,0.6,0.4,0.5,0.7c-0.2,1.3-0.3,2.5-0.5,3.8
				C1088.5,3182.7,1088.2,3183,1087.9,3183z M474.6,3177.6c-0.3,0-0.6-0.2-0.6-0.5c-0.3-1.3-0.5-2.5-0.7-3.8
				c-0.1-0.3,0.2-0.7,0.5-0.7c0.4,0,0.7,0.2,0.7,0.5c0.2,1.2,0.4,2.5,0.7,3.7c0.1,0.3-0.1,0.7-0.5,0.8
				C474.7,3177.6,474.6,3177.6,474.6,3177.6z M1089.6,3170.4C1089.6,3170.4,1089.6,3170.4,1089.6,3170.4c-0.4,0-0.7-0.4-0.6-0.7
				l0.5-3.8c0-0.3,0.4-0.6,0.7-0.6c0.3,0,0.6,0.4,0.6,0.7l-0.5,3.8C1090.2,3170.2,1089.9,3170.4,1089.6,3170.4z M473.2,3165
				c-0.3,0-0.6-0.3-0.6-0.6l-0.1-3.8c0-0.3,0.3-0.6,0.6-0.7c0.4,0,0.6,0.3,0.7,0.6l0.1,3.8C473.8,3164.7,473.5,3165,473.2,3165
				L473.2,3165z M1091.1,3157.8C1091.1,3157.8,1091.1,3157.8,1091.1,3157.8c-0.4,0-0.7-0.4-0.6-0.7c0.1-1.2,0.3-2.5,0.4-3.8
				c0-0.3,0.4-0.6,0.7-0.6c0.3,0,0.6,0.4,0.6,0.7c-0.1,1.3-0.3,2.5-0.4,3.8C1091.7,3157.5,1091.5,3157.8,1091.1,3157.8z
				 M472.8,3152.3c-0.3,0-0.6-0.3-0.6-0.6l-0.1-3.8c0-0.4,0.3-0.6,0.6-0.7c0.3,0,0.6,0.3,0.7,0.6l0.1,3.8
				C473.4,3152,473.1,3152.3,472.8,3152.3L472.8,3152.3z M1092.5,3145.2C1092.5,3145.2,1092.5,3145.2,1092.5,3145.2
				c-0.4,0-0.7-0.4-0.6-0.7c0.1-1.3,0.3-2.5,0.4-3.8c0-0.3,0.3-0.6,0.7-0.6c0.3,0,0.6,0.3,0.6,0.7c-0.1,1.3-0.3,2.5-0.4,3.8
				C1093.1,3144.9,1092.8,3145.2,1092.5,3145.2z M472.3,3139.6c-0.3,0-0.6-0.3-0.6-0.6l-0.1-3.8c0-0.4,0.3-0.6,0.6-0.7
				c0.3,0,0.6,0.3,0.7,0.6l0.1,3.8C473,3139.3,472.7,3139.6,472.3,3139.6L472.3,3139.6z M1093.8,3132.5
				C1093.8,3132.5,1093.7,3132.5,1093.8,3132.5c-0.4,0-0.7-0.3-0.6-0.7c0.1-1.3,0.2-2.5,0.3-3.8c0-0.3,0.3-0.6,0.7-0.6
				c0.3,0,0.6,0.3,0.6,0.7c-0.1,1.3-0.2,2.5-0.3,3.8C1094.4,3132.3,1094.1,3132.5,1093.8,3132.5z M471.9,3126.9
				c-0.3,0-0.6-0.3-0.6-0.6l-0.1-3.8c0-0.4,0.3-0.6,0.6-0.7c0.3,0,0.6,0.3,0.7,0.6l0.1,3.8C472.6,3126.6,472.3,3126.9,471.9,3126.9
				L471.9,3126.9z M1094.9,3119.9C1094.9,3119.9,1094.8,3119.9,1094.9,3119.9c-0.4,0-0.7-0.3-0.6-0.7l0.3-3.8c0-0.3,0.3-0.6,0.7-0.6
				c0.3,0,0.6,0.3,0.6,0.7l-0.3,3.8C1095.5,3119.6,1095.2,3119.9,1094.9,3119.9z M471.5,3114.2c-0.3,0-0.6-0.3-0.6-0.6l-0.1-3.8
				c0-0.4,0.3-0.6,0.6-0.7c0.3,0,0.6,0.3,0.7,0.6l0.1,3.8C472.2,3113.9,471.9,3114.2,471.5,3114.2
				C471.5,3114.2,471.5,3114.2,471.5,3114.2z M1095.8,3107.2C1095.8,3107.2,1095.8,3107.2,1095.8,3107.2c-0.4,0-0.7-0.3-0.6-0.7
				l0.3-3.8c0-0.3,0.3-0.6,0.7-0.6c0.3,0,0.6,0.3,0.6,0.7l-0.3,3.8C1096.4,3107,1096.1,3107.2,1095.8,3107.2z M471.1,3101.6
				c-0.3,0-0.6-0.3-0.6-0.6l-0.1-3.8c0-0.4,0.3-0.6,0.6-0.7c0.3,0,0.6,0.3,0.7,0.6l0.1,3.8C471.8,3101.3,471.5,3101.6,471.1,3101.6
				C471.1,3101.6,471.1,3101.6,471.1,3101.6z M1096.6,3094.6C1096.6,3094.6,1096.6,3094.6,1096.6,3094.6c-0.4,0-0.7-0.3-0.6-0.7
				c0.1-1.3,0.1-2.5,0.2-3.8c0-0.4,0.3-0.6,0.7-0.6c0.4,0,0.6,0.3,0.6,0.7c-0.1,1.3-0.1,2.5-0.2,3.8
				C1097.2,3094.3,1096.9,3094.6,1096.6,3094.6z M470.7,3088.9c-0.3,0-0.6-0.3-0.6-0.6l-0.1-3.8c0-0.4,0.3-0.6,0.6-0.7
				c0.3,0,0.6,0.3,0.7,0.6l0.1,3.8C471.4,3088.6,471.1,3088.9,470.7,3088.9C470.7,3088.9,470.7,3088.9,470.7,3088.9z M1097.2,3081.9
				L1097.2,3081.9c-0.4,0-0.6-0.3-0.6-0.7c0.1-1.3,0.1-2.5,0.2-3.8c0-0.4,0.3-0.6,0.7-0.6c0.4,0,0.6,0.3,0.6,0.7
				c0,1.3-0.1,2.5-0.2,3.8C1097.8,3081.6,1097.6,3081.9,1097.2,3081.9z M470.3,3076.2c-0.3,0-0.6-0.3-0.6-0.6l-0.1-3.8
				c0-0.4,0.3-0.6,0.6-0.7c0.3,0,0.6,0.3,0.7,0.6l0.1,3.8C471,3075.9,470.7,3076.2,470.3,3076.2
				C470.3,3076.2,470.3,3076.2,470.3,3076.2z M1097.7,3069.2L1097.7,3069.2c-0.4,0-0.6-0.3-0.6-0.7c0-1.3,0.1-2.5,0.1-3.8
				c0-0.4,0.3-0.6,0.7-0.6c0.4,0,0.6,0.3,0.6,0.7c0,1.3-0.1,2.5-0.1,3.8C1098.3,3068.9,1098,3069.2,1097.7,3069.2z M469.9,3063.5
				c-0.3,0-0.6-0.3-0.6-0.6l-0.1-3.8c0-0.4,0.3-0.6,0.6-0.7c0.3,0,0.6,0.3,0.7,0.6l0.1,3.8C470.5,3063.2,470.3,3063.5,469.9,3063.5
				L469.9,3063.5z M1098,3056.5C1098,3056.5,1098,3056.5,1098,3056.5c-0.4,0-0.6-0.3-0.6-0.6c0-1.3,0-2.5,0-3.8
				c0-0.4,0.3-0.6,0.6-0.6c0.4,0,0.6,0.3,0.6,0.6c0,1.3,0,2.5,0,3.8C1098.6,3056.2,1098.3,3056.5,1098,3056.5z M469.5,3050.8
				c-0.3,0-0.6-0.3-0.6-0.6l-0.1-3.8c0-0.4,0.3-0.6,0.6-0.7c0.3,0,0.6,0.3,0.7,0.6l0.1,3.8C470.1,3050.5,469.9,3050.8,469.5,3050.8
				L469.5,3050.8z M1098.1,3043.8c-0.4,0-0.6-0.3-0.6-0.6v-0.3c0-1.2,0-2.3,0-3.5c0-0.4,0.3-0.6,0.6-0.6h0c0.4,0,0.6,0.3,0.6,0.6
				c0,1.2,0,2.3,0,3.5v0.3C1098.7,3043.5,1098.4,3043.8,1098.1,3043.8z M469.1,3038.1c-0.3,0-0.6-0.3-0.6-0.6l-0.1-3.8
				c0-0.4,0.3-0.6,0.6-0.7c0.4,0,0.6,0.3,0.7,0.6l0.1,3.8C469.7,3037.8,469.5,3038.1,469.1,3038.1L469.1,3038.1z M1098,3031.1
				c-0.3,0-0.6-0.3-0.6-0.6c0-1.3,0-2.5-0.1-3.8c0-0.4,0.3-0.6,0.6-0.6c0.3,0,0.6,0.3,0.6,0.6c0,1.3,0,2.5,0.1,3.8
				C1098.6,3030.8,1098.3,3031.1,1098,3031.1L1098,3031.1z M468.7,3025.5c-0.3,0-0.6-0.3-0.6-0.6l-0.1-3.8c0-0.4,0.3-0.6,0.6-0.7
				c0.3,0,0.6,0.3,0.7,0.6l0.1,3.8C469.3,3025.1,469,3025.4,468.7,3025.5C468.7,3025.5,468.7,3025.5,468.7,3025.5z M1097.7,3018.4
				c-0.3,0-0.6-0.3-0.6-0.6c0-1.3-0.1-2.5-0.1-3.8c0-0.4,0.3-0.6,0.6-0.7c0.4,0,0.6,0.3,0.7,0.6c0,1.3,0.1,2.5,0.1,3.8
				C1098.3,3018.1,1098.1,3018.4,1097.7,3018.4C1097.7,3018.4,1097.7,3018.4,1097.7,3018.4z M468.3,3012.8c-0.3,0-0.6-0.3-0.6-0.6
				l-0.1-3.8c0-0.4,0.3-0.6,0.6-0.7c0.3,0,0.6,0.3,0.7,0.6l0.1,3.8C468.9,3012.5,468.6,3012.8,468.3,3012.8
				C468.3,3012.8,468.3,3012.8,468.3,3012.8z M1097.2,3005.8c-0.3,0-0.6-0.3-0.6-0.6c-0.1-1.3-0.1-2.5-0.2-3.8
				c0-0.4,0.2-0.6,0.6-0.7c0.3,0,0.6,0.2,0.7,0.6c0.1,1.3,0.1,2.5,0.2,3.8C1097.8,3005.5,1097.5,3005.8,1097.2,3005.8L1097.2,3005.8
				z M467.9,3000.1c-0.3,0-0.6-0.3-0.6-0.6l-0.1-3.8c0-0.3,0.3-0.6,0.6-0.7c0.4,0,0.6,0.3,0.7,0.6l0.1,3.8
				C468.5,2999.8,468.2,3000.1,467.9,3000.1C467.9,3000.1,467.9,3000.1,467.9,3000.1z M1096.4,2993.1c-0.3,0-0.6-0.3-0.6-0.6
				c-0.1-1.3-0.2-2.5-0.3-3.8c0-0.3,0.2-0.7,0.6-0.7c0.4,0,0.7,0.2,0.7,0.6c0.1,1.3,0.2,2.5,0.3,3.8
				C1097.1,2992.8,1096.8,2993.1,1096.4,2993.1C1096.5,2993.1,1096.4,2993.1,1096.4,2993.1z M467.4,2987.4c-0.3,0-0.6-0.3-0.6-0.6
				l-0.1-3.8c0-0.4,0.3-0.6,0.6-0.7c0.3-0.1,0.6,0.3,0.7,0.6l0.1,3.8C468.1,2987.1,467.8,2987.4,467.4,2987.4
				C467.5,2987.4,467.5,2987.4,467.4,2987.4z M1095.4,2980.4c-0.3,0-0.6-0.2-0.6-0.6c-0.1-1.3-0.2-2.5-0.3-3.8
				c0-0.3,0.2-0.7,0.6-0.7c0.4,0,0.7,0.2,0.7,0.6c0.1,1.3,0.2,2.5,0.3,3.8C1096.1,2980.1,1095.8,2980.4,1095.4,2980.4
				C1095.5,2980.4,1095.5,2980.4,1095.4,2980.4z M467,2974.7c-0.3,0-0.6-0.3-0.6-0.6l-0.1-3.8c0-0.4,0.3-0.6,0.6-0.7
				c0.3,0,0.6,0.3,0.7,0.6l0.1,3.8C467.7,2974.4,467.4,2974.7,467,2974.7L467,2974.7z M1094.2,2967.8c-0.3,0-0.6-0.2-0.6-0.6
				c-0.1-1.3-0.3-2.5-0.4-3.8c0-0.3,0.2-0.7,0.6-0.7c0.4,0,0.7,0.2,0.7,0.6c0.1,1.3,0.3,2.5,0.4,3.8
				C1094.9,2967.5,1094.6,2967.8,1094.2,2967.8C1094.2,2967.8,1094.2,2967.8,1094.2,2967.8z M466.6,2962c-0.3,0-0.6-0.3-0.6-0.6
				l-0.1-4.5h2.3c0.4,0,0.6,0.3,0.6,0.6c0,0.4-0.3,0.6-0.6,0.6h-1l0.1,3.2C467.3,2961.7,467,2962,466.6,2962L466.6,2962z
				 M1090,2958.2h-3.8c-0.4,0-0.6-0.3-0.6-0.6c0-0.4,0.3-0.6,0.6-0.6h3.8c0.4,0,0.6,0.3,0.6,0.6
				C1090.7,2957.9,1090.4,2958.2,1090,2958.2z M1077.3,2958.2h-3.8c-0.4,0-0.6-0.3-0.6-0.6c0-0.4,0.3-0.6,0.6-0.6h3.8
				c0.4,0,0.6,0.3,0.6,0.6C1078,2957.9,1077.7,2958.2,1077.3,2958.2z M1064.7,2958.2h-3.8c-0.4,0-0.6-0.3-0.6-0.6
				c0-0.4,0.3-0.6,0.6-0.6h3.8c0.4,0,0.6,0.3,0.6,0.6C1065.3,2957.9,1065,2958.2,1064.7,2958.2z M1052,2958.2h-3.8
				c-0.4,0-0.6-0.3-0.6-0.6c0-0.4,0.3-0.6,0.6-0.6h3.8c0.4,0,0.6,0.3,0.6,0.6C1052.6,2957.9,1052.3,2958.2,1052,2958.2z
				 M1039.3,2958.2h-3.8c-0.4,0-0.6-0.3-0.6-0.6c0-0.4,0.3-0.6,0.6-0.6h3.8c0.4,0,0.6,0.3,0.6,0.6
				C1039.9,2957.9,1039.6,2958.2,1039.3,2958.2z M1026.6,2958.2h-3.8c-0.4,0-0.6-0.3-0.6-0.6c0-0.4,0.3-0.6,0.6-0.6h3.8
				c0.4,0,0.6,0.3,0.6,0.6C1027.2,2957.9,1026.9,2958.2,1026.6,2958.2z M1013.9,2958.2h-3.8c-0.4,0-0.6-0.3-0.6-0.6
				c0-0.4,0.3-0.6,0.6-0.6h3.8c0.4,0,0.6,0.3,0.6,0.6C1014.5,2957.9,1014.2,2958.2,1013.9,2958.2z M1001.2,2958.2h-3.8
				c-0.4,0-0.6-0.3-0.6-0.6c0-0.4,0.3-0.6,0.6-0.6h3.8c0.4,0,0.6,0.3,0.6,0.6C1001.8,2957.9,1001.5,2958.2,1001.2,2958.2z
				 M988.5,2958.2h-3.8c-0.4,0-0.6-0.3-0.6-0.6c0-0.4,0.3-0.6,0.6-0.6h3.8c0.4,0,0.6,0.3,0.6,0.6
				C989.1,2957.9,988.9,2958.2,988.5,2958.2z M975.8,2958.2H972c-0.4,0-0.6-0.3-0.6-0.6c0-0.4,0.3-0.6,0.6-0.6h3.8
				c0.4,0,0.6,0.3,0.6,0.6C976.4,2957.9,976.2,2958.2,975.8,2958.2z M963.1,2958.2h-3.8c-0.4,0-0.6-0.3-0.6-0.6
				c0-0.4,0.3-0.6,0.6-0.6h3.8c0.4,0,0.6,0.3,0.6,0.6C963.8,2957.9,963.5,2958.2,963.1,2958.2z M950.4,2958.2h-3.8
				c-0.4,0-0.6-0.3-0.6-0.6c0-0.4,0.3-0.6,0.6-0.6h3.8c0.4,0,0.6,0.3,0.6,0.6C951.1,2957.9,950.8,2958.2,950.4,2958.2z
				 M937.7,2958.2h-3.8c-0.4,0-0.6-0.3-0.6-0.6c0-0.4,0.3-0.6,0.6-0.6h3.8c0.4,0,0.6,0.3,0.6,0.6
				C938.4,2957.9,938.1,2958.2,937.7,2958.2z M925,2958.2h-3.8c-0.4,0-0.6-0.3-0.6-0.6c0-0.4,0.3-0.6,0.6-0.6h3.8
				c0.4,0,0.6,0.3,0.6,0.6C925.7,2957.9,925.4,2958.2,925,2958.2z M912.4,2958.2h-3.8c-0.4,0-0.6-0.3-0.6-0.6c0-0.4,0.3-0.6,0.6-0.6
				h3.8c0.4,0,0.6,0.3,0.6,0.6C913,2957.9,912.7,2958.2,912.4,2958.2z M899.7,2958.2h-3.8c-0.4,0-0.6-0.3-0.6-0.6
				c0-0.4,0.3-0.6,0.6-0.6h3.8c0.4,0,0.6,0.3,0.6,0.6C900.3,2957.9,900,2958.2,899.7,2958.2z M887,2958.2h-3.8
				c-0.4,0-0.6-0.3-0.6-0.6c0-0.4,0.3-0.6,0.6-0.6h3.8c0.4,0,0.6,0.3,0.6,0.6C887.6,2957.9,887.3,2958.2,887,2958.2z M874.3,2958.2
				h-3.8c-0.4,0-0.6-0.3-0.6-0.6c0-0.4,0.3-0.6,0.6-0.6h3.8c0.4,0,0.6,0.3,0.6,0.6C874.9,2957.9,874.6,2958.2,874.3,2958.2z
				 M861.6,2958.2h-3.8c-0.4,0-0.6-0.3-0.6-0.6c0-0.4,0.3-0.6,0.6-0.6h3.8c0.4,0,0.6,0.3,0.6,0.6
				C862.2,2957.9,861.9,2958.2,861.6,2958.2z M848.9,2958.2h-3.8c-0.4,0-0.6-0.3-0.6-0.6c0-0.4,0.3-0.6,0.6-0.6h3.8
				c0.4,0,0.6,0.3,0.6,0.6C849.5,2957.9,849.3,2958.2,848.9,2958.2z M836.2,2958.2h-3.8c-0.4,0-0.6-0.3-0.6-0.6
				c0-0.4,0.3-0.6,0.6-0.6h3.8c0.4,0,0.6,0.3,0.6,0.6C836.8,2957.9,836.6,2958.2,836.2,2958.2z M823.5,2958.2h-3.8
				c-0.4,0-0.6-0.3-0.6-0.6c0-0.4,0.3-0.6,0.6-0.6h3.8c0.4,0,0.6,0.3,0.6,0.6C824.2,2957.9,823.9,2958.2,823.5,2958.2z
				 M810.8,2958.2H807c-0.4,0-0.6-0.3-0.6-0.6c0-0.4,0.3-0.6,0.6-0.6h3.8c0.4,0,0.6,0.3,0.6,0.6
				C811.5,2957.9,811.2,2958.2,810.8,2958.2z M798.1,2958.2h-3.8c-0.4,0-0.6-0.3-0.6-0.6c0-0.4,0.3-0.6,0.6-0.6h3.8
				c0.4,0,0.6,0.3,0.6,0.6C798.8,2957.9,798.5,2958.2,798.1,2958.2z M785.4,2958.2h-3.8c-0.4,0-0.6-0.3-0.6-0.6
				c0-0.4,0.3-0.6,0.6-0.6h3.8c0.4,0,0.6,0.3,0.6,0.6C786.1,2957.9,785.8,2958.2,785.4,2958.2z M772.8,2958.2h-3.8
				c-0.4,0-0.6-0.3-0.6-0.6c0-0.4,0.3-0.6,0.6-0.6h3.8c0.4,0,0.6,0.3,0.6,0.6C773.4,2957.9,773.1,2958.2,772.8,2958.2z
				 M760.1,2958.2h-3.8c-0.4,0-0.6-0.3-0.6-0.6c0-0.4,0.3-0.6,0.6-0.6h3.8c0.4,0,0.6,0.3,0.6,0.6
				C760.7,2957.9,760.4,2958.2,760.1,2958.2z M747.4,2958.2h-3.8c-0.4,0-0.6-0.3-0.6-0.6c0-0.4,0.3-0.6,0.6-0.6h3.8
				c0.4,0,0.6,0.3,0.6,0.6C748,2957.9,747.7,2958.2,747.4,2958.2z M734.7,2958.2h-3.8c-0.4,0-0.6-0.3-0.6-0.6c0-0.4,0.3-0.6,0.6-0.6
				h3.8c0.4,0,0.6,0.3,0.6,0.6C735.3,2957.9,735,2958.2,734.7,2958.2z M722,2958.2h-3.8c-0.4,0-0.6-0.3-0.6-0.6
				c0-0.4,0.3-0.6,0.6-0.6h3.8c0.4,0,0.6,0.3,0.6,0.6C722.6,2957.9,722.3,2958.2,722,2958.2z M709.3,2958.2h-3.8
				c-0.4,0-0.6-0.3-0.6-0.6c0-0.4,0.3-0.6,0.6-0.6h3.8c0.4,0,0.6,0.3,0.6,0.6C709.9,2957.9,709.6,2958.2,709.3,2958.2z
				 M696.6,2958.2h-3.8c-0.4,0-0.6-0.3-0.6-0.6c0-0.4,0.3-0.6,0.6-0.6h3.8c0.4,0,0.6,0.3,0.6,0.6
				C697.2,2957.9,697,2958.2,696.6,2958.2z M683.9,2958.2h-3.8c-0.4,0-0.6-0.3-0.6-0.6c0-0.4,0.3-0.6,0.6-0.6h3.8
				c0.4,0,0.6,0.3,0.6,0.6C684.5,2957.9,684.3,2958.2,683.9,2958.2z M671.2,2958.2h-3.8c-0.4,0-0.6-0.3-0.6-0.6
				c0-0.4,0.3-0.6,0.6-0.6h3.8c0.4,0,0.6,0.3,0.6,0.6C671.9,2957.9,671.6,2958.2,671.2,2958.2z M658.5,2958.2h-3.8
				c-0.4,0-0.6-0.3-0.6-0.6c0-0.4,0.3-0.6,0.6-0.6h3.8c0.4,0,0.6,0.3,0.6,0.6C659.2,2957.9,658.9,2958.2,658.5,2958.2z
				 M645.8,2958.2H642c-0.4,0-0.6-0.3-0.6-0.6c0-0.4,0.3-0.6,0.6-0.6h3.8c0.4,0,0.6,0.3,0.6,0.6
				C646.5,2957.9,646.2,2958.2,645.8,2958.2z M633.1,2958.2h-3.8c-0.4,0-0.6-0.3-0.6-0.6c0-0.4,0.3-0.6,0.6-0.6h3.8
				c0.4,0,0.6,0.3,0.6,0.6C633.8,2957.9,633.5,2958.2,633.1,2958.2z M620.5,2958.2h-3.8c-0.4,0-0.6-0.3-0.6-0.6
				c0-0.4,0.3-0.6,0.6-0.6h3.8c0.4,0,0.6,0.3,0.6,0.6C621.1,2957.9,620.8,2958.2,620.5,2958.2z M607.8,2958.2H604
				c-0.4,0-0.6-0.3-0.6-0.6c0-0.4,0.3-0.6,0.6-0.6h3.8c0.4,0,0.6,0.3,0.6,0.6C608.4,2957.9,608.1,2958.2,607.8,2958.2z
				 M595.1,2958.2h-3.8c-0.4,0-0.6-0.3-0.6-0.6c0-0.4,0.3-0.6,0.6-0.6h3.8c0.4,0,0.6,0.3,0.6,0.6
				C595.7,2957.9,595.4,2958.2,595.1,2958.2z M582.4,2958.2h-3.8c-0.4,0-0.6-0.3-0.6-0.6c0-0.4,0.3-0.6,0.6-0.6h3.8
				c0.4,0,0.6,0.3,0.6,0.6C583,2957.9,582.7,2958.2,582.4,2958.2z M569.7,2958.2h-3.8c-0.4,0-0.6-0.3-0.6-0.6c0-0.4,0.3-0.6,0.6-0.6
				h3.8c0.4,0,0.6,0.3,0.6,0.6C570.3,2957.9,570,2958.2,569.7,2958.2z M557,2958.2h-3.8c-0.4,0-0.6-0.3-0.6-0.6
				c0-0.4,0.3-0.6,0.6-0.6h3.8c0.4,0,0.6,0.3,0.6,0.6C557.6,2957.9,557.3,2958.2,557,2958.2z M544.3,2958.2h-3.8
				c-0.4,0-0.6-0.3-0.6-0.6c0-0.4,0.3-0.6,0.6-0.6h3.8c0.4,0,0.6,0.3,0.6,0.6C544.9,2957.9,544.7,2958.2,544.3,2958.2z
				 M531.6,2958.2h-3.8c-0.4,0-0.6-0.3-0.6-0.6c0-0.4,0.3-0.6,0.6-0.6h3.8c0.4,0,0.6,0.3,0.6,0.6
				C532.3,2957.9,532,2958.2,531.6,2958.2z M518.9,2958.2h-3.8c-0.4,0-0.6-0.3-0.6-0.6c0-0.4,0.3-0.6,0.6-0.6h3.8
				c0.4,0,0.6,0.3,0.6,0.6C519.6,2957.9,519.3,2958.2,518.9,2958.2z M506.2,2958.2h-3.8c-0.4,0-0.6-0.3-0.6-0.6
				c0-0.4,0.3-0.6,0.6-0.6h3.8c0.4,0,0.6,0.3,0.6,0.6C506.9,2957.9,506.6,2958.2,506.2,2958.2z M493.5,2958.2h-3.8
				c-0.4,0-0.6-0.3-0.6-0.6c0-0.4,0.3-0.6,0.6-0.6h3.8c0.4,0,0.6,0.3,0.6,0.6C494.2,2957.9,493.9,2958.2,493.5,2958.2z
				 M480.9,2958.2H477c-0.4,0-0.6-0.3-0.6-0.6c0-0.4,0.3-0.6,0.6-0.6h3.8c0.4,0,0.6,0.3,0.6,0.6
				C481.5,2957.9,481.2,2958.2,480.9,2958.2z"/>
			<linearGradient id="SVGID_14_" gradientUnits="userSpaceOnUse" x1="651.7441" y1="2333.823" x2="650.0363" y2="2610.4722">
				<stop  offset="0" style="stop-color:#4F52FF"/>
				<stop  offset="1" style="stop-color:#4042E2"/>
			</linearGradient>
			<path class="st22" d="M603.7,2799.1l1.6-16.8c1.8-4,5.5-6.9,9.8-7.6c16.3-2.6,56.7-7.1,76.1,7.4l2.9,19.6L603.7,2799.1z"/>
			<linearGradient id="SVGID_15_" gradientUnits="userSpaceOnUse" x1="651.4571" y1="2333.8206" x2="649.7492" y2="2610.4697">
				<stop  offset="0" style="stop-color:#4F52FF"/>
				<stop  offset="1" style="stop-color:#4042E2"/>
			</linearGradient>
			<path class="st23" d="M654.5,2782.9c-3.7,0.9-7.5,0.9-11.3,0c-4.6-1.1-7.8-5.2-7.8-9.9l0-52.7h26.8l0,52.7
				C662.3,2777.7,659.1,2781.8,654.5,2782.9z"/>
			<linearGradient id="SVGID_16_" gradientUnits="userSpaceOnUse" x1="911.5565" y1="2335.4275" x2="909.8487" y2="2612.0764">
				<stop  offset="0" style="stop-color:#4F52FF"/>
				<stop  offset="1" style="stop-color:#4042E2"/>
			</linearGradient>
			<path class="st24" d="M863.5,2799.1l1.6-16.8c1.8-4,5.5-6.9,9.8-7.6c16.3-2.6,56.7-7.1,76.1,7.4l2.9,19.6L863.5,2799.1z"/>
			<linearGradient id="SVGID_17_" gradientUnits="userSpaceOnUse" x1="911.2522" y1="2335.4241" x2="909.5444" y2="2612.0735">
				<stop  offset="0" style="stop-color:#4F52FF"/>
				<stop  offset="1" style="stop-color:#4042E2"/>
			</linearGradient>
			<path class="st25" d="M914.3,2782.9c-3.7,0.9-7.5,0.9-11.3,0c-4.6-1.1-7.8-5.2-7.8-9.9l0-58.3h26.8l0,58.2
				C922.1,2777.7,918.9,2781.8,914.3,2782.9z"/>
			<linearGradient id="SVGID_18_" gradientUnits="userSpaceOnUse" x1="797.8859" y1="2554.4592" x2="771.9708" y2="2744.5022">
				<stop  offset="0" style="stop-color:#4F52FF"/>
				<stop  offset="1" style="stop-color:#4042E2"/>
			</linearGradient>
			<path class="st26" d="M632.8,2733.3l288.5-9.5c6.6-0.2,12.2-5,13.3-11.4c1.6-9,3-22.6,0.9-36.6c-2.4-15.9-16.1-27.8-32.3-28.2
				c-53.8-1.3-190.8-1.2-266.3,28.6c-8,3.2-13.9,10-15.9,18.3c-1.9,7.9-3.2,18.5-0.7,29.3C621.6,2729.5,626.9,2733.5,632.8,2733.3z"
				/>
			<path class="st4" d="M627.8,2718.3c-0.6,0-1.2-0.5-1.3-1.1c0-0.5-1.1-11.3,1.7-21.7c2.1-7.9,8.4-14.3,16.4-16.6
				c16.1-4.7,46.8-12.7,71.9-13.4c0.7,0,1.3,0.5,1.3,1.2c0,0.7-0.5,1.3-1.2,1.3c-24.8,0.7-55.3,8.7-71.2,13.3
				c-7.1,2.1-12.7,7.8-14.6,14.9c-2.7,10-1.7,20.7-1.7,20.8c0.1,0.7-0.4,1.3-1.1,1.4C627.9,2718.3,627.8,2718.3,627.8,2718.3z"/>
			<linearGradient id="SVGID_19_" gradientUnits="userSpaceOnUse" x1="805.7021" y1="2702.4622" x2="710.6813" y2="3589.3235">
				<stop  offset="0" style="stop-color:#4F52FF"/>
				<stop  offset="1" style="stop-color:#4042E2"/>
			</linearGradient>
			<path class="st27" d="M469.8,2792.6c93.2-1.2,496.4-5.4,613.5,8.7c10.1,1.2,18.3,8.6,20.5,18.5c6.9,31.3,20.8,104,19.2,176
				c-0.2,9.8-7.4,18.1-17.1,19.9l-267.3,50.6h-95l-284.9-56.6c-10-2-17.4-10.5-18-20.7c-1.9-36.2-4.7-121.3,5.1-176
				C447.9,2801.3,457.9,2792.7,469.8,2792.6z"/>
			<path class="st11" d="M836.4,3043.8h-3.8c-0.4,0-0.6-0.3-0.6-0.6c0-0.4,0.3-0.6,0.6-0.6h3.8c0.4,0,0.6,0.3,0.6,0.6
				C837,3043.6,836.7,3043.8,836.4,3043.8z M823.7,3043.8h-3.8c-0.4,0-0.6-0.3-0.6-0.6c0-0.4,0.3-0.6,0.6-0.6h3.8
				c0.4,0,0.6,0.3,0.6,0.6C824.3,3043.6,824,3043.8,823.7,3043.8z M811,3043.8h-3.8c-0.4,0-0.6-0.3-0.6-0.6c0-0.4,0.3-0.6,0.6-0.6
				h3.8c0.4,0,0.6,0.3,0.6,0.6C811.6,3043.6,811.3,3043.8,811,3043.8z M798.3,3043.8h-3.8c-0.4,0-0.6-0.3-0.6-0.6
				c0-0.4,0.3-0.6,0.6-0.6h3.8c0.4,0,0.6,0.3,0.6,0.6C798.9,3043.6,798.6,3043.8,798.3,3043.8z M785.6,3043.8h-3.8
				c-0.4,0-0.6-0.3-0.6-0.6c0-0.4,0.3-0.6,0.6-0.6h3.8c0.4,0,0.6,0.3,0.6,0.6C786.2,3043.6,786,3043.8,785.6,3043.8z M772.9,3043.8
				h-3.8c-0.4,0-0.6-0.3-0.6-0.6c0-0.4,0.3-0.6,0.6-0.6h3.8c0.4,0,0.6,0.3,0.6,0.6C773.6,3043.6,773.3,3043.8,772.9,3043.8z
				 M760.2,3043.8h-3.8c-0.4,0-0.6-0.3-0.6-0.6c0-0.4,0.3-0.6,0.6-0.6h3.8c0.4,0,0.6,0.3,0.6,0.6
				C760.9,3043.6,760.6,3043.8,760.2,3043.8z M747.5,3043.8h-1.7l-3.9-0.8c-0.3-0.1-0.6-0.4-0.5-0.7c0.1-0.3,0.4-0.6,0.7-0.5
				l3.7,0.7l1.5,0c0.4,0,0.6,0.3,0.6,0.6C748.2,3043.6,747.9,3043.8,747.5,3043.8z M845.1,3042.2c-0.3,0-0.6-0.2-0.6-0.5
				c-0.1-0.3,0.2-0.7,0.5-0.7l3.7-0.7c0.3-0.1,0.7,0.2,0.7,0.5c0.1,0.3-0.2,0.7-0.5,0.7l-3.7,0.7
				C845.2,3042.2,845.1,3042.2,845.1,3042.2z M733.4,3041.4c0,0-0.1,0-0.1,0l-3.7-0.7c-0.3-0.1-0.6-0.4-0.5-0.7
				c0.1-0.3,0.4-0.6,0.7-0.5l3.7,0.7c0.3,0.1,0.6,0.4,0.5,0.7C734,3041.2,733.7,3041.4,733.4,3041.4z M857.6,3039.8
				c-0.3,0-0.6-0.2-0.6-0.5c-0.1-0.3,0.2-0.7,0.5-0.7l3.7-0.7c0.3-0.1,0.7,0.2,0.7,0.5c0.1,0.3-0.2,0.7-0.5,0.7l-3.7,0.7
				C857.7,3039.8,857.6,3039.8,857.6,3039.8z M721,3038.9c0,0-0.1,0-0.1,0l-3.7-0.7c-0.3-0.1-0.6-0.4-0.5-0.7
				c0.1-0.3,0.4-0.6,0.7-0.5l3.7,0.7c0.3,0.1,0.6,0.4,0.5,0.7C721.5,3038.7,721.3,3038.9,721,3038.9z M870,3037.5
				c-0.3,0-0.6-0.2-0.6-0.5c-0.1-0.3,0.2-0.7,0.5-0.7l3.7-0.7c0.3-0.1,0.7,0.2,0.7,0.5c0.1,0.3-0.2,0.7-0.5,0.7l-3.7,0.7
				C870.1,3037.5,870.1,3037.5,870,3037.5z M708.5,3036.4c0,0-0.1,0-0.1,0l-3.7-0.7c-0.3-0.1-0.6-0.4-0.5-0.7
				c0.1-0.3,0.4-0.6,0.7-0.5l3.7,0.7c0.3,0.1,0.6,0.4,0.5,0.7C709.1,3036.2,708.8,3036.4,708.5,3036.4z M882.5,3035.1
				c-0.3,0-0.6-0.2-0.6-0.5c-0.1-0.3,0.2-0.7,0.5-0.7l3.7-0.7c0.3-0.1,0.7,0.2,0.7,0.5c0.1,0.3-0.2,0.7-0.5,0.7l-3.7,0.7
				C882.6,3035.1,882.6,3035.1,882.5,3035.1z M696.1,3033.9c0,0-0.1,0-0.1,0l-3.7-0.7c-0.3-0.1-0.6-0.4-0.5-0.7
				c0.1-0.3,0.4-0.6,0.7-0.5l3.7,0.7c0.3,0.1,0.6,0.4,0.5,0.7C696.6,3033.7,696.4,3033.9,696.1,3033.9z M895,3032.8
				c-0.3,0-0.6-0.2-0.6-0.5c-0.1-0.3,0.2-0.7,0.5-0.7l3.7-0.7c0.3-0.1,0.7,0.2,0.7,0.5c0.1,0.3-0.2,0.7-0.5,0.7l-3.7,0.7
				C895.1,3032.7,895,3032.8,895,3032.8z M683.6,3031.5c0,0-0.1,0-0.1,0l-3.7-0.7c-0.3-0.1-0.6-0.4-0.5-0.7c0.1-0.3,0.4-0.6,0.7-0.5
				l3.7,0.7c0.3,0.1,0.6,0.4,0.5,0.7C684.2,3031.3,683.9,3031.5,683.6,3031.5z M907.5,3030.4c-0.3,0-0.6-0.2-0.6-0.5
				c-0.1-0.3,0.2-0.7,0.5-0.7l3.7-0.7c0.3-0.1,0.7,0.2,0.7,0.5c0.1,0.3-0.2,0.7-0.5,0.7l-3.7,0.7
				C907.5,3030.4,907.5,3030.4,907.5,3030.4z M671.2,3029c0,0-0.1,0-0.1,0l-3.7-0.7c-0.3-0.1-0.6-0.4-0.5-0.7
				c0.1-0.3,0.4-0.6,0.7-0.5l3.7,0.7c0.3,0.1,0.6,0.4,0.5,0.7C671.8,3028.8,671.5,3029,671.2,3029z M919.9,3028
				c-0.3,0-0.6-0.2-0.6-0.5c-0.1-0.3,0.2-0.7,0.5-0.7l3.7-0.7c0.3-0.1,0.7,0.2,0.7,0.5c0.1,0.3-0.2,0.7-0.5,0.7l-3.7,0.7
				C920,3028,920,3028,919.9,3028z M658.7,3026.5c0,0-0.1,0-0.1,0l-3.7-0.7c-0.3-0.1-0.6-0.4-0.5-0.7c0.1-0.3,0.4-0.6,0.7-0.5
				l3.7,0.7c0.3,0.1,0.6,0.4,0.5,0.7C659.3,3026.3,659,3026.5,658.7,3026.5z M932.4,3025.7c-0.3,0-0.6-0.2-0.6-0.5
				c-0.1-0.3,0.2-0.7,0.5-0.7l3.7-0.7c0.3-0.1,0.7,0.2,0.7,0.5c0.1,0.3-0.2,0.7-0.5,0.7l-3.7,0.7
				C932.5,3025.7,932.4,3025.7,932.4,3025.7z M646.3,3024c0,0-0.1,0-0.1,0l-3.7-0.7c-0.3-0.1-0.6-0.4-0.5-0.7
				c0.1-0.3,0.4-0.6,0.7-0.5l3.7,0.7c0.3,0.1,0.6,0.4,0.5,0.7C646.9,3023.8,646.6,3024,646.3,3024z M944.9,3023.3
				c-0.3,0-0.6-0.2-0.6-0.5c-0.1-0.3,0.2-0.7,0.5-0.7l3.7-0.7c0.3-0.1,0.7,0.2,0.7,0.5c0.1,0.3-0.2,0.7-0.5,0.7l-3.7,0.7
				C944.9,3023.3,944.9,3023.3,944.9,3023.3z M633.8,3021.6c0,0-0.1,0-0.1,0l-3.7-0.7c-0.3-0.1-0.6-0.4-0.5-0.7
				c0.1-0.3,0.4-0.6,0.7-0.5l3.7,0.7c0.3,0.1,0.6,0.4,0.5,0.7C634.4,3021.4,634.1,3021.6,633.8,3021.6z M957.3,3021
				c-0.3,0-0.6-0.2-0.6-0.5c-0.1-0.3,0.2-0.7,0.5-0.7l3.7-0.7c0.3-0.1,0.7,0.2,0.7,0.5c0.1,0.3-0.2,0.7-0.5,0.7l-3.7,0.7
				C957.4,3021,957.4,3021,957.3,3021z M621.4,3019.1c0,0-0.1,0-0.1,0l-3.7-0.7c-0.3-0.1-0.6-0.4-0.5-0.7c0.1-0.3,0.4-0.6,0.7-0.5
				l3.7,0.7c0.3,0.1,0.6,0.4,0.5,0.7C622,3018.9,621.7,3019.1,621.4,3019.1z M969.8,3018.6c-0.3,0-0.6-0.2-0.6-0.5
				c-0.1-0.3,0.2-0.7,0.5-0.7l3.7-0.7c0.3-0.1,0.7,0.2,0.7,0.5c0.1,0.3-0.2,0.7-0.5,0.7l-3.7,0.7
				C969.9,3018.6,969.8,3018.6,969.8,3018.6z M608.9,3016.6c0,0-0.1,0-0.1,0l-3.7-0.7c-0.3-0.1-0.6-0.4-0.5-0.7
				c0.1-0.3,0.4-0.6,0.7-0.5l3.7,0.7c0.3,0.1,0.6,0.4,0.5,0.7C609.5,3016.4,609.2,3016.6,608.9,3016.6z M982.3,3016.2
				c-0.3,0-0.6-0.2-0.6-0.5c-0.1-0.3,0.2-0.7,0.5-0.7l3.7-0.7c0.3-0.1,0.7,0.2,0.7,0.5c0.1,0.3-0.2,0.7-0.5,0.7l-3.7,0.7
				C982.4,3016.2,982.3,3016.2,982.3,3016.2z M596.5,3014.1c0,0-0.1,0-0.1,0l-3.7-0.7c-0.3-0.1-0.6-0.4-0.5-0.7
				c0.1-0.3,0.4-0.6,0.7-0.5l3.7,0.7c0.3,0.1,0.6,0.4,0.5,0.7C597.1,3013.9,596.8,3014.1,596.5,3014.1z M994.7,3013.9
				c-0.3,0-0.6-0.2-0.6-0.5c-0.1-0.3,0.2-0.7,0.5-0.7l3.7-0.7c0.3-0.1,0.7,0.2,0.7,0.5c0.1,0.3-0.2,0.7-0.5,0.7l-3.7,0.7
				C994.8,3013.9,994.8,3013.9,994.7,3013.9z M584.1,3011.7c0,0-0.1,0-0.1,0l-3.7-0.7c-0.3-0.1-0.6-0.4-0.5-0.7
				c0.1-0.3,0.4-0.6,0.7-0.5l3.7,0.7c0.3,0.1,0.6,0.4,0.5,0.7C584.6,3011.5,584.4,3011.7,584.1,3011.7z M1007.2,3011.5
				c-0.3,0-0.6-0.2-0.6-0.5c-0.1-0.3,0.2-0.7,0.5-0.7l3.7-0.7c0.3-0.1,0.7,0.2,0.7,0.5c0.1,0.3-0.2,0.7-0.5,0.7l-3.7,0.7
				C1007.3,3011.5,1007.3,3011.5,1007.2,3011.5z M571.6,3009.2c0,0-0.1,0-0.1,0l-3.7-0.7c-0.3-0.1-0.6-0.4-0.5-0.7
				c0.1-0.3,0.4-0.6,0.7-0.5l3.7,0.7c0.3,0.1,0.6,0.4,0.5,0.7C572.2,3009,571.9,3009.2,571.6,3009.2z M1019.7,3009.2
				c-0.3,0-0.6-0.2-0.6-0.5c-0.1-0.3,0.2-0.7,0.5-0.7l3.7-0.7c0.3-0.1,0.7,0.2,0.7,0.5c0.1,0.3-0.2,0.7-0.5,0.7l-3.7,0.7
				C1019.8,3009.2,1019.7,3009.2,1019.7,3009.2z M1032.2,3006.8c-0.3,0-0.6-0.2-0.6-0.5c-0.1-0.3,0.2-0.7,0.5-0.7l3.7-0.7
				c0.3-0.1,0.7,0.2,0.7,0.5c0.1,0.3-0.2,0.7-0.5,0.7l-3.7,0.7C1032.2,3006.8,1032.2,3006.8,1032.2,3006.8z M559.2,3006.7
				c0,0-0.1,0-0.1,0l-3.7-0.7c-0.3-0.1-0.6-0.4-0.5-0.7c0.1-0.3,0.4-0.6,0.7-0.5l3.7,0.7c0.3,0.1,0.6,0.4,0.5,0.7
				C559.7,3006.5,559.5,3006.7,559.2,3006.7z M1044.6,3004.4c-0.3,0-0.6-0.2-0.6-0.5c-0.1-0.3,0.2-0.7,0.5-0.7l3.7-0.7
				c0.3-0.1,0.7,0.2,0.7,0.5c0.1,0.3-0.2,0.7-0.5,0.7l-3.7,0.7C1044.7,3004.4,1044.7,3004.4,1044.6,3004.4z M546.7,3004.2
				c0,0-0.1,0-0.1,0l-3.7-0.7c-0.3-0.1-0.6-0.4-0.5-0.7c0.1-0.3,0.4-0.6,0.7-0.5l3.7,0.7c0.3,0.1,0.6,0.4,0.5,0.7
				C547.3,3004,547,3004.2,546.7,3004.2z M1057.1,3002.1c-0.3,0-0.6-0.2-0.6-0.5c-0.1-0.3,0.2-0.7,0.5-0.7l3.7-0.7
				c0.3-0.1,0.7,0.2,0.7,0.5c0.1,0.3-0.2,0.7-0.5,0.7l-3.7,0.7C1057.2,3002.1,1057.1,3002.1,1057.1,3002.1z M534.3,3001.8
				c0,0-0.1,0-0.1,0l-3.7-0.7c-0.3-0.1-0.6-0.4-0.5-0.7c0.1-0.3,0.4-0.6,0.7-0.5l3.7,0.7c0.3,0.1,0.6,0.4,0.5,0.7
				C534.8,3001.6,534.6,3001.8,534.3,3001.8z M1069.6,2999.7c-0.3,0-0.6-0.2-0.6-0.5c-0.1-0.3,0.2-0.7,0.5-0.7l3.7-0.7
				c0.3-0.1,0.7,0.2,0.7,0.5c0.1,0.3-0.2,0.7-0.5,0.7l-3.7,0.7C1069.6,2999.7,1069.6,2999.7,1069.6,2999.7z M521.8,2999.3
				c0,0-0.1,0-0.1,0l-3.7-0.7c-0.3-0.1-0.6-0.4-0.5-0.7c0.1-0.3,0.4-0.6,0.7-0.5l3.7,0.7c0.3,0.1,0.6,0.4,0.5,0.7
				C522.4,2999.1,522.1,2999.3,521.8,2999.3z M1082,2997.4c-0.3,0-0.6-0.2-0.6-0.5c-0.1-0.3,0.2-0.7,0.5-0.7l3.7-0.7
				c0.3-0.1,0.7,0.2,0.7,0.5c0.1,0.3-0.2,0.7-0.5,0.7l-3.7,0.7C1082.1,2997.4,1082.1,2997.4,1082,2997.4z M509.4,2996.8
				c0,0-0.1,0-0.1,0l-3.7-0.7c-0.3-0.1-0.6-0.4-0.5-0.7c0.1-0.3,0.4-0.6,0.7-0.5l3.7,0.7c0.3,0.1,0.6,0.4,0.5,0.7
				C509.9,2996.6,509.7,2996.8,509.4,2996.8z M1094.5,2995c-0.3,0-0.6-0.2-0.6-0.5c-0.1-0.3,0.2-0.7,0.5-0.7l3.7-0.7
				c0.3-0.1,0.7,0.2,0.7,0.5c0.1,0.3-0.2,0.7-0.5,0.7l-3.7,0.7C1094.6,2995,1094.5,2995,1094.5,2995z M496.9,2994.3c0,0-0.1,0-0.1,0
				l-3.7-0.7c-0.3-0.1-0.6-0.4-0.5-0.7c0.1-0.3,0.4-0.6,0.7-0.5l3.7,0.7c0.3,0.1,0.6,0.4,0.5,0.7
				C497.5,2994.1,497.2,2994.3,496.9,2994.3z M484.5,2991.9c0,0-0.1,0-0.1,0l-3.7-0.7c-0.3-0.1-0.6-0.4-0.5-0.7
				c0.1-0.3,0.4-0.6,0.7-0.5l3.7,0.7c0.3,0.1,0.6,0.4,0.5,0.7C485,2991.7,484.8,2991.9,484.5,2991.9z M472,2989.4c0,0-0.1,0-0.1,0
				l-3.7-0.7c-0.3-0.1-0.6-0.4-0.5-0.7c0.1-0.3,0.4-0.6,0.7-0.5l3.7,0.7c0.3,0.1,0.6,0.4,0.5,0.7
				C472.6,2989.2,472.3,2989.4,472,2989.4z M1100.1,2986.9L1100.1,2986.9c-0.4,0-0.6-0.3-0.6-0.6l0-2.3l0-1.5c0-0.4,0.3-0.6,0.6-0.6
				h0c0.3,0,0.6,0.3,0.6,0.6l0,1.5l0,2.3C1100.7,2986.6,1100.4,2986.9,1100.1,2986.9z M463.6,2983.5c-0.3,0-0.6-0.3-0.6-0.6
				c-0.1-1.2-0.1-2.5-0.2-3.8c0-0.4,0.3-0.6,0.6-0.7c0.4,0,0.6,0.3,0.7,0.6c0.1,1.3,0.1,2.6,0.2,3.8
				C464.2,2983.2,463.9,2983.5,463.6,2983.5C463.6,2983.5,463.6,2983.5,463.6,2983.5z M1100,2974.2c-0.3,0-0.6-0.3-0.6-0.6
				c0-1.3-0.1-2.5-0.1-3.8c0-0.4,0.3-0.6,0.6-0.7c0.4,0,0.6,0.3,0.7,0.6c0,1.3,0.1,2.5,0.1,3.8
				C1100.6,2973.9,1100.4,2974.2,1100,2974.2L1100,2974.2z M463,2970.8c-0.3,0-0.6-0.3-0.6-0.6l-0.1-3.8c0-0.3,0.3-0.6,0.6-0.7
				c0.3,0,0.6,0.3,0.7,0.6l0.1,3.8C463.7,2970.5,463.4,2970.8,463,2970.8C463,2970.8,463,2970.8,463,2970.8z M1099.6,2961.5
				c-0.3,0-0.6-0.3-0.6-0.6c-0.1-1.3-0.1-2.5-0.2-3.8c0-0.3,0.3-0.6,0.6-0.7c0.3,0,0.6,0.3,0.7,0.6c0.1,1.3,0.1,2.5,0.2,3.8
				C1100.3,2961.2,1100,2961.5,1099.6,2961.5C1099.6,2961.5,1099.6,2961.5,1099.6,2961.5z M462.6,2958.1c-0.3,0-0.6-0.3-0.6-0.6
				l-0.1-3.8c0-0.4,0.3-0.6,0.6-0.7c0.4,0,0.6,0.3,0.7,0.6l0.1,3.8C463.2,2957.8,462.9,2958.1,462.6,2958.1L462.6,2958.1z
				 M1099,2948.8c-0.3,0-0.6-0.3-0.6-0.6c-0.1-1.3-0.2-2.5-0.2-3.8c0-0.4,0.2-0.7,0.6-0.7c0.4,0,0.7,0.2,0.7,0.6
				c0.1,1.3,0.2,2.5,0.2,3.8C1099.6,2948.5,1099.3,2948.8,1099,2948.8C1099,2948.8,1099,2948.8,1099,2948.8z M462.2,2945.4
				c-0.3,0-0.6-0.3-0.6-0.6l-0.1-3.8c0-0.4,0.3-0.6,0.6-0.6c0.3,0,0.6,0.3,0.6,0.6l0.1,3.8C462.9,2945.1,462.6,2945.4,462.2,2945.4
				L462.2,2945.4z M1098.1,2936.2c-0.3,0-0.6-0.3-0.6-0.6c-0.1-1.3-0.2-2.5-0.3-3.8c0-0.3,0.2-0.7,0.6-0.7c0.3,0,0.7,0.2,0.7,0.6
				c0.1,1.3,0.2,2.5,0.3,3.8C1098.7,2935.8,1098.5,2936.1,1098.1,2936.2C1098.1,2936.2,1098.1,2936.2,1098.1,2936.2z M462,2932.7
				c-0.3,0-0.6-0.3-0.6-0.6l0-3.8c0-0.4,0.3-0.6,0.6-0.6h0c0.3,0,0.6,0.3,0.6,0.6l0,3.8C462.7,2932.4,462.4,2932.7,462,2932.7
				L462,2932.7z M1096.9,2923.5c-0.3,0-0.6-0.2-0.6-0.6c-0.1-1.3-0.3-2.5-0.4-3.8c0-0.3,0.2-0.7,0.6-0.7c0.4,0,0.7,0.2,0.7,0.6
				c0.1,1.3,0.3,2.5,0.4,3.8C1097.6,2923.2,1097.3,2923.5,1096.9,2923.5C1097,2923.5,1096.9,2923.5,1096.9,2923.5z M462,2920
				c-0.4,0-0.6-0.3-0.6-0.6l0-2.2l0-1.6c0-0.4,0.3-0.6,0.6-0.6h0c0.4,0,0.6,0.3,0.6,0.6l0,1.6l0,2.2
				C462.6,2919.8,462.3,2920,462,2920L462,2920z M1095.6,2910.9c-0.3,0-0.6-0.2-0.6-0.6c-0.1-1.3-0.3-2.5-0.4-3.8
				c0-0.3,0.2-0.7,0.6-0.7c0.4,0,0.7,0.2,0.7,0.6c0.2,1.3,0.3,2.5,0.4,3.8C1096.3,2910.5,1096,2910.9,1095.6,2910.9
				C1095.6,2910.9,1095.6,2910.9,1095.6,2910.9z M462,2907.4L462,2907.4c-0.4,0-0.6-0.3-0.6-0.6c0-1.3,0-2.5,0-3.8
				c0-0.3,0.3-0.6,0.6-0.6h0c0.4,0,0.6,0.3,0.6,0.6c0,1.3,0,2.5,0,3.8C462.6,2907.1,462.3,2907.4,462,2907.4z M1094,2898.3
				c-0.3,0-0.6-0.2-0.6-0.6c-0.2-1.3-0.3-2.5-0.5-3.8c0-0.3,0.2-0.7,0.5-0.7c0.4,0,0.7,0.2,0.7,0.5c0.2,1.3,0.3,2.5,0.5,3.8
				C1094.7,2897.9,1094.5,2898.3,1094,2898.3C1094.1,2898.3,1094.1,2898.3,1094,2898.3z M462.2,2894.7
				C462.2,2894.7,462.2,2894.7,462.2,2894.7c-0.4,0-0.6-0.3-0.6-0.6c0-1.3,0.1-2.5,0.1-3.8c0-0.4,0.3-0.6,0.7-0.6
				c0.4,0,0.6,0.3,0.6,0.7c0,1.3-0.1,2.5-0.1,3.8C462.8,2894.4,462.5,2894.7,462.2,2894.7z M1092.3,2885.7c-0.3,0-0.6-0.2-0.6-0.5
				c-0.2-1.3-0.4-2.5-0.6-3.8c-0.1-0.3,0.2-0.7,0.5-0.7c0.3,0,0.7,0.2,0.7,0.5c0.2,1.2,0.4,2.5,0.6,3.8
				C1093,2885.3,1092.7,2885.7,1092.3,2885.7C1092.4,2885.7,1092.3,2885.7,1092.3,2885.7z M462.6,2882L462.6,2882
				c-0.4,0-0.6-0.3-0.6-0.7c0-1.3,0.1-2.5,0.1-3.8c0-0.4,0.3-0.6,0.7-0.6c0.4,0,0.6,0.3,0.6,0.7c-0.1,1.3-0.1,2.5-0.1,3.8
				C463.2,2881.7,462.9,2882,462.6,2882z M1090.4,2873.2c-0.3,0-0.6-0.2-0.6-0.5c-0.2-1.3-0.4-2.5-0.6-3.8c-0.1-0.3,0.2-0.7,0.5-0.7
				c0.4-0.1,0.7,0.2,0.7,0.5c0.2,1.2,0.4,2.5,0.6,3.8c0.1,0.3-0.2,0.7-0.5,0.7C1090.4,2873.2,1090.4,2873.2,1090.4,2873.2z
				 M463.1,2869.3C463.1,2869.3,463.1,2869.3,463.1,2869.3c-0.4,0-0.7-0.3-0.6-0.7c0.1-1.3,0.1-2.5,0.2-3.8c0-0.4,0.3-0.6,0.7-0.6
				c0.4,0,0.6,0.3,0.6,0.7c-0.1,1.3-0.1,2.5-0.2,3.8C463.7,2869,463.5,2869.3,463.1,2869.3z M1088.3,2860.7c-0.3,0-0.6-0.2-0.6-0.5
				c-0.2-1.3-0.4-2.5-0.7-3.7c-0.1-0.3,0.2-0.7,0.5-0.7c0.3-0.1,0.7,0.2,0.7,0.5c0.2,1.2,0.4,2.5,0.7,3.8c0.1,0.3-0.2,0.7-0.5,0.7
				C1088.3,2860.6,1088.3,2860.7,1088.3,2860.7z M463.9,2856.6C463.9,2856.6,463.9,2856.6,463.9,2856.6c-0.4,0-0.7-0.3-0.6-0.7
				c0.1-1.3,0.2-2.5,0.3-3.8c0-0.3,0.3-0.6,0.7-0.6c0.3,0,0.6,0.3,0.6,0.7c-0.1,1.3-0.2,2.5-0.3,3.8
				C464.5,2856.4,464.2,2856.6,463.9,2856.6z M1086,2848.2c-0.3,0-0.6-0.2-0.6-0.5c-0.2-1.3-0.5-2.5-0.7-3.7
				c-0.1-0.3,0.2-0.7,0.5-0.7c0.3-0.1,0.7,0.2,0.7,0.5c0.2,1.2,0.5,2.5,0.7,3.7c0.1,0.3-0.2,0.7-0.5,0.7
				C1086.1,2848.2,1086,2848.2,1086,2848.2z M465,2844C465,2844,465,2844,465,2844c-0.4,0-0.7-0.3-0.6-0.7c0.1-1.3,0.3-2.5,0.4-3.8
				c0-0.3,0.3-0.6,0.7-0.6c0.3,0,0.6,0.3,0.6,0.7c-0.1,1.3-0.3,2.5-0.4,3.8C465.6,2843.7,465.3,2844,465,2844z M1083.5,2835.7
				c-0.3,0-0.6-0.2-0.6-0.5c-0.3-1.3-0.5-2.5-0.8-3.7c-0.1-0.3,0.1-0.7,0.5-0.8c0.3-0.1,0.7,0.1,0.8,0.5c0.3,1.2,0.5,2.4,0.8,3.7
				c0.1,0.3-0.1,0.7-0.5,0.7C1083.6,2835.7,1083.6,2835.7,1083.5,2835.7z M466.4,2831.4C466.4,2831.4,466.4,2831.4,466.4,2831.4
				c-0.4-0.1-0.7-0.4-0.6-0.7c0.2-1.3,0.3-2.5,0.5-3.8c0-0.3,0.4-0.6,0.7-0.5c0.3,0,0.6,0.4,0.5,0.7c-0.2,1.2-0.3,2.5-0.5,3.8
				C467,2831.1,466.7,2831.4,466.4,2831.4z M1079.5,2824.7C1079.5,2824.7,1079.4,2824.6,1079.5,2824.7c-1.3-0.1-2.6-0.3-3.9-0.4
				c-0.3,0-0.6-0.4-0.6-0.7c0-0.3,0.3-0.6,0.7-0.6c1.3,0.1,2.6,0.3,3.8,0.4c0.3,0,0.6,0.4,0.6,0.7
				C1080,2824.4,1079.8,2824.7,1079.5,2824.7z M1066.8,2823.3C1066.8,2823.3,1066.8,2823.3,1066.8,2823.3c-1.3-0.1-2.6-0.2-3.8-0.3
				c-0.3,0-0.6-0.3-0.6-0.7c0-0.3,0.3-0.6,0.7-0.6c1.3,0.1,2.6,0.2,3.8,0.3c0.3,0,0.6,0.3,0.6,0.7
				C1067.4,2823.1,1067.2,2823.3,1066.8,2823.3z M1054.2,2822.3C1054.2,2822.3,1054.2,2822.3,1054.2,2822.3
				c-1.3-0.1-2.6-0.2-3.8-0.3c-0.3,0-0.6-0.3-0.6-0.7c0-0.3,0.3-0.6,0.7-0.6c1.3,0.1,2.6,0.2,3.8,0.3c0.3,0,0.6,0.3,0.6,0.7
				C1054.8,2822,1054.5,2822.3,1054.2,2822.3z M1041.5,2821.4C1041.5,2821.4,1041.5,2821.4,1041.5,2821.4l-3.8-0.2
				c-0.3,0-0.6-0.3-0.6-0.7c0-0.3,0.3-0.6,0.7-0.6l3.8,0.2c0.3,0,0.6,0.3,0.6,0.7C1042.1,2821.1,1041.9,2821.4,1041.5,2821.4z
				 M1028.9,2820.6C1028.8,2820.6,1028.8,2820.6,1028.9,2820.6l-3.8-0.2c-0.4,0-0.6-0.3-0.6-0.7c0-0.4,0.3-0.6,0.7-0.6l3.8,0.2
				c0.3,0,0.6,0.3,0.6,0.7C1029.5,2820.3,1029.2,2820.6,1028.9,2820.6z M1016.2,2819.9C1016.2,2819.9,1016.2,2819.9,1016.2,2819.9
				l-3.8-0.2c-0.4,0-0.6-0.3-0.6-0.7c0-0.3,0.3-0.6,0.7-0.6l3.8,0.2c0.4,0,0.6,0.3,0.6,0.7
				C1016.8,2819.7,1016.5,2819.9,1016.2,2819.9z M1003.5,2819.3L1003.5,2819.3l-3.8-0.2c-0.4,0-0.6-0.3-0.6-0.7
				c0-0.4,0.3-0.6,0.7-0.6l3.8,0.2c0.4,0,0.6,0.3,0.6,0.7C1004.1,2819.1,1003.8,2819.3,1003.5,2819.3z M990.8,2818.8
				C990.8,2818.8,990.8,2818.8,990.8,2818.8l-3.8-0.1c-0.4,0-0.6-0.3-0.6-0.7c0-0.4,0.3-0.6,0.7-0.6l3.8,0.1c0.4,0,0.6,0.3,0.6,0.7
				C991.4,2818.5,991.2,2818.8,990.8,2818.8z M468.3,2818.8c0,0-0.1,0-0.1,0c-0.3-0.1-0.6-0.4-0.5-0.7l0.2-1.2
				c0.2-1.1,1.1-1.9,2.2-1.9l0.3,0c0.4-0.1,0.6,0.3,0.6,0.6c0,0.4-0.3,0.6-0.6,0.6l-0.3,0c-0.5,0-0.9,0.3-1,0.8l-0.2,1.2
				C468.9,2818.6,468.6,2818.8,468.3,2818.8z M978.1,2818.3L978.1,2818.3l-3.8-0.1c-0.4,0-0.6-0.3-0.6-0.7c0-0.4,0.3-0.6,0.7-0.6
				l3.8,0.1c0.4,0,0.6,0.3,0.6,0.7C978.8,2818.1,978.5,2818.3,978.1,2818.3z M965.5,2817.9C965.5,2817.9,965.4,2817.9,965.5,2817.9
				l-3.8-0.1c-0.4,0-0.6-0.3-0.6-0.7c0-0.4,0.3-0.6,0.7-0.6l3.8,0.1c0.4,0,0.6,0.3,0.6,0.7C966.1,2817.6,965.8,2817.9,965.5,2817.9z
				 M952.8,2817.5C952.8,2817.5,952.8,2817.5,952.8,2817.5l-3.8-0.1c-0.4,0-0.6-0.3-0.6-0.7c0-0.4,0.3-0.6,0.7-0.6l3.8,0.1
				c0.4,0,0.6,0.3,0.6,0.7C953.4,2817.3,953.1,2817.5,952.8,2817.5z M940.1,2817.2C940.1,2817.2,940.1,2817.2,940.1,2817.2l-3.8-0.1
				c-0.3,0-0.6-0.3-0.6-0.7c0-0.3,0.2-0.6,0.7-0.6l3.8,0.1c0.4,0,0.6,0.3,0.6,0.7C940.7,2816.9,940.4,2817.2,940.1,2817.2z
				 M927.4,2816.9L927.4,2816.9l-3.8-0.1c-0.4,0-0.6-0.3-0.6-0.6c0-0.3,0.2-0.6,0.6-0.6l3.8,0.1c0.4,0,0.6,0.3,0.6,0.6
				C928,2816.6,927.7,2816.9,927.4,2816.9z M914.7,2816.6C914.7,2816.6,914.7,2816.6,914.7,2816.6l-3.8-0.1c-0.4,0-0.6-0.3-0.6-0.6
				c0-0.4,0.3-0.6,0.6-0.6l3.8,0.1c0.4,0,0.6,0.3,0.6,0.6C915.3,2816.3,915,2816.6,914.7,2816.6z M902,2816.3L902,2816.3l-3.8-0.1
				c-0.4,0-0.6-0.3-0.6-0.6c0-0.4,0.3-0.7,0.6-0.6l3.8,0.1c0.4,0,0.6,0.3,0.6,0.6C902.6,2816,902.4,2816.3,902,2816.3z
				 M479.3,2816.1c-0.3,0-0.6-0.3-0.6-0.6c0-0.4,0.3-0.6,0.6-0.6l3.8,0c0.3,0,0.6,0.3,0.6,0.6c0,0.4-0.3,0.6-0.6,0.6L479.3,2816.1
				L479.3,2816.1z M889.3,2816.1L889.3,2816.1l-3.8-0.1c-0.4,0-0.6-0.3-0.6-0.6c0-0.3,0.3-0.6,0.6-0.6h0l3.8,0.1
				c0.4,0,0.6,0.3,0.6,0.6C889.9,2815.8,889.7,2816.1,889.3,2816.1z M492,2816c-0.3,0-0.6-0.3-0.6-0.6c0-0.4,0.3-0.6,0.6-0.6l3.8,0
				c0.4,0,0.6,0.3,0.6,0.6c0,0.4-0.3,0.6-0.6,0.6L492,2816L492,2816z M876.6,2815.9L876.6,2815.9l-3.8-0.1c-0.4,0-0.6-0.3-0.6-0.6
				c0-0.4,0.3-0.6,0.6-0.6l3.8,0.1c0.3,0,0.6,0.3,0.6,0.6C877.3,2815.6,877,2815.9,876.6,2815.9z M504.7,2815.8
				c-0.3,0-0.6-0.3-0.6-0.6c0-0.4,0.3-0.6,0.6-0.6l3.8,0c0.4,0,0.6,0.3,0.6,0.6c0,0.4-0.3,0.6-0.6,0.6L504.7,2815.8L504.7,2815.8z
				 M517.4,2815.7c-0.3,0-0.6-0.3-0.6-0.6c0-0.4,0.3-0.6,0.6-0.6l3.8,0c0.4,0,0.6,0.3,0.6,0.6c0,0.4-0.3,0.6-0.6,0.6L517.4,2815.7
				L517.4,2815.7z M863.9,2815.7L863.9,2815.7l-3.8-0.1c-0.4,0-0.6-0.3-0.6-0.6c0-0.3,0.3-0.6,0.6-0.6h0l3.8,0.1
				c0.4,0,0.6,0.3,0.6,0.6C864.6,2815.4,864.3,2815.7,863.9,2815.7z M530.1,2815.6c-0.3,0-0.6-0.3-0.6-0.6c0-0.4,0.3-0.6,0.6-0.6
				l3.8,0c0.4,0,0.6,0.3,0.6,0.6c0,0.4-0.3,0.6-0.6,0.6L530.1,2815.6L530.1,2815.6z M851.2,2815.5L851.2,2815.5l-3.8,0
				c-0.4,0-0.6-0.3-0.6-0.6c0-0.4,0.3-0.7,0.6-0.6l3.8,0c0.4,0,0.6,0.3,0.6,0.6C851.9,2815.3,851.6,2815.5,851.2,2815.5z
				 M542.8,2815.5c-0.3,0-0.6-0.3-0.6-0.6c0-0.4,0.3-0.6,0.6-0.6l3.8,0h0c0.3,0,0.6,0.3,0.6,0.6c0,0.4-0.3,0.6-0.6,0.6L542.8,2815.5
				L542.8,2815.5z M838.6,2815.4L838.6,2815.4l-3.8,0c-0.4,0-0.6-0.3-0.6-0.6c0-0.4,0.3-0.6,0.6-0.6l3.8,0c0.4,0,0.6,0.3,0.6,0.6
				C839.2,2815.1,838.9,2815.4,838.6,2815.4z M555.5,2815.4c-0.3,0-0.6-0.3-0.6-0.6c0-0.4,0.3-0.6,0.6-0.6l3.8,0h0
				c0.3,0,0.6,0.3,0.6,0.6c0,0.4-0.3,0.6-0.6,0.6L555.5,2815.4L555.5,2815.4z M568.2,2815.3c-0.3,0-0.6-0.3-0.6-0.6
				c0-0.4,0.3-0.6,0.6-0.6l3.8,0h0c0.3,0,0.6,0.3,0.6,0.6c0,0.4-0.3,0.6-0.6,0.6L568.2,2815.3
				C568.2,2815.3,568.2,2815.3,568.2,2815.3z M825.9,2815.3L825.9,2815.3l-3.8,0c-0.4,0-0.6-0.3-0.6-0.6c0-0.3,0.3-0.6,0.6-0.6h0
				l3.8,0c0.4,0,0.6,0.3,0.6,0.6C826.5,2815,826.2,2815.3,825.9,2815.3z M580.9,2815.2c-0.3,0-0.6-0.3-0.6-0.6
				c0-0.4,0.3-0.6,0.6-0.6l3.8,0c0.3,0,0.6,0.3,0.6,0.6c0,0.4-0.3,0.6-0.6,0.6L580.9,2815.2L580.9,2815.2z M813.2,2815.1
				L813.2,2815.1l-3.8,0c-0.4,0-0.6-0.3-0.6-0.6c0-0.3,0.3-0.6,0.6-0.6h0l3.8,0c0.4,0,0.6,0.3,0.6,0.6
				C813.8,2814.9,813.5,2815.1,813.2,2815.1z M593.6,2815.1c-0.3,0-0.6-0.3-0.6-0.6c0-0.4,0.3-0.6,0.6-0.6l3.8,0h0
				c0.4,0,0.6,0.3,0.6,0.6c0,0.4-0.3,0.6-0.6,0.6L593.6,2815.1L593.6,2815.1z M800.5,2815L800.5,2815l-3.8,0c-0.4,0-0.6-0.3-0.6-0.6
				c0-0.4,0.3-0.7,0.6-0.6l3.8,0c0.4,0,0.6,0.3,0.6,0.6C801.1,2814.8,800.8,2815,800.5,2815z M606.3,2815c-0.3,0-0.6-0.3-0.6-0.6
				c0-0.4,0.3-0.6,0.6-0.6l3.8,0h0c0.3,0,0.6,0.3,0.6,0.6c0,0.4-0.3,0.6-0.6,0.6L606.3,2815L606.3,2815z M787.8,2815L787.8,2815
				l-3.8,0c-0.4,0-0.6-0.3-0.6-0.6c0-0.4,0.3-0.6,0.6-0.6l3.8,0c0.4,0,0.6,0.3,0.6,0.6C788.4,2814.7,788.1,2815,787.8,2815z
				 M619,2814.9c-0.3,0-0.6-0.3-0.6-0.6c0-0.4,0.3-0.6,0.6-0.6l3.8,0h0c0.3,0,0.6,0.3,0.6,0.6c0,0.4-0.3,0.6-0.6,0.6L619,2814.9
				L619,2814.9z M775.1,2814.9L775.1,2814.9l-3.8,0c-0.4,0-0.6-0.3-0.6-0.6c0-0.3,0.3-0.6,0.6-0.6h0l3.8,0c0.4,0,0.6,0.3,0.6,0.6
				C775.7,2814.6,775.5,2814.9,775.1,2814.9z M631.7,2814.9c-0.3,0-0.6-0.3-0.6-0.6c0-0.4,0.3-0.6,0.6-0.6l3.8,0h0
				c0.4,0,0.6,0.3,0.6,0.6c0,0.4-0.3,0.6-0.6,0.6L631.7,2814.9L631.7,2814.9z M644.4,2814.8c-0.3,0-0.6-0.3-0.6-0.6s0.3-0.6,0.6-0.6
				l3.8,0h0c0.4,0,0.6,0.3,0.6,0.6c0,0.4-0.3,0.6-0.6,0.6L644.4,2814.8L644.4,2814.8z M762.4,2814.8L762.4,2814.8l-3.8,0
				c-0.4,0-0.6-0.3-0.6-0.6c0-0.3,0.3-0.6,0.6-0.6h0l3.8,0c0.4,0,0.6,0.3,0.6,0.6C763,2814.5,762.8,2814.8,762.4,2814.8z
				 M657.1,2814.8c-0.3,0-0.6-0.3-0.6-0.6c0-0.4,0.3-0.6,0.6-0.6l3.8,0h0c0.3,0,0.6,0.3,0.6,0.6c0,0.4-0.3,0.6-0.6,0.6L657.1,2814.8
				L657.1,2814.8z M749.7,2814.8L749.7,2814.8l-3.8,0c-0.4,0-0.6-0.3-0.6-0.6c0-0.4,0.3-0.6,0.6-0.6h0l3.8,0c0.4,0,0.6,0.3,0.6,0.6
				C750.4,2814.5,750.1,2814.8,749.7,2814.8z M669.8,2814.8c-0.3,0-0.6-0.3-0.6-0.6c0-0.4,0.3-0.6,0.6-0.6l3.8,0h0
				c0.4,0,0.6,0.3,0.6,0.6c0,0.4-0.3,0.6-0.6,0.6L669.8,2814.8L669.8,2814.8z M737,2814.8L737,2814.8l-3.8,0c-0.4,0-0.6-0.3-0.6-0.6
				c0-0.4,0.3-0.6,0.6-0.6h0l3.8,0c0.4,0,0.6,0.3,0.6,0.6C737.7,2814.5,737.4,2814.8,737,2814.8z M682.5,2814.7
				c-0.4,0-0.6-0.3-0.6-0.6c0-0.4,0.3-0.6,0.6-0.6l3.8,0c0.4,0,0.6,0.3,0.6,0.6c0,0.4-0.3,0.6-0.6,0.6L682.5,2814.7L682.5,2814.7z
				 M724.3,2814.7L724.3,2814.7l-3.8,0c-0.4,0-0.6-0.3-0.6-0.6c0-0.4,0.3-0.6,0.6-0.6h0l3.8,0c0.4,0,0.6,0.3,0.6,0.6
				C725,2814.4,724.7,2814.7,724.3,2814.7z M695.2,2814.7c-0.4,0-0.6-0.3-0.6-0.6c0-0.3,0.3-0.6,0.6-0.6l3.8,0
				c0.4,0,0.6,0.3,0.6,0.6c0,0.4-0.3,0.6-0.6,0.6L695.2,2814.7z M711.6,2814.7L711.6,2814.7l-3.8,0c-0.4,0-0.6-0.3-0.6-0.6
				c0-0.4,0.3-0.6,0.6-0.6l3.8,0c0.4,0,0.6,0.3,0.6,0.6C712.3,2814.4,712,2814.7,711.6,2814.7z"/>
			<linearGradient id="SVGID_20_" gradientUnits="userSpaceOnUse" x1="763.9923" y1="2366.1187" x2="775.9462" y2="2700.8298">
				<stop  offset="0" style="stop-color:#09005D"/>
				<stop  offset="1" style="stop-color:#1A0F91"/>
			</linearGradient>
			<path class="st28" d="M829.6,3106.1h-83.2c-10.9,0-20.1-8.1-21.4-18.9l-9.6-80.1c-1.5-12.8,8.5-24,21.4-24h99.9
				c12.6,0,22.6,10.8,21.4,23.3l-7.1,80.1C850.1,3097.6,840.8,3106.1,829.6,3106.1z"/>
			<defs>
				<filter id="Adobe_OpacityMaskFilter" filterUnits="userSpaceOnUse" x="732.4" y="2997.8" width="108.8" height="93.6">
					<feFlood  style="flood-color:white;flood-opacity:1" result="back"/>
					<feBlend  in="SourceGraphic" in2="back" mode="normal"/>
				</filter>
			</defs>
			<mask maskUnits="userSpaceOnUse" x="732.4" y="2997.8" width="108.8" height="93.6" id="SVGID_21_">
				<g class="st29">
					<defs>
						<filter id="Adobe_OpacityMaskFilter_1_" filterUnits="userSpaceOnUse" x="732.4" y="2997.8" width="108.8" height="93.6">
							<feFlood  style="flood-color:white;flood-opacity:1" result="back"/>
							<feBlend  in="SourceGraphic" in2="back" mode="normal"/>
						</filter>
					</defs>
					<mask maskUnits="userSpaceOnUse" x="732.4" y="2997.8" width="108.8" height="93.6" id="SVGID_21_">
						<g class="st30">
						</g>
					</mask>
					<linearGradient id="SVGID_22_" gradientUnits="userSpaceOnUse" x1="732.3723" y1="3044.6052" x2="841.2169" y2="3044.6052">
						<stop  offset="0" style="stop-color:#FFFFFF"/>
						<stop  offset="1" style="stop-color:#000000"/>
					</linearGradient>
					<path class="st31" d="M819.4,3091.4h-63.3c-8.3,0-15.3-6.2-16.3-14.4l-7.3-60.9c-1.2-9.7,6.4-18.2,16.3-18.2h76.1
						c9.6,0,17.2,8.2,16.3,17.8l-5.4,60.9C835,3084.9,827.9,3091.4,819.4,3091.4z"/>
				</g>
			</mask>
			<linearGradient id="SVGID_23_" gradientUnits="userSpaceOnUse" x1="732.3723" y1="3044.6052" x2="841.2169" y2="3044.6052">
				<stop  offset="0" style="stop-color:#4F52FF"/>
				<stop  offset="1" style="stop-color:#4042E2"/>
			</linearGradient>
			<path class="st32" d="M819.4,3091.4h-63.3c-8.3,0-15.3-6.2-16.3-14.4l-7.3-60.9c-1.2-9.7,6.4-18.2,16.3-18.2h76.1
				c9.6,0,17.2,8.2,16.3,17.8l-5.4,60.9C835,3084.9,827.9,3091.4,819.4,3091.4z"/>
		</g>
		<linearGradient id="SVGID_24_" gradientUnits="userSpaceOnUse" x1="2578.8706" y1="2058.7166" x2="3798.2966" y2="583.1059">
			<stop  offset="0" style="stop-color:#FF928E"/>
			<stop  offset="1" style="stop-color:#FE7062"/>
		</linearGradient>
		<polygon class="st33" points="2644.3,1660.6 2842.4,2058.8 3096.9,1493.1 2832.5,1785.9 		"/>
		<g>
			<g>
				
					<linearGradient id="SVGID_25_" gradientUnits="userSpaceOnUse" x1="-1410.777" y1="1661.5732" x2="-1327.1715" y2="1900.4468" gradientTransform="matrix(1 0 0 1 3269.4707 0)">
					<stop  offset="0" style="stop-color:#FEBBBA"/>
					<stop  offset="1" style="stop-color:#FF928E"/>
				</linearGradient>
				<path class="st34" d="M1895.8,1789.7c-1.3,4.1,13.6,10.3,22.4-6.4c0.3-8,5.2-42.4,0.4-48.9c-25.5-34.8-75-78.4-75-78.4
					c-8.4,8.2-1.5,16.4-1.5,16.4l24,25c-5,9.1-11.1,16.7-14,27.7c-2.2,8.3-0.8,17.2,3.4,24.8c4.2,7.6,10,17.5,15.4,25.2
					C1881.1,1789.6,1895.8,1789.7,1895.8,1789.7z"/>
				
					<linearGradient id="SVGID_26_" gradientUnits="userSpaceOnUse" x1="-1346.5498" y1="1814.1892" x2="-1409.526" y2="1687.1509" gradientTransform="matrix(1 0 0 1 3269.4707 0)">
					<stop  offset="0" style="stop-color:#FEBBBA"/>
					<stop  offset="1" style="stop-color:#FF928E"/>
				</linearGradient>
				<path class="st35" d="M1876.6,1713.6l21.9,18.5l6.9,18.5l-19.5,21.6c0,0-6.6-36.6-11.4-44.6
					C1869.6,1719.7,1872.1,1715.9,1876.6,1713.6z"/>
			</g>
			<g>
				
					<linearGradient id="SVGID_27_" gradientUnits="userSpaceOnUse" x1="6088.0103" y1="3111.7568" x2="5554.5361" y2="3692.0276" gradientTransform="matrix(-1 0 0 1 8244.7529 0)">
					<stop  offset="0" style="stop-color:#09005D"/>
					<stop  offset="1" style="stop-color:#1A0F91"/>
				</linearGradient>
				<path class="st36" d="M2325.4,3155c0,0,5.5,31.3,8.2,62.2c1.1,12.1-8.3,22.6-20.4,23.1c-41.2,1.7-129.4,5.1-161.1,3.6
					c-4.8-0.2-7.9-5.1-6.1-9.5c1.5-3.7,4.3-6.7,7.9-8.4l145.7-67L2325.4,3155z"/>
				
					<linearGradient id="SVGID_28_" gradientUnits="userSpaceOnUse" x1="5914.8525" y1="3154.854" x2="5962.2383" y2="3154.854" gradientTransform="matrix(-1 0 0 1 8244.7529 0)">
					<stop  offset="0" style="stop-color:#FEBBBA"/>
					<stop  offset="1" style="stop-color:#FF928E"/>
				</linearGradient>
				<path class="st37" d="M2329.9,3136.6l-4.4,37.4c0,0-25.5,11.9-42.9-1.5l10.6-41.7L2329.9,3136.6z"/>
				<linearGradient id="SVGID_29_" gradientUnits="userSpaceOnUse" x1="4295.3672" y1="584.8074" x2="1579.8351" y2="3638.4968">
					<stop  offset="0" style="stop-color:#09005D"/>
					<stop  offset="1" style="stop-color:#1A0F91"/>
				</linearGradient>
				<path class="st38" d="M2326.6,2433.3c1.9,9.8,10.3,487.5-40.8,701.6c-0.8,3.5,0.9,7.1,4.3,8.5c7.8,3.2,23.2,7.8,41.6,8.5
					c5.7,0.2,10.8-3.5,12.4-9c14.6-49.7,84.5-298.6,93.7-536.3c10.2-265.7,0-9,0-9l-6-164.2L2326.6,2433.3z"/>
				
					<linearGradient id="SVGID_30_" gradientUnits="userSpaceOnUse" x1="5968.3325" y1="3001.7332" x2="5434.8618" y2="3582.0005" gradientTransform="matrix(-1 0 0 1 8244.7529 0)">
					<stop  offset="0" style="stop-color:#09005D"/>
					<stop  offset="1" style="stop-color:#1A0F91"/>
				</linearGradient>
				<path class="st39" d="M2493,3171.3c0,0,8.8,15.8,17.3,57.7c1.5,7.6-3.8,14.8-11.5,15.6c-13.6,1.3-34.6,3.1-51.4,2.9
					c-7.7-0.1-13.8-6.8-12.8-14.5c1.9-15.3,7.7-40.4,25.5-60L2493,3171.3z"/>
				
					<linearGradient id="SVGID_31_" gradientUnits="userSpaceOnUse" x1="5744.0742" y1="3152.4243" x2="5784.9878" y2="3152.4243" gradientTransform="matrix(-1 0 0 1 8244.7529 0)">
					<stop  offset="0" style="stop-color:#FEBBBA"/>
					<stop  offset="1" style="stop-color:#FF928E"/>
				</linearGradient>
				<path class="st40" d="M2500.7,3123.2l-10.4,56.6c0,0-10.3,7.6-30.5,2.1l5-60.9L2500.7,3123.2z"/>
				<linearGradient id="SVGID_32_" gradientUnits="userSpaceOnUse" x1="4335.7461" y1="620.7119" x2="1620.2136" y2="3674.4021">
					<stop  offset="0" style="stop-color:#09005D"/>
					<stop  offset="1" style="stop-color:#1A0F91"/>
				</linearGradient>
				<path class="st41" d="M2528.7,2447.9c41.8,252.1-9.1,623-26.2,695.6c-1,4.4-4.6,7.9-9.1,8.6c-7.7,1.3-20.2,2.3-32.7-1.3
					c-4.3-1.2-7.3-5.1-7.5-9.6c-2.3-58.7,1.8-419-37.1-561.4c-2-7.2-6.4-13.5-12.5-17.8l-75.5-53.7l-5.8-86.8L2528.7,2447.9z"/>
				<g>
					<linearGradient id="SVGID_33_" gradientUnits="userSpaceOnUse" x1="2786.8755" y1="805.2792" x2="2336.0398" y2="2178.2803">
						<stop  offset="0" style="stop-color:#FF928E"/>
						<stop  offset="1" style="stop-color:#FE7062"/>
					</linearGradient>
					<path class="st42" d="M2262.6,1970.3c125.2-2.1,263.3,32.9,263.3,32.9c37.3,217.7,6.5,468.8,6.5,468.8
						c-96.9,25.4-206.2-15.5-206.2-15.5c-16.1-91-91.3-347.1-91.3-347.1c-61.2-7.6-111.5-25.2-153-48.6c31.6-36.7,46.6-83.4,53-111
						C2179.2,1963.6,2223.9,1970.9,2262.6,1970.3z"/>
					
						<linearGradient id="SVGID_34_" gradientUnits="userSpaceOnUse" x1="-1339.3181" y1="1636.5623" x2="-1255.712" y2="1875.4371" gradientTransform="matrix(1 0 0 1 3269.4707 0)">
						<stop  offset="0" style="stop-color:#FEBBBA"/>
						<stop  offset="1" style="stop-color:#FF928E"/>
					</linearGradient>
					<path class="st43" d="M1892.8,1785.9c12.3-14.9,27.9-7.8,27.9-7.8c18.4,77.8,115,140.9,214.2,171.7c-6.5,27.6-21.4,74.3-53,111
						C1917.2,1968.2,1892.8,1785.9,1892.8,1785.9z"/>
				</g>
				<linearGradient id="SVGID_35_" gradientUnits="userSpaceOnUse" x1="2990.7327" y1="872.2161" x2="2539.8975" y2="2245.2158">
					<stop  offset="0" style="stop-color:#FF928E"/>
					<stop  offset="1" style="stop-color:#FE7062"/>
				</linearGradient>
				<path class="st44" d="M2477.8,2124.4l48-121.2c0,0,116.9,79.4,136.1,180.2c-22.1,1.6-62.3,7.4-101.6,27.2
					C2551.7,2163,2477.8,2124.4,2477.8,2124.4z"/>
				
					<linearGradient id="SVGID_36_" gradientUnits="userSpaceOnUse" x1="5815.3545" y1="1934.0066" x2="5936.4795" y2="1934.0066" gradientTransform="matrix(-1 0 0 1 8244.7529 0)">
					<stop  offset="0" style="stop-color:#FEBBBA"/>
					<stop  offset="1" style="stop-color:#FF928E"/>
				</linearGradient>
				<path class="st45" d="M2389.3,1868.7l39.8,115.2c0.7,1.9-0.1,4-1.9,5c-10.9,6-50,23.4-97.1-6.5c-4.9-3.1-8.3-8.2-9-14
					l-12.9-99.7H2389.3z"/>
				<g>
					
						<linearGradient id="SVGID_37_" gradientUnits="userSpaceOnUse" x1="-1145.5863" y1="2543.2646" x2="-1190.8494" y2="2393.9763" gradientTransform="matrix(-0.746 -0.6659 -0.6659 0.746 3118.4175 -803.1727)">
						<stop  offset="0" style="stop-color:#FEBBBA"/>
						<stop  offset="1" style="stop-color:#FF928E"/>
					</linearGradient>
					<path class="st46" d="M2302.7,1762c0,0-43.7,82.3-38.1,115.6c5.6,33.3,59.8,30.9,107.1,3.9l33.1-88.9L2302.7,1762z"/>
					
						<linearGradient id="SVGID_38_" gradientUnits="userSpaceOnUse" x1="-1186.4229" y1="2283.1511" x2="-1148.5605" y2="2499.1069" gradientTransform="matrix(-0.746 -0.6659 -0.6659 0.746 3118.4175 -803.1727)">
						<stop  offset="0" style="stop-color:#09005D"/>
						<stop  offset="1" style="stop-color:#1A0F91"/>
					</linearGradient>
					<path class="st47" d="M2369.6,1837.8c-1.9-0.9-2.6-3.2-1.5-5c3.5-5.4,10.1-16.3,12.2-25.8c0,0,7.9-5-20-11.7
						c-27.9-6.7-69.4-17-78.2-40.8c-8.5-23.1,13.9-81.3,49.6-35c1.4,1.8,4,1.8,5.4,0c5.9-7.6,21.2-23.4,42.6-13.8
						c20,9,22.2,23.6,22,31c-0.1,2.2,1.9,3.9,4,3.5c10.1-1.9,34.4-3.6,45.7,21.3c9.3,20.5,3.3,32.1-2.3,37.8c-1.8,1.8-1,4.9,1.4,5.6
						c6.6,2,15.2,7.7,14.4,23.2c-1.2,21.5-25.2,19.6-32.1,18.6c-1.1-0.2-2.3,0.2-3,1.1c-5.9,6.5-32.3,34.1-61,37.4
						c-2.5,0.3-4.4-2.2-3.6-4.5l12.4-36c0.6-1.7-0.2-3.5-1.8-4.2L2369.6,1837.8z"/>
					
						<linearGradient id="SVGID_39_" gradientUnits="userSpaceOnUse" x1="-1191.8563" y1="2542.5693" x2="-1232.5802" y2="2408.2522" gradientTransform="matrix(-0.746 -0.6659 -0.6659 0.746 3118.4175 -803.1727)">
						<stop  offset="0" style="stop-color:#FEBBBA"/>
						<stop  offset="1" style="stop-color:#FF928E"/>
					</linearGradient>
					<path class="st48" d="M2364.6,1842.9c0,0,31.1-21.4,33.4-3.4c2.3,18-28,26.1-43.1,19.4L2364.6,1842.9z"/>
				</g>
				
					<linearGradient id="SVGID_40_" gradientUnits="userSpaceOnUse" x1="-384.7475" y1="2824.6045" x2="-483.2197" y2="2117.3923" gradientTransform="matrix(-1 0 0 1 2146.073 0)">
					<stop  offset="0" style="stop-color:#FEBBBA"/>
					<stop  offset="1" style="stop-color:#FF928E"/>
				</linearGradient>
				<path class="st49" d="M2560.3,2210.6c0,0,40.9,184.4,3.8,288c45.4,21,37,17.1,37,17.1s89.8-262.3,60.8-332.3
					C2604.8,2177.3,2576.5,2192.6,2560.3,2210.6z"/>
				
					<linearGradient id="SVGID_41_" gradientUnits="userSpaceOnUse" x1="-396.4735" y1="2756.5737" x2="-475.0545" y2="2192.217" gradientTransform="matrix(-1 0 0 1 2146.073 0)">
					<stop  offset="0" style="stop-color:#FEBBBA"/>
					<stop  offset="1" style="stop-color:#FF928E"/>
				</linearGradient>
				<path class="st50" d="M2564.2,2498.6c0,0-23.4,30.3-21.5,42.3c1.9,12.1,2.3,17,2.3,17s11.8-8,11-18.3
					c-1.6,32.6-12.5,69.7-2.6,67.9c9.9-1.8,61.3-49.1,49.7-99.6C2576.7,2489.5,2569.3,2491.5,2564.2,2498.6z"/>
			</g>
		</g>
	</g>
</g>
</svg>
