<?xml version="1.0" encoding="utf-8"?>
<!-- Generator: Adobe Illustrator 23.0.0, SVG Export Plug-In . SVG Version: 6.00 Build 0)  -->
<svg version="1.1" xmlns="http://www.w3.org/2000/svg" xmlns:xlink="http://www.w3.org/1999/xlink" x="0px" y="0px"
	 viewBox="0 0 500 474.9" style="enable-background:new 0 0 500 474.9;" xml:space="preserve">
<style type="text/css">
	.st0{fill:#EBEBEB;}
	.st1{fill:#F0F0F0;}
	.st2{fill:#FFFFFF;}
	.st3{fill:#FAFAFA;}
	.st4{fill:#F5F5F5;}
	.st5{display:none;}
	.st6{display:inline;}
	.st7{fill:#407BFF;}
	.st8{opacity:0.9;fill:#FFFFFF;}
	.st9{opacity:0.7;fill:#FFFFFF;}
	.st10{opacity:0.2;fill:#FFFFFF;}
	.st11{opacity:0.5;fill:#FFFFFF;}
	.st12{opacity:0.3;fill:#FFFFFF;}
	.st13{opacity:0.1;}
	.st14{opacity:0.6;fill:#FFFFFF;}
	.st15{opacity:0.2;}
	.st16{fill:#263238;}
	.st17{opacity:0.7;}
	.st18{opacity:0.8;}
	.st19{fill:#803E3C;}
	.st20{fill:#7F3E3B;}
	.st21{opacity:0.6;}
	.st22{fill:#630F0F;}
	.st23{opacity:0.4;fill:#FFFFFF;}
</style>
<g id="Background_Complete">
	<rect x="416.8" y="414.7" class="st0" width="33.1" height="0.3"/>
	<rect x="322.5" y="417.4" class="st0" width="8.7" height="0.3"/>
	<rect x="396.6" y="405.4" class="st0" width="19.2" height="0.3"/>
	<rect x="52.5" y="407.1" class="st0" width="43.2" height="0.3"/>
	<rect x="104.6" y="407.1" class="st0" width="6.3" height="0.3"/>
	<rect x="131.5" y="411.3" class="st0" width="93.7" height="0.3"/>
	<rect y="398.6" class="st0" width="500" height="0.3"/>
	<g>
		<rect x="73.7" y="221.6" class="st1" width="74.3" height="177.2"/>
		<g>
			<rect x="83.9" y="231.2" class="st2" width="7.5" height="11.3"/>
			<rect x="99.4" y="231.2" class="st2" width="7.5" height="11.3"/>
			<rect x="114.9" y="231.2" class="st3" width="7.5" height="11.3"/>
			<rect x="130.4" y="231.2" class="st4" width="7.5" height="11.3"/>
			<rect x="83.9" y="247.9" class="st2" width="7.5" height="11.3"/>
			<rect x="99.4" y="247.9" class="st4" width="7.5" height="11.3"/>
			<rect x="114.9" y="247.9" class="st4" width="7.5" height="11.3"/>
			<rect x="130.4" y="247.9" class="st2" width="7.5" height="11.3"/>
			<rect x="83.9" y="264.7" class="st3" width="7.5" height="11.3"/>
			<rect x="99.4" y="264.7" class="st2" width="7.5" height="11.3"/>
			<rect x="114.9" y="264.7" class="st3" width="7.5" height="11.3"/>
			<rect x="130.4" y="264.7" class="st4" width="7.5" height="11.3"/>
			<rect x="83.9" y="281.5" class="st2" width="7.5" height="11.3"/>
			<rect x="99.4" y="281.5" class="st4" width="7.5" height="11.3"/>
			<rect x="114.9" y="281.5" class="st2" width="7.5" height="11.3"/>
			<rect x="130.4" y="281.5" class="st2" width="7.5" height="11.3"/>
			<rect x="83.9" y="298.2" class="st2" width="7.5" height="11.3"/>
			<rect x="99.4" y="298.2" class="st3" width="7.5" height="11.3"/>
			<rect x="114.9" y="298.2" class="st4" width="7.5" height="11.3"/>
			<rect x="130.4" y="298.2" class="st3" width="7.5" height="11.3"/>
			<rect x="83.9" y="315" class="st4" width="7.5" height="11.3"/>
			<rect x="99.4" y="315" class="st2" width="7.5" height="11.3"/>
			<rect x="114.9" y="315" class="st2" width="7.5" height="11.3"/>
			<rect x="130.4" y="315" class="st2" width="7.5" height="11.3"/>
			<rect x="83.9" y="331.8" class="st3" width="7.5" height="11.3"/>
			<rect x="99.4" y="331.8" class="st2" width="7.5" height="11.3"/>
			<rect x="114.9" y="331.8" class="st4" width="7.5" height="11.3"/>
			<rect x="130.4" y="331.8" class="st2" width="7.5" height="11.3"/>
			<rect x="83.9" y="348.5" class="st2" width="7.5" height="11.3"/>
			<rect x="99.4" y="348.5" class="st4" width="7.5" height="11.3"/>
			<rect x="114.9" y="348.5" class="st3" width="7.5" height="11.3"/>
			<rect x="130.4" y="348.5" class="st2" width="7.5" height="11.3"/>
			<rect x="83.9" y="365.3" class="st2" width="7.5" height="11.3"/>
			<rect x="99.4" y="365.3" class="st2" width="7.5" height="11.3"/>
			<rect x="114.9" y="365.3" class="st2" width="7.5" height="11.3"/>
			<rect x="130.4" y="365.3" class="st4" width="7.5" height="11.3"/>
		</g>
	</g>
	<g>
		<rect x="369.4" y="187.6" class="st4" width="68.9" height="211.1"/>
		<g>
			<rect x="378.9" y="199" class="st2" width="7" height="13.4"/>
			<rect x="393.2" y="199" class="st2" width="7" height="13.4"/>
			<rect x="407.6" y="199" class="st3" width="7" height="13.4"/>
			<rect x="422" y="199" class="st4" width="7" height="13.4"/>
			<rect x="378.9" y="219" class="st2" width="7" height="13.4"/>
			<rect x="393.2" y="219" class="st4" width="7" height="13.4"/>
			<rect x="407.6" y="219" class="st4" width="7" height="13.4"/>
			<rect x="422" y="219" class="st2" width="7" height="13.4"/>
			<rect x="378.9" y="239" class="st3" width="7" height="13.4"/>
			<rect x="393.2" y="239" class="st2" width="7" height="13.4"/>
			<rect x="407.6" y="239" class="st3" width="7" height="13.4"/>
			<rect x="422" y="239" class="st4" width="7" height="13.4"/>
			<rect x="378.9" y="259" class="st2" width="7" height="13.4"/>
			<rect x="393.2" y="259" class="st4" width="7" height="13.4"/>
			<rect x="407.6" y="259" class="st2" width="7" height="13.4"/>
			<rect x="422" y="259" class="st2" width="7" height="13.4"/>
			<rect x="378.9" y="279" class="st2" width="7" height="13.4"/>
			<rect x="393.2" y="279" class="st3" width="7" height="13.4"/>
			<rect x="407.6" y="279" class="st4" width="7" height="13.4"/>
			<rect x="422" y="279" class="st3" width="7" height="13.4"/>
			<rect x="378.9" y="299" class="st4" width="7" height="13.4"/>
			<rect x="393.2" y="299" class="st2" width="7" height="13.4"/>
			<rect x="407.6" y="299" class="st2" width="7" height="13.4"/>
			<rect x="422" y="299" class="st2" width="7" height="13.4"/>
			<rect x="378.9" y="318.9" class="st3" width="7" height="13.4"/>
			<rect x="393.2" y="318.9" class="st2" width="7" height="13.4"/>
			<rect x="407.6" y="318.9" class="st4" width="7" height="13.4"/>
			<rect x="422" y="318.9" class="st2" width="7" height="13.4"/>
			<rect x="378.9" y="338.9" class="st2" width="7" height="13.4"/>
			<rect x="393.2" y="338.9" class="st4" width="7" height="13.4"/>
			<rect x="407.6" y="338.9" class="st3" width="7" height="13.4"/>
			<rect x="422" y="338.9" class="st2" width="7" height="13.4"/>
			<rect x="378.9" y="358.9" class="st2" width="7" height="13.4"/>
			<rect x="393.2" y="358.9" class="st2" width="7" height="13.4"/>
			<rect x="407.6" y="358.9" class="st2" width="7" height="13.4"/>
			<rect x="422" y="358.9" class="st4" width="7" height="13.4"/>
		</g>
	</g>
	<g>
		<rect x="169.5" y="284" class="st0" width="72.4" height="114.8"/>
		<g>
			<rect x="179.4" y="290.2" class="st2" width="7.3" height="7.3"/>
			<rect x="194.5" y="290.2" class="st2" width="7.3" height="7.3"/>
			<rect x="209.6" y="290.2" class="st3" width="7.3" height="7.3"/>
			<rect x="224.8" y="290.2" class="st4" width="7.3" height="7.3"/>
			<rect x="179.4" y="301.1" class="st2" width="7.3" height="7.3"/>
			<rect x="194.5" y="301.1" class="st4" width="7.3" height="7.3"/>
			<rect x="209.6" y="301.1" class="st4" width="7.3" height="7.3"/>
			<rect x="224.8" y="301.1" class="st2" width="7.3" height="7.3"/>
			<rect x="179.4" y="311.9" class="st3" width="7.3" height="7.3"/>
			<rect x="194.5" y="311.9" class="st2" width="7.3" height="7.3"/>
			<rect x="209.6" y="311.9" class="st3" width="7.3" height="7.3"/>
			<rect x="224.8" y="311.9" class="st4" width="7.3" height="7.3"/>
			<rect x="179.4" y="322.8" class="st2" width="7.3" height="7.3"/>
			<rect x="194.5" y="322.8" class="st4" width="7.3" height="7.3"/>
			<rect x="209.6" y="322.8" class="st2" width="7.3" height="7.3"/>
			<rect x="224.8" y="322.8" class="st2" width="7.3" height="7.3"/>
			<rect x="179.4" y="333.7" class="st2" width="7.3" height="7.3"/>
			<rect x="194.5" y="333.7" class="st3" width="7.3" height="7.3"/>
			<rect x="209.6" y="333.7" class="st4" width="7.3" height="7.3"/>
			<rect x="224.8" y="333.7" class="st3" width="7.3" height="7.3"/>
			<rect x="179.4" y="344.5" class="st4" width="7.3" height="7.3"/>
			<rect x="194.5" y="344.5" class="st2" width="7.3" height="7.3"/>
			<rect x="209.6" y="344.5" class="st2" width="7.3" height="7.3"/>
			<rect x="224.8" y="344.5" class="st2" width="7.3" height="7.3"/>
			<rect x="179.4" y="355.4" class="st3" width="7.3" height="7.3"/>
			<rect x="194.5" y="355.4" class="st2" width="7.3" height="7.3"/>
			<rect x="209.6" y="355.4" class="st4" width="7.3" height="7.3"/>
			<rect x="224.8" y="355.4" class="st2" width="7.3" height="7.3"/>
			<rect x="179.4" y="366.2" class="st2" width="7.3" height="7.3"/>
			<rect x="194.5" y="366.2" class="st4" width="7.3" height="7.3"/>
			<rect x="209.6" y="366.2" class="st3" width="7.3" height="7.3"/>
			<rect x="224.8" y="366.2" class="st2" width="7.3" height="7.3"/>
			<rect x="179.4" y="377.1" class="st2" width="7.3" height="7.3"/>
			<rect x="194.5" y="377.1" class="st2" width="7.3" height="7.3"/>
			<rect x="209.6" y="377.1" class="st2" width="7.3" height="7.3"/>
			<rect x="224.8" y="377.1" class="st4" width="7.3" height="7.3"/>
		</g>
	</g>
	<path class="st1" d="M70.6,192.7c17.6,8.8,65.3,13.9,77.2-12.6c14.1-31.4-19.5-5.1-19.5-5.1s0-20.7-11.2-20.7c-15.3,0-14,19-14,19
		s-4.2-8.6-14.9-7.4C77.4,167,83.7,181,83.7,181S56.6,185.7,70.6,192.7z"/>
	<path class="st4" d="M177.9,148.3c20,6.9,74.9,8.4,79.2-20.3c5.1-34.1-24.6-12.3-24.6-12.3s-0.3-16-14-17.6
		c-13.8-1.6-13.6,16.6-13.6,16.6s-24.7-15.1-22.3,13.9C182.6,128.6,144.1,136.6,177.9,148.3z"/>
	<path class="st0" d="M307.9,150.8c21,7.2,78.6,8.9,83.1-21.3c5.4-35.8-25.8-12.9-25.8-12.9s-0.3-16.8-14.7-18.4
		c-14.4-1.6-14.2,17.4-14.2,17.4s-25.9-15.9-23.4,14.6C312.8,130.2,272.4,138.6,307.9,150.8z"/>
	<path class="st4" d="M339.9,166.6c14.5,7.2,53.7,11.5,63.6-10.4c11.6-25.9-16.1-4.2-16.1-4.2s0-17.1-9.2-17.1
		c-12.6,0-11.5,15.6-11.5,15.6s-3.4-7.1-12.3-6.1c-8.9,0.9-3.7,12.5-3.7,12.5S328.4,160.9,339.9,166.6z"/>
</g>
<g id="Background_Simple" class="st5">
	<g class="st6">
		<path class="st7" d="M386.1,312.3c22.9-16.4,43.8-39.6,45.1-69c1.5-33.3-22.5-64.8-49.8-86.2c-41.7-32.7-93-50-143.7-55.8
			c-41.1-4.7-83.9-1.9-118.3,17.8c-34.4,19.7-58.8,59-52.9,100.6c4,28.4,21.2,54.6,42.5,75c31.9,30.5,69,54.2,111.4,58.9
			c38.3,4.2,76.7-0.4,111.7-13C351.4,333.6,369.6,324.1,386.1,312.3z"/>
		<path class="st8" d="M386.1,312.3c22.9-16.4,43.8-39.6,45.1-69c1.5-33.3-22.5-64.8-49.8-86.2c-41.7-32.7-93-50-143.7-55.8
			c-41.1-4.7-83.9-1.9-118.3,17.8c-34.4,19.7-58.8,59-52.9,100.6c4,28.4,21.2,54.6,42.5,75c31.9,30.5,69,54.2,111.4,58.9
			c38.3,4.2,76.7-0.4,111.7-13C351.4,333.6,369.6,324.1,386.1,312.3z"/>
	</g>
</g>
<g id="Shadow">
	
		<ellipse id="_x3C_Path_x3E__00000017502783882127517370000017319397324713810320_" class="st4" cx="250" cy="431.9" rx="193.9" ry="11.3"/>
</g>
<g id="Plant">
	<g>
		<g>
			<path class="st7" d="M74.6,418.9c0,0-4.4,2.1-5.6-1.5c-1.1-3.6-5.8,0.1-6.8-4.1c-0.9-4.2-4.8-1.4-6.1-4.4c-1.3-2.9-5.8-3-5.5-6
				c0.3-3,5.4,0.2,7.8-0.7c2.3-0.9,3.8,4.1,6.9,4.2c3.1,0,4.1,5.9,6.1,5.2C73.5,411,75.1,416,74.6,418.9z"/>
			<path class="st9" d="M74.6,418.9c0,0-4.4,2.1-5.6-1.5c-1.1-3.6-5.8,0.1-6.8-4.1c-0.9-4.2-4.8-1.4-6.1-4.4c-1.3-2.9-5.8-3-5.5-6
				c0.3-3,5.4,0.2,7.8-0.7c2.3-0.9,3.8,4.1,6.9,4.2c3.1,0,4.1,5.9,6.1,5.2C73.5,411,75.1,416,74.6,418.9z"/>
			<path class="st7" d="M75.5,420.4c0,0-9-10.3-20.7-16.5c0,0,6.1,0.9,21.5,16.2L75.5,420.4z"/>
			<path class="st10" d="M75.5,420.4c0,0-9-10.3-20.7-16.5c0,0,6.1,0.9,21.5,16.2L75.5,420.4z"/>
		</g>
		<g>
			<path class="st7" d="M91.1,418.3c0,0,5.3-1.5,3.6-5.4c-1.7-3.9,5-4.2,2.7-8.4c-2.3-4.3,3-4.7,1.9-8.2c-1.1-3.4,2.6-6.8,0.2-9.1
				c-2.5-2.3-4.4,4.2-7,5.2c-2.6,1-0.2,6.3-2.8,8.6c-2.6,2.3,0.9,8-1.3,8.9C86.1,410.9,88.5,416.3,91.1,418.3z"/>
			<path class="st9" d="M91.1,418.3c0,0,5.3-1.5,3.6-5.4c-1.7-3.9,5-4.2,2.7-8.4c-2.3-4.3,3-4.7,1.9-8.2c-1.1-3.4,2.6-6.8,0.2-9.1
				c-2.5-2.3-4.4,4.2-7,5.2c-2.6,1-0.2,6.3-2.8,8.6c-2.6,2.3,0.9,8-1.3,8.9C86.1,410.9,88.5,416.3,91.1,418.3z"/>
			<path class="st7" d="M91.4,420.3c0,0,0-15.3,5.2-29.2c0,0-4.5,5.3-6.2,29.5L91.4,420.3z"/>
			<path class="st10" d="M91.4,420.3c0,0,0-15.3,5.2-29.2c0,0-4.5,5.3-6.2,29.5L91.4,420.3z"/>
		</g>
		<g>
			<path class="st7" d="M79.8,418.1c0,0-6.1,1.3-6.4-3.5c-0.4-4.8-7.2-1.5-7.2-7.1c0-5.5-5.5-3.2-6.3-7.2c-0.8-4-6.2-5.4-5-9.1
				c1.2-3.7,6.6,1.8,9.7,1.5c3.1-0.4,3.6,6.3,7.4,7.2c3.8,0.9,3.4,8.6,6.1,8.3C80.8,408,81.3,414.7,79.8,418.1z"/>
			<path class="st11" d="M79.8,418.1c0,0-6.1,1.3-6.4-3.5c-0.4-4.8-7.2-1.5-7.2-7.1c0-5.5-5.5-3.2-6.3-7.2c-0.8-4-6.2-5.4-5-9.1
				c1.2-3.7,6.6,1.8,9.7,1.5c3.1-0.4,3.6,6.3,7.4,7.2c3.8,0.9,3.4,8.6,6.1,8.3C80.8,408,81.3,414.7,79.8,418.1z"/>
			<path class="st7" d="M80.6,420.2c0,0-8.1-15.4-20.8-26.6c0,0,7.3,2.9,21.9,26.4L80.6,420.2z"/>
			<path class="st10" d="M80.6,420.2c0,0-8.1-15.4-20.8-26.6c0,0,7.3,2.9,21.9,26.4L80.6,420.2z"/>
		</g>
		<g>
			<path class="st7" d="M106.6,419.1c0,0,3.4,0.7,3.6-2.3c0.2-3,4-1.1,4-4.6c0-3.5,3.1-2.1,3.5-4.7c0.4-2.6,3.5-3.6,2.8-5.8
				c-0.7-2.3-3.7,1.3-5.5,1.2c-1.8-0.2-2,4-4.1,4.7c-2.1,0.7-1.9,5.5-3.4,5.4C106.1,412.8,105.8,417,106.6,419.1z"/>
			<path class="st11" d="M106.6,419.1c0,0,3.4,0.7,3.6-2.3c0.2-3,4-1.1,4-4.6c0-3.5,3.1-2.1,3.5-4.7c0.4-2.6,3.5-3.6,2.8-5.8
				c-0.7-2.3-3.7,1.3-5.5,1.2c-1.8-0.2-2,4-4.1,4.7c-2.1,0.7-1.9,5.5-3.4,5.4C106.1,412.8,105.8,417,106.6,419.1z"/>
			<path class="st7" d="M106.2,420.5c0,0,4.5-9.9,11.6-17.2c0,0-4.1,2-12.2,17.2L106.2,420.5z"/>
			<path class="st10" d="M106.2,420.5c0,0,4.5-9.9,11.6-17.2c0,0-4.1,2-12.2,17.2L106.2,420.5z"/>
		</g>
		<g>
			<path class="st7" d="M101.5,417.4c0,0,2.7,1.5,5.7-6c3-7.5,5.4-16.3,9.7-19.4c0,0-6.6-0.3-11.6,9
				C100.3,410.2,100.2,416.8,101.5,417.4z"/>
			<path class="st12" d="M101.5,417.4c0,0,2.7,1.5,5.7-6c3-7.5,5.4-16.3,9.7-19.4c0,0-6.6-0.3-11.6,9
				C100.3,410.2,100.2,416.8,101.5,417.4z"/>
			<g>
				<path class="st7" d="M100.2,420.3c1.4-4.7,2.7-8.5,3.9-11.6c0.3-2-0.4-3.3-0.4-3.3c0.6,0.6,0.8,1.6,0.8,2.3
					c1-2.5,1.9-4.6,2.8-6.2c0.2-1.6-0.3-2.1-0.3-2.1c0.6,0.2,0.7,0.8,0.7,1.4c2.3-4.3,3.7-5.4,3.7-5.4c-0.6,0.9-1.1,1.7-1.6,2.6
					c1.4-1,2.5-1,2.5-1c-1.3,0.3-2.3,1.2-2.9,1.8c-1,1.8-1.9,3.7-2.7,5.5c0.7-0.8,1.8-1.8,3.2-2.4c-0.3,0.1-1.9,0.9-3.7,3.6
					c-0.9,2.1-1.7,4.1-2.3,6c1.7-1.6,3.6-1.6,3.6-1.6c-2.2,0.7-3.3,1.7-3.9,2.4c-1.6,4.7-2.3,8-2.3,8L100.2,420.3z"/>
				<path class="st7" d="M109.8,402C109.8,402,109.8,401.9,109.8,402C109.8,402,109.8,402,109.8,402z"/>
			</g>
			<g class="st13">
				<path class="st2" d="M100.2,420.3c1.4-4.7,2.7-8.5,3.9-11.6c0.3-2-0.4-3.3-0.4-3.3c0.6,0.6,0.8,1.6,0.8,2.3
					c1-2.5,1.9-4.6,2.8-6.2c0.2-1.6-0.3-2.1-0.3-2.1c0.6,0.2,0.7,0.8,0.7,1.4c2.3-4.3,3.7-5.4,3.7-5.4c-0.6,0.9-1.1,1.7-1.6,2.6
					c1.4-1,2.5-1,2.5-1c-1.3,0.3-2.3,1.2-2.9,1.8c-1,1.8-1.9,3.7-2.7,5.5c0.7-0.8,1.8-1.8,3.2-2.4c-0.3,0.1-1.9,0.9-3.7,3.6
					c-0.9,2.1-1.7,4.1-2.3,6c1.7-1.6,3.6-1.6,3.6-1.6c-2.2,0.7-3.3,1.7-3.9,2.4c-1.6,4.7-2.3,8-2.3,8L100.2,420.3z"/>
				<path class="st2" d="M109.8,402C109.8,402,109.8,401.9,109.8,402C109.8,402,109.8,402,109.8,402z"/>
			</g>
		</g>
		<g>
			<path class="st7" d="M96.9,417.4c0,0,2.9,1,4.6-6.9c1.7-7.9,2.7-17,6.5-20.8c0,0-6.6,0.7-10,10.8C94.6,410.5,95.4,417,96.9,417.4
				z"/>
			<path class="st14" d="M96.9,417.4c0,0,2.9,1,4.6-6.9c1.7-7.9,2.7-17,6.5-20.8c0,0-6.6,0.7-10,10.8
				C94.6,410.5,95.4,417,96.9,417.4z"/>
			<g>
				<path class="st7" d="M96.1,420.5c0.6-4.8,1.2-8.8,1.9-12.1c-0.1-2-0.9-3.2-0.9-3.2c0.7,0.5,1,1.4,1.1,2.2
					c0.6-2.7,1.2-4.8,1.7-6.5c0-1.7-0.7-2-0.7-2c0.6,0.1,0.9,0.7,0.9,1.3c1.6-4.6,2.8-5.9,2.8-5.9c-0.4,0.9-0.8,1.9-1.2,2.9
					c1.3-1.2,2.3-1.4,2.3-1.4c-1.2,0.5-2.1,1.5-2.6,2.2c-0.7,2-1.3,3.9-1.8,5.8c0.6-0.9,1.5-2.1,2.8-2.9c-0.2,0.2-1.7,1.2-3.1,4.1
					c-0.6,2.2-1,4.3-1.3,6.3c1.4-1.9,3.3-2.2,3.3-2.2c-2.1,1-3,2.2-3.5,2.9c-0.8,4.9-1,8.3-1,8.3L96.1,420.5z"/>
				<path class="st7" d="M102.5,400.8C102.6,400.8,102.6,400.8,102.5,400.8C102.6,400.8,102.5,400.8,102.5,400.8z"/>
			</g>
			<g class="st15">
				<path class="st2" d="M96.1,420.5c0.6-4.8,1.2-8.8,1.9-12.1c-0.1-2-0.9-3.2-0.9-3.2c0.7,0.5,1,1.4,1.1,2.2
					c0.6-2.7,1.2-4.8,1.7-6.5c0-1.7-0.7-2-0.7-2c0.6,0.1,0.9,0.7,0.9,1.3c1.6-4.6,2.8-5.9,2.8-5.9c-0.4,0.9-0.8,1.9-1.2,2.9
					c1.3-1.2,2.3-1.4,2.3-1.4c-1.2,0.5-2.1,1.5-2.6,2.2c-0.7,2-1.3,3.9-1.8,5.8c0.6-0.9,1.5-2.1,2.8-2.9c-0.2,0.2-1.7,1.2-3.1,4.1
					c-0.6,2.2-1,4.3-1.3,6.3c1.4-1.9,3.3-2.2,3.3-2.2c-2.1,1-3,2.2-3.5,2.9c-0.8,4.9-1,8.3-1,8.3L96.1,420.5z"/>
				<path class="st2" d="M102.5,400.8C102.6,400.8,102.6,400.8,102.5,400.8C102.6,400.8,102.5,400.8,102.5,400.8z"/>
			</g>
		</g>
		<g>
			<path class="st7" d="M85,417.1c0,0-3.5,1.4-5.9-8.3c-2.3-9.6-3.8-20.7-8.6-25.2c0,0,8.1,0.7,12.6,12.8
				C87.6,408.6,86.8,416.6,85,417.1z"/>
			<path class="st12" d="M85,417.1c0,0-3.5,1.4-5.9-8.3c-2.3-9.6-3.8-20.7-8.6-25.2c0,0,8.1,0.7,12.6,12.8
				C87.6,408.6,86.8,416.6,85,417.1z"/>
			<g>
				<path class="st7" d="M86.1,420.9c-0.9-5.9-1.8-10.8-2.8-14.8c0-2.4,1-4,1-4c-0.8,0.6-1.2,1.8-1.3,2.7c-0.8-3.2-1.6-5.8-2.3-8
					c0-2,0.8-2.5,0.8-2.5c-0.8,0.1-1,0.9-1.1,1.6c-2.1-5.6-3.7-7.2-3.7-7.2c0.5,1.1,1,2.3,1.5,3.5c-1.6-1.5-2.8-1.6-2.8-1.6
					c1.5,0.6,2.6,1.8,3.2,2.6c0.9,2.4,1.7,4.8,2.4,7.1c-0.7-1.1-1.9-2.5-3.5-3.4c0.3,0.2,2.1,1.4,4,5c0.8,2.7,1.4,5.3,1.8,7.6
					c-1.8-2.3-4.1-2.6-4.1-2.6c2.6,1.2,3.8,2.6,4.3,3.5c1.2,6,1.5,10.1,1.5,10.1L86.1,420.9z"/>
				<path class="st7" d="M77.6,397C77.5,397,77.5,397,77.6,397C77.5,397,77.5,397,77.6,397z"/>
			</g>
			<g class="st13">
				<path class="st2" d="M86.1,420.9c-0.9-5.9-1.8-10.8-2.8-14.8c0-2.4,1-4,1-4c-0.8,0.6-1.2,1.8-1.3,2.7c-0.8-3.2-1.6-5.8-2.3-8
					c0-2,0.8-2.5,0.8-2.5c-0.8,0.1-1,0.9-1.1,1.6c-2.1-5.6-3.7-7.2-3.7-7.2c0.5,1.1,1,2.3,1.5,3.5c-1.6-1.5-2.8-1.6-2.8-1.6
					c1.5,0.6,2.6,1.8,3.2,2.6c0.9,2.4,1.7,4.8,2.4,7.1c-0.7-1.1-1.9-2.5-3.5-3.4c0.3,0.2,2.1,1.4,4,5c0.8,2.7,1.4,5.3,1.8,7.6
					c-1.8-2.3-4.1-2.6-4.1-2.6c2.6,1.2,3.8,2.6,4.3,3.5c1.2,6,1.5,10.1,1.5,10.1L86.1,420.9z"/>
				<path class="st2" d="M77.6,397C77.5,397,77.5,397,77.6,397C77.5,397,77.5,397,77.6,397z"/>
			</g>
		</g>
		<g>
			<path class="st7" d="M63.1,422.5l1.5,5.6c0.6,2.2,2.6,3.7,4.8,3.7h38.9c2.3,0,4.3-1.5,4.8-3.7l1.5-5.6c0.4-1.6-0.8-3.2-2.5-3.2
				H65.6C64,419.3,62.7,420.9,63.1,422.5z"/>
		</g>
	</g>
</g>
<g id="Device">
	<g>
		<g>
			<path class="st7" d="M403.9,172.5H379l-18.5,259.4h24.9c6.8,0,12.9-6.8,13.5-15.2l16.4-229.1
				C415.9,179.3,410.8,172.5,403.9,172.5z"/>
			<path class="st7" d="M381.5,431.9H249.8c-6.8,0-11.9-6.8-11.3-15.2l16.4-229.1c0.6-8.4,6.6-15.2,13.5-15.2H400
				c6.8,0,11.9,6.8,11.3,15.2L395,416.7C394.4,425.1,388.3,431.9,381.5,431.9z"/>
			<path class="st14" d="M381.5,431.9H249.8c-6.8,0-11.9-6.8-11.3-15.2l16.4-229.1c0.6-8.4,6.6-15.2,13.5-15.2H400
				c6.8,0,11.9,6.8,11.3,15.2L395,416.7C394.4,425.1,388.3,431.9,381.5,431.9z"/>
			<path class="st9" d="M399.7,176.7H268.1c-4.9,0-9.3,4.9-9.8,11l-16.4,229.1c-0.4,6.1,3.2,11,8.2,11h131.7c4.9,0,9.3-4.9,9.8-11
				l16.4-229.1C408.4,181.6,404.7,176.7,399.7,176.7z"/>
			<path class="st7" d="M319.5,422.8h-6.4c-1.8,0-3.1-1.7-2.9-3.9v0c0.2-2.2,1.7-3.9,3.5-3.9h6.4c1.8,0,3.1,1.7,2.9,3.9v0
				C322.8,421.1,321.3,422.8,319.5,422.8z"/>
			<path class="st14" d="M319.5,422.8h-6.4c-1.8,0-3.1-1.7-2.9-3.9v0c0.2-2.2,1.7-3.9,3.5-3.9h6.4c1.8,0,3.1,1.7,2.9,3.9v0
				C322.8,421.1,321.3,422.8,319.5,422.8z"/>
			<path class="st15" d="M335.3,183.3c-0.1,1.3-1,2.3-2.1,2.3c-1,0-1.8-1-1.7-2.3c0.1-1.3,1-2.3,2.1-2.3
				C334.6,181,335.4,182.1,335.3,183.3z"/>
		</g>
		<g>
			<polygon class="st7" points="390.5,409.9 243.9,409.9 259.3,194.5 405.9,194.5 			"/>
			<polygon class="st12" points="390.5,409.9 243.9,409.9 259.3,194.5 405.9,194.5 			"/>
			<polygon class="st7" points="390.5,409.9 243.9,409.9 405.9,194.5 			"/>
		</g>
		<g>
			<path class="st16" d="M280.9,331.9h-9.9c-1.7,0-3.2-0.8-4.3-2.2c-1.1-1.5-1.6-3.4-1.5-5.4l0.9-12.2c0.3-4.1,3.3-7.5,6.6-7.5h9.9
				c1.7,0,3.2,0.8,4.3,2.2c1.1,1.5,1.6,3.4,1.5,5.4l-0.9,12.2C287.2,328.6,284.2,331.9,280.9,331.9z M272.7,307
				c-2.4,0-4.5,2.4-4.7,5.3l-0.9,12.2c-0.1,1.4,0.2,2.7,1,3.6c0.7,0.9,1.7,1.5,2.8,1.5h9.9c2.4,0,4.5-2.4,4.7-5.3l0.9-12.2
				c0.1-1.4-0.2-2.7-1-3.6c-0.7-0.9-1.7-1.5-2.8-1.5H272.7z"/>
		</g>
		<g>
			<path class="st16" d="M283.8,291.5h-9.9c-1.7,0-3.2-0.8-4.3-2.2c-1.1-1.5-1.6-3.4-1.5-5.4l0.9-12.2c0.3-4.1,3.3-7.5,6.6-7.5h9.9
				c1.7,0,3.2,0.8,4.3,2.2c1.1,1.5,1.6,3.4,1.5,5.4l-0.9,12.2C290.1,288.1,287.1,291.5,283.8,291.5z M275.6,266.6
				c-2.4,0-4.5,2.4-4.7,5.3L270,284c-0.1,1.4,0.2,2.7,1,3.6c0.7,1,1.7,1.5,2.8,1.5h9.9c2.4,0,4.5-2.4,4.7-5.3l0.9-12.2
				c0.1-1.4-0.2-2.7-1-3.6c-0.7-0.9-1.7-1.5-2.8-1.5H275.6z"/>
		</g>
		<g>
			<path class="st16" d="M278,372.3H268c-1.7,0-3.2-0.8-4.3-2.2c-1.1-1.5-1.6-3.4-1.5-5.4l0.9-12.2c0.3-4.1,3.3-7.5,6.6-7.5h9.9
				c1.7,0,3.2,0.8,4.3,2.2c1.1,1.5,1.6,3.4,1.5,5.4l-0.9,12.2C284.3,369,281.4,372.3,278,372.3z M269.8,347.4
				c-2.4,0-4.5,2.4-4.7,5.3l-0.9,12.2c-0.1,1.4,0.2,2.7,1,3.6c0.7,0.9,1.7,1.5,2.8,1.5h9.9c2.4,0,4.5-2.4,4.7-5.3l0.9-12.2
				c0.1-1.4-0.2-2.7-1-3.6c-0.7-0.9-1.7-1.5-2.8-1.5H269.8z"/>
		</g>
		<g>
			<g>
				<path class="st2" d="M280.7,233.7h-5.1l-1.2,2.9h-2.6l5.8-13.4h2.5l3.9,13.4h-2.7L280.7,233.7z M280.1,231.3l-1.4-5.1l-2.1,5.1
					H280.1z"/>
				<path class="st2" d="M286.2,223.1h5c1.2,0,2.2,0.3,3.1,0.8c0.9,0.6,1.5,1.3,2,2.3c0.4,1,0.6,2.2,0.5,3.5c-0.1,1.3-0.4,2.5-1,3.5
					c-0.6,1-1.3,1.8-2.3,2.3c-1,0.6-2,0.8-3.2,0.8h-5L286.2,223.1z M290.3,234c1.1,0,2-0.4,2.7-1.1c0.7-0.7,1.1-1.8,1.2-3
					c0.1-1.3-0.2-2.3-0.8-3c-0.6-0.7-1.4-1.1-2.5-1.1h-2.3L288,234H290.3z"/>
				<path class="st2" d="M309.3,223.1l-5.7,13.4h-2.5l-3.8-13.4h2.7l2.6,9.6l4.1-9.6H309.3z"/>
				<path class="st2" d="M316.3,233.7h-5.1l-1.2,2.9h-2.6l5.8-13.4h2.5l3.9,13.4h-2.7L316.3,233.7z M315.7,231.3l-1.4-5.1l-2.1,5.1
					H315.7z"/>
				<path class="st2" d="M331.9,223.1l-1,13.4h-2.1l-4.9-8.1l-0.6,8.1h-2.5l1-13.4h2.1l4.9,8.1l0.6-8.1H331.9z"/>
				<path class="st2" d="M336.6,225.7h-3.5l0.2-2.5h9.5l-0.2,2.5h-3.5l-0.8,10.9h-2.5L336.6,225.7z"/>
				<path class="st2" d="M350.1,233.7H345l-1.2,2.9h-2.6l5.8-13.4h2.5l3.9,13.4h-2.7L350.1,233.7z M349.4,231.3l-1.4-5.1l-2.1,5.1
					H349.4z"/>
				<path class="st2" d="M362.4,229.6h2.3l-0.4,5.4c-0.6,0.5-1.4,1-2.2,1.3c-0.8,0.3-1.6,0.4-2.4,0.4c-1.1,0-2.1-0.3-3-0.9
					c-0.9-0.6-1.5-1.4-2-2.5c-0.4-1.1-0.6-2.2-0.5-3.6c0.1-1.3,0.4-2.5,1-3.6c0.6-1.1,1.4-1.9,2.3-2.5c1-0.6,2-0.9,3.2-0.9
					c1,0,1.8,0.2,2.6,0.6c0.8,0.4,1.4,1,1.8,1.7l-1.8,1.8c-0.7-1-1.6-1.5-2.7-1.5c-0.7,0-1.3,0.2-1.9,0.5c-0.6,0.4-1,0.9-1.4,1.5
					c-0.3,0.7-0.6,1.4-0.6,2.2c-0.1,0.8,0,1.6,0.3,2.2c0.3,0.7,0.6,1.2,1.2,1.5c0.5,0.4,1.1,0.5,1.8,0.5c0.7,0,1.4-0.2,2-0.6
					L362.4,229.6z"/>
				<path class="st2" d="M375.2,234l-0.2,2.5h-8.5l1-13.4h8.3l-0.2,2.5h-5.8l-0.2,2.9h5.1l-0.2,2.4h-5.1l-0.2,3.1H375.2z"/>
				<path class="st2" d="M378.1,236.3c-0.8-0.3-1.4-0.7-1.9-1.1l1-2.3c0.4,0.4,1,0.8,1.6,1c0.6,0.3,1.3,0.4,1.9,0.4
					c0.7,0,1.3-0.1,1.6-0.4c0.4-0.3,0.6-0.6,0.6-1c0-0.3-0.1-0.6-0.2-0.8c-0.2-0.2-0.4-0.4-0.7-0.5c-0.3-0.1-0.7-0.3-1.3-0.4
					c-0.8-0.2-1.5-0.5-2-0.7c-0.5-0.2-0.9-0.6-1.3-1.2c-0.3-0.5-0.5-1.3-0.4-2.1c0.1-0.8,0.3-1.5,0.7-2.1c0.4-0.6,0.9-1.1,1.7-1.5
					c0.7-0.4,1.6-0.6,2.6-0.6c0.7,0,1.4,0.1,2,0.3c0.7,0.2,1.2,0.5,1.7,0.9l-1,2.4c-1-0.7-1.9-1.1-3-1.1c-0.7,0-1.2,0.1-1.6,0.4
					c-0.4,0.3-0.6,0.7-0.6,1.1c0,0.5,0.1,0.8,0.5,1c0.4,0.2,1,0.4,1.7,0.7c0.8,0.2,1.5,0.5,2,0.7c0.5,0.2,0.9,0.6,1.3,1.1
					c0.3,0.5,0.5,1.2,0.4,2.1c-0.1,0.8-0.3,1.5-0.7,2.1c-0.4,0.6-1,1.1-1.7,1.5c-0.7,0.4-1.6,0.6-2.6,0.6
					C379.8,236.8,378.9,236.6,378.1,236.3z"/>
			</g>
		</g>
		<g>
			<g>
				<path class="st7" d="M335.4,282.9h-31.6c-2.3,0-4-2.3-3.8-5.1l0,0c0.2-2.8,2.2-5.1,4.5-5.1h31.6c2.3,0,4,2.3,3.8,5.1l0,0
					C339.7,280.7,337.7,282.9,335.4,282.9z"/>
				<path class="st7" d="M380.3,282.9h-31.6c-2.3,0-4-2.3-3.8-5.1l0,0c0.2-2.8,2.2-5.1,4.5-5.1h31.6c2.3,0,4,2.3,3.8,5.1l0,0
					C384.7,280.7,382.6,282.9,380.3,282.9z"/>
			</g>
			<g class="st17">
				<path class="st2" d="M335.4,282.9h-31.6c-2.3,0-4-2.3-3.8-5.1l0,0c0.2-2.8,2.2-5.1,4.5-5.1h31.6c2.3,0,4,2.3,3.8,5.1l0,0
					C339.7,280.7,337.7,282.9,335.4,282.9z"/>
				<path class="st2" d="M380.3,282.9h-31.6c-2.3,0-4-2.3-3.8-5.1l0,0c0.2-2.8,2.2-5.1,4.5-5.1h31.6c2.3,0,4,2.3,3.8,5.1l0,0
					C384.7,280.7,382.6,282.9,380.3,282.9z"/>
			</g>
		</g>
		<g>
			<g>
				<path class="st7" d="M318.6,323.4h-17.7c-2.3,0-4-2.3-3.8-5.1l0,0c0.2-2.8,2.2-5.1,4.5-5.1h17.7c2.3,0,4,2.3,3.8,5.1l0,0
					C323,321.1,320.9,323.4,318.6,323.4z"/>
				<path class="st7" d="M370.6,323.4H332c-2.3,0-4-2.3-3.8-5.1l0,0c0.2-2.8,2.2-5.1,4.5-5.1h38.6c2.3,0,4,2.3,3.8,5.1l0,0
					C374.9,321.1,372.9,323.4,370.6,323.4z"/>
			</g>
			<g class="st17">
				<path class="st2" d="M318.6,323.4h-17.7c-2.3,0-4-2.3-3.8-5.1l0,0c0.2-2.8,2.2-5.1,4.5-5.1h17.7c2.3,0,4,2.3,3.8,5.1l0,0
					C323,321.1,320.9,323.4,318.6,323.4z"/>
				<path class="st2" d="M370.6,323.4H332c-2.3,0-4-2.3-3.8-5.1l0,0c0.2-2.8,2.2-5.1,4.5-5.1h38.6c2.3,0,4,2.3,3.8,5.1l0,0
					C374.9,321.1,372.9,323.4,370.6,323.4z"/>
			</g>
		</g>
		<g>
			<g>
				<path class="st7" d="M315.7,363.8h-17.7c-2.3,0-4-2.3-3.8-5.1l0,0c0.2-2.8,2.2-5.1,4.5-5.1h17.7c2.3,0,4,2.3,3.8,5.1l0,0
					C320.1,361.5,318,363.8,315.7,363.8z"/>
				<path class="st7" d="M368.8,363.8h-1.7c-2.3,0-4-2.3-3.8-5.1l0,0c0.2-2.8,2.2-5.1,4.5-5.1h1.7c2.3,0,4,2.3,3.8,5.1l0,0
					C373.1,361.5,371.1,363.8,368.8,363.8z"/>
				<path class="st7" d="M354.6,363.8h-25.5c-2.3,0-4-2.3-3.8-5.1l0,0c0.2-2.8,2.2-5.1,4.5-5.1h25.5c2.3,0,4,2.3,3.8,5.1l0,0
					C358.9,361.5,356.9,363.8,354.6,363.8z"/>
			</g>
			<g class="st17">
				<path class="st2" d="M315.7,363.8h-17.7c-2.3,0-4-2.3-3.8-5.1l0,0c0.2-2.8,2.2-5.1,4.5-5.1h17.7c2.3,0,4,2.3,3.8,5.1l0,0
					C320.1,361.5,318,363.8,315.7,363.8z"/>
				<path class="st2" d="M368.8,363.8h-1.7c-2.3,0-4-2.3-3.8-5.1l0,0c0.2-2.8,2.2-5.1,4.5-5.1h1.7c2.3,0,4,2.3,3.8,5.1l0,0
					C373.1,361.5,371.1,363.8,368.8,363.8z"/>
				<path class="st2" d="M354.6,363.8h-25.5c-2.3,0-4-2.3-3.8-5.1l0,0c0.2-2.8,2.2-5.1,4.5-5.1h25.5c2.3,0,4,2.3,3.8,5.1l0,0
					C358.9,361.5,356.9,363.8,354.6,363.8z"/>
			</g>
		</g>
		<g>
			<path class="st2" d="M300.7,258.6c-8.8,4.2-16.7,10.2-22.3,17.1c-2.8-3.1-6.9-5.3-11.9-6.3l-0.1,0c-0.3-0.1-0.5,0.2-0.6,0.5
				l-0.4,2.6c0,0.3,0.1,0.5,0.3,0.6l0,0c4.9,2.3,8.7,6.5,11,11.9l0,0c0.2,0.4,0.6,0.4,0.9,0l0-0.1c6-10.2,14.2-18.8,23.2-24.2l0,0
				c0.2-0.1,0.3-0.3,0.3-0.5l0.2-1.1C301.4,258.7,301.1,258.4,300.7,258.6L300.7,258.6z"/>
			<path class="st2" d="M297.8,299c-8.8,4.2-16.7,10.2-22.3,17.1c-2.8-3.1-6.9-5.3-11.9-6.3l-0.1,0c-0.3-0.1-0.5,0.2-0.6,0.5
				l-0.4,2.6c0,0.3,0.1,0.5,0.3,0.6l0,0c4.9,2.3,8.7,6.5,11,11.9l0,0c0.2,0.4,0.6,0.4,0.9,0l0-0.1c6-10.2,14.2-18.8,23.2-24.2l0,0
				c0.2-0.1,0.3-0.3,0.3-0.5l0.2-1.1C298.5,299.2,298.2,298.8,297.8,299L297.8,299z"/>
			<path class="st2" d="M294.9,339.4c-8.8,4.2-16.7,10.2-22.3,17.1c-2.8-3.1-6.9-5.3-11.9-6.3l-0.1,0c-0.3-0.1-0.5,0.2-0.6,0.5
				l-0.4,2.6c0,0.3,0.1,0.5,0.3,0.6l0,0c4.9,2.3,8.7,6.5,11,11.9l0,0c0.2,0.4,0.6,0.4,0.9,0l0-0.1c6-10.2,14.2-18.8,23.2-24.2l0,0
				c0.2-0.1,0.3-0.3,0.3-0.5l0.2-1.1C295.6,339.6,295.3,339.3,294.9,339.4L294.9,339.4z"/>
		</g>
	</g>
</g>
<g id="Character">
	<g>
		<g>
			<path class="st7" d="M260,124.6c0-52.6-42.7-95.3-95.3-95.3c-52.6,0-95.3,42.7-95.3,95.3c0,43.2,45,84.2,68.2,121.7
				c3.3,5.3,0,19.6,0,19.6h54.2c0,0-3.3-14.3,0-19.6C215,208.8,260,167.8,260,124.6z"/>
			<path class="st11" d="M260,124.6c0-52.6-42.7-95.3-95.3-95.3c-52.6,0-95.3,42.7-95.3,95.3c0,43.2,45,84.2,68.2,121.7
				c3.3,5.3,0,19.6,0,19.6h54.2c0,0-3.3-14.3,0-19.6C215,208.8,260,167.8,260,124.6z"/>
			<path class="st12" d="M164.7,265.8h-16.3c0,0,2-14.3,0-19.6c-13.9-37.5-40.9-78.4-40.9-121.7c0-52.6,25.6-95.3,57.2-95.3
				c31.6,0,57.2,42.7,57.2,95.3c0,43.2-27,84.2-40.9,121.7c-2,5.3,0,19.6,0,19.6H164.7z"/>
			<path class="st11" d="M164.7,265.8h-5.4c0,0,0.7-14.3,0-19.6c-4.6-37.5-13.6-78.4-13.6-121.7c0-52.6,8.5-95.3,19.1-95.3
				c10.5,0,19.1,42.7,19.1,95.3c0,43.2-9,84.2-13.6,121.7c-0.7,5.3,0,19.6,0,19.6H164.7z"/>
			<path class="st7" d="M191.7,269.6h-54c-1.2,0-2.3-1-2.3-2.3V265c0-1.2,1-2.3,2.3-2.3h54c1.2,0,2.3,1,2.3,2.3v2.3
				C193.9,268.6,192.9,269.6,191.7,269.6z"/>
			<path class="st15" d="M191.7,269.6h-54c-1.2,0-2.3-1-2.3-2.3V265c0-1.2,1-2.3,2.3-2.3h54c1.2,0,2.3,1,2.3,2.3v2.3
				C193.9,268.6,192.9,269.6,191.7,269.6z"/>
			<path class="st7" d="M252.1,163.6H77.2c-1.2,0-2.3-1-2.3-2.3V159c0-1.2,1-2.3,2.3-2.3h174.9c1.2,0,2.3,1,2.3,2.3v2.3
				C254.4,162.6,253.4,163.6,252.1,163.6z"/>
			<path class="st15" d="M252.1,163.6H77.2c-1.2,0-2.3-1-2.3-2.3V159c0-1.2,1-2.3,2.3-2.3h174.9c1.2,0,2.3,1,2.3,2.3v2.3
				C254.4,162.6,253.4,163.6,252.1,163.6z"/>
			<g>
				<circle class="st7" cx="164.7" cy="110.8" r="38.5"/>
				<circle class="st10" cx="164.7" cy="110.8" r="38.5"/>
				<g class="st18">
					<path class="st2" d="M164.7,146.3c-19.6,0-35.5-15.9-35.5-35.5c0-19.6,15.9-35.5,35.5-35.5c19.6,0,35.5,15.9,35.5,35.5
						C200.2,130.4,184.2,146.3,164.7,146.3z M164.7,79.6c-17.2,0-31.2,14-31.2,31.2c0,17.2,14,31.2,31.2,31.2
						c17.2,0,31.2-14,31.2-31.2C195.9,93.6,181.9,79.6,164.7,79.6z"/>
				</g>
				<path class="st15" d="M186.2,98.2l-19.9-1.4l-0.3,0.1l0.7-3.4v0l0.8-3.9c0-0.1,0-0.2,0-0.3c0-1,0.1-7-1.3-8.4
					c-0.7-0.7-3.2-0.9-4.8-0.9c-0.7,0-1.3,0.5-1.4,1.2c-0.3,2.7-0.9,8.9-1.6,11.3c-0.7,2.3-3.2,7.4-4.8,10.4l-2.7,1.3
					c-0.1-1.1-1-1.9-2-1.9h-7.7c-1.1,0-2.1,0.9-2.1,2.1v25.1c0,1.1,0.9,2.1,2.1,2.1h7.7c0.9,0,1.7-0.6,2-1.5c3.2,0,9.7,0,12.3,0
					c4.5,0,18,0,18,0c2,0,3.7-1.4,4.1-3.3l4.7-23.6C190.5,100.7,188.7,98.3,186.2,98.2z"/>
				<path class="st7" d="M152.6,102.5c0,0,5-9.3,6-12.7c0.7-2.4,1.4-8.6,1.6-11.3c0.1-0.7,0.7-1.2,1.4-1.2c1.5,0,4,0.2,4.8,0.9
					c1.4,1.4,1.4,7.4,1.3,8.4c0,0.1,0,0.2,0,0.3l-2.4,11.2L152.6,102.5z"/>
				<path class="st8" d="M152.6,102.5c0,0,5-9.3,6-12.7c0.7-2.4,1.4-8.6,1.6-11.3c0.1-0.7,0.7-1.2,1.4-1.2c1.5,0,4,0.2,4.8,0.9
					c1.4,1.4,1.4,7.4,1.3,8.4c0,0.1,0,0.2,0,0.3l-2.4,11.2L152.6,102.5z"/>
				<polygon class="st15" points="166.8,90.9 155.1,100.5 157.9,100.7 165.2,98.2 				"/>
				<path class="st7" d="M150,102.1l16.3-7.9l19.9,1.4c2.5,0.2,4.3,2.5,3.8,4.9l-4.7,23.6c-0.4,1.9-2.1,3.3-4.1,3.3c0,0-13.5,0-18,0
					c-3.5,0-14.1,0-14.1,0L150,102.1z"/>
				<path class="st8" d="M150,102.1l16.3-7.9l19.9,1.4c2.5,0.2,4.3,2.5,3.8,4.9l-4.7,23.6c-0.4,1.9-2.1,3.3-4.1,3.3c0,0-13.5,0-18,0
					c-3.5,0-14.1,0-14.1,0L150,102.1z"/>
				<path class="st7" d="M148.7,129h-7c-1.3,0-2.4-1.1-2.4-2.4v-24.4c0-1.3,1.1-2.4,2.4-2.4h7c1.3,0,2.4,1.1,2.4,2.4v24.4
					C151.1,127.9,150,129,148.7,129z"/>
				<path class="st15" d="M148.7,129h-7c-1.3,0-2.4-1.1-2.4-2.4v-24.4c0-1.3,1.1-2.4,2.4-2.4h7c1.3,0,2.4,1.1,2.4,2.4v24.4
					C151.1,127.9,150,129,148.7,129z"/>
			</g>
			<g>
				<polygon points="249.3,163.6 190.8,332.1 192.1,332.1 250.6,163.6 				"/>
				<polygon points="78.7,163.6 137.2,332.1 138.6,332.1 80.1,163.6 				"/>
			</g>
		</g>
		<g>
			<path class="st19" d="M198.4,268.6c0.4,2.3,0.9,4.8,1.4,7.1c0.5,2.4,1.1,4.7,1.8,6.8c0.4,1,0.8,2.1,1.2,2.7l0.1,0.2
				c0,0.1,0.1,0.1,0.1,0.2c0,0,0,0.1,0.1,0.1c0,0,0,0-0.1,0c-0.1,0,0,0-0.1,0c0,0,0.1,0.1,0.2,0.2c0.2,0.1,0.4,0.2,0.6,0.3
				c0.9,0.3,2.1,0.6,3.3,0.9c1.2,0.3,2.4,0.5,3.6,0.8l0.1,3.6c-1.3,0.3-2.6,0.5-4,0.7c-1.4,0.1-2.7,0.2-4.3,0
				c-0.4,0-0.8-0.1-1.2-0.2c-0.4-0.1-0.9-0.3-1.5-0.6c-0.2-0.1-0.3-0.1-0.5-0.3c-0.2-0.1-0.4-0.3-0.4-0.3c-0.2-0.2-0.4-0.4-0.6-0.6
				l-0.5-0.6l-0.4-0.5c-1-1.4-1.6-2.7-2.2-4c-1.1-2.6-1.8-5.1-2.4-7.7c-0.3-1.3-0.6-2.6-0.8-3.8c-0.2-1.3-0.5-2.5-0.6-3.9
				L198.4,268.6z"/>
			<path class="st7" d="M190.5,268.1c-1.9,4.1,2.6,13.7,2.6,13.7l7.9-3.8c0,0,0.2-4.7-2.7-9.8c-2.1-3.8-5.5-5.1-8-3.9
				C189.5,264.8,191.1,266.8,190.5,268.1z"/>
			<path class="st15" d="M192.9,273.7c-2.2-1.5-3.1-0.6-3.9,0.3c1.6,3.9,4.2,7.7,4.2,7.7l3.4-1.6C196,277.5,194.5,274.8,192.9,273.7
				z"/>
			<g>
				<path class="st20" d="M209.3,288.2l4.3-2.3l0.2,5.4c0,0-3.9,1.8-4.8-0.3L209.3,288.2z"/>
				<polygon class="st20" points="218.4,286.2 217.1,290.9 213.9,291.3 213.6,285.9 				"/>
			</g>
			<g>
				<polygon class="st7" points="191.6,281.5 201.9,276.5 202.3,278.9 192.9,283.1 				"/>
				<polygon class="st9" points="191.6,281.5 201.9,276.5 202.3,278.9 192.9,283.1 				"/>
			</g>
			<polygon class="st20" points="177.8,408.1 182.5,407.7 183.1,396.6 178.3,397 			"/>
			<polygon class="st20" points="142.1,404.3 146.7,405.6 150.9,395.3 146.3,394 			"/>
			<path class="st16" d="M147.4,405.2l-5.6-1.6c-0.2-0.1-0.4,0-0.5,0.2l-2.1,3.8c-0.2,0.4,0,0.9,0.4,1c1.8,0.5,3.2,0.7,5.4,1.4
				c1.4,0.4,5.6,1.7,7.5,2.2c1.9,0.5,2.7-1.3,2-1.7c-3.3-1.8-5.7-3.6-6.5-4.9C147.9,405.5,147.7,405.3,147.4,405.2z"/>
			<path class="st16" d="M182.9,406.9l-5.2-0.3c-0.2,0-0.4,0.1-0.4,0.3l-1.2,4.2c-0.1,0.4,0.2,0.9,0.6,0.9c1.9,0.1,4.6,0.1,7,0.3
				c2.8,0.2,4.5,0.1,7.8,0.3c2,0.1,2.6-1.8,1.8-2c-3.7-1-6.1-0.9-9.2-3.1C183.7,407.1,183.3,406.9,182.9,406.9z"/>
			<g>
				<polygon class="st15" points="183.1,396.6 182.8,402.3 178,402.7 178.3,397 				"/>
				<polygon class="st15" points="146.3,394.1 150.9,395.3 148.7,400.6 144.1,399.3 				"/>
			</g>
			<g>
				<path class="st7" d="M167.3,261.9c0.7,5.4,0.8,10.8,0.6,15.9c-0.1,3.7-0.4,7.2-0.7,10.4c-0.7,7.5-1.8,13.1-1.8,15
					c3.7,0.3,17.8,1.3,25.4,1.8c7.5-26.3,3.1-41,3.1-41s-2.7-1-5.9-1.6c-0.4-0.1-0.9-0.2-1.3-0.2c-2.8-0.5-7.6-0.7-10.8-0.8
					c-0.7,0-1.4,0-2.1,0C170.4,261.5,167.3,261.9,167.3,261.9z"/>
				<path class="st9" d="M167.3,261.9c0.7,5.4,0.8,10.8,0.6,15.9c-0.1,3.7-0.4,7.2-0.7,10.4c-0.7,7.5-1.8,13.1-1.8,15
					c3.7,0.3,17.8,1.3,25.4,1.8c0.8-27.3,3.1-41,3.1-41s-2.7-1-5.9-1.6c-0.4-0.1-0.9-0.2-1.3-0.2c-2.8-0.5-7.6-0.7-10.8-0.8
					c-0.7,0-1.4,0-2.1,0C170.4,261.5,167.3,261.9,167.3,261.9z"/>
			</g>
			<path class="st16" d="M184.8,267c0.5,1.9,1.4,3.6,1.8,8.6c-0.4,1-0.8,2-1.3,3c-0.5-1.1-1.1-2.1-1.6-3.2c0.1-4.8,0.6-6,0.2-8.5
				L184.8,267z"/>
			<polygon class="st16" points="184.6,268.6 185.7,266.3 184,265.4 182.7,266.1 			"/>
			<path class="st7" d="M173.8,261.5c4.8,5.8,4.9,9.3,11.2,9.3c5.9,0,4-2.8,3.5-8.2c3,0.6,5.3,1.5,5.3,1.5s4.4,14.7-3.1,41
				c-7.7-0.5-21.7-1.6-25.4-1.8c0.1-1.9,1.1-7.6,1.8-15c0.3-3.2,0.6-6.7,0.7-10.4c0.1-5.1,0-10.5-0.6-15.9
				C167.3,261.9,170.4,261.5,173.8,261.5z"/>
			<path class="st20" d="M177.9,249.4c0.4,3.5,0.6,9.9-2.1,12.1c1.6,2,4.2,3.7,8.1,3.9c3,0.2,3.3-1.9,2.7-3.1
				c-3.8-1.2-3.5-4.1-2.6-6.7L177.9,249.4z"/>
			<g>
				<path class="st2" d="M184,265.4c0,0-1.2,1.4-2.7,2.7c-1.9-1.2-6.3-4.3-6-6.8c0.3-0.7,1.3-1.1,1.3-1.1S179.4,263.1,184,265.4z"/>
			</g>
			<g>
				<path class="st2" d="M184,265.4c0,0,1.5,1.4,2.4,3c1.5-0.9,1-5.8,0.5-6.3c-1.1-0.8-1.9-0.8-1.9-0.8S186.3,265,184,265.4z"/>
			</g>
			<path class="st15" d="M180.5,251.9l3.7,3.6c-0.2,0.6-0.4,1.3-0.5,1.9c-1.5-0.3-3.4-2.1-3.4-3.6
				C180.2,253,180.3,252.2,180.5,251.9z"/>
			<path class="st20" d="M176.9,244.9c0.5,4.7,0.5,7.5,3,9.8c3.7,3.4,9.5,1,10.4-3.8c0.8-4.3-0.1-11.2-4.8-12.9
				C180.8,236.4,176.4,240.2,176.9,244.9z"/>
			<g>
				<g>
					<path class="st16" d="M184.5,401.1l-8.1,0.6c0,0,1.3-26.8,2.1-41.6c0.3-4.5,0-10.9-0.4-17.7c-0.6-8.6-1.6-18-2.4-25.3
						c-0.9-7.7-1.6-13.2-1.6-13.2l16.7,1.2c0,0,2.4,38.1,1.3,52.6C191,372.8,184.5,401.1,184.5,401.1z"/>
				</g>
			</g>
			<path class="st21" d="M178.1,342.4c-0.6-8.6-1.6-18-2.4-25.3l2.3-3.4C181.4,319.1,180.2,334.4,178.1,342.4z"/>
			<g>
				<g>
					<path class="st16" d="M181.8,304.5c0,0-8.2,40.4-11.8,53.9c-3.9,14.8-18.9,41.8-18.9,41.8l-8.4-2.3c0,0,10.6-25.1,13.6-40
						c3.3-16.7,9.1-54.5,9.1-54.5L181.8,304.5z"/>
				</g>
			</g>
			<polygon class="st16" points="152.1,400.6 142.2,397.9 143.1,394.9 153.6,397.2 			"/>
			<polygon class="st16" points="185.5,401.3 175.9,401.9 175.7,398.8 186.3,398 			"/>
			<path class="st16" d="M184.1,245.8c0,0.4,0.2,0.7,0.5,0.7c0.3,0,0.4-0.3,0.4-0.7c0-0.4-0.2-0.7-0.5-0.7
				C184.2,245.1,184,245.4,184.1,245.8z"/>
			<path class="st16" d="M188.4,245.6c0,0.4,0.2,0.7,0.5,0.7c0.3,0,0.4-0.3,0.4-0.7c0-0.4-0.2-0.7-0.5-0.7
				C188.6,244.9,188.4,245.2,188.4,245.6z"/>
			<path class="st22" d="M187,245.8c0,0,1,2.1,2,3.1c-0.6,0.6-1.8,0.4-1.8,0.4L187,245.8z"/>
			<path class="st16" d="M185.2,250.9c0.2,0,0.3,0,0.5,0c0.1,0,0.1-0.1,0.1-0.1c0-0.1-0.1-0.1-0.1-0.1c-1.7,0.1-2.5-1-2.5-1.1
				c0-0.1-0.1-0.1-0.2,0c-0.1,0-0.1,0.1,0,0.2C183,249.8,183.8,250.8,185.2,250.9z"/>
			<path class="st16" d="M182.7,244.5c0.1,0,0.2,0,0.2-0.1c0.6-0.8,1.4-0.8,1.4-0.8c0.1,0,0.2-0.1,0.2-0.2c0-0.1-0.1-0.2-0.2-0.2
				c0,0-1.1,0-1.8,1c-0.1,0.1,0,0.2,0.1,0.3C182.6,244.5,182.6,244.5,182.7,244.5z"/>
			<path class="st16" d="M190.2,244c0,0,0.1,0,0.1,0c0.1-0.1,0.2-0.2,0.1-0.3c-0.6-1.1-1.6-1.2-1.7-1.2c-0.1,0-0.2,0.1-0.2,0.2
				c0,0.1,0.1,0.2,0.2,0.2c0,0,0.8,0.1,1.3,1C190.1,243.9,190.1,244,190.2,244z"/>
			<path class="st7" d="M147.5,406c0,0-0.1-0.1-0.1-0.1c0,0,0-0.1,0.1-0.1c0.2-0.1,1.9-0.6,2.4-0.2c0.1,0.1,0.1,0.2,0.1,0.4
				c-0.1,0.2-0.2,0.4-0.4,0.5c-0.3,0.1-0.6,0.1-1,0C148.3,406.3,147.8,406.1,147.5,406z M147.9,405.9c0.7,0.4,1.3,0.5,1.7,0.4
				c0.1-0.1,0.2-0.2,0.3-0.4c0-0.1,0-0.1,0-0.1c0,0-0.1-0.1-0.1-0.1C149.3,405.6,148.5,405.7,147.9,405.9z"/>
			<path class="st7" d="M147.5,405.9c0,0,0-0.1,0-0.1c0-0.1,0.5-1.3,1.2-1.6c0.2-0.1,0.3-0.1,0.5,0c0.3,0.1,0.3,0.3,0.3,0.4
				c-0.1,0.5-1.3,1.3-1.8,1.4C147.6,406,147.6,406,147.5,405.9C147.5,406,147.5,405.9,147.5,405.9z M148.8,404.4
				c-0.4,0.2-0.8,0.9-1,1.3c0.6-0.2,1.4-0.8,1.4-1.1c0,0,0-0.1-0.1-0.2c0,0,0,0,0,0C148.9,404.3,148.8,404.3,148.8,404.4z"/>
			<path class="st7" d="M183.3,407.5c0,0,0-0.1,0.1-0.1c0.2-0.1,2.2-1,2.8-0.6c0.1,0.1,0.2,0.2,0.2,0.3c0,0.2-0.1,0.4-0.2,0.5
				C185.5,408,184.1,407.8,183.3,407.5C183.4,407.6,183.4,407.6,183.3,407.5C183.3,407.5,183.3,407.5,183.3,407.5z M183.8,407.4
				c1,0.2,1.8,0.2,2.1,0c0.1-0.1,0.2-0.2,0.2-0.4c0-0.1,0-0.1-0.1-0.1c0,0,0,0,0,0C185.6,406.8,184.5,407.1,183.8,407.4z"/>
			<path class="st7" d="M183.3,407.5c0,0,0-0.1,0-0.1c0-0.1,0.2-1.3,0.9-1.8c0.2-0.1,0.4-0.2,0.6-0.2c0.3,0.1,0.4,0.2,0.4,0.3
				c0,0.5-1.2,1.5-1.8,1.7C183.4,407.6,183.4,407.6,183.3,407.5C183.3,407.5,183.3,407.5,183.3,407.5z M184.8,405.7
				c-0.2,0-0.3,0-0.5,0.1c-0.4,0.3-0.6,1.1-0.7,1.4c0.6-0.3,1.4-1.1,1.4-1.4c0,0,0-0.1-0.1-0.1C184.8,405.7,184.8,405.7,184.8,405.7
				z"/>
			<path class="st15" d="M167.8,268.6c0.1,2.7,0.2,5.5,0.1,8.1c4.4-3,5.1-9.3,5.1-9.3l-1.7-0.7L167.8,268.6z"/>
			<path class="st19" d="M169.9,269.3c-1.3,0.7-2.8,1.5-4.1,2.4c-1.4,0.8-2.7,1.7-4,2.5c-1.3,0.9-2.6,1.8-3.8,2.7
				c-1.2,0.9-2.3,1.9-2.9,2.8c-0.3,0.4-0.5,0.8-0.5,0.7c0,0,0,0,0,0c0,0,0,0,0-0.1c0,0,0-0.1,0-0.1c0,0,0,0,0,0
				c0,0.1,0.1,0.3,0.2,0.5c0.2,0.5,0.6,1,1,1.6c0.4,0.6,0.9,1.1,1.4,1.7c2.1,2.3,4.5,4.5,6.9,6.7l-2,3c-3.1-1.6-6-3.3-8.8-5.6
				c-1.4-1.2-2.7-2.4-4-4.2c-0.3-0.5-0.6-1-0.9-1.7c-0.1-0.4-0.2-0.7-0.3-1.2c0-0.2-0.1-0.5-0.1-0.7l0-0.4l0-0.3
				c0.1-0.9,0.3-1.6,0.6-2.2c0.3-0.6,0.6-1.1,0.9-1.6c0.6-0.9,1.3-1.7,1.9-2.4c0.7-0.7,1.3-1.3,2-2c1.4-1.2,2.8-2.3,4.2-3.3
				c1.4-1,2.9-1.9,4.4-2.8c1.5-0.9,2.9-1.7,4.5-2.5L169.9,269.3z"/>
			<path class="st7" d="M169.4,261.7c-4.5-0.8-13.5,7.2-13.5,7.2l5.9,7.6c0,0,5.3-1.5,9.6-5.6C176,266.4,174.8,262.6,169.4,261.7z"
				/>
			<g>
				<path class="st20" d="M162.9,290l4.8-0.1l-2.5,5.6c0,0-4.1-0.9-3.9-3.1L162.9,290z"/>
				<polygon class="st20" points="170.9,292.3 168.6,296.8 165.2,295.5 167.8,289.9 				"/>
			</g>
			<g>
				<polygon class="st7" points="156.3,267.5 163.2,276.5 161,277.4 155,269 				"/>
				<polygon class="st9" points="156.3,267.5 163.2,276.5 161,277.4 155,269 				"/>
			</g>
			<path class="st16" d="M177.9,249.4c0,0,1.7,0,1.3-2.9c-0.4-2.9,4.4-5,4.4-5s7.5,0.1,7.2-3.9c-0.2-2.4-1.8-4.1-2.9-5
				c-0.4-0.3-0.9,0-0.8,0.4c0.1,0.6-0.2,1.2-1.4,1.1c-2-0.1-2.9-1.4-4.8-2.1c-0.7-0.2-1.3,0.4-1.1,1.1c0.3,0.8,0.3,1.9-1,2.6
				c-1.2,0.6-2.7,0.7-3.8,0.7c-0.4,0-0.6,0.5-0.3,0.7c0.8,0.6,1.5,1.4,1.1,2.4c-0.7,1.9-3.5,4.8-1.8,6.8
				C175.8,248.5,177.9,249.4,177.9,249.4z"/>
			<g>
				<path class="st7" d="M180.8,240.5l0.8,2c0,0-3.9,1.7-4.3,5.7l-0.3-1.8C176.9,246.3,177.1,242.6,180.8,240.5z"/>
				<path class="st11" d="M180.8,240.5l0.8,2c0,0-3.9,1.7-4.3,5.7l-0.3-1.8C176.9,246.3,177.1,242.6,180.8,240.5z"/>
				<g>
					<polygon class="st16" points="181,240.3 182.4,239.5 183.7,239.3 185.1,239.8 185.3,240.1 185.2,241.1 184.6,242.7 
						183.5,243.3 182,243.1 181.1,241.5 180.9,240.8 					"/>
					<polygon class="st16" points="186.3,239.7 187.7,238.9 189,238.7 190.3,239.2 190.5,239.5 190.5,240.5 189.9,242.1 
						188.8,242.7 187.2,242.5 186.4,240.9 186.2,240.2 					"/>
					<polygon class="st11" points="182,243.1 183.5,243.3 184.6,242.7 185.2,241.1 185.3,240.1 185.1,239.8 184.6,239.6 					"/>
					<polygon class="st11" points="187.3,242.5 188.8,242.7 189.9,242.1 190.5,240.5 190.5,239.5 190.3,239.2 189.8,239 					"/>
					<path class="st7" d="M190.6,238.9c-0.5-0.5-1.5-0.6-2-0.5c-0.9,0.1-1.8,0.6-2.5,0.9c-0.2,0.1-0.7,0.2-1,0.1
						c-0.6-0.2-1.4-0.4-1.8-0.4c-1,0.1-2.2,0.4-2.6,1c-0.2,0.3-0.1,0.8,0,1.2c0.2,0.6,0.6,1.9,1.3,2.2c0.3,0.2,0.9,0.2,1.4,0.2
						c0.5-0.1,1.1-0.2,1.4-0.5c0.6-0.5,0.7-2,0.7-2.5c0,0,0-0.1,0-0.1c0.1-0.1,0.3-0.1,0.4,0c0,0,0,0.1,0,0.1
						c0.2,0.6,0.7,1.9,1.3,2.2c0.3,0.2,0.9,0.2,1.4,0.2c0.5-0.1,1.1-0.2,1.4-0.5c0.6-0.5,0.7-2,0.7-2.5l0-0.1
						C190.8,239.6,190.9,239.2,190.6,238.9z M184.8,240.5l0,0.1c0,0.6-0.2,1.7-0.5,1.9c-0.4,0.3-1.6,0.5-2,0.2
						c-0.2-0.1-0.6-0.9-0.9-1.8c-0.1-0.3-0.1-0.4-0.1-0.4c0,0,0,0,0,0c0.3-0.4,1.2-0.7,2.1-0.7c0.7,0,1.3,0.1,1.4,0.3
						C184.8,240.1,184.8,240.4,184.8,240.5z M190.1,239.9l0,0.1c0,0.6-0.2,1.7-0.5,1.9c-0.4,0.3-1.6,0.5-2,0.2
						c-0.2-0.1-0.6-0.9-0.9-1.8c-0.1-0.3-0.1-0.4-0.1-0.4c0,0,0,0,0,0c0.3-0.4,1.2-0.7,2.1-0.7c0.7,0,1.3,0.1,1.4,0.3
						C190.1,239.5,190.1,239.8,190.1,239.9z"/>
				</g>
			</g>
			<path class="st20" d="M175.2,248.9c0.4,1.2,1.4,2.1,2.3,2.5c1.4,0.6,2.4-0.6,2.2-2.1c-0.2-1.3-1.1-3.3-2.7-3.3
				C175.5,246,174.7,247.5,175.2,248.9z"/>
		</g>
		<g>
			<path class="st16" d="M208.7,392.4l-7.3-67.9h-73.5l-7.3,67.9c-1.3,12,4.4,22.9,11.8,22.9h64.4
				C204.3,415.3,210,404.3,208.7,392.4z"/>
			<path class="st11" d="M208.7,392.4l-7.3-67.9h-73.5l-7.3,67.9c-1.3,12,4.4,22.9,11.8,22.9h64.4
				C204.3,415.3,210,404.3,208.7,392.4z"/>
			<path class="st15" d="M208.7,392.4l-7.3-67.9h-0.9l6.3,58.8c1.3,12-4.4,22.9-11.8,22.9h-64.4c-4.3,0-8-3.7-10.1-9.1
				c0.4,10,5.5,18.2,12,18.2h64.4C204.3,415.3,210,404.3,208.7,392.4z"/>
			<path class="st7" d="M204.8,328.3h-80.2c-1.2,0-2.3-1-2.3-2.3v-3.1c0-1.2,1-2.3,2.3-2.3h80.2c1.2,0,2.3,1,2.3,2.3v3.1
				C207,327.3,206,328.3,204.8,328.3z"/>
			<path class="st15" d="M204.8,328.3h-80.2c-1.2,0-2.3-1-2.3-2.3v-3.1c0-1.2,1-2.3,2.3-2.3h80.2c1.2,0,2.3,1,2.3,2.3v3.1
				C207,327.3,206,328.3,204.8,328.3z"/>
			<g>
				<path class="st7" d="M128.4,336.6l2.2-3.4c0.6-1,0-2.3-1-2.3H125c-1.1,0-1.7,1.3-1,2.3l2.2,3.4c-3.3,1.6-5.8,10.2-5.8,14
					c0,4.2,3.1,7.6,6.8,7.6c3.8,0,6.8-3.4,6.8-7.6C134.2,346.8,131.7,338.3,128.4,336.6z"/>
				<path class="st9" d="M128.4,336.6l2.2-3.4c0.6-1,0-2.3-1-2.3H125c-1.1,0-1.7,1.3-1,2.3l2.2,3.4c-3.3,1.6-5.8,10.2-5.8,14
					c0,4.2,3.1,7.6,6.8,7.6c3.8,0,6.8-3.4,6.8-7.6C134.2,346.8,131.7,338.3,128.4,336.6z"/>
				<path class="st7" d="M129.6,338.3h-4.5c-0.5,0-0.9-0.4-0.9-0.9v-1.2c0-0.5,0.4-0.9,0.9-0.9h4.5c0.5,0,0.9,0.4,0.9,0.9v1.2
					C130.4,337.9,130,338.3,129.6,338.3z"/>
			</g>
			<g>
				<path class="st7" d="M206.9,336.5l1.9-3.6c0.5-1-0.2-2.3-1.3-2.2l-4.5,0.5c-1.1,0.1-1.5,1.5-0.8,2.4l2.5,3.1
					c-3.1,2-4.8,10.8-4.4,14.6c0.4,4.2,3.8,7.2,7.5,6.8c3.8-0.4,6.5-4.2,6.1-8.4C213.6,346,210.3,337.8,206.9,336.5z"/>
				<path class="st23" d="M206.9,336.5l1.9-3.6c0.5-1-0.2-2.3-1.3-2.2l-4.5,0.5c-1.1,0.1-1.5,1.5-0.8,2.4l2.5,3.1
					c-3.1,2-4.8,10.8-4.4,14.6c0.4,4.2,3.8,7.2,7.5,6.8c3.8-0.4,6.5-4.2,6.1-8.4C213.6,346,210.3,337.8,206.9,336.5z"/>
				<path class="st7" d="M208.2,338.1l-4.5,0.5c-0.5,0.1-0.9-0.3-0.9-0.9l-0.1-1c0-0.5,0.3-1,0.8-1.1l4.5-0.5
					c0.5-0.1,0.9,0.3,0.9,0.9l0.1,1C209,337.5,208.7,338,208.2,338.1z"/>
			</g>
			<g>
				<path class="st7" d="M196.9,336.6l2.2-3.4c0.6-1,0-2.3-1-2.3h-4.6c-1.1,0-1.7,1.3-1,2.3l2.2,3.4c-3.3,1.6-5.8,10.2-5.8,14
					c0,4.2,3.1,7.6,6.8,7.6c3.8,0,6.8-3.4,6.8-7.6C202.6,346.8,200.1,338.3,196.9,336.6z"/>
				<path class="st9" d="M196.9,336.6l2.2-3.4c0.6-1,0-2.3-1-2.3h-4.6c-1.1,0-1.7,1.3-1,2.3l2.2,3.4c-3.3,1.6-5.8,10.2-5.8,14
					c0,4.2,3.1,7.6,6.8,7.6c3.8,0,6.8-3.4,6.8-7.6C202.6,346.8,200.1,338.3,196.9,336.6z"/>
				<path class="st7" d="M198,338.3h-4.5c-0.5,0-0.9-0.4-0.9-0.9v-1.2c0-0.5,0.4-0.9,0.9-0.9h4.5c0.5,0,0.9,0.4,0.9,0.9v1.2
					C198.9,337.9,198.5,338.3,198,338.3z"/>
			</g>
		</g>
	</g>
</g>
</svg>
