<?xml version="1.0" encoding="utf-8"?>
<!-- Generator: Adobe Illustrator 23.0.0, SVG Export Plug-In . SVG Version: 6.00 Build 0)  -->
<svg version="1.1" xmlns="http://www.w3.org/2000/svg" xmlns:xlink="http://www.w3.org/1999/xlink" x="0px" y="0px"
	 viewBox="0 0 3710 3710" style="enable-background:new 0 0 3710 3710;" xml:space="preserve">
<style type="text/css">
	.st0{fill:url(#SVGID_1_);}
	.st1{fill:#BDD0FB;}
	.st2{fill:url(#SVGID_2_);}
	.st3{fill:#91B3FA;}
	.st4{opacity:0.5;fill:#FFFFFF;}
	.st5{fill:url(#SVGID_3_);}
	.st6{opacity:0.78;fill:#FFFFFF;}
	.st7{fill:url(#SVGID_4_);}
	.st8{fill:url(#SVGID_5_);}
	.st9{opacity:0.6;}
	.st10{fill:#FFFFFF;}
	.st11{opacity:0.6;fill:#FFFFFF;}
	.st12{fill:url(#SVGID_6_);}
	.st13{fill:url(#SVGID_7_);}
	.st14{fill:url(#SVGID_8_);}
	.st15{fill:url(#SVGID_9_);}
	.st16{fill:url(#SVGID_10_);}
	.st17{fill:url(#SVGID_11_);}
	.st18{fill:#7D97F4;}
	.st19{fill:url(#SVGID_12_);}
	.st20{fill:url(#SVGID_13_);}
	.st21{fill:url(#SVGID_14_);}
	.st22{fill:url(#SVGID_15_);}
	.st23{fill:url(#SVGID_16_);}
	.st24{fill:url(#SVGID_17_);}
	.st25{fill:url(#SVGID_18_);}
	.st26{fill:url(#SVGID_19_);}
	.st27{fill:url(#SVGID_20_);}
	.st28{filter:url(#Adobe_OpacityMaskFilter);}
	.st29{filter:url(#Adobe_OpacityMaskFilter_1_);}
	.st30{mask:url(#SVGID_21_);fill:url(#SVGID_22_);}
	.st31{fill:url(#SVGID_23_);}
	.st32{fill:url(#SVGID_24_);}
	.st33{fill:url(#SVGID_25_);}
	.st34{fill:url(#SVGID_26_);}
	.st35{fill:url(#SVGID_27_);}
	.st36{fill:url(#SVGID_28_);}
	.st37{fill:url(#SVGID_29_);}
	.st38{fill:url(#SVGID_30_);}
	.st39{fill:url(#SVGID_31_);}
	.st40{fill:url(#SVGID_32_);}
	.st41{fill:url(#SVGID_33_);}
	.st42{fill:url(#SVGID_34_);}
	.st43{fill:url(#SVGID_35_);}
	.st44{fill:url(#SVGID_36_);}
	.st45{fill:url(#SVGID_37_);}
	.st46{fill:url(#SVGID_38_);}
	.st47{fill:url(#SVGID_39_);}
	.st48{fill:url(#SVGID_40_);}
	.st49{fill:url(#SVGID_41_);}
</style>
<g id="Background">
</g>
<g id="Illustration">
	<g>
		<linearGradient id="SVGID_1_" gradientUnits="userSpaceOnUse" x1="3331.5242" y1="3600.01" x2="636.2451" y2="529.4341">
			<stop  offset="0" style="stop-color:#DAE3FE"/>
			<stop  offset="1" style="stop-color:#E9EFFD"/>
		</linearGradient>
		<path class="st0" d="M2961.8,2921.5c-542.8,572.8-1376.6,403.4-1499.9,376.1c-155.3-34.3-524.7-115.9-800.4-438.2
			C239.4,2366,282.1,1594.9,608,1075c94.8-151.3,414-600.8,1013.4-698.6c35-5.7,660.9-97.5,1164.5,325.1
			c67.9,57,177.5,160.1,273.6,310.4C3357.5,1477.9,3498.5,2355.1,2961.8,2921.5z"/>
		<g>
			<g>
				<path class="st1" d="M2352,1401.4c-33.6,121.7-90.1,280.5-148.2,415.7l-20.9-3.7c73-162.6,153.6-388.8,189.2-659.5
					c35.9-273,27.4-613.7,178.8-749.1c126-112.7,566.5-55.4,710.7-32.9c18,2.8,24.7,25.3,11,37.4
					c-67.3,59.6-210.9,199.9-245.6,338.3c-45.8,182.5-214.9,302.2-368.2,337.5S2420.6,1152.9,2352,1401.4z"/>
				
					<linearGradient id="SVGID_2_" gradientUnits="userSpaceOnUse" x1="2509.6262" y1="540.4026" x2="3050.9927" y2="540.4026" gradientTransform="matrix(0.9849 0.1733 -0.1733 0.9849 78.0869 -171.1183)">
					<stop  offset="0" style="stop-color:#DAE3FE"/>
					<stop  offset="1" style="stop-color:#E9EFFD"/>
				</linearGradient>
				<path class="st2" d="M3061.9,454.5c-92.3,6.9-183,32.5-265.9,74.9c-41.5,21.1-80.4,47.5-115.4,78.6
					c-34.7,31.3-65.6,67.3-89.7,107.6l-9,15.1c-3,5.1-5.4,10.4-8.2,15.6c-2.6,5.2-5.4,10.5-7.8,15.7l-7.3,15.7
					c-9.7,20.9-19.3,41.8-28.7,62.7c-18.9,42-37.1,84.2-54.6,126.8c-35.1,85.1-67.6,171.2-94.8,259.3c-0.7,2.1,0.5,4.4,2.6,5
					c2,0.6,4.2-0.5,4.9-2.4l0-0.1c15.9-42.9,32.6-85.7,50.1-128.1c17.3-42.5,35.2-84.7,53.5-126.8l27.7-63l28.4-62.7
					c9.4-20.9,19.1-41.7,28.8-62.4l7.3-15.6c2.4-5.2,5.1-10.1,7.6-15.1c2.6-5,4.9-10.1,7.7-15l8.5-14.6
					c22.8-38.8,52.5-73.2,85.4-104c16.8-15,34.2-29.5,52.8-42.3l6.9-4.9l7.1-4.6c4.7-3.1,9.4-6.3,14.2-9.3
					c9.7-5.8,19.4-11.8,29.4-17.1c39.7-22,82.1-39.1,125.4-53c43.4-13.9,88.2-24.1,133.4-29.6l0.2,0c1.8-0.2,3-1.8,2.8-3.6
					C3065.1,455.6,3063.6,454.4,3061.9,454.5z"/>
			</g>
			<g>
				<path class="st3" d="M2597.9,1470c-23.5,147,15.5,204.8,38,258.6c4,9.6,9.7,23.1,16,39.2l-20.7,9.7c-5.9-23.5-13.1-46.5-22-68.3
					c-61.1-149.2-145.2-413.5-89.5-621.4c55.8-207.9,187-286.2,424.1-232.4c197.5,44.8,314.5,59.3,372.3,45
					c14.3-3.5,28,8.1,27.1,22.8c-4.6,78.4-33,266.9-198.8,332.5C2933.1,1339.5,2621.4,1323,2597.9,1470z"/>
				<path class="st4" d="M2969.3,1062.3c-16.4-5.5-33.1-9.6-49.9-13.1c-16.8-3.5-33.8-6.5-51-8.3c-34.3-3.9-69.2-4.6-103.9,0
					c-17.3,2.3-34.6,6-51.4,11.4c-16.8,5.5-33.2,12.9-48.3,22.5c-3.7,2.5-7.6,4.8-11.1,7.6c-3.5,2.8-7.2,5.5-10.5,8.4l-19.3,17.7
					l-18.1,19l-16.6,20.4c-21.2,28.1-37.2,60.1-47.3,93.6c-10.3,33.6-14.2,68.6-14.8,103.1l-0.2,13c-0.1,4.3,0.3,8.6,0.5,12.9
					c0.5,8.6,0.7,17.3,1.4,25.8l2.8,25.7c0.7,8.6,2.6,17,3.9,25.5c5.4,33.9,13.8,67.2,23,100.1c0.5,1.8,2.4,2.9,4.3,2.4
					c1.8-0.5,2.8-2.2,2.5-4l0-0.1c-6.8-33.3-13.9-66.5-17.6-100.1c-2.4-16.7-3.3-33.6-4.7-50.4c-0.4-8.4-0.4-16.8-0.6-25.2
					c0-4.2-0.3-8.4-0.1-12.6l0.6-12.6c1.4-33.4,6.6-66.6,16.5-98.1c10-31.6,25.6-61.1,45.4-87.4l15.7-19.1l17.2-17.9l18.5-16.7
					c3.1-2.7,6.3-5,9.4-7.6c3.1-2.5,6.6-4.6,9.9-6.9c13.6-8.7,28.4-15.5,43.9-20.8c15.5-5.3,31.6-9.1,47.9-11.7
					c32.8-5.2,66.4-5.7,100-3.7c16.8,1.1,33.6,2.7,50.3,5c16.7,2.4,33.4,5.3,49.8,9l0.1,0c1.9,0.4,3.9-0.8,4.3-2.7
					C2972.1,1064.7,2971.1,1062.9,2969.3,1062.3z"/>
			</g>
		</g>
		<g>
			<linearGradient id="SVGID_3_" gradientUnits="userSpaceOnUse" x1="1524.7517" y1="3153.47" x2="1378.4486" y2="-1177.1769">
				<stop  offset="0" style="stop-color:#09005D"/>
				<stop  offset="1" style="stop-color:#1A0F91"/>
			</linearGradient>
			<path class="st5" d="M495.4,871.9c0-103.3,83.7-187.1,187.1-187.1h1590.7c87.8,0,160.1,68.8,164.6,156.4l117.4,2306.3
				c3.5,68.6-50.5,126.4-119.2,127.7l-1823.2,33.1c-64.5,1.2-117.5-50.8-117.5-115.3V871.9z"/>
			<g>
				<path class="st3" d="M625.8,720.4c-0.2-33.1,28.9-58.6,61.6-54.2c217.2,29.5,964.2,120.6,1581.8,73.2
					c28.2-2.2,52.6,19.2,54.1,47.4l123.1,2316.6c1.7,31.8-22.6,58.9-54.3,60.8c-259.8,15.4-1329.5,74.8-1711.1,34.8
					c-23.2-2.4-40.9-22-41-45.3L625.8,720.4z"/>
				<path class="st1" d="M651.4,778.4c-0.2-31.8,27.8-56.4,59.3-52.2c209,28.3,927.9,116,1522.3,70.4c27.1-2.1,50.6,18.5,52.1,45.6
					l118.5,2229.3c1.6,30.6-21.7,56.7-52.3,58.5c-250,14.8-1279.4,72-1646.6,33.5c-22.3-2.3-39.3-21.2-39.4-43.6L651.4,778.4z"/>
				<path class="st6" d="M844.9,950.3l22.2,477.9c0.7,15.9,13.6,28.5,29.5,29c88.5,2.5,364.3,9.2,520.1,1.1
					c17.6-0.9,31.6-15.2,32.1-32.8c3-89.6,9.5-350.5-11-459.6c-3.3-17.6-18.4-30.5-36.4-31.2l-523.2-18.3
					C859.4,915.9,844,931.4,844.9,950.3z"/>
				<linearGradient id="SVGID_4_" gradientUnits="userSpaceOnUse" x1="1112.9471" y1="1211.1256" x2="1515.8146" y2="112.3962">
					<stop  offset="0" style="stop-color:#FF928E"/>
					<stop  offset="1" style="stop-color:#FE7062"/>
				</linearGradient>
				<circle class="st7" cx="1145.9" cy="1121.2" r="102.7"/>
				<linearGradient id="SVGID_5_" gradientUnits="userSpaceOnUse" x1="1208.2131" y1="1246.0575" x2="1611.0809" y2="147.327">
					<stop  offset="0" style="stop-color:#FF928E"/>
					<stop  offset="1" style="stop-color:#FE7062"/>
				</linearGradient>
				<path class="st8" d="M989.9,1422.8h327.3c20.1,0,32.1-22.2,21.3-39.1c-27.8-43.5-86-107.4-186.7-104.5
					c-97.1,2.8-154.6,60.5-183.6,101.9C955.9,1398.7,968.4,1422.8,989.9,1422.8z"/>
				<g class="st9">
					<path class="st10" d="M2167.7,991.9c2.6,0,4.7-2.1,4.6-4.8l-0.7-22.6c-0.1-2.6-2.3-4.8-4.9-4.8L1565.3,949
						c-2.6,0-4,1.9-3.2,4.4l12,34c0.9,2.5,3.7,4.5,6.3,4.5H2167.7z"/>
				</g>
				<g class="st9">
					<path class="st10" d="M1565.3,1038.1c-2.6,0-4,1.9-3.2,4.4l12,34c0.9,2.5,3.7,4.5,6.3,4.5h587.3c2.6,0,4.7-2.1,4.6-4.8
						l-0.7-22.6c-0.1-2.6-2.3-4.8-4.9-4.8L1565.3,1038.1z"/>
				</g>
				<g class="st9">
					<path class="st10" d="M1565.3,1128.5c-2.6,0-4,1.9-3.2,4.4l12,34c0.9,2.5,3.7,4.5,6.3,4.5h587.3c2.6,0,4.7-2.1,4.6-4.8
						l-0.7-22.6c-0.1-2.6-2.3-4.8-4.9-4.8L1565.3,1128.5z"/>
				</g>
				<g class="st9">
					<path class="st10" d="M2223.4,1607.3c2.6,0,4.6-2.1,4.4-4.7l-1.5-22.6c-0.2-2.6-2.5-4.8-5.1-4.8l-1371.8-10.8
						c-2.6,0-3.4,1.6-1.8,3.7l28.3,35.5c1.6,2,5.1,3.7,7.7,3.7H2223.4z"/>
				</g>
				<g class="st9">
					<path class="st10" d="M849.5,1653.5c-2.6,0-3.4,1.6-1.8,3.7l28.3,35.5c1.6,2,5.1,3.7,7.7,3.7h1339.7c2.6,0,4.6-2.1,4.4-4.7
						l-1.5-22.6c-0.2-2.6-2.5-4.8-5.1-4.8L849.5,1653.5z"/>
				</g>
				<g>
					<path class="st10" d="M1030.7,2261.2c-0.1,0-0.2,0-0.3,0l-113.4-1.1c-16.2-0.2-29.6-11.3-31.1-25.9l-10-95.2
						c-0.6-5.6,1.2-11.1,4.9-15.6c4.2-5,10.5-8.1,17.4-8.6l0,0c9.6-0.7,23-1.8,37.3-3c30-2.6,67.3-5.7,88.4-6
						c15.2-0.1,28.2,8.9,31.8,22.2c5.9,21.8,5.4,63.2,4.3,107.3C1059.4,2249.7,1046.4,2261.2,1030.7,2261.2z M898.7,2123.6
						c-4.5,0.3-8.6,2.3-11.3,5.5c-2.2,2.6-3.2,5.8-2.9,9l10,95.2c1.1,10.2,10.8,18,22.5,18.1l113.4,1.1c0.1,0,0.2,0,0.2,0
						c11,0,20.1-7.7,20.3-17.4c1.1-43.4,1.6-84.1-4-104.8c-2.5-9.3-12.2-15.7-23.2-15.8c-20.7,0.3-57.9,3.4-87.7,6
						C921.9,2121.8,908.4,2122.9,898.7,2123.6L898.7,2123.6z"/>
					<path class="st11" d="M910.9,2133.4c23.8-1.6,75.6-6.9,100.2-7.2c10.4-0.1,19.5,6.2,22,15.2c4.7,17.5,4.1,52.5,3.3,84.7
						c-0.2,9.7-9.1,17.4-19.9,17.3l-90.7-0.9c-11.1-0.1-20.4-7.7-21.4-17.6l-8-76.1C895.6,2141,902.1,2134,910.9,2133.4z"/>
					<g class="st9">
						<path class="st10" d="M1130.4,2198c3.3,12.5,14.6,21.1,27.5,21l1049.6-8.9c11.9-0.1,21.4-9.9,21.1-21.8
							c-0.3-11.5-9.7-20.8-21.2-20.8l-1049.6-4.8C1139.2,2162.6,1125.7,2180.1,1130.4,2198z"/>
					</g>
					<linearGradient id="SVGID_6_" gradientUnits="userSpaceOnUse" x1="1248.8585" y1="1677.976" x2="669.6086" y2="2666.6194">
						<stop  offset="0" style="stop-color:#E1473D"/>
						<stop  offset="1" style="stop-color:#E9605A"/>
					</linearGradient>
					<path class="st12" d="M915.8,2148.3L915.8,2148.3c8.4-4.9,19.3-2,24,6.5l22.4,40.1c2.2,4,8.1,3.8,10-0.4l55.5-123.6
						c2.8-6.2,11.9-4.1,11.8,2.7c-0.6,37.8-10.6,109.6-71,169.8c0,0-33.3-12.9-60.1-71.8C904.6,2163.2,907.7,2153.1,915.8,2148.3z"
						/>
					<path class="st10" d="M1030.7,2504.4c-0.1,0-0.2,0-0.3,0l-113.4-1.1c-16.2-0.2-29.6-11.3-31.1-25.9l-10-95.2
						c-0.6-5.6,1.2-11.1,4.9-15.6c4.2-5,10.5-8.1,17.4-8.6l0,0c9.6-0.7,23-1.8,37.3-3c30-2.6,67.3-5.7,88.4-6c0.2,0,0.3,0,0.5,0
						c14.9,0,27.8,9.1,31.3,22.2c5.9,21.8,5.4,63.2,4.3,107.3C1059.4,2492.8,1046.4,2504.4,1030.7,2504.4z M898.7,2366.7
						c-4.5,0.3-8.6,2.3-11.3,5.5c-2.2,2.6-3.2,5.8-2.9,9l10,95.2c1.1,10.2,10.8,18,22.5,18.1l113.4,1.1c0.1,0,0.2,0,0.2,0
						c11,0,20.1-7.7,20.3-17.4c1.1-43.4,1.6-84.1-4-104.8c-2.5-9.3-12.3-16-23.2-15.8c-20.7,0.3-57.9,3.4-87.7,6
						C921.9,2364.9,908.4,2366.1,898.7,2366.7L898.7,2366.7z"/>
					<path class="st11" d="M910.9,2376.5c23.8-1.6,75.6-6.9,100.2-7.2c10.4-0.1,19.5,6.2,22,15.2c4.7,17.5,4.1,52.5,3.3,84.7
						c-0.2,9.7-9.1,17.4-19.9,17.3l-90.7-0.9c-11.1-0.1-20.4-7.7-21.4-17.6l-8-76.1C895.6,2384.1,902.1,2377.2,910.9,2376.5z"/>
					<g class="st9">
						<path class="st10" d="M1130.4,2441.2c3.3,12.5,14.6,21.1,27.5,21l1049.6-8.9c11.9-0.1,21.4-9.9,21.1-21.8
							c-0.3-11.5-9.7-20.8-21.2-20.8l-1049.6-4.8C1139.2,2405.7,1125.7,2423.2,1130.4,2441.2z"/>
					</g>
					<linearGradient id="SVGID_7_" gradientUnits="userSpaceOnUse" x1="1354.9036" y1="1740.1071" x2="775.6525" y2="2728.7527">
						<stop  offset="0" style="stop-color:#E1473D"/>
						<stop  offset="1" style="stop-color:#E9605A"/>
					</linearGradient>
					<path class="st13" d="M915.8,2391.5L915.8,2391.5c8.4-4.9,19.3-2,24,6.5l22.4,40.1c2.2,4,8.1,3.8,10-0.4l55.5-123.5
						c2.8-6.2,11.9-4.1,11.8,2.7c-0.6,37.8-10.6,109.6-71,169.8c0,0-33.3-12.9-60.1-71.8C904.6,2406.3,907.7,2396.2,915.8,2391.5z"
						/>
					<path class="st10" d="M1030.7,2747.5c-0.1,0-0.2,0-0.3,0l-113.4-1.1c-16.2-0.2-29.6-11.3-31.1-25.9l-10-95.2
						c-0.6-5.6,1.2-11.1,4.9-15.6c4.2-5,10.5-8.1,17.4-8.6l0,0c9.6-0.7,23-1.8,37.3-3c30-2.6,67.3-5.7,88.4-6c0.2,0,0.3,0,0.5,0
						c14.9,0,27.8,9.1,31.3,22.2c5.9,21.8,5.4,63.2,4.3,107.3C1059.4,2735.9,1046.4,2747.5,1030.7,2747.5z M898.7,2609.8
						c-4.5,0.3-8.6,2.3-11.3,5.5c-2.2,2.6-3.2,5.8-2.9,9l10,95.2c1.1,10.2,10.8,18,22.5,18.1l113.4,1.1c0.1,0,0.2,0,0.2,0
						c11,0,20.1-7.7,20.3-17.4c1.1-43.4,1.6-84.1-4-104.8c-2.5-9.3-12.3-16-23.2-15.8c-20.7,0.3-57.9,3.4-87.7,6
						C921.9,2608,908.4,2609.2,898.7,2609.8L898.7,2609.8z"/>
					<path class="st11" d="M910.9,2619.7c23.8-1.6,75.6-6.9,100.2-7.2c10.4-0.1,19.5,6.2,22,15.2c4.7,17.5,4.1,52.5,3.3,84.7
						c-0.2,9.7-9.1,17.4-19.9,17.3l-90.7-0.9c-11.1-0.1-20.4-7.7-21.4-17.6l-8-76.1C895.6,2627.2,902.1,2620.3,910.9,2619.7z"/>
					<g class="st9">
						<path class="st10" d="M1130.4,2684.3c3.3,12.5,14.6,21.1,27.5,21l1049.6-8.9c11.9-0.1,21.4-9.9,21.1-21.8
							c-0.3-11.5-9.7-20.8-21.2-20.8l-1049.6-4.8C1139.2,2648.8,1125.7,2666.4,1130.4,2684.3z"/>
					</g>
					<linearGradient id="SVGID_8_" gradientUnits="userSpaceOnUse" x1="1444.0675" y1="1983.8206" x2="681.8961" y2="3046.5049">
						<stop  offset="0" style="stop-color:#E1473D"/>
						<stop  offset="1" style="stop-color:#E9605A"/>
					</linearGradient>
					<path class="st14" d="M915.8,2634.6L915.8,2634.6c8.4-4.9,19.3-2,24,6.5l22.4,40.1c2.2,4,8.1,3.8,10-0.4l55.5-123.6
						c2.8-6.2,11.9-4.1,11.8,2.7c-0.6,37.8-10.6,109.6-71,169.8c0,0-33.3-12.9-60.1-71.8C904.6,2649.4,907.7,2639.3,915.8,2634.6z"
						/>
					<path class="st10" d="M1030.7,2990.6c-0.1,0-0.2,0-0.3,0l-113.4-1.1c-16.2-0.2-29.6-11.3-31.1-25.9l-10-95.2
						c-0.6-5.6,1.2-11.1,4.9-15.6c4.2-5,10.5-8.1,17.4-8.6l0,0c9.6-0.7,23-1.8,37.3-3c30-2.6,67.3-5.7,88.4-6c0.2,0,0.3,0,0.5,0
						c14.9,0,27.8,9.1,31.3,22.2c5.9,21.8,5.4,63.2,4.3,107.3C1059.4,2979.1,1046.4,2990.6,1030.7,2990.6z M898.7,2853
						c-4.5,0.3-8.6,2.3-11.3,5.5c-2.2,2.6-3.2,5.8-2.9,9l10,95.2c1.1,10.2,10.8,18,22.5,18.1l113.4,1.1c0.1,0,0.2,0,0.2,0
						c11,0,20.1-7.7,20.3-17.4c1.1-43.4,1.6-84.1-4-104.8c-2.5-9.3-12.3-16-23.2-15.8c-20.7,0.3-57.9,3.4-87.7,6
						C921.9,2851.2,908.4,2852.3,898.7,2853L898.7,2853z"/>
					<path class="st11" d="M910.9,2862.8c23.8-1.6,75.6-6.9,100.2-7.2c10.4-0.1,19.5,6.2,22,15.2c4.7,17.5,4.1,52.5,3.3,84.7
						c-0.2,9.7-9.1,17.4-19.9,17.3l-90.7-0.9c-11.1-0.1-20.4-7.7-21.4-17.6l-8-76.1C895.6,2870.4,902.1,2863.4,910.9,2862.8z"/>
					<g class="st9">
						<path class="st10" d="M1130.4,2927.4L1130.4,2927.4c3.3,12.5,14.6,21.1,27.5,21l1049.6-8.9c11.9-0.1,21.4-9.9,21.1-21.8
							c-0.3-11.5-9.7-20.8-21.2-20.8l-1049.6-4.8C1139.2,2892,1125.7,2909.5,1130.4,2927.4z"/>
					</g>
				</g>
				<path class="st10" d="M1015,2023.3c-0.1,0-0.2,0-0.3,0l-113.4-1.1c-16.2-0.2-29.6-11.3-31.1-25.9l-10-95.2
					c-0.6-5.6,1.2-11.1,4.9-15.6c4.2-5,10.5-8.1,17.4-8.6l0,0c9.6-0.7,23-1.8,37.3-3c30-2.6,67.3-5.7,88.4-6c0.2,0,0.3,0,0.5,0
					c14.9,0,27.8,9.1,31.3,22.2c5.9,21.8,5.4,63.2,4.3,107.3C1043.7,2011.8,1030.7,2023.3,1015,2023.3z M883,1885.7
					c-4.5,0.3-8.6,2.3-11.3,5.5c-2.2,2.6-3.2,5.8-2.9,9l10,95.2c1.1,10.2,10.8,18,22.5,18.1l113.4,1.1c0.1,0,0.2,0,0.2,0
					c11,0,20.1-7.7,20.3-17.4c1.1-43.4,1.6-84.1-4-104.8c-2.5-9.3-12.3-16-23.2-15.8c-20.7,0.3-57.9,3.4-87.7,6
					C906.1,1883.9,892.7,1885,883,1885.7L883,1885.7z"/>
				<path class="st11" d="M895.2,1895.5c23.8-1.6,75.6-6.9,100.2-7.2c10.4-0.1,19.5,6.2,22,15.2c4.7,17.5,4.1,52.5,3.3,84.7
					c-0.2,9.7-9.1,17.4-19.9,17.3l-90.7-0.9c-11.1-0.1-20.4-7.7-21.4-17.6l-8-76.1C879.9,1903.1,886.4,1896.1,895.2,1895.5z"/>
				<g class="st9">
					<path class="st10" d="M1114.7,1960.1L1114.7,1960.1c3.3,12.5,14.6,21.1,27.5,21l1049.6-8.9c11.9-0.1,21.4-9.9,21.1-21.8
						c-0.3-11.5-9.7-20.8-21.2-20.8l-1049.6-4.8C1123.5,1924.7,1109.9,1942.2,1114.7,1960.1z"/>
				</g>
				<linearGradient id="SVGID_9_" gradientUnits="userSpaceOnUse" x1="1551.2743" y1="897.0828" x2="972.0237" y2="1885.7274">
					<stop  offset="0" style="stop-color:#E1473D"/>
					<stop  offset="1" style="stop-color:#E9605A"/>
				</linearGradient>
				<path class="st15" d="M900.1,1910.4L900.1,1910.4c8.4-4.9,19.3-2,24,6.5l22.4,40.1c2.2,4,8.1,3.8,10-0.4l55.5-123.5
					c2.8-6.2,11.9-4.1,11.8,2.7c-0.6,37.8-10.6,109.6-71,169.8c0,0-33.3-12.9-60.1-71.8C888.8,1925.2,892,1915.2,900.1,1910.4z"/>
			</g>
			<linearGradient id="SVGID_10_" gradientUnits="userSpaceOnUse" x1="1754.0061" y1="132.9787" x2="1022.3238" y2="1095.4896">
				<stop  offset="0" style="stop-color:#09005D"/>
				<stop  offset="1" style="stop-color:#1A0F91"/>
			</linearGradient>
			<path class="st16" d="M1576.5,370.4c-57.5-40-107.4-39.2-142.6-28.8c-32.1,9.5-52.9,40.4-49.8,73.8l15.2,165.6l180.5,16
				C1579.8,596.9,1689.2,448.8,1576.5,370.4z M1497.2,504c-24.9,0-45-20.1-45-45c0-24.9,20.1-45,45-45c24.9,0,45,20.1,45,45
				C1542.2,483.8,1522,504,1497.2,504z"/>
			<path class="st3" d="M1417.3,511.3c-2.2,0-4.1-1.7-4.3-4l-2.4-26.4c-0.2-2.4,1.5-4.5,3.9-4.7c2.4-0.2,4.5,1.5,4.7,3.9l2.4,26.4
				c0.2,2.4-1.5,4.5-3.9,4.7C1417.6,511.3,1417.4,511.3,1417.3,511.3z M1412.6,459.6c-2.2,0-4.1-1.7-4.3-4l-1.8-20
				c-2.9-31.7,17.1-61.3,47.5-70.3c21.5-6.4,43.7-7.3,66-2.7c2.4,0.5,3.9,2.8,3.4,5.1c-0.5,2.4-2.8,3.9-5.1,3.4
				c-20.8-4.3-41.6-3.4-61.8,2.5c-26.4,7.8-43.8,33.5-41.3,61.1l1.8,20c0.2,2.4-1.5,4.5-3.9,4.7
				C1412.8,459.6,1412.7,459.6,1412.6,459.6z"/>
			<linearGradient id="SVGID_11_" gradientUnits="userSpaceOnUse" x1="1834.2661" y1="193.9887" x2="1102.583" y2="1156.5006">
				<stop  offset="0" style="stop-color:#09005D"/>
				<stop  offset="1" style="stop-color:#1A0F91"/>
			</linearGradient>
			<path class="st17" d="M1152.9,687.9v-83.2c0-28.7,23.8-51.7,52.5-50.8l573.9,19.7c25.5,0.9,46.1,21,47.6,46.4l4.8,80
				L1152.9,687.9z"/>
			<path class="st3" d="M1366.9,585.3h-24.7c-2.4,0-4.4-1.9-4.4-4.4c0-2.4,2-4.4,4.4-4.4h24.7c2.4,0,4.4,1.9,4.4,4.4
				C1371.3,583.3,1369.3,585.3,1366.9,585.3z"/>
			<path class="st3" d="M1184,661.8c-2.4,0-4.4-1.9-4.4-4.4v-33.7c0-26,21.2-47.2,47.2-47.2h90.7c2.4,0,4.4,1.9,4.4,4.4
				c0,2.4-2,4.4-4.4,4.4h-90.7c-21.2,0-38.5,17.3-38.5,38.5v33.7C1188.4,659.8,1186.4,661.8,1184,661.8z"/>
			<path class="st18" d="M919.1,708.9c1.4-28.8,25.2-51.5,54-51.5l1003.5,0c36.1,0,66.9,26,73.1,61.5l0.8,4.9
				c6.7,38.9-23.2,74.6-62.8,74.6H958.3c-23.7,0-42.5-19.8-41.4-43.4L919.1,708.9z"/>
		</g>
		<g>
			<g>
				<linearGradient id="SVGID_12_" gradientUnits="userSpaceOnUse" x1="2054.6875" y1="2325.6318" x2="3869.896" y2="1078.9781">
					<stop  offset="0" style="stop-color:#4F52FF"/>
					<stop  offset="1" style="stop-color:#4042E2"/>
				</linearGradient>
				<path class="st19" d="M1497.4,1421.2c13.6-12.7,32-19.1,50.6-17.4c198.6,17.9,569.2-77.8,811.4-325.6
					c16.8-17.2,47.5-7.5,66.8,6.9c269.4,201.3,715.9,243,870.9,251.5c32.1,1.8,58.1,26.6,61.4,58.6
					c141,1361.4-745.5,1854.8-929.3,1941.9c-20.1,9.5-43.8,8.1-62.6-3.6c-916.3-570.7-877.1-1313-889.8-1862.9
					C1476.3,1451.9,1483.8,1434,1497.4,1421.2z"/>
				<path class="st3" d="M2404.3,3239.1c-4.3,0-8.5-1.2-12.2-3.6c-351.5-224.7-580.5-493.3-700.3-821.2
					c-107-292.8-112.2-590.9-116.8-853.9l-0.6-35.1c-0.1-6.1,2.2-11.8,6.4-16.2c4.3-4.4,10.1-6.8,16.2-6.8h0
					c217.4,0,543.6-96,783-310.4c7.7-6.9,19-7.7,27.6-2c263,174.5,638.1,225.3,838.4,240.1c11.1,0.8,19.9,9.5,20.8,20.6
					c46.6,531.4-64,980.8-328.6,1335.7c-197.6,265.1-432,403.2-523.6,450.3l0,0C2411.4,3238.3,2407.8,3239.1,2404.3,3239.1z
					 M1597.2,1513.1c-3.5,0-6.5,1.3-8.8,3.6c-2.2,2.3-3.4,5.3-3.4,8.5l0.6,35.1c4.6,262.2,9.8,559.3,116.2,850.5
					c118.9,325.6,346.6,592.5,696,815.8c3.6,2.3,8.1,2.5,11.9,0.6l0,0c90.9-46.7,323.6-183.9,519.9-447.1
					c263-352.7,372.8-799.7,326.5-1328.4c-0.5-5.8-5.1-10.4-11-10.8c-201.3-14.8-578.5-66-843.5-241.8c-4.5-3-10.5-2.6-14.5,1
					C2145.7,1416.3,1816.4,1513.1,1597.2,1513.1L1597.2,1513.1z"/>
			</g>
		</g>
		<g>
			<linearGradient id="SVGID_13_" gradientUnits="userSpaceOnUse" x1="615.9716" y1="3776.0518" x2="681.8951" y2="3290.7798">
				<stop  offset="0" style="stop-color:#4F52FF"/>
				<stop  offset="1" style="stop-color:#4042E2"/>
			</linearGradient>
			<path class="st20" d="M348.9,3038.2l7.5,234.1c1.3,40.8,34.8,73.3,75.8,73.5l560.5,3.3c27.4,0.2,50.8-19.8,54.8-46.8
				c8.8-59.1,19.9-164.9,7.4-264.1H348.9z"/>
			<path class="st10" d="M972.9,3334.8L972.9,3334.8l-4.1,0c-0.4,0-0.7-0.3-0.7-0.7c0-0.4,0.3-0.7,0.7-0.7h0l4.1,0
				c0.4,0,0.7,0.3,0.7,0.7C973.6,3334.5,973.3,3334.8,972.9,3334.8z M982.4,3334.7c-0.4,0-0.7-0.3-0.7-0.6c0-0.4,0.3-0.7,0.6-0.7
				c1.3-0.1,2.7-0.2,4-0.4c0.4-0.1,0.7,0.2,0.8,0.6c0.1,0.4-0.2,0.7-0.6,0.8C985.2,3334.5,983.8,3334.6,982.4,3334.7
				C982.4,3334.7,982.4,3334.7,982.4,3334.7z M959.3,3334.7L959.3,3334.7l-4.1,0c-0.4,0-0.7-0.3-0.7-0.7c0-0.4,0.3-0.7,0.7-0.7h0
				l4.1,0c0.4,0,0.7,0.3,0.7,0.7C960,3334.4,959.7,3334.7,959.3,3334.7z M945.7,3334.6L945.7,3334.6l-4.1,0c-0.4,0-0.7-0.3-0.7-0.7
				c0-0.4,0.3-0.7,0.7-0.7h0l4.1,0c0.4,0,0.7,0.3,0.7,0.7C946.4,3334.3,946.1,3334.6,945.7,3334.6z M932.1,3334.5L932.1,3334.5
				l-4.1,0c-0.4,0-0.7-0.3-0.7-0.7c0-0.4,0.4-0.7,0.7-0.7l4.1,0c0.4,0,0.7,0.3,0.7,0.7C932.7,3334.2,932.4,3334.5,932.1,3334.5z
				 M918.5,3334.4L918.5,3334.4l-4.1,0c-0.4,0-0.7-0.3-0.7-0.7c0-0.4,0.3-0.7,0.7-0.7h0l4.1,0c0.4,0,0.7,0.3,0.7,0.7
				C919.1,3334.1,918.8,3334.4,918.5,3334.4z M904.9,3334.4L904.9,3334.4l-4.1,0c-0.4,0-0.7-0.3-0.7-0.7c0-0.4,0.4-0.7,0.7-0.7
				l4.1,0c0.4,0,0.7,0.3,0.7,0.7C905.5,3334.1,905.2,3334.4,904.9,3334.4z M891.2,3334.3L891.2,3334.3l-4.1,0
				c-0.4,0-0.7-0.3-0.7-0.7c0-0.4,0.3-0.7,0.7-0.7h0l4.1,0c0.4,0,0.7,0.3,0.7,0.7C891.9,3334,891.6,3334.3,891.2,3334.3z
				 M877.6,3334.2L877.6,3334.2l-4.1,0c-0.4,0-0.7-0.3-0.7-0.7c0-0.4,0.3-0.7,0.7-0.7h0l4.1,0c0.4,0,0.7,0.3,0.7,0.7
				C878.3,3333.9,878,3334.2,877.6,3334.2z M864,3334.1L864,3334.1l-4.1,0c-0.4,0-0.7-0.3-0.7-0.7c0-0.4,0.3-0.7,0.7-0.7h0l4.1,0
				c0.4,0,0.7,0.3,0.7,0.7C864.7,3333.8,864.4,3334.1,864,3334.1z M850.4,3334L850.4,3334l-4.1,0c-0.4,0-0.7-0.3-0.7-0.7
				c0-0.4,0.3-0.7,0.7-0.7h0l4.1,0c0.4,0,0.7,0.3,0.7,0.7C851.1,3333.7,850.8,3334,850.4,3334z M836.8,3334L836.8,3334l-4.1,0
				c-0.4,0-0.7-0.3-0.7-0.7c0-0.4,0.3-0.7,0.7-0.7h0l4.1,0c0.4,0,0.7,0.3,0.7,0.7C837.5,3333.7,837.2,3334,836.8,3334z
				 M823.2,3333.9L823.2,3333.9l-4.1,0c-0.4,0-0.7-0.3-0.7-0.7c0-0.4,0.3-0.7,0.7-0.7h0l4.1,0c0.4,0,0.7,0.3,0.7,0.7
				C823.9,3333.6,823.6,3333.9,823.2,3333.9z M809.6,3333.8L809.6,3333.8l-4.1,0c-0.4,0-0.7-0.3-0.7-0.7c0-0.4,0.3-0.7,0.7-0.7h0
				l4.1,0c0.4,0,0.7,0.3,0.7,0.7C810.3,3333.5,810,3333.8,809.6,3333.8z M796,3333.7L796,3333.7l-4.1,0c-0.4,0-0.7-0.3-0.7-0.7
				c0-0.4,0.3-0.7,0.7-0.7h0l4.1,0c0.4,0,0.7,0.3,0.7,0.7C796.7,3333.4,796.4,3333.7,796,3333.7z M782.4,3333.6L782.4,3333.6l-4.1,0
				c-0.4,0-0.7-0.3-0.7-0.7c0-0.4,0.3-0.7,0.7-0.7h0l4.1,0c0.4,0,0.7,0.3,0.7,0.7C783,3333.3,782.7,3333.6,782.4,3333.6z
				 M768.8,3333.6L768.8,3333.6l-4.1,0c-0.4,0-0.7-0.3-0.7-0.7c0-0.4,0.4-0.6,0.7-0.7l4.1,0c0.4,0,0.7,0.3,0.7,0.7
				C769.4,3333.3,769.1,3333.6,768.8,3333.6z M755.2,3333.5L755.2,3333.5l-4.1,0c-0.4,0-0.7-0.3-0.7-0.7c0-0.4,0.3-0.7,0.7-0.7h0
				l4.1,0c0.4,0,0.7,0.3,0.7,0.7C755.8,3333.2,755.5,3333.5,755.2,3333.5z M741.5,3333.4L741.5,3333.4l-4.1,0
				c-0.4,0-0.7-0.3-0.7-0.7c0-0.4,0.3-0.7,0.7-0.7l4.1,0c0.4,0,0.7,0.3,0.7,0.7C742.2,3333.1,741.9,3333.4,741.5,3333.4z
				 M727.9,3333.3L727.9,3333.3l-4.1,0c-0.4,0-0.7-0.3-0.7-0.7c0-0.4,0.3-0.7,0.7-0.7h0l4.1,0c0.4,0,0.7,0.3,0.7,0.7
				C728.6,3333,728.3,3333.3,727.9,3333.3z M714.3,3333.2L714.3,3333.2l-4.1,0c-0.4,0-0.7-0.3-0.7-0.7c0-0.4,0.3-0.7,0.7-0.7l4.1,0
				c0.4,0,0.7,0.3,0.7,0.7C715,3332.9,714.7,3333.2,714.3,3333.2z M700.7,3333.2L700.7,3333.2l-4.1,0c-0.4,0-0.7-0.3-0.7-0.7
				c0-0.4,0.3-0.7,0.7-0.7h0l4.1,0c0.4,0,0.7,0.3,0.7,0.7C701.4,3332.9,701.1,3333.2,700.7,3333.2z M687.1,3333.1L687.1,3333.1
				l-4.1,0c-0.4,0-0.7-0.3-0.7-0.7c0-0.4,0.3-0.7,0.7-0.7h0l4.1,0c0.4,0,0.7,0.3,0.7,0.7C687.8,3332.8,687.5,3333.1,687.1,3333.1z
				 M673.5,3333L673.5,3333l-4.1,0c-0.4,0-0.7-0.3-0.7-0.7c0-0.4,0.3-0.7,0.7-0.7h0l4.1,0c0.4,0,0.7,0.3,0.7,0.7
				C674.2,3332.7,673.9,3333,673.5,3333z M659.9,3332.9L659.9,3332.9l-4.1,0c-0.4,0-0.7-0.3-0.7-0.7c0-0.4,0.3-0.7,0.7-0.7h0l4.1,0
				c0.4,0,0.7,0.3,0.7,0.7C660.6,3332.6,660.3,3332.9,659.9,3332.9z M646.3,3332.8L646.3,3332.8l-4.1,0c-0.4,0-0.7-0.3-0.7-0.7
				c0-0.4,0.3-0.7,0.7-0.7h0l4.1,0c0.4,0,0.7,0.3,0.7,0.7C647,3332.5,646.7,3332.8,646.3,3332.8z M632.7,3332.8L632.7,3332.8l-4.1,0
				c-0.4,0-0.7-0.3-0.7-0.7c0-0.4,0.3-0.7,0.7-0.7h0l4.1,0c0.4,0,0.7,0.3,0.7,0.7C633.4,3332.5,633,3332.8,632.7,3332.8z
				 M619.1,3332.7L619.1,3332.7l-4.1,0c-0.4,0-0.7-0.3-0.7-0.7c0-0.4,0.3-0.7,0.7-0.7h0l4.1,0c0.4,0,0.7,0.3,0.7,0.7
				C619.7,3332.4,619.4,3332.7,619.1,3332.7z M605.5,3332.6L605.5,3332.6l-4.1,0c-0.4,0-0.7-0.3-0.7-0.7c0-0.4,0.3-0.7,0.7-0.7h0
				l4.1,0c0.4,0,0.7,0.3,0.7,0.7C606.1,3332.3,605.8,3332.6,605.5,3332.6z M591.8,3332.5L591.8,3332.5l-4.1,0
				c-0.4,0-0.7-0.3-0.7-0.7c0-0.4,0.3-0.7,0.7-0.7h0l4.1,0c0.4,0,0.7,0.3,0.7,0.7C592.5,3332.2,592.2,3332.5,591.8,3332.5z
				 M578.2,3332.4L578.2,3332.4l-4.1,0c-0.4,0-0.7-0.3-0.7-0.7c0-0.4,0.3-0.6,0.7-0.7l4.1,0c0.4,0,0.7,0.3,0.7,0.7
				C578.9,3332.1,578.6,3332.4,578.2,3332.4z M564.6,3332.4L564.6,3332.4l-4.1,0c-0.4,0-0.7-0.3-0.7-0.7c0-0.4,0.3-0.7,0.7-0.7h0
				l4.1,0c0.4,0,0.7,0.3,0.7,0.7C565.3,3332.1,565,3332.4,564.6,3332.4z M551,3332.3L551,3332.3l-4.1,0c-0.4,0-0.7-0.3-0.7-0.7
				c0-0.4,0.3-0.7,0.7-0.7l4.1,0c0.4,0,0.7,0.3,0.7,0.7C551.7,3332,551.4,3332.3,551,3332.3z M537.4,3332.2L537.4,3332.2l-4.1,0
				c-0.4,0-0.7-0.3-0.7-0.7c0-0.4,0.3-0.7,0.7-0.7h0l4.1,0c0.4,0,0.7,0.3,0.7,0.7C538.1,3331.9,537.8,3332.2,537.4,3332.2z
				 M995.7,3332.1c-0.3,0-0.6-0.2-0.6-0.5c-0.1-0.4,0.1-0.7,0.4-0.9c1.3-0.4,2.5-0.9,3.8-1.4c0.3-0.1,0.7,0,0.9,0.4
				c0.1,0.3,0,0.7-0.4,0.9c-1.3,0.5-2.6,1-3.9,1.5C995.9,3332.1,995.8,3332.1,995.7,3332.1z M523.8,3332.1L523.8,3332.1l-4.1,0
				c-0.4,0-0.7-0.3-0.7-0.7c0-0.4,0.3-0.7,0.7-0.7l4.1,0c0.4,0,0.7,0.3,0.7,0.7C524.5,3331.8,524.2,3332.1,523.8,3332.1z
				 M510.2,3332L510.2,3332l-4.1,0c-0.4,0-0.7-0.3-0.7-0.7c0-0.4,0.3-0.7,0.7-0.7h0l4.1,0c0.4,0,0.7,0.3,0.7,0.7
				C510.9,3331.7,510.6,3332,510.2,3332z M496.6,3332L496.6,3332l-4.1,0c-0.4,0-0.7-0.3-0.7-0.7c0-0.4,0.3-0.7,0.7-0.7h0l4.1,0
				c0.4,0,0.7,0.3,0.7,0.7C497.3,3331.7,497,3332,496.6,3332z M483,3331.9L483,3331.9l-4.1,0c-0.4,0-0.7-0.3-0.7-0.7
				c0-0.4,0.3-0.7,0.7-0.7h0l4.1,0c0.4,0,0.7,0.3,0.7,0.7C483.7,3331.6,483.3,3331.9,483,3331.9z M469.4,3331.8L469.4,3331.8l-4.1,0
				c-0.4,0-0.7-0.3-0.7-0.7c0-0.4,0.3-0.7,0.7-0.7h0l4.1,0c0.4,0,0.7,0.3,0.7,0.7C470,3331.5,469.7,3331.8,469.4,3331.8z
				 M455.8,3331.7L455.8,3331.7l-4.1,0c-0.4,0-0.7-0.3-0.7-0.7c0-0.4,0.3-0.7,0.7-0.7h0l4.1,0c0.4,0,0.7,0.3,0.7,0.7
				C456.4,3331.4,456.1,3331.7,455.8,3331.7z M442.1,3331.6C442.1,3331.6,442.1,3331.6,442.1,3331.6c-1.4-0.1-2.8-0.2-4.1-0.3
				c-0.4,0-0.6-0.4-0.6-0.7c0-0.4,0.4-0.7,0.7-0.6c1.3,0.1,2.7,0.2,4,0.3c0.4,0,0.7,0.3,0.6,0.7
				C442.8,3331.3,442.5,3331.6,442.1,3331.6z M428.7,3329.6c-0.1,0-0.1,0-0.2,0c-1.3-0.3-2.7-0.7-4-1.1c-0.4-0.1-0.6-0.5-0.5-0.8
				c0.1-0.4,0.5-0.6,0.8-0.5c1.3,0.4,2.6,0.7,3.9,1.1c0.4,0.1,0.6,0.5,0.5,0.8C429.3,3329.4,429,3329.6,428.7,3329.6z M1008,3326.2
				c-0.2,0-0.4-0.1-0.6-0.3c-0.2-0.3-0.1-0.7,0.2-0.9c1.1-0.7,2.2-1.5,3.3-2.3c0.3-0.2,0.7-0.2,1,0.1c0.2,0.3,0.2,0.7-0.1,1
				c-1.1,0.8-2.2,1.6-3.4,2.4C1008.2,3326.2,1008.1,3326.2,1008,3326.2z M415.9,3325.2c-0.1,0-0.2,0-0.3-0.1
				c-1.2-0.6-2.5-1.2-3.7-1.8c-0.3-0.2-0.5-0.6-0.3-0.9c0.2-0.3,0.6-0.5,0.9-0.3c1.2,0.6,2.4,1.2,3.6,1.8c0.3,0.2,0.5,0.6,0.3,0.9
				C416.4,3325.1,416.1,3325.2,415.9,3325.2z M404.1,3318.5c-0.1,0-0.3,0-0.4-0.1c-1.1-0.8-2.2-1.6-3.3-2.5c-0.3-0.2-0.3-0.7-0.1-1
				c0.2-0.3,0.7-0.3,1-0.1c1.1,0.8,2.1,1.6,3.2,2.4c0.3,0.2,0.4,0.6,0.2,0.9C404.5,3318.4,404.3,3318.5,404.1,3318.5z
				 M1018.2,3317.4c-0.2,0-0.3-0.1-0.5-0.2c-0.3-0.3-0.3-0.7-0.1-1c0.9-1,1.8-2,2.6-3.1c0.2-0.3,0.7-0.4,1-0.1
				c0.3,0.2,0.4,0.7,0.1,1c-0.8,1.1-1.7,2.2-2.6,3.2C1018.6,3317.3,1018.4,3317.4,1018.2,3317.4z M393.7,3309.7
				c-0.2,0-0.4-0.1-0.5-0.2c-1-1-1.9-2-2.8-3c-0.2-0.3-0.2-0.7,0.1-1c0.3-0.2,0.7-0.2,1,0.1c0.9,1,1.8,2,2.7,3c0.3,0.3,0.3,0.7,0,1
				C394.1,3309.6,393.9,3309.7,393.7,3309.7z M1025.9,3306.2c-0.1,0-0.2,0-0.3-0.1c-0.3-0.2-0.5-0.6-0.3-0.9
				c0.6-1.2,1.2-2.4,1.7-3.7c0.1-0.3,0.5-0.5,0.9-0.4c0.3,0.1,0.5,0.5,0.4,0.9c-0.5,1.3-1.1,2.5-1.7,3.8
				C1026.4,3306,1026.2,3306.2,1025.9,3306.2z M385.2,3299.1c-0.2,0-0.4-0.1-0.6-0.3c-0.8-1.1-1.5-2.3-2.2-3.5
				c-0.2-0.3-0.1-0.7,0.2-0.9c0.3-0.2,0.7-0.1,0.9,0.2c0.7,1.2,1.4,2.3,2.1,3.4c0.2,0.3,0.1,0.7-0.2,0.9
				C385.4,3299.1,385.3,3299.1,385.2,3299.1z M1030.4,3293.4c0,0-0.1,0-0.1,0c-0.4-0.1-0.6-0.4-0.5-0.8c0.2-1,0.4-2,0.5-3l0.1-0.9
				c0.1-0.4,0.4-0.6,0.8-0.6c0.4,0.1,0.6,0.4,0.6,0.8l-0.1,0.9c-0.2,1-0.3,2.1-0.6,3.1C1031,3293.2,1030.7,3293.4,1030.4,3293.4z
				 M378.8,3287.1c-0.3,0-0.5-0.2-0.6-0.4c-0.5-1.3-1-2.6-1.5-3.9c-0.1-0.4,0.1-0.7,0.4-0.9c0.4-0.1,0.7,0.1,0.9,0.4
				c0.4,1.3,0.9,2.5,1.5,3.8c0.1,0.3,0,0.7-0.4,0.9C378.9,3287.1,378.9,3287.1,378.8,3287.1z M1032.5,3279.9
				C1032.4,3279.9,1032.4,3279.9,1032.5,3279.9c-0.5-0.1-0.7-0.4-0.7-0.8c0.2-1.3,0.4-2.7,0.6-4c0.1-0.4,0.4-0.6,0.8-0.6
				c0.4,0.1,0.6,0.4,0.6,0.8c-0.2,1.4-0.4,2.7-0.6,4C1033.1,3279.7,1032.8,3279.9,1032.5,3279.9z M374.7,3274.1
				c-0.3,0-0.6-0.2-0.7-0.5c-0.3-1.3-0.5-2.7-0.7-4.1c-0.1-0.4,0.2-0.7,0.6-0.8c0.4,0,0.7,0.2,0.8,0.6c0.2,1.3,0.4,2.7,0.7,4
				c0.1,0.4-0.2,0.7-0.5,0.8C374.8,3274.1,374.8,3274.1,374.7,3274.1z M1034.3,3266.4C1034.2,3266.4,1034.2,3266.4,1034.3,3266.4
				c-0.5-0.1-0.7-0.4-0.7-0.8l0.5-4c0-0.4,0.4-0.6,0.8-0.6c0.4,0,0.6,0.4,0.6,0.8l-0.5,4.1
				C1034.9,3266.2,1034.6,3266.4,1034.3,3266.4z M373.2,3260.6c-0.4,0-0.7-0.3-0.7-0.7l-0.1-4.1c0-0.4,0.3-0.7,0.7-0.7
				c0.4,0,0.7,0.3,0.7,0.7l0.1,4.1C373.9,3260.3,373.6,3260.6,373.2,3260.6L373.2,3260.6z M1035.9,3252.9
				C1035.9,3252.9,1035.8,3252.9,1035.9,3252.9c-0.5,0-0.7-0.4-0.7-0.8c0.2-1.3,0.3-2.7,0.5-4.1c0-0.4,0.4-0.6,0.8-0.6
				c0.4,0,0.6,0.4,0.6,0.8c-0.2,1.4-0.3,2.7-0.5,4.1C1036.5,3252.7,1036.2,3252.9,1035.9,3252.9z M372.8,3247
				c-0.4,0-0.7-0.3-0.7-0.7l-0.1-4.1c0-0.4,0.3-0.7,0.7-0.7c0.4,0,0.7,0.3,0.7,0.7l0.1,4.1C373.5,3246.7,373.2,3247,372.8,3247
				L372.8,3247z M1037.4,3239.4C1037.4,3239.4,1037.3,3239.4,1037.4,3239.4c-0.4,0-0.7-0.4-0.7-0.8c0.1-1.3,0.3-2.7,0.4-4.1
				c0-0.4,0.4-0.6,0.7-0.6c0.4,0,0.6,0.4,0.6,0.7c-0.1,1.4-0.3,2.7-0.4,4.1C1038,3239.1,1037.7,3239.4,1037.4,3239.4z M372.3,3233.4
				c-0.4,0-0.7-0.3-0.7-0.7l-0.1-4.1c0-0.4,0.3-0.7,0.7-0.7c0.3-0.1,0.7,0.3,0.7,0.7l0.1,4.1C373,3233.1,372.7,3233.4,372.3,3233.4
				L372.3,3233.4z M1038.7,3225.8C1038.7,3225.8,1038.7,3225.8,1038.7,3225.8c-0.4,0-0.7-0.4-0.7-0.7c0.1-1.3,0.2-2.7,0.4-4.1
				c0-0.4,0.4-0.7,0.7-0.6c0.4,0,0.7,0.4,0.6,0.7c-0.1,1.4-0.2,2.7-0.4,4.1C1039.4,3225.6,1039.1,3225.8,1038.7,3225.8z
				 M371.9,3219.8c-0.4,0-0.7-0.3-0.7-0.7l-0.1-4.1c0-0.4,0.3-0.7,0.7-0.7c0.3,0,0.7,0.3,0.7,0.7l0.1,4.1
				C372.6,3219.5,372.3,3219.8,371.9,3219.8L371.9,3219.8z M1039.9,3212.3C1039.9,3212.3,1039.9,3212.3,1039.9,3212.3
				c-0.4,0-0.7-0.4-0.7-0.7l0.3-4.1c0-0.4,0.3-0.7,0.7-0.6c0.4,0,0.7,0.4,0.6,0.7l-0.3,4.1C1040.5,3212,1040.2,3212.3,1039.9,3212.3
				z M371.5,3206.2c-0.4,0-0.7-0.3-0.7-0.7l-0.1-4.1c0-0.4,0.3-0.7,0.7-0.7c0.4,0,0.7,0.3,0.7,0.7l0.1,4.1
				C372.2,3205.9,371.9,3206.2,371.5,3206.2C371.5,3206.2,371.5,3206.2,371.5,3206.2z M1040.9,3198.7
				C1040.9,3198.7,1040.9,3198.7,1040.9,3198.7c-0.4,0-0.7-0.4-0.7-0.7l0.3-4.1c0-0.4,0.3-0.7,0.7-0.6c0.4,0,0.7,0.3,0.6,0.7
				l-0.3,4.1C1041.6,3198.4,1041.3,3198.7,1040.9,3198.7z M371,3192.6c-0.4,0-0.7-0.3-0.7-0.7l-0.1-4.1c0-0.4,0.3-0.7,0.7-0.7
				c0.4,0,0.7,0.3,0.7,0.7l0.1,4.1C371.7,3192.3,371.4,3192.6,371,3192.6C371,3192.6,371,3192.6,371,3192.6z M1041.8,3185.1
				C1041.8,3185.1,1041.7,3185.1,1041.8,3185.1c-0.4,0-0.7-0.3-0.7-0.7c0.1-1.4,0.1-2.7,0.2-4.1c0-0.4,0.3-0.7,0.7-0.6
				c0.4,0,0.7,0.3,0.6,0.7c-0.1,1.4-0.1,2.7-0.2,4.1C1042.4,3184.8,1042.1,3185.1,1041.8,3185.1z M370.6,3179
				c-0.4,0-0.7-0.3-0.7-0.7l-0.1-4.1c0-0.4,0.3-0.7,0.7-0.7c0.4,0,0.7,0.3,0.7,0.7l0.1,4.1C371.3,3178.7,371,3179,370.6,3179
				C370.6,3179,370.6,3179,370.6,3179z M1042.4,3171.5L1042.4,3171.5c-0.4,0-0.7-0.3-0.7-0.7c0.1-1.4,0.1-2.7,0.2-4.1
				c0-0.4,0.3-0.7,0.7-0.7c0.4,0,0.7,0.3,0.7,0.7c-0.1,1.4-0.1,2.7-0.2,4.1C1043.1,3171.2,1042.8,3171.5,1042.4,3171.5z
				 M370.2,3165.4c-0.4,0-0.7-0.3-0.7-0.7l-0.1-4.1c0-0.4,0.3-0.7,0.7-0.7c0.3,0,0.7,0.3,0.7,0.7l0.1,4.1
				C370.9,3165.1,370.6,3165.4,370.2,3165.4C370.2,3165.4,370.2,3165.4,370.2,3165.4z M1042.9,3157.9L1042.9,3157.9
				c-0.4,0-0.7-0.3-0.7-0.7c0-1.4,0.1-2.7,0.1-4.1c0-0.4,0.3-0.7,0.7-0.7c0.4,0,0.7,0.3,0.7,0.7c0,1.4-0.1,2.7-0.1,4.1
				C1043.6,3157.6,1043.3,3157.9,1042.9,3157.9z M369.7,3151.8c-0.4,0-0.7-0.3-0.7-0.7l-0.1-4.1c0-0.4,0.3-0.7,0.7-0.7
				c0.3,0,0.7,0.3,0.7,0.7l0.1,4.1C370.4,3151.5,370.1,3151.8,369.7,3151.8L369.7,3151.8z M1043.2,3144.3
				C1043.2,3144.3,1043.2,3144.3,1043.2,3144.3c-0.4,0-0.7-0.3-0.7-0.7c0-1.4,0-2.7,0.1-4.1c0-0.4,0.4-0.7,0.7-0.7
				c0.4,0,0.7,0.3,0.7,0.7c0,1.4,0,2.7-0.1,4.1C1043.9,3144,1043.6,3144.3,1043.2,3144.3z M369.3,3138.2c-0.4,0-0.7-0.3-0.7-0.7
				l-0.1-4.1c0-0.4,0.3-0.7,0.7-0.7c0.3,0,0.7,0.3,0.7,0.7l0.1,4.1C370,3137.9,369.7,3138.2,369.3,3138.2L369.3,3138.2z
				 M1043.3,3130.7c-0.4,0-0.7-0.3-0.7-0.7v-0.3c0-1.2,0-2.5,0-3.7c0-0.4,0.3-0.7,0.7-0.7h0c0.4,0,0.7,0.3,0.7,0.7
				c0,1.3,0,2.5,0,3.8v0.3C1044,3130.4,1043.7,3130.7,1043.3,3130.7z M368.8,3124.6c-0.4,0-0.7-0.3-0.7-0.7l-0.1-4.1
				c0-0.4,0.3-0.7,0.7-0.7c0.4,0,0.7,0.3,0.7,0.7l0.1,4.1C369.5,3124.3,369.2,3124.6,368.8,3124.6L368.8,3124.6z M1043.2,3117.1
				c-0.4,0-0.7-0.3-0.7-0.7c0-1.4,0-2.7-0.1-4.1c0-0.4,0.3-0.7,0.7-0.7c0.3,0,0.7,0.3,0.7,0.7c0,1.4,0.1,2.7,0.1,4.1
				C1043.9,3116.8,1043.6,3117.1,1043.2,3117.1L1043.2,3117.1z M368.4,3111c-0.4,0-0.7-0.3-0.7-0.7l-0.1-4.1c0-0.4,0.3-0.7,0.7-0.7
				c0.3,0,0.7,0.3,0.7,0.7l0.1,4.1C369.1,3110.7,368.8,3111,368.4,3111C368.4,3111,368.4,3111,368.4,3111z M1042.9,3103.5
				c-0.4,0-0.7-0.3-0.7-0.7c0-1.4-0.1-2.7-0.1-4.1c0-0.4,0.3-0.7,0.7-0.7c0.4,0,0.7,0.3,0.7,0.7c0.1,1.4,0.1,2.7,0.1,4.1
				C1043.6,3103.2,1043.3,3103.5,1042.9,3103.5C1042.9,3103.5,1042.9,3103.5,1042.9,3103.5z M368,3097.4c-0.4,0-0.7-0.3-0.7-0.7
				l-0.1-4.1c0-0.4,0.3-0.7,0.7-0.7c0.4,0,0.7,0.3,0.7,0.7l0.1,4.1C368.7,3097.1,368.4,3097.4,368,3097.4
				C368,3097.4,368,3097.4,368,3097.4z M1042.4,3089.9c-0.4,0-0.7-0.3-0.7-0.6c-0.1-1.4-0.1-2.7-0.2-4.1c0-0.4,0.3-0.7,0.6-0.7
				c0.4,0,0.7,0.3,0.7,0.6c0.1,1.4,0.1,2.7,0.2,4.1C1043.1,3089.6,1042.8,3089.9,1042.4,3089.9L1042.4,3089.9z M367.5,3083.8
				c-0.4,0-0.7-0.3-0.7-0.7l-0.1-4.1c0-0.4,0.3-0.7,0.7-0.7c0.4,0,0.7,0.3,0.7,0.7l0.1,4.1C368.2,3083.5,367.9,3083.8,367.5,3083.8
				C367.6,3083.8,367.5,3083.8,367.5,3083.8z M1041.6,3076.3c-0.4,0-0.7-0.3-0.7-0.6c-0.1-1.4-0.2-2.7-0.3-4.1
				c0-0.4,0.3-0.7,0.6-0.7c0.4,0,0.7,0.3,0.7,0.6c0.1,1.4,0.2,2.7,0.3,4.1C1042.3,3076,1042,3076.3,1041.6,3076.3
				C1041.6,3076.3,1041.6,3076.3,1041.6,3076.3z M367.1,3070.2c-0.4,0-0.7-0.3-0.7-0.7l-0.1-4.1c0-0.4,0.3-0.7,0.7-0.7
				c0.3-0.1,0.7,0.3,0.7,0.7l0.1,4.1C367.8,3069.9,367.5,3070.2,367.1,3070.2C367.1,3070.2,367.1,3070.2,367.1,3070.2z
				 M1040.5,3062.8c-0.3,0-0.6-0.3-0.7-0.6c-0.1-1.4-0.2-2.7-0.4-4.1c0-0.4,0.2-0.7,0.6-0.7c0.4,0,0.7,0.2,0.7,0.6
				c0.1,1.4,0.3,2.7,0.4,4.1C1041.2,3062.4,1040.9,3062.7,1040.5,3062.8C1040.6,3062.8,1040.5,3062.8,1040.5,3062.8z M366.7,3056.6
				c-0.4,0-0.7-0.3-0.7-0.7l-0.1-4.1c0-0.4,0.3-0.7,0.7-0.7c0.3,0,0.7,0.3,0.7,0.7l0.1,4.1C367.4,3056.3,367.1,3056.6,366.7,3056.6
				L366.7,3056.6z M1039.2,3049.2c-0.3,0-0.6-0.3-0.7-0.6c-0.1-1.4-0.3-2.7-0.5-4.1c0-0.4,0.2-0.7,0.6-0.8c0.4,0,0.7,0.2,0.8,0.6
				c0.2,1.4,0.3,2.7,0.5,4.1C1039.9,3048.8,1039.6,3049.2,1039.2,3049.2C1039.2,3049.2,1039.2,3049.2,1039.2,3049.2z M366.2,3043
				c-0.4,0-0.7-0.3-0.7-0.7l-0.2-4.8h2.5c0.4,0,0.7,0.3,0.7,0.7c0,0.4-0.3,0.7-0.7,0.7h-1.1l0.1,3.4
				C366.9,3042.7,366.6,3043,366.2,3043L366.2,3043z M1034.7,3038.9h-4.1c-0.4,0-0.7-0.3-0.7-0.7c0-0.4,0.3-0.7,0.7-0.7h4.1
				c0.4,0,0.7,0.3,0.7,0.7C1035.4,3038.6,1035.1,3038.9,1034.7,3038.9z M1021.1,3038.9h-4.1c-0.4,0-0.7-0.3-0.7-0.7
				c0-0.4,0.3-0.7,0.7-0.7h4.1c0.4,0,0.7,0.3,0.7,0.7C1021.8,3038.6,1021.5,3038.9,1021.1,3038.9z M1007.5,3038.9h-4.1
				c-0.4,0-0.7-0.3-0.7-0.7c0-0.4,0.3-0.7,0.7-0.7h4.1c0.4,0,0.7,0.3,0.7,0.7C1008.2,3038.6,1007.9,3038.9,1007.5,3038.9z
				 M993.9,3038.9h-4.1c-0.4,0-0.7-0.3-0.7-0.7c0-0.4,0.3-0.7,0.7-0.7h4.1c0.4,0,0.7,0.3,0.7,0.7
				C994.6,3038.6,994.3,3038.9,993.9,3038.9z M980.3,3038.9h-4.1c-0.4,0-0.7-0.3-0.7-0.7c0-0.4,0.3-0.7,0.7-0.7h4.1
				c0.4,0,0.7,0.3,0.7,0.7C981,3038.6,980.7,3038.9,980.3,3038.9z M966.7,3038.9h-4.1c-0.4,0-0.7-0.3-0.7-0.7c0-0.4,0.3-0.7,0.7-0.7
				h4.1c0.4,0,0.7,0.3,0.7,0.7C967.3,3038.6,967,3038.9,966.7,3038.9z M953.1,3038.9H949c-0.4,0-0.7-0.3-0.7-0.7
				c0-0.4,0.3-0.7,0.7-0.7h4.1c0.4,0,0.7,0.3,0.7,0.7C953.7,3038.6,953.4,3038.9,953.1,3038.9z M939.4,3038.9h-4.1
				c-0.4,0-0.7-0.3-0.7-0.7c0-0.4,0.3-0.7,0.7-0.7h4.1c0.4,0,0.7,0.3,0.7,0.7C940.1,3038.6,939.8,3038.9,939.4,3038.9z
				 M925.8,3038.9h-4.1c-0.4,0-0.7-0.3-0.7-0.7c0-0.4,0.3-0.7,0.7-0.7h4.1c0.4,0,0.7,0.3,0.7,0.7
				C926.5,3038.6,926.2,3038.9,925.8,3038.9z M912.2,3038.9h-4.1c-0.4,0-0.7-0.3-0.7-0.7c0-0.4,0.3-0.7,0.7-0.7h4.1
				c0.4,0,0.7,0.3,0.7,0.7C912.9,3038.6,912.6,3038.9,912.2,3038.9z M898.6,3038.9h-4.1c-0.4,0-0.7-0.3-0.7-0.7
				c0-0.4,0.3-0.7,0.7-0.7h4.1c0.4,0,0.7,0.3,0.7,0.7C899.3,3038.6,899,3038.9,898.6,3038.9z M885,3038.9h-4.1
				c-0.4,0-0.7-0.3-0.7-0.7c0-0.4,0.3-0.7,0.7-0.7h4.1c0.4,0,0.7,0.3,0.7,0.7C885.7,3038.6,885.4,3038.9,885,3038.9z M871.4,3038.9
				h-4.1c-0.4,0-0.7-0.3-0.7-0.7c0-0.4,0.3-0.7,0.7-0.7h4.1c0.4,0,0.7,0.3,0.7,0.7C872.1,3038.6,871.8,3038.9,871.4,3038.9z
				 M857.8,3038.9h-4.1c-0.4,0-0.7-0.3-0.7-0.7c0-0.4,0.3-0.7,0.7-0.7h4.1c0.4,0,0.7,0.3,0.7,0.7
				C858.5,3038.6,858.2,3038.9,857.8,3038.9z M844.2,3038.9h-4.1c-0.4,0-0.7-0.3-0.7-0.7c0-0.4,0.3-0.7,0.7-0.7h4.1
				c0.4,0,0.7,0.3,0.7,0.7C844.9,3038.6,844.6,3038.9,844.2,3038.9z M830.6,3038.9h-4.1c-0.4,0-0.7-0.3-0.7-0.7
				c0-0.4,0.3-0.7,0.7-0.7h4.1c0.4,0,0.7,0.3,0.7,0.7C831.3,3038.6,830.9,3038.9,830.6,3038.9z M817,3038.9h-4.1
				c-0.4,0-0.7-0.3-0.7-0.7c0-0.4,0.3-0.7,0.7-0.7h4.1c0.4,0,0.7,0.3,0.7,0.7C817.6,3038.6,817.3,3038.9,817,3038.9z M803.4,3038.9
				h-4.1c-0.4,0-0.7-0.3-0.7-0.7c0-0.4,0.3-0.7,0.7-0.7h4.1c0.4,0,0.7,0.3,0.7,0.7C804,3038.6,803.7,3038.9,803.4,3038.9z
				 M789.7,3038.9h-4.1c-0.4,0-0.7-0.3-0.7-0.7c0-0.4,0.3-0.7,0.7-0.7h4.1c0.4,0,0.7,0.3,0.7,0.7
				C790.4,3038.6,790.1,3038.9,789.7,3038.9z M776.1,3038.9h-4.1c-0.4,0-0.7-0.3-0.7-0.7c0-0.4,0.3-0.7,0.7-0.7h4.1
				c0.4,0,0.7,0.3,0.7,0.7C776.8,3038.6,776.5,3038.9,776.1,3038.9z M762.5,3038.9h-4.1c-0.4,0-0.7-0.3-0.7-0.7
				c0-0.4,0.3-0.7,0.7-0.7h4.1c0.4,0,0.7,0.3,0.7,0.7C763.2,3038.6,762.9,3038.9,762.5,3038.9z M748.9,3038.9h-4.1
				c-0.4,0-0.7-0.3-0.7-0.7c0-0.4,0.3-0.7,0.7-0.7h4.1c0.4,0,0.7,0.3,0.7,0.7C749.6,3038.6,749.3,3038.9,748.9,3038.9z
				 M735.3,3038.9h-4.1c-0.4,0-0.7-0.3-0.7-0.7c0-0.4,0.3-0.7,0.7-0.7h4.1c0.4,0,0.7,0.3,0.7,0.7
				C736,3038.6,735.7,3038.9,735.3,3038.9z M721.7,3038.9h-4.1c-0.4,0-0.7-0.3-0.7-0.7c0-0.4,0.3-0.7,0.7-0.7h4.1
				c0.4,0,0.7,0.3,0.7,0.7C722.4,3038.6,722.1,3038.9,721.7,3038.9z M708.1,3038.9H704c-0.4,0-0.7-0.3-0.7-0.7
				c0-0.4,0.3-0.7,0.7-0.7h4.1c0.4,0,0.7,0.3,0.7,0.7C708.8,3038.6,708.5,3038.9,708.1,3038.9z M694.5,3038.9h-4.1
				c-0.4,0-0.7-0.3-0.7-0.7c0-0.4,0.3-0.7,0.7-0.7h4.1c0.4,0,0.7,0.3,0.7,0.7C695.2,3038.6,694.9,3038.9,694.5,3038.9z
				 M680.9,3038.9h-4.1c-0.4,0-0.7-0.3-0.7-0.7c0-0.4,0.3-0.7,0.7-0.7h4.1c0.4,0,0.7,0.3,0.7,0.7
				C681.6,3038.6,681.2,3038.9,680.9,3038.9z M667.3,3038.9h-4.1c-0.4,0-0.7-0.3-0.7-0.7c0-0.4,0.3-0.7,0.7-0.7h4.1
				c0.4,0,0.7,0.3,0.7,0.7C667.9,3038.6,667.6,3038.9,667.3,3038.9z M653.7,3038.9h-4.1c-0.4,0-0.7-0.3-0.7-0.7
				c0-0.4,0.3-0.7,0.7-0.7h4.1c0.4,0,0.7,0.3,0.7,0.7C654.3,3038.6,654,3038.9,653.7,3038.9z M640,3038.9H636
				c-0.4,0-0.7-0.3-0.7-0.7c0-0.4,0.3-0.7,0.7-0.7h4.1c0.4,0,0.7,0.3,0.7,0.7C640.7,3038.6,640.4,3038.9,640,3038.9z M626.4,3038.9
				h-4.1c-0.4,0-0.7-0.3-0.7-0.7c0-0.4,0.3-0.7,0.7-0.7h4.1c0.4,0,0.7,0.3,0.7,0.7C627.1,3038.6,626.8,3038.9,626.4,3038.9z
				 M612.8,3038.9h-4.1c-0.4,0-0.7-0.3-0.7-0.7c0-0.4,0.3-0.7,0.7-0.7h4.1c0.4,0,0.7,0.3,0.7,0.7
				C613.5,3038.6,613.2,3038.9,612.8,3038.9z M599.2,3038.9h-4.1c-0.4,0-0.7-0.3-0.7-0.7c0-0.4,0.3-0.7,0.7-0.7h4.1
				c0.4,0,0.7,0.3,0.7,0.7C599.9,3038.6,599.6,3038.9,599.2,3038.9z M585.6,3038.9h-4.1c-0.4,0-0.7-0.3-0.7-0.7
				c0-0.4,0.3-0.7,0.7-0.7h4.1c0.4,0,0.7,0.3,0.7,0.7C586.3,3038.6,586,3038.9,585.6,3038.9z M572,3038.9h-4.1
				c-0.4,0-0.7-0.3-0.7-0.7c0-0.4,0.3-0.7,0.7-0.7h4.1c0.4,0,0.7,0.3,0.7,0.7C572.7,3038.6,572.4,3038.9,572,3038.9z M558.4,3038.9
				h-4.1c-0.4,0-0.7-0.3-0.7-0.7c0-0.4,0.3-0.7,0.7-0.7h4.1c0.4,0,0.7,0.3,0.7,0.7C559.1,3038.6,558.8,3038.9,558.4,3038.9z
				 M544.8,3038.9h-4.1c-0.4,0-0.7-0.3-0.7-0.7c0-0.4,0.3-0.7,0.7-0.7h4.1c0.4,0,0.7,0.3,0.7,0.7
				C545.5,3038.6,545.2,3038.9,544.8,3038.9z M531.2,3038.9h-4.1c-0.4,0-0.7-0.3-0.7-0.7c0-0.4,0.3-0.7,0.7-0.7h4.1
				c0.4,0,0.7,0.3,0.7,0.7C531.9,3038.6,531.5,3038.9,531.2,3038.9z M517.6,3038.9h-4.1c-0.4,0-0.7-0.3-0.7-0.7
				c0-0.4,0.3-0.7,0.7-0.7h4.1c0.4,0,0.7,0.3,0.7,0.7C518.2,3038.6,517.9,3038.9,517.6,3038.9z M504,3038.9h-4.1
				c-0.4,0-0.7-0.3-0.7-0.7c0-0.4,0.3-0.7,0.7-0.7h4.1c0.4,0,0.7,0.3,0.7,0.7C504.6,3038.6,504.3,3038.9,504,3038.9z M490.3,3038.9
				h-4.1c-0.4,0-0.7-0.3-0.7-0.7c0-0.4,0.3-0.7,0.7-0.7h4.1c0.4,0,0.7,0.3,0.7,0.7C491,3038.6,490.7,3038.9,490.3,3038.9z
				 M476.7,3038.9h-4.1c-0.4,0-0.7-0.3-0.7-0.7c0-0.4,0.3-0.7,0.7-0.7h4.1c0.4,0,0.7,0.3,0.7,0.7
				C477.4,3038.6,477.1,3038.9,476.7,3038.9z M463.1,3038.9H459c-0.4,0-0.7-0.3-0.7-0.7c0-0.4,0.3-0.7,0.7-0.7h4.1
				c0.4,0,0.7,0.3,0.7,0.7C463.8,3038.6,463.5,3038.9,463.1,3038.9z M449.5,3038.9h-4.1c-0.4,0-0.7-0.3-0.7-0.7
				c0-0.4,0.3-0.7,0.7-0.7h4.1c0.4,0,0.7,0.3,0.7,0.7C450.2,3038.6,449.9,3038.9,449.5,3038.9z M435.9,3038.9h-4.1
				c-0.4,0-0.7-0.3-0.7-0.7c0-0.4,0.3-0.7,0.7-0.7h4.1c0.4,0,0.7,0.3,0.7,0.7C436.6,3038.6,436.3,3038.9,435.9,3038.9z
				 M422.3,3038.9h-4.1c-0.4,0-0.7-0.3-0.7-0.7c0-0.4,0.3-0.7,0.7-0.7h4.1c0.4,0,0.7,0.3,0.7,0.7
				C423,3038.6,422.7,3038.9,422.3,3038.9z M408.7,3038.9h-4.1c-0.4,0-0.7-0.3-0.7-0.7c0-0.4,0.3-0.7,0.7-0.7h4.1
				c0.4,0,0.7,0.3,0.7,0.7C409.4,3038.6,409.1,3038.9,408.7,3038.9z M395.1,3038.9H391c-0.4,0-0.7-0.3-0.7-0.7
				c0-0.4,0.3-0.7,0.7-0.7h4.1c0.4,0,0.7,0.3,0.7,0.7C395.8,3038.6,395.5,3038.9,395.1,3038.9z M381.5,3038.9h-4.1
				c-0.4,0-0.7-0.3-0.7-0.7c0-0.4,0.3-0.7,0.7-0.7h4.1c0.4,0,0.7,0.3,0.7,0.7C382.1,3038.6,381.8,3038.9,381.5,3038.9z"/>
			<linearGradient id="SVGID_14_" gradientUnits="userSpaceOnUse" x1="564.7215" y1="2369.3645" x2="562.8901" y2="2666.0215">
				<stop  offset="0" style="stop-color:#4F52FF"/>
				<stop  offset="1" style="stop-color:#4042E2"/>
			</linearGradient>
			<path class="st21" d="M513.2,2868.3l1.7-18.1c1.9-4.3,5.9-7.4,10.5-8.1c17.5-2.8,60.8-7.7,81.6,7.9l3.1,21L513.2,2868.3z"/>
			<linearGradient id="SVGID_15_" gradientUnits="userSpaceOnUse" x1="564.4136" y1="2369.3616" x2="562.5823" y2="2666.0188">
				<stop  offset="0" style="stop-color:#4F52FF"/>
				<stop  offset="1" style="stop-color:#4042E2"/>
			</linearGradient>
			<path class="st22" d="M567.7,2851c-4,1-8,1-12.1,0c-4.9-1.2-8.3-5.6-8.3-10.6l0-56.5h28.8l0,56.5
				C576.1,2845.4,572.6,2849.8,567.7,2851z"/>
			<linearGradient id="SVGID_16_" gradientUnits="userSpaceOnUse" x1="843.3242" y1="2371.085" x2="841.4929" y2="2667.7419">
				<stop  offset="0" style="stop-color:#4F52FF"/>
				<stop  offset="1" style="stop-color:#4042E2"/>
			</linearGradient>
			<path class="st23" d="M791.8,2868.3l1.7-18.1c1.9-4.3,5.9-7.4,10.5-8.1c17.5-2.8,60.8-7.7,81.6,7.9l3.1,21L791.8,2868.3z"/>
			<linearGradient id="SVGID_17_" gradientUnits="userSpaceOnUse" x1="842.9979" y1="2371.0813" x2="841.1665" y2="2667.7388">
				<stop  offset="0" style="stop-color:#4F52FF"/>
				<stop  offset="1" style="stop-color:#4042E2"/>
			</linearGradient>
			<path class="st24" d="M846.3,2851c-4,1-8,1-12.1,0c-4.9-1.2-8.3-5.6-8.3-10.6l0-62.5h28.8l0,62.4
				C854.7,2845.4,851.2,2849.8,846.3,2851z"/>
			<linearGradient id="SVGID_18_" gradientUnits="userSpaceOnUse" x1="721.4326" y1="2605.9578" x2="693.6433" y2="2809.7449">
				<stop  offset="0" style="stop-color:#4F52FF"/>
				<stop  offset="1" style="stop-color:#4042E2"/>
			</linearGradient>
			<path class="st25" d="M544.4,2797.7l309.4-10.2c7.1-0.2,13-5.3,14.2-12.2c1.7-9.7,3.2-24.2,1-39.2c-2.5-17.1-17.2-29.8-34.6-30.2
				c-57.7-1.4-204.6-1.3-285.6,30.7c-8.6,3.4-14.9,10.7-17.1,19.6c-2.1,8.5-3.4,19.9-0.7,31.4C532.4,2793.7,538,2797.9,544.4,2797.7
				z"/>
			<path class="st3" d="M539,2781.6c-0.7,0-1.3-0.5-1.4-1.2c0-0.5-1.2-12.1,1.9-23.3c2.3-8.5,9-15.3,17.6-17.9
				c17.2-5.1,50.2-13.7,77.1-14.4c0.8,0,1.4,0.6,1.4,1.3c0,0.8-0.6,1.4-1.3,1.4c-26.6,0.7-59.3,9.3-76.4,14.3
				c-7.6,2.2-13.6,8.4-15.7,16c-2.9,10.7-1.8,22.2-1.8,22.3c0.1,0.7-0.5,1.4-1.2,1.5C539.1,2781.6,539.1,2781.6,539,2781.6z"/>
			<linearGradient id="SVGID_19_" gradientUnits="userSpaceOnUse" x1="729.8141" y1="2764.6646" x2="627.9212" y2="3715.666">
				<stop  offset="0" style="stop-color:#4F52FF"/>
				<stop  offset="1" style="stop-color:#4042E2"/>
			</linearGradient>
			<path class="st26" d="M369.6,2861.3c99.9-1.3,532.3-5.8,657.9,9.3c10.8,1.3,19.6,9.2,22,19.8c7.4,33.5,22.4,111.5,20.6,188.7
				c-0.2,10.5-7.9,19.4-18.3,21.3l-286.7,54.2H663.2L357.8,3094c-10.8-2.1-18.7-11.3-19.3-22.2c-2-38.9-5.1-130.1,5.4-188.8
				C346.2,2870.6,356.9,2861.5,369.6,2861.3z"/>
			<path class="st10" d="M762.7,3130.7h-4.1c-0.4,0-0.7-0.3-0.7-0.7c0-0.4,0.3-0.7,0.7-0.7h4.1c0.4,0,0.7,0.3,0.7,0.7
				C763.4,3130.4,763.1,3130.7,762.7,3130.7z M749.1,3130.7H745c-0.4,0-0.7-0.3-0.7-0.7c0-0.4,0.3-0.7,0.7-0.7h4.1
				c0.4,0,0.7,0.3,0.7,0.7C749.8,3130.4,749.5,3130.7,749.1,3130.7z M735.5,3130.7h-4.1c-0.4,0-0.7-0.3-0.7-0.7
				c0-0.4,0.3-0.7,0.7-0.7h4.1c0.4,0,0.7,0.3,0.7,0.7C736.2,3130.4,735.9,3130.7,735.5,3130.7z M721.9,3130.7h-4.1
				c-0.4,0-0.7-0.3-0.7-0.7c0-0.4,0.3-0.7,0.7-0.7h4.1c0.4,0,0.7,0.3,0.7,0.7C722.6,3130.4,722.3,3130.7,721.9,3130.7z
				 M708.3,3130.7h-4.1c-0.4,0-0.7-0.3-0.7-0.7c0-0.4,0.3-0.7,0.7-0.7h4.1c0.4,0,0.7,0.3,0.7,0.7
				C708.9,3130.4,708.6,3130.7,708.3,3130.7z M694.7,3130.7h-4.1c-0.4,0-0.7-0.3-0.7-0.7c0-0.4,0.3-0.7,0.7-0.7h4.1
				c0.4,0,0.7,0.3,0.7,0.7C695.3,3130.4,695,3130.7,694.7,3130.7z M681,3130.7H677c-0.4,0-0.7-0.3-0.7-0.7c0-0.4,0.3-0.7,0.7-0.7
				h4.1c0.4,0,0.7,0.3,0.7,0.7C681.7,3130.4,681.4,3130.7,681,3130.7z M667.4,3130.7h-1.8l-4.1-0.8c-0.4-0.1-0.6-0.4-0.5-0.8
				c0.1-0.4,0.4-0.6,0.8-0.5l4,0.8l1.6,0c0.4,0,0.7,0.3,0.7,0.7C668.1,3130.4,667.8,3130.7,667.4,3130.7z M772.1,3129
				c-0.3,0-0.6-0.2-0.7-0.6c-0.1-0.4,0.2-0.7,0.5-0.8l4-0.8c0.4-0.1,0.7,0.2,0.8,0.5c0.1,0.4-0.2,0.7-0.5,0.8l-4,0.8
				C772.1,3129,772.1,3129,772.1,3129z M652.3,3128.1c0,0-0.1,0-0.1,0l-4-0.8c-0.4-0.1-0.6-0.4-0.5-0.8c0.1-0.4,0.4-0.6,0.8-0.5
				l4,0.8c0.4,0.1,0.6,0.4,0.5,0.8C652.9,3127.8,652.6,3128.1,652.3,3128.1z M785.4,3126.4c-0.3,0-0.6-0.2-0.7-0.6
				c-0.1-0.4,0.2-0.7,0.5-0.8l4-0.8c0.4-0.1,0.7,0.2,0.8,0.5c0.1,0.4-0.2,0.7-0.5,0.8l-4,0.8
				C785.5,3126.4,785.5,3126.4,785.4,3126.4z M639,3125.4c0,0-0.1,0-0.1,0l-4-0.8c-0.4-0.1-0.6-0.4-0.5-0.8c0.1-0.4,0.4-0.6,0.8-0.5
				l4,0.8c0.4,0.1,0.6,0.4,0.5,0.8C639.6,3125.2,639.3,3125.4,639,3125.4z M798.8,3123.9c-0.3,0-0.6-0.2-0.7-0.6
				c-0.1-0.4,0.2-0.7,0.5-0.8l4-0.8c0.4-0.1,0.7,0.2,0.8,0.5c0.1,0.4-0.2,0.7-0.5,0.8l-4,0.8
				C798.9,3123.9,798.8,3123.9,798.8,3123.9z M625.6,3122.8c0,0-0.1,0-0.1,0l-4-0.8c-0.4-0.1-0.6-0.4-0.5-0.8
				c0.1-0.4,0.4-0.6,0.8-0.5l4,0.8c0.4,0.1,0.6,0.4,0.5,0.8C626.2,3122.5,625.9,3122.8,625.6,3122.8z M812.2,3121.4
				c-0.3,0-0.6-0.2-0.7-0.6c-0.1-0.4,0.2-0.7,0.5-0.8l4-0.8c0.4-0.1,0.7,0.2,0.8,0.5c0.1,0.4-0.2,0.7-0.5,0.8l-4,0.8
				C812.3,3121.4,812.2,3121.4,812.2,3121.4z M612.3,3120.1c0,0-0.1,0-0.1,0l-4-0.8c-0.4-0.1-0.6-0.4-0.5-0.8
				c0.1-0.4,0.4-0.6,0.8-0.5l4,0.8c0.4,0.1,0.6,0.4,0.5,0.8C612.9,3119.9,612.6,3120.1,612.3,3120.1z M825.6,3118.8
				c-0.3,0-0.6-0.2-0.7-0.6c-0.1-0.4,0.2-0.7,0.5-0.8l4-0.8c0.4-0.1,0.7,0.2,0.8,0.5c0.1,0.4-0.2,0.7-0.5,0.8l-4,0.8
				C825.6,3118.8,825.6,3118.8,825.6,3118.8z M598.9,3117.5c0,0-0.1,0-0.1,0l-4-0.8c-0.4-0.1-0.6-0.4-0.5-0.8
				c0.1-0.4,0.4-0.6,0.8-0.5l4,0.8c0.4,0.1,0.6,0.4,0.5,0.8C599.5,3117.2,599.2,3117.5,598.9,3117.5z M838.9,3116.3
				c-0.3,0-0.6-0.2-0.7-0.6c-0.1-0.4,0.2-0.7,0.5-0.8l4-0.8c0.4-0.1,0.7,0.2,0.8,0.5c0.1,0.4-0.2,0.7-0.5,0.8l-4,0.8
				C839,3116.3,839,3116.3,838.9,3116.3z M585.6,3114.8c0,0-0.1,0-0.1,0l-4-0.8c-0.4-0.1-0.6-0.4-0.5-0.8c0.1-0.4,0.4-0.6,0.8-0.5
				l4,0.8c0.4,0.1,0.6,0.4,0.5,0.8C586.2,3114.6,585.9,3114.8,585.6,3114.8z M852.3,3113.8c-0.3,0-0.6-0.2-0.7-0.6
				c-0.1-0.4,0.2-0.7,0.5-0.8l4-0.8c0.4-0.1,0.7,0.2,0.8,0.5c0.1,0.4-0.2,0.7-0.5,0.8l-4,0.8
				C852.4,3113.8,852.3,3113.8,852.3,3113.8z M572.2,3112.2c0,0-0.1,0-0.1,0l-4-0.8c-0.4-0.1-0.6-0.4-0.5-0.8
				c0.1-0.4,0.4-0.6,0.8-0.5l4,0.8c0.4,0.1,0.6,0.4,0.5,0.8C572.8,3111.9,572.5,3112.2,572.2,3112.2z M865.7,3111.3
				c-0.3,0-0.6-0.2-0.7-0.6c-0.1-0.4,0.2-0.7,0.5-0.8l4-0.8c0.4-0.1,0.7,0.2,0.8,0.5c0.1,0.4-0.2,0.7-0.5,0.8l-4,0.8
				C865.8,3111.2,865.7,3111.3,865.7,3111.3z M558.9,3109.5c0,0-0.1,0-0.1,0l-4-0.8c-0.4-0.1-0.6-0.4-0.5-0.8
				c0.1-0.4,0.4-0.6,0.8-0.5l4,0.8c0.4,0.1,0.6,0.4,0.5,0.8C559.5,3109.3,559.2,3109.5,558.9,3109.5z M879,3108.7
				c-0.3,0-0.6-0.2-0.7-0.6c-0.1-0.4,0.2-0.7,0.5-0.8l4-0.8c0.4-0.1,0.7,0.2,0.8,0.5c0.1,0.4-0.2,0.7-0.5,0.8l-4,0.8
				C879.1,3108.7,879.1,3108.7,879,3108.7z M545.5,3106.8c0,0-0.1,0-0.1,0l-4-0.8c-0.4-0.1-0.6-0.4-0.5-0.8c0.1-0.4,0.4-0.6,0.8-0.5
				l4,0.8c0.4,0.1,0.6,0.4,0.5,0.8C546.1,3106.6,545.8,3106.8,545.5,3106.8z M892.4,3106.2c-0.3,0-0.6-0.2-0.7-0.6
				c-0.1-0.4,0.2-0.7,0.5-0.8l4-0.8c0.4-0.1,0.7,0.2,0.8,0.5c0.1,0.4-0.2,0.7-0.5,0.8l-4,0.8
				C892.5,3106.2,892.5,3106.2,892.4,3106.2z M532.2,3104.2c0,0-0.1,0-0.1,0l-4-0.8c-0.4-0.1-0.6-0.4-0.5-0.8
				c0.1-0.4,0.4-0.6,0.8-0.5l4,0.8c0.4,0.1,0.6,0.4,0.5,0.8C532.8,3104,532.5,3104.2,532.2,3104.2z M905.8,3103.7
				c-0.3,0-0.6-0.2-0.7-0.6c-0.1-0.4,0.2-0.7,0.5-0.8l4-0.8c0.4-0.1,0.7,0.2,0.8,0.5c0.1,0.4-0.2,0.7-0.5,0.8l-4,0.8
				C905.9,3103.7,905.8,3103.7,905.8,3103.7z M518.8,3101.5c0,0-0.1,0-0.1,0l-4-0.8c-0.4-0.1-0.6-0.4-0.5-0.8
				c0.1-0.4,0.4-0.6,0.8-0.5l4,0.8c0.4,0.1,0.6,0.4,0.5,0.8C519.4,3101.3,519.2,3101.5,518.8,3101.5z M919.2,3101.1
				c-0.3,0-0.6-0.2-0.7-0.6c-0.1-0.4,0.2-0.7,0.5-0.8l4-0.8c0.4-0.1,0.7,0.2,0.8,0.5c0.1,0.4-0.2,0.7-0.5,0.8l-4,0.8
				C919.2,3101.1,919.2,3101.1,919.2,3101.1z M505.5,3098.9c0,0-0.1,0-0.1,0l-4-0.8c-0.4-0.1-0.6-0.4-0.5-0.8
				c0.1-0.4,0.4-0.6,0.8-0.5l4,0.8c0.4,0.1,0.6,0.4,0.5,0.8C506.1,3098.7,505.8,3098.9,505.5,3098.9z M932.5,3098.6
				c-0.3,0-0.6-0.2-0.7-0.6c-0.1-0.4,0.2-0.7,0.5-0.8l4-0.8c0.4-0.1,0.7,0.2,0.8,0.5c0.1,0.4-0.2,0.7-0.5,0.8l-4,0.8
				C932.6,3098.6,932.6,3098.6,932.5,3098.6z M492.1,3096.2c0,0-0.1,0-0.1,0l-4-0.8c-0.4-0.1-0.6-0.4-0.5-0.8
				c0.1-0.4,0.4-0.6,0.8-0.5l4,0.8c0.4,0.1,0.6,0.4,0.5,0.8C492.7,3096,492.5,3096.2,492.1,3096.2z M945.9,3096.1
				c-0.3,0-0.6-0.2-0.7-0.6c-0.1-0.4,0.2-0.7,0.5-0.8l4-0.8c0.4-0.1,0.7,0.2,0.8,0.5c0.1,0.4-0.2,0.7-0.5,0.8l-4,0.8
				C946,3096.1,945.9,3096.1,945.9,3096.1z M478.8,3093.6c0,0-0.1,0-0.1,0l-4-0.8c-0.4-0.1-0.6-0.4-0.5-0.8c0.1-0.4,0.4-0.6,0.8-0.5
				l4,0.8c0.4,0.1,0.6,0.4,0.5,0.8C479.4,3093.4,479.1,3093.6,478.8,3093.6z M959.3,3093.5c-0.3,0-0.6-0.2-0.7-0.6
				c-0.1-0.4,0.2-0.7,0.5-0.8l4-0.8c0.4-0.1,0.7,0.2,0.8,0.5c0.1,0.4-0.2,0.7-0.5,0.8l-4,0.8
				C959.4,3093.5,959.3,3093.5,959.3,3093.5z M972.6,3091c-0.3,0-0.6-0.2-0.7-0.6c-0.1-0.4,0.2-0.7,0.5-0.8l4-0.8
				c0.4-0.1,0.7,0.2,0.8,0.5c0.1,0.4-0.2,0.7-0.5,0.8l-4,0.8C972.7,3091,972.7,3091,972.6,3091z M465.4,3090.9c0,0-0.1,0-0.1,0
				l-4-0.8c-0.4-0.1-0.6-0.4-0.5-0.8c0.1-0.4,0.4-0.6,0.8-0.5l4,0.8c0.4,0.1,0.6,0.4,0.5,0.8C466,3090.7,465.8,3090.9,465.4,3090.9z
				 M986,3088.5c-0.3,0-0.6-0.2-0.7-0.6c-0.1-0.4,0.2-0.7,0.5-0.8l4-0.8c0.4-0.1,0.7,0.2,0.8,0.5c0.1,0.4-0.2,0.7-0.5,0.8l-4,0.8
				C986.1,3088.5,986.1,3088.5,986,3088.5z M452.1,3088.3c0,0-0.1,0-0.1,0l-4-0.8c-0.4-0.1-0.6-0.4-0.5-0.8c0.1-0.4,0.4-0.6,0.8-0.5
				l4,0.8c0.4,0.1,0.6,0.4,0.5,0.8C452.7,3088,452.4,3088.3,452.1,3088.3z M999.4,3086c-0.3,0-0.6-0.2-0.7-0.6
				c-0.1-0.4,0.2-0.7,0.5-0.8l4-0.8c0.4-0.1,0.7,0.2,0.8,0.5c0.1,0.4-0.2,0.7-0.5,0.8l-4,0.8C999.5,3086,999.4,3086,999.4,3086z
				 M438.7,3085.6c0,0-0.1,0-0.1,0l-4-0.8c-0.4-0.1-0.6-0.4-0.5-0.8c0.1-0.4,0.4-0.6,0.8-0.5l4,0.8c0.4,0.1,0.6,0.4,0.5,0.8
				C439.3,3085.4,439.1,3085.6,438.7,3085.6z M1012.8,3083.4c-0.3,0-0.6-0.2-0.7-0.6c-0.1-0.4,0.2-0.7,0.5-0.8l4-0.8
				c0.4-0.1,0.7,0.2,0.8,0.5c0.1,0.4-0.2,0.7-0.5,0.8l-4,0.8C1012.8,3083.4,1012.8,3083.4,1012.8,3083.4z M425.4,3083
				c0,0-0.1,0-0.1,0l-4-0.8c-0.4-0.1-0.6-0.4-0.5-0.8c0.1-0.4,0.4-0.6,0.8-0.5l4,0.8c0.4,0.1,0.6,0.4,0.5,0.8
				C426,3082.7,425.7,3083,425.4,3083z M1026.1,3080.9c-0.3,0-0.6-0.2-0.7-0.6c-0.1-0.4,0.2-0.7,0.5-0.8l4-0.8
				c0.4-0.1,0.7,0.2,0.8,0.5c0.1,0.4-0.2,0.7-0.5,0.8l-4,0.8C1026.2,3080.9,1026.2,3080.9,1026.1,3080.9z M412,3080.3
				c0,0-0.1,0-0.1,0l-4-0.8c-0.4-0.1-0.6-0.4-0.5-0.8c0.1-0.4,0.4-0.6,0.8-0.5l4,0.8c0.4,0.1,0.6,0.4,0.5,0.8
				C412.6,3080.1,412.4,3080.3,412,3080.3z M1039.5,3078.4c-0.3,0-0.6-0.2-0.7-0.6c-0.1-0.4,0.2-0.7,0.5-0.8l4-0.8
				c0.4-0.1,0.7,0.2,0.8,0.5c0.1,0.4-0.2,0.7-0.5,0.8l-4,0.8C1039.6,3078.4,1039.5,3078.4,1039.5,3078.4z M398.7,3077.7
				c0,0-0.1,0-0.1,0l-4-0.8c-0.4-0.1-0.6-0.4-0.5-0.8c0.1-0.4,0.4-0.6,0.8-0.5l4,0.8c0.4,0.1,0.6,0.4,0.5,0.8
				C399.3,3077.4,399,3077.7,398.7,3077.7z M385.4,3075c0,0-0.1,0-0.1,0l-4-0.8c-0.4-0.1-0.6-0.4-0.5-0.8c0.1-0.4,0.4-0.6,0.8-0.5
				l4,0.8c0.4,0.1,0.6,0.4,0.5,0.8C386,3074.8,385.7,3075,385.4,3075z M372,3072.4c0,0-0.1,0-0.1,0l-4-0.8c-0.4-0.1-0.6-0.4-0.5-0.8
				c0.1-0.4,0.4-0.6,0.8-0.5l4,0.8c0.4,0.1,0.6,0.4,0.5,0.8C372.6,3072.1,372.3,3072.4,372,3072.4z M1045.5,3069.6L1045.5,3069.6
				c-0.4,0-0.7-0.3-0.7-0.7l0-2.5l0-1.6c0-0.4,0.3-0.7,0.7-0.7h0c0.4,0,0.7,0.3,0.7,0.7l0,1.6l0,2.5
				C1046.2,3069.3,1045.9,3069.6,1045.5,3069.6z M362.9,3066c-0.4,0-0.7-0.3-0.7-0.6c-0.1-1.3-0.1-2.7-0.2-4.1
				c0-0.4,0.3-0.7,0.6-0.7c0.4,0,0.7,0.3,0.7,0.6c0.1,1.4,0.1,2.8,0.2,4.1C363.6,3065.7,363.3,3066,362.9,3066
				C362.9,3066,362.9,3066,362.9,3066z M1045.4,3056c-0.4,0-0.7-0.3-0.7-0.7c0-1.4-0.1-2.7-0.1-4.1c0-0.4,0.3-0.7,0.7-0.7
				c0.4,0,0.7,0.3,0.7,0.7c0,1.4,0.1,2.7,0.1,4.1C1046.1,3055.7,1045.8,3056,1045.4,3056L1045.4,3056z M362.3,3052.4
				c-0.4,0-0.7-0.3-0.7-0.7l-0.2-4.1c0-0.4,0.3-0.7,0.7-0.7c0.4,0,0.7,0.3,0.7,0.7l0.2,4.1C363,3052.1,362.7,3052.4,362.3,3052.4
				C362.4,3052.4,362.4,3052.4,362.3,3052.4z M1045,3042.4c-0.4,0-0.7-0.3-0.7-0.7c-0.1-1.4-0.1-2.7-0.2-4.1c0-0.4,0.3-0.7,0.6-0.7
				c0.4,0,0.7,0.3,0.7,0.6c0.1,1.4,0.1,2.7,0.2,4.1C1045.7,3042.1,1045.4,3042.4,1045,3042.4C1045,3042.4,1045,3042.4,1045,3042.4z
				 M361.9,3038.8c-0.4,0-0.7-0.3-0.7-0.7l-0.1-4.1c0-0.4,0.3-0.7,0.7-0.7c0.4,0,0.7,0.3,0.7,0.7l0.1,4.1
				C362.6,3038.5,362.3,3038.8,361.9,3038.8L361.9,3038.8z M1044.3,3028.9c-0.4,0-0.7-0.3-0.7-0.6c-0.1-1.4-0.2-2.7-0.3-4.1
				c0-0.4,0.3-0.7,0.6-0.7c0.4,0,0.7,0.3,0.7,0.6c0.1,1.4,0.2,2.7,0.3,4.1C1045,3028.5,1044.7,3028.8,1044.3,3028.9
				C1044.3,3028.9,1044.3,3028.9,1044.3,3028.9z M361.5,3025.2c-0.4,0-0.7-0.3-0.7-0.7l-0.1-4.1c0-0.4,0.3-0.7,0.7-0.7
				c0.4,0,0.7,0.3,0.7,0.7l0.1,4.1C362.2,3024.9,361.9,3025.2,361.5,3025.2L361.5,3025.2z M1043.3,3015.3c-0.4,0-0.6-0.3-0.7-0.6
				c-0.1-1.4-0.2-2.7-0.3-4.1c0-0.4,0.2-0.7,0.6-0.7c0.4,0,0.7,0.2,0.7,0.6c0.1,1.4,0.2,2.7,0.3,4.1
				C1044,3014.9,1043.7,3015.2,1043.3,3015.3C1043.3,3015.3,1043.3,3015.3,1043.3,3015.3z M361.3,3011.6c-0.4,0-0.7-0.3-0.7-0.7
				l0-4.1c0-0.4,0.3-0.7,0.7-0.7h0c0.4,0,0.7,0.3,0.7,0.7l0,4.1C362,3011.3,361.7,3011.6,361.3,3011.6L361.3,3011.6z M1042.1,3001.7
				c-0.3,0-0.6-0.3-0.7-0.6c-0.1-1.4-0.3-2.7-0.4-4.1c0-0.4,0.2-0.7,0.6-0.7c0.4,0,0.7,0.2,0.7,0.6c0.1,1.4,0.3,2.7,0.4,4.1
				C1042.8,3001.3,1042.5,3001.7,1042.1,3001.7C1042.1,3001.7,1042.1,3001.7,1042.1,3001.7z M361.2,2998c-0.4,0-0.7-0.3-0.7-0.7
				l0-2.3l0-1.7c0-0.4,0.3-0.7,0.7-0.7h0c0.4,0,0.7,0.3,0.7,0.7l0,1.7l0,2.3C361.9,2997.7,361.6,2998,361.2,2998L361.2,2998z
				 M1040.7,2988.2c-0.3,0-0.6-0.3-0.7-0.6c-0.2-1.4-0.3-2.7-0.5-4.1c0-0.4,0.2-0.7,0.6-0.8c0.4-0.1,0.7,0.2,0.8,0.6
				c0.2,1.3,0.3,2.7,0.5,4.1C1041.4,2987.8,1041.1,2988.1,1040.7,2988.2C1040.7,2988.2,1040.7,2988.2,1040.7,2988.2z M361.3,2984.4
				L361.3,2984.4c-0.4,0-0.7-0.3-0.7-0.7c0-1.4,0-2.7,0-4.1c0-0.4,0.3-0.7,0.7-0.7h0c0.4,0,0.7,0.3,0.7,0.7c0,1.4,0,2.7,0,4.1
				C361.9,2984.1,361.6,2984.4,361.3,2984.4z M1039,2974.7c-0.3,0-0.6-0.2-0.7-0.6c-0.2-1.4-0.4-2.7-0.5-4c0-0.4,0.2-0.7,0.6-0.8
				c0.4-0.1,0.7,0.2,0.8,0.6c0.2,1.3,0.4,2.7,0.5,4.1C1039.7,2974.3,1039.5,2974.6,1039,2974.7
				C1039.1,2974.7,1039,2974.7,1039,2974.7z M361.5,2970.8C361.5,2970.8,361.5,2970.8,361.5,2970.8c-0.4,0-0.7-0.3-0.7-0.7
				c0-1.4,0.1-2.7,0.1-4.1c0-0.4,0.3-0.7,0.7-0.7c0.4,0,0.7,0.3,0.7,0.7c0,1.4-0.1,2.7-0.1,4.1
				C362.1,2970.5,361.8,2970.8,361.5,2970.8z M1037.1,2961.2c-0.3,0-0.6-0.2-0.7-0.6c-0.2-1.4-0.4-2.7-0.6-4
				c-0.1-0.4,0.2-0.7,0.6-0.8c0.4,0,0.7,0.2,0.8,0.6c0.2,1.3,0.4,2.7,0.6,4C1037.9,2960.8,1037.6,2961.1,1037.1,2961.2
				C1037.2,2961.2,1037.2,2961.2,1037.1,2961.2z M361.9,2957.2L361.9,2957.2c-0.4,0-0.7-0.3-0.7-0.7c0-1.4,0.1-2.7,0.2-4.1
				c0-0.4,0.4-0.7,0.7-0.7c0.4,0,0.7,0.3,0.7,0.7c-0.1,1.4-0.1,2.7-0.2,4.1C362.5,2956.9,362.2,2957.2,361.9,2957.2z M1035.1,2947.7
				c-0.3,0-0.6-0.2-0.7-0.6c-0.2-1.4-0.4-2.7-0.7-4c-0.1-0.4,0.2-0.7,0.6-0.8c0.4-0.1,0.7,0.2,0.8,0.6c0.2,1.3,0.4,2.7,0.7,4
				c0.1,0.4-0.2,0.7-0.6,0.8C1035.2,2947.7,1035.1,2947.7,1035.1,2947.7z M362.5,2943.6C362.4,2943.6,362.4,2943.6,362.5,2943.6
				c-0.4,0-0.7-0.3-0.7-0.7c0.1-1.4,0.1-2.7,0.2-4.1c0-0.4,0.3-0.7,0.7-0.6c0.4,0,0.7,0.3,0.6,0.7c-0.1,1.4-0.2,2.7-0.2,4.1
				C363.1,2943.3,362.8,2943.6,362.5,2943.6z M1032.8,2934.3c-0.3,0-0.6-0.2-0.7-0.6c-0.2-1.4-0.5-2.7-0.7-4
				c-0.1-0.4,0.2-0.7,0.5-0.8c0.4-0.1,0.7,0.2,0.8,0.5c0.2,1.3,0.5,2.7,0.7,4c0.1,0.4-0.2,0.7-0.6,0.8
				C1032.9,2934.3,1032.9,2934.3,1032.8,2934.3z M363.3,2930C363.3,2930,363.3,2930,363.3,2930c-0.4,0-0.7-0.4-0.7-0.7
				c0.1-1.4,0.2-2.7,0.3-4.1c0-0.4,0.3-0.6,0.7-0.6c0.4,0,0.7,0.4,0.6,0.7c-0.1,1.3-0.2,2.7-0.3,4.1
				C364,2929.7,363.7,2930,363.3,2930z M1030.4,2920.9c-0.3,0-0.6-0.2-0.7-0.6c-0.3-1.4-0.5-2.7-0.8-4c-0.1-0.4,0.2-0.7,0.5-0.8
				c0.4-0.1,0.7,0.2,0.8,0.5c0.3,1.3,0.5,2.6,0.8,4c0.1,0.4-0.2,0.7-0.5,0.8C1030.5,2920.9,1030.4,2920.9,1030.4,2920.9z
				 M364.5,2916.4C364.4,2916.4,364.4,2916.4,364.5,2916.4c-0.4,0-0.7-0.4-0.7-0.7c0.1-1.4,0.3-2.7,0.4-4.1c0-0.4,0.4-0.6,0.7-0.6
				c0.4,0,0.6,0.4,0.6,0.7c-0.1,1.3-0.3,2.7-0.4,4.1C365.1,2916.1,364.8,2916.4,364.5,2916.4z M1027.7,2907.5
				c-0.3,0-0.6-0.2-0.7-0.5c-0.3-1.4-0.6-2.7-0.8-4c-0.1-0.4,0.2-0.7,0.5-0.8c0.4-0.1,0.7,0.2,0.8,0.5c0.3,1.3,0.5,2.6,0.8,4
				c0.1,0.4-0.2,0.7-0.5,0.8C1027.8,2907.5,1027.8,2907.5,1027.7,2907.5z M366,2902.9C366,2902.9,365.9,2902.9,366,2902.9
				c-0.5-0.1-0.7-0.4-0.7-0.8c0.2-1.4,0.4-2.7,0.6-4.1c0.1-0.4,0.4-0.6,0.8-0.6c0.4,0.1,0.6,0.4,0.6,0.8c-0.2,1.3-0.4,2.7-0.5,4
				C366.6,2902.6,366.3,2902.9,366,2902.9z M1023.4,2895.7C1023.4,2895.7,1023.3,2895.7,1023.4,2895.7c-1.4-0.2-2.7-0.3-4.1-0.5
				c-0.4,0-0.6-0.4-0.6-0.8c0-0.4,0.4-0.6,0.8-0.6c1.4,0.2,2.7,0.3,4.1,0.5c0.4,0,0.6,0.4,0.6,0.8
				C1024,2895.4,1023.7,2895.7,1023.4,2895.7z M1009.8,2894.3C1009.8,2894.3,1009.8,2894.3,1009.8,2894.3c-1.4-0.1-2.7-0.2-4.1-0.4
				c-0.4,0-0.7-0.4-0.6-0.7c0-0.4,0.4-0.6,0.7-0.6c1.4,0.1,2.7,0.2,4.1,0.4c0.4,0,0.6,0.4,0.6,0.7
				C1010.5,2894,1010.2,2894.3,1009.8,2894.3z M996.3,2893.1C996.3,2893.1,996.2,2893.1,996.3,2893.1c-1.4-0.1-2.7-0.2-4.1-0.3
				c-0.4,0-0.7-0.4-0.6-0.7c0-0.4,0.4-0.7,0.7-0.6c1.4,0.1,2.7,0.2,4.1,0.3c0.4,0,0.7,0.4,0.6,0.7
				C996.9,2892.9,996.6,2893.1,996.3,2893.1z M982.7,2892.2C982.7,2892.2,982.7,2892.2,982.7,2892.2l-4.1-0.3
				c-0.4,0-0.7-0.3-0.6-0.7c0-0.4,0.3-0.7,0.7-0.6l4.1,0.3c0.4,0,0.7,0.3,0.6,0.7C983.3,2891.9,983,2892.2,982.7,2892.2z
				 M969.1,2891.4C969.1,2891.4,969.1,2891.4,969.1,2891.4l-4.1-0.2c-0.4,0-0.7-0.3-0.6-0.7c0-0.4,0.3-0.7,0.7-0.6l4.1,0.2
				c0.4,0,0.7,0.3,0.6,0.7C969.8,2891.1,969.5,2891.4,969.1,2891.4z M955.5,2890.6C955.5,2890.6,955.5,2890.6,955.5,2890.6l-4.1-0.2
				c-0.4,0-0.7-0.3-0.6-0.7c0-0.4,0.3-0.7,0.7-0.6l4.1,0.2c0.4,0,0.7,0.3,0.6,0.7C956.2,2890.3,955.9,2890.6,955.5,2890.6z
				 M941.9,2890L941.9,2890l-4.1-0.2c-0.4,0-0.7-0.3-0.7-0.7c0-0.4,0.4-0.7,0.7-0.7l4.1,0.2c0.4,0,0.7,0.3,0.6,0.7
				C942.6,2889.7,942.3,2890,941.9,2890z M928.3,2889.4C928.3,2889.4,928.3,2889.4,928.3,2889.4l-4.1-0.2c-0.4,0-0.7-0.3-0.7-0.7
				c0-0.4,0.4-0.7,0.7-0.7l4.1,0.2c0.4,0,0.7,0.3,0.7,0.7C929,2889.1,928.7,2889.4,928.3,2889.4z M368,2889.4c0,0-0.1,0-0.1,0
				c-0.4-0.1-0.6-0.4-0.6-0.8l0.2-1.3c0.2-1.2,1.2-2,2.4-2l0.4,0c0.4-0.1,0.7,0.3,0.7,0.7c0,0.4-0.3,0.7-0.7,0.7l-0.4,0
				c-0.5,0-0.9,0.4-1,0.9l-0.2,1.3C368.6,2889.2,368.4,2889.4,368,2889.4z M914.7,2888.9L914.7,2888.9l-4.1-0.1
				c-0.4,0-0.7-0.3-0.7-0.7c0-0.4,0.3-0.7,0.7-0.7l4.1,0.1c0.4,0,0.7,0.3,0.7,0.7C915.4,2888.6,915.1,2888.9,914.7,2888.9z
				 M901.1,2888.5C901.1,2888.5,901.1,2888.5,901.1,2888.5l-4.1-0.1c-0.4,0-0.7-0.3-0.7-0.7c0-0.4,0.3-0.7,0.7-0.7l4.1,0.1
				c0.4,0,0.7,0.3,0.7,0.7C901.8,2888.2,901.5,2888.5,901.1,2888.5z M887.5,2888C887.5,2888,887.5,2888,887.5,2888l-4.1-0.1
				c-0.4,0-0.7-0.3-0.7-0.7c0-0.4,0.3-0.7,0.7-0.7l4.1,0.1c0.4,0,0.7,0.3,0.7,0.7C888.2,2887.8,887.9,2888,887.5,2888z
				 M873.9,2887.7C873.9,2887.7,873.9,2887.7,873.9,2887.7l-4.1-0.1c-0.4,0-0.7-0.3-0.7-0.7c0-0.4,0.3-0.7,0.7-0.7l4.1,0.1
				c0.4,0,0.7,0.3,0.7,0.7C874.6,2887.4,874.3,2887.7,873.9,2887.7z M860.3,2887.3L860.3,2887.3l-4.1-0.1c-0.4,0-0.7-0.3-0.7-0.7
				c0-0.4,0.3-0.7,0.7-0.7l4.1,0.1c0.4,0,0.7,0.3,0.7,0.7C861,2887,860.7,2887.3,860.3,2887.3z M846.7,2887
				C846.7,2887,846.7,2887,846.7,2887l-4.1-0.1c-0.4,0-0.7-0.3-0.7-0.7c0-0.4,0.4-0.7,0.7-0.7l4.1,0.1c0.4,0,0.7,0.3,0.7,0.7
				C847.4,2886.7,847.1,2887,846.7,2887z M833.1,2886.8L833.1,2886.8l-4.1-0.1c-0.4,0-0.7-0.3-0.7-0.7c0-0.4,0.3-0.7,0.7-0.7
				l4.1,0.1c0.4,0,0.7,0.3,0.7,0.7C833.8,2886.5,833.5,2886.8,833.1,2886.8z M379.8,2886.6c-0.4,0-0.7-0.3-0.7-0.7
				c0-0.4,0.3-0.7,0.7-0.7l4.1,0c0.3,0,0.7,0.3,0.7,0.7c0,0.4-0.3,0.7-0.7,0.7L379.8,2886.6L379.8,2886.6z M819.5,2886.5
				L819.5,2886.5l-4.1-0.1c-0.4,0-0.7-0.3-0.7-0.7c0-0.4,0.3-0.7,0.7-0.7h0l4.1,0.1c0.4,0,0.7,0.3,0.7,0.7
				C820.2,2886.2,819.9,2886.5,819.5,2886.5z M393.5,2886.4c-0.4,0-0.7-0.3-0.7-0.7c0-0.4,0.3-0.7,0.7-0.7l4.1,0
				c0.4,0,0.7,0.3,0.7,0.7c0,0.4-0.3,0.7-0.7,0.7L393.5,2886.4L393.5,2886.4z M805.9,2886.3L805.9,2886.3l-4.1-0.1
				c-0.4,0-0.7-0.3-0.7-0.7c0-0.4,0.3-0.7,0.7-0.7l4.1,0.1c0.4,0,0.7,0.3,0.7,0.7C806.5,2886,806.2,2886.3,805.9,2886.3z
				 M407.1,2886.2c-0.4,0-0.7-0.3-0.7-0.7c0-0.4,0.3-0.7,0.7-0.7l4.1,0c0.4,0,0.7,0.3,0.7,0.7c0,0.4-0.3,0.7-0.7,0.7L407.1,2886.2
				L407.1,2886.2z M420.7,2886.1c-0.4,0-0.7-0.3-0.7-0.7c0-0.4,0.3-0.7,0.7-0.7l4.1,0c0.4,0,0.7,0.3,0.7,0.7c0,0.4-0.3,0.7-0.7,0.7
				L420.7,2886.1L420.7,2886.1z M792.3,2886.1L792.3,2886.1l-4.1-0.1c-0.4,0-0.7-0.3-0.7-0.7c0-0.4,0.3-0.7,0.7-0.7h0l4.1,0.1
				c0.4,0,0.7,0.3,0.7,0.7C792.9,2885.8,792.6,2886.1,792.3,2886.1z M434.3,2886c-0.4,0-0.7-0.3-0.7-0.7c0-0.4,0.3-0.7,0.7-0.7
				l4.1,0c0.4,0,0.7,0.3,0.7,0.7c0,0.4-0.3,0.7-0.7,0.7L434.3,2886L434.3,2886z M778.7,2885.9L778.7,2885.9l-4.1,0
				c-0.4,0-0.7-0.3-0.7-0.7c0-0.4,0.3-0.7,0.7-0.7l4.1,0.1c0.4,0,0.7,0.3,0.7,0.7C779.3,2885.6,779,2885.9,778.7,2885.9z
				 M447.9,2885.8c-0.4,0-0.7-0.3-0.7-0.7c0-0.4,0.3-0.7,0.7-0.7l4.1,0h0c0.4,0,0.7,0.3,0.7,0.7c0,0.4-0.3,0.7-0.7,0.7L447.9,2885.8
				L447.9,2885.8z M765,2885.8L765,2885.8l-4.1,0c-0.4,0-0.7-0.3-0.7-0.7c0-0.4,0.3-0.7,0.7-0.7l4.1,0c0.4,0,0.7,0.3,0.7,0.7
				C765.7,2885.5,765.4,2885.8,765,2885.8z M461.5,2885.7c-0.4,0-0.7-0.3-0.7-0.7c0-0.4,0.3-0.7,0.7-0.7l4.1,0h0
				c0.4,0,0.7,0.3,0.7,0.7c0,0.4-0.3,0.7-0.7,0.7L461.5,2885.7L461.5,2885.7z M475.1,2885.6c-0.4,0-0.7-0.3-0.7-0.7
				c0-0.4,0.3-0.7,0.7-0.7l4.1,0h0c0.4,0,0.7,0.3,0.7,0.7c0,0.4-0.3,0.7-0.7,0.7L475.1,2885.6
				C475.1,2885.6,475.1,2885.6,475.1,2885.6z M751.4,2885.6L751.4,2885.6l-4.1,0c-0.4,0-0.7-0.3-0.7-0.7c0-0.4,0.3-0.7,0.7-0.7h0
				l4.1,0c0.4,0,0.7,0.3,0.7,0.7C752.1,2885.3,751.8,2885.6,751.4,2885.6z M488.8,2885.5c-0.4,0-0.7-0.3-0.7-0.7
				c0-0.4,0.3-0.7,0.7-0.7l4.1,0c0.4,0,0.7,0.3,0.7,0.7c0,0.4-0.3,0.7-0.7,0.7L488.8,2885.5L488.8,2885.5z M737.8,2885.5
				L737.8,2885.5l-4.1,0c-0.4,0-0.7-0.3-0.7-0.7c0-0.4,0.3-0.7,0.7-0.7h0l4.1,0c0.4,0,0.7,0.3,0.7,0.7
				C738.5,2885.2,738.2,2885.5,737.8,2885.5z M502.4,2885.4c-0.4,0-0.7-0.3-0.7-0.7c0-0.4,0.3-0.7,0.7-0.7l4.1,0h0
				c0.4,0,0.7,0.3,0.7,0.7c0,0.4-0.3,0.7-0.7,0.7L502.4,2885.4L502.4,2885.4z M724.2,2885.4L724.2,2885.4l-4.1,0
				c-0.4,0-0.7-0.3-0.7-0.7c0-0.4,0.3-0.7,0.7-0.7l4.1,0c0.4,0,0.7,0.3,0.7,0.7C724.9,2885.1,724.6,2885.4,724.2,2885.4z
				 M516,2885.4c-0.4,0-0.7-0.3-0.7-0.7c0-0.4,0.3-0.7,0.7-0.7l4.1,0h0c0.4,0,0.7,0.3,0.7,0.7c0,0.4-0.3,0.7-0.7,0.7L516,2885.4
				L516,2885.4z M710.6,2885.3L710.6,2885.3l-4.1,0c-0.4,0-0.7-0.3-0.7-0.7c0-0.4,0.3-0.7,0.7-0.7l4.1,0c0.4,0,0.7,0.3,0.7,0.7
				C711.3,2885,711,2885.3,710.6,2885.3z M529.6,2885.3c-0.4,0-0.7-0.3-0.7-0.7c0-0.4,0.3-0.7,0.7-0.7l4.1,0h0
				c0.4,0,0.7,0.3,0.7,0.7c0,0.4-0.3,0.7-0.7,0.7L529.6,2885.3L529.6,2885.3z M697,2885.2L697,2885.2l-4.1,0c-0.4,0-0.7-0.3-0.7-0.7
				c0-0.4,0.3-0.7,0.7-0.7h0l4.1,0c0.4,0,0.7,0.3,0.7,0.7C697.7,2884.9,697.4,2885.2,697,2885.2z M543.2,2885.2
				c-0.4,0-0.7-0.3-0.7-0.7c0-0.4,0.3-0.7,0.7-0.7l4.1,0h0c0.4,0,0.7,0.3,0.7,0.7c0,0.4-0.3,0.7-0.7,0.7L543.2,2885.2L543.2,2885.2z
				 M556.8,2885.2c-0.4,0-0.7-0.3-0.7-0.7s0.3-0.7,0.7-0.7l4.1,0h0c0.4,0,0.7,0.3,0.7,0.7c0,0.4-0.3,0.7-0.7,0.7L556.8,2885.2
				L556.8,2885.2z M683.4,2885.2L683.4,2885.2l-4.1,0c-0.4,0-0.7-0.3-0.7-0.7c0-0.4,0.3-0.7,0.7-0.7h0l4.1,0c0.4,0,0.7,0.3,0.7,0.7
				C684.1,2884.9,683.8,2885.2,683.4,2885.2z M570.4,2885.1c-0.4,0-0.7-0.3-0.7-0.7c0-0.4,0.3-0.7,0.7-0.7l4.1,0h0
				c0.4,0,0.7,0.3,0.7,0.7c0,0.4-0.3,0.7-0.7,0.7L570.4,2885.1L570.4,2885.1z M669.8,2885.1L669.8,2885.1l-4.1,0
				c-0.4,0-0.7-0.3-0.7-0.7c0-0.4,0.3-0.7,0.7-0.7h0l4.1,0c0.4,0,0.7,0.3,0.7,0.7C670.5,2884.8,670.2,2885.1,669.8,2885.1z
				 M584,2885.1c-0.4,0-0.7-0.3-0.7-0.7c0-0.4,0.3-0.7,0.7-0.7l4.1,0h0c0.4,0,0.7,0.3,0.7,0.7c0,0.4-0.3,0.7-0.7,0.7L584,2885.1
				L584,2885.1z M656.2,2885.1L656.2,2885.1l-4.1,0c-0.4,0-0.7-0.3-0.7-0.7c0-0.4,0.3-0.7,0.7-0.7h0l4.1,0c0.4,0,0.7,0.3,0.7,0.7
				C656.9,2884.8,656.5,2885.1,656.2,2885.1z M597.7,2885.1c-0.4,0-0.7-0.3-0.7-0.7c0-0.4,0.3-0.7,0.7-0.7l4.1,0
				c0.4,0,0.7,0.3,0.7,0.7c0,0.4-0.3,0.7-0.7,0.7L597.7,2885.1L597.7,2885.1z M642.6,2885.1L642.6,2885.1l-4.1,0
				c-0.4,0-0.7-0.3-0.7-0.7c0-0.4,0.3-0.7,0.7-0.7h0l4.1,0c0.4,0,0.7,0.3,0.7,0.7C643.2,2884.8,642.9,2885.1,642.6,2885.1z
				 M611.3,2885c-0.4,0-0.7-0.3-0.7-0.7c0-0.4,0.3-0.7,0.7-0.7l4.1,0c0.4,0,0.7,0.3,0.7,0.7c0,0.4-0.3,0.7-0.7,0.7L611.3,2885z
				 M629,2885L629,2885l-4.1,0c-0.4,0-0.7-0.3-0.7-0.7c0-0.4,0.3-0.7,0.7-0.7l4.1,0c0.4,0,0.7,0.3,0.7,0.7
				C629.6,2884.7,629.3,2885,629,2885z"/>
			<linearGradient id="SVGID_20_" gradientUnits="userSpaceOnUse" x1="685.0878" y1="2403.9956" x2="697.9063" y2="2762.9141">
				<stop  offset="0" style="stop-color:#09005D"/>
				<stop  offset="1" style="stop-color:#1A0F91"/>
			</linearGradient>
			<path class="st27" d="M755.5,3197.5h-89.2c-11.7,0-21.5-8.7-22.9-20.3l-10.3-85.8c-1.6-13.7,9.1-25.7,22.9-25.7h107.2
				c13.6,0,24.2,11.6,23,25l-7.7,85.8C777.4,3188.4,767.4,3197.5,755.5,3197.5z"/>
			<defs>
				<filter id="Adobe_OpacityMaskFilter" filterUnits="userSpaceOnUse" x="651.2" y="3081.4" width="116.7" height="100.3">
					<feFlood  style="flood-color:white;flood-opacity:1" result="back"/>
					<feBlend  in="SourceGraphic" in2="back" mode="normal"/>
				</filter>
			</defs>
			<mask maskUnits="userSpaceOnUse" x="651.2" y="3081.4" width="116.7" height="100.3" id="SVGID_21_">
				<g class="st28">
					<defs>
						<filter id="Adobe_OpacityMaskFilter_1_" filterUnits="userSpaceOnUse" x="651.2" y="3081.4" width="116.7" height="100.3">
							<feFlood  style="flood-color:white;flood-opacity:1" result="back"/>
							<feBlend  in="SourceGraphic" in2="back" mode="normal"/>
						</filter>
					</defs>
					<mask maskUnits="userSpaceOnUse" x="651.2" y="3081.4" width="116.7" height="100.3" id="SVGID_21_">
						<g class="st29">
						</g>
					</mask>
					<linearGradient id="SVGID_22_" gradientUnits="userSpaceOnUse" x1="651.1809" y1="3131.5522" x2="767.8974" y2="3131.5522">
						<stop  offset="0" style="stop-color:#FFFFFF"/>
						<stop  offset="1" style="stop-color:#000000"/>
					</linearGradient>
					<path class="st30" d="M744.5,3181.7h-67.9c-8.9,0-16.4-6.6-17.4-15.4l-7.8-65.3c-1.2-10.4,6.9-19.6,17.4-19.6h81.6
						c10.3,0,18.4,8.8,17.5,19l-5.8,65.3C761.2,3174.8,753.6,3181.7,744.5,3181.7z"/>
				</g>
			</mask>
			<linearGradient id="SVGID_23_" gradientUnits="userSpaceOnUse" x1="651.1809" y1="3131.5522" x2="767.8974" y2="3131.5522">
				<stop  offset="0" style="stop-color:#4F52FF"/>
				<stop  offset="1" style="stop-color:#4042E2"/>
			</linearGradient>
			<path class="st31" d="M744.5,3181.7h-67.9c-8.9,0-16.4-6.6-17.4-15.4l-7.8-65.3c-1.2-10.4,6.9-19.6,17.4-19.6h81.6
				c10.3,0,18.4,8.8,17.5,19l-5.8,65.3C761.2,3174.8,753.6,3181.7,744.5,3181.7z"/>
		</g>
		<linearGradient id="SVGID_24_" gradientUnits="userSpaceOnUse" x1="2631.2227" y1="2074.3616" x2="3938.8411" y2="492.0307">
			<stop  offset="0" style="stop-color:#FF928E"/>
			<stop  offset="1" style="stop-color:#FE7062"/>
		</linearGradient>
		<polygon class="st32" points="2701.4,1647.4 2913.8,2074.4 3186.7,1467.9 2903.2,1781.8 		"/>
		<g>
			<g>
				
					<linearGradient id="SVGID_25_" gradientUnits="userSpaceOnUse" x1="-1410.5099" y1="1648.4956" x2="-1320.8578" y2="1904.6451" gradientTransform="matrix(1 0 0 1 3269.4707 0)">
					<stop  offset="0" style="stop-color:#FEBBBA"/>
					<stop  offset="1" style="stop-color:#FF928E"/>
				</linearGradient>
				<path class="st33" d="M1898.8,1785.9c-1.4,4.4,14.6,11.1,24-6.9c0.3-8.6,5.6-45.4,0.4-52.4c-27.4-37.3-80.4-84.1-80.4-84.1
					c-9,8.8-1.6,17.5-1.6,17.5l25.7,26.8c-5.4,9.7-11.9,17.9-15,29.7c-2.3,8.9-0.9,18.4,3.6,26.5c4.5,8.1,10.7,18.7,16.5,27
					C1883,1785.8,1898.8,1785.9,1898.8,1785.9z"/>
				
					<linearGradient id="SVGID_26_" gradientUnits="userSpaceOnUse" x1="-1341.6376" y1="1812.1493" x2="-1409.1683" y2="1675.9232" gradientTransform="matrix(1 0 0 1 3269.4707 0)">
					<stop  offset="0" style="stop-color:#FEBBBA"/>
					<stop  offset="1" style="stop-color:#FF928E"/>
				</linearGradient>
				<path class="st34" d="M1878.2,1704.3l23.5,19.9l7.4,19.8l-20.9,23.2c0,0-7-39.3-12.3-47.8
					C1870.6,1710.9,1873.3,1706.8,1878.2,1704.3z"/>
			</g>
			<g>
				
					<linearGradient id="SVGID_27_" gradientUnits="userSpaceOnUse" x1="6066.1875" y1="3203.5603" x2="5494.1309" y2="3825.7979" gradientTransform="matrix(-1 0 0 1 8244.7529 0)">
					<stop  offset="0" style="stop-color:#09005D"/>
					<stop  offset="1" style="stop-color:#1A0F91"/>
				</linearGradient>
				<path class="st35" d="M2359.4,3249.9c0,0,5.9,33.5,8.8,66.7c1.1,13-8.9,24.2-21.9,24.8c-44.2,1.8-138.8,5.4-172.7,3.9
					c-5.1-0.2-8.4-5.5-6.5-10.2c1.6-4,4.6-7.2,8.5-9l156.2-71.8L2359.4,3249.9z"/>
				
					<linearGradient id="SVGID_28_" gradientUnits="userSpaceOnUse" x1="5880.5063" y1="3249.7744" x2="5931.3193" y2="3249.7744" gradientTransform="matrix(-1 0 0 1 8244.7529 0)">
					<stop  offset="0" style="stop-color:#FEBBBA"/>
					<stop  offset="1" style="stop-color:#FF928E"/>
				</linearGradient>
				<path class="st36" d="M2364.2,3230.2l-4.8,40.1c0,0-27.4,12.7-46.1-1.6l11.3-44.7L2364.2,3230.2z"/>
				<linearGradient id="SVGID_29_" gradientUnits="userSpaceOnUse" x1="4471.8608" y1="493.8553" x2="1559.9344" y2="3768.3958">
					<stop  offset="0" style="stop-color:#09005D"/>
					<stop  offset="1" style="stop-color:#1A0F91"/>
				</linearGradient>
				<path class="st37" d="M2360.7,2476c2.1,10.5,11,522.8-43.7,752.4c-0.9,3.7,1,7.6,4.6,9.1c8.4,3.4,24.9,8.4,44.6,9.1
					c6.1,0.2,11.6-3.8,13.3-9.6c15.7-53.3,90.7-320.2,100.4-575.1c10.9-284.9,0-9.7,0-9.7l-6.4-176.1L2360.7,2476z"/>
				
					<linearGradient id="SVGID_30_" gradientUnits="userSpaceOnUse" x1="5937.8545" y1="3085.5796" x2="5365.8013" y2="3707.8135" gradientTransform="matrix(-1 0 0 1 8244.7529 0)">
					<stop  offset="0" style="stop-color:#09005D"/>
					<stop  offset="1" style="stop-color:#1A0F91"/>
				</linearGradient>
				<path class="st38" d="M2539.1,3267.4c0,0,9.4,16.9,18.6,61.9c1.6,8.1-4,15.9-12.3,16.7c-14.6,1.4-37.1,3.3-55.1,3.2
					c-8.3-0.1-14.8-7.3-13.8-15.5c2-16.4,8.2-43.4,27.4-64.4L2539.1,3267.4z"/>
				
					<linearGradient id="SVGID_31_" gradientUnits="userSpaceOnUse" x1="5697.3774" y1="3247.1692" x2="5741.2495" y2="3247.1692" gradientTransform="matrix(-1 0 0 1 8244.7529 0)">
					<stop  offset="0" style="stop-color:#FEBBBA"/>
					<stop  offset="1" style="stop-color:#FF928E"/>
				</linearGradient>
				<path class="st39" d="M2547.4,3215.8l-11.1,60.7c0,0-11,8.2-32.8,2.3l5.3-65.3L2547.4,3215.8z"/>
				<linearGradient id="SVGID_32_" gradientUnits="userSpaceOnUse" x1="4515.1602" y1="532.3565" x2="1603.2333" y2="3806.8975">
					<stop  offset="0" style="stop-color:#09005D"/>
					<stop  offset="1" style="stop-color:#1A0F91"/>
				</linearGradient>
				<path class="st40" d="M2577.4,2491.7c44.8,270.3-9.7,668.1-28.1,745.9c-1.1,4.8-5,8.4-9.8,9.2c-8.2,1.4-21.7,2.5-35-1.4
					c-4.6-1.3-7.8-5.5-8-10.2c-2.5-62.9,2-449.3-39.8-602.1c-2.1-7.7-6.8-14.5-13.4-19.1l-81-57.6l-6.2-93.1L2577.4,2491.7z"/>
				<g>
					<linearGradient id="SVGID_33_" gradientUnits="userSpaceOnUse" x1="2854.2712" y1="730.2723" x2="2370.8298" y2="2202.5725">
						<stop  offset="0" style="stop-color:#FF928E"/>
						<stop  offset="1" style="stop-color:#FE7062"/>
					</linearGradient>
					<path class="st41" d="M2292,1979.5c134.2-2.2,282.3,35.2,282.3,35.2c40,233.5,7,502.7,7,502.7
						c-103.9,27.3-221.1-16.7-221.1-16.7c-17.3-97.6-97.9-372.2-97.9-372.2c-65.6-8.1-119.6-27.1-164.1-52.1
						c33.9-39.3,49.9-89.4,56.9-119C2202.6,1972.4,2250.6,1980.2,2292,1979.5z"/>
					
						<linearGradient id="SVGID_34_" gradientUnits="userSpaceOnUse" x1="-1333.8828" y1="1621.6759" x2="-1244.2302" y2="1877.8268" gradientTransform="matrix(1 0 0 1 3269.4707 0)">
						<stop  offset="0" style="stop-color:#FEBBBA"/>
						<stop  offset="1" style="stop-color:#FF928E"/>
					</linearGradient>
					<path class="st42" d="M1895.6,1781.8c13.2-15.9,29.9-8.4,29.9-8.4c19.8,83.4,123.3,151.1,229.7,184.2
						c-6.9,29.6-22.9,79.6-56.9,119C1921.7,1977.3,1895.6,1781.8,1895.6,1781.8z"/>
				</g>
				<linearGradient id="SVGID_35_" gradientUnits="userSpaceOnUse" x1="3072.8721" y1="802.0502" x2="2589.4312" y2="2274.3489">
					<stop  offset="0" style="stop-color:#FF928E"/>
					<stop  offset="1" style="stop-color:#FE7062"/>
				</linearGradient>
				<path class="st43" d="M2522.9,2144.8l51.5-130c0,0,125.4,85.2,146,193.2c-23.7,1.7-66.8,7.9-109,29.2
					C2602.1,2186.2,2522.9,2144.8,2522.9,2144.8z"/>
				
					<linearGradient id="SVGID_36_" gradientUnits="userSpaceOnUse" x1="5773.8125" y1="1940.6321" x2="5903.6973" y2="1940.6321" gradientTransform="matrix(-1 0 0 1 8244.7529 0)">
					<stop  offset="0" style="stop-color:#FEBBBA"/>
					<stop  offset="1" style="stop-color:#FF928E"/>
				</linearGradient>
				<path class="st44" d="M2428,1870.6l42.7,123.5c0.7,2-0.1,4.3-2,5.4c-11.6,6.4-53.6,25-104.1-7c-5.3-3.3-8.8-8.8-9.6-15
					l-13.8-106.9H2428z"/>
				<g>
					
						<linearGradient id="SVGID_37_" gradientUnits="userSpaceOnUse" x1="-1169.1896" y1="2523.6067" x2="-1217.7263" y2="2363.5212" gradientTransform="matrix(-0.746 -0.6659 -0.6659 0.746 3118.4175 -803.1727)">
						<stop  offset="0" style="stop-color:#FEBBBA"/>
						<stop  offset="1" style="stop-color:#FF928E"/>
					</linearGradient>
					<path class="st45" d="M2335.1,1756.2c0,0-46.9,88.3-40.9,123.9c6,35.7,64.1,33.1,114.9,4.1l35.5-95.3L2335.1,1756.2z"/>
					
						<linearGradient id="SVGID_38_" gradientUnits="userSpaceOnUse" x1="-1212.9796" y1="2244.6809" x2="-1172.3789" y2="2476.2551" gradientTransform="matrix(-0.746 -0.6659 -0.6659 0.746 3118.4175 -803.1727)">
						<stop  offset="0" style="stop-color:#09005D"/>
						<stop  offset="1" style="stop-color:#1A0F91"/>
					</linearGradient>
					<path class="st46" d="M2406.8,1837.5c-2.1-0.9-2.8-3.4-1.6-5.3c3.8-5.7,10.8-17.4,13-27.7c0,0,8.4-5.4-21.5-12.6
						c-29.9-7.2-74.5-18.3-83.8-43.7c-9.1-24.8,14.9-87.2,53.2-37.5c1.5,1.9,4.3,1.9,5.8,0c6.3-8.2,22.8-25.1,45.7-14.8
						c21.4,9.6,23.9,25.3,23.6,33.2c-0.1,2.3,2,4.1,4.3,3.7c10.8-2.1,36.9-3.8,49,22.8c10,22,3.5,34.4-2.4,40.5
						c-1.9,2-1.1,5.2,1.6,6c7.1,2.2,16.3,8.2,15.4,24.9c-1.3,23.1-27.1,21-34.4,20c-1.2-0.2-2.4,0.2-3.2,1.1
						c-6.3,7-34.7,36.6-65.4,40.1c-2.7,0.3-4.7-2.3-3.8-4.8l13.3-38.6c0.6-1.8-0.2-3.8-2-4.5L2406.8,1837.5z"/>
					
						<linearGradient id="SVGID_39_" gradientUnits="userSpaceOnUse" x1="-1218.806" y1="2522.8608" x2="-1262.4752" y2="2378.8296" gradientTransform="matrix(-0.746 -0.6659 -0.6659 0.746 3118.4175 -803.1727)">
						<stop  offset="0" style="stop-color:#FEBBBA"/>
						<stop  offset="1" style="stop-color:#FF928E"/>
					</linearGradient>
					<path class="st47" d="M2401.5,1843c0,0,33.4-22.9,35.8-3.6c2.4,19.3-30.1,27.9-46.2,20.8L2401.5,1843z"/>
				</g>
				
					<linearGradient id="SVGID_40_" gradientUnits="userSpaceOnUse" x1="-433.6246" y1="2895.6404" x2="-539.2186" y2="2137.2808" gradientTransform="matrix(-1 0 0 1 2146.073 0)">
					<stop  offset="0" style="stop-color:#FEBBBA"/>
					<stop  offset="1" style="stop-color:#FF928E"/>
				</linearGradient>
				<path class="st48" d="M2611.4,2237.2c0,0,43.8,197.7,4.1,308.8c48.7,22.6,39.7,18.3,39.7,18.3s96.3-281.3,65.2-356.3
					C2659.1,2201.5,2628.7,2217.9,2611.4,2237.2z"/>
				
					<linearGradient id="SVGID_41_" gradientUnits="userSpaceOnUse" x1="-446.1987" y1="2822.6895" x2="-530.4629" y2="2217.5171" gradientTransform="matrix(-1 0 0 1 2146.073 0)">
					<stop  offset="0" style="stop-color:#FEBBBA"/>
					<stop  offset="1" style="stop-color:#FF928E"/>
				</linearGradient>
				<path class="st49" d="M2615.5,2546c0,0-25.1,32.5-23.1,45.4c2,12.9,2.5,18.2,2.5,18.2s12.6-8.6,11.8-19.6
					c-1.8,35-13.4,74.7-2.8,72.8c10.6-1.9,65.7-52.7,53.2-106.8C2628.9,2536.3,2621,2538.5,2615.5,2546z"/>
			</g>
		</g>
	</g>
</g>
</svg>
