<?xml version="1.0" encoding="utf-8"?>
<!-- Generator: Adobe Illustrator 23.0.0, SVG Export Plug-In . SVG Version: 6.00 Build 0)  -->
<svg version="1.1" id="Layer_1" xmlns="http://www.w3.org/2000/svg" xmlns:xlink="http://www.w3.org/1999/xlink" x="0px" y="0px"
	 viewBox="0 0 1000 975.6" style="enable-background:new 0 0 1000 975.6;" xml:space="preserve">
<style type="text/css">
	.st0{fill:#C0D6EA;}
	.st1{clip-path:url(#SVGID_2_);}
	.st2{fill:none;}
</style>
<g>
	<g>
		<path class="st0" d="M772.2,878.8H119.4c-58.1,0-105.2-47.1-105.2-105.2V120.7c0-58.1,47.1-105.2,105.2-105.2h652.8
			c58.1,0,105.2,47.1,105.2,105.2v652.8C877.5,831.7,830.3,878.8,772.2,878.8z"/>
		<g>
			<g>
				<defs>
					<path id="SVGID_1_" d="M902.8,962.7H213.7c-48.1,0-87-39-87-87V186.6c0-48.1,39-87,87-87h689.1c48.1,0,87,39,87,87v689.1
						C989.8,923.7,950.8,962.7,902.8,962.7z"/>
				</defs>
				<clipPath id="SVGID_2_">
					<use xlink:href="#SVGID_1_"  style="overflow:visible;"/>
				</clipPath>
				<g class="st1">
					
						<image style="overflow:visible;enable-background:new    ;" width="5464" height="5464" xlink:href="hesitant-asian-woman-spreads-palms-looks-with-clueless-expression-dressed-orange-jacket-uses-smartphone-listens-music-from-playlist-via-wireless-headphones-isolated-blue.jpg"  transform="matrix(0.1699 0 0 0.1699 94.0014 66.868)">
					</image>
				</g>
			</g>
		</g>
	</g>
	<rect x="-0.4" y="0.9" class="st2" width="1000" height="975.6"/>
</g>
</svg>
