<svg id="SvgjsSvg1012" width="288" height="288" xmlns="http://www.w3.org/2000/svg" version="1.1" xmlns:xlink="http://www.w3.org/1999/xlink" xmlns:svgjs="http://svgjs.com/svgjs"><defs id="SvgjsDefs1013"></defs><g id="SvgjsG1014"><svg xmlns="http://www.w3.org/2000/svg" viewBox="0 0 24 24" width="288" height="288"><path fill="#6384ff" d="M12 6a1 1 0 0 0-1 1v4.422l-2.098 1.212a1 1 0 0 0 1 1.732l2.598-1.5A1.005 1.005 0 0 0 13 12V7a1 1 0 0 0-1-1Z" class="color6563ff svgShape"></path><path fill="#b1ccff" d="M12 2a10 10 0 1 0 10 10A10 10 0 0 0 12 2Zm1 10a1.005 1.005 0 0 1-.5.866l-2.598 1.5a1 1 0 0 1-1-1.732L11 11.422V7a1 1 0 0 1 2 0Z" class="colorb2b1ff svgShape"></path></svg></g></svg>