<?xml version="1.0" encoding="utf-8"?>
<!-- Generator: Adobe Illustrator 23.0.0, SVG Export Plug-In . SVG Version: 6.00 Build 0)  -->
<svg version="1.1" xmlns="http://www.w3.org/2000/svg" xmlns:xlink="http://www.w3.org/1999/xlink" x="0px" y="0px"
	 viewBox="0 0 500 500" style="enable-background:new 0 0 500 500;" xml:space="preserve">
<g id="Background_Complete">
	<rect x="416.78" y="398.49" style="fill:#EBEBEB;" width="33.12" height="0.25"/>
	<rect x="322.53" y="401.21" style="fill:#EBEBEB;" width="8.69" height="0.25"/>
	<rect x="396.59" y="389.21" style="fill:#EBEBEB;" width="19.19" height="0.25"/>
	<rect x="52.46" y="390.89" style="fill:#EBEBEB;" width="43.19" height="0.25"/>
	<rect x="104.56" y="390.89" style="fill:#EBEBEB;" width="6.33" height="0.25"/>
	<rect x="131.47" y="395.11" style="fill:#EBEBEB;" width="93.68" height="0.25"/>
	<path style="fill:#EBEBEB;" d="M237.01,337.8H43.92c-3.15,0-5.71-2.56-5.71-5.71V60.66c0-3.15,2.56-5.71,5.71-5.71h193.1
		c3.15,0,5.71,2.56,5.71,5.71v271.43C242.72,335.24,240.16,337.8,237.01,337.8z M43.92,55.2c-3.01,0-5.46,2.45-5.46,5.46v271.43
		c0,3.01,2.45,5.46,5.46,5.46h193.1c3.01,0,5.46-2.45,5.46-5.46V60.66c0-3.01-2.45-5.46-5.46-5.46H43.92z"/>
	<path style="fill:#EBEBEB;" d="M453.31,337.8h-193.1c-3.15,0-5.71-2.56-5.71-5.71V60.66c0-3.15,2.56-5.71,5.71-5.71h193.1
		c3.15,0,5.71,2.56,5.71,5.71v271.43C459.02,335.24,456.46,337.8,453.31,337.8z M260.21,55.2c-3.01,0-5.46,2.45-5.46,5.46v271.43
		c0,3.01,2.45,5.46,5.46,5.46h193.1c3.01,0,5.46-2.45,5.46-5.46V60.66c0-3.01-2.45-5.46-5.46-5.46H260.21z"/>
	<rect y="382.4" style="fill:#EBEBEB;" width="500" height="0.25"/>
	<g>
		<g>
			<g>
				<polygon style="fill:#F0F0F0;" points="447.4,287.7 443.01,383.36 438.07,383.36 438.19,380.02 376.4,380.02 376.53,383.36 
					371.58,383.36 367.4,287.7 				"/>
				<polygon style="fill:#FFFFFF;" points="438.38,374.92 376.21,374.92 373.14,293.49 441.43,293.49 				"/>
				<polygon style="fill:#EBEBEB;" points="438.63,316.99 376.57,316.99 375.89,297.42 439.31,297.42 				"/>
				<polygon style="fill:#EBEBEB;" points="436.44,372.49 378.36,372.49 376.5,319.43 438.3,319.43 				"/>
				<path style="fill:#FFFFFF;" d="M410.3,306.26c0,1.56-1.27,2.83-2.83,2.83c-1.56,0-2.83-1.27-2.83-2.83
					c0-1.56,1.27-2.83,2.83-2.83C409.03,303.43,410.3,304.7,410.3,306.26z"/>
				<path style="fill:#FFFFFF;" d="M383.28,349.23L383.28,349.23c-1.13,0-2.05-0.92-2.05-2.05v-14.13c0-1.13,0.92-2.05,2.05-2.05
					l0,0c1.13,0,2.05,0.92,2.05,2.05v14.13C385.33,348.31,384.42,349.23,383.28,349.23z"/>
			</g>
			<g>
				<g>
					<path style="fill:#F0F0F0;" d="M400.65,278.18c0,3.73,0.59,6.15,1.57,7.7c0.74,1.17,2.07,1.82,3.46,1.82h5.41
						c1.38,0,2.71-0.66,3.46-1.82c0.99-1.55,1.57-3.96,1.57-7.7c0-5.42-2.36-9.75-3.13-13.22c-0.28-1.25,0.65-5.07,0.65-5.07h-10.5
						c0,0,0.92,3.82,0.65,5.07C403.01,268.43,400.65,272.76,400.65,278.18z"/>
				</g>
				<g>
					<g>
						<g>
							<g>
								<path style="fill:#EBEBEB;" d="M411.89,233.75c0,0-1.77,0.44-2.8,1.81c-1.03,1.37,0.75,4.6,0.75,4.6s1.68,1.72,3.77,1.2
									c2.09-0.51,2.09-0.51,2.09-0.51s-2.21-6.34-3.8-6.69L411.89,233.75z"/>
							</g>
						</g>
						<g>
							<g>
								<path style="fill:#EBEBEB;" d="M420.14,235.26c-0.28,2.75-2.6,5.85-5.06,5.61c-2.46-0.25-4.12-3.75-3.84-6.5
									c0.28-2.75,2.28-2.65,4.74-2.4C418.43,232.21,420.41,232.51,420.14,235.26z"/>
							</g>
							<g>
								<path style="fill:#EBEBEB;" d="M413.2,233.12c0,0,1.57,1.82,5.54,1.68C418.74,234.8,411.98,237.68,413.2,233.12z"/>
							</g>
							<g>
								<path style="fill:#EBEBEB;" d="M414.93,232.89c0,0,2.2,0.03,2.07,0.93c0,0,1.83,0.24,1.72-0.56
									C418.61,232.45,414.93,232.89,414.93,232.89z"/>
							</g>
							<g>
								<path style="fill:#E0E0E0;" d="M413.2,233.12c0,0,1.57,1.82,5.54,1.68C418.74,234.8,411.98,237.68,413.2,233.12z"/>
							</g>
							<g>
								<path style="fill:#E0E0E0;" d="M414.93,232.89c0,0,2.2,0.03,2.07,0.93c0,0,1.83,0.24,1.72-0.56
									C418.61,232.45,414.93,232.89,414.93,232.89z"/>
							</g>
						</g>
						<g>
							<path style="fill:#EBEBEB;" d="M410.85,240.96c0.53,1.39,1.98,2.33,3.47,2.43c1.49,0.1,2.97-0.56,4.04-1.6
								c1.07-1.04,1.75-2.44,2.11-3.88c0.1-0.37,0.3-1.32-0.17-1.56c-0.43-0.22-0.84,0.37-1.1,0.62c-0.77,0.74-1.57,1.43-2.48,2
								c-0.88,0.55-1.83,1-2.82,1.34C413.63,240.4,410.95,241.2,410.85,240.96z"/>
						</g>
						<g>
							<path style="fill:#EBEBEB;" d="M422.25,237.51c0.25,1.19-0.17,2.49-1.06,3.31c-0.59,0.54-1.34,0.86-2.08,1.13
								c-0.52,0.19-1.17,0.35-1.57-0.04c-0.43-0.41-0.25-1.13-0.03-1.68c0.34-0.85,0.71-1.7,1.09-2.53c0.32-0.68,0.66-1.87,1.19-2.4
								c0.5-0.5,1-0.05,1.52,0.48C421.78,236.25,422.12,236.86,422.25,237.51z"/>
						</g>
						<g>
							<path style="fill:#E0E0E0;" d="M411.75,239.57c-0.93-0.22-1.69-1.02-1.87-1.95c-0.13-0.69,0.18-2.33,1.06-2.38
								C411.04,236.77,411.11,238.14,411.75,239.57z"/>
						</g>
						<g>
							<path style="fill:#E0E0E0;" d="M418.43,240.05c0.93-0.09,1.8-0.67,2.23-1.49c0.24-0.46,0.52-2.97-0.41-2.07
								c-0.3,0.29-0.47,1.39-0.67,1.81C419.26,238.93,418.88,239.52,418.43,240.05z"/>
						</g>
						<g>
							<path style="fill:#E0E0E0;" d="M414.76,240.94c0.57,0.71,1.66,0.94,2.47,0.53c-0.18,0.46-1.77,0.58-2.26,0.63
								c-1.29,0.13-1.82-0.53-2.91-1.25C412.06,240.86,413.88,241.5,414.76,240.94z"/>
						</g>
					</g>
					<g>
						<g>
							<polygon style="fill:#E6E6E6;" points="406.93,284.73 409.96,254.12 413.98,243.26 414.67,243.52 410.68,254.33 
								407.51,285.56 							"/>
						</g>
					</g>
					<g>
						<g>
							<path style="fill:#E6E6E6;" d="M410.65,254.06l-0.66,0.33c-0.44-0.86-0.77-1.95-1.16-3.2c-0.6-1.94-1.28-4.14-2.55-6.21
								l0.63-0.39c1.32,2.15,2.02,4.4,2.63,6.38C409.92,252.19,410.24,253.25,410.65,254.06z"/>
						</g>
						<g>
							<path style="fill:#F0F0F0;" d="M412.28,250.04c1.03-0.07,2.03-0.53,2.75-1.27c0.82-0.83,1.27-1.96,1.69-3.06
								c-1.35,0.14-2.6-0.74-3.95-0.84c-1.08-0.08-2.18,0.38-2.88,1.19c-0.91,1.06-1.45,2.35-0.94,3.01
								C409.38,249.63,410.9,250.14,412.28,250.04z"/>
						</g>
						<g>
							<g>
								<path style="fill:#F0F0F0;" d="M401.45,246.73c0.99-0.83,3.12-1.16,4.33-0.7c1.21,0.46,2.11,1.53,2.36,2.63
									c-0.48,0.73-1.45,1.01-2.32,0.91c-0.87-0.1-1.67-0.51-2.44-0.92c-0.77-0.41-1.57-0.82-2.44-0.92L401.45,246.73z"/>
							</g>
						</g>
						<g>
							<g>
								<path style="fill:#F0F0F0;" d="M408.13,247.31c-1.76,0.2-3.33,0.55-4.93-1.45c-1.07-1.34-0.73-3.36-0.65-4.96
									c1.52,0.33,4.98,2.02,5.75,2.43c0.77,0.41,1.42,1.08,1.55,1.88c0.13,0.79-0.41,1.67-1.28,1.82
									C408.54,246.97,408.13,247.31,408.13,247.31z"/>
							</g>
						</g>
					</g>
				</g>
				<path style="fill:#FFFFFF;" d="M403.1,271.12c-0.71,1.99-1.37,4.16-1.15,6.28c0.04,0.4,0.17,0.86,0.46,0.93
					c0.27,0.07,0.54-0.27,0.63-0.63c0.1-0.37,0.07-0.76,0.07-1.14c-0.01-3.28,1.78-6.05,2.12-9.25c0.1-0.91-0.14-3.78-0.67-1.67
					C404.09,267.52,403.75,269.28,403.1,271.12z"/>
			</g>
		</g>
		<g>
			<g>
				<rect x="170.68" y="119.21" style="fill:#E0E0E0;" width="78.78" height="127.71"/>
				<rect x="173.57" y="119.21" style="fill:#F0F0F0;" width="78.78" height="127.71"/>
				<rect x="177.41" y="124.4" style="fill:#FFFFFF;" width="70.96" height="62.33"/>
				<rect x="245.88" y="124.41" style="fill:#E0E0E0;" width="2.5" height="115.04"/>
				
					<rect x="210.28" y="153.65" transform="matrix(6.123234e-17 -1 1 6.123234e-17 23.5427 399.789)" style="fill:#E0E0E0;" width="2.78" height="68.96"/>
				<rect x="176.07" y="182.07" style="fill:#F0F0F0;" width="72.3" height="4.67"/>
			</g>
			<g>
				<rect x="246.34" y="119.21" style="fill:#E0E0E0;" width="78.78" height="127.71"/>
				<rect x="249.24" y="119.21" style="fill:#F0F0F0;" width="78.78" height="127.71"/>
				<rect x="253.08" y="124.4" style="fill:#FFFFFF;" width="70.96" height="62.33"/>
				<rect x="321.54" y="124.41" style="fill:#E0E0E0;" width="2.5" height="115.04"/>
				
					<rect x="285.94" y="153.65" transform="matrix(6.123234e-17 -1 1 6.123234e-17 99.2095 475.4558)" style="fill:#E0E0E0;" width="2.78" height="68.96"/>
				<rect x="251.74" y="182.07" style="fill:#F0F0F0;" width="72.3" height="4.67"/>
			</g>
		</g>
		<g>
			<path style="fill:#EBEBEB;" d="M82.36,340.86c0,0,2.91-32.21-9.89-47.92c-12.8-15.71,9.99-1.41,14.03,14.26
				c0,0,0.76-28.97-12.02-47.75s9-4.72,12.79,15.75c0,0,0.72-25.85-5.66-39.56c-6.38-13.71,3.14-5.55,7.34,3.02
				c4.21,8.57,2.11,31.3,2.11,31.3s4.47-42.1,12.96-39.82c8.49,2.28-9.15,31.64-10.56,45.98c0,0,7.72-20,15.41-16.96
				c7.69,3.04-10.71,7.24-16.39,36.35l-1.66,13.53c0,0,6.98-19.66,13.36-14.49c6.38,5.16-15.55,18.06-18.04,46.87L82.36,340.86z"/>
			<path style="fill:#F0F0F0;" d="M83.74,342.53c0,0-2.73-39.83,13.49-58.81c16.21-18.97-12.29-2.06-17.69,17.14
				c0,0-0.16-35.77,16.11-58.53c16.26-22.76-10.98-6.12-16.21,19.03c0,0-0.2-31.92,8.04-48.63c8.24-16.71-3.72-6.95-9.14,3.49
				c-5.42,10.44-3.45,38.55-3.45,38.55s-4.39-52.09-14.93-49.55c-10.53,2.54,10.44,39.34,11.8,57.07c0,0-8.99-24.92-18.56-21.42
				c-9.57,3.5,13.02,9.27,19.25,45.38l1.69,16.75c0,0-8.08-24.48-16.09-18.31c-8.01,6.17,18.7,22.78,21,58.41L83.74,342.53z"/>
			<path style="fill:#EBEBEB;" d="M108.94,362.39c0,10.93-11.85,19.8-26.47,19.8c-14.63,0-26.48-8.87-26.48-19.8
				c0-4.93,2.4-9.42,6.38-12.88l-3.13-13.25h46.45l-3.13,13.25C106.54,352.97,108.94,357.46,108.94,362.39z"/>
		</g>
	</g>
</g>
<g id="Background_Simple" style="display:none;">
	<g style="display:inline;">
		<g>
			<path style="fill:#407BFF;" d="M86.28,338.8c-9.44-35.96-2.97-75.79,17.38-106.91c5.24-8.01,11.53-15.63,19.81-20.43
				c8.28-4.81,18.85-6.43,27.51-2.35c9.85,4.64,15.15,15.18,20.92,24.41c5.77,9.23,14.36,18.62,25.24,18.2
				c6.48-0.25,12.24-4.01,17.47-7.84c53.57-39.25,91.75-100.07,152.76-126.31c13.51-5.81,29.39-9.62,42.6-3.17
				c14.48,7.07,21.07,24.29,22.56,40.34c2.33,24.97-4.53,50.21-16.3,72.36c-11.77,22.15-28.25,41.45-45.98,59.19
				c-45.9,45.95-102.97,83.36-167.02,94.12c-21.44,3.6-43.75,4.13-64.68-1.76s-40.44-18.67-51.58-37.34
				C87.04,342.9,86.28,338.8,86.28,338.8z"/>
		</g>
		<g style="opacity:0.9;">
			<path style="fill:#FFFFFF;" d="M86.28,338.8c-9.44-35.96-2.97-75.79,17.38-106.91c5.24-8.01,11.53-15.63,19.81-20.43
				c8.28-4.81,18.85-6.43,27.51-2.35c9.85,4.64,15.15,15.18,20.92,24.41c5.77,9.23,14.36,18.62,25.24,18.2
				c6.48-0.25,12.24-4.01,17.47-7.84c53.57-39.25,91.75-100.07,152.76-126.31c13.51-5.81,29.39-9.62,42.6-3.17
				c14.48,7.07,21.07,24.29,22.56,40.34c2.33,24.97-4.53,50.21-16.3,72.36c-11.77,22.15-28.25,41.45-45.98,59.19
				c-45.9,45.95-102.97,83.36-167.02,94.12c-21.44,3.6-43.75,4.13-64.68-1.76s-40.44-18.67-51.58-37.34
				C87.04,342.9,86.28,338.8,86.28,338.8z"/>
		</g>
	</g>
</g>
<g id="Shadow">
	<ellipse id="_x3C_Path_x3E__359_" style="fill:#F5F5F5;" cx="250" cy="415.69" rx="193.89" ry="11.32"/>
</g>
<g id="Plants">
	<g>
		<g>
			<g>
				<path style="fill:#407BFF;" d="M136.93,330.42c0,0,8.96,14.9,13.25,34.2c9.23,41.51,9.23,49.92,9.23,49.92l7.71,0.25
					c0,0-15.25-75.65-27.63-86.82C127.11,316.79,136.93,330.42,136.93,330.42z"/>
				<path style="opacity:0.4;" d="M136.93,330.42c0,0,8.96,14.9,13.25,34.2c9.23,41.51,9.23,49.92,9.23,49.92l7.71,0.25
					c0,0-15.25-75.65-27.63-86.82C127.11,316.79,136.93,330.42,136.93,330.42z"/>
				<g>
					<path style="fill:#407BFF;" d="M134.06,321.72c2.79-2.2,3.25-1.86,6.19-2.71c-2.4-1.81-4.84-4.76-10.2-5.51
						c-4.88-0.4-8.76,2.61-10.44,6.75c-0.12,0.31-0.38,0.56-0.71,0.67c-0.01,0-0.01,0-0.02,0.01c-0.79,0.27-1.65-0.24-1.67-1
						c-0.1-3.33,1.78-6.69,4.88-8.5c-4.05-0.83-9.02-1.32-12.82,0.19c-4.16,1.65-7.78,8.83-6.92,13.1c0.07,0.37-0.14,0.74-0.52,0.88
						c-0.01,0-0.02,0.01-0.02,0.01c-0.47,0.17-1-0.05-1.16-0.49c-0.38-1.08-1.21-2.99-0.95-5.3c0.23-2.05,1.09-4.15,3.11-5.09
						c-4.72-1.71-13.79,4.66-13.28,4.8c-1.3,3.28-0.11,7.52,0.59,9.49c0.25,0.7-0.09,1.46-0.8,1.81c-0.01,0.01-0.02,0.01-0.03,0.02
						c-0.91,0.45-2.05,0.07-2.41-0.81c-0.81-1.98-1.91-5.2-1.48-7.22c-2.04,0.16-3.42,2.38-4.43,4c-3.21,5.14-1.39,11.08-0.47,16.6
						c2.78,2.88,6.82,6.3,12.91,8.06c3.7,1.07,7.73,0.71,11.22-0.84l0.09-0.04c-2.66-2.24-5.54-4.83-8.24-7.14
						c-0.52-0.44-0.58-1.17-0.14-1.68c0.01-0.01,0.01-0.01,0.02-0.02c0.46-0.53,1.31-0.63,1.91-0.22c3.82,2.63,6.46,5.18,10.43,7.82
						c3.48-0.62,11.49-5.42,10.72-5.59c-3.49-2.13-9.86-5.01-12.39-8.19c-0.38-0.47-0.23-1.13,0.31-1.45l0,0
						c0.41-0.24,0.94-0.2,1.31,0.09c4.29,3.31,8.52,5.88,13.82,7.74c4.94-1.92,8.61-3.47,10.57-5.82
						c-2.79-1.84-7.04-4.62-10.28-6.75c-1.02-0.67-0.14-2.15,1.02-1.71c0.02,0.01,0.04,0.01,0.06,0.02
						c4.75,1.89,9.02,6.12,14.07,5.71c0,0,7.4-1.63,7.38-4.89C140.22,328.43,132.81,322.7,134.06,321.72z"/>
					<path style="opacity:0.2;fill:#FFFFFF;" d="M134.06,321.72c2.79-2.2,3.25-1.86,6.19-2.71c-2.4-1.81-4.84-4.76-10.2-5.51
						c-4.88-0.4-8.76,2.61-10.44,6.75c-0.12,0.31-0.38,0.56-0.71,0.67c-0.01,0-0.01,0-0.02,0.01c-0.79,0.27-1.65-0.24-1.67-1
						c-0.1-3.33,1.78-6.69,4.88-8.5c-4.05-0.83-9.02-1.32-12.82,0.19c-4.16,1.65-7.78,8.83-6.92,13.1c0.07,0.37-0.14,0.74-0.52,0.88
						c-0.01,0-0.02,0.01-0.02,0.01c-0.47,0.17-1-0.05-1.16-0.49c-0.38-1.08-1.21-2.99-0.95-5.3c0.23-2.05,1.09-4.15,3.11-5.09
						c-4.72-1.71-13.79,4.66-13.28,4.8c-1.3,3.28-0.11,7.52,0.59,9.49c0.25,0.7-0.09,1.46-0.8,1.81c-0.01,0.01-0.02,0.01-0.03,0.02
						c-0.91,0.45-2.05,0.07-2.41-0.81c-0.81-1.98-1.91-5.2-1.48-7.22c-2.04,0.16-3.42,2.38-4.43,4c-3.21,5.14-1.39,11.08-0.47,16.6
						c2.78,2.88,6.82,6.3,12.91,8.06c3.7,1.07,7.73,0.71,11.22-0.84l0.09-0.04c-2.66-2.24-5.54-4.83-8.24-7.14
						c-0.52-0.44-0.58-1.17-0.14-1.68c0.01-0.01,0.01-0.01,0.02-0.02c0.46-0.53,1.31-0.63,1.91-0.22c3.82,2.63,6.46,5.18,10.43,7.82
						c3.48-0.62,11.49-5.42,10.72-5.59c-3.49-2.13-9.86-5.01-12.39-8.19c-0.38-0.47-0.23-1.13,0.31-1.45l0,0
						c0.41-0.24,0.94-0.2,1.31,0.09c4.29,3.31,8.52,5.88,13.82,7.74c4.94-1.92,8.61-3.47,10.57-5.82
						c-2.79-1.84-7.04-4.62-10.28-6.75c-1.02-0.67-0.14-2.15,1.02-1.71c0.02,0.01,0.04,0.01,0.06,0.02
						c4.75,1.89,9.02,6.12,14.07,5.71c0,0,7.4-1.63,7.38-4.89C140.22,328.43,132.81,322.7,134.06,321.72z"/>
				</g>
			</g>
		</g>
		<g>
			<g>
				<path style="fill:#407BFF;" d="M182.53,414.84h-17.9c-3.98-5.87-7.77-13.5-8.69-22.16c-2.15-20.02,11.71-37.92,11.71-37.92
					s12.45,10.43,17.56,25.77c0.92,2.78,1.62,5.72,1.94,8.78C188.19,398.88,185.56,407.96,182.53,414.84z"/>
				<path style="opacity:0.3;enable-background:new    ;" d="M182.53,414.84h-17.9c-3.98-5.87-7.77-13.5-8.69-22.16
					c-2.15-20.02,11.71-37.92,11.71-37.92s12.45,10.43,17.56,25.77c0.92,2.78,1.62,5.72,1.94,8.78
					C188.19,398.88,185.56,407.96,182.53,414.84z"/>
			</g>
			<g>
				<g>
					<g>
						<g>
							<path style="fill:#407BFF;" d="M205.12,403.93c-2.55,4.38-5.88,7.98-9.4,10.91h-22.29c-0.27-7.54,0.64-17.72,5.79-26.55
								c1.7-2.92,3.74-5.49,5.99-7.76c10.32-10.56,24.38-14.32,24.38-14.32S214.75,387.42,205.12,403.93z"/>
						</g>
					</g>
				</g>
				<g style="opacity:0.4;">
					<g>
						<path style="fill:#FFFFFF;" d="M205.12,403.93c-2.55,4.38-5.88,7.98-9.4,10.91h-22.29c-0.27-7.54,0.64-17.72,5.79-26.55
							c1.7-2.92,3.74-5.49,5.99-7.76c10.32-10.56,24.38-14.32,24.38-14.32S214.75,387.42,205.12,403.93z"/>
					</g>
				</g>
			</g>
		</g>
		<g>
			<path style="fill:#407BFF;" d="M90.79,393.25c-2.79,3.97-3.49,3.64-6.95,5.76c3.69,1.79,7.82,5.16,14.92,4.51
				c6.35-0.98,10.26-6.44,10.95-12.79c0.05-0.47,0.29-0.9,0.68-1.17c0.01-0.01,0.02-0.01,0.02-0.02c0.91-0.62,2.18-0.18,2.47,0.88
				c1.28,4.64,0.06,9.96-3.25,13.48c5.45-0.11,11.96-0.99,16.28-4.31c4.73-3.64,6.84-14.87,4.26-20.59c-0.22-0.5-0.08-1.08,0.36-1.4
				c0.01-0.01,0.02-0.01,0.03-0.02c0.54-0.39,1.3-0.25,1.65,0.32c0.86,1.39,2.58,3.82,3.05,7.14c0.42,2.95,0.06,6.18-2.19,8.13
				c6.62,0.9,15.95-10.9,15.25-10.95c0.51-5.01-2.48-10.6-4.06-13.14c-0.56-0.9-0.39-2.07,0.39-2.8c0.01-0.01,0.02-0.02,0.04-0.03
				c1-0.93,2.59-0.75,3.36,0.38c1.72,2.53,4.25,6.71,4.4,9.68c2.54-0.86,3.53-4.43,4.25-7.01c2.3-8.24-2.1-16.01-5.18-23.47
				c-4.54-3.17-10.89-6.69-19.26-7.25c-5.09-0.34-10.1,1.44-14,4.73l-0.1,0.08c4.18,2.31,8.74,5.03,12.99,7.42
				c0.81,0.46,1.14,1.46,0.76,2.31c0,0.01-0.01,0.02-0.01,0.03c-0.4,0.89-1.45,1.3-2.35,0.91c-5.79-2.49-10.04-5.23-16.01-7.7
				c-4.21,1.97-12.76,11.24-11.71,11.24c5.19,1.89,14.31,3.92,18.64,7.59c0.64,0.54,0.69,1.52,0.11,2.13l0,0
				c-0.44,0.46-1.13,0.57-1.7,0.29c-6.62-3.29-12.91-5.57-20.32-6.51c-5.63,4.26-9.77,7.6-11.44,11.52
				c4.2,1.7,10.58,4.27,15.45,6.23c1.54,0.62,0.93,2.98-0.71,2.72c-0.03,0-0.05-0.01-0.08-0.01c-6.71-1.16-13.63-5.74-19.92-3.58
				c0,0-8.86,4.62-7.7,9.2C80.59,385.77,92.03,391.48,90.79,393.25z"/>
			<path style="fill:#407BFF;" d="M143.56,347.52c0,0,15.04,21.93,19.09,42.63c4.06,20.71,4.64,24.71,4.64,24.71l9.13,0.08
				c0,0-16.41-58.05-30.28-70.45C132.26,332.1,143.56,347.52,143.56,347.52z"/>
			<path style="opacity:0.1;" d="M143.56,347.52c0,0,15.04,21.93,19.09,42.63c4.06,20.71,4.64,24.71,4.64,24.71l9.13,0.08
				c0,0-16.41-58.05-30.28-70.45C132.26,332.1,143.56,347.52,143.56,347.52z"/>
			<path style="opacity:0.6;fill:#FFFFFF;" d="M90.79,393.25c-2.79,3.97-3.49,3.64-6.95,5.76c3.69,1.79,7.82,5.16,14.92,4.51
				c6.35-0.98,10.26-6.44,10.95-12.79c0.05-0.47,0.29-0.9,0.68-1.17c0.01-0.01,0.02-0.01,0.02-0.02c0.91-0.62,2.18-0.18,2.47,0.88
				c1.28,4.64,0.06,9.96-3.25,13.48c5.45-0.11,11.96-0.99,16.28-4.31c4.73-3.64,6.84-14.87,4.26-20.59c-0.22-0.5-0.08-1.08,0.36-1.4
				c0.01-0.01,0.02-0.01,0.03-0.02c0.54-0.39,1.3-0.25,1.65,0.32c0.86,1.39,2.58,3.82,3.05,7.14c0.42,2.95,0.06,6.18-2.19,8.13
				c6.62,0.9,15.95-10.9,15.25-10.95c0.51-5.01-2.48-10.6-4.06-13.14c-0.56-0.9-0.39-2.07,0.39-2.8c0.01-0.01,0.02-0.02,0.04-0.03
				c1-0.93,2.59-0.75,3.36,0.38c1.72,2.53,4.25,6.71,4.4,9.68c2.54-0.86,3.53-4.43,4.25-7.01c2.3-8.24-2.1-16.01-5.18-23.47
				c-4.54-3.17-10.89-6.69-19.26-7.25c-5.09-0.34-10.1,1.44-14,4.73l-0.1,0.08c4.18,2.31,8.74,5.03,12.99,7.42
				c0.81,0.46,1.14,1.46,0.76,2.31c0,0.01-0.01,0.02-0.01,0.03c-0.4,0.89-1.45,1.3-2.35,0.91c-5.79-2.49-10.04-5.23-16.01-7.7
				c-4.21,1.97-12.76,11.24-11.71,11.24c5.19,1.89,14.31,3.92,18.64,7.59c0.64,0.54,0.69,1.52,0.11,2.13l0,0
				c-0.44,0.46-1.13,0.57-1.7,0.29c-6.62-3.29-12.91-5.57-20.32-6.51c-5.63,4.26-9.77,7.6-11.44,11.52
				c4.2,1.7,10.58,4.27,15.45,6.23c1.54,0.62,0.93,2.98-0.71,2.72c-0.03,0-0.05-0.01-0.08-0.01c-6.71-1.16-13.63-5.74-19.92-3.58
				c0,0-8.86,4.62-7.7,9.2C80.59,385.77,92.03,391.48,90.79,393.25z"/>
		</g>
		<g>
			<g>
				<g>
					<path style="fill:#407BFF;" d="M339.95,367.82c0.06,0.2-1.07,0.84,1.93,1.71c7.39,2.14,20.72,4.86,27.35-0.71
						c9.45-7.96-7.09-11.07-4.2-16.03c2.9-4.96,19.37,3.7,24.67-3.09c5.29-6.79-7.83-8.43-6.28-12.21
						c1.55-3.78,13.7,4.58,20.09-2.43c6.39-7.02-6.36-5.55-3.64-8.44c2.72-2.89,20.98-13.22,15.73-17.81
						c-5.25-4.58-22.77,6.58-27.76,7.01c-4.98,0.43-2.55-14.13-9.77-10.82c-7.22,3.3-8.53,25.86-16.24,26.81
						c-5.74,0.71-0.98-6.32-7.54-7.61C345.38,322.45,335.08,352.01,339.95,367.82z"/>
				</g>
				<g style="opacity:0.3;">
					<path style="fill:#FFFFFF;" d="M339.95,367.82c0.06,0.2-1.07,0.84,1.93,1.71c7.39,2.14,20.72,4.86,27.35-0.71
						c9.45-7.96-7.09-11.07-4.2-16.03c2.9-4.96,19.37,3.7,24.67-3.09c5.29-6.79-7.83-8.43-6.28-12.21
						c1.55-3.78,13.7,4.58,20.09-2.43c6.39-7.02-6.36-5.55-3.64-8.44c2.72-2.89,20.98-13.22,15.73-17.81
						c-5.25-4.58-22.77,6.58-27.76,7.01c-4.98,0.43-2.55-14.13-9.77-10.82c-7.22,3.3-8.53,25.86-16.24,26.81
						c-5.74,0.71-0.98-6.32-7.54-7.61C345.38,322.45,335.08,352.01,339.95,367.82z"/>
				</g>
			</g>
			<g>
				<g>
					<g>
						<g>
							<g>
								<g>
									<g>
										<g>
											<g>
												<g>
													<g>
														<path style="fill:#407BFF;" d="M327.88,392.88c-0.01,0-0.03-0.01-0.04-0.01c-0.26-0.1-0.39-0.39-0.29-0.64
															c18.41-48.67,52.3-61.99,52.64-62.12c0.26-0.1,0.55,0.03,0.64,0.29s-0.03,0.55-0.29,0.64
															c-0.34,0.13-33.82,13.31-52.06,61.53C328.4,392.82,328.13,392.95,327.88,392.88z"/>
													</g>
													<g>
														<path style="fill:#407BFF;" d="M371.91,335.47c-0.2-0.06-0.34-0.23-0.36-0.44c-0.02-0.28,0.19-0.52,0.46-0.54
															c0.19-0.01,4.83-0.32,11.52,2.9c0.25,0.12,0.35,0.42,0.23,0.67c-0.12,0.25-0.42,0.35-0.67,0.23
															c-6.42-3.1-10.96-2.81-11.01-2.8C372.03,335.49,371.97,335.49,371.91,335.47z"/>
													</g>
													<g>
														<path style="fill:#407BFF;" d="M365.08,340.26c-0.25-0.07-0.41-0.33-0.35-0.59c3.56-15.21,15.25-24.91,15.37-25.01
															c0.21-0.17,0.53-0.14,0.7,0.07c0.18,0.21,0.14,0.53-0.07,0.7c-0.12,0.09-11.54,9.6-15.03,24.46
															c-0.06,0.27-0.33,0.44-0.6,0.37C365.1,340.26,365.09,340.26,365.08,340.26z"/>
													</g>
													<g>
														<path style="fill:#407BFF;" d="M353.33,350.99c-0.12-0.03-0.23-0.11-0.3-0.23c-0.14-0.24-0.05-0.54,0.19-0.68
															c0.08-0.04,8.05-4.47,15.82,0.67c0.23,0.15,0.29,0.46,0.14,0.69c-0.15,0.23-0.46,0.29-0.69,0.14
															c-7.26-4.8-14.7-0.68-14.78-0.63C353.59,351.02,353.46,351.03,353.33,350.99z"/>
													</g>
													<g>
														<path style="fill:#407BFF;" d="M346.64,358.85c-0.18-0.05-0.32-0.2-0.35-0.4c-0.06-0.35-1.38-8.76,3.04-19.2
															c0.11-0.25,0.39-0.38,0.66-0.27c0.25,0.11,0.37,0.4,0.27,0.65c-4.3,10.16-2.99,18.56-2.97,18.65
															c0.04,0.27-0.14,0.53-0.41,0.57C346.78,358.87,346.71,358.87,346.64,358.85z"/>
													</g>
												</g>
											</g>
										</g>
									</g>
								</g>
							</g>
							<g>
								<g>
									<g>
										<path style="fill:#407BFF;" d="M323.69,410.85c-0.25-0.07-0.4-0.33-0.35-0.58l2.62-13.44
											c8.96-44.64-13.99-82.11-14.23-82.48c-0.15-0.23-0.08-0.54,0.16-0.69c0.24-0.15,0.54-0.07,0.69,0.16
											c0.23,0.38,23.4,38.17,14.36,83.21l-2.62,13.45c-0.06,0.27-0.32,0.44-0.59,0.39C323.72,410.86,323.7,410.85,323.69,410.85
											z"/>
									</g>
									<g>
										<path style="fill:#407BFF;" d="M320.17,334c-0.03-0.01-0.05-0.02-0.08-0.03c-0.04-0.02-0.09-0.05-0.13-0.09l-0.14-0.1
											c-3.56-2.62-7.79-4.56-11.89-5.47c-0.28-0.05-0.44-0.33-0.38-0.6c0.06-0.27,0.33-0.44,0.6-0.38
											c4.24,0.94,8.59,2.94,12.27,5.64l0.15,0.11c0.03,0.02,0.05,0.04,0.07,0.06c0.17,0.14,0.22,0.39,0.12,0.6
											C320.66,333.96,320.41,334.07,320.17,334z"/>
									</g>
									<g>
										<path style="fill:#407BFF;" d="M323.07,340.74c-0.01,0-0.02,0-0.02-0.01c-0.26-0.09-0.4-0.37-0.31-0.63
											c4.37-12.75,0.24-25.14,0.2-25.26c-0.09-0.26,0.05-0.55,0.31-0.63c0.26-0.09,0.55,0.05,0.63,0.31
											c0.04,0.13,4.28,12.82-0.2,25.91C323.59,340.68,323.32,340.82,323.07,340.74z"/>
									</g>
									<g>
										<path style="fill:#407BFF;" d="M325.64,349.38c-0.12-0.03-0.22-0.11-0.29-0.22c-0.04-0.06-3.77-6.12-11.44-5.97
											c-0.28,0.01-0.5-0.21-0.51-0.49c-0.01-0.28,0.21-0.5,0.49-0.51c8.27-0.17,12.16,6.18,12.32,6.45
											c0.14,0.24,0.06,0.54-0.17,0.68C325.91,349.4,325.77,349.42,325.64,349.38z"/>
									</g>
									<g>
										<path style="fill:#407BFF;" d="M328.21,363.2c-0.07-0.02-0.13-0.05-0.19-0.11c-0.21-0.18-0.23-0.5-0.04-0.71
											c0.05-0.06,4.98-5.76,6.52-15.35c0.04-0.27,0.3-0.46,0.57-0.41c0.28,0.03,0.46,0.3,0.41,0.57
											c-1.59,9.89-6.55,15.61-6.76,15.85C328.59,363.2,328.39,363.26,328.21,363.2z"/>
									</g>
								</g>
								<g>
									<path style="fill:#407BFF;" d="M329.22,373.46c-6.18-1.37-15.3-9.62-18.08-16.17c-2.82-6.65,8.1-0.31,7.96-5.02
										c-0.14-4.72-15.44-4.95-16.58-11.94c-1.15-6.99,8.97-3,9.34-6.34c0.37-3.34-10.64-5.3-12.49-12.88
										c-1.85-7.58,6.77-1.5,5.95-4.65c-0.82-3.15-9.94-17.8-4.34-19.04c5.6-1.24,13.84,13.71,17.27,15.98
										c3.42,2.27,6.35-5.97,10.25-0.74c3.91,5.23-4.02,22.02,1.17,25.74c3.86,2.77,4-5.76,8.44-2.53
										C345.88,341.53,331.72,374.01,329.22,373.46z"/>
									<g style="opacity:0.2;">
										<path style="fill:#FFFFFF;" d="M329.22,373.46c-6.18-1.37-15.3-9.62-18.08-16.17c-2.82-6.65,8.1-0.31,7.96-5.02
											c-0.14-4.72-15.44-4.95-16.58-11.94c-1.15-6.99,8.97-3,9.34-6.34c0.37-3.34-10.64-5.3-12.49-12.88
											c-1.85-7.58,6.77-1.5,5.95-4.65c-0.82-3.15-9.94-17.8-4.34-19.04c5.6-1.24,13.84,13.71,17.27,15.98
											c3.42,2.27,6.35-5.97,10.25-0.74c3.91,5.23-4.02,22.02,1.17,25.74c3.86,2.77,4-5.76,8.44-2.53
											C345.88,341.53,331.72,374.01,329.22,373.46z"/>
									</g>
								</g>
							</g>
						</g>
					</g>
					<g>
						<g>
							<g>
								<g>
									<g>
										<path style="fill:#407BFF;" d="M327.35,393.97c-0.02-0.01-0.04-0.01-0.06-0.02c-0.25-0.11-0.37-0.4-0.26-0.66
											c0.03-0.08,0.37-1,0.91-2.6c0.82-2.39,2.49-7.4,4.37-14.21c0.04-0.12,0.06-0.2,0.08-0.29c2.1-7.61,3.84-15.19,5.2-22.54
											c1.27-6.86,2.19-13.6,2.76-20.04c0.5-5.84,0.7-11.45,0.6-16.67c0-0.01,0-0.03,0-0.05l0,0c-0.02-0.82-0.04-1.64-0.07-2.47
											c-0.03-0.67-0.06-1.34-0.1-2.02c-0.1-1.75-0.16-3.42-0.19-4.96c-0.08-3.39-0.04-6.75,0.11-9.97
											c0.08-1.94,0.21-3.83,0.37-5.63c0.61-7.03,1.76-13.83,3.44-20.23c0.68-2.61,1.47-5.18,2.33-7.65
											c0.94-2.69,1.99-5.25,3.11-7.61c0.09-0.18,0.16-0.34,0.24-0.5l0.11-0.23c0.04-0.12,0.11-0.22,0.23-0.28
											c0.24-0.14,0.54-0.06,0.68,0.18c0.09,0.16,0.08,0.36,0,0.52l0,0l-0.12,0.24c-0.08,0.17-0.16,0.34-0.24,0.51
											c-1.1,2.32-2.13,4.85-3.06,7.5c-0.85,2.44-1.63,4.99-2.3,7.57c-1.66,6.34-2.81,13.09-3.41,20.06
											c-0.16,1.78-0.28,3.66-0.36,5.58c-0.15,3.2-0.18,6.53-0.11,9.91c0.03,1.53,0.09,3.19,0.19,4.93
											c0.04,0.68,0.07,1.36,0.1,2.04c0.03,0.83,0.06,1.65,0.07,2.47c0,0.02,0,0.03,0,0.05l0,0c0.1,5.26-0.1,10.91-0.6,16.79
											c-0.57,6.48-1.5,13.25-2.77,20.14c-1.36,7.38-3.11,14.99-5.21,22.61c-0.03,0.11-0.05,0.22-0.1,0.34
											c-1.88,6.8-3.55,11.84-4.38,14.23c-0.55,1.63-0.9,2.59-0.94,2.67C327.84,393.92,327.59,394.04,327.35,393.97z"/>
									</g>
								</g>
								<g>
									<g>
										<g>
											<path style="fill:#407BFF;" d="M350.69,255.92c0.02-0.02,0.02-0.02,0.03-0.02c0.02-0.02,0.02-0.02,0.03-0.02
												c1.03-0.55,2.12-0.96,3.24-1.26c1.22-0.31,2.49-0.48,3.76-0.47"/>
											<path style="fill:#407BFF;" d="M350.55,256.4c-0.06-0.02-0.12-0.05-0.18-0.09c-0.21-0.18-0.24-0.49-0.07-0.7
												c0.04-0.05,0.09-0.09,0.14-0.12c0.02-0.01,0.04-0.02,0.06-0.03l0,0c1.04-0.55,2.16-0.99,3.34-1.3
												c1.32-0.33,2.63-0.49,3.89-0.48c0.27,0,0.5,0.23,0.5,0.5c0,0.28-0.23,0.5-0.5,0.5c-1.18-0.01-2.4,0.14-3.63,0.45
												c-1.1,0.29-2.15,0.7-3.12,1.22c0,0-0.01,0-0.01,0.01C350.84,256.42,350.69,256.44,350.55,256.4z"/>
										</g>
									</g>
								</g>
								<g>
									<g>
										<path style="fill:#407BFF;" d="M347.16,264.61c-0.11-0.03-0.21-0.1-0.27-0.2l-2.46-3.62c-0.16-0.23-0.1-0.54,0.13-0.69
											c0.23-0.15,0.54-0.1,0.69,0.13l2.46,3.62c0.16,0.23,0.1,0.54-0.13,0.69C347.45,264.63,347.3,264.65,347.16,264.61z"/>
									</g>
								</g>
								<g>
									<g>
										<path style="fill:#407BFF;" d="M340.93,307.96c-0.26-0.07-0.4-0.38-0.34-0.64l0-0.01c0.41-0.92,0.88-1.71,1.41-2.43
											c0.76-1.07,1.69-2.02,2.75-2.83c0.77-0.59,1.63-1.11,2.54-1.53c0.25-0.12,0.55-0.01,0.66,0.24
											c0.12,0.25,0.01,0.55-0.24,0.66c-0.85,0.39-1.64,0.87-2.35,1.42c-0.98,0.75-1.84,1.63-2.55,2.63
											c-0.5,0.67-0.93,1.4-1.28,2.17c-0.07,0.27-0.32,0.39-0.59,0.33C340.94,307.96,340.94,307.96,340.93,307.96z"/>
									</g>
								</g>
								<g>
									<g>
										<path style="fill:#407BFF;" d="M341.31,317.39c-0.18-0.05-0.33-0.21-0.36-0.41c-0.32-2.28-1.64-4.41-3.54-5.71
											c-0.23-0.16-0.29-0.47-0.13-0.7c0.16-0.23,0.47-0.29,0.69-0.13c2.13,1.45,3.61,3.85,3.97,6.4
											c0.04,0.27-0.15,0.53-0.43,0.56C341.45,317.42,341.38,317.41,341.31,317.39z"/>
									</g>
								</g>
								<g>
									<g>
										<path style="fill:#407BFF;" d="M336.29,362.26c-0.75-1.53-0.37-6.56-0.17-9.26c0.05-0.65,0.09-1.2,0.11-1.6"/>
										<path style="fill:#407BFF;" d="M336.15,362.74c-0.13-0.04-0.25-0.13-0.31-0.26c-0.74-1.52-0.51-5.71-0.22-9.52
											c0.05-0.64,0.09-1.19,0.11-1.59c0.01-0.28,0.25-0.49,0.52-0.48c0.28,0.01,0.49,0.25,0.48,0.52
											c-0.02,0.4-0.06,0.96-0.11,1.61c-0.18,2.47-0.56,7.6,0.13,9.01c0.12,0.25,0.02,0.55-0.23,0.67
											C336.39,362.77,336.27,362.78,336.15,362.74z"/>
									</g>
								</g>
							</g>
							<g>
								<path style="fill:#407BFF;" d="M341.04,298.01c-0.25-0.07-0.4-0.33-0.35-0.58c0.17-0.8,4.28-19.67,16.64-24.13
									c0.26-0.09,0.55,0.04,0.64,0.3c0.09,0.26-0.04,0.55-0.3,0.64c-11.83,4.27-15.96,23.2-16,23.39
									c-0.06,0.27-0.32,0.44-0.59,0.39C341.07,298.02,341.06,298.02,341.04,298.01z"/>
							</g>
							<g>
								<path style="fill:#407BFF;" d="M330.27,338.53c-2.47,4.15,5.13,15.01,5.13,15.01s13.17,1.49,15.63-2.65
									c2.47-4.15,1-12.26-4.73-15.67C340.56,331.8,332.74,334.38,330.27,338.53z"/>
								<path style="fill:#407BFF;" d="M332.7,281.58c0.07,5.05,8.4,10.64,8.4,10.64s8.16-5.83,8.08-10.89
									c-0.08-5.05-3.86-11.52-8.41-11.45C336.21,269.95,332.62,276.53,332.7,281.58z"/>
								<path style="fill:#407BFF;" d="M353.11,302.64c-1.43,0.61-2.9,1.22-4.46,1.27c-1.55,0.04-3.23-0.62-3.94-2
									c-0.89-1.71-0.03-3.82,1.16-5.34c2.35-3.01,9.39-7.38,13.34-4.68C364.9,295.78,356.41,301.24,353.11,302.64z"/>
								<path style="fill:#407BFF;" d="M338.19,308.15c0.58,1.22,1.14,2.72,0.39,3.84c-0.66,1-2.13,1.17-3.23,0.72
									c-1.11-0.45-1.94-1.37-2.74-2.27c-1.84-2.07-5.6-6.4-1.98-8.71C334.41,299.32,336.98,305.58,338.19,308.15z"/>
								<path style="fill:#407BFF;" d="M367.09,269.69c0.92,0.33,1.73,1.2,1.66,2.18c-0.08,1.14-1.22,1.88-2.27,2.35
									c-2.61,1.16-10.32,4.14-10.73-0.63C355.37,269.08,364.25,268.66,367.09,269.69z"/>
								<g>
									<path style="fill:#407BFF;" d="M358.42,252.23c1.33,0.46,2.81,0.29,4.16,0.71c1.35,0.42,2.6,1.88,1.97,3.15
										c-0.58,1.17-2.21,1.21-3.5,0.98c-2.19-0.39-4.32-1.06-6.34-2c-0.47-0.22-0.97-0.49-1.15-0.98
										c-0.36-0.95,0.79-1.83,1.8-1.89c1.01-0.06,2.05,0.29,3.02,0.01L358.42,252.23z"/>
								</g>
								<g>
									<path style="fill:#407BFF;" d="M342.83,258.39c-1.38-0.29-2.56-1.19-3.93-1.53c-1.37-0.33-3.2,0.28-3.31,1.68
										c-0.1,1.3,1.28,2.18,2.49,2.64c2.07,0.8,4.25,1.32,6.46,1.54c0.51,0.05,1.08,0.07,1.49-0.25c0.79-0.63,0.26-1.97-0.57-2.54
										c-0.83-0.57-1.91-0.8-2.6-1.55L342.83,258.39z"/>
								</g>
							</g>
						</g>
						<g>
							<path style="fill:#407BFF;" d="M349.8,257.61c-0.01,0-0.02-0.01-0.03-0.01c-0.26-0.09-0.39-0.38-0.3-0.64
								c0.94-2.58,1.39-5.18,0.94-5.47c-0.23-0.15-0.3-0.46-0.16-0.69c0.15-0.23,0.45-0.31,0.69-0.16c1.4,0.89,0.09,4.95-0.53,6.66
								C350.31,257.55,350.05,257.68,349.8,257.61z"/>
						</g>
						<g>
							<path style="fill:#407BFF;" d="M352.47,251.7c-0.38-2.06-0.8-4.21-2.16-5.81c-1.35-1.59-3.97-2.32-5.56-0.96
								c-1.78,1.51-1.12,4.63,0.7,6.1c1.81,1.47,4.29,1.76,6.61,1.99c0.1-0.33,0.2-0.66,0.3-0.99L352.47,251.7z"/>
						</g>
					</g>
				</g>
			</g>
			<g>
				<g>
					<g>
						<g>
							<g>
								<g>
									<g>
										<g>
											<g>
												<g>
													<g>
														<path style="fill:#407BFF;" d="M174.04,392.47c-0.01,0-0.03,0-0.04,0c-0.27,0.02-0.52-0.18-0.54-0.46
															c-4.03-51.88,20.98-78.34,21.24-78.6c0.19-0.2,0.51-0.2,0.71-0.01c0.2,0.19,0.2,0.51,0.01,0.71
															c-0.25,0.26-24.95,26.43-20.96,77.83C174.48,392.2,174.3,392.43,174.04,392.47z"/>
													</g>
													<g>
														<path style="fill:#407BFF;" d="M189.49,321.79c-0.2,0.03-0.41-0.06-0.51-0.25c-0.14-0.24-0.05-0.55,0.19-0.68
															c0.17-0.1,4.24-2.35,11.66-2.27c0.28,0,0.5,0.23,0.5,0.5c0,0.28-0.23,0.5-0.51,0.5c-7.13-0.07-11.12,2.12-11.15,2.14
															C189.6,321.76,189.54,321.78,189.49,321.79z"/>
													</g>
													<g>
														<path style="fill:#407BFF;" d="M185.34,329.03c-0.26,0.04-0.51-0.13-0.57-0.39c-3.24-15.28,3.21-29.03,3.28-29.17
															c0.12-0.25,0.42-0.35,0.67-0.24c0.25,0.12,0.35,0.42,0.24,0.67c-0.06,0.13-6.37,13.59-3.2,28.53
															c0.06,0.27-0.12,0.54-0.39,0.59C185.35,329.02,185.34,329.03,185.34,329.03z"/>
													</g>
													<g>
														<path style="fill:#407BFF;" d="M179.26,343.74c-0.12,0.02-0.26-0.01-0.37-0.09c-0.23-0.16-0.28-0.47-0.12-0.7
															c0.05-0.07,5.39-7.47,14.61-6.12c0.27,0.04,0.46,0.29,0.42,0.57c-0.04,0.27-0.29,0.46-0.57,0.42
															c-8.61-1.26-13.6,5.64-13.64,5.71C179.51,343.65,179.39,343.72,179.26,343.74z"/>
													</g>
													<g>
														<path style="fill:#407BFF;" d="M176.55,353.7c-0.18,0.03-0.38-0.05-0.49-0.21c-0.2-0.29-4.97-7.34-5.41-18.67
															c-0.01-0.28,0.19-0.51,0.48-0.52c0.28-0.01,0.51,0.2,0.52,0.48c0.43,11.02,5.19,18.07,5.24,18.14
															c0.16,0.23,0.1,0.54-0.13,0.7C176.69,353.66,176.62,353.68,176.55,353.7z"/>
													</g>
												</g>
											</g>
										</g>
									</g>
								</g>
							</g>
							<g>
								<g>
									<g>
										<path style="fill:#407BFF;" d="M178.99,415.1c-0.26,0.04-0.5-0.12-0.56-0.38l-4.44-17.87
											c-10.87-44.21-47.58-68.36-47.95-68.6c-0.23-0.15-0.3-0.46-0.15-0.69c0.15-0.23,0.46-0.3,0.69-0.15
											c0.37,0.24,37.4,24.6,48.38,69.21l4.44,17.87c0.06,0.27-0.1,0.54-0.37,0.6C179.01,415.1,179,415.1,178.99,415.1z"/>
									</g>
									<g>
										<path style="fill:#407BFF;" d="M142.03,342.46c-0.03,0-0.05,0.01-0.08,0.01c-0.04,0-0.1-0.01-0.15-0.03l-0.17-0.03
											c-4.34-0.86-8.99-0.82-13.09,0.1c-0.27,0.07-0.54-0.11-0.6-0.38c-0.06-0.27,0.11-0.54,0.38-0.6
											c4.23-0.95,9.03-0.99,13.5-0.11l0.18,0.03c0.03,0,0.06,0.01,0.09,0.02c0.21,0.06,0.37,0.25,0.37,0.49
											C142.45,342.22,142.27,342.42,142.03,342.46z"/>
									</g>
									<g>
										<path style="fill:#407BFF;" d="M147.52,347.33c-0.01,0-0.02,0-0.02,0c-0.27,0.03-0.52-0.17-0.55-0.44
											c-1.47-13.4-10.47-22.85-10.56-22.95c-0.19-0.2-0.19-0.52,0.01-0.71c0.2-0.19,0.52-0.19,0.71,0.01
											c0.09,0.1,9.33,9.78,10.84,23.53C147.96,347.05,147.78,347.29,147.52,347.33z"/>
									</g>
									<g>
										<path style="fill:#407BFF;" d="M153.52,354.05c-0.12,0.02-0.25-0.01-0.36-0.08c-0.06-0.04-6.02-3.94-12.89-0.54
											c-0.25,0.12-0.55,0.02-0.67-0.23c-0.12-0.25-0.02-0.55,0.23-0.67c7.41-3.67,13.63,0.43,13.9,0.6
											c0.23,0.15,0.29,0.46,0.14,0.69C153.77,353.96,153.65,354.03,153.52,354.05z"/>
									</g>
									<g>
										<path style="fill:#407BFF;" d="M161.72,365.47c-0.07,0.01-0.14,0.01-0.22-0.01c-0.26-0.08-0.42-0.35-0.34-0.62
											c0.02-0.07,2.06-7.33-0.62-16.67c-0.08-0.27,0.08-0.54,0.34-0.62c0.26-0.09,0.54,0.08,0.62,0.34
											c2.77,9.63,0.71,16.92,0.62,17.22C162.06,365.31,161.9,365.44,161.72,365.47z"/>
									</g>
								</g>
								<g>
									<path style="fill:#407BFF;" d="M166.99,374.32c-6.17,1.39-17.93-2.2-23.23-6.95c-5.38-4.82,7.2-3.72,5.07-7.93
										c-2.13-4.21-16.08,2.08-20.09-3.76c-4.01-5.84,6.84-6.53,5.76-9.71c-1.09-3.18-11.88-0.28-16.78-6.35
										c-4.9-6.07,5.49-4.24,3.41-6.74c-2.09-2.51-16.56-11.88-12.03-15.39c4.54-3.5,18.36,6.52,22.43,7.12
										c4.07,0.6,3.21-8.1,8.96-5.03c5.76,3.07,5.72,21.64,12,22.8c4.68,0.87,1.17-6.91,6.56-5.87
										C168.49,338.34,169.5,373.76,166.99,374.32z"/>
									<g style="opacity:0.4;">
										<path style="fill:#FFFFFF;" d="M166.99,374.32c-6.17,1.39-17.93-2.2-23.23-6.95c-5.38-4.82,7.2-3.72,5.07-7.93
											c-2.13-4.21-16.08,2.08-20.09-3.76c-4.01-5.84,6.84-6.53,5.76-9.71c-1.09-3.18-11.88-0.28-16.78-6.35
											c-4.9-6.07,5.49-4.24,3.41-6.74c-2.09-2.51-16.56-11.88-12.03-15.39c4.54-3.5,18.36,6.52,22.43,7.12
											c4.07,0.6,3.21-8.1,8.96-5.03c5.76,3.07,5.72,21.64,12,22.8c4.68,0.87,1.17-6.91,6.56-5.87
											C168.49,338.34,169.5,373.76,166.99,374.32z"/>
									</g>
								</g>
							</g>
						</g>
					</g>
					<g>
						<g>
							<g>
								<g>
									<g>
										<path style="fill:#407BFF;" d="M174.02,393.69c-0.02,0-0.04,0.01-0.06,0.01c-0.28,0.01-0.51-0.21-0.52-0.48
											c-0.01-0.09-0.09-1.06-0.28-2.74c-0.27-2.51-0.89-7.75-2.08-14.72c-0.01-0.13-0.03-0.21-0.05-0.3
											c-1.34-7.78-2.98-15.38-4.88-22.61c-1.77-6.74-3.8-13.24-6.03-19.32c-2.03-5.49-4.23-10.66-6.55-15.35
											c-0.01-0.01-0.01-0.03-0.02-0.04l0,0c-0.36-0.74-0.74-1.47-1.11-2.2c-0.31-0.59-0.62-1.19-0.95-1.79
											c-0.83-1.55-1.6-3.03-2.28-4.41c-1.51-3.04-2.91-6.09-4.14-9.07c-0.75-1.79-1.44-3.55-2.06-5.25
											c-2.44-6.62-4.29-13.27-5.49-19.77c-0.49-2.65-0.88-5.31-1.14-7.91c-0.29-2.83-0.43-5.6-0.42-8.21c0-0.2,0-0.38,0-0.55
											l0-0.26c-0.02-0.12,0.01-0.25,0.08-0.35c0.16-0.23,0.47-0.28,0.7-0.13c0.15,0.1,0.23,0.29,0.22,0.47l0,0l0,0.26
											c0,0.18,0,0.37,0,0.57c-0.01,2.57,0.13,5.29,0.42,8.09c0.27,2.57,0.65,5.21,1.13,7.83c1.19,6.45,3.02,13.04,5.44,19.61
											c0.61,1.68,1.3,3.43,2.04,5.21c1.23,2.96,2.61,5.99,4.12,9.01c0.68,1.37,1.44,2.85,2.27,4.38c0.33,0.6,0.64,1.2,0.96,1.8
											c0.38,0.74,0.75,1.47,1.12,2.21c0.01,0.01,0.02,0.03,0.02,0.04l0,0c2.33,4.72,4.55,9.92,6.59,15.45
											c2.24,6.11,4.28,12.63,6.05,19.41c1.91,7.26,3.56,14.89,4.89,22.68c0.02,0.11,0.04,0.22,0.06,0.35
											c1.19,6.96,1.82,12.23,2.09,14.75c0.19,1.71,0.29,2.73,0.29,2.82C174.45,393.43,174.27,393.65,174.02,393.69z"/>
									</g>
								</g>
								<g>
									<g>
										<g>
											<path style="fill:#407BFF;" d="M136.45,258.82c0.01-0.02,0.01-0.02,0.02-0.03c0.01-0.02,0.01-0.02,0.02-0.03
												c0.7-0.93,1.51-1.77,2.39-2.52c0.98-0.8,2.05-1.49,3.2-2.02"/>
											<path style="fill:#407BFF;" d="M136.53,259.31c-0.07,0.01-0.13,0.01-0.2-0.01c-0.27-0.07-0.43-0.34-0.36-0.61
												c0.02-0.06,0.04-0.12,0.08-0.17c0.01-0.02,0.03-0.04,0.04-0.06l0,0c0.7-0.94,1.54-1.82,2.47-2.6
												c1.06-0.86,2.17-1.57,3.32-2.09c0.25-0.11,0.55-0.01,0.66,0.25c0.12,0.25,0.01,0.55-0.25,0.66
												c-1.07,0.49-2.11,1.15-3.1,1.95c-0.87,0.73-1.65,1.55-2.31,2.43c0,0-0.01,0.01-0.01,0.01
												C136.8,259.2,136.67,259.28,136.53,259.31z"/>
										</g>
									</g>
								</g>
								<g>
									<g>
										<path style="fill:#407BFF;" d="M136.95,268.18c-0.11,0.02-0.23,0-0.33-0.06l-3.76-2.23c-0.24-0.14-0.32-0.45-0.18-0.69
											c0.14-0.24,0.45-0.32,0.68-0.18l3.76,2.23c0.24,0.14,0.32,0.45,0.18,0.68C137.22,268.07,137.09,268.15,136.95,268.18z"/>
									</g>
								</g>
								<g>
									<g>
										<path style="fill:#407BFF;" d="M149.74,310.06c-0.26,0.04-0.52-0.17-0.58-0.44l0-0.01c-0.02-1.01,0.07-1.92,0.25-2.8
											c0.24-1.29,0.67-2.55,1.28-3.73c0.45-0.87,1-1.7,1.65-2.47c0.18-0.21,0.49-0.24,0.7-0.06c0.21,0.18,0.24,0.49,0.06,0.7
											c-0.6,0.72-1.11,1.48-1.53,2.29c-0.57,1.1-0.97,2.26-1.19,3.46c-0.17,0.82-0.25,1.66-0.24,2.5
											c0.06,0.27-0.12,0.49-0.39,0.55C149.76,310.06,149.75,310.06,149.74,310.06z"/>
									</g>
								</g>
								<g>
									<g>
										<path style="fill:#407BFF;" d="M154.1,318.44c-0.19,0.03-0.39-0.05-0.5-0.22c-1.26-1.93-3.36-3.3-5.63-3.66
											c-0.27-0.04-0.46-0.3-0.41-0.57c0.04-0.27,0.3-0.46,0.57-0.41c2.55,0.41,4.9,1.94,6.31,4.11
											c0.15,0.23,0.09,0.54-0.15,0.69C154.24,318.4,154.17,318.43,154.1,318.44z"/>
									</g>
								</g>
								<g>
									<g>
										<path style="fill:#407BFF;" d="M168.63,361.19c-1.32-1.06-3.13-5.78-4.1-8.31c-0.23-0.61-0.43-1.12-0.58-1.49"/>
										<path style="fill:#407BFF;" d="M168.71,361.68c-0.13,0.02-0.28-0.01-0.39-0.1c-1.32-1.06-2.89-4.95-4.25-8.52
											c-0.23-0.6-0.43-1.11-0.58-1.48c-0.11-0.26,0.02-0.55,0.27-0.65c0.25-0.11,0.55,0.02,0.65,0.27
											c0.15,0.37,0.35,0.89,0.59,1.5c0.88,2.31,2.72,7.12,3.94,8.1c0.22,0.17,0.25,0.49,0.08,0.7
											C168.94,361.6,168.83,361.66,168.71,361.68z"/>
									</g>
								</g>
							</g>
							<g>
								<path style="fill:#407BFF;" d="M145.62,301.01c-0.26,0.04-0.5-0.12-0.56-0.38c-0.19-0.8-4.49-19.63,4.8-28.91
									c0.2-0.2,0.51-0.19,0.71,0c0.2,0.2,0.2,0.51,0,0.71c-8.89,8.89-4.58,27.78-4.53,27.98c0.06,0.27-0.1,0.54-0.37,0.6
									C145.64,301.01,145.63,301.01,145.62,301.01z"/>
							</g>
							<g>
								<path style="fill:#407BFF;" d="M153.09,342.26c-0.47,4.8,11.02,11.4,11.02,11.4s12.55-4.25,13.02-9.05
									c0.47-4.8-4.31-11.52-10.94-12.17C159.55,331.8,153.56,337.46,153.09,342.26z"/>
								<path style="fill:#407BFF;" d="M131.07,289.69c2.22,4.54,12.13,6.06,12.13,6.06s4.9-8.75,2.68-13.29
									c-2.22-4.54-8.39-8.78-12.48-6.79C129.32,277.67,128.86,285.14,131.07,289.69z"/>
								<path style="fill:#407BFF;" d="M158.51,300.07c-1.04,1.16-2.11,2.34-3.5,3.04c-1.39,0.7-3.19,0.81-4.42-0.13
									c-1.53-1.17-1.65-3.45-1.22-5.33c0.85-3.72,5.36-10.67,10.08-9.91C166.26,288.84,160.9,297.4,158.51,300.07z"/>
								<path style="fill:#407BFF;" d="M147.35,311.4c1.04,0.86,2.19,1.97,1.99,3.31c-0.18,1.18-1.43,1.96-2.62,2.03
									c-1.19,0.06-2.34-0.42-3.44-0.89c-2.55-1.09-7.79-3.41-5.49-7.05C140.17,305.01,145.16,309.59,147.35,311.4z"/>
								<path style="fill:#407BFF;" d="M157.15,264.3c0.98-0.09,2.08,0.35,2.43,1.26c0.42,1.07-0.3,2.22-1.05,3.09
									c-1.87,2.16-7.58,8.13-9.98,3.99C146.29,268.73,154.14,264.58,157.15,264.3z"/>
								<g>
									<path style="fill:#407BFF;" d="M141.88,252.19c1.4-0.15,2.67-0.93,4.07-1.12c1.4-0.19,3.15,0.6,3.12,2.01
										c-0.03,1.3-1.49,2.03-2.75,2.38c-2.14,0.58-4.37,0.88-6.59,0.88c-0.52,0-1.08-0.04-1.45-0.4
										c-0.72-0.71-0.06-1.99,0.82-2.47c0.89-0.48,1.98-0.61,2.74-1.28L141.88,252.19z"/>
								</g>
								<g>
									<path style="fill:#407BFF;" d="M130.39,264.39c-1.37,0.32-2.83,0.01-4.21,0.29c-1.38,0.28-2.77,1.61-2.28,2.93
										c0.46,1.22,2.08,1.43,3.38,1.33c2.22-0.16,4.41-0.62,6.51-1.35c0.49-0.17,1.01-0.39,1.24-0.86c0.45-0.91-0.6-1.9-1.6-2.06
										c-1-0.16-2.07,0.08-3.01-0.3L130.39,264.39z"/>
								</g>
							</g>
						</g>
						<g>
							<path style="fill:#407BFF;" d="M136.36,260.72c-0.01,0-0.02,0-0.04,0c-0.27,0.02-0.52-0.18-0.54-0.45
								c-0.24-2.73-0.95-5.28-1.48-5.35c-0.27-0.03-0.47-0.28-0.43-0.56c0.03-0.27,0.28-0.47,0.56-0.43
								c1.64,0.21,2.19,4.44,2.35,6.26C136.8,260.45,136.62,260.68,136.36,260.72z"/>
						</g>
						<g>
							<path style="fill:#407BFF;" d="M136.27,254.23c-1.22-1.7-2.52-3.47-4.42-4.34c-1.9-0.86-4.57-0.41-5.44,1.49
								c-0.97,2.13,0.96,4.66,3.22,5.23c2.27,0.56,4.63-0.23,6.83-1.01c-0.05-0.34-0.1-0.68-0.15-1.02L136.27,254.23z"/>
						</g>
					</g>
				</g>
			</g>
			<g>
				<g>
					<g>
						<path style="fill:#407BFF;" d="M315.3,414.67h20.92c3.12-4.57,5.85-10.05,7.08-16.22c0.58-2.88,0.8-5.75,0.75-8.55
							c-0.08-4.6-0.88-8.98-1.96-12.87c-2.53-9.19-6.66-15.64-6.66-15.64s-17.75,12.34-21.53,31.19
							C312.31,400.48,313.45,408.29,315.3,414.67z"/>
						<path style="opacity:0.2;enable-background:new    ;" d="M315.3,414.67h20.92c3.12-4.57,5.85-10.05,7.08-16.22
							c0.58-2.88,0.8-5.75,0.75-8.55c-0.08-4.6-0.88-8.98-1.96-12.87c-2.53-9.19-6.66-15.64-6.66-15.64s-17.75,12.34-21.53,31.19
							C312.31,400.48,313.45,408.29,315.3,414.67z"/>
					</g>
					<g>
						<g>
							<g>
								<g>
									<path style="fill:#407BFF;" d="M320.85,414.67h24.45c2.18-2.19,4.19-4.69,5.84-7.54c9.2-15.77,4.27-36.01,4.27-36.01
										s-6.23,1.66-13.32,5.91c-3.31,2-6.82,4.55-9.96,7.76c-2.14,2.16-4.08,4.62-5.72,7.41
										C322.14,399.55,320.92,407.88,320.85,414.67z"/>
								</g>
							</g>
						</g>
						<g style="opacity:0.2;">
							<g>
								<path style="fill:#FFFFFF;" d="M320.85,414.67h24.45c2.18-2.19,4.19-4.69,5.84-7.54c9.2-15.77,4.27-36.01,4.27-36.01
									s-6.23,1.66-13.32,5.91c-3.31,2-6.82,4.55-9.96,7.76c-2.14,2.16-4.08,4.62-5.72,7.41
									C322.14,399.55,320.92,407.88,320.85,414.67z"/>
							</g>
						</g>
					</g>
				</g>
			</g>
		</g>
	</g>
</g>
<g id="Lines">
	<g>
		<g>
			<path style="fill:#263238;" d="M250.27,306.4c-0.28,0-0.5-0.22-0.5-0.5l-0.24-156.33c0-0.28,0.22-0.5,0.5-0.5c0,0,0,0,0,0
				c0.28,0,0.5,0.22,0.5,0.5l0.24,156.33C250.77,306.18,250.55,306.4,250.27,306.4C250.27,306.4,250.27,306.4,250.27,306.4z"/>
		</g>
		<g>
			<path style="fill:none;stroke:#263238;stroke-linecap:round;stroke-linejoin:round;stroke-miterlimit:10;" d="M250.03,149.58"/>
		</g>
		<g>
			<path style="fill:none;stroke:#263238;stroke-linecap:round;stroke-linejoin:round;stroke-miterlimit:10;" d="M250.02,144.99"/>
		</g>
		<g>
			<path style="fill:#263238;" d="M250.02,145.49c-0.28,0-0.5-0.22-0.5-0.5l-0.01-2.96c0-0.28,0.22-0.5,0.5-0.5
				c0.32,0,0.5,0.22,0.5,0.5l0.01,2.96C250.52,145.27,250.3,145.49,250.02,145.49C250.02,145.49,250.02,145.49,250.02,145.49z"/>
		</g>
		<g>
			<path style="fill:#263238;" d="M250.01,139.27c-0.28,0-0.5-0.22-0.5-0.5l-0.01-9.25c0-0.28,0.22-0.5,0.5-0.5c0,0,0,0,0,0
				c0.28,0,0.5,0.22,0.5,0.5l0.01,9.25C250.51,139.05,250.29,139.27,250.01,139.27C250.01,139.27,250.01,139.27,250.01,139.27z"/>
		</g>
		<g>
			<path style="fill:#263238;" d="M250.27,306.4c-0.2,0-0.4-0.13-0.47-0.33L209.84,197c-0.1-0.26,0.04-0.55,0.3-0.64
				c0.26-0.1,0.55,0.04,0.64,0.3l39.96,109.07c0.09,0.26-0.04,0.55-0.3,0.64C250.39,306.39,250.33,306.4,250.27,306.4z"/>
		</g>
		<g>
			<path style="fill:#263238;" d="M210.31,197.33c-0.2,0-0.4-0.13-0.47-0.33l-1.9-5.18c-0.09-0.26,0.04-0.55,0.3-0.64
				c0.26-0.09,0.55,0.04,0.64,0.3l1.9,5.18c0.09,0.26-0.04,0.55-0.3,0.64C210.42,197.32,210.36,197.33,210.31,197.33z"/>
		</g>
		<g>
			<path style="fill:#263238;" d="M205.7,184.76c-0.2,0-0.4-0.13-0.47-0.33l-14.1-38.49c-0.1-0.26,0.04-0.55,0.3-0.64
				c0.26-0.1,0.55,0.04,0.64,0.3l14.1,38.49c0.1,0.26-0.04,0.55-0.3,0.64C205.82,184.75,205.76,184.76,205.7,184.76z"/>
		</g>
		<g>
			<path style="fill:#263238;" d="M250.27,306.4c-0.14,0-0.28-0.06-0.38-0.18l-91.53-108.54c-0.18-0.21-0.15-0.53,0.06-0.7
				c0.21-0.18,0.53-0.15,0.7,0.06l91.53,108.54c0.18,0.21,0.15,0.53-0.06,0.7C250.5,306.36,250.38,306.4,250.27,306.4z"/>
		</g>
		<g>
			<path style="fill:#263238;" d="M153.13,191.21c-0.14,0-0.28-0.06-0.38-0.18l-12.9-15.29c-0.18-0.21-0.15-0.53,0.06-0.7
				c0.21-0.18,0.53-0.15,0.7,0.06l12.9,15.29c0.18,0.21,0.15,0.53-0.06,0.7C153.36,191.17,153.25,191.21,153.13,191.21z"/>
		</g>
		<g>
			<path style="fill:#263238;" d="M319.39,224.03c-0.11,0-0.23-0.04-0.32-0.12c-0.21-0.18-0.24-0.49-0.06-0.7l40.37-48.11
				c0.18-0.21,0.49-0.24,0.7-0.06c0.21,0.18,0.24,0.49,0.06,0.7l-40.37,48.11C319.67,223.97,319.53,224.03,319.39,224.03z"/>
		</g>
		<g>
			<path style="fill:#263238;" d="M310.4,234.74c-0.11,0-0.23-0.04-0.32-0.12c-0.21-0.18-0.24-0.49-0.06-0.7l4.68-5.58
				c0.18-0.21,0.49-0.24,0.7-0.06c0.21,0.18,0.24,0.49,0.06,0.7l-4.68,5.58C310.69,234.68,310.54,234.74,310.4,234.74z"/>
		</g>
		<g>
			<path style="fill:#263238;" d="M250.27,306.4c-0.11,0-0.23-0.04-0.32-0.12c-0.21-0.18-0.24-0.49-0.06-0.7l56.1-66.86
				c0.18-0.21,0.49-0.24,0.7-0.06c0.21,0.18,0.24,0.49,0.06,0.7l-56.1,66.86C250.55,306.34,250.41,306.4,250.27,306.4z"/>
		</g>
		<g>
			<path style="fill:#263238;" d="M302.26,163.18c-0.06,0-0.11-0.01-0.17-0.03c-0.26-0.09-0.39-0.38-0.3-0.64l6.14-16.92
				c0.09-0.26,0.38-0.39,0.64-0.3c0.26,0.09,0.39,0.38,0.3,0.64l-6.14,16.92C302.66,163.05,302.47,163.18,302.26,163.18z"/>
		</g>
		<g>
			<path style="fill:#263238;" d="M250.27,306.4c-0.06,0-0.11-0.01-0.17-0.03c-0.26-0.09-0.39-0.38-0.3-0.64l49.71-136.95
				c0.09-0.26,0.38-0.39,0.64-0.3c0.26,0.09,0.39,0.38,0.3,0.64l-49.71,136.95C250.67,306.28,250.48,306.4,250.27,306.4z"/>
		</g>
	</g>
</g>
<g id="Clock">
	<g>
		<path style="fill:#263238;" d="M183.14,386.4c0,0,7.6-1.9,11.41,2.61c3.8,4.51,0,8.32,0,8.32l-13.67,17.51
			c-0.6,0.73-1.5,1.15-2.45,1.15h-4.12c-2.4,0-3.94-2.56-2.8-4.68L183.14,386.4z"/>
		<g>
			<g>
				<g>
					
						<ellipse transform="matrix(0.701 -0.7132 0.7132 0.701 -157.0321 280.475)" style="fill:#407BFF;" cx="255.97" cy="327.51" rx="89.34" ry="89.3"/>
				</g>
				<g style="opacity:0.6;">
					<ellipse transform="matrix(0.701 -0.7132 0.7132 0.701 -157.0321 280.475)" cx="255.97" cy="327.51" rx="89.34" ry="89.3"/>
				</g>
			</g>
			<g>
				<g>
					
						<ellipse transform="matrix(0.1487 -0.9889 0.9889 0.1487 -123.1527 511.9612)" style="fill:#407BFF;" cx="235.77" cy="327.51" rx="89.32" ry="89.32"/>
					<circle style="opacity:0.8;fill:#FFFFFF;" cx="234.69" cy="327.51" r="71.68"/>
				</g>
				<g>
					<polygon style="fill:#263238;" points="231.67,324.63 200.83,353.65 203.82,356.84 231.77,330.54 281.85,374.79 284.75,371.51 
											"/>
				</g>
				<g>
					<g>
						<path style="fill:#407BFF;" d="M239.78,331.26c0,4.01-3.25,7.27-7.27,7.27s-7.27-3.25-7.27-7.27c0-4.01,3.25-7.27,7.27-7.27
							S239.78,327.24,239.78,331.26z"/>
					</g>
				</g>
			</g>
		</g>
		<path style="fill:#263238;" d="M315.83,386.4c0,0-7.6-1.9-11.41,2.61c-3.8,4.51,0,8.32,0,8.32l13.67,17.51
			c0.6,0.73,1.5,1.15,2.45,1.15h4.12c2.4,0,3.94-2.56,2.8-4.68L315.83,386.4z"/>
	</g>
</g>
<g id="Sport">
	<g>
		<g>
			<path style="fill:#407BFF;" d="M386.16,163.37c-1.14,0.84-2.23,1.42-3.17,1.8c-2.38,0.98-4.3,0.98-5.03,0.93
				c-2.28-0.62-4.48-1.69-6.47-3.22c-2.21-1.7-3.94-3.79-5.16-6.11c0.1,0.1,0.21,0.19,0.32,0.29c0.25,0.22,0.5,0.43,0.77,0.64
				c1.36,1.05,3.03,1.95,4.96,2.68c2.86,1.09,6.33,1.81,10.31,2.14C383.45,162.66,384.86,162.97,386.16,163.37z"/>
			<path style="fill:#407BFF;" d="M389.91,165.89c-2.77,1.01-5.74,1.35-8.67,1.01c0.76-0.15,1.62-0.39,2.55-0.76
				c1.32-0.54,2.59-1.28,3.79-2.22c0.87,0.32,1.59,0.68,1.89,1.05C389.74,165.33,389.87,165.63,389.91,165.89z"/>
			<path style="fill:#407BFF;" d="M396.57,161.65c-1.72,1.65-3.7,2.91-5.82,3.78c-0.08-0.34-0.25-0.71-0.56-1.1
				c-0.33-0.43-1.01-0.81-1.82-1.14c0.28-0.24,0.55-0.49,0.82-0.75c0.62-0.6,1.21-1.25,1.79-1.96
				C393.26,161.37,395.17,161.77,396.57,161.65z"/>
			<path style="fill:#407BFF;" d="M398.63,159.35c-0.34,0.45-0.71,0.88-1.08,1.28l-0.03-0.06c-0.94,0.37-2.46,0.25-4.41-0.34
				c-0.48-0.15-0.99-0.32-1.51-0.52c0.81-1.07,1.57-2.25,2.27-3.54c1.16,0.33,2.67,0.57,4.3-0.26c1.57-0.8,2.94-2.47,4.1-4.97
				C401.79,153.91,400.59,156.8,398.63,159.35z"/>
			<path style="fill:#407BFF;" d="M398.14,154.86c-1.33,0.68-2.56,0.54-3.61,0.25c0.13-0.25,0.26-0.51,0.39-0.77
				c1.77-3.64,2.82-7.15,3.12-10.43c0.24-2.63-0.01-5.13-0.73-7.41c-0.51-1.61-1.18-2.88-1.8-3.83c3.42,2.64,5.68,6.23,6.7,10.11
				c0.85,3.28,0.39,6.83-1.52,9.64C399.9,153.58,399.05,154.39,398.14,154.86z"/>
			<path style="fill:#407BFF;" d="M393.47,154.59c-1.68-0.81-3.23-3.31-3.8-4.89c-5.31-14.81-8.67-19.35-10.47-20.64
				c4.61-1.14,9.6-0.53,13.91,1.98c0.5,0.5,2.16,2.32,3.15,5.46c1.08,3.44,1.54,9.23-2.37,17.25
				C393.76,154.04,393.62,154.32,393.47,154.59z"/>
			<path style="fill:#407BFF;" d="M390.58,159.13c-1.34-0.55-2.79-1.26-4.28-2.1c-4.99-2.8-9.87-6.67-13.05-10.35
				c-3.33-3.85-4.65-6.44-5.17-7.93c-0.19-0.54-0.29-0.98-0.34-1.32c0.27-0.41,0.56-0.82,0.86-1.22c2.46-3.2,5.74-5.38,9.33-6.49
				c0.37,0.11,1.15,0.54,2.37,2.22c2.39,3.27,5.23,9.46,8.43,18.39c0.53,1.48,1.8,3.6,3.32,4.77c0.27,0.2,0.54,0.38,0.82,0.52
				C392.13,156.96,391.36,158.12,390.58,159.13z"/>
			<path style="fill:#407BFF;" d="M389.91,159.98c-0.9,1.09-1.81,1.98-2.69,2.7c-1.75-0.59-3.71-0.96-4.06-1.02l-0.03,0
				c-8.79-0.74-13.32-3.25-15.57-5.23c-0.88-0.77-1.49-1.52-1.91-2.17c-1.82-5.05-1.44-10.79,1.35-15.66
				c0.04,0.16,0.09,0.32,0.15,0.49c0.75,2.28,2.56,5.09,5.36,8.33c1.77,2.05,4.07,4.16,6.61,6.12c2.09,1.61,4.35,3.11,6.64,4.39
				C387.22,158.75,388.62,159.44,389.91,159.98z"/>
		</g>
		<g style="opacity:0.4;">
			<path style="opacity:0.7;fill:#FFFFFF;" d="M389.91,165.89c-2.77,1.01-5.74,1.35-8.67,1.01c0.76-0.15,1.62-0.39,2.55-0.76
				c1.32-0.54,2.59-1.28,3.79-2.22c0.87,0.32,1.59,0.68,1.89,1.05C389.74,165.33,389.87,165.63,389.91,165.89z"/>
			<path style="opacity:0.7;fill:#FFFFFF;" d="M396.57,161.65c-1.72,1.65-3.7,2.91-5.82,3.78c-0.08-0.34-0.25-0.71-0.56-1.1
				c-0.33-0.43-1.01-0.81-1.82-1.14c0.28-0.24,0.55-0.49,0.82-0.75c0.62-0.6,1.21-1.25,1.79-1.96
				C393.26,161.37,395.17,161.77,396.57,161.65z"/>
			<path style="opacity:0.7;fill:#FFFFFF;" d="M398.63,159.35c-0.34,0.45-0.71,0.88-1.08,1.28l-0.03-0.06
				c-0.94,0.37-2.46,0.25-4.41-0.34c-0.48-0.15-0.99-0.32-1.51-0.52c0.81-1.07,1.57-2.25,2.27-3.54c1.16,0.33,2.67,0.57,4.3-0.26
				c1.57-0.8,2.94-2.47,4.1-4.97C401.79,153.91,400.59,156.8,398.63,159.35z"/>
			<path style="fill:#FFFFFF;" d="M398.14,154.86c-1.33,0.68-2.56,0.54-3.61,0.25c0.13-0.25,0.26-0.51,0.39-0.77
				c1.77-3.64,2.82-7.15,3.12-10.43c0.24-2.63-0.01-5.13-0.73-7.41c-0.51-1.61-1.18-2.88-1.8-3.83c3.42,2.64,5.68,6.23,6.7,10.11
				c0.85,3.28,0.39,6.83-1.52,9.64C399.9,153.58,399.05,154.39,398.14,154.86z"/>
			<path style="opacity:0.7;fill:#FFFFFF;" d="M386.16,163.37c-1.14,0.84-2.23,1.42-3.17,1.8c-2.38,0.98-4.3,0.98-5.03,0.93
				c-2.28-0.62-4.48-1.69-6.47-3.22c-2.21-1.7-3.94-3.79-5.16-6.11c0.1,0.1,0.21,0.19,0.32,0.29c0.25,0.22,0.5,0.43,0.77,0.64
				c1.36,1.05,3.03,1.95,4.96,2.68c2.86,1.09,6.33,1.81,10.31,2.14C383.45,162.66,384.86,162.97,386.16,163.37z"/>
			<path style="fill:#FFFFFF;" d="M393.47,154.59c-1.68-0.81-3.23-3.31-3.8-4.89c-5.31-14.81-8.67-19.35-10.47-20.64
				c4.61-1.14,9.6-0.53,13.91,1.98c0.5,0.5,2.16,2.32,3.15,5.46c1.08,3.44,1.54,9.23-2.37,17.25
				C393.76,154.04,393.62,154.32,393.47,154.59z"/>
			<path style="fill:#FFFFFF;" d="M390.58,159.13c-1.34-0.55-2.79-1.26-4.28-2.1c-4.99-2.8-9.87-6.67-13.05-10.35
				c-3.33-3.85-4.65-6.44-5.17-7.93c-0.19-0.54-0.29-0.98-0.34-1.32c0.27-0.41,0.56-0.82,0.86-1.22c2.46-3.2,5.74-5.38,9.33-6.49
				c0.37,0.11,1.15,0.54,2.37,2.22c2.39,3.27,5.23,9.46,8.43,18.39c0.53,1.48,1.8,3.6,3.32,4.77c0.27,0.2,0.54,0.38,0.82,0.52
				C392.13,156.96,391.36,158.12,390.58,159.13z"/>
			<path style="fill:#FFFFFF;" d="M389.91,159.98c-0.9,1.09-1.81,1.98-2.69,2.7c-1.75-0.59-3.71-0.96-4.06-1.02l-0.03,0
				c-8.79-0.74-13.32-3.25-15.57-5.23c-0.88-0.77-1.49-1.52-1.91-2.17c-1.82-5.05-1.44-10.79,1.35-15.66
				c0.04,0.16,0.09,0.32,0.15,0.49c0.75,2.28,2.56,5.09,5.36,8.33c1.77,2.05,4.07,4.16,6.61,6.12c2.09,1.61,4.35,3.11,6.64,4.39
				C387.22,158.75,388.62,159.44,389.91,159.98z"/>
		</g>
	</g>
</g>
<g id="Love">
	<g>
		<g>
			<g>
				<g>
					<g>
						<g>
							<polygon style="fill:#407BFF;" points="319.76,125.04 310.98,132.24 310.4,131.66 319.27,124.33 							"/>
						</g>
					</g>
				</g>
			</g>
			<g>
				<g>
					<path style="fill:#407BFF;" d="M327.46,112.87c0.55-4.3-3.8-8.73-8.05-9.62c-4.24-0.88-10.14,2.66-11.3,6.84
						c-2.94,10.62,7.56,16.05,10.62,18.28c3.05,2.23,6.56,4.9,6.52,7.18c1.55-2.5,3.07-3.64,5.22-5.66c2.14-2.02,4.32-4.04,6-6.46
						c1.67-2.42,2.81-5.33,2.59-8.27c-0.22-2.94-1.98-5.94-4.78-6.85C328.49,106.44,327.46,112.87,327.46,112.87z"/>
				</g>
				<g style="opacity:0.5;">
					<path style="fill:#FFFFFF;" d="M327.46,112.87c0.55-4.3-3.8-8.73-8.05-9.62c-4.24-0.88-10.14,2.66-11.3,6.84
						c-2.94,10.62,7.56,16.05,10.62,18.28c3.05,2.23,6.56,4.9,6.52,7.18c1.55-2.5,3.07-3.64,5.22-5.66c2.14-2.02,4.32-4.04,6-6.46
						c1.67-2.42,2.81-5.33,2.59-8.27c-0.22-2.94-1.98-5.94-4.78-6.85C328.49,106.44,327.46,112.87,327.46,112.87z"/>
				</g>
			</g>
		</g>
		<g>
			<g>
				<g>
					<g>
						<polygon style="fill:#407BFF;" points="341.15,108.36 332.37,115.56 331.79,114.98 340.66,107.65 						"/>
					</g>
				</g>
			</g>
		</g>
		<polygon style="fill:#407BFF;" points="338.15,105.94 342.59,111.13 345.61,103.73 		"/>
	</g>
</g>
<g id="Money">
	<g>
		<g>
			<g>
				<g>
					<g>
						<path style="fill:#407BFF;" d="M238.29,116.37c-0.02,1.67,5.31,3.11,11.91,3.21c6.6,0.1,11.98-1.18,12-2.85
							c0.02-1.67-5.31-3.11-11.91-3.21C243.69,113.42,238.31,114.7,238.29,116.37z"/>
						
							<rect x="248.75" y="103.08" transform="matrix(0.0148 -0.9999 0.9999 0.0148 131.5425 363.574)" style="fill:#407BFF;" width="3.03" height="23.92"/>
					</g>
					<g>
						<path style="fill:#407BFF;" d="M238.33,113.34c-0.02,1.67,5.31,3.11,11.91,3.21c6.6,0.1,11.98-1.18,12-2.85
							c0.02-1.67-5.31-3.11-11.91-3.21C243.73,110.39,238.36,111.67,238.33,113.34z"/>
						<path style="opacity:0.4;fill:#FFFFFF;" d="M238.33,113.34c-0.02,1.67,5.31,3.11,11.91,3.21c6.6,0.1,11.98-1.18,12-2.85
							c0.02-1.67-5.31-3.11-11.91-3.21C243.73,110.39,238.36,111.67,238.33,113.34z"/>
					</g>
					<g>
						<path style="fill:#407BFF;" d="M239.85,113.25c0,0.1,0.04,0.22,0.11,0.29c0.77-1,5.12-1.7,10.35-1.62
							c5.24,0.08,9.57,0.9,10.29,1.93c0.07-0.08,0.12-0.19,0.12-0.29c0.02-1.13-4.64-2.14-10.4-2.22
							C244.57,111.25,239.87,112.12,239.85,113.25z"/>
						<path style="opacity:0.4;fill:#407BFF;" d="M239.85,113.25c0,0.1,0.04,0.22,0.11,0.29c0.77-1,5.12-1.7,10.35-1.62
							c5.24,0.08,9.57,0.9,10.29,1.93c0.07-0.08,0.12-0.19,0.12-0.29c0.02-1.13-4.64-2.14-10.4-2.22
							C244.57,111.25,239.87,112.12,239.85,113.25z"/>
					</g>
					<g>
						<path style="opacity:0.4;fill:#407BFF;" d="M239.96,113.54c0.74,1.03,5.07,1.85,10.29,1.93c5.24,0.08,9.59-0.62,10.35-1.62
							c-0.73-1.03-5.06-1.85-10.29-1.93C245.09,111.84,240.74,112.54,239.96,113.54z"/>
					</g>
				</g>
				<g>
					<g>
						<path style="fill:#407BFF;" d="M237.16,111.82c-0.02,1.67,5.31,3.11,11.91,3.21c6.6,0.1,11.98-1.18,12-2.85
							c0.02-1.67-5.31-3.11-11.91-3.21C242.56,108.87,237.19,110.15,237.16,111.82z"/>
						
							<rect x="247.63" y="98.52" transform="matrix(0.0148 -0.9999 0.9999 0.0148 134.9859 357.9618)" style="fill:#407BFF;" width="3.03" height="23.92"/>
					</g>
					<g>
						<path style="fill:#407BFF;" d="M237.21,108.79c-0.02,1.67,5.31,3.11,11.91,3.21c6.6,0.1,11.98-1.18,12-2.85
							c0.02-1.67-5.31-3.11-11.91-3.21C242.6,105.84,237.23,107.12,237.21,108.79z"/>
						<path style="opacity:0.4;fill:#FFFFFF;" d="M237.21,108.79c-0.02,1.67,5.31,3.11,11.91,3.21c6.6,0.1,11.98-1.18,12-2.85
							c0.02-1.67-5.31-3.11-11.91-3.21C242.6,105.84,237.23,107.12,237.21,108.79z"/>
					</g>
					<g>
						<path style="fill:#407BFF;" d="M238.73,108.7c0,0.1,0.04,0.22,0.11,0.29c0.77-1,5.12-1.7,10.35-1.62
							c5.24,0.08,9.57,0.9,10.29,1.93c0.07-0.08,0.12-0.19,0.12-0.29c0.02-1.13-4.64-2.14-10.4-2.22
							C243.44,106.7,238.74,107.56,238.73,108.7z"/>
						<path style="opacity:0.4;fill:#407BFF;" d="M238.73,108.7c0,0.1,0.04,0.22,0.11,0.29c0.77-1,5.12-1.7,10.35-1.62
							c5.24,0.08,9.57,0.9,10.29,1.93c0.07-0.08,0.12-0.19,0.12-0.29c0.02-1.13-4.64-2.14-10.4-2.22
							C243.44,106.7,238.74,107.56,238.73,108.7z"/>
					</g>
					<g>
						<path style="opacity:0.4;fill:#407BFF;" d="M238.84,108.99c0.74,1.03,5.07,1.85,10.29,1.93c5.24,0.08,9.59-0.62,10.35-1.62
							c-0.73-1.03-5.06-1.85-10.29-1.93C243.96,107.29,239.61,107.99,238.84,108.99z"/>
					</g>
				</g>
				<g>
					<g>
						<path style="fill:#407BFF;" d="M238.03,106.93c-0.02,1.67,5.31,3.11,11.91,3.21c6.6,0.1,11.98-1.18,12-2.85
							c0.02-1.67-5.31-3.11-11.91-3.21C243.42,103.98,238.05,105.26,238.03,106.93z"/>
						
							<rect x="248.49" y="93.63" transform="matrix(0.0148 -0.9999 0.9999 0.0148 140.7185 354.0063)" style="fill:#407BFF;" width="3.03" height="23.92"/>
					</g>
					<g>
						<path style="fill:#407BFF;" d="M238.07,103.9c-0.02,1.67,5.31,3.11,11.91,3.21c6.6,0.1,11.98-1.18,12-2.85
							c0.02-1.67-5.31-3.11-11.91-3.21C243.47,100.95,238.1,102.23,238.07,103.9z"/>
						<path style="opacity:0.4;fill:#FFFFFF;" d="M238.07,103.9c-0.02,1.67,5.31,3.11,11.91,3.21c6.6,0.1,11.98-1.18,12-2.85
							c0.02-1.67-5.31-3.11-11.91-3.21C243.47,100.95,238.1,102.23,238.07,103.9z"/>
					</g>
					<g>
						<path style="fill:#407BFF;" d="M239.59,103.81c0,0.1,0.04,0.22,0.11,0.29c0.77-1,5.12-1.7,10.35-1.62
							c5.24,0.08,9.57,0.9,10.29,1.93c0.07-0.08,0.12-0.19,0.12-0.29c0.02-1.13-4.64-2.14-10.4-2.22
							C244.31,101.81,239.61,102.67,239.59,103.81z"/>
						<path style="opacity:0.4;fill:#407BFF;" d="M239.59,103.81c0,0.1,0.04,0.22,0.11,0.29c0.77-1,5.12-1.7,10.35-1.62
							c5.24,0.08,9.57,0.9,10.29,1.93c0.07-0.08,0.12-0.19,0.12-0.29c0.02-1.13-4.64-2.14-10.4-2.22
							C244.31,101.81,239.61,102.67,239.59,103.81z"/>
					</g>
					<g>
						<path style="opacity:0.4;fill:#407BFF;" d="M239.7,104.1c0.74,1.03,5.07,1.85,10.29,1.93c5.24,0.08,9.59-0.62,10.35-1.62
							c-0.73-1.03-5.06-1.85-10.29-1.93C244.83,102.4,240.47,103.1,239.7,104.1z"/>
					</g>
				</g>
				<g>
					<g>
						<path style="fill:#407BFF;" d="M237.1,102.23c-0.02,1.67,5.31,3.11,11.91,3.21c6.6,0.1,11.98-1.18,12-2.85
							c0.02-1.67-5.31-3.11-11.91-3.21C242.49,99.28,237.12,100.56,237.1,102.23z"/>
						
							<rect x="247.56" y="88.94" transform="matrix(0.0148 -0.9999 0.9999 0.0148 144.509 348.4502)" style="fill:#407BFF;" width="3.03" height="23.92"/>
					</g>
					<g>
						<path style="fill:#407BFF;" d="M237.14,99.2c-0.02,1.67,5.31,3.11,11.91,3.21c6.6,0.1,11.98-1.18,12-2.85
							c0.02-1.67-5.31-3.11-11.91-3.21C242.54,96.25,237.17,97.53,237.14,99.2z"/>
						<path style="opacity:0.4;fill:#FFFFFF;" d="M237.14,99.2c-0.02,1.67,5.31,3.11,11.91,3.21c6.6,0.1,11.98-1.18,12-2.85
							c0.02-1.67-5.31-3.11-11.91-3.21C242.54,96.25,237.17,97.53,237.14,99.2z"/>
					</g>
					<g>
						<path style="fill:#407BFF;" d="M238.66,99.11c0,0.1,0.04,0.22,0.11,0.29c0.77-1,5.12-1.7,10.35-1.62
							c5.24,0.08,9.57,0.9,10.29,1.93c0.07-0.08,0.12-0.19,0.12-0.29c0.02-1.13-4.64-2.14-10.4-2.22
							C243.38,97.11,238.68,97.98,238.66,99.11z"/>
						<path style="opacity:0.4;fill:#407BFF;" d="M238.66,99.11c0,0.1,0.04,0.22,0.11,0.29c0.77-1,5.12-1.7,10.35-1.62
							c5.24,0.08,9.57,0.9,10.29,1.93c0.07-0.08,0.12-0.19,0.12-0.29c0.02-1.13-4.64-2.14-10.4-2.22
							C243.38,97.11,238.68,97.98,238.66,99.11z"/>
					</g>
					<g>
						<path style="opacity:0.4;fill:#407BFF;" d="M238.77,99.4c0.74,1.03,5.07,1.85,10.29,1.93c5.24,0.08,9.59-0.62,10.35-1.62
							c-0.73-1.03-5.06-1.85-10.29-1.93C243.9,97.7,239.54,98.4,238.77,99.4z"/>
					</g>
				</g>
			</g>
		</g>
		<g>
			<g>
				<path style="fill:#407BFF;" d="M239.42,91.55c0.14,4.96,5.16,8.84,11.22,8.67c6.06-0.17,10.86-4.32,10.73-9.28
					c-0.14-4.96-5.16-8.84-11.22-8.67C244.09,82.44,239.29,86.59,239.42,91.55z"/>
				<path style="fill:#407BFF;" d="M239.37,89.58c0.14,4.96,5.16,8.84,11.22,8.67c6.06-0.17,10.86-4.32,10.73-9.28
					c-0.14-4.96-5.16-8.84-11.22-8.67C244.03,80.47,239.23,84.62,239.37,89.58z"/>
				<path style="opacity:0.4;fill:#FFFFFF;" d="M239.37,89.58c0.14,4.96,5.16,8.84,11.22,8.67c6.06-0.17,10.86-4.32,10.73-9.28
					c-0.14-4.96-5.16-8.84-11.22-8.67C244.03,80.47,239.23,84.62,239.37,89.58z"/>
				<path style="fill:#407BFF;" d="M242.11,89.34c0.01,0.24,0.03,0.47,0.06,0.69c0.02,0.02,0,0.04,0,0.05
					c0.57,3.37,4.13,5.87,8.35,5.76c4.24-0.12,7.66-2.81,8.04-6.21c0-0.02-0.02-0.04,0-0.05c0.01-0.22,0.02-0.46,0.02-0.69
					c-0.1-3.71-3.88-6.63-8.42-6.5C245.62,82.51,242.01,85.63,242.11,89.34z"/>
				<path style="opacity:0.3;fill:#FFFFFF;" d="M242.17,90.03c0.02,0.02,0,0.04,0,0.05c0.57,3.37,4.13,5.87,8.35,5.76
					c4.24-0.12,7.66-2.81,8.04-6.21c0-0.02-0.02-0.04,0-0.05c-0.57-3.35-4.13-5.87-8.37-5.76
					C245.97,83.94,242.55,86.66,242.17,90.03z"/>
			</g>
			<g style="opacity:0.5;">
				<path style="fill:#FFFFFF;" d="M253.49,91.14c0.04,1.49-1.13,2.53-3.01,2.74l-0.21,1.24l-1.12,0.03l0.21-1.24
					c-1.07-0.07-2.02-0.38-2.61-0.79l0.71-1.41c0.61,0.42,1.37,0.68,2.15,0.74l0.33-1.91c-1.05-0.29-2.21-0.67-2.25-2.03
					c-0.04-1.49,1.16-2.54,3.06-2.73l0.21-1.24l1.12-0.03l-0.21,1.25c0.8,0.06,1.54,0.26,2.09,0.58l-0.65,1.41
					c-0.49-0.31-1.08-0.49-1.69-0.54l-0.34,1.99C252.33,89.48,253.45,89.85,253.49,91.14z M250.21,88.92l0.28-1.63
					c-0.64,0.14-0.99,0.5-0.99,0.93C249.52,88.56,249.8,88.76,250.21,88.92z M251.68,91.48c-0.01-0.33-0.27-0.52-0.67-0.66
					l-0.26,1.55C251.35,92.24,251.69,91.91,251.68,91.48z"/>
			</g>
		</g>
	</g>
</g>
<g id="Food">
	<g>
		<g>
			<g>
				<g>
					<polygon style="fill:#407BFF;" points="183.5,135.24 171.16,135.24 170.16,101.57 184.5,101.57 					"/>
					<polygon style="opacity:0.7;fill:#FFFFFF;" points="183.5,135.24 171.16,135.24 170.16,101.57 184.5,101.57 					"/>
				</g>
				<g>
					<polygon style="fill:#407BFF;" points="185.83,102.66 168.83,102.66 169.83,99.74 184.83,99.74 					"/>
				</g>
				<polygon style="fill:#407BFF;" points="183.91,121.53 184.17,112.77 170.49,112.77 170.75,121.53 				"/>
			</g>
			<path style="opacity:0.8;fill:#FFFFFF;" d="M180.16,117.15c0,1.56-1.27,2.83-2.83,2.83s-2.83-1.27-2.83-2.83
				c0-1.56,1.27-2.83,2.83-2.83S180.16,115.59,180.16,117.15z"/>
		</g>
		<g>
			<g>
				<path style="fill:#407BFF;" d="M205.01,120.24c-0.49-2.03-1.67-4.19-3.71-4.63c-2.2-0.48-4.22,1.22-5.83,2.79
					c-0.93-3.43-5.14-5.34-8.54-4.28c-3.4,1.05-5.72,4.49-6.07,8.03c-0.35,3.54,1.02,7.08,3.13,9.95c2.08,2.82,4.39,4.12,7.83,3.43
					c2.48-0.5,4.54,0.18,6.92-0.11C204.59,134.72,206.09,124.74,205.01,120.24z"/>
				<path style="fill:#263238;" d="M195.89,111.01c0.25,0.4,0.96-0.12,1.38-0.39c-0.65,1.66-0.6,5.49-1.08,7.19
					c-0.22,0.79-1.09,0.36-1.21,0.22C195.3,114.55,195.47,110.35,195.89,111.01z"/>
				<path style="fill:#407BFF;" d="M197.95,111.39c0.93-0.74,2-1.26,3.06-1.77c-0.18,1.26-0.42,2.55-1.13,3.59
					c-0.71,1.04-1.89,1.72-3.13,1.82C194.45,115.23,197.3,111.91,197.95,111.39z"/>
			</g>
			<g>
				<path style="fill:#FFFFFF;" d="M188.46,116.44c-0.58-0.4-1.52,0.05-1.58,0.75c-0.07,0.7,0.76,1.31,1.41,1.04
					c0.65-0.27,0.81-1.28,0.28-1.74L188.46,116.44z"/>
			</g>
			<path style="fill:#FFFFFF;" d="M185.7,130.45c0.11,0.13,0.24,0.27,0.41,0.3c0.32,0.06,0.58-0.31,0.56-0.63
				c-0.02-0.32-0.23-0.6-0.4-0.87c-1.17-1.79-1.36-4.18-0.5-6.13c0.22-0.5,0.5-0.97,0.64-1.5c0.32-1.25-0.69-2.41-1.88-1.69
				c-0.91,0.55-1.03,2.48-1.1,3.39C183.25,125.86,184.04,128.5,185.7,130.45z"/>
		</g>
	</g>
</g>
<g id="Books">
	<g>
		<g>
			<g>
				<g>
					<path style="fill:#407BFF;" d="M131.65,140.19v6.86c0.84,0,0.85,1.31,0,1.31c-2.61,0-5.23,0.02-7.84,0.03v-9.52
						c2.61,0,5.23,0,7.84,0C132.49,138.87,132.49,140.19,131.65,140.19z"/>
					<path style="opacity:0.3;fill:#FFFFFF;" d="M131.65,140.19v6.86c0.84,0,0.85,1.31,0,1.31c-2.61,0-5.23,0.02-7.84,0.03v-9.52
						c2.61,0,5.23,0,7.84,0C132.49,138.87,132.49,140.19,131.65,140.19z"/>
				</g>
				<rect x="125.55" y="140.2" style="fill:#407BFF;" width="6.09" height="6.85"/>
				<rect x="125.55" y="140.2" style="opacity:0.6;fill:#FFFFFF;" width="6.09" height="6.85"/>
			</g>
			<path style="fill:#407BFF;" d="M126.83,139.53H93.2c-1.45,0-2.63,1.83-2.63,4.08c0,2.26,1.18,4.08,2.63,4.08h33.63V139.53z"/>
			<path style="opacity:0.9;fill:#FFFFFF;" d="M126.83,139.53H93.2c-1.45,0-2.63,1.83-2.63,4.08c0,2.26,1.18,4.08,2.63,4.08h33.63
				V139.53z"/>
			<g>
				<g>
					<path style="fill:#407BFF;" d="M126.83,148.35c-6.92,0-26.35,0.13-33.27,0c-4.74-0.09-4.99-9.16-0.35-9.48
						c3.24-0.22,6.57,0,9.81,0c3.76,0,20.04,0,23.8,0c0.84,0,0.85,1.31,0,1.31c-6.55,0-25.62,0-32.17,0c-1.52,0-2.6,0.02-3.19,1.81
						c-0.51,1.55-0.35,4.71,1.73,5.05c0.22,0.04,0.49,0,0.71,0c3.57,0,7.15,0,10.72,0c3.23,0,18.97,0,22.2,0
						C127.68,147.04,127.68,148.35,126.83,148.35L126.83,148.35z"/>
				</g>
			</g>
			<g style="opacity:0.2;">
				<g>
					<path style="fill:#FFFFFF;" d="M126.83,148.35c-6.92,0-26.35,0.13-33.27,0c-4.74-0.09-4.99-9.16-0.35-9.48
						c3.24-0.22,6.57,0,9.81,0c3.76,0,20.04,0,23.8,0c0.84,0,0.85,1.31,0,1.31c-6.55,0-25.62,0-32.17,0c-1.52,0-2.6,0.02-3.19,1.81
						c-0.51,1.55-0.35,4.71,1.73,5.05c0.22,0.04,0.49,0,0.71,0c3.57,0,7.15,0,10.72,0c3.23,0,18.97,0,22.2,0
						C127.68,147.04,127.68,148.35,126.83,148.35L126.83,148.35z"/>
				</g>
			</g>
		</g>
		<g>
			<g>
				<g>
					<path style="fill:#407BFF;" d="M129.17,149.64v6.35c0.78,0,0.78,1.22,0,1.22c-2.42,0-4.84,0.02-7.26,0.03v-8.81
						c2.42,0,4.84,0,7.26,0C129.95,148.42,129.95,149.64,129.17,149.64z"/>
					<path style="opacity:0.3;fill:#FFFFFF;" d="M129.17,149.64v6.35c0.78,0,0.78,1.22,0,1.22c-2.42,0-4.84,0.02-7.26,0.03v-8.81
						c2.42,0,4.84,0,7.26,0C129.95,148.42,129.95,149.64,129.17,149.64z"/>
				</g>
				<rect x="123.53" y="149.65" style="fill:#407BFF;" width="5.64" height="6.34"/>
				<rect x="123.53" y="149.65" style="opacity:0.6;fill:#FFFFFF;" width="5.64" height="6.34"/>
			</g>
			<path style="fill:#407BFF;" d="M124.71,149.03H93.56c-1.34,0-2.43,1.69-2.43,3.78c0,2.09,1.09,3.78,2.43,3.78h31.15V149.03z"/>
			<path style="opacity:0.9;fill:#FFFFFF;" d="M124.71,149.03H93.56c-1.34,0-2.43,1.69-2.43,3.78c0,2.09,1.09,3.78,2.43,3.78h31.15
				V149.03z"/>
			<g>
				<g>
					<path style="fill:#407BFF;" d="M124.71,157.21c-6.4,0-24.41,0.12-30.81,0c-4.39-0.08-4.62-8.49-0.32-8.78c3-0.21,6.08,0,9.09,0
						c3.48,0,18.56,0,22.04,0c0.78,0,0.78,1.22,0,1.22c-6.07,0-23.73,0-29.8,0c-1.4,0-2.41,0.02-2.95,1.67
						c-0.47,1.43-0.32,4.36,1.6,4.68c0.21,0.03,0.45,0,0.66,0c3.31,0,6.62,0,9.93,0c2.99,0,17.57,0,20.56,0
						C125.49,155.99,125.49,157.21,124.71,157.21L124.71,157.21z"/>
				</g>
			</g>
		</g>
		<g>
			<g>
				<g>
					<path style="fill:#407BFF;" d="M133.56,158.74v7.56c0.93,0,0.93,1.45,0,1.45c-2.88,0-5.76,0.02-8.64,0.04v-10.49
						c2.88,0,5.76,0,8.64,0C134.49,157.29,134.49,158.74,133.56,158.74z"/>
					<path style="opacity:0.3;fill:#FFFFFF;" d="M133.56,158.74v7.56c0.93,0,0.93,1.45,0,1.45c-2.88,0-5.76,0.02-8.64,0.04v-10.49
						c2.88,0,5.76,0,8.64,0C134.49,157.29,134.49,158.74,133.56,158.74z"/>
				</g>
				<rect x="126.85" y="158.75" style="fill:#407BFF;" width="6.71" height="7.55"/>
				<rect x="126.85" y="158.75" style="opacity:0.6;fill:#FFFFFF;" width="6.71" height="7.55"/>
			</g>
			<path style="fill:#407BFF;" d="M128.25,158.02H91.19c-1.6,0-2.9,2.02-2.9,4.5c0,2.49,1.3,4.5,2.9,4.5h37.07V158.02z"/>
			<path style="opacity:0.9;fill:#FFFFFF;" d="M128.25,158.02H91.19c-1.6,0-2.9,2.02-2.9,4.5c0,2.49,1.3,4.5,2.9,4.5h37.07V158.02z"
				/>
			<g>
				<g>
					<path style="fill:#407BFF;" d="M128.25,167.75c-7.62,0-29.04,0.14-36.66,0c-5.22-0.09-5.5-10.1-0.38-10.45
						c3.57-0.24,7.24,0,10.82,0c4.15,0,22.08,0,26.23,0c0.93,0,0.93,1.45,0,1.45c-7.22,0-28.24,0-35.46,0
						c-1.67,0-2.87,0.02-3.51,1.99c-0.56,1.71-0.38,5.19,1.91,5.57c0.25,0.04,0.54,0,0.78,0c3.94,0,7.88,0,11.82,0
						c3.56,0,20.91,0,24.47,0C129.19,166.3,129.19,167.75,128.25,167.75L128.25,167.75z"/>
				</g>
			</g>
			<g style="opacity:0.2;">
				<g>
					<path d="M128.25,167.75c-7.62,0-29.04,0.14-36.66,0c-5.22-0.09-5.5-10.1-0.38-10.45c3.57-0.24,7.24,0,10.82,0
						c4.15,0,22.08,0,26.23,0c0.93,0,0.93,1.45,0,1.45c-7.22,0-28.24,0-35.46,0c-1.67,0-2.87,0.02-3.51,1.99
						c-0.56,1.71-0.38,5.19,1.91,5.57c0.25,0.04,0.54,0,0.78,0c3.94,0,7.88,0,11.82,0c3.56,0,20.91,0,24.47,0
						C129.19,166.3,129.19,167.75,128.25,167.75L128.25,167.75z"/>
				</g>
			</g>
		</g>
	</g>
</g>
<g id="Character">
	<g>
		<g>
			<g>
				<polygon style="fill:#EBB376;" points="196.83,299.95 194.16,316.02 186.42,316.04 187.43,299.08 				"/>
				<g>
					<path style="fill:#263238;" d="M183.46,316.5c-0.94,0.11-1.93,0.05-2.28-0.32c-0.19-0.22-0.22-0.53-0.08-0.78
						c0.1-0.22,0.29-0.4,0.51-0.48c1.22-0.49,4.03,0.7,4.15,0.76c0.07,0.03,0.11,0.1,0.11,0.18c-0.01,0.08-0.06,0.14-0.13,0.16
						C185,316.25,184.24,316.41,183.46,316.5z M182.09,315.18c-0.12,0.01-0.23,0.04-0.34,0.08c-0.15,0.04-0.26,0.15-0.32,0.29
						c-0.11,0.24-0.05,0.34,0.01,0.39c0.41,0.45,2.31,0.24,3.69-0.1C184.18,315.43,183.14,315.21,182.09,315.18z"/>
					<path style="fill:#263238;" d="M185.72,316.02c-0.02,0.01-0.05,0.01-0.08,0c-0.95-0.3-2.95-1.72-2.89-2.59
						c-0.01-0.21,0.12-0.47,0.61-0.58c0.35-0.08,0.73-0.01,1.03,0.19c1.05,0.68,1.49,2.69,1.51,2.78c0.01,0.06-0.01,0.13-0.06,0.17
						C185.81,316.02,185.76,316.03,185.72,316.02z M183.52,313.18l-0.1,0c-0.32,0.06-0.32,0.2-0.33,0.24
						c0.01,0.52,1.35,1.66,2.35,2.1c-0.19-0.84-0.63-1.61-1.27-2.2C183.97,313.21,183.75,313.15,183.52,313.18L183.52,313.18z"/>
					<path style="fill:#407BFF;" d="M186.4,314.88l8.24-0.96c0.31-0.04,0.6,0.15,0.71,0.44l2.27,6.53c0.21,0.58-0.1,1.21-0.67,1.42
						c-0.07,0.03-0.15,0.04-0.23,0.05c-2.97,0.29-5.63,0.44-9.33,0.87c-4.36,0.51-3.19,0.9-8.31,1.57c-3.08,0.4-4.06-3.05-2.77-3.37
						c5.91-1.45,6.32-3.33,8.38-5.75C185.13,315.21,185.74,314.92,186.4,314.88z"/>
				</g>
				<polygon style="opacity:0.1;" points="195.12,310.21 186.82,309.28 187.43,299.08 196.83,299.95 				"/>
				<path style="fill:#407BFF;" d="M239.66,216.65c0,0-48.77,1.45-50.73,14.86c-1.96,13.41-3.66,74.27-3.66,74.27l11.35,1.37
					c0,0,7.04-33.82,11.13-68.28c0,0,51.84,3.15,54.35-4.1c2.51-7.26,0.08-18.04,0.08-18.04L239.66,216.65z"/>
				<path style="opacity:0.3;enable-background:new    ;" d="M239.66,216.65c0,0-48.77,1.45-50.73,14.86
					c-1.96,13.41-3.66,74.27-3.66,74.27l11.35,1.37c0,0,7.04-33.82,11.13-68.28c0,0,51.84,3.15,54.35-4.1
					c2.51-7.26,0.08-18.04,0.08-18.04L239.66,216.65z"/>
				<g>
					<polygon style="fill:#407BFF;" points="197.75,308.6 183.85,307 183.92,302.01 198.76,303.38 					"/>
				</g>
				<path style="opacity:0.4;" d="M213.6,235.09c-0.01,0.12-0.03,0.24-0.04,0.37c-0.02-2.01,0.05-3.69,0.23-4.92
					c1.32-8.99,24.59-12.95,34.15-14.2l11.65,0.04c0,0,2.06,9.11-0.07,15.25C257.41,237.76,213.6,235.09,213.6,235.09z"/>
			</g>
			<g>
				<polygon style="fill:#EBB376;" points="224.26,300.36 224.5,318.08 216.76,318.29 214.85,299.66 				"/>
				<g>
					<path style="fill:#263238;" d="M213.1,317.71c-1-0.02-2.03-0.22-2.35-0.66c-0.17-0.25-0.15-0.59,0.03-0.83
						c0.14-0.22,0.36-0.37,0.61-0.43c1.35-0.34,4.12,1.31,4.24,1.38c0.07,0.04,0.1,0.12,0.09,0.2c-0.02,0.08-0.08,0.14-0.16,0.15
						C214.74,317.67,213.92,317.73,213.1,317.71z M211.85,316.13c-0.12,0-0.25,0.01-0.36,0.04c-0.16,0.02-0.3,0.12-0.38,0.26
						c-0.15,0.23-0.1,0.35-0.05,0.42c0.36,0.53,2.39,0.58,3.88,0.42C214,316.69,212.95,316.31,211.85,316.13z"/>
					<path style="fill:#263238;" d="M215.53,317.53c-0.03,0.01-0.05,0-0.08-0.01c-0.95-0.44-2.85-2.22-2.66-3.12
						c0.02-0.22,0.19-0.48,0.72-0.52c0.38-0.03,0.76,0.09,1.05,0.34c1.01,0.86,1.18,3.03,1.19,3.13c0,0.07-0.03,0.13-0.09,0.17
						C215.62,317.54,215.57,317.54,215.53,317.53z M213.63,314.24l-0.11-0.01c-0.34,0.02-0.37,0.16-0.38,0.21
						c-0.06,0.54,1.18,1.93,2.16,2.54c-0.08-0.91-0.43-1.78-1.02-2.48C214.1,314.33,213.87,314.24,213.63,314.24L213.63,314.24z"/>
					<path style="fill:#407BFF;" d="M216.4,316.42l8.76,0.17c0.33,0.01,0.61,0.24,0.68,0.56l1.45,7.16
						c0.13,0.63-0.27,1.26-0.91,1.39c-0.08,0.02-0.16,0.03-0.25,0.02c-3.16-0.11-5.96-0.34-9.9-0.41c-4.64-0.09-3.47,0.49-8.93,0.47
						c-3.29-0.02-3.82-3.77-2.42-3.93c6.4-0.68,7.09-2.6,9.6-4.83C215.03,316.6,215.71,316.38,216.4,316.42z"/>
				</g>
				<path style="fill:#263238;" d="M252.35,217.61c0,0-43.25,3.94-45.21,17.35c-1.96,13.41,7.1,72.04,7.1,72.04l11.32,0.46
					c0,0,1.35-39.83,0.4-65.15c0,0,46.35,1.56,48.87-5.7c2.51-7.26,0.04-18.94,0.04-18.94L252.35,217.61z"/>
				<path style="fill:#407BFF;" d="M252.35,217.61c0,0-43.25,3.94-45.21,17.35c-1.96,13.41,7.1,72.04,7.1,72.04l11.32,0.46
					c0,0,1.35-39.83,0.4-65.15c0,0,39.99,3.17,49.29-3.65c10.2-7.48-1.12-23.46-1.12-23.46L252.35,217.61z"/>
				<path style="opacity:0.2;enable-background:new    ;" d="M252.35,217.61c0,0-43.25,3.94-45.21,17.35
					c-1.96,13.41,7.1,72.04,7.1,72.04l11.32,0.46c0,0,1.35-39.83,0.4-65.15c0,0,39.99,3.17,49.29-3.65
					c10.2-7.48-1.12-23.46-1.12-23.46L252.35,217.61z"/>
				<polygon style="opacity:0.1;" points="216.01,310.61 215.57,306.38 224.34,306.81 224.39,310.79 				"/>
				<g>
					<polygon style="fill:#407BFF;" points="226.87,308.92 212.96,308.41 212.36,303.01 227.64,303.66 					"/>
				</g>
			</g>
		</g>
		<g>
			<g>
				<g>
					<g>
						<g>
							<g>
								<g>
									<g id="Character--inject-2_1_">
										<g>
											<path style="fill:#FF8B7B;" d="M254.09,172.91c-1.2,0.24-2.25,0.44-3.37,0.61c-1.12,0.17-2.18,0.32-3.32,0.46
												c-2.19,0.26-4.41,0.43-6.7,0.55c-4.71,0.29-9.44-0.05-14.05-1.03c-1.31-0.31-2.59-0.73-3.82-1.26
												c-1.39-0.59-2.69-1.38-3.85-2.35c-5.36-4.88-5.51-20.86-5.36-21.54l5.2,0.52c0,0,4.01,14.72,9.97,14.92
												c1.81,0.29,3.65,0.43,5.49,0.41c1.92,0.03,3.9-0.06,5.9-0.21c2-0.15,4-0.37,6.01-0.59l3.01-0.4
												c0.99-0.14,2.05-0.29,2.9-0.43L254.09,172.91z"/>
											<path style="fill:#FF8B7B;" d="M220.11,145.58l-0.74-3.82l-6.64,3.93c0,0,0.98,6.58,4.21,6.04l1.41-1.39
												C219.58,149.08,220.22,147.35,220.11,145.58z"/>
											<polygon style="fill:#FF8B7B;" points="216.93,138.22 210.3,139.81 212.74,145.72 219.38,141.79 											"/>
										</g>
										<path style="fill:#263238;" d="M262.29,172.64c3.62-6.1-0.68-11.58-10.3-11.87c-5.16-0.24-10.32-0.01-15.44,0.69
											l0.5,16.53C246.35,178.8,258.58,178.9,262.29,172.64z"/>
										<g>
											<g>
												<path style="fill:#263238;" d="M263.04,161.98l7.99,1.12l9.33,3.58c2.91,1.11,4.72,4.04,4.41,7.14
													c-0.6,6.09-7.44,47.37-7.44,47.37l0,0c-8.65,0.46-17.32-0.36-25.73-2.44l-8.49-2.1c3.12-22.86,4.26-41.69,6.12-49.16
													c0.74-3.01,3.39-5.16,6.49-5.25L263.04,161.98z"/>
											</g>
										</g>
										<path style="opacity:0.2;enable-background:new    ;" d="M282.41,170.31c-6.06-2.95-9.88,11.62-10.01,23.04
											c-0.04,3.31,3.96,3.06,5.41,2.61C282.58,194.5,289.01,177.2,282.41,170.31z"/>
										<g>
											<g>
												<path style="fill:#FF8B7B;" d="M295.61,244.02l-6.57,4.82l-0.01,0.01c0,0-8.54-4.78-6.76-7.59l2.15-0.69
													c1.9-0.54,4.04-0.52,6.3,0.57l3.83,2.26l1.05,0.61L295.61,244.02z"/>
												<path style="fill:#FF8B7B;" d="M297.29,249.49l-2.05,1.29c-0.45,0.29-1.02,0.33-1.51,0.12l-4.7-2.05l5.51-5.44
													l1.05,0.61l0.01,0.01l2.16,3.19C298.28,247.97,298.05,249,297.29,249.49z"/>
											</g>
											<g>
												<path style="fill:#FF8B7B;" d="M277.6,181.81c0.06,5.86,5.03,59.35,4.65,59.69l6.49,0.02c0,0-0.95-57.2-0.85-61.55
													C288,175.17,277.56,177.72,277.6,181.81z"/>
											</g>
										</g>
										<path style="fill:#263238;" d="M285.62,168.46c-6.01-3.8-9.99,0.74-10.57,10.31c-0.39,5.15-0.31,10.32,0.23,15.45
											l14.94-0.4C291.27,184.56,291.76,172.35,285.62,168.46z"/>
										<path style="fill:#407BFF;" d="M276.13,165.7c-0.15,1.43-1.02,2.71-2.11,3.65c-1.09,0.94-2.39,1.59-3.68,2.23
											c-1.64,0.81-3.54,1.64-5.22,0.91c-1.55-0.67-2.24-1.75-2.34-3.85c-2.02,1.82-2.4,2.91-3.95,2.62
											c-1.01-0.19-1.66-1.15-2.14-2.06c-0.86-1.6-1.2-2.47-0.92-4.26c0.44-2.91,3.47-4.87,6.41-5.1
											c3.15-0.24,5.76,0.23,8.82,0.73C273.55,161.01,276.46,162.68,276.13,165.7z"/>
										<path style="fill:#FF8B7B;" d="M273.29,150.29l-4.62,3.01l-6.28,4.1c0.27,0.7,0.41,1.45,0.41,2.21
											c0.06,1.68-0.52,3.15-2.5,3.8c-0.82,0.13-2.26,3.79,2.59,4.75c3.28,0.75,5.64,0.21,8.08-1.21
											c1.2-0.92,1.61-1.48,1.08-3.01C270.53,159.62,271.82,154.35,273.29,150.29z"/>
										<path style="opacity:0.2;enable-background:new    ;" d="M263.92,156.38l4.1-3.09c0,0.13,0.01,0.26,0.01,0.41
											c-0.02,0.6-0.08,1.19-0.19,1.77c-0.38,2-2.93,3.98-5.02,4.54l-0.03-0.43c-0.02-0.71-0.14-1.42-0.35-2.1
											c-0.02-0.04-0.04-0.08-0.06-0.11L263.92,156.38z"/>
										<path style="fill:#263238;" d="M261.88,146.14c-1.48-6.36-0.06-9.4-2.08-13.1c-1.33-1.04-4.63,1.06-4.07,6.19
											C256.28,144.35,261.88,146.14,261.88,146.14z"/>
										<path style="fill:#FF8B7B;" d="M275.08,143.08c-1.31,6.62-1.79,10.55-5.62,13.42c-5.78,4.35-13.56,0-14.22-6.91
											c-0.6-6.22,1.7-15.98,8.59-17.61c5.04-1.16,10.06,1.98,11.22,7.02C275.36,140.35,275.37,141.74,275.08,143.08z"/>
										<path style="fill:#263238;" d="M274.39,148.81l-3.62,0.29l0.54-4.91l-2.48-2.39l0.16-6.1c0,0,5.87-0.4,8.23-0.13
											c0.83,0.09,3.08,2.98,3.27,4c0.52,2.89-0.85,5.74-3.2,7.5C276.39,147.75,275.41,148.33,274.39,148.81z"/>
										<path style="fill:#FF8B7B;" d="M277.1,148.33c-0.55,1.41-1.59,2.56-2.93,3.25c-1.74,0.86-3.03-1-2.71-2.89
											c0.3-1.69,1.81-3.84,3.64-3.92C276.92,144.7,277.77,146.57,277.1,148.33z"/>
										<path style="fill:#263238;" d="M263.68,143.23c-0.05,0.56-0.39,1-0.76,0.97c-0.37-0.03-0.58-0.48-0.57-1.04
											c0.02-0.56,0.39-1,0.76-0.98C263.48,142.2,263.73,142.67,263.68,143.23z"/>
										<path style="fill:#263238;" d="M257.25,142.58c-0.05,0.57-0.39,1-0.76,0.98c-0.37-0.03-0.62-0.49-0.57-1.04
											c0.05-0.55,0.4-0.99,0.76-0.97C257.04,141.57,257.3,142.02,257.25,142.58z"/>
										<path style="fill:#FF5652;" d="M259.43,144.15c-0.81,1.37-1.79,2.63-2.93,3.75c0.71,0.89,2.2,0.71,2.2,0.71L259.43,144.15
											z"/>
										<path style="fill:#263238;" d="M260.42,151.26c1.31-0.13,2.51-0.79,3.32-1.83c0.05-0.07,0.04-0.18-0.04-0.23
											c-0.08-0.05-0.18-0.03-0.23,0.04c-0.9,1.12-2.26,1.76-3.7,1.73c-0.09-0.01-0.17,0.06-0.18,0.15
											c-0.01,0.09,0.06,0.17,0.15,0.18c0.01,0,0.02,0,0.02,0C259.98,151.3,260.2,151.29,260.42,151.26z"/>
										<path style="fill:#263238;" d="M265.9,142.02c0.06,0,0.11-0.02,0.16-0.05c0.15-0.1,0.19-0.31,0.09-0.46
											c-0.56-0.89-1.54-1.44-2.59-1.47c-0.18,0-0.33,0.15-0.33,0.33c0,0,0,0.01,0,0.01c0.01,0.18,0.16,0.32,0.35,0.32
											c0.82,0.04,1.58,0.47,2.02,1.17C265.66,141.98,265.78,142.03,265.9,142.02z"/>
										<path style="fill:#263238;" d="M258.44,139.9c0.03-0.04,0.06-0.1,0.07-0.15c0-0.18-0.15-0.33-0.33-0.34
											c-1.05-0.05-2.06,0.44-2.68,1.3c-0.1,0.15-0.06,0.36,0.09,0.45c0.15,0.1,0.36,0.06,0.45-0.09
											c0.5-0.66,1.29-1.03,2.12-0.99C258.28,140.06,258.38,140,258.44,139.9z"/>
										<path style="fill:#263238;" d="M255.48,127.77c-0.91,0.19-1.41,1.3-1.42,2.23c-0.01,0.93,0.55,1.84,1.38,2.25
											c3.48,1.74,6.44,3.9,12.57,4.16c0.78,0.03,1.54,0.12,2.32,0.05c2.49-0.2,4.99-0.4,7.48-0.61c0.8-1.11,0.88-2.9,0.26-4.12
											C275.79,127.24,265.21,125.69,255.48,127.77z"/>
									</g>
								</g>
							</g>
						</g>
					</g>
				</g>
			</g>
			<polygon style="fill:#F0F0F0;" points="217.7,157.79 217.73,157.82 217.77,157.81 217.74,157.79 			"/>
		</g>
	</g>
</g>
</svg>
