<?xml version="1.0" encoding="utf-8"?>
<!-- Generator: Adobe Illustrator 23.0.0, SVG Export Plug-In . SVG Version: 6.00 Build 0)  -->
<svg version="1.1" xmlns="http://www.w3.org/2000/svg" xmlns:xlink="http://www.w3.org/1999/xlink" x="0px" y="0px"
	 viewBox="0 0 797 797" style="enable-background:new 0 0 797 797;" xml:space="preserve">
<style type="text/css">
	.st0{display:none;}
	.st1{display:inline;fill:#E0E0E0;}
	.st2{fill:#F5F5F5;}
	.st3{fill:#E0E0E0;}
	.st4{fill:#263238;}
	.st5{fill:#455A64;}
	.st6{fill:#077FEA;}
	.st7{fill:#EBEBEB;}
	.st8{fill:#FFBE9D;}
	.st9{fill:#EB996E;}
	.st10{opacity:0.3;}
	.st11{fill:#FAFAFA;}
	.st12{opacity:0.8;}
	.st13{fill-rule:evenodd;clip-rule:evenodd;fill:#E0E0E0;}
	.st14{fill-rule:evenodd;clip-rule:evenodd;fill:#F5F5F5;}
	.st15{fill:#FFFFFF;}
</style>
<g id="Background_Complete">
</g>
<g id="Background_Simple" class="st0">
	<path class="st1" d="M610.6,250.7l-2.8-4.6c-22.9-37.2-64-59.7-107.6-57.5c-6.1,0.3-12.2,1.1-18.2,2.4c-40.1,8.5-75,38.4-89.4,76.8
		c-8.5,22.6-10.9,48.5-27,66.4c-21,23.3-56.7,24-88,23.1c-31.4-1-67-0.1-87.9,23.2c-13.1,14.6-17.3,35.5-16.2,55.1
		c2.8,51.9,39.4,98.4,86,121.5c46.6,23.1,101.5,25.1,152.5,15c71.5-14.2,139.4-53.3,180.3-113.6C632.9,398,643.2,315.8,610.6,250.7z
		"/>
</g>
<g id="Floor">
</g>
<g id="Servers">
</g>
<g id="Character">
</g>
<g id="Plant">
</g>
<g id="Speech_Bubble">
</g>
<g id="Panel_Servers">
	<g>
		<g>
			<g>
				<g>
					<g>
						<g>
							<g>
								<path class="st2" d="M78.2,762.1c20-11.1,26.8-34.8,28.4-56.6c0.3-3.6,1.1-7.4-0.3-10.8c-1.4-3.4-5.2-6-8.6-4.8
									c-2.8,1-4.3,4-6.1,6.4c-2.4,3.2-5.7,5.8-9.4,7.2c-2.4,1-5.4,1.4-7.5-0.1c-2.9-2.1-2.9-6.4-2.5-10c0.8-6.7,1.5-13.4,2.3-20.2
									c0.4-3.6,0.8-7.3,0-10.8s-2.9-7-6.2-8.3c-3.3-1.3-7.8,0.2-8.9,3.7c-0.5,1.4-0.3,3-0.6,4.5c-0.3,1.5-1.1,3.1-2.6,3.3
									c-1.5,0.3-2.8-0.9-3.8-2.1c-3.3-4-5.4-9-7.2-13.9c-1.9-4.9-3.7-9.9-6.6-14.3c-3-4.3-7.3-8-12.4-8.8
									c-5.1-0.8-11,1.8-12.8,6.7c-1.8,4.9,0.6,10.4,3.4,14.9c4.1,6.6,9.2,12.6,15.1,17.8c1.1,0.9,2.2,1.9,2.5,3.3
									c0.5,2.5-2,4.6-4.5,5.2c-2.8,0.6-5.7,0-8.5,0.1c-2.8,0-6,1-7.4,3.5c-1.9,3.5,0.8,7.7,3.6,10.6c5.5,5.7,12.1,10.4,19.2,13.9
									c2.6,1.3,5.3,2.4,7.2,4.5c1.9,2.1,2.9,5.5,1.3,7.9c-1.6,2.4-5,2.9-7.7,2.1c-2.7-0.8-5.1-2.6-7.6-3.9
									c-4.8-2.4-11.2-2.7-14.8,1.2c-2.4,2.6-3,6.5-2.3,10c0.7,3.5,2.5,6.6,4.5,9.5c7,10.2,16.4,18.7,27.4,23.9
									C55.8,762.9,66.4,765.1,78.2,762.1"/>
							</g>
						</g>
					</g>
				</g>
			</g>
			<g>
				<g>
					<g>
						<g>
							<g>
								<g>
									<path class="st3" d="M74.1,747.9c-2-11.3-5.3-23.5-9.2-36.2c-1-3.2-1.9-6.3-2.9-9.4c-1-3.1-1.9-6.1-3-9
										c-2.2-5.9-4.8-11.3-7.3-16.4c-2.6-5.1-5.2-9.9-7.7-14.3c-2.5-4.4-4.9-8.5-7.3-12.1c-4.7-7.3-9.2-12.7-12.4-16.2
										c-1.6-1.8-2.9-3.1-3.8-4.1c-0.4-0.4-0.8-0.8-1-1c-0.2-0.2-0.4-0.3-0.4-0.3c0,0,0.1,0.1,0.3,0.4c0.2,0.3,0.6,0.6,1,1.1
										c0.9,0.9,2.1,2.3,3.7,4.1c3.2,3.6,7.6,9.1,12.2,16.3c2.3,3.6,4.7,7.7,7.2,12.1c2.5,4.4,5.1,9.2,7.7,14.3
										c2.6,5.1,5.1,10.5,7.3,16.4c1.1,2.9,2,5.9,3,9c0.9,3.1,1.9,6.2,2.9,9.4c3.9,12.6,7.1,24.8,9.2,36.1"/>
								</g>
							</g>
						</g>
					</g>
				</g>
			</g>
			<g>
				<g>
					<g>
						<g>
							<g>
								<g>
									<path class="st3" d="M58.8,693.3c0,0,0.2-0.5,0.5-1.5c0.3-1,0.7-2.4,1.1-4.2c0.9-3.5,1.9-8.5,3.1-13.9
										c1.1-5.4,2.3-10.3,3.2-13.9c0.5-1.8,0.9-3.2,1.1-4.2c0.3-1,0.4-1.5,0.4-1.5c0,0-0.3,0.5-0.6,1.5c-0.4,1-0.8,2.4-1.3,4.1
										c-1.1,3.5-2.3,8.4-3.4,13.8c-1.1,5.4-2.1,10.2-2.9,13.9c-0.4,1.7-0.7,3.1-0.9,4.2C58.9,692.7,58.8,693.2,58.8,693.3z"/>
								</g>
							</g>
						</g>
					</g>
				</g>
			</g>
			<g>
				<g>
					<g>
						<g>
							<g>
								<g>
									<path class="st3" d="M13.3,679.7c0,0,0.6,0.2,1.8,0.4c1.2,0.2,2.9,0.6,5,1c4.2,0.9,10,2.4,16.2,4.2
										c6.3,1.9,11.9,3.9,15.9,5.4c2,0.8,3.6,1.4,4.7,1.8c1.1,0.4,1.7,0.7,1.8,0.6c0,0-0.6-0.4-1.7-0.9c-1.1-0.5-2.7-1.2-4.7-2.1
										c-4-1.7-9.6-3.7-15.9-5.6c-6.3-1.9-12.1-3.3-16.3-4.1c-2.1-0.4-3.8-0.7-5-0.8C14,679.7,13.3,679.7,13.3,679.7z"/>
								</g>
							</g>
						</g>
					</g>
				</g>
			</g>
			<g>
				<g>
					<g>
						<g>
							<g>
								<g>
									<path class="st3" d="M73.6,746.9c0,0,0.1-0.2,0.4-0.5c0.3-0.4,0.6-1,1-1.6c0.8-1.4,2-3.4,3.4-6c2.8-5.1,6.4-12.2,10.4-20.1
										c3.9-7.9,7.5-15.1,10.2-20.2c1.3-2.5,2.4-4.5,3.2-6.1c0.3-0.7,0.6-1.2,0.9-1.7c0.2-0.4,0.3-0.6,0.3-0.6
										c0,0-0.1,0.2-0.4,0.5c-0.3,0.4-0.6,1-1,1.6c-0.8,1.4-2,3.4-3.4,6c-2.8,5.1-6.4,12.2-10.4,20.2c-3.9,7.9-7.5,15.1-10.2,20.2
										c-1.3,2.5-2.4,4.5-3.2,6.1c-0.3,0.7-0.6,1.2-0.9,1.7C73.7,746.7,73.6,746.9,73.6,746.9z"/>
								</g>
							</g>
						</g>
					</g>
				</g>
			</g>
			<g>
				<g>
					<g>
						<g>
							<g>
								<g>
									<path class="st3" d="M14,720.6c0,0,0.2,0.1,0.6,0.3c0.5,0.2,1,0.5,1.7,0.8c1.6,0.7,3.8,1.7,6.4,2.8
										c5.4,2.4,12.8,5.8,21,9.5c8.2,3.8,15.6,7.1,21,9.4c2.7,1.1,4.9,2,6.5,2.6c0.7,0.3,1.3,0.5,1.8,0.7c0.4,0.1,0.6,0.2,0.6,0.2
										c0,0-0.2-0.1-0.6-0.3c-0.5-0.2-1-0.5-1.7-0.8c-1.6-0.7-3.8-1.7-6.4-2.8c-5.4-2.4-12.8-5.8-21-9.6c-8.2-3.8-15.6-7.1-21-9.4
										c-2.7-1.1-4.9-2-6.5-2.6c-0.7-0.3-1.3-0.5-1.8-0.7C14.2,720.6,14,720.6,14,720.6z"/>
								</g>
							</g>
						</g>
					</g>
				</g>
			</g>
		</g>
		<g>
			<g>
				<path class="st4" d="M472.6,763.5c0,0.1-99,0.3-221.1,0.3c-122.1,0-221.1-0.1-221.1-0.3s99-0.3,221.1-0.3
					C373.6,763.3,472.6,763.4,472.6,763.5z"/>
			</g>
		</g>
		<g>
			<rect x="79.5" y="576" class="st4" width="125.4" height="167.5"/>
		</g>
		<g>
			<rect x="61.2" y="603.5" class="st5" width="137.1" height="34"/>
		</g>
		<g>
			<rect x="67.3" y="610.5" class="st4" width="27" height="4.2"/>
		</g>
		<g>
			<rect x="67.3" y="617.7" class="st4" width="27" height="4.2"/>
		</g>
		<g>
			<rect x="67.3" y="625.1" class="st4" width="27" height="4.2"/>
		</g>
		<g>
			<path class="st4" d="M104.9,613c0,0.9-0.7,1.5-1.5,1.5c-0.9,0-1.5-0.7-1.5-1.5c0-0.9,0.7-1.5,1.5-1.5
				C104.2,611.5,104.9,612.2,104.9,613z"/>
		</g>
		<g>
			<path class="st4" d="M111.8,613c0,0.9-0.7,1.5-1.5,1.5c-0.9,0-1.5-0.7-1.5-1.5c0-0.9,0.7-1.5,1.5-1.5
				C111.1,611.5,111.8,612.2,111.8,613z"/>
		</g>
		<g>
			<path class="st4" d="M118.6,613c0,0.9-0.7,1.5-1.5,1.5c-0.9,0-1.5-0.7-1.5-1.5c0-0.9,0.7-1.5,1.5-1.5
				C117.9,611.5,118.6,612.2,118.6,613z"/>
		</g>
		<g>
			<path class="st4" d="M125.4,613c0,0.9-0.7,1.5-1.5,1.5c-0.9,0-1.5-0.7-1.5-1.5c0-0.9,0.7-1.5,1.5-1.5
				C124.7,611.5,125.4,612.2,125.4,613z"/>
		</g>
		<g>
			<path class="st4" d="M178.4,613c0,0.9-0.7,1.5-1.5,1.5s-1.5-0.7-1.5-1.5c0-0.9,0.7-1.5,1.5-1.5S178.4,612.2,178.4,613z"/>
		</g>
		<g>
			<path class="st4" d="M185.4,613c0,0.9-0.7,1.5-1.5,1.5s-1.5-0.7-1.5-1.5c0-0.9,0.7-1.5,1.5-1.5S185.4,612.2,185.4,613z"/>
		</g>
		<g>
			<path class="st4" d="M132.3,613c0,0.9-0.7,1.5-1.5,1.5s-1.5-0.7-1.5-1.5c0-0.9,0.7-1.5,1.5-1.5S132.3,612.2,132.3,613z"/>
		</g>
		<g>
			<path class="st4" d="M165.8,613c0,0.9-0.7,1.5-1.5,1.5s-1.5-0.7-1.5-1.5c0-0.9,0.7-1.5,1.5-1.5S165.8,612.2,165.8,613z"/>
		</g>
		<g>
			<path class="st2" d="M139.1,613c0,0.9-0.7,1.5-1.5,1.5s-1.5-0.7-1.5-1.5c0-0.9,0.7-1.5,1.5-1.5S139.1,612.2,139.1,613z"/>
		</g>
		<g>
			<path class="st2" d="M145.9,613c0,0.9-0.7,1.5-1.5,1.5s-1.5-0.7-1.5-1.5c0-0.9,0.7-1.5,1.5-1.5S145.9,612.2,145.9,613z"/>
		</g>
		<g>
			<path class="st2" d="M159.8,613c0,0.9-0.7,1.5-1.5,1.5c-0.9,0-1.5-0.7-1.5-1.5c0-0.9,0.7-1.5,1.5-1.5
				C159.1,611.5,159.8,612.2,159.8,613z"/>
		</g>
		<g>
			<path class="st2" d="M191,613c0,0.9-0.7,1.5-1.5,1.5c-0.9,0-1.5-0.7-1.5-1.5c0-0.9,0.7-1.5,1.5-1.5
				C190.3,611.5,191,612.2,191,613z"/>
		</g>
		<g>
			<path class="st6" d="M152.8,613c0,0.9-0.7,1.5-1.5,1.5s-1.5-0.7-1.5-1.5c0-0.9,0.7-1.5,1.5-1.5S152.8,612.2,152.8,613z"/>
		</g>
		<g>
			<path class="st6" d="M172.3,613c0,0.9-0.7,1.5-1.5,1.5s-1.5-0.7-1.5-1.5c0-0.9,0.7-1.5,1.5-1.5S172.3,612.2,172.3,613z"/>
		</g>
		<g>
			<path class="st4" d="M187.9,620.5c0-0.9,0.7-1.5,1.5-1.5c0.9,0,1.5,0.7,1.5,1.5c0,0.9-0.7,1.5-1.5,1.5
				C188.6,622.1,187.9,621.4,187.9,620.5z"/>
		</g>
		<g>
			<path class="st4" d="M181.1,620.5c0-0.9,0.7-1.5,1.5-1.5c0.9,0,1.5,0.7,1.5,1.5c0,0.9-0.7,1.5-1.5,1.5
				C181.8,622.1,181.1,621.4,181.1,620.5z"/>
		</g>
		<g>
			<path class="st4" d="M174.3,620.5c0-0.9,0.7-1.5,1.5-1.5c0.9,0,1.5,0.7,1.5,1.5c0,0.9-0.7,1.5-1.5,1.5
				C175,622.1,174.3,621.4,174.3,620.5z"/>
		</g>
		<g>
			<path class="st4" d="M167.4,620.5c0-0.9,0.7-1.5,1.5-1.5c0.9,0,1.5,0.7,1.5,1.5c0,0.9-0.7,1.5-1.5,1.5
				C168.1,622.1,167.4,621.4,167.4,620.5z"/>
		</g>
		<g>
			<path class="st4" d="M114.5,620.5c0-0.9,0.7-1.5,1.5-1.5c0.9,0,1.5,0.7,1.5,1.5c0,0.9-0.7,1.5-1.5,1.5
				C115.2,622.1,114.5,621.4,114.5,620.5z"/>
		</g>
		<g>
			<path class="st4" d="M107.5,620.5c0-0.9,0.7-1.5,1.5-1.5s1.5,0.7,1.5,1.5c0,0.9-0.7,1.5-1.5,1.5S107.5,621.4,107.5,620.5z"/>
		</g>
		<g>
			<path class="st4" d="M160.6,620.5c0-0.9,0.7-1.5,1.5-1.5s1.5,0.7,1.5,1.5c0,0.9-0.7,1.5-1.5,1.5S160.6,621.4,160.6,620.5z"/>
		</g>
		<g>
			<path class="st4" d="M127,620.5c0-0.9,0.7-1.5,1.5-1.5c0.9,0,1.5,0.7,1.5,1.5c0,0.9-0.7,1.5-1.5,1.5
				C127.7,622.1,127,621.4,127,620.5z"/>
		</g>
		<g>
			<path class="st2" d="M153.8,620.5c0-0.9,0.7-1.5,1.5-1.5c0.9,0,1.5,0.7,1.5,1.5c0,0.9-0.7,1.5-1.5,1.5
				C154.4,622.1,153.8,621.4,153.8,620.5z"/>
		</g>
		<g>
			<path class="st2" d="M146.9,620.5c0-0.9,0.7-1.5,1.5-1.5c0.9,0,1.5,0.7,1.5,1.5c0,0.9-0.7,1.5-1.5,1.5
				C147.6,622.1,146.9,621.4,146.9,620.5z"/>
		</g>
		<g>
			<path class="st2" d="M133.1,620.5c0-0.9,0.7-1.5,1.5-1.5s1.5,0.7,1.5,1.5c0,0.9-0.7,1.5-1.5,1.5S133.1,621.4,133.1,620.5z"/>
		</g>
		<g>
			<path class="st2" d="M101.8,620.5c0-0.9,0.7-1.5,1.5-1.5c0.9,0,1.5,0.7,1.5,1.5c0,0.9-0.7,1.5-1.5,1.5
				C102.5,622.1,101.8,621.4,101.8,620.5z"/>
		</g>
		<g>
			<path class="st6" d="M140.1,620.5c0-0.9,0.7-1.5,1.5-1.5c0.9,0,1.5,0.7,1.5,1.5c0,0.9-0.7,1.5-1.5,1.5
				C140.8,622.1,140.1,621.4,140.1,620.5z"/>
		</g>
		<g>
			<path class="st6" d="M120.5,620.5c0-0.9,0.7-1.5,1.5-1.5c0.9,0,1.5,0.7,1.5,1.5c0,0.9-0.7,1.5-1.5,1.5
				C121.2,622.1,120.5,621.4,120.5,620.5z"/>
		</g>
		<g>
			<path class="st4" d="M104.9,627.1c0,0.9-0.7,1.5-1.5,1.5c-0.9,0-1.5-0.7-1.5-1.5c0-0.9,0.7-1.5,1.5-1.5
				C104.2,625.6,104.9,626.3,104.9,627.1z"/>
		</g>
		<g>
			<circle class="st4" cx="110.2" cy="627.1" r="1.5"/>
		</g>
		<g>
			<circle class="st4" cx="117" cy="627.1" r="1.5"/>
		</g>
		<g>
			<path class="st4" d="M125.4,627.1c0,0.9-0.7,1.5-1.5,1.5c-0.9,0-1.5-0.7-1.5-1.5c0-0.9,0.7-1.5,1.5-1.5
				C124.7,625.6,125.4,626.3,125.4,627.1z"/>
		</g>
		<g>
			<circle class="st4" cx="176.8" cy="627.1" r="1.5"/>
		</g>
		<g>
			<circle class="st4" cx="183.8" cy="627.1" r="1.5"/>
		</g>
		<g>
			<path class="st4" d="M132.3,627.1c0,0.9-0.7,1.5-1.5,1.5s-1.5-0.7-1.5-1.5c0-0.9,0.7-1.5,1.5-1.5S132.3,626.3,132.3,627.1z"/>
		</g>
		<g>
			<path class="st4" d="M165.8,627.1c0,0.9-0.7,1.5-1.5,1.5s-1.5-0.7-1.5-1.5c0-0.9,0.7-1.5,1.5-1.5S165.8,626.3,165.8,627.1z"/>
		</g>
		<g>
			<circle class="st2" cx="137.5" cy="627.1" r="1.5"/>
		</g>
		<g>
			<path class="st2" d="M145.9,627.1c0,0.9-0.7,1.5-1.5,1.5s-1.5-0.7-1.5-1.5c0-0.9,0.7-1.5,1.5-1.5S145.9,626.3,145.9,627.1z"/>
		</g>
		<g>
			<path class="st2" d="M159.8,627.1c0,0.9-0.7,1.5-1.5,1.5c-0.9,0-1.5-0.7-1.5-1.5c0-0.9,0.7-1.5,1.5-1.5
				C159.1,625.6,159.8,626.3,159.8,627.1z"/>
		</g>
		<g>
			<path class="st2" d="M191,627.1c0,0.9-0.7,1.5-1.5,1.5c-0.9,0-1.5-0.7-1.5-1.5c0-0.9,0.7-1.5,1.5-1.5
				C190.3,625.6,191,626.3,191,627.1z"/>
		</g>
		<g>
			<path class="st6" d="M152.8,627.1c0,0.9-0.7,1.5-1.5,1.5s-1.5-0.7-1.5-1.5c0-0.9,0.7-1.5,1.5-1.5S152.8,626.3,152.8,627.1z"/>
		</g>
		<g>
			<circle class="st6" cx="170.8" cy="627.1" r="1.5"/>
		</g>
		<g>
			<rect x="61.2" y="645.5" class="st5" width="137.1" height="34"/>
		</g>
		<g>
			<path class="st4" d="M104.6,654.7c0,0.9-0.7,1.5-1.5,1.5s-1.5-0.7-1.5-1.5s0.7-1.5,1.5-1.5S104.6,653.8,104.6,654.7z"/>
		</g>
		<g>
			<path class="st4" d="M111.4,654.7c0,0.9-0.7,1.5-1.5,1.5s-1.5-0.7-1.5-1.5s0.7-1.5,1.5-1.5S111.4,653.8,111.4,654.7z"/>
		</g>
		<g>
			<path class="st4" d="M118.3,654.7c0,0.9-0.7,1.5-1.5,1.5s-1.5-0.7-1.5-1.5s0.7-1.5,1.5-1.5S118.3,653.8,118.3,654.7z"/>
		</g>
		<g>
			<path class="st4" d="M125.1,654.7c0,0.9-0.7,1.5-1.5,1.5c-0.9,0-1.5-0.7-1.5-1.5s0.7-1.5,1.5-1.5
				C124.4,653.1,125.1,653.8,125.1,654.7z"/>
		</g>
		<g>
			<path class="st4" d="M178,654.7c0,0.9-0.7,1.5-1.5,1.5s-1.5-0.7-1.5-1.5s0.7-1.5,1.5-1.5S178,653.8,178,654.7z"/>
		</g>
		<g>
			<path class="st4" d="M185,654.7c0,0.9-0.7,1.5-1.5,1.5c-0.9,0-1.5-0.7-1.5-1.5s0.7-1.5,1.5-1.5C184.3,653.1,185,653.8,185,654.7z
				"/>
		</g>
		<g>
			<path class="st4" d="M131.9,654.7c0,0.9-0.7,1.5-1.5,1.5s-1.5-0.7-1.5-1.5s0.7-1.5,1.5-1.5S131.9,653.8,131.9,654.7z"/>
		</g>
		<g>
			<path class="st4" d="M165.5,654.7c0,0.9-0.7,1.5-1.5,1.5c-0.9,0-1.5-0.7-1.5-1.5s0.7-1.5,1.5-1.5
				C164.8,653.1,165.5,653.8,165.5,654.7z"/>
		</g>
		<g>
			<path class="st2" d="M138.8,654.7c0,0.9-0.7,1.5-1.5,1.5s-1.5-0.7-1.5-1.5s0.7-1.5,1.5-1.5S138.8,653.8,138.8,654.7z"/>
		</g>
		<g>
			<path class="st2" d="M145.6,654.7c0,0.9-0.7,1.5-1.5,1.5s-1.5-0.7-1.5-1.5s0.7-1.5,1.5-1.5S145.6,653.8,145.6,654.7z"/>
		</g>
		<g>
			<path class="st2" d="M159.5,654.7c0,0.9-0.7,1.5-1.5,1.5c-0.9,0-1.5-0.7-1.5-1.5s0.7-1.5,1.5-1.5
				C158.8,653.1,159.5,653.8,159.5,654.7z"/>
		</g>
		<g>
			<path class="st2" d="M190.7,654.7c0,0.9-0.7,1.5-1.5,1.5c-0.9,0-1.5-0.7-1.5-1.5s0.7-1.5,1.5-1.5
				C190,653.1,190.7,653.8,190.7,654.7z"/>
		</g>
		<g>
			<path class="st6" d="M152.4,654.7c0,0.9-0.7,1.5-1.5,1.5s-1.5-0.7-1.5-1.5s0.7-1.5,1.5-1.5S152.4,653.8,152.4,654.7z"/>
		</g>
		<g>
			<path class="st6" d="M172,654.7c0,0.9-0.7,1.5-1.5,1.5s-1.5-0.7-1.5-1.5s0.7-1.5,1.5-1.5S172,653.8,172,654.7z"/>
		</g>
		<g>
			<path class="st4" d="M187.6,662.1c0-0.9,0.7-1.5,1.5-1.5c0.9,0,1.5,0.7,1.5,1.5c0,0.9-0.7,1.5-1.5,1.5
				C188.3,663.7,187.6,663,187.6,662.1z"/>
		</g>
		<g>
			<circle class="st4" cx="182.3" cy="662.1" r="1.5"/>
		</g>
		<g>
			<path class="st4" d="M173.9,662.1c0-0.9,0.7-1.5,1.5-1.5c0.9,0,1.5,0.7,1.5,1.5c0,0.9-0.7,1.5-1.5,1.5
				C174.6,663.7,173.9,663,173.9,662.1z"/>
		</g>
		<g>
			<path class="st4" d="M167.1,662.1c0-0.9,0.7-1.5,1.5-1.5c0.9,0,1.5,0.7,1.5,1.5c0,0.9-0.7,1.5-1.5,1.5
				C167.8,663.7,167.1,663,167.1,662.1z"/>
		</g>
		<g>
			<path class="st4" d="M114.1,662.1c0-0.9,0.7-1.5,1.5-1.5c0.9,0,1.5,0.7,1.5,1.5c0,0.9-0.7,1.5-1.5,1.5
				C114.8,663.7,114.1,663,114.1,662.1z"/>
		</g>
		<g>
			<path class="st4" d="M107.2,662.1c0-0.9,0.7-1.5,1.5-1.5s1.5,0.7,1.5,1.5c0,0.9-0.7,1.5-1.5,1.5S107.2,663,107.2,662.1z"/>
		</g>
		<g>
			<circle class="st4" cx="161.8" cy="662.1" r="1.5"/>
		</g>
		<g>
			<path class="st4" d="M126.7,662.1c0-0.9,0.7-1.5,1.5-1.5c0.9,0,1.5,0.7,1.5,1.5c0,0.9-0.7,1.5-1.5,1.5
				C127.4,663.7,126.7,663,126.7,662.1z"/>
		</g>
		<g>
			<path class="st2" d="M153.4,662.1c0-0.9,0.7-1.5,1.5-1.5c0.9,0,1.5,0.7,1.5,1.5c0,0.9-0.7,1.5-1.5,1.5
				C154.1,663.7,153.4,663,153.4,662.1z"/>
		</g>
		<g>
			<path class="st2" d="M146.6,662.1c0-0.9,0.7-1.5,1.5-1.5c0.9,0,1.5,0.7,1.5,1.5c0,0.9-0.7,1.5-1.5,1.5
				C147.3,663.7,146.6,663,146.6,662.1z"/>
		</g>
		<g>
			<circle class="st2" cx="134.3" cy="662.1" r="1.5"/>
		</g>
		<g>
			<path class="st2" d="M101.5,662.1c0-0.9,0.7-1.5,1.5-1.5s1.5,0.7,1.5,1.5c0,0.9-0.7,1.5-1.5,1.5S101.5,663,101.5,662.1z"/>
		</g>
		<g>
			<path class="st6" d="M139.7,662.1c0-0.9,0.7-1.5,1.5-1.5c0.9,0,1.5,0.7,1.5,1.5c0,0.9-0.7,1.5-1.5,1.5
				C140.4,663.7,139.7,663,139.7,662.1z"/>
		</g>
		<g>
			<path class="st6" d="M120.2,662.1c0-0.9,0.7-1.5,1.5-1.5c0.9,0,1.5,0.7,1.5,1.5c0,0.9-0.7,1.5-1.5,1.5
				C120.9,663.7,120.2,663,120.2,662.1z"/>
		</g>
		<g>
			<path class="st4" d="M104.6,668.8c0,0.9-0.7,1.5-1.5,1.5s-1.5-0.7-1.5-1.5c0-0.9,0.7-1.5,1.5-1.5S104.6,667.9,104.6,668.8z"/>
		</g>
		<g>
			<path class="st4" d="M111.4,668.8c0,0.9-0.7,1.5-1.5,1.5s-1.5-0.7-1.5-1.5c0-0.9,0.7-1.5,1.5-1.5S111.4,667.9,111.4,668.8z"/>
		</g>
		<g>
			<path class="st4" d="M118.3,668.8c0,0.9-0.7,1.5-1.5,1.5s-1.5-0.7-1.5-1.5c0-0.9,0.7-1.5,1.5-1.5S118.3,667.9,118.3,668.8z"/>
		</g>
		<g>
			<path class="st4" d="M125.1,668.8c0,0.9-0.7,1.5-1.5,1.5c-0.9,0-1.5-0.7-1.5-1.5c0-0.9,0.7-1.5,1.5-1.5
				C124.4,667.2,125.1,667.9,125.1,668.8z"/>
		</g>
		<g>
			<path class="st4" d="M178,668.8c0,0.9-0.7,1.5-1.5,1.5s-1.5-0.7-1.5-1.5c0-0.9,0.7-1.5,1.5-1.5S178,667.9,178,668.8z"/>
		</g>
		<g>
			<path class="st4" d="M185,668.8c0,0.9-0.7,1.5-1.5,1.5c-0.9,0-1.5-0.7-1.5-1.5c0-0.9,0.7-1.5,1.5-1.5
				C184.3,667.2,185,667.9,185,668.8z"/>
		</g>
		<g>
			<path class="st4" d="M131.9,668.8c0,0.9-0.7,1.5-1.5,1.5s-1.5-0.7-1.5-1.5c0-0.9,0.7-1.5,1.5-1.5S131.9,667.9,131.9,668.8z"/>
		</g>
		<g>
			<path class="st4" d="M165.5,668.8c0,0.9-0.7,1.5-1.5,1.5c-0.9,0-1.5-0.7-1.5-1.5c0-0.9,0.7-1.5,1.5-1.5
				C164.8,667.2,165.5,667.9,165.5,668.8z"/>
		</g>
		<g>
			<path class="st2" d="M138.8,668.8c0,0.9-0.7,1.5-1.5,1.5s-1.5-0.7-1.5-1.5c0-0.9,0.7-1.5,1.5-1.5S138.8,667.9,138.8,668.8z"/>
		</g>
		<g>
			<path class="st2" d="M145.6,668.8c0,0.9-0.7,1.5-1.5,1.5s-1.5-0.7-1.5-1.5c0-0.9,0.7-1.5,1.5-1.5S145.6,667.9,145.6,668.8z"/>
		</g>
		<g>
			<path class="st2" d="M159.5,668.8c0,0.9-0.7,1.5-1.5,1.5c-0.9,0-1.5-0.7-1.5-1.5c0-0.9,0.7-1.5,1.5-1.5
				C158.8,667.2,159.5,667.9,159.5,668.8z"/>
		</g>
		<g>
			<path class="st2" d="M190.7,668.8c0,0.9-0.7,1.5-1.5,1.5c-0.9,0-1.5-0.7-1.5-1.5c0-0.9,0.7-1.5,1.5-1.5
				C190,667.2,190.7,667.9,190.7,668.8z"/>
		</g>
		<g>
			<path class="st6" d="M152.4,668.8c0,0.9-0.7,1.5-1.5,1.5s-1.5-0.7-1.5-1.5c0-0.9,0.7-1.5,1.5-1.5S152.4,667.9,152.4,668.8z"/>
		</g>
		<g>
			<path class="st6" d="M172,668.8c0,0.9-0.7,1.5-1.5,1.5s-1.5-0.7-1.5-1.5c0-0.9,0.7-1.5,1.5-1.5S172,667.9,172,668.8z"/>
		</g>
		<g>
			<rect x="67.3" y="652.5" class="st4" width="27" height="4.2"/>
		</g>
		<g>
			<rect x="67.3" y="659.7" class="st4" width="27" height="4.2"/>
		</g>
		<g>
			<rect x="67.3" y="667" class="st4" width="27" height="4.2"/>
		</g>
		<g>
			<rect x="61.2" y="687.5" class="st5" width="137.1" height="34"/>
		</g>
		<g>
			<rect x="67.3" y="694.5" class="st4" width="27" height="4.2"/>
		</g>
		<g>
			<rect x="67.3" y="701.6" class="st4" width="27" height="4.2"/>
		</g>
		<g>
			<rect x="67.3" y="709" class="st4" width="27" height="4.2"/>
		</g>
		<g>
			<path class="st4" d="M104.1,696.7c0,0.9-0.7,1.5-1.5,1.5s-1.5-0.7-1.5-1.5c0-0.9,0.7-1.5,1.5-1.5S104.1,695.8,104.1,696.7z"/>
		</g>
		<g>
			<path class="st4" d="M110.9,696.7c0,0.9-0.7,1.5-1.5,1.5c-0.9,0-1.5-0.7-1.5-1.5c0-0.9,0.7-1.5,1.5-1.5
				C110.2,695.1,110.9,695.8,110.9,696.7z"/>
		</g>
		<g>
			<path class="st4" d="M117.8,696.7c0,0.9-0.7,1.5-1.5,1.5c-0.9,0-1.5-0.7-1.5-1.5c0-0.9,0.7-1.5,1.5-1.5
				C117.1,695.1,117.8,695.8,117.8,696.7z"/>
		</g>
		<g>
			<path class="st4" d="M124.6,696.7c0,0.9-0.7,1.5-1.5,1.5c-0.9,0-1.5-0.7-1.5-1.5c0-0.9,0.7-1.5,1.5-1.5
				C123.9,695.1,124.6,695.8,124.6,696.7z"/>
		</g>
		<g>
			<path class="st4" d="M177.5,696.7c0,0.9-0.7,1.5-1.5,1.5c-0.9,0-1.5-0.7-1.5-1.5c0-0.9,0.7-1.5,1.5-1.5
				C176.9,695.1,177.5,695.8,177.5,696.7z"/>
		</g>
		<g>
			<path class="st4" d="M184.5,696.7c0,0.9-0.7,1.5-1.5,1.5c-0.9,0-1.5-0.7-1.5-1.5c0-0.9,0.7-1.5,1.5-1.5
				C183.8,695.1,184.5,695.8,184.5,696.7z"/>
		</g>
		<g>
			<path class="st4" d="M131.4,696.7c0,0.9-0.7,1.5-1.5,1.5s-1.5-0.7-1.5-1.5c0-0.9,0.7-1.5,1.5-1.5S131.4,695.8,131.4,696.7z"/>
		</g>
		<g>
			<path class="st4" d="M165,696.7c0,0.9-0.7,1.5-1.5,1.5s-1.5-0.7-1.5-1.5c0-0.9,0.7-1.5,1.5-1.5S165,695.8,165,696.7z"/>
		</g>
		<g>
			<path class="st2" d="M138.3,696.7c0,0.9-0.7,1.5-1.5,1.5c-0.9,0-1.5-0.7-1.5-1.5c0-0.9,0.7-1.5,1.5-1.5
				C137.6,695.1,138.3,695.8,138.3,696.7z"/>
		</g>
		<g>
			<path class="st2" d="M145.1,696.7c0,0.9-0.7,1.5-1.5,1.5c-0.9,0-1.5-0.7-1.5-1.5c0-0.9,0.7-1.5,1.5-1.5
				C144.4,695.1,145.1,695.8,145.1,696.7z"/>
		</g>
		<g>
			<path class="st2" d="M159,696.7c0,0.9-0.7,1.5-1.5,1.5c-0.9,0-1.5-0.7-1.5-1.5c0-0.9,0.7-1.5,1.5-1.5
				C158.3,695.1,159,695.8,159,696.7z"/>
		</g>
		<g>
			<path class="st2" d="M190.2,696.7c0,0.9-0.7,1.5-1.5,1.5s-1.5-0.7-1.5-1.5c0-0.9,0.7-1.5,1.5-1.5S190.2,695.8,190.2,696.7z"/>
		</g>
		<g>
			<path class="st6" d="M151.9,696.7c0,0.9-0.7,1.5-1.5,1.5s-1.5-0.7-1.5-1.5c0-0.9,0.7-1.5,1.5-1.5S151.9,695.8,151.9,696.7z"/>
		</g>
		<g>
			<path class="st6" d="M171.5,696.7c0,0.9-0.7,1.5-1.5,1.5c-0.9,0-1.5-0.7-1.5-1.5c0-0.9,0.7-1.5,1.5-1.5
				C170.8,695.1,171.5,695.8,171.5,696.7z"/>
		</g>
		<g>
			<path class="st4" d="M187.1,704.1c0-0.9,0.7-1.5,1.5-1.5s1.5,0.7,1.5,1.5c0,0.9-0.7,1.5-1.5,1.5S187.1,705,187.1,704.1z"/>
		</g>
		<g>
			<path class="st4" d="M180.3,704.1c0-0.9,0.7-1.5,1.5-1.5c0.9,0,1.5,0.7,1.5,1.5c0,0.9-0.7,1.5-1.5,1.5
				C180.9,705.7,180.3,705,180.3,704.1z"/>
		</g>
		<g>
			<path class="st4" d="M173.4,704.1c0-0.9,0.7-1.5,1.5-1.5c0.9,0,1.5,0.7,1.5,1.5c0,0.9-0.7,1.5-1.5,1.5
				C174.1,705.7,173.4,705,173.4,704.1z"/>
		</g>
		<g>
			<path class="st4" d="M166.6,704.1c0-0.9,0.7-1.5,1.5-1.5c0.9,0,1.5,0.7,1.5,1.5c0,0.9-0.7,1.5-1.5,1.5
				C167.3,705.7,166.6,705,166.6,704.1z"/>
		</g>
		<g>
			<path class="st4" d="M113.6,704.1c0-0.9,0.7-1.5,1.5-1.5c0.9,0,1.5,0.7,1.5,1.5c0,0.9-0.7,1.5-1.5,1.5
				C114.3,705.7,113.6,705,113.6,704.1z"/>
		</g>
		<g>
			<path class="st4" d="M106.7,704.1c0-0.9,0.7-1.5,1.5-1.5s1.5,0.7,1.5,1.5c0,0.9-0.7,1.5-1.5,1.5S106.7,705,106.7,704.1z"/>
		</g>
		<g>
			<path class="st4" d="M159.8,704.1c0-0.9,0.7-1.5,1.5-1.5c0.9,0,1.5,0.7,1.5,1.5c0,0.9-0.7,1.5-1.5,1.5
				C160.4,705.7,159.8,705,159.8,704.1z"/>
		</g>
		<g>
			<path class="st4" d="M126.2,704.1c0-0.9,0.7-1.5,1.5-1.5c0.9,0,1.5,0.7,1.5,1.5c0,0.9-0.7,1.5-1.5,1.5
				C126.9,705.7,126.2,705,126.2,704.1z"/>
		</g>
		<g>
			<path class="st2" d="M152.9,704.1c0-0.9,0.7-1.5,1.5-1.5c0.9,0,1.5,0.7,1.5,1.5c0,0.9-0.7,1.5-1.5,1.5
				C153.6,705.7,152.9,705,152.9,704.1z"/>
		</g>
		<g>
			<path class="st2" d="M146.1,704.1c0-0.9,0.7-1.5,1.5-1.5c0.9,0,1.5,0.7,1.5,1.5c0,0.9-0.7,1.5-1.5,1.5
				C146.8,705.7,146.1,705,146.1,704.1z"/>
		</g>
		<g>
			<path class="st2" d="M132.2,704.1c0-0.9,0.7-1.5,1.5-1.5s1.5,0.7,1.5,1.5c0,0.9-0.7,1.5-1.5,1.5S132.2,705,132.2,704.1z"/>
		</g>
		<g>
			<path class="st2" d="M101,704.1c0-0.9,0.7-1.5,1.5-1.5s1.5,0.7,1.5,1.5c0,0.9-0.7,1.5-1.5,1.5S101,705,101,704.1z"/>
		</g>
		<g>
			<path class="st6" d="M139.3,704.1c0-0.9,0.7-1.5,1.5-1.5c0.9,0,1.5,0.7,1.5,1.5c0,0.9-0.7,1.5-1.5,1.5
				C139.9,705.7,139.3,705,139.3,704.1z"/>
		</g>
		<g>
			<path class="st6" d="M119.7,704.1c0-0.9,0.7-1.5,1.5-1.5c0.9,0,1.5,0.7,1.5,1.5c0,0.9-0.7,1.5-1.5,1.5
				C120.4,705.7,119.7,705,119.7,704.1z"/>
		</g>
		<g>
			<path class="st4" d="M104.1,710.8c0,0.9-0.7,1.5-1.5,1.5s-1.5-0.7-1.5-1.5s0.7-1.5,1.5-1.5S104.1,709.9,104.1,710.8z"/>
		</g>
		<g>
			<path class="st4" d="M110.9,710.8c0,0.9-0.7,1.5-1.5,1.5c-0.9,0-1.5-0.7-1.5-1.5s0.7-1.5,1.5-1.5
				C110.2,709.2,110.9,709.9,110.9,710.8z"/>
		</g>
		<g>
			<path class="st4" d="M117.8,710.8c0,0.9-0.7,1.5-1.5,1.5c-0.9,0-1.5-0.7-1.5-1.5s0.7-1.5,1.5-1.5
				C117.1,709.2,117.8,709.9,117.8,710.8z"/>
		</g>
		<g>
			<path class="st4" d="M124.6,710.8c0,0.9-0.7,1.5-1.5,1.5c-0.9,0-1.5-0.7-1.5-1.5s0.7-1.5,1.5-1.5
				C123.9,709.2,124.6,709.9,124.6,710.8z"/>
		</g>
		<g>
			<path class="st4" d="M177.5,710.8c0,0.9-0.7,1.5-1.5,1.5c-0.9,0-1.5-0.7-1.5-1.5s0.7-1.5,1.5-1.5
				C176.9,709.2,177.5,709.9,177.5,710.8z"/>
		</g>
		<g>
			<path class="st4" d="M184.5,710.8c0,0.9-0.7,1.5-1.5,1.5c-0.9,0-1.5-0.7-1.5-1.5s0.7-1.5,1.5-1.5
				C183.8,709.2,184.5,709.9,184.5,710.8z"/>
		</g>
		<g>
			<path class="st4" d="M131.4,710.8c0,0.9-0.7,1.5-1.5,1.5s-1.5-0.7-1.5-1.5s0.7-1.5,1.5-1.5S131.4,709.9,131.4,710.8z"/>
		</g>
		<g>
			<path class="st4" d="M165,710.8c0,0.9-0.7,1.5-1.5,1.5s-1.5-0.7-1.5-1.5s0.7-1.5,1.5-1.5S165,709.9,165,710.8z"/>
		</g>
		<g>
			<path class="st2" d="M138.3,710.8c0,0.9-0.7,1.5-1.5,1.5c-0.9,0-1.5-0.7-1.5-1.5s0.7-1.5,1.5-1.5
				C137.6,709.2,138.3,709.9,138.3,710.8z"/>
		</g>
		<g>
			<path class="st2" d="M145.1,710.8c0,0.9-0.7,1.5-1.5,1.5c-0.9,0-1.5-0.7-1.5-1.5s0.7-1.5,1.5-1.5
				C144.4,709.2,145.1,709.9,145.1,710.8z"/>
		</g>
		<g>
			<path class="st2" d="M159,710.8c0,0.9-0.7,1.5-1.5,1.5c-0.9,0-1.5-0.7-1.5-1.5s0.7-1.5,1.5-1.5C158.3,709.2,159,709.9,159,710.8z
				"/>
		</g>
		<g>
			<path class="st2" d="M190.2,710.8c0,0.9-0.7,1.5-1.5,1.5s-1.5-0.7-1.5-1.5s0.7-1.5,1.5-1.5S190.2,709.9,190.2,710.8z"/>
		</g>
		<g>
			<path class="st6" d="M151.9,710.8c0,0.9-0.7,1.5-1.5,1.5s-1.5-0.7-1.5-1.5s0.7-1.5,1.5-1.5S151.9,709.9,151.9,710.8z"/>
		</g>
		<g>
			<path class="st6" d="M171.5,710.8c0,0.9-0.7,1.5-1.5,1.5c-0.9,0-1.5-0.7-1.5-1.5s0.7-1.5,1.5-1.5
				C170.8,709.2,171.5,709.9,171.5,710.8z"/>
		</g>
		<g>
			<polygon class="st4" points="218.9,637.5 198.3,637.5 198.3,603.5 218.9,603.5 			"/>
		</g>
		<g>
			<polygon class="st4" points="218.9,679.2 198.3,679.3 198.3,645.2 218.9,645.2 			"/>
		</g>
		<g>
			<polygon class="st4" points="218.9,721.4 198.3,721.5 198.3,687.5 218.9,687.4 			"/>
		</g>
		<g>
			<rect x="68.3" y="583.4" class="st4" width="27" height="4.2"/>
		</g>
		<g>
			<polygon class="st4" points="218.9,596.1 198.3,596.2 198.3,561.9 218.9,561.9 			"/>
		</g>
		<g>
			<rect x="62.2" y="561.9" class="st5" width="137.1" height="34"/>
		</g>
		<g>
			<rect x="68.3" y="568.9" class="st4" width="27" height="4.2"/>
		</g>
		<g>
			<rect x="68.3" y="576" class="st4" width="27" height="4.2"/>
		</g>
		<g>
			<path class="st4" d="M105.9,571.4c0,0.9-0.7,1.5-1.5,1.5c-0.9,0-1.5-0.7-1.5-1.5c0-0.9,0.7-1.5,1.5-1.5
				C105.2,569.8,105.9,570.5,105.9,571.4z"/>
		</g>
		<g>
			<path class="st4" d="M112.8,571.4c0,0.9-0.7,1.5-1.5,1.5c-0.9,0-1.5-0.7-1.5-1.5c0-0.9,0.7-1.5,1.5-1.5
				C112.1,569.8,112.8,570.5,112.8,571.4z"/>
		</g>
		<g>
			<path class="st4" d="M119.6,571.4c0,0.9-0.7,1.5-1.5,1.5c-0.9,0-1.5-0.7-1.5-1.5c0-0.9,0.7-1.5,1.5-1.5
				C118.9,569.8,119.6,570.5,119.6,571.4z"/>
		</g>
		<g>
			<path class="st4" d="M126.4,571.4c0,0.9-0.7,1.5-1.5,1.5c-0.9,0-1.5-0.7-1.5-1.5c0-0.9,0.7-1.5,1.5-1.5
				C125.7,569.8,126.4,570.5,126.4,571.4z"/>
		</g>
		<g>
			<path class="st4" d="M179.4,571.4c0,0.9-0.7,1.5-1.5,1.5c-0.9,0-1.5-0.7-1.5-1.5c0-0.9,0.7-1.5,1.5-1.5
				C178.7,569.8,179.4,570.5,179.4,571.4z"/>
		</g>
		<g>
			<path class="st4" d="M186.3,571.4c0,0.9-0.7,1.5-1.5,1.5c-0.9,0-1.5-0.7-1.5-1.5c0-0.9,0.7-1.5,1.5-1.5
				C185.7,569.8,186.3,570.5,186.3,571.4z"/>
		</g>
		<g>
			<path class="st4" d="M133.3,571.4c0,0.9-0.7,1.5-1.5,1.5c-0.9,0-1.5-0.7-1.5-1.5c0-0.9,0.7-1.5,1.5-1.5
				C132.6,569.8,133.3,570.5,133.3,571.4z"/>
		</g>
		<g>
			<path class="st4" d="M166.8,571.4c0,0.9-0.7,1.5-1.5,1.5c-0.9,0-1.5-0.7-1.5-1.5c0-0.9,0.7-1.5,1.5-1.5
				C166.1,569.8,166.8,570.5,166.8,571.4z"/>
		</g>
		<g>
			<path class="st2" d="M140.1,571.4c0,0.9-0.7,1.5-1.5,1.5c-0.9,0-1.5-0.7-1.5-1.5c0-0.9,0.7-1.5,1.5-1.5
				C139.4,569.8,140.1,570.5,140.1,571.4z"/>
		</g>
		<g>
			<path class="st2" d="M146.9,571.4c0,0.9-0.7,1.5-1.5,1.5c-0.9,0-1.5-0.7-1.5-1.5c0-0.9,0.7-1.5,1.5-1.5
				C146.2,569.8,146.9,570.5,146.9,571.4z"/>
		</g>
		<g>
			<path class="st2" d="M160.8,571.4c0,0.9-0.7,1.5-1.5,1.5c-0.9,0-1.5-0.7-1.5-1.5c0-0.9,0.7-1.5,1.5-1.5
				C160.1,569.8,160.8,570.5,160.8,571.4z"/>
		</g>
		<g>
			<path class="st2" d="M192,571.4c0,0.9-0.7,1.5-1.5,1.5c-0.9,0-1.5-0.7-1.5-1.5c0-0.9,0.7-1.5,1.5-1.5
				C191.3,569.8,192,570.5,192,571.4z"/>
		</g>
		<g>
			<path class="st6" d="M153.8,571.4c0,0.9-0.7,1.5-1.5,1.5s-1.5-0.7-1.5-1.5c0-0.9,0.7-1.5,1.5-1.5S153.8,570.5,153.8,571.4z"/>
		</g>
		<g>
			<path class="st6" d="M173.3,571.4c0,0.9-0.7,1.5-1.5,1.5c-0.9,0-1.5-0.7-1.5-1.5c0-0.9,0.7-1.5,1.5-1.5
				C172.6,569.8,173.3,570.5,173.3,571.4z"/>
		</g>
		<g>
			<path class="st4" d="M188.9,578.8c0-0.9,0.7-1.5,1.5-1.5c0.9,0,1.5,0.7,1.5,1.5c0,0.9-0.7,1.5-1.5,1.5
				C189.6,580.4,188.9,579.7,188.9,578.8z"/>
		</g>
		<g>
			<circle class="st4" cx="183.6" cy="578.8" r="1.5"/>
		</g>
		<g>
			<path class="st4" d="M175.2,578.8c0-0.9,0.7-1.5,1.5-1.5s1.5,0.7,1.5,1.5c0,0.9-0.7,1.5-1.5,1.5S175.2,579.7,175.2,578.8z"/>
		</g>
		<g>
			<path class="st4" d="M168.4,578.8c0-0.9,0.7-1.5,1.5-1.5s1.5,0.7,1.5,1.5c0,0.9-0.7,1.5-1.5,1.5S168.4,579.7,168.4,578.8z"/>
		</g>
		<g>
			<path class="st4" d="M115.5,578.8c0-0.9,0.7-1.5,1.5-1.5s1.5,0.7,1.5,1.5c0,0.9-0.7,1.5-1.5,1.5S115.5,579.7,115.5,578.8z"/>
		</g>
		<g>
			<path class="st4" d="M108.5,578.8c0-0.9,0.7-1.5,1.5-1.5c0.9,0,1.5,0.7,1.5,1.5c0,0.9-0.7,1.5-1.5,1.5
				C109.2,580.4,108.5,579.7,108.5,578.8z"/>
		</g>
		<g>
			<path class="st4" d="M161.6,578.8c0-0.9,0.7-1.5,1.5-1.5c0.9,0,1.5,0.7,1.5,1.5c0,0.9-0.7,1.5-1.5,1.5
				C162.3,580.4,161.6,579.7,161.6,578.8z"/>
		</g>
		<g>
			<circle class="st4" cx="129.6" cy="578.8" r="1.5"/>
		</g>
		<g>
			<circle class="st2" cx="156.3" cy="578.8" r="1.5"/>
		</g>
		<g>
			<circle class="st2" cx="149.5" cy="578.8" r="1.5"/>
		</g>
		<g>
			<path class="st2" d="M134.1,578.8c0-0.9,0.7-1.5,1.5-1.5c0.9,0,1.5,0.7,1.5,1.5c0,0.9-0.7,1.5-1.5,1.5
				C134.7,580.4,134.1,579.7,134.1,578.8z"/>
		</g>
		<g>
			<circle class="st2" cx="104.4" cy="578.8" r="1.5"/>
		</g>
		<g>
			<path class="st6" d="M141.1,578.8c0-0.9,0.7-1.5,1.5-1.5s1.5,0.7,1.5,1.5c0,0.9-0.7,1.5-1.5,1.5S141.1,579.7,141.1,578.8z"/>
		</g>
		<g>
			<path class="st6" d="M121.5,578.8c0-0.9,0.7-1.5,1.5-1.5c0.9,0,1.5,0.7,1.5,1.5c0,0.9-0.7,1.5-1.5,1.5
				C122.2,580.4,121.5,579.7,121.5,578.8z"/>
		</g>
		<g>
			<path class="st4" d="M105.9,585.5c0,0.9-0.7,1.5-1.5,1.5c-0.9,0-1.5-0.7-1.5-1.5s0.7-1.5,1.5-1.5
				C105.2,583.9,105.9,584.6,105.9,585.5z"/>
		</g>
		<g>
			<path class="st4" d="M112.8,585.5c0,0.9-0.7,1.5-1.5,1.5c-0.9,0-1.5-0.7-1.5-1.5s0.7-1.5,1.5-1.5
				C112.1,583.9,112.8,584.6,112.8,585.5z"/>
		</g>
		<g>
			<path class="st4" d="M119.6,585.5c0,0.9-0.7,1.5-1.5,1.5c-0.9,0-1.5-0.7-1.5-1.5s0.7-1.5,1.5-1.5
				C118.9,583.9,119.6,584.6,119.6,585.5z"/>
		</g>
		<g>
			<path class="st4" d="M126.4,585.5c0,0.9-0.7,1.5-1.5,1.5c-0.9,0-1.5-0.7-1.5-1.5s0.7-1.5,1.5-1.5
				C125.7,583.9,126.4,584.6,126.4,585.5z"/>
		</g>
		<g>
			<path class="st4" d="M179.4,585.5c0,0.9-0.7,1.5-1.5,1.5c-0.9,0-1.5-0.7-1.5-1.5s0.7-1.5,1.5-1.5
				C178.7,583.9,179.4,584.6,179.4,585.5z"/>
		</g>
		<g>
			<path class="st4" d="M186.3,585.5c0,0.9-0.7,1.5-1.5,1.5c-0.9,0-1.5-0.7-1.5-1.5s0.7-1.5,1.5-1.5
				C185.7,583.9,186.3,584.6,186.3,585.5z"/>
		</g>
		<g>
			<path class="st4" d="M133.3,585.5c0,0.9-0.7,1.5-1.5,1.5c-0.9,0-1.5-0.7-1.5-1.5s0.7-1.5,1.5-1.5
				C132.6,583.9,133.3,584.6,133.3,585.5z"/>
		</g>
		<g>
			<path class="st4" d="M166.8,585.5c0,0.9-0.7,1.5-1.5,1.5c-0.9,0-1.5-0.7-1.5-1.5s0.7-1.5,1.5-1.5
				C166.1,583.9,166.8,584.6,166.8,585.5z"/>
		</g>
		<g>
			<path class="st2" d="M140.1,585.5c0,0.9-0.7,1.5-1.5,1.5c-0.9,0-1.5-0.7-1.5-1.5s0.7-1.5,1.5-1.5
				C139.4,583.9,140.1,584.6,140.1,585.5z"/>
		</g>
		<g>
			<path class="st2" d="M146.9,585.5c0,0.9-0.7,1.5-1.5,1.5c-0.9,0-1.5-0.7-1.5-1.5s0.7-1.5,1.5-1.5
				C146.2,583.9,146.9,584.6,146.9,585.5z"/>
		</g>
		<g>
			<path class="st2" d="M160.8,585.5c0,0.9-0.7,1.5-1.5,1.5c-0.9,0-1.5-0.7-1.5-1.5s0.7-1.5,1.5-1.5
				C160.1,583.9,160.8,584.6,160.8,585.5z"/>
		</g>
		<g>
			<path class="st2" d="M192,585.5c0,0.9-0.7,1.5-1.5,1.5c-0.9,0-1.5-0.7-1.5-1.5s0.7-1.5,1.5-1.5C191.3,583.9,192,584.6,192,585.5z
				"/>
		</g>
		<g>
			<path class="st6" d="M153.8,585.5c0,0.9-0.7,1.5-1.5,1.5s-1.5-0.7-1.5-1.5s0.7-1.5,1.5-1.5S153.8,584.6,153.8,585.5z"/>
		</g>
		<g>
			<path class="st6" d="M173.3,585.5c0,0.9-0.7,1.5-1.5,1.5c-0.9,0-1.5-0.7-1.5-1.5s0.7-1.5,1.5-1.5
				C172.6,583.9,173.3,584.6,173.3,585.5z"/>
		</g>
		<polygon class="st4" points="217.6,764 197,764.1 197,730 217.6,730 		"/>
		<rect x="60.9" y="730" class="st5" width="137.1" height="34"/>
		<rect x="67" y="737" class="st4" width="27" height="4.2"/>
		<rect x="67" y="744.2" class="st4" width="27" height="4.2"/>
		<g>
			<path class="st4" d="M104.7,739.6c0,0.9-0.7,1.5-1.5,1.5c-0.9,0-1.5-0.7-1.5-1.5c0-0.9,0.7-1.5,1.5-1.5
				C104,738,104.7,738.7,104.7,739.6z"/>
		</g>
		<g>
			<path class="st4" d="M111.5,739.6c0,0.9-0.7,1.5-1.5,1.5c-0.9,0-1.5-0.7-1.5-1.5c0-0.9,0.7-1.5,1.5-1.5
				C110.8,738,111.5,738.7,111.5,739.6z"/>
		</g>
		<g>
			<path class="st4" d="M118.3,739.6c0,0.9-0.7,1.5-1.5,1.5s-1.5-0.7-1.5-1.5c0-0.9,0.7-1.5,1.5-1.5S118.3,738.7,118.3,739.6z"/>
		</g>
		<g>
			<path class="st4" d="M125.2,739.6c0,0.9-0.7,1.5-1.5,1.5c-0.9,0-1.5-0.7-1.5-1.5c0-0.9,0.7-1.5,1.5-1.5
				C124.5,738,125.2,738.7,125.2,739.6z"/>
		</g>
		<g>
			<path class="st4" d="M178.1,739.6c0,0.9-0.7,1.5-1.5,1.5c-0.9,0-1.5-0.7-1.5-1.5c0-0.9,0.7-1.5,1.5-1.5
				C177.4,738,178.1,738.7,178.1,739.6z"/>
		</g>
		<g>
			<path class="st4" d="M185.1,739.6c0,0.9-0.7,1.5-1.5,1.5s-1.5-0.7-1.5-1.5c0-0.9,0.7-1.5,1.5-1.5S185.1,738.7,185.1,739.6z"/>
		</g>
		<g>
			<path class="st4" d="M132,739.6c0,0.9-0.7,1.5-1.5,1.5c-0.9,0-1.5-0.7-1.5-1.5c0-0.9,0.7-1.5,1.5-1.5
				C131.3,738,132,738.7,132,739.6z"/>
		</g>
		<g>
			<path class="st4" d="M165.5,739.6c0,0.9-0.7,1.5-1.5,1.5c-0.9,0-1.5-0.7-1.5-1.5c0-0.9,0.7-1.5,1.5-1.5
				C164.9,738,165.5,738.7,165.5,739.6z"/>
		</g>
		<g>
			<path class="st2" d="M138.8,739.6c0,0.9-0.7,1.5-1.5,1.5c-0.9,0-1.5-0.7-1.5-1.5c0-0.9,0.7-1.5,1.5-1.5
				C138.1,738,138.8,738.7,138.8,739.6z"/>
		</g>
		<g>
			<path class="st2" d="M145.7,739.6c0,0.9-0.7,1.5-1.5,1.5c-0.9,0-1.5-0.7-1.5-1.5c0-0.9,0.7-1.5,1.5-1.5
				C145,738,145.7,738.7,145.7,739.6z"/>
		</g>
		<g>
			<path class="st2" d="M159.5,739.6c0,0.9-0.7,1.5-1.5,1.5c-0.9,0-1.5-0.7-1.5-1.5c0-0.9,0.7-1.5,1.5-1.5
				C158.8,738,159.5,738.7,159.5,739.6z"/>
		</g>
		<g>
			<path class="st2" d="M190.7,739.6c0,0.9-0.7,1.5-1.5,1.5c-0.9,0-1.5-0.7-1.5-1.5c0-0.9,0.7-1.5,1.5-1.5
				C190.1,738,190.7,738.7,190.7,739.6z"/>
		</g>
		<g>
			<path class="st6" d="M152.5,739.6c0,0.9-0.7,1.5-1.5,1.5c-0.9,0-1.5-0.7-1.5-1.5c0-0.9,0.7-1.5,1.5-1.5
				C151.8,738,152.5,738.7,152.5,739.6z"/>
		</g>
		<g>
			<path class="st6" d="M172.1,739.6c0,0.9-0.7,1.5-1.5,1.5s-1.5-0.7-1.5-1.5c0-0.9,0.7-1.5,1.5-1.5S172.1,738.7,172.1,739.6z"/>
		</g>
		<g>
			<path class="st4" d="M187.6,747c0-0.9,0.7-1.5,1.5-1.5c0.9,0,1.5,0.7,1.5,1.5c0,0.9-0.7,1.5-1.5,1.5
				C188.3,748.6,187.6,747.9,187.6,747z"/>
		</g>
		<g>
			<path class="st4" d="M180.8,747c0-0.9,0.7-1.5,1.5-1.5c0.9,0,1.5,0.7,1.5,1.5c0,0.9-0.7,1.5-1.5,1.5
				C181.5,748.6,180.8,747.9,180.8,747z"/>
		</g>
		<g>
			<path class="st4" d="M174,747c0-0.9,0.7-1.5,1.5-1.5c0.9,0,1.5,0.7,1.5,1.5c0,0.9-0.7,1.5-1.5,1.5C174.7,748.6,174,747.9,174,747
				z"/>
		</g>
		<g>
			<path class="st4" d="M167.1,747c0-0.9,0.7-1.5,1.5-1.5c0.9,0,1.5,0.7,1.5,1.5c0,0.9-0.7,1.5-1.5,1.5
				C167.8,748.6,167.1,747.9,167.1,747z"/>
		</g>
		<g>
			<path class="st4" d="M114.2,747c0-0.9,0.7-1.5,1.5-1.5c0.9,0,1.5,0.7,1.5,1.5c0,0.9-0.7,1.5-1.5,1.5
				C114.9,748.6,114.2,747.9,114.2,747z"/>
		</g>
		<g>
			<path class="st4" d="M107.2,747c0-0.9,0.7-1.5,1.5-1.5c0.9,0,1.5,0.7,1.5,1.5c0,0.9-0.7,1.5-1.5,1.5
				C107.9,748.6,107.2,747.9,107.2,747z"/>
		</g>
		<g>
			<path class="st4" d="M160.3,747c0-0.9,0.7-1.5,1.5-1.5s1.5,0.7,1.5,1.5c0,0.9-0.7,1.5-1.5,1.5S160.3,747.9,160.3,747z"/>
		</g>
		<g>
			<path class="st4" d="M126.8,747c0-0.9,0.7-1.5,1.5-1.5c0.9,0,1.5,0.7,1.5,1.5c0,0.9-0.7,1.5-1.5,1.5
				C127.4,748.6,126.8,747.9,126.8,747z"/>
		</g>
		<g>
			<path class="st2" d="M153.5,747c0-0.9,0.7-1.5,1.5-1.5s1.5,0.7,1.5,1.5c0,0.9-0.7,1.5-1.5,1.5S153.5,747.9,153.5,747z"/>
		</g>
		<g>
			<path class="st2" d="M146.6,747c0-0.9,0.7-1.5,1.5-1.5s1.5,0.7,1.5,1.5c0,0.9-0.7,1.5-1.5,1.5S146.6,747.9,146.6,747z"/>
		</g>
		<g>
			<path class="st2" d="M132.8,747c0-0.9,0.7-1.5,1.5-1.5c0.9,0,1.5,0.7,1.5,1.5c0,0.9-0.7,1.5-1.5,1.5
				C133.5,748.6,132.8,747.9,132.8,747z"/>
		</g>
		<g>
			<path class="st2" d="M101.6,747c0-0.9,0.7-1.5,1.5-1.5c0.9,0,1.5,0.7,1.5,1.5c0,0.9-0.7,1.5-1.5,1.5
				C102.2,748.6,101.6,747.9,101.6,747z"/>
		</g>
		<g>
			<path class="st6" d="M139.8,747c0-0.9,0.7-1.5,1.5-1.5s1.5,0.7,1.5,1.5c0,0.9-0.7,1.5-1.5,1.5S139.8,747.9,139.8,747z"/>
		</g>
		<g>
			<path class="st6" d="M120.2,747c0-0.9,0.7-1.5,1.5-1.5c0.9,0,1.5,0.7,1.5,1.5c0,0.9-0.7,1.5-1.5,1.5
				C120.9,748.6,120.2,747.9,120.2,747z"/>
		</g>
		<g>
			<path class="st4" d="M104.7,753.7c0,0.9-0.7,1.5-1.5,1.5c-0.9,0-1.5-0.7-1.5-1.5s0.7-1.5,1.5-1.5
				C104,752.1,104.7,752.8,104.7,753.7z"/>
		</g>
		<g>
			<path class="st4" d="M111.5,753.7c0,0.9-0.7,1.5-1.5,1.5c-0.9,0-1.5-0.7-1.5-1.5s0.7-1.5,1.5-1.5
				C110.8,752.1,111.5,752.8,111.5,753.7z"/>
		</g>
		<g>
			<circle class="st4" cx="116.8" cy="753.7" r="1.5"/>
		</g>
		<g>
			<path class="st4" d="M125.2,753.7c0,0.9-0.7,1.5-1.5,1.5c-0.9,0-1.5-0.7-1.5-1.5s0.7-1.5,1.5-1.5
				C124.5,752.1,125.2,752.8,125.2,753.7z"/>
		</g>
		<g>
			<circle class="st4" cx="176.6" cy="753.7" r="1.5"/>
		</g>
		<g>
			<circle class="st4" cx="183.5" cy="753.7" r="1.5"/>
		</g>
		<g>
			<path class="st4" d="M132,753.7c0,0.9-0.7,1.5-1.5,1.5c-0.9,0-1.5-0.7-1.5-1.5s0.7-1.5,1.5-1.5C131.3,752.1,132,752.8,132,753.7z
				"/>
		</g>
		<g>
			<path class="st4" d="M165.5,753.7c0,0.9-0.7,1.5-1.5,1.5c-0.9,0-1.5-0.7-1.5-1.5s0.7-1.5,1.5-1.5
				C164.9,752.1,165.5,752.8,165.5,753.7z"/>
		</g>
		<g>
			<path class="st2" d="M138.8,753.7c0,0.9-0.7,1.5-1.5,1.5c-0.9,0-1.5-0.7-1.5-1.5s0.7-1.5,1.5-1.5
				C138.1,752.1,138.8,752.8,138.8,753.7z"/>
		</g>
		<g>
			<circle class="st2" cx="144.1" cy="753.7" r="1.5"/>
		</g>
		<g>
			<path class="st2" d="M159.5,753.7c0,0.9-0.7,1.5-1.5,1.5c-0.9,0-1.5-0.7-1.5-1.5s0.7-1.5,1.5-1.5
				C158.8,752.1,159.5,752.8,159.5,753.7z"/>
		</g>
		<g>
			<path class="st2" d="M190.7,753.7c0,0.9-0.7,1.5-1.5,1.5c-0.9,0-1.5-0.7-1.5-1.5s0.7-1.5,1.5-1.5
				C190.1,752.1,190.7,752.8,190.7,753.7z"/>
		</g>
		<g>
			<path class="st6" d="M152.5,753.7c0,0.9-0.7,1.5-1.5,1.5c-0.9,0-1.5-0.7-1.5-1.5s0.7-1.5,1.5-1.5
				C151.8,752.1,152.5,752.8,152.5,753.7z"/>
		</g>
		<g>
			<circle class="st6" cx="170.5" cy="753.7" r="1.5"/>
		</g>
		<g>
			<g>
				<path class="st4" d="M219.1,746.6h-13.9v-1.8h13.9c9.1,0,16.5-8.8,16.5-19.6V290.9c0-13,8.9-23.7,19.9-23.7h30.1v1.8h-30.1
					c-10.1,0-18.4,9.8-18.4,21.9v434.3C237,737,229,746.6,219.1,746.6z"/>
			</g>
			<g>
				<path class="st4" d="M237,389.5h-1.5v-2.2c0-15.1,10.3-27.4,23-27.4h8.2v1.8h-8.2c-11.9,0-21.5,11.5-21.5,25.6V389.5z"/>
			</g>
			<g>
				<path class="st4" d="M237,491.5h-1.5v-2.2c0-15.1,10.3-27.4,23-27.4h8.2v1.8h-8.2c-11.9,0-21.5,11.5-21.5,25.6V491.5z"/>
			</g>
			<g>
				<path class="st4" d="M237,580h-1.5v-2.2c0-15.1,10.3-27.4,23-27.4h8.2v1.8h-8.2c-11.9,0-21.5,11.5-21.5,25.6V580z"/>
			</g>
			<g>
				<path class="st4" d="M237,679h-1.5v-2.2c0-15.1,10.3-27.4,23-27.4h8.2v1.8h-8.2c-11.9,0-21.5,11.5-21.5,25.6V679z"/>
			</g>
		</g>
		<g>
			<g>
				<path class="st6" d="M45.4,659.8l0.4,22.4c0,0-22.5,6.1-22.9,10.2l43.4,2.6l0.8-35L45.4,659.8z"/>
			</g>
		</g>
		<g>
			<g>
				<g>
					<path class="st7" d="M59.3,680.6c0.8,0.2,1.4,1.2,1.2,2c-0.2,0.8-1.2,1.4-2,1.2c-0.8-0.2-1.6-1.4-1.3-2.2
						c0.3-0.8,1.5-1.4,2.2-1"/>
				</g>
			</g>
		</g>
		<g>
			<g>
				<path class="st7" d="M66.4,695.1l0.1-3.5l-41.1-1.7c0,0-2.4,1.3-2.4,2.7L66.4,695.1z"/>
			</g>
		</g>
		<g>
			<g>
				<g>
					<path class="st4" d="M45.1,682c0,0.2,1.1,0.3,2.1,1c1.1,0.7,1.6,1.6,1.8,1.5c0.2,0-0.1-1.3-1.4-2.1
						C46.4,681.6,45.1,681.8,45.1,682z"/>
				</g>
			</g>
		</g>
		<g>
			<g>
				<g>
					<path class="st4" d="M40.5,683.8c-0.1,0.2,0.9,0.6,1.6,1.5c0.7,0.9,0.9,1.9,1.1,1.9c0.2,0,0.4-1.2-0.5-2.3
						C41.8,683.7,40.5,683.6,40.5,683.8z"/>
				</g>
			</g>
		</g>
		<g>
			<g>
				<g>
					<path class="st4" d="M37.8,689.2c0.2,0,0.5-1,0-2.2c-0.5-1.2-1.5-1.7-1.6-1.5c-0.1,0.2,0.5,0.8,0.9,1.8
						C37.6,688.3,37.6,689.2,37.8,689.2z"/>
				</g>
			</g>
		</g>
		<g>
			<g>
				<g>
					<path class="st4" d="M45.6,676.9c0.1,0.2,1.1-0.1,2.3,0c1.2,0.1,2.1,0.5,2.2,0.3c0.1-0.2-0.8-1-2.2-1.1
						C46.5,676.1,45.5,676.7,45.6,676.9z"/>
				</g>
			</g>
		</g>
		<g>
			<g>
				<g>
					<path class="st4" d="M45.6,672.4c0,0.1,0.8,0.2,2.2,0c0.7-0.1,1.5-0.3,2.3-0.7c0.4-0.2,0.8-0.4,1.3-0.6
						c0.2-0.1,0.4-0.3,0.7-0.5c0.2-0.2,0.4-0.8,0.1-1.1c-0.2-0.3-0.6-0.5-0.9-0.5c-0.3,0-0.6,0-0.8,0.1c-0.5,0.1-0.9,0.3-1.4,0.4
						c-0.8,0.4-1.5,0.8-2,1.3c-1,0.9-1.4,1.7-1.3,1.7c0.1,0.1,0.6-0.6,1.6-1.3c0.5-0.4,1.2-0.8,2-1.1c0.4-0.1,0.8-0.3,1.3-0.4
						c0.5-0.1,0.9-0.1,1,0.1c0,0.1,0,0.1-0.1,0.2c-0.1,0.1-0.3,0.2-0.5,0.4c-0.4,0.2-0.8,0.5-1.2,0.6c-0.8,0.4-1.5,0.6-2.1,0.8
						C46.4,672.2,45.6,672.2,45.6,672.4z"/>
				</g>
			</g>
		</g>
		<g>
			<g>
				<g>
					<path class="st4" d="M45.9,672.7c0.1,0,0.5-0.7,0.6-2.1c0-0.7,0-1.5-0.3-2.4c-0.1-0.4-0.3-0.9-0.5-1.3c-0.2-0.4-0.5-1-1.4-1.1
						c-0.4,0-0.8,0.3-0.9,0.6c-0.1,0.3-0.2,0.5-0.2,0.8c-0.1,0.5-0.1,1,0,1.5c0.1,0.9,0.5,1.7,0.9,2.3c0.8,1.1,1.7,1.4,1.7,1.3
						c0.1-0.1-0.7-0.5-1.3-1.6c-0.3-0.5-0.6-1.2-0.7-2.1c0-0.4,0-0.8,0.1-1.3c0.1-0.5,0.3-0.8,0.4-0.8c0.2,0,0.6,0.4,0.8,0.7
						c0.2,0.4,0.4,0.8,0.5,1.2c0.3,0.8,0.4,1.5,0.4,2.2C46,671.8,45.7,672.6,45.9,672.7z"/>
				</g>
			</g>
		</g>
		<g>
			<path class="st4" d="M177,523.1L70,542.5c-12.2,2.2-22.3,11.3-25.2,23.4c-0.1,0.5-0.2,1.1-0.4,1.7c-3.6,18.1-3.7,100.8-3.7,100.8
				l29-0.3l5.2-93.4l82.4-11.3c5.7-0.8,11-3.4,14.9-7.7C179.2,547.9,181.4,537.4,177,523.1z"/>
		</g>
		<g>
			<g>
				<path class="st6" d="M57.5,615.9l2,22.4c0,0-22.1,7.6-22.1,11.8l43.5-0.4l-1.6-35L57.5,615.9z"/>
			</g>
		</g>
		<g>
			<g>
				<g>
					<path class="st7" d="M72.8,635.7c0.9,0.2,1.5,1.1,1.3,2c-0.2,0.9-1.1,1.5-1.9,1.3c-0.9-0.2-1.6-1.2-1.4-2.1
						c0.2-0.8,1.4-1.5,2.2-1.2"/>
				</g>
			</g>
		</g>
		<g>
			<g>
				<path class="st7" d="M80.9,649.7l-0.2-3.5l-41.2,1.2c0,0-2.2,1.8-2.2,2.7L80.9,649.7z"/>
			</g>
		</g>
		<g>
			<g>
				<g>
					<path class="st4" d="M58.8,638.1c0,0.2,1.1,0.3,2.2,0.9c1.1,0.6,1.7,1.5,1.9,1.4c0.2-0.1-0.2-1.3-1.5-2
						C60,637.6,58.7,637.9,58.8,638.1z"/>
				</g>
			</g>
		</g>
		<g>
			<g>
				<g>
					<path class="st4" d="M54.3,640.2c0,0.2,0.9,0.5,1.7,1.4c0.8,0.8,1,1.8,1.2,1.8c0.2,0,0.3-1.2-0.7-2.3
						C55.6,640.1,54.3,640,54.3,640.2z"/>
				</g>
			</g>
		</g>
		<g>
			<g>
				<g>
					<path class="st4" d="M52,645.8c0.2,0,0.4-1-0.2-2.2c-0.6-1.1-1.6-1.5-1.7-1.4c-0.1,0.2,0.6,0.8,1,1.7
						C51.7,644.9,51.8,645.8,52,645.8z"/>
				</g>
			</g>
		</g>
		<g>
			<g>
				<g>
					<path class="st4" d="M58.9,633c0.1,0.2,1.1-0.2,2.3-0.1c1.2,0,2.2,0.3,2.3,0.2c0.1-0.2-0.8-0.9-2.3-0.9
						C59.7,632.1,58.8,632.8,58.9,633z"/>
				</g>
			</g>
		</g>
		<g>
			<g>
				<g>
					<path class="st4" d="M58.6,628.4c0,0.1,0.8,0.2,2.2-0.1c0.7-0.2,1.4-0.4,2.2-0.8c0.4-0.2,0.8-0.4,1.2-0.7
						c0.2-0.1,0.4-0.3,0.6-0.5c0.2-0.2,0.3-0.8,0-1.1c-0.2-0.3-0.6-0.4-1-0.4c-0.3,0-0.6,0.1-0.8,0.2c-0.5,0.1-0.9,0.3-1.3,0.5
						c-0.8,0.4-1.5,0.9-1.9,1.4c-1,1-1.3,1.8-1.2,1.8c0.1,0.1,0.6-0.6,1.5-1.5c0.5-0.4,1.1-0.8,1.9-1.2c0.4-0.2,0.8-0.3,1.2-0.5
						c0.5-0.1,0.8-0.2,1,0c0,0.1,0.1,0.1,0,0.2c-0.1,0.1-0.3,0.3-0.5,0.4c-0.4,0.3-0.7,0.5-1.1,0.7c-0.7,0.4-1.5,0.7-2.1,0.9
						C59.4,628.2,58.6,628.3,58.6,628.4z"/>
				</g>
			</g>
		</g>
		<g>
			<g>
				<g>
					<path class="st4" d="M58.9,628.7c0.1,0,0.5-0.8,0.5-2.1c0-0.7-0.1-1.5-0.4-2.4c-0.2-0.4-0.4-0.9-0.6-1.3c-0.3-0.4-0.6-1-1.4-1
						c-0.4,0-0.8,0.4-0.9,0.7c-0.1,0.3-0.1,0.6-0.2,0.8c-0.1,0.5,0,1,0.1,1.5c0.2,0.9,0.6,1.7,1,2.2c0.9,1.1,1.8,1.3,1.8,1.2
						c0.1-0.1-0.7-0.5-1.4-1.5c-0.3-0.5-0.7-1.2-0.8-2c-0.1-0.4-0.1-0.8,0-1.3c0-0.5,0.2-0.8,0.4-0.8c0.2,0,0.6,0.3,0.8,0.7
						c0.2,0.4,0.4,0.8,0.6,1.2c0.3,0.8,0.5,1.5,0.5,2.2C58.9,627.9,58.7,628.7,58.9,628.7z"/>
				</g>
			</g>
		</g>
		<g>
			<path class="st4" d="M175.1,523.6l-99.5-21.9c-3.1-1.1-6.4-1.4-9.7-0.9l0,0c-11.2,1.6-19.1,11.9-17.7,23.2l1.4,98.8l35-2.3
				l-1.3-80.3L175.1,523.6z"/>
		</g>
		<g>
			<g>
				<path class="st5" d="M48.4,538.7c0,0,0,0.1,0,0.4c0,0.3,0,0.7,0,1.2c0,1.1,0.1,2.7,0.1,4.7c0.1,4.2,0.2,10.2,0.3,17.6
					c0.2,15,0.6,36,1,59.9l-0.3-0.3c6.7-0.3,13.6-0.7,20.7-1.1c5.1-0.3,10.1-0.5,14.9-0.8l-0.3,0.3c-0.6-25.4-1.2-47.8-1.6-63.9
					c-0.2-8-0.3-14.5-0.4-18.9c0-2.2-0.1-3.9-0.1-5.1c0-0.6,0-1,0-1.3c0-0.3,0-0.5,0-0.5c0,0,0,0.2,0,0.4c0,0.3,0,0.8,0.1,1.3
					c0,1.2,0.1,2.9,0.2,5.1c0.1,4.5,0.3,10.9,0.6,18.9c0.5,16.1,1.1,38.5,1.8,63.9l0,0.3l-0.3,0c-4.8,0.2-9.8,0.5-14.9,0.8
					c-7.1,0.4-14,0.7-20.7,1.1l-0.3,0l0-0.3c-0.3-23.9-0.6-44.9-0.8-59.9c-0.1-7.5-0.1-13.5-0.2-17.6c0-2,0-3.6,0-4.7
					c0-0.5,0-0.9,0-1.2C48.4,538.8,48.4,538.7,48.4,538.7z"/>
			</g>
		</g>
		<g>
			<g>
				<path class="st5" d="M83.1,539.1c0-0.2,8.3-2.1,18.6-4.3c10.3-2.2,18.7-3.9,18.8-3.7c0,0.2-8.3,2.1-18.6,4.3
					C91.6,537.5,83.1,539.2,83.1,539.1z"/>
			</g>
		</g>
		<g>
			<g>
				<path class="st5" d="M87.7,529.5c0.1,0,0.3,0.6,0.3,1.7c0,1-0.2,2.5-0.8,4c-0.7,1.5-1.7,2.6-2.5,3.2c-0.8,0.6-1.4,0.9-1.5,0.8
					c-0.1-0.1,2.1-1.5,3.4-4.3C87.9,532.1,87.5,529.5,87.7,529.5z"/>
			</g>
		</g>
		<g>
			<g>
				<g>
					<g>
						<g>
							<g>
								<g>
									<g>
										<g>
											<path class="st8" d="M156.8,419.6l-22.6-1.8c-0.1-2.6,0-12.8,0-12.8s-9.4-1.5-9.5-10.9c-0.1-9.4,1.5-31,1.5-31l0,0
												c10.9-4.7,23.4-3.1,32.8,4.1l1.4,1.1L156.8,419.6z"/>
										</g>
									</g>
								</g>
							</g>
							<g>
								<g>
									<g>
										<g>
											<path class="st9" d="M134.2,404.8c0,0,5.9,0.5,12.2-3.5c0,0-2.9,6.8-12.3,5.9L134.2,404.8z"/>
										</g>
									</g>
								</g>
							</g>
						</g>
					</g>
				</g>
				<g>
					<g>
						<g>
							<g>
								<g>
									<path class="st8" d="M159.3,378.1c0.2-0.1,6.5-1.9,6.2,4.5c-0.2,6.4-6.6,4.9-6.6,4.7C158.9,387.1,159.3,378.1,159.3,378.1z
										"/>
								</g>
							</g>
						</g>
					</g>
					<g>
						<g>
							<g>
								<g>
									<g>
										<path class="st9" d="M161,384.9c0,0,0.1,0.1,0.3,0.2c0.2,0.1,0.5,0.2,0.8,0c0.7-0.2,1.3-1.3,1.4-2.4
											c0-0.6-0.1-1.1-0.3-1.6c-0.2-0.5-0.5-0.8-0.8-0.9c-0.3-0.1-0.6,0.1-0.7,0.3c-0.1,0.2-0.1,0.3-0.1,0.3c0,0-0.1-0.1-0.1-0.4
											c0-0.1,0.1-0.3,0.3-0.4c0.2-0.1,0.4-0.2,0.6-0.1c0.5,0.1,0.9,0.5,1.1,1c0.2,0.5,0.4,1.1,0.3,1.8c-0.1,1.3-0.8,2.5-1.7,2.7
											c-0.5,0.1-0.8,0-1-0.2C161,385.1,160.9,384.9,161,384.9z"/>
									</g>
								</g>
							</g>
						</g>
					</g>
				</g>
				<g>
					<g>
						<g>
							<g>
								<g>
									<g>
										<g>
											<g>
												<g>
													<g>
														<path class="st4" d="M130.2,377.7c0,0.7,0.6,1.3,1.3,1.4c0.7,0,1.4-0.5,1.4-1.2c0-0.7-0.6-1.3-1.3-1.4
															C130.8,376.4,130.2,377,130.2,377.7z"/>
													</g>
												</g>
											</g>
										</g>
										<g>
											<g>
												<g>
													<g>
														<g>
															<path class="st4" d="M128,376.4c0.2,0.2,1.2-0.6,2.6-0.6c1.4,0,2.5,0.7,2.7,0.5c0.1-0.1-0.1-0.4-0.6-0.7
																c-0.5-0.3-1.2-0.7-2.1-0.7c-0.9,0-1.7,0.3-2.1,0.7C128.1,376,127.9,376.3,128,376.4z"/>
														</g>
													</g>
												</g>
											</g>
										</g>
									</g>
									<g>
										<g>
											<g>
												<g>
													<g>
														<path class="st4" d="M144.5,378.2c0,0.7,0.6,1.3,1.3,1.4c0.7,0,1.4-0.5,1.4-1.2c0-0.7-0.6-1.3-1.3-1.4
															C145.2,376.9,144.6,377.5,144.5,378.2z"/>
													</g>
												</g>
											</g>
										</g>
										<g>
											<g>
												<g>
													<g>
														<g>
															<path class="st4" d="M142.2,376.6c0.2,0.2,1.2-0.6,2.6-0.6c1.4,0,2.5,0.7,2.7,0.5c0.1-0.1-0.1-0.4-0.6-0.7
																c-0.5-0.3-1.2-0.7-2.1-0.7c-0.9,0-1.7,0.3-2.1,0.7C142.3,376.2,142.1,376.5,142.2,376.6z"/>
														</g>
													</g>
												</g>
											</g>
										</g>
									</g>
									<g>
										<g>
											<g>
												<g>
													<g>
														<path class="st4" d="M137,387.3c0-0.1-0.9-0.2-2.3-0.4c-0.4,0-0.7-0.1-0.8-0.4c-0.1-0.3,0.1-0.7,0.2-1.1
															c0.3-0.9,0.7-1.8,1.1-2.8c1.5-4,2.6-7.3,2.4-7.3c-0.2-0.1-1.5,3.1-3,7.1c-0.4,1-0.7,1.9-1,2.8
															c-0.1,0.4-0.4,0.9-0.2,1.4c0.1,0.3,0.4,0.5,0.6,0.5c0.2,0.1,0.4,0.1,0.6,0.1C136.1,387.4,137,387.4,137,387.3z"/>
													</g>
												</g>
											</g>
										</g>
									</g>
									<g>
										<g>
											<g>
												<g>
													<g>
														<path class="st4" d="M141.2,388.3c-0.2,0-0.2,1.6-1.6,2.7c-1.3,1.1-3,0.9-3,1.2c0,0.1,0.4,0.3,1.1,0.3
															c0.7,0,1.7-0.2,2.5-0.9c0.8-0.7,1.2-1.6,1.2-2.2C141.5,388.7,141.3,388.3,141.2,388.3z"/>
													</g>
												</g>
											</g>
										</g>
									</g>
								</g>
							</g>
						</g>
						<g>
							<g>
								<g>
									<g>
										<path class="st4" d="M141.8,371c0.1,0.4,1.6,0.2,3.3,0.4c1.7,0.2,3.1,0.7,3.3,0.3c0.1-0.2-0.1-0.5-0.7-0.9
											c-0.5-0.4-1.4-0.7-2.4-0.9c-1-0.1-1.9,0.1-2.6,0.3C142.1,370.5,141.8,370.8,141.8,371z"/>
									</g>
								</g>
							</g>
						</g>
						<g>
							<g>
								<g>
									<g>
										<path class="st4" d="M128.6,372.2c0.3,0.3,1.2,0,2.4,0c1.2-0.1,2.2,0.2,2.4-0.1c0.1-0.2-0.1-0.5-0.5-0.8
											c-0.4-0.3-1.2-0.6-2-0.5c-0.8,0-1.5,0.3-1.9,0.7C128.6,371.7,128.4,372,128.6,372.2z"/>
									</g>
								</g>
							</g>
						</g>
					</g>
				</g>
			</g>
			<g>
				<g>
					<path class="st4" d="M121.7,357.2c-0.1-1.2,0.3-2.4,1.3-3.1c0.9-0.7,2.4-0.6,3.2,0.2c-0.4-1.6,0.8-3.4,2.5-3.5
						c1.5-0.1,2.8,1.1,4.3,1.5c1.4,0.4,3,0.1,4.4-0.5c1.4-0.6,2.7-1.3,4.1-1.8c2.9-1.1,6.3-0.9,9.1,0.4c2.8,1.3,5.1,3.8,6.2,6.7
						c2.1-0.6,4.4,0.4,5.7,2.1s1.6,4,1.3,6.2c-0.2,1.4-0.6,2.8-1.1,4.2c0,0.1,0,0.2,0,0.4c-0.1,5.2-0.7,11.2-2.9,11.3
						c-3.8,0.1-2.9-7.2-2.9-7.2c-4.7-1.8-3-8.9-4.1-10c-1.2-1.1-3.6-3.6-13.5,1.5c-3.8,2-8.9,1.9-11.7,1.3c-0.1,0-0.2,0-0.2,0
						c0,0,0,0-0.1,0c0,0-0.1,0-0.1,0c-0.9-0.2-1.7-0.6-2.5-1.1c-0.9-0.6-1.7-1.3-2.1-2.3c-0.4-1-0.2-2.2,0.5-2.9
						C122.3,359.5,121.8,358.4,121.7,357.2z"/>
				</g>
			</g>
		</g>
		<g>
			<path class="st6" d="M201,486.2c1.5,5.8-1.2,12-6.5,14.7c0,0-0.1,0-0.1,0c-3.9,2-9.4,1.5-13.2-0.2l-3.2-1.5l1.1,27.1
				c-16,10.4-60,2.6-68.6-15.9c-0.1-4.8-1.9-42.8-1.9-42.8l-0.8-42.3c7.5-7.4,11.5-9.6,22-10.8c1.7-0.2,3.1-0.3,4-0.5
				c8,2.5,16,2.5,24.1,0v0c3.7,0.2,6.8,1.3,10,1.9c10,1.9,17.1,9.2,19.1,15.9c1.6,5.5,12.2,46.4,12.2,46.4L201,486.2z"/>
		</g>
		<g>
			<g>
				<path class="st6" d="M118.4,417.3c0,0-10,3.4-14.1,13c-2.7,6.2-6.7,36.3-6.7,36.3l-5.1,9.7c-1.2,2.3-1.8,4.9-1.8,7.6v1.5
					c0,3.8,1.3,7.4,3.7,10.4l0,0c2.8,3.4,6.9,5.6,11.3,6c5,0.5,11.1,0.7,12.5-0.8c2.3-2.6,5.7-9.7,5.7-9.7l-14.7-7.8l6.3-11.7
					L118.4,417.3z"/>
			</g>
		</g>
		<g>
			<g>
				<g>
					<path class="st4" d="M172.4,475.6c0.2,0,0.3-6.3,0.3-14.1c0-7.8-0.1-14.1-0.3-14.1c-0.2,0-0.3,6.3-0.3,14.1
						C172.1,469.3,172.3,475.6,172.4,475.6z"/>
				</g>
			</g>
		</g>
		<g>
			<g>
				<g>
					<path class="st4" d="M115,464.9c0.2,0,0.3-3.6,0.3-8c0-4.4-0.1-8-0.3-8c-0.2,0-0.3,3.6-0.3,8
						C114.7,461.3,114.8,464.9,115,464.9z"/>
				</g>
			</g>
		</g>
		<g>
			<path class="st6" d="M178.9,524.4c1.2-0.2,1.8,1.6,1.2,2.6c-0.6,1-1.9,1.4-3,1.8c-3.8,1.5-6.9,4.3-10.4,6.2
				c-7.6,4.1-16.7,4.1-25.3,3c-4.9-0.6-9.7-1.5-14.2-3.6c-4.4-2-8.5-5.3-10.6-9.7c-1.2-2.4-1.8-5.1-3.3-7.3c-1-1.5-2.4-2.6-3.4-4.1
				c-1.1-1.4-1.8-3.2-1.4-5c0.5-1.7,2.6-3,4.1-2"/>
		</g>
		<g class="st10">
			<g>
				<path d="M148.3,533.8c-5.8-0.6-11.2-3.5-15.5-7.4c-4.3-4-7.5-8.9-10.3-14.1c-0.4-0.7-1.2-1.5-1.8-1c-0.2,0.2-0.3,0.4-0.4,0.7
					c-1.3,4.2,0.1,8.9,2.8,12.3c2.7,3.4,6.7,5.7,10.9,7c4.2,1.3,8.6,1.8,12.9,2.3"/>
			</g>
		</g>
		<g>
			<g>
				<path class="st3" d="M183,425.6c0,0,0,0.1-0.1,0.2c-0.1,0.1-0.1,0.3-0.3,0.5c-0.3,0.5-0.7,1.1-1.5,1.8c-0.8,0.7-1.9,1.3-3.3,1.7
					c-1.4,0.4-3.1,0.6-4.9,0.4c-1.8-0.2-3.7-0.8-5.7-1.5c-2-0.7-4.1-1.7-6.3-2.4c-4.5-1.5-9.8-1.7-15.1-0.2c-2.6,0.7-5,2-7.3,3.2
					c-2.3,1.2-4.7,2.2-7.1,2.5c-2.4,0.3-4.8-0.1-6.8-0.9c-2-0.7-3.8-1.6-5.4-2.5c-3.2-1.7-5.8-2.9-7.7-3.5c-1.9-0.6-3-0.6-3-0.7
					c0,0,0.3,0,0.8,0.1c0.5,0,1.3,0.2,2.3,0.4c2,0.5,4.7,1.7,7.8,3.4c1.6,0.8,3.4,1.7,5.3,2.4c2,0.7,4.2,1.1,6.5,0.8
					c2.3-0.3,4.6-1.3,6.9-2.5c2.3-1.2,4.7-2.5,7.4-3.2c5.4-1.6,10.9-1.2,15.4,0.3c2.3,0.8,4.3,1.7,6.3,2.4c2,0.8,3.8,1.3,5.6,1.5
					c1.8,0.2,3.4,0.1,4.7-0.2c1.4-0.4,2.4-1,3.2-1.6C182.5,426.7,182.9,425.6,183,425.6z"/>
			</g>
		</g>
		<g>
			<g>
				<path class="st3" d="M171.8,454.4c0,0.1-0.8,0.1-2.3,0.4c-1.5,0.3-3.5,0.9-6.1,1.7c-2.5,0.8-5.6,1.9-9.1,2.4
					c-1.8,0.2-3.7,0.2-5.6-0.3c-1.9-0.4-3.8-1.3-5.6-2.3c-3.6-2-6.8-4.2-10.2-5.2c-3.4-1-6.6-0.8-9.2-0.5c-2.6,0.4-4.7,1-6.2,1.3
					c-0.7,0.2-1.2,0.3-1.7,0.5c-0.4,0.1-0.6,0.1-0.6,0.1c0,0,0.2-0.1,0.6-0.2c0.4-0.1,0.9-0.3,1.6-0.6c1.4-0.5,3.5-1.1,6.2-1.5
					c2.6-0.4,6-0.6,9.4,0.4c3.5,1,6.8,3.3,10.3,5.3c1.8,1,3.6,1.8,5.4,2.2c1.8,0.4,3.7,0.5,5.4,0.3c3.5-0.4,6.5-1.5,9.1-2.2
					c2.6-0.8,4.7-1.3,6.2-1.5c0.7-0.1,1.3-0.2,1.7-0.2C171.6,454.3,171.8,454.3,171.8,454.4z"/>
			</g>
		</g>
		<g>
			<g>
				<path class="st3" d="M196.1,467.3c0,0.1-1.4-0.4-3.6,0.1c-1.1,0.2-2.3,0.7-3.7,1.3c-1.3,0.7-2.7,1.5-4.3,2.2
					c-1.6,0.7-3.3,1.2-4.8,1.2c-1.5,0-2.9-0.3-4-0.7c-1.1-0.4-1.9-0.9-2.4-1.3c-0.5-0.4-0.8-0.6-0.7-0.7c0.1-0.1,1.2,0.8,3.3,1.5
					c1.1,0.3,2.4,0.6,3.8,0.5c1.5,0,3-0.5,4.6-1.2c1.6-0.7,3-1.5,4.3-2.1c1.4-0.6,2.7-1.1,3.8-1.3c1.1-0.2,2.1-0.1,2.7,0
					C195.8,467.1,196.2,467.3,196.1,467.3z"/>
			</g>
		</g>
		<g>
			<g>
				<path class="st3" d="M114.8,457.7c0,0.1-0.9-0.5-2.4-0.4c-0.7,0-1.6,0.1-2.6,0.4c-1,0.3-2,0.6-3.2,0.8c-2.4,0.4-4.6-0.5-5.9-1.4
					c-1.3-1-1.7-1.9-1.7-1.9c0.1-0.1,0.6,0.7,1.9,1.5c1.2,0.8,3.3,1.6,5.5,1.1c1.1-0.2,2.2-0.5,3.2-0.8c1-0.2,1.9-0.4,2.7-0.3
					C114.1,456.9,114.9,457.7,114.8,457.7z"/>
			</g>
		</g>
		<g>
			<g>
				<path class="st3" d="M177.4,505c0,0.1-1-0.2-2.8-0.3c-1.8-0.1-4.5,0.2-7.5,1.2c-3.1,1-6.6,2.7-10.5,4.6c-1.9,0.9-4,1.9-6.3,2.7
					c-2.2,0.8-4.6,1.4-7.2,1.5c-2.5,0.1-5-0.4-7.2-1.3c-2.2-0.9-4.1-2.2-5.9-3.4c-1.8-1.2-3.4-2.4-5.1-3.4c-1.6-1-3.2-1.8-4.7-2.3
					c-3.1-1.1-5.8-1.1-7.5-0.7c-1.8,0.5-2.6,1.1-2.6,1c0,0,0.8-0.7,2.6-1.2c1.8-0.5,4.6-0.6,7.7,0.5c1.6,0.5,3.2,1.3,4.9,2.3
					c1.6,1,3.3,2.2,5.1,3.4c1.8,1.2,3.7,2.4,5.8,3.3c2.1,0.9,4.5,1.4,7,1.2c4.9-0.3,9.3-2.3,13.2-4.1c3.9-1.9,7.4-3.6,10.6-4.5
					c1.6-0.5,3-0.8,4.3-0.9c1.3-0.1,2.4-0.1,3.3-0.1c0.9,0.1,1.6,0.2,2.1,0.3C177.2,504.9,177.4,505,177.4,505z"/>
			</g>
		</g>
		<g>
			<g>
				<path class="st3" d="M120.5,517.8c-0.1,0.1-1.6-1.2-3.9-1.3c-2.3-0.2-3.9,0.9-4,0.7c0-0.1,0.3-0.4,1-0.8c0.7-0.4,1.8-0.7,3-0.6
					c1.2,0.1,2.3,0.6,2.9,1C120.3,517.4,120.6,517.8,120.5,517.8z"/>
			</g>
		</g>
		<g>
			<g>
				<path class="st3" d="M171.1,532.5c-0.1,0-0.1-0.6-0.6-1.5c-0.4-0.9-1.3-2.2-2.7-3.3c-1.5-1.1-3.5-1.9-5.9-2.1
					c-2.4-0.2-5,0.4-7.7,1.3c-2.6,1-5.1,2.1-7.3,3.1c-2.3,1-4.4,1.7-6.2,2c-1.8,0.4-3.4,0.4-4.4,0.3c-0.5-0.1-0.9-0.1-1.2-0.2
					c-0.3-0.1-0.4-0.1-0.4-0.1c0-0.1,2.3,0.5,5.9-0.4c1.8-0.4,3.9-1.1,6.1-2.1c2.2-1,4.7-2.2,7.3-3.2c2.7-1,5.4-1.5,7.9-1.3
					c2.5,0.2,4.6,1.2,6.1,2.3c1.5,1.2,2.3,2.5,2.7,3.5c0.2,0.5,0.3,0.9,0.3,1.2C171.1,532.3,171.1,532.5,171.1,532.5z"/>
			</g>
		</g>
		<g>
			<g>
				<path class="st4" d="M120.4,519.3c0.1,0,0.3,0.8,1,2.2c0.7,1.4,2,3.3,4.2,5.1c4.3,3.7,12,6,20.6,6.6c4.3,0.3,8.4-0.3,11.9-1.3
					c3.6-1,6.7-2.4,9.2-3.5c2.5-1.2,4.6-2.3,6-3c0.7-0.3,1.2-0.6,1.6-0.8c0.4-0.2,0.6-0.3,0.6-0.3c0,0-0.2,0.1-0.5,0.4
					c-0.4,0.2-0.9,0.6-1.6,0.9c-1.4,0.8-3.4,1.9-5.9,3.2c-2.5,1.3-5.6,2.7-9.3,3.7c-3.6,1.1-7.8,1.6-12.1,1.4
					c-4.3-0.3-8.4-1.1-12-2.2c-3.6-1.1-6.6-2.8-8.8-4.7c-2.2-1.9-3.5-3.9-4.1-5.3c-0.3-0.7-0.5-1.3-0.7-1.7
					C120.4,519.5,120.4,519.3,120.4,519.3z"/>
			</g>
		</g>
		<g class="st10">
			<g>
				<path d="M177.9,499.7c-2.7,0.4-5.5-1-8-2.1c-2.5-1.1-5.5-1.9-7.8-0.4c-1.1,0.7-1.9,1.9-2.9,2.7c-2.7,2.3-6.7,2.3-10.3,1.9
					c-8.4-1-16.6-3.2-24.7-5.5c-0.8-0.2-4.1-1.5-4.1-1.5l3.6-0.8l3.3-1.1l2.6-0.6l25.1,3.8c0,0,1.7-1.8,1.7-1.9l-5.7-6.9
					c8.3,3.7,26.6,11.9,27.1,11.9"/>
			</g>
		</g>
		<g>
			<g>
				<g>
					<path class="st8" d="M123.4,468.3l0.8-0.6c4-3,9-4.1,13.9-3.2l0,0c4,0.8,7.7,2.5,10.8,5.1l6,5l-6.4,11.5l-4.4-6.1
						c0,0-4.1,5.5-4.8,4.9c-0.7-0.6-1.6-2.3-1.6-2.3l2.9-4.1l-7,1.5l-10.2-4.7l4.4-5.5l-4.4,1.5V468.3z"/>
				</g>
			</g>
			<g>
				<g>
					<g>
						<path class="st4" d="M178.7,499.7c0,0-0.2-0.1-0.6-0.3c-0.4-0.2-1-0.5-1.7-0.8c-1.5-0.7-3.7-1.7-6.3-3
							c-5.5-2.5-13-5.9-21.6-9.8l0.1,0.4c1.3-2.4,2.7-4.9,4.1-7.4c0.9-1.6,1.7-3.1,2.6-4.6l-0.3,0.2c10.2,1,19.2,1.9,25.8,2.5
							c3.2,0.3,5.8,0.5,7.7,0.7c0.9,0.1,1.5,0.1,2.1,0.2c0.5,0,0.7,0,0.7,0c0,0-0.2-0.1-0.7-0.1c-0.5-0.1-1.2-0.2-2.1-0.3
							c-1.9-0.2-4.5-0.5-7.6-0.9c-6.6-0.7-15.6-1.7-25.8-2.7l-0.2,0l-0.1,0.2c-0.8,1.5-1.7,3-2.6,4.6c-1.4,2.5-2.8,5-4.1,7.4
							l-0.2,0.3l0.3,0.1c8.6,3.8,16.2,7.2,21.7,9.6c2.7,1.2,4.8,2.1,6.4,2.8c0.7,0.3,1.3,0.5,1.7,0.7
							C178.5,499.6,178.7,499.7,178.7,499.7z"/>
					</g>
				</g>
			</g>
			<g>
				<g>
					<g>
						<path class="st4" d="M111.8,485c0,0-0.4-0.1-1.1-0.2c-0.7,0-1.7-0.1-3,0.2c-0.6,0.2-1.3,0.4-1.9,1.1c-0.5,0.6-0.8,1.4-1,2.2
							c-0.1,0.9-0.1,1.8,0.2,2.7c0.3,0.9,1,1.7,1.8,2.3c1.7,1.1,3.5,1.5,5.1,1.8c1.6,0.3,3.1,0.4,4.4,0.4c2.5,0,4-0.6,4-0.7
							c0-0.1-1.5,0.4-4,0.2c-1.2-0.1-2.7-0.2-4.3-0.6c-1.6-0.4-3.4-0.7-4.8-1.8c-1.5-1-2.1-2.8-1.8-4.4c0.1-0.8,0.4-1.5,0.8-2
							c0.4-0.5,1-0.8,1.6-1c1.1-0.3,2.2-0.3,2.8-0.4C111.4,485,111.8,485,111.8,485z"/>
					</g>
				</g>
			</g>
			<g>
				<g>
					<g>
						<path class="st4" d="M106,502c0,0.1,1,0.3,2.5,0.3c1.6,0,3.8-0.1,6.1-1c1.1-0.4,2.2-1,3-1.6c0.9-0.6,1.5-1.4,1.9-2.1
							c0.8-1.4,1-2.4,0.9-2.4c-0.1,0-0.4,0.9-1.3,2.1c-0.4,0.6-1,1.3-1.8,1.9c-0.8,0.6-1.8,1.1-2.9,1.5c-2.2,0.8-4.3,1.1-5.9,1.2
							C107,501.9,106,501.9,106,502z"/>
					</g>
				</g>
			</g>
			<g>
				<g>
					<g>
						<path class="st4" d="M98.9,471.5c-0.1,0,0.6,0.8,1.7,2.1c1.1,1.2,2.7,2.9,4.5,4.8c1.8,1.8,3.4,3.5,4.6,4.6
							c1.2,1.2,2,1.8,2.1,1.8c0.1-0.1-0.6-0.9-1.7-2.1c-1.1-1.2-2.7-2.9-4.5-4.8C102.1,474.2,99.1,471.3,98.9,471.5z"/>
					</g>
				</g>
			</g>
			<g>
				<g>
					<polygon class="st4" points="134.1,467.2 156.5,494.4 154.8,496.2 118.4,490.7 100.4,463.5 102.1,462 					"/>
				</g>
			</g>
			<g>
				<g>
					<path class="st8" d="M110.3,474.4L110.3,474.4c1.4,0,2.7,0.9,3.2,2.2c0.5,1.4,1.3,3,2.2,3.5c1.6,0.9,4.4,1.6,5.9,0.9
						c1.5-0.7,7.3-6,8.4-5.4c1,0.6,1.9,1.9,0.9,3.1c-1,1.2-6.5,4.7-5.4,5.9c1,1.2,12.5-4,14.3-3.5c1.8,0.5,2.8,1.5,1.8,2.2
						c-1,0.7-8.8,3.6-9.3,4.7c0,0,11.8-3.1,12.2-2.4c0.4,0.7,1.2,1.9,0,2.4c-1.2,0.4-11.3,3.1-12.2,3.5c-0.9,0.4-3.9,1.3-4.5,1.3
						c-0.3,0-2.6,0.8-4.7,1.5c-2.4,0.8-5,0.8-7.3-0.2l-1.2-0.5c-1.9-0.8-3-2.6-2.9-4.6l0.2-4l-1.3-3.3L110.3,474.4z"/>
				</g>
			</g>
			<g>
				<g>
					<g>
						<path class="st5" d="M100.4,463.7c0,0,0.2,0.1,0.7,0.2c0.5,0.1,1.2,0.2,1.9,0.3c1.8,0.3,4.2,0.7,7.2,1.2
							c3.1,0.5,6.7,1,10.6,1.6c2,0.3,4.1,0.6,6.3,1c2.1,0.4,4.4,1,6.1,2.5c1.7,1.5,3,3.4,4.4,5.1c1.4,1.7,2.7,3.4,4,5
							c2.5,3.1,4.8,6,6.8,8.4c1.9,2.3,3.5,4.2,4.6,5.6c0.5,0.6,0.9,1.1,1.3,1.5c0.3,0.3,0.5,0.5,0.5,0.5c0,0-0.1-0.2-0.4-0.6
							c-0.3-0.4-0.7-0.9-1.2-1.6c-1.1-1.4-2.6-3.4-4.4-5.7c-1.9-2.4-4.2-5.3-6.7-8.5c-1.3-1.6-2.6-3.3-3.9-5
							c-1.4-1.7-2.7-3.6-4.5-5.2c-1.8-1.6-4.2-2.2-6.4-2.6c-2.2-0.3-4.3-0.6-6.3-0.9c-4-0.6-7.6-1.1-10.7-1.5
							c-3-0.4-5.4-0.7-7.2-0.9c-0.8-0.1-1.4-0.2-2-0.2C100.6,463.7,100.4,463.7,100.4,463.7z"/>
					</g>
				</g>
			</g>
			<g>
				<g>
					<path class="st11" d="M117.4,469.6c0.4,0.2,0.8,0.5,1,0.8c0.2,0.4,0.3,0.9,0,1.2c-0.3,0.4-1.1,0.4-1.5,0
						c-0.3-0.2-0.5-0.5-0.6-0.9c-0.1-0.4,0-0.7,0.3-1c0.3-0.2,0.7-0.3,1,0"/>
				</g>
			</g>
			<g class="st10">
				<g>
					<path d="M111.2,484.2c-4.1-3.8-7.4-7.6-11.5-11.4c-0.8-0.8-1.7-1.9-1.2-2.9c0.3-0.6,1-0.8,1.7-0.7s1.2,0.4,1.8,0.7
						C106.9,472.9,108.7,479.1,111.2,484.2"/>
				</g>
			</g>
			<g>
				<g>
					<path class="st3" d="M176.4,498.1c0,0,0-0.3,0.3-0.9c0.3-0.6,0.8-1.3,1.5-2c0.7-0.8,1.6-1.6,2.2-2.9c0.6-1.2,1.1-2.6,1.2-4.2
						c0.3-3.1-0.4-6-0.9-8c-0.6-2-0.9-3.3-0.8-3.3c0.1,0,0.6,1.2,1.2,3.2c0.6,2,1.5,4.9,1.1,8.2c-0.2,1.6-0.6,3.2-1.3,4.4
						c-0.7,1.3-1.6,2.2-2.4,2.9c-0.8,0.7-1.3,1.3-1.6,1.8C176.5,497.8,176.4,498.1,176.4,498.1z"/>
				</g>
			</g>
			<g>
				<g>
					<path class="st3" d="M163.4,475.6c0.1,0,0.3,0.9,0.3,2.5c-0.1,1.5-0.5,3.7-1.8,5.7c-1.3,2-3,3.4-4.4,4.2
						c-1.4,0.7-2.3,0.9-2.3,0.9c0-0.1,0.9-0.4,2.1-1.2c1.3-0.8,2.9-2.2,4.1-4.1c1.2-1.9,1.7-4,1.9-5.5
						C163.4,476.6,163.3,475.6,163.4,475.6z"/>
				</g>
			</g>
			<g>
				<g>
					<path class="st3" d="M106.3,480.4c0,0,0.1,0.3,0.1,0.8c0,0.5-0.1,1.4-0.6,2.2c-0.5,0.9-1.3,1.8-2.5,2.4
						c-1.2,0.6-2.7,0.5-4.1,0.6c-1.4,0.1-2.6,0.7-3.6,1.5c-0.9,0.8-1.6,1.7-2,2.5c-0.8,1.7-0.8,2.9-0.9,2.9c0,0-0.1-0.3-0.1-0.8
						c0-0.5,0.2-1.3,0.6-2.2c0.4-0.9,1.1-1.9,2.1-2.7c1-0.8,2.3-1.5,3.9-1.7c1.5-0.1,2.9,0,4-0.5c1.1-0.5,1.9-1.3,2.3-2.1
						C106.4,481.6,106.1,480.4,106.3,480.4z"/>
				</g>
			</g>
		</g>
		<g>
			<g>
				<g>
					<g>
						<g>
							<g>
								<path class="st6" d="M66.1,363.4h-1.9l-4.2-5.8v-3.8c0,0-3-0.2-2.6,4.8c0.3,5,0,3.7,0,3.7s-6.3,0-6.8,0.6
									c-0.4,0.4-0.6,6.6-0.6,10c0,1.7,1,3.3,2.6,3.7c0.2,0.1,0.5,0.1,0.7,0.1c1.6,0,9.6-1.3,9.6-1.3h3.3V363.4z"/>
							</g>
						</g>
					</g>
				</g>
				<g>
					<g>
						<g>
							<g>
								<polygon class="st6" points="71.6,362.4 70.4,375.4 67.1,375.4 67.1,362.6 								"/>
							</g>
						</g>
					</g>
				</g>
			</g>
		</g>
		<g>
			<g>
				<path class="st4" d="M95.5,394.6c0,0-0.1,0-0.3,0c-0.2,0-0.5-0.1-0.9-0.1c-0.9-0.1-2.1-0.2-3.7-0.4c-3.3-0.3-8-0.8-13.9-1.5
					l-0.2-0.2l0.3,0.1c-4.1,2.8-9.7,5.3-16.3,5.7c-6.6,0.5-14.1-1.2-20.7-5.6c-6.5-4.4-11.9-11.8-13.6-20.6c-0.9-4.4-0.8-9,0.2-13.6
					c1-4.5,3.1-8.9,6-12.7c5.8-7.7,15-12.1,23.8-12.6c4.4-0.3,8.8,0.4,12.8,1.8c4,1.4,7.5,3.5,10.5,6.1c3,2.6,5.4,5.6,7.2,8.8
					c1.8,3.2,2.9,6.5,3.6,9.7c0.1,0.8,0.2,1.6,0.4,2.4c0.1,0.8,0.1,1.6,0.2,2.4c0.1,1.6,0.1,3.1-0.1,4.5c-0.3,2.9-0.9,5.6-1.8,7.9
					l0-0.1c2.1,5.7,3.7,10.2,4.8,13.3c0.5,1.5,1,2.7,1.3,3.5c0.1,0.4,0.2,0.7,0.3,0.9C95.5,394.5,95.6,394.6,95.5,394.6
					c0,0-0.1-0.1-0.1-0.3c-0.1-0.2-0.2-0.5-0.4-0.9c-0.3-0.8-0.8-2-1.3-3.5c-1.2-3.1-2.8-7.5-5-13.1l0-0.1l0-0.1
					c0.8-2.3,1.4-5,1.7-7.8c0.1-1.4,0.2-2.9,0.1-4.5c-0.1-0.8,0-1.5-0.2-2.3c-0.1-0.8-0.2-1.6-0.4-2.4c-0.7-3.2-1.8-6.4-3.5-9.6
					c-1.7-3.1-4.1-6.1-7.1-8.6c-2.9-2.5-6.5-4.6-10.4-6c-3.9-1.4-8.2-2-12.6-1.7c-8.7,0.5-17.7,4.8-23.4,12.4
					c-2.9,3.7-4.9,8.1-5.9,12.5c-1,4.5-1,9-0.2,13.3c1.6,8.6,6.9,15.9,13.3,20.3c6.4,4.4,13.9,6,20.3,5.6c6.5-0.4,12-2.8,16.1-5.5
					l0.3,0.1l-0.2-0.2c5.9,0.7,10.6,1.3,13.8,1.7c1.6,0.2,2.8,0.3,3.7,0.5c0.4,0.1,0.7,0.1,1,0.1C95.4,394.6,95.5,394.6,95.5,394.6z
					"/>
			</g>
		</g>
		<g>
			<g class="st12">
				<g>
					<g>
						<g>
							<path class="st13" d="M764.4,704.8c-2.2,7.5-5.4,14.6-9.3,21.1l11,18.4l-25.6,24.5L722.6,757c-6.7,3.7-13.9,6.5-21.6,8.3
								l-5.2,20.8l-35.4-0.8l-4.2-21c-7.5-2.2-14.6-5.4-21.1-9.4l-18.4,11l-24.5-25.6l11.9-17.9c-3.7-6.7-6.5-13.9-8.3-21.6
								l-20.8-5.2l0.8-35.4l21-4.2c2.2-7.5,5.4-14.6,9.4-21.1l-11-18.4l25.6-24.5l17.9,11.9c6.7-3.7,13.9-6.5,21.5-8.3l5.2-20.8
								l35.4,0.8l4.2,21c7.5,2.2,14.6,5.4,21.1,9.4l18.4-11l24.5,25.6l-11.9,17.9c3.7,6.7,6.5,13.9,8.3,21.6l20.8,5.2l-0.8,35.4
								L764.4,704.8L764.4,704.8z M718.6,682.9c0.5-21-16.1-38.4-37.1-38.9c-21-0.5-38.4,16.1-38.9,37.1
								c-0.5,21,16.1,38.4,37.1,38.9C700.6,720.5,718.1,703.9,718.6,682.9z"/>
						</g>
					</g>
				</g>
			</g>
		</g>
		<g>
			<g>
				<g>
					<g>
						<g>
							<g>
								<g>
									<path class="st3" d="M204.4,175.6c0,0,0.1,1.1-0.3,3.1c-0.5,1.9-1.8,4.8-4.7,7c-1.5,1.1-3.3,2-5.5,2.3
										c-2.1,0.3-4.5,0.2-6.8-0.7c-1.1-0.4-2.2-1-3.3-1.8c-1-0.8-1.9-1.7-2.7-2.8c-1.6-2.2-2.4-4.9-2.4-7.7
										c0.1-2.8,1.1-5.5,2.7-7.6c0.8-1.1,1.8-2,2.8-2.7c1-0.7,2.2-1.3,3.3-1.7c2.3-0.8,4.7-0.8,6.8-0.4c2.1,0.4,3.9,1.4,5.4,2.6
										c2.9,2.3,4,5.3,4.4,7.2C204.6,174.4,204.4,175.6,204.4,175.6c-0.1,0,0-1.1-0.5-3.1c-0.5-1.9-1.7-4.7-4.5-6.9
										c-1.4-1.1-3.1-2-5.2-2.4c-2-0.4-4.3-0.4-6.5,0.4c-1.1,0.4-2.2,0.9-3.1,1.6c-1,0.7-1.9,1.6-2.7,2.6c-1.6,2-2.5,4.5-2.6,7.2
										c0,2.7,0.8,5.3,2.2,7.3c0.7,1,1.6,1.9,2.5,2.7c0.9,0.7,2,1.3,3.1,1.8c2.1,0.9,4.4,1,6.5,0.7c2-0.3,3.8-1.1,5.3-2.2
										c2.9-2.1,4.2-4.8,4.8-6.7C204.4,176.7,204.3,175.6,204.4,175.6z"/>
								</g>
							</g>
						</g>
					</g>
				</g>
				<g>
					<g>
						<g>
							<g>
								<g>
									<path class="st3" d="M219.7,182.9c0,0,0.1,0,0.4-0.1c0.3-0.1,0.8-0.2,1.3-0.3c1.2-0.3,3-0.6,5.2-1.1l-0.1,0.1
										c0.1-3,0.1-7,0.2-11.8l0.1,0.2c-2.1-0.5-4.4-1.1-6.9-1.7l-0.1,0l0-0.1c-0.6-2.3-1.5-4.7-2.8-7.1l-0.1-0.1l0.1-0.1
										c1.2-1.9,2.5-3.9,3.9-5.9l0,0.3c-2.6-2.7-5.3-5.5-8.2-8.5l0.4,0c-1.9,1.1-4,2.4-6.1,3.7l-0.2,0.1l-0.2-0.1
										c-2-1.2-4.4-2.3-7-3.1l-0.2-0.1l0-0.2c-0.4-2.2-0.9-4.6-1.4-7l0.3,0.3c-3.7-0.1-7.7-0.2-11.8-0.3l0.3-0.3
										c-0.5,2.2-1.1,4.5-1.7,6.9l-0.1,0.2l-0.2,0c-2.3,0.6-4.8,1.5-7.1,2.7l-0.2,0.1l-0.2-0.1c-1.9-1.2-3.9-2.6-5.9-3.9l0.4,0
										c-2.7,2.6-5.6,5.3-8.5,8.1l0.1-0.4c1.2,1.9,2.4,4,3.7,6.1l0.1,0.2l-0.1,0.2c-1.3,2.1-2.3,4.4-3.1,6.9l0,0l0,0
										c-0.1,0.1,0.3-0.3-0.3,0.3l0,0l0,0l0,0l-0.1,0l-0.1,0l-0.2,0l-0.4,0.1l-0.9,0.2l-1.8,0.4c-1.2,0.2-2.3,0.5-3.5,0.7l0.3-0.3
										c-0.1,4-0.2,7.9-0.3,11.8l-0.3-0.4c2.3,0.6,4.6,1.2,6.9,1.7l0.2,0.1l0.1,0.2c0.6,2.5,1.5,4.9,2.7,7.1l0.1,0.2l-0.1,0.2
										c-1.3,2-2.6,4-3.9,5.9l0-0.4c2.8,2.9,5.5,5.8,8.1,8.5l-0.4-0.1c2.1-1.2,4.1-2.5,6.1-3.7l0.2-0.1l0.2,0.1
										c2.2,1.4,4.6,2.4,6.9,3.1l0.2,0.1l0,0.2c0.5,2.4,0.9,4.7,1.4,7l-0.3-0.2c4.1,0.1,8.1,0.2,11.8,0.3l-0.3,0.2
										c0.6-2.4,1.2-4.7,1.8-6.9l0-0.2l0.2,0c2.6-0.6,5-1.6,7.1-2.7l0.1-0.1l0.1,0.1c2.2,1.4,4.1,2.7,5.9,4l-0.3,0
										c3.3-3.1,6.1-5.8,8.6-8.1l0,0.2c-1.4-2.5-2.6-4.5-3.6-6.1l0-0.1l0-0.1c1.4-2.2,2.1-4,2.6-5.2c0.2-0.6,0.4-1,0.5-1.3
										C219.6,183,219.7,182.9,219.7,182.9c0,0,0,0.2-0.1,0.5c-0.1,0.3-0.2,0.8-0.4,1.4c-0.4,1.2-1.1,3-2.5,5.3l0-0.1
										c1,1.7,2.2,3.7,3.7,6.1l0.1,0.1l-0.1,0.1c-2.4,2.3-5.2,5-8.5,8.2l-0.1,0.1l-0.1-0.1c-1.8-1.2-3.8-2.5-5.9-3.9l0.2,0
										c-2.1,1.2-4.5,2.2-7.2,2.8l0.2-0.2c-0.5,2.2-1.1,4.5-1.7,6.9l-0.1,0.2l-0.2,0c-3.7-0.1-7.6-0.2-11.8-0.3l-0.2,0l0-0.2
										c-0.5-2.3-0.9-4.6-1.4-7l0.2,0.2c-2.4-0.7-4.8-1.8-7.1-3.1l0.3,0c-2,1.2-4,2.4-6.1,3.7l-0.2,0.1l-0.2-0.2
										c-2.6-2.8-5.4-5.6-8.1-8.5l-0.2-0.2l0.2-0.2c1.3-2,2.6-3.9,3.9-5.9l0,0.4c-1.2-2.3-2.2-4.7-2.8-7.3l0.3,0.3
										c-2.3-0.6-4.6-1.1-6.9-1.7l-0.3-0.1l0-0.3c0.1-3.9,0.2-7.8,0.3-11.8l0-0.3l0.3-0.1c1.2-0.2,2.3-0.5,3.5-0.7l1.8-0.4
										l0.9-0.2l0.4-0.1l0.2,0l0.1,0l0.1,0l0,0l0,0l0,0c-0.6,0.5-0.2,0.1-0.3,0.3l0,0l0,0c0.7-2.6,1.9-5,3.1-7.1l0,0.4
										c-1.3-2.1-2.5-4.2-3.7-6.1l-0.1-0.2l0.2-0.2c2.9-2.8,5.8-5.6,8.5-8.1l0.2-0.2l0.2,0.2c2,1.4,4.1,2.7,5.9,3.9l-0.4,0
										c2.4-1.3,4.9-2.2,7.3-2.8l-0.3,0.3c0.6-2.4,1.2-4.8,1.7-6.9l0.1-0.3l0.3,0c4.1,0.1,8.1,0.2,11.8,0.3l0.3,0l0.1,0.3
										c0.5,2.4,1,4.8,1.4,7l-0.2-0.2c2.6,0.8,5,1.9,7.1,3.2l-0.3,0c2.1-1.3,4.2-2.5,6.1-3.6l0.2-0.1l0.2,0.2
										c2.8,3,5.6,5.9,8.1,8.5l0.1,0.2l-0.1,0.2c-1.4,2.1-2.7,4.1-4,5.9l0-0.2c1.3,2.4,2.2,4.9,2.8,7.2l-0.2-0.2
										c2.5,0.6,4.8,1.2,6.9,1.8l0.1,0l0,0.1c-0.1,4.8-0.3,8.8-0.3,11.8l0,0.1l-0.1,0c-2.3,0.4-4,0.8-5.2,1
										c-0.6,0.1-1,0.2-1.3,0.2C219.8,182.9,219.7,182.9,219.7,182.9z"/>
								</g>
							</g>
						</g>
					</g>
				</g>
			</g>
			<g class="st12">
				<g>
					<g>
						<g>
							<path class="st14" d="M331.2,97.9c-1.4,4.9-3.5,9.6-6.2,13.9l7.2,12.1L315.4,140l-11.7-7.8c-4.4,2.4-9.2,4.3-14.2,5.5
								l-3.4,13.7l-23.3-0.6l-2.8-13.8c-4.9-1.4-9.6-3.5-13.9-6.2l-12.1,7.2l-16.1-16.9l7.8-11.7c-2.4-4.4-4.3-9.2-5.5-14.2
								l-13.7-3.4l0.5-23.3l13.8-2.8c1.4-4.9,3.5-9.6,6.2-13.9l-7.2-12.1l16.9-16.1l11.7,7.8c4.4-2.4,9.2-4.3,14.2-5.5l3.4-13.7
								l23.3,0.5l2.8,13.8c4.9,1.4,9.6,3.5,13.9,6.2l12.1-7.2l16.1,16.9l-7.8,11.7c2.4,4.4,4.3,9.2,5.5,14.2l13.7,3.4L345,95.2
								L331.2,97.9L331.2,97.9z M301,83.5c0.3-13.8-10.6-25.3-24.4-25.6c-13.8-0.3-25.3,10.6-25.6,24.4
								c-0.3,13.8,10.6,25.3,24.4,25.6C289.2,108.3,300.7,97.3,301,83.5z"/>
						</g>
					</g>
				</g>
			</g>
		</g>
		<g>
			<g>
				<g>
					<g>
						<path class="st6" d="M666,152.5c4.7-1.7,9.9-1.3,14.7,0.2c2.6,0.8,5.2,1.9,6.7,4.1c1.5,2.2,1.4,5.7-0.9,7.1
							c-1.4,0.8-3.1,0.8-4.7,0.5c-3.8-0.6-8-1.8-11.3,0.1c-1.9,1.1-3.4,3.1-5.5,3.5c-2.1,0.4-4.3-1.2-5.1-3.1
							c-0.8-2-0.6-4.3,0.2-6.3C660.1,158.6,661.2,154.2,666,152.5z"/>
					</g>
				</g>
			</g>
		</g>
		<g>
			<g>
				<g>
					<g>
						<path class="st6" d="M658.5,131.7c2.2,4.2,7.6,3.6,10.3,1.6c2.7-2,4.2-5.3,5.6-8.4c3.1-7.1,6.3-14.6,5.8-22.3
							c-0.2-2.3-0.7-4.7-2.1-6.6c-1.4-1.9-3.7-3.2-6-2.9c-2.7,0.3-4.7,2.7-6.2,5c-4.4,6.7-7.4,14.5-8.5,22.5
							C656.9,124.4,656.8,128.3,658.5,131.7"/>
					</g>
				</g>
			</g>
		</g>
		<g>
			<g>
				<g>
					<g>
						<path class="st6" d="M650.4,136.2c3.4-3.1,4.6-8,3.9-12.6c-0.7-4.5-3.1-8.6-6.1-12.1c-3.5-4.1-7.8-7.4-12.5-9.9
							c-1.9-1-3.9-1.8-6-1.9c-2.1-0.1-4.3,0.7-5.6,2.4c-1.8,2.5-0.9,6,0.2,8.9c2,5.1,4.4,10.1,7.1,14.8c2.2,3.8,4.8,7.6,8.7,9.8
							c3.9,2.1,8.1,2.5,10.7,0"/>
					</g>
				</g>
			</g>
		</g>
		<g>
			<g>
				<g>
					<g>
						<g>
							<path class="st4" d="M650.5,189.6c0,0,0.2-0.6,0.5-1.7c0.3-1.3,0.7-2.8,1.1-4.7c0.5-2,1.1-4.3,2-6.8c0.9-2.5,2.1-5.2,3.6-7.9
								c1.5-2.7,3.3-5.1,5.2-6.9c1.9-1.8,4-3.1,5.9-3.7c1.9-0.6,3.5-0.8,4.7-0.8c1.1,0,1.8,0,1.8,0c0,0-0.6-0.1-1.8-0.3
								c-1.1-0.1-2.8,0-4.8,0.6c-2,0.6-4.2,1.8-6.2,3.7c-2,1.9-3.8,4.3-5.4,7c-1.5,2.7-2.8,5.5-3.6,8c-0.9,2.6-1.5,4.9-1.9,6.9
								c-0.4,2-0.7,3.6-0.9,4.8C650.5,188.9,650.5,189.5,650.5,189.6z"/>
						</g>
					</g>
				</g>
			</g>
		</g>
		<g>
			<g>
				<g>
					<g>
						<g>
							<path class="st4" d="M651.3,185.9c0,0,0.1-0.3,0.2-0.8c0.1-0.6,0.2-1.4,0.3-2.3c0.3-2,0.7-4.9,1.3-8.5
								c1.1-7.1,2.8-14.8,5.5-25.5c2.5-10.1,5.6-21.8,8.3-29.3c0.6-1.7,1.1-3.3,1.7-4.6c0.5-1.3,0.9-2.5,1.3-3.4
								c0.3-0.9,0.6-1.6,0.8-2.2c0.2-0.5,0.3-0.8,0.2-0.8c0,0-0.2,0.2-0.4,0.7c-0.3,0.6-0.6,1.3-1,2.1c-0.4,0.9-0.9,2.1-1.4,3.4
								c-0.5,1.3-1.1,2.9-1.8,4.6c-2.5,6.8-5.5,16.4-8.2,27.1c-2.7,10.7-4.5,20.6-5.6,27.8c-0.5,3.6-0.8,6.5-1,8.5
								c-0.1,0.9-0.1,1.7-0.2,2.3C651.3,185.7,651.3,185.9,651.3,185.9z"/>
						</g>
					</g>
				</g>
			</g>
		</g>
		<g>
			<g>
				<g>
					<g>
						<g>
							<path class="st4" d="M654,166.8c0.1,0,0.2-0.9,0.3-2.4c0.1-1.6,0.2-3.8,0.1-6.6c-0.1-2.8-0.3-6.1-0.8-9.8
								c-0.2-1.7-0.7-5.7-2.5-11.8c-2.2-8.3-5.9-15.3-9.3-19.8c-0.8-1.2-1.7-2.1-2.4-2.9c-0.4-0.4-0.7-0.8-1-1.2
								c-0.3-0.3-0.7-0.6-1-0.9c-1.2-1.1-1.8-1.6-1.9-1.6c-0.1,0.1,2.6,2.3,5.9,6.8c3.2,4.5,6.7,11.5,9,19.7c1.3,4.5,2,8.4,2.5,11.7
								c0.6,3.6,0.8,7,1,9.7c0.1,2.8,0.1,5,0.1,6.6C653.9,165.9,653.9,166.8,654,166.8z"/>
						</g>
					</g>
				</g>
			</g>
		</g>
		<g>
			<rect x="268.2" y="131.1" class="st2" width="375.4" height="563"/>
		</g>
		<g>
			<rect x="268.2" y="211.7" class="st7" width="375.4" height="92.3"/>
		</g>
		<g>
			<rect x="268.2" y="408.1" class="st7" width="375.4" height="92.3"/>
		</g>
		<g>
			<circle class="st6" cx="316.2" cy="258.2" r="19.1"/>
		</g>
		<g>
			<g>
				<path class="st15" d="M325.7,252.5c0.5,0.6-3.2,5-8.3,10c-1.1,1-2.1,2-3,2.8l-1,0.9l-0.9-0.9c-3.5-3.7-5.7-6.7-5.3-7.1
					c0.4-0.4,3.4,1.8,7.1,5.2l-1.9,0c0.9-0.9,1.9-1.9,2.9-2.9C320.6,255.6,325.2,252,325.7,252.5z"/>
			</g>
		</g>
		<g>
			<g>
				<path class="st4" d="M355.6,276.6c-0.3,0-0.5-7.7-0.5-17.3c0-9.5,0.2-17.3,0.5-17.3c0.3,0,0.5,7.7,0.5,17.3
					C356.1,268.9,355.9,276.6,355.6,276.6z"/>
			</g>
		</g>
		<g>
			<path class="st4" d="M393.3,251.2l0.6-1.4c0.9,0.8,2.5,1.4,4,1.4c2.1,0,3-0.8,3-1.9c0-3-7.4-1.1-7.4-5.6c0-1.9,1.5-3.5,4.7-3.5
				c1.4,0,2.9,0.4,3.9,1.1l-0.6,1.4c-1.1-0.7-2.3-1-3.4-1c-2.1,0-3,0.9-3,1.9c0,3,7.4,1.1,7.4,5.6c0,1.9-1.5,3.5-4.7,3.5
				C396.1,252.8,394.3,252.1,393.3,251.2z"/>
			<path class="st4" d="M413.4,248.6h-7.5c0.2,1.6,1.5,2.7,3.4,2.7c1.1,0,2-0.4,2.7-1.1l0.9,1.1c-0.8,1-2.1,1.5-3.7,1.5
				c-3,0-5-2-5-4.7c0-2.7,2-4.7,4.7-4.7c2.7,0,4.6,1.9,4.6,4.8C413.4,248.2,413.4,248.4,413.4,248.6z M405.9,247.4h5.9
				c-0.2-1.6-1.3-2.7-3-2.7C407.2,244.7,406,245.8,405.9,247.4z"/>
			<path class="st4" d="M420.7,243.3v1.6c-0.1,0-0.3,0-0.4,0c-1.8,0-2.9,1.1-2.9,3.1v4.6h-1.7v-9.3h1.6v1.6
				C418,243.8,419.1,243.3,420.7,243.3z"/>
			<path class="st4" d="M431.4,243.4l-4.1,9.3h-1.7l-4.1-9.3h1.7l3.2,7.4l3.3-7.4H431.4z"/>
			<path class="st4" d="M441,248.6h-7.5c0.2,1.6,1.5,2.7,3.4,2.7c1.1,0,2-0.4,2.7-1.1l0.9,1.1c-0.8,1-2.1,1.5-3.7,1.5
				c-3,0-5-2-5-4.7c0-2.7,2-4.7,4.7-4.7c2.7,0,4.6,1.9,4.6,4.8C441.1,248.2,441.1,248.4,441,248.6z M433.5,247.4h5.9
				c-0.2-1.6-1.3-2.7-3-2.7C434.9,244.7,433.7,245.8,433.5,247.4z"/>
			<path class="st4" d="M448.4,243.3v1.6c-0.1,0-0.3,0-0.4,0c-1.8,0-2.9,1.1-2.9,3.1v4.6h-1.7v-9.3h1.6v1.6
				C445.6,243.8,446.8,243.3,448.4,243.3z"/>
			<path class="st4" d="M458.3,240.4v12.2h-1.7v-10.7h-2.8v-1.5H458.3z"/>
		</g>
		<g>
			<path class="st4" d="M566.8,359.5v10.3h-1.2l-6.2-7.7v7.7H558v-10.3h1.2l6.2,7.7v-7.7H566.8z"/>
			<path class="st4" d="M569.1,364.7c0-3,2.3-5.3,5.5-5.3c3.1,0,5.5,2.2,5.5,5.3c0,3-2.3,5.3-5.5,5.3
				C571.4,369.9,569.1,367.7,569.1,364.7z M578.6,364.7c0-2.3-1.7-4-4-4c-2.3,0-4,1.7-4,4c0,2.3,1.7,4,4,4
				C576.9,368.6,578.6,366.9,578.6,364.7z"/>
			<path class="st4" d="M589.3,369.8l-2.2-3.2c-0.2,0-0.4,0-0.7,0h-2.6v3.1h-1.5v-10.3h4c2.7,0,4.3,1.4,4.3,3.6
				c0,1.6-0.8,2.7-2.3,3.3l2.5,3.5H589.3z M589.2,363.1c0-1.5-1-2.3-2.9-2.3h-2.5v4.7h2.5C588.2,365.4,589.2,364.6,589.2,363.1z"/>
			<path class="st4" d="M602.7,369.8l0-7.5l-3.7,6.3h-0.7l-3.7-6.2v7.5h-1.4v-10.3h1.2l4.3,7.3l4.3-7.3h1.2l0,10.3H602.7z"/>
			<path class="st4" d="M613.8,367.2h-5.5l-1.1,2.6h-1.5l4.7-10.3h1.5l4.7,10.3h-1.6L613.8,367.2z M613.3,366.1l-2.2-5.1l-2.2,5.1
				H613.3z"/>
			<path class="st4" d="M618,359.5h1.5v9.1h5.6v1.3H618V359.5z"/>
		</g>
		<g>
			<path class="st4" d="M566.8,265.5v10.3h-1.2l-6.2-7.7v7.7H558v-10.3h1.2l6.2,7.7v-7.7H566.8z"/>
			<path class="st4" d="M569.1,270.7c0-3,2.3-5.3,5.5-5.3c3.1,0,5.5,2.2,5.5,5.3c0,3-2.3,5.3-5.5,5.3
				C571.4,275.9,569.1,273.7,569.1,270.7z M578.6,270.7c0-2.3-1.7-4-4-4c-2.3,0-4,1.7-4,4c0,2.3,1.7,4,4,4
				C576.9,274.6,578.6,272.9,578.6,270.7z"/>
			<path class="st4" d="M589.3,275.8l-2.2-3.2c-0.2,0-0.4,0-0.7,0h-2.6v3.1h-1.5v-10.3h4c2.7,0,4.3,1.4,4.3,3.6
				c0,1.6-0.8,2.7-2.3,3.3l2.5,3.5H589.3z M589.2,269.1c0-1.5-1-2.3-2.9-2.3h-2.5v4.7h2.5C588.2,271.4,589.2,270.6,589.2,269.1z"/>
			<path class="st4" d="M602.7,275.8l0-7.5l-3.7,6.3h-0.7l-3.7-6.2v7.5h-1.4v-10.3h1.2l4.3,7.3l4.3-7.3h1.2l0,10.3H602.7z"/>
			<path class="st4" d="M613.8,273.2h-5.5l-1.1,2.6h-1.5l4.7-10.3h1.5l4.7,10.3h-1.6L613.8,273.2z M613.3,272.1l-2.2-5.1l-2.2,5.1
				H613.3z"/>
			<path class="st4" d="M618,265.5h1.5v9.1h5.6v1.3H618V265.5z"/>
		</g>
		<g>
			
				<ellipse transform="matrix(0.7317 -0.6816 0.6816 0.7317 -154.8008 308.8919)" class="st6" cx="315" cy="351.1" rx="19.1" ry="19.1"/>
		</g>
		<g>
			<g>
				<path class="st15" d="M324.5,345.4c0.5,0.6-3.2,5-8.3,10c-1.1,1-2.1,2-3,2.8l-1,0.9l-0.9-0.9c-3.5-3.7-5.7-6.7-5.3-7.1
					c0.4-0.4,3.4,1.8,7.1,5.2l-1.9,0c0.9-0.9,1.9-1.9,2.9-2.9C319.3,348.4,323.9,344.9,324.5,345.4z"/>
			</g>
		</g>
		<g>
			<g>
				<path class="st4" d="M354.4,369.5c-0.3,0-0.5-7.7-0.5-17.3c0-9.5,0.2-17.3,0.5-17.3c0.3,0,0.5,7.7,0.5,17.3
					C354.8,361.8,354.6,369.5,354.4,369.5z"/>
			</g>
		</g>
		<g>
			<path class="st4" d="M393.3,344l0.6-1.4c0.9,0.8,2.5,1.4,4,1.4c2.1,0,3-0.8,3-1.9c0-3-7.4-1.1-7.4-5.6c0-1.9,1.5-3.5,4.7-3.5
				c1.4,0,2.9,0.4,3.9,1.1l-0.6,1.4c-1.1-0.7-2.3-1-3.4-1c-2.1,0-3,0.9-3,1.9c0,3,7.4,1.1,7.4,5.6c0,1.9-1.5,3.5-4.7,3.5
				C396.1,345.6,394.3,344.9,393.3,344z"/>
			<path class="st4" d="M413.4,341.3h-7.5c0.2,1.6,1.5,2.7,3.4,2.7c1.1,0,2-0.4,2.7-1.1l0.9,1.1c-0.8,1-2.1,1.5-3.7,1.5
				c-3,0-5-2-5-4.7c0-2.7,2-4.7,4.7-4.7c2.7,0,4.6,1.9,4.6,4.8C413.4,341,413.4,341.2,413.4,341.3z M405.9,340.1h5.9
				c-0.2-1.6-1.3-2.7-3-2.7C407.2,337.5,406,338.6,405.9,340.1z"/>
			<path class="st4" d="M420.7,336.1v1.6c-0.1,0-0.3,0-0.4,0c-1.8,0-2.9,1.1-2.9,3.1v4.6h-1.7v-9.3h1.6v1.6
				C418,336.6,419.1,336.1,420.7,336.1z"/>
			<path class="st4" d="M431.4,336.1l-4.1,9.3h-1.7l-4.1-9.3h1.7l3.2,7.4l3.3-7.4H431.4z"/>
			<path class="st4" d="M441,341.3h-7.5c0.2,1.6,1.5,2.7,3.4,2.7c1.1,0,2-0.4,2.7-1.1l0.9,1.1c-0.8,1-2.1,1.5-3.7,1.5
				c-3,0-5-2-5-4.7c0-2.7,2-4.7,4.7-4.7c2.7,0,4.6,1.9,4.6,4.8C441.1,341,441.1,341.2,441,341.3z M433.5,340.1h5.9
				c-0.2-1.6-1.3-2.7-3-2.7C434.9,337.5,433.7,338.6,433.5,340.1z"/>
			<path class="st4" d="M448.4,336.1v1.6c-0.1,0-0.3,0-0.4,0c-1.8,0-2.9,1.1-2.9,3.1v4.6h-1.7v-9.3h1.6v1.6
				C445.6,336.6,446.8,336.1,448.4,336.1z"/>
			<path class="st4" d="M463.1,343.9v1.5h-8.8v-1.2l5-4.8c1.3-1.3,1.5-2,1.5-2.8c0-1.3-0.9-2-2.6-2c-1.3,0-2.4,0.4-3.1,1.3l-1.2-1
				c0.9-1.2,2.6-1.9,4.5-1.9c2.6,0,4.2,1.3,4.2,3.4c0,1.2-0.4,2.3-2,3.8l-3.7,3.6H463.1z"/>
		</g>
		<g>
			<rect x="391.4" y="356.9" class="st6" width="100" height="12.9"/>
		</g>
		<g>
			<path class="st4" d="M567.5,456.2h1.5v9.1h5.6v1.3h-7.1V456.2z"/>
			<path class="st4" d="M576.2,456.2h1.5v10.3h-1.5V456.2z"/>
			<path class="st4" d="M588,461.3h1.4v4c-1,0.9-2.5,1.3-3.9,1.3c-3.2,0-5.5-2.2-5.5-5.3c0-3.1,2.3-5.3,5.5-5.3c1.6,0,3,0.5,4,1.6
				l-0.9,0.9c-0.9-0.8-1.8-1.2-3-1.2c-2.4,0-4.1,1.7-4.1,4c0,2.3,1.7,4,4.1,4c0.9,0,1.7-0.2,2.4-0.7V461.3z"/>
			<path class="st4" d="M601.1,456.2v10.3h-1.5v-4.6h-5.9v4.6h-1.5v-10.3h1.5v4.4h5.9v-4.4H601.1z"/>
			<path class="st4" d="M606.3,457.5h-3.5v-1.3h8.6v1.3h-3.5v9.1h-1.5V457.5z"/>
		</g>
		<g>
			
				<ellipse transform="matrix(0.7071 -0.7071 0.7071 0.7071 -228.5903 356.6367)" class="st6" cx="316.2" cy="454.3" rx="19.1" ry="19.1"/>
		</g>
		<g>
			<g>
				<path class="st15" d="M325.7,448.6c0.5,0.6-3.2,5-8.3,10c-1.1,1-2.1,2-3,2.8l-1,0.9l-0.9-0.9c-3.5-3.7-5.7-6.7-5.3-7.1
					c0.4-0.4,3.4,1.8,7.1,5.2l-1.9,0c0.9-0.9,1.9-1.9,2.9-2.9C320.6,451.6,325.2,448,325.7,448.6z"/>
			</g>
		</g>
		<g>
			<g>
				<path class="st4" d="M355.6,472.7c-0.3,0-0.5-7.7-0.5-17.3c0-9.5,0.2-17.3,0.5-17.3c0.3,0,0.5,7.7,0.5,17.3
					C356.1,464.9,355.9,472.7,355.6,472.7z"/>
			</g>
		</g>
		<g>
			<path class="st4" d="M393.3,445.4l0.6-1.4c0.9,0.8,2.5,1.4,4,1.4c2.1,0,3-0.8,3-1.9c0-3-7.4-1.1-7.4-5.6c0-1.9,1.5-3.5,4.7-3.5
				c1.4,0,2.9,0.4,3.9,1.1l-0.6,1.4c-1.1-0.7-2.3-1-3.4-1c-2.1,0-3,0.9-3,1.9c0,3,7.4,1.1,7.4,5.6c0,1.9-1.5,3.5-4.7,3.5
				C396.1,446.9,394.3,446.3,393.3,445.4z"/>
			<path class="st4" d="M413.4,442.7h-7.5c0.2,1.6,1.5,2.7,3.4,2.7c1.1,0,2-0.4,2.7-1.1l0.9,1.1c-0.8,1-2.1,1.5-3.7,1.5
				c-3,0-5-2-5-4.7c0-2.7,2-4.7,4.7-4.7c2.7,0,4.6,1.9,4.6,4.8C413.4,442.3,413.4,442.5,413.4,442.7z M405.9,441.5h5.9
				c-0.2-1.6-1.3-2.7-3-2.7C407.2,438.8,406,439.9,405.9,441.5z"/>
			<path class="st4" d="M420.7,437.4v1.6c-0.1,0-0.3,0-0.4,0c-1.8,0-2.9,1.1-2.9,3.1v4.6h-1.7v-9.3h1.6v1.6
				C418,438,419.1,437.4,420.7,437.4z"/>
			<path class="st4" d="M431.4,437.5l-4.1,9.3h-1.7l-4.1-9.3h1.7l3.2,7.4l3.3-7.4H431.4z"/>
			<path class="st4" d="M441,442.7h-7.5c0.2,1.6,1.5,2.7,3.4,2.7c1.1,0,2-0.4,2.7-1.1l0.9,1.1c-0.8,1-2.1,1.5-3.7,1.5
				c-3,0-5-2-5-4.7c0-2.7,2-4.7,4.7-4.7c2.7,0,4.6,1.9,4.6,4.8C441.1,442.3,441.1,442.5,441,442.7z M433.5,441.5h5.9
				c-0.2-1.6-1.3-2.7-3-2.7C434.9,438.8,433.7,439.9,433.5,441.5z"/>
			<path class="st4" d="M448.4,437.4v1.6c-0.1,0-0.3,0-0.4,0c-1.8,0-2.9,1.1-2.9,3.1v4.6h-1.7v-9.3h1.6v1.6
				C445.6,438,446.8,437.4,448.4,437.4z"/>
			<path class="st4" d="M462.9,443.2c0,2.1-1.5,3.7-4.6,3.7c-1.7,0-3.5-0.6-4.5-1.5l0.8-1.4c0.8,0.8,2.2,1.3,3.7,1.3
				c1.8,0,2.9-0.8,2.9-2.2c0-1.3-0.9-2.1-3-2.1h-1v-1.2l3.1-3.8h-5.9v-1.5h8.1v1.2l-3.2,3.9C461.7,439.9,462.9,441.3,462.9,443.2z"
				/>
		</g>
		<g>
			<rect x="392.6" y="460.1" class="st6" width="46.4" height="12.9"/>
		</g>
		<g>
			<path class="st4" d="M557.1,557.6c0-3,2.3-5.3,5.5-5.3c3.1,0,5.5,2.2,5.5,5.3s-2.3,5.3-5.5,5.3
				C559.4,562.9,557.1,560.6,557.1,557.6z M566.6,557.6c0-2.3-1.7-4-4-4c-2.3,0-4,1.7-4,4c0,2.3,1.7,4,4,4
				C564.9,561.5,566.6,559.9,566.6,557.6z"/>
			<path class="st4" d="M571.8,553.7v3.6h5.2v1.3h-5.2v4.2h-1.5v-10.3h7.3v1.3H571.8z"/>
			<path class="st4" d="M581.2,553.7v3.6h5.2v1.3h-5.2v4.2h-1.5v-10.3h7.3v1.3H581.2z"/>
			<path class="st4" d="M589.1,552.4h1.5v9.1h5.6v1.3h-7.1V552.4z"/>
			<path class="st4" d="M597.9,552.4h1.5v10.3h-1.5V552.4z"/>
			<path class="st4" d="M611.4,552.4v10.3h-1.2L604,555v7.7h-1.5v-10.3h1.2l6.2,7.7v-7.7H611.4z"/>
			<path class="st4" d="M622,561.5v1.3h-7.5v-10.3h7.3v1.3H616v3.2h5.2v1.3H616v3.3H622z"/>
		</g>
		<g>
			<path class="st5" d="M335.1,549.3c-1.4,10.4-11,17.7-21.5,16.3c-10.4-1.4-17.7-11-16.3-21.5c1.4-10.4,11-17.7,21.5-16.3
				C329.2,529.2,336.5,538.8,335.1,549.3z"/>
		</g>
		<g>
			<g>
				<path class="st4" d="M355.5,565.5c-0.3,0-0.5-7.7-0.5-17.3c0-9.5,0.2-17.3,0.5-17.3c0.3,0,0.5,7.7,0.5,17.3
					C356,557.8,355.8,565.5,355.5,565.5z"/>
			</g>
		</g>
		<g>
			<path class="st4" d="M393.3,540.1l0.6-1.4c0.9,0.8,2.5,1.4,4,1.4c2.1,0,3-0.8,3-1.9c0-3-7.4-1.1-7.4-5.6c0-1.9,1.5-3.5,4.7-3.5
				c1.4,0,2.9,0.4,3.9,1.1l-0.6,1.4c-1.1-0.7-2.3-1-3.4-1c-2.1,0-3,0.9-3,1.9c0,3,7.4,1.1,7.4,5.6c0,1.9-1.5,3.5-4.7,3.5
				C396.1,541.6,394.2,541,393.3,540.1z"/>
			<path class="st4" d="M413.3,537.4h-7.5c0.2,1.6,1.5,2.7,3.4,2.7c1.1,0,2-0.4,2.7-1.1l0.9,1.1c-0.8,1-2.1,1.5-3.7,1.5
				c-3,0-5-2-5-4.7c0-2.7,2-4.7,4.7-4.7c2.7,0,4.6,1.9,4.6,4.8C413.4,537.1,413.4,537.3,413.3,537.4z M405.8,536.2h5.9
				c-0.2-1.6-1.3-2.7-3-2.7C407.2,533.6,406,534.7,405.8,536.2z"/>
			<path class="st4" d="M420.7,532.2v1.6c-0.1,0-0.3,0-0.4,0c-1.8,0-2.9,1.1-2.9,3.1v4.6h-1.7v-9.3h1.6v1.6
				C417.9,532.7,419.1,532.2,420.7,532.2z"/>
			<path class="st4" d="M431.3,532.2l-4.1,9.3h-1.7l-4.1-9.3h1.7l3.2,7.4l3.3-7.4H431.3z"/>
			<path class="st4" d="M441,537.4h-7.5c0.2,1.6,1.5,2.7,3.4,2.7c1.1,0,2-0.4,2.7-1.1l0.9,1.1c-0.8,1-2.1,1.5-3.7,1.5
				c-3,0-5-2-5-4.7c0-2.7,2-4.7,4.7-4.7c2.7,0,4.6,1.9,4.6,4.8C441,537.1,441,537.3,441,537.4z M433.5,536.2h5.9
				c-0.2-1.6-1.3-2.7-3-2.7C434.8,533.6,433.6,534.7,433.5,536.2z"/>
			<path class="st4" d="M448.3,532.2v1.6c-0.1,0-0.3,0-0.4,0c-1.8,0-2.9,1.1-2.9,3.1v4.6h-1.7v-9.3h1.6v1.6
				C445.6,532.7,446.7,532.2,448.3,532.2z"/>
			<path class="st4" d="M465.1,538.5h-2.3v3h-1.7v-3h-6.8v-1.2l6.3-8h1.9l-6,7.7h4.7v-2.7h1.6v2.7h2.3V538.5z"/>
		</g>
		<g>
			<g>
				<path class="st4" d="M528.3,565.5c0,0,0-0.3,0-0.8c0-0.6,0-1.4,0-2.4c0-2.1-0.1-5.1-0.1-9l0.2,0.2c-22.6,0.2-74.9,0.3-135.8,0.3
					h0c-0.1,0.1,0.9-0.9,0.5-0.5v0v0v0v0v0.1v0.2v0.4v0.8l0,1.6c0,1,0,2.1,0,3.1c0,2,0,4.1,0,6l-0.5-0.5c38,0.1,71.9,0.1,96.3,0.2
					c12.2,0.1,22,0.1,28.9,0.1c3.4,0,6,0,7.9,0.1c0.9,0,1.5,0,2.1,0C528.1,565.5,528.3,565.5,528.3,565.5c0,0-0.2,0-0.7,0
					c-0.5,0-1.2,0-2,0c-1.8,0-4.4,0-7.7,0.1c-6.8,0-16.6,0.1-28.8,0.1c-24.5,0.1-58.5,0.1-96.6,0.2l-0.5,0l0-0.5c0-1.9,0-4,0-6
					c0-1,0-2.1,0-3.1l0-1.6v-0.8v-0.4v-0.2v-0.1v0v0v0v0c-0.4,0.4,0.6-0.6,0.5-0.5h0c60.9,0,113.1,0.1,135.8,0.3l0.2,0l0,0.2
					c0,3.9-0.1,7-0.1,9.1c0,1,0,1.8,0,2.3C528.4,565.3,528.3,565.5,528.3,565.5z"/>
			</g>
		</g>
		<g>
			<g>
				<path class="st15" d="M322.3,540.4c0.6,0.5-1.7,3.8-5.1,7.3c-3.4,3.5-6.6,5.8-7.1,5.3c-0.6-0.5,1.7-3.8,5.1-7.3
					C318.6,542.2,321.8,539.9,322.3,540.4z"/>
			</g>
		</g>
		<g>
			<g>
				<path class="st15" d="M322.5,552.8c-0.5,0.6-3.8-1.7-7.3-5.1c-3.5-3.4-5.8-6.6-5.3-7.1c0.5-0.6,3.8,1.7,7.3,5.1
					C320.7,549.1,323,552.3,322.5,552.8z"/>
			</g>
		</g>
		<g>
			<rect x="392.6" y="264.6" class="st6" width="115.4" height="12.6"/>
		</g>
		<g>
			<g>
				<path class="st4" d="M528.4,277.1c0,0,0-0.3,0-0.8c0-0.6,0-1.4,0-2.4c0-2.1-0.1-5.1-0.1-9l0.2,0.2c-22.6,0.2-74.9,0.3-135.8,0.3
					h0c-0.1,0.1,0.9-0.9,0.5-0.5v0v0v0v0v0.1v0.2v0.4v0.8v1.6c0,1,0,2.1,0,3.1c0,2,0,4.1,0,6l-0.5-0.5c38,0.1,71.9,0.1,96.3,0.2
					c12.2,0.1,22,0.1,28.9,0.1c3.4,0,6,0,7.9,0.1c0.9,0,1.5,0,2.1,0C528.1,277.1,528.4,277.1,528.4,277.1c0,0-0.2,0-0.7,0
					c-0.5,0-1.1,0-2,0c-1.8,0-4.4,0-7.7,0.1c-6.8,0-16.6,0.1-28.8,0.1c-24.5,0.1-58.5,0.1-96.6,0.2l-0.5,0v-0.5c0-1.9,0-4,0-6
					c0-1,0-2.1,0-3.1v-1.6v-0.8v-0.4v-0.2V265v0v0v0v0c-0.4,0.4,0.6-0.6,0.5-0.5h0c60.9,0,113.1,0.1,135.8,0.3l0.2,0l0,0.2
					c0,3.9-0.1,7-0.1,9.1c0,1,0,1.8,0,2.3C528.4,276.9,528.4,277.1,528.4,277.1z"/>
			</g>
		</g>
		<g>
			<g>
				<path class="st4" d="M527.2,369.5c0,0,0-0.3,0-0.8c0-0.6,0-1.4,0-2.4c0-2.1-0.1-5.1-0.1-9l0.2,0.2c-22.6,0.2-74.9,0.3-135.8,0.3
					h0c-0.1,0.1,0.9-0.9,0.5-0.5v0v0v0v0v0.1v0.2v0.4v0.8l0,1.6c0,1,0,2.1,0,3.1c0,2,0,4.1,0,6l-0.5-0.5c38,0.1,71.9,0.1,96.3,0.2
					c12.2,0.1,22,0.1,28.9,0.1c3.4,0,6,0,7.9,0.1c0.9,0,1.5,0,2.1,0C526.9,369.5,527.2,369.5,527.2,369.5c0,0-0.2,0-0.7,0
					c-0.5,0-1.2,0-2,0c-1.8,0-4.4,0-7.7,0.1c-6.8,0-16.6,0.1-28.8,0.1c-24.5,0.1-58.5,0.1-96.6,0.2l-0.5,0l0-0.5c0-1.9,0-4,0-6
					c0-1,0-2.1,0-3.1v-1.6v-0.8v-0.4v-0.2v-0.1v0v0v0v0c-0.4,0.4,0.6-0.6,0.5-0.5h0c60.9,0,113.1,0.1,135.8,0.3l0.2,0l0,0.2
					c0,3.9-0.1,7-0.1,9.1c0,1,0,1.8,0,2.3C527.2,369.3,527.2,369.5,527.2,369.5z"/>
			</g>
		</g>
		<g>
			<g>
				<path class="st4" d="M528.4,472.7c0,0,0-0.3,0-0.8c0-0.6,0-1.4,0-2.4c0-2.1-0.1-5.1-0.1-9l0.2,0.2c-22.6,0.2-74.9,0.3-135.8,0.3
					h0c-0.1,0.1,0.9-0.9,0.5-0.5v0v0v0v0v0.1v0.2v0.4v0.8v1.6c0,1,0,2.1,0,3.1c0,2,0,4.1,0,6l-0.5-0.5c38,0.1,71.9,0.1,96.3,0.2
					c12.2,0.1,22,0.1,28.9,0.1c3.4,0,6,0,7.9,0.1c0.9,0,1.5,0,2.1,0C528.1,472.7,528.4,472.7,528.4,472.7c0,0-0.2,0-0.7,0
					c-0.5,0-1.1,0-2,0c-1.8,0-4.4,0-7.7,0.1c-6.8,0-16.6,0.1-28.8,0.1c-24.5,0.1-58.5,0.1-96.6,0.2l-0.5,0v-0.5c0-1.9,0-4,0-6
					c0-1,0-2.1,0-3.1V462v-0.8v-0.4v-0.2v-0.1v0v0v0v0c-0.4,0.4,0.6-0.6,0.5-0.5h0c60.9,0,113.1,0.1,135.8,0.3l0.2,0l0,0.2
					c0,3.9-0.1,7-0.1,9.1c0,1,0,1.8,0,2.3C528.4,472.4,528.4,472.7,528.4,472.7z"/>
			</g>
		</g>
		<g>
			<rect x="268.2" y="601.8" class="st7" width="375.4" height="92.3"/>
		</g>
		<g>
			<path class="st4" d="M567.5,656h1.5v9.1h5.6v1.3h-7.1V656z"/>
			<path class="st4" d="M576.2,656h1.5v10.3h-1.5V656z"/>
			<path class="st4" d="M588,661.1h1.4v4c-1,0.9-2.5,1.3-3.9,1.3c-3.2,0-5.5-2.2-5.5-5.3c0-3.1,2.3-5.3,5.5-5.3c1.6,0,3,0.5,4,1.6
				l-0.9,0.9c-0.9-0.8-1.8-1.2-3-1.2c-2.4,0-4.1,1.7-4.1,4c0,2.3,1.7,4,4.1,4c0.9,0,1.7-0.2,2.4-0.7V661.1z"/>
			<path class="st4" d="M601.1,656v10.3h-1.5v-4.6h-5.9v4.6h-1.5V656h1.5v4.4h5.9V656H601.1z"/>
			<path class="st4" d="M606.3,657.3h-3.5V656h8.6v1.3h-3.5v9.1h-1.5V657.3z"/>
		</g>
		<g>
			<circle class="st6" cx="316.2" cy="647.9" r="19.1"/>
		</g>
		<g>
			<g>
				<path class="st15" d="M325.7,642.3c0.5,0.6-3.2,5-8.3,10c-1.1,1-2.1,2-3,2.8l-1,0.9l-0.9-0.9c-3.5-3.7-5.7-6.7-5.3-7.1
					c0.4-0.4,3.4,1.8,7.1,5.2l-1.9,0c0.9-0.9,1.9-1.9,2.9-2.9C320.6,645.3,325.2,641.7,325.7,642.3z"/>
			</g>
		</g>
		<g>
			<g>
				<path class="st4" d="M355.6,666.4c-0.3,0-0.5-7.7-0.5-17.3c0-9.5,0.2-17.3,0.5-17.3c0.3,0,0.5,7.7,0.5,17.3
					C356.1,658.6,355.9,666.4,355.6,666.4z"/>
			</g>
		</g>
		<g>
			<path class="st4" d="M393.3,639l0.6-1.4c0.9,0.8,2.5,1.4,4,1.4c2.1,0,3-0.8,3-1.9c0-3-7.4-1.1-7.4-5.6c0-1.9,1.5-3.5,4.7-3.5
				c1.4,0,2.9,0.4,3.9,1.1l-0.6,1.4c-1.1-0.7-2.3-1-3.4-1c-2.1,0-3,0.9-3,1.9c0,3,7.4,1.1,7.4,5.6c0,1.9-1.5,3.5-4.7,3.5
				C396.1,640.6,394.3,640,393.3,639z"/>
			<path class="st4" d="M413.4,636.4h-7.5c0.2,1.6,1.5,2.7,3.4,2.7c1.1,0,2-0.4,2.7-1.1l0.9,1.1c-0.8,1-2.1,1.5-3.7,1.5
				c-3,0-5-2-5-4.7c0-2.7,2-4.7,4.7-4.7c2.7,0,4.6,1.9,4.6,4.8C413.4,636,413.4,636.2,413.4,636.4z M405.9,635.2h5.9
				c-0.2-1.6-1.3-2.7-3-2.7C407.2,632.5,406,633.6,405.9,635.2z"/>
			<path class="st4" d="M420.7,631.1v1.6c-0.1,0-0.3,0-0.4,0c-1.8,0-2.9,1.1-2.9,3.1v4.6h-1.7v-9.3h1.6v1.6
				C418,631.7,419.1,631.1,420.7,631.1z"/>
			<path class="st4" d="M431.4,631.2l-4.1,9.3h-1.7l-4.1-9.3h1.7l3.2,7.4l3.3-7.4H431.4z"/>
			<path class="st4" d="M441,636.4h-7.5c0.2,1.6,1.5,2.7,3.4,2.7c1.1,0,2-0.4,2.7-1.1l0.9,1.1c-0.8,1-2.1,1.5-3.7,1.5
				c-3,0-5-2-5-4.7c0-2.7,2-4.7,4.7-4.7c2.7,0,4.6,1.9,4.6,4.8C441.1,636,441.1,636.2,441,636.4z M433.5,635.2h5.9
				c-0.2-1.6-1.3-2.7-3-2.7C434.9,632.5,433.7,633.6,433.5,635.2z"/>
			<path class="st4" d="M448.4,631.1v1.6c-0.1,0-0.3,0-0.4,0c-1.8,0-2.9,1.1-2.9,3.1v4.6h-1.7v-9.3h1.6v1.6
				C445.6,631.7,446.8,631.1,448.4,631.1z"/>
			<path class="st4" d="M462.9,636.8c0,2.1-1.5,3.7-4.6,3.7c-1.7,0-3.5-0.6-4.5-1.5l0.8-1.4c0.8,0.8,2.2,1.3,3.7,1.3
				c1.8,0,2.9-0.8,2.9-2.2c0-1.3-0.9-2.1-3-2.1h-1v-1.2l3.1-3.8h-5.9v-1.5h8.1v1.2l-3.2,3.9C461.7,633.6,462.9,635,462.9,636.8z"/>
		</g>
		<g>
			<rect x="392.6" y="653.8" class="st6" width="46.4" height="12.9"/>
		</g>
		<g>
			<g>
				<path class="st4" d="M528.4,666.4c0,0,0-0.3,0-0.8c0-0.6,0-1.4,0-2.4c0-2.1-0.1-5.1-0.1-9l0.2,0.2c-22.6,0.2-74.9,0.3-135.8,0.3
					h0c-0.1,0.1,0.9-0.9,0.5-0.5v0v0v0v0v0.1v0.2v0.4v0.8v1.6c0,1,0,2.1,0,3.1c0,2,0,4.1,0,6l-0.5-0.5c38,0.1,71.9,0.1,96.3,0.2
					c12.2,0.1,22,0.1,28.9,0.1c3.4,0,6,0,7.9,0.1c0.9,0,1.5,0,2.1,0C528.1,666.3,528.4,666.3,528.4,666.4c0,0-0.2,0-0.7,0
					c-0.5,0-1.1,0-2,0c-1.8,0-4.4,0-7.7,0.1c-6.8,0-16.6,0.1-28.8,0.1c-24.5,0.1-58.5,0.1-96.6,0.2l-0.5,0v-0.5c0-1.9,0-4,0-6
					c0-1,0-2.1,0-3.1v-1.6v-0.8v-0.4v-0.2v-0.1v0v0v0v0c-0.4,0.4,0.6-0.6,0.5-0.5h0c60.9,0,113.1,0.1,135.8,0.3l0.2,0l0,0.2
					c0,3.9-0.1,7-0.1,9.1c0,1,0,1.8,0,2.3C528.4,666.1,528.4,666.4,528.4,666.4z"/>
			</g>
		</g>
		<g>
			<path class="st4" d="M321.3,177.3l0.8-1.6c1.1,1,3,1.7,4.9,1.7c2.6,0,3.7-1,3.7-2.3c0-3.6-9-1.3-9-6.8c0-2.3,1.8-4.2,5.7-4.2
				c1.8,0,3.6,0.5,4.8,1.3l-0.7,1.7c-1.3-0.8-2.8-1.2-4.1-1.2c-2.5,0-3.6,1-3.6,2.3c0,3.6,9,1.3,9,6.7c0,2.2-1.8,4.2-5.8,4.2
				C324.7,179.1,322.5,178.4,321.3,177.3z"/>
			<path class="st4" d="M345.8,174.1h-9.2c0.3,2,1.9,3.3,4.1,3.3c1.3,0,2.4-0.4,3.3-1.3l1.1,1.3c-1,1.2-2.6,1.8-4.5,1.8
				c-3.6,0-6.1-2.4-6.1-5.7c0-3.3,2.4-5.7,5.7-5.7c3.3,0,5.6,2.3,5.6,5.7C345.8,173.6,345.8,173.9,345.8,174.1z M336.6,172.6h7.3
				c-0.2-1.9-1.6-3.2-3.6-3.2C338.3,169.4,336.8,170.7,336.6,172.6z"/>
			<path class="st4" d="M354.7,167.7v2c-0.2,0-0.3,0-0.5,0c-2.2,0-3.6,1.3-3.6,3.8v5.5h-2v-11.1h2v1.9
				C351.3,168.4,352.7,167.7,354.7,167.7z"/>
			<path class="st4" d="M367.7,167.8l-5,11.1h-2.1l-4.9-11.1h2.1l3.9,8.9l4-8.9H367.7z"/>
			<path class="st4" d="M379.5,174.1h-9.2c0.3,2,1.9,3.3,4.1,3.3c1.3,0,2.4-0.4,3.3-1.3l1.1,1.3c-1,1.2-2.6,1.8-4.5,1.8
				c-3.6,0-6.1-2.4-6.1-5.7c0-3.3,2.4-5.7,5.7-5.7c3.3,0,5.6,2.3,5.6,5.7C379.5,173.6,379.5,173.9,379.5,174.1z M370.3,172.6h7.3
				c-0.2-1.9-1.6-3.2-3.6-3.2C372,169.4,370.5,170.7,370.3,172.6z"/>
			<path class="st4" d="M388.5,167.7v2c-0.2,0-0.3,0-0.5,0c-2.2,0-3.6,1.3-3.6,3.8v5.5h-2v-11.1h2v1.9
				C385.1,168.4,386.5,167.7,388.5,167.7z"/>
			<path class="st4" d="M389.6,177.8l0.9-1.6c1,0.7,2.5,1.2,4,1.2c1.9,0,2.7-0.6,2.7-1.5c0-2.5-7.1-0.3-7.1-4.8c0-2,1.8-3.3,4.7-3.3
				c1.5,0,3.1,0.4,4.1,1l-0.9,1.6c-1-0.7-2.2-0.9-3.3-0.9c-1.8,0-2.7,0.7-2.7,1.5c0,2.6,7.2,0.5,7.2,4.8c0,2-1.9,3.3-4.9,3.3
				C392.4,179.1,390.6,178.5,389.6,177.8z"/>
			<path class="st4" d="M406.4,177.3l0.8-1.6c1.1,1,3,1.7,4.9,1.7c2.6,0,3.7-1,3.7-2.3c0-3.6-9-1.3-9-6.8c0-2.3,1.8-4.2,5.7-4.2
				c1.7,0,3.6,0.5,4.8,1.3l-0.7,1.7c-1.3-0.8-2.8-1.2-4.1-1.2c-2.5,0-3.6,1-3.6,2.3c0,3.6,9,1.3,9,6.7c0,2.2-1.8,4.2-5.8,4.2
				C409.9,179.1,407.6,178.4,406.4,177.3z"/>
			<path class="st4" d="M427.1,178.3c-0.6,0.5-1.6,0.8-2.5,0.8c-2.3,0-3.6-1.2-3.6-3.5v-6.1h-1.9v-1.7h1.9v-2.4h2v2.4h3.2v1.7h-3.2
				v6c0,1.2,0.6,1.9,1.8,1.9c0.6,0,1.2-0.2,1.6-0.5L427.1,178.3z"/>
			<path class="st4" d="M438.6,172.2v6.7h-1.9v-1.5c-0.7,1-1.9,1.6-3.7,1.6c-2.6,0-4.2-1.3-4.2-3.3c0-1.8,1.2-3.3,4.5-3.3h3.2v-0.4
				c0-1.7-1-2.7-3-2.7c-1.3,0-2.7,0.5-3.6,1.2l-0.9-1.5c1.2-0.9,2.9-1.4,4.7-1.4C436.8,167.7,438.6,169.2,438.6,172.2z M436.5,175.6
				V174h-3.2c-2,0-2.6,0.8-2.6,1.7c0,1.1,0.9,1.8,2.5,1.8C434.8,177.5,436,176.8,436.5,175.6z"/>
			<path class="st4" d="M448.7,178.3c-0.6,0.5-1.6,0.8-2.5,0.8c-2.3,0-3.6-1.2-3.6-3.5v-6.1h-1.9v-1.7h1.9v-2.4h2v2.4h3.2v1.7h-3.2
				v6c0,1.2,0.6,1.9,1.8,1.9c0.6,0,1.2-0.2,1.6-0.5L448.7,178.3z"/>
			<path class="st4" d="M461.7,167.8V179h-1.9v-1.7c-0.8,1.2-2.2,1.8-3.8,1.8c-2.9,0-4.9-1.6-4.9-4.8v-6.4h2v6.2
				c0,2.2,1.1,3.3,3.1,3.3c2.1,0,3.5-1.3,3.5-3.7v-5.7H461.7z"/>
			<path class="st4" d="M464.2,177.8l0.9-1.6c1,0.7,2.5,1.2,4,1.2c1.9,0,2.7-0.6,2.7-1.5c0-2.5-7.1-0.3-7.1-4.8c0-2,1.8-3.3,4.7-3.3
				c1.5,0,3.1,0.4,4.1,1l-0.9,1.6c-1-0.7-2.2-0.9-3.3-0.9c-1.8,0-2.7,0.7-2.7,1.5c0,2.6,7.2,0.5,7.2,4.8c0,2-1.9,3.3-4.9,3.3
				C467,179.1,465.1,178.5,464.2,177.8z"/>
		</g>
		<g>
			<g>
				<path class="st4" d="M312.1,168.4h-17.9c-0.1,0-0.2-0.1-0.2-0.2v-4.9c0-0.1,0.1-0.2,0.2-0.2h17.9c0.1,0,0.2,0.1,0.2,0.2v4.9
					C312.3,168.3,312.2,168.4,312.1,168.4z"/>
			</g>
			<g>
				<path class="st4" d="M312.1,175h-17.9c-0.1,0-0.2-0.1-0.2-0.2v-4.9c0-0.1,0.1-0.2,0.2-0.2h17.9c0.1,0,0.2,0.1,0.2,0.2v4.9
					C312.3,174.9,312.2,175,312.1,175z"/>
			</g>
			<g>
				<path class="st4" d="M312.1,181.6h-17.9c-0.1,0-0.2-0.1-0.2-0.2v-4.9c0-0.1,0.1-0.2,0.2-0.2h17.9c0.1,0,0.2,0.1,0.2,0.2v4.9
					C312.3,181.5,312.2,181.6,312.1,181.6z"/>
			</g>
		</g>
		<g>
			<g>
				<circle class="st4" cx="623.9" cy="162.1" r="2.8"/>
			</g>
			<g>
				<path class="st4" d="M626.7,169.7c0,1.6-1.3,2.8-2.8,2.8c-1.6,0-2.8-1.3-2.8-2.8c0-1.6,1.3-2.8,2.8-2.8
					C625.5,166.9,626.7,168.2,626.7,169.7z"/>
			</g>
			<g>
				<circle class="st4" cx="623.9" cy="177.8" r="2.8"/>
			</g>
		</g>
		<g>
			<g>
				<path class="st4" d="M643.6,694.1c0-3.8-0.2-231.5-0.4-563l0.4,0.4c-114.6,0-241.7,0-375.3,0h0l0.5-0.5c0,212.3-0.1,408-0.1,563
					l-0.4-0.4C497,694,640.5,694.1,643.6,694.1c-3,0-146.6,0.1-375.4,0.4l-0.4,0v-0.4c0-155-0.1-350.8-0.1-563v-0.5h0.5h0
					c133.7,0,260.8,0,375.3,0h0.4l0,0.4C643.8,462.6,643.6,690.3,643.6,694.1z"/>
			</g>
		</g>
	</g>
</g>
</svg>
