<?xml version="1.0" encoding="utf-8"?>
<!-- Generator: Adobe Illustrator 23.0.0, SVG Export Plug-In . SVG Version: 6.00 Build 0)  -->
<svg version="1.1" xmlns="http://www.w3.org/2000/svg" xmlns:xlink="http://www.w3.org/1999/xlink" x="0px" y="0px"
	 viewBox="0 0 3710 3710" style="enable-background:new 0 0 3710 3710;" xml:space="preserve">
<g id="Background">
</g>
<g id="Illustration">
	<g>
		<linearGradient id="SVGID_1_" gradientUnits="userSpaceOnUse" x1="3849.6553" y1="4007.5684" x2="1448.7603" y2="1451.7775">
			<stop  offset="0" style="stop-color:#DAE3FE"/>
			<stop  offset="1" style="stop-color:#E9EFFD"/>
		</linearGradient>
		<path style="fill:url(#SVGID_1_);" d="M3128.79,2982.2c-88.63,91.36-167.94,145.06-228.65,185.6
			c-592.17,395.4-1269.09,281.43-1478.37,242.48c-337.66-62.84-622.69-107.18-867.58-328.43
			C-2.28,2579.11,24.79,1530.35,449.99,880.68c50.42-77.03,474.98-706.37,1153.36-795.05c16.59-2.17,28.97-3.4,39.82-4.55
			c104.94-11.11,755.26-69.75,1285.53,374.51c75.91,63.59,198.06,178.3,311.34,353.25
			C3654.23,1448.52,3655.54,2439.24,3128.79,2982.2z"/>
		<g>
			<linearGradient id="SVGID_2_" gradientUnits="userSpaceOnUse" x1="2587.3835" y1="2266.3418" x2="3357.8857" y2="2266.3418">
				<stop  offset="0" style="stop-color:#4F52FF"/>
				<stop  offset="1" style="stop-color:#4042E2"/>
			</linearGradient>
			<path style="fill:url(#SVGID_2_);" d="M2807.68,1306.89l302.05-70.32c0,0,201.95-18.15,229.26,161.35
				c27.31,179.5,19.4,1242.94,10.85,1462.26c-2.82,72.29-2.47,139.08,3.68,197.32c12.81,121.32-81.84,227.29-203.82,229.4
				l-562.32,9.73L2807.68,1306.89z"/>
			<g>
				<path style="fill:#BDD0FB;" d="M2646.99,3383.06c0,0,60.33-846.07,489.51-1361.82c5.6-6.72,15.29-5.04,18.25,3.23
					C3201.51,2155.12,3464.37,2995.29,2646.99,3383.06z"/>
				<linearGradient id="SVGID_3_" gradientUnits="userSpaceOnUse" x1="2663.7717" y1="2803.5144" x2="3117.9912" y2="2803.5144">
					<stop  offset="0" style="stop-color:#DAE3FE"/>
					<stop  offset="1" style="stop-color:#E9EFFD"/>
				</linearGradient>
				<path style="fill:url(#SVGID_3_);" d="M3117.98,2266.76c-3.62,49.36-10.76,98.07-19.04,146.69
					c-8.56,48.54-18.62,96.85-30.46,144.73c-23.62,95.78-53.17,190.23-89.51,282.14c-18.32,45.88-37.75,91.37-59.5,135.77
					c-10.54,22.36-22.31,44.13-33.58,66.12c-11.98,21.64-23.67,43.42-36.64,64.49c-50.23,85.14-109.08,165.38-176.24,237.59
					c-2,2.15-5.37,2.27-7.52,0.27c-2.03-1.88-2.25-4.98-0.6-7.13l0.05-0.07c59.77-77.47,113.62-158.91,160.32-244.4
					c12.04-21.16,22.75-43.05,34.21-64.51c10.65-21.9,21.78-43.54,31.71-65.79c4.98-11.11,10.38-22.02,15.2-33.2l14.7-33.43
					c4.82-11.18,9.35-22.49,14.03-33.72c4.74-11.22,9.17-22.56,13.54-33.93c9.08-22.6,17.51-45.46,26.02-68.29
					c8.12-22.98,16.24-45.96,23.83-69.12c15.66-46.18,29.57-92.94,43-139.87c13.14-47,25.37-94.3,36.35-141.91
					c11.19-47.54,21.13-95.54,29.56-143.57l0.03-0.15c0.51-2.9,3.27-4.83,6.16-4.32C3116.3,2261.61,3118.17,2264.08,3117.98,2266.76
					z"/>
			</g>
			<g>
				<path style="fill:#91B3FA;" d="M2700.18,3290.44c0,0,442.42-744.18,923.76-755.84c8.54-0.21,15.03,7.64,13.27,16
					C3616.72,2647.87,3473.41,3157.09,2700.18,3290.44z"/>
				<path style="fill:#BDD0FB;" d="M3522.04,2652.67c-29.17,30.62-59.2,60.09-89.65,89.25c-15.38,14.4-30.76,28.8-46.29,43.03
					c-15.68,14.07-31.17,28.35-47,42.25c-63.17,55.78-128.29,109.34-195.14,160.67c-33.17,26-67.53,50.43-101.43,75.45l-51.87,36.14
					c-8.66,6-17.26,12.09-26.02,17.95l-26.47,17.28c-69.95,47.07-143.03,89.28-216.64,130.26c-2.57,1.43-5.81,0.51-7.24-2.06
					c-1.41-2.53-0.53-5.71,1.95-7.17l0.14-0.08l54.32-31.86l27.15-15.92c8.97-5.44,17.78-11.15,26.68-16.72l53.36-33.41
					c17.59-11.44,34.96-23.23,52.45-34.83l26.19-17.46l25.79-18.05l51.54-36.16c33.69-25.04,67.83-49.47,100.79-75.48
					c33.4-25.43,66.06-51.8,98.75-78.14l48.41-40.27l47.81-40.98c15.92-13.68,31.51-27.74,47.29-41.59
					c15.63-14.01,31.11-28.19,46.59-42.37c30.81-28.47,61.43-57.32,90.86-87.06l0.07-0.07c2.07-2.09,5.43-2.11,7.52-0.04
					C3523.99,2647.26,3524.03,2650.58,3522.04,2652.67z"/>
			</g>
			<path style="fill:#7D97F4;" d="M2193.63,1321.49c0,0,549.98,30.22,916.1-84.92c0,0-243.39-16.68-243.39,545.25
				c0,429.63,63.72,1249.65,8.08,1405.32c-55.63,155.66-263.65,364.91-561.85,185.08
				C2014.38,3192.39,2193.63,1321.49,2193.63,1321.49z"/>
			<linearGradient id="SVGID_4_" gradientUnits="userSpaceOnUse" x1="2693.8533" y1="1091.1259" x2="1595.3728" y2="-1192.2352">
				<stop  offset="0" style="stop-color:#4042E2"/>
				<stop  offset="1" style="stop-color:#4F52FF"/>
			</linearGradient>
			<path style="fill:url(#SVGID_4_);" d="M2047.41,479.03c0,0,606.82,66.15,684.99-36.71c0,0-62.18-185.11-246.85-172.79
				C2300.88,281.84,2047.41,479.03,2047.41,479.03z"/>
			<path style="fill:#91B3FA;" d="M73.83,687.29c52.91,594.67,164.06,1852.51,212.41,2465.23
				c10.78,136.6,120.27,244.49,257.01,253.27c487.09,31.27,1583.3,91.93,2003.96,35.49h0c-96.37-47.51-157.05-145.97-156.17-253.4
				l22.34-2749.47c0.79-97.15,97.56-166.96,188.53-132.87c57.32,21.48,100.72,67.23,130.49,136.78
				c-39.72-115.74-102.18-200.42-246.85-172.79c0,0-1414.93,14.15-2101.54,56.72C197.44,337.81,57.26,501.1,73.83,687.29z"/>
			<defs>
				<filter id="Adobe_OpacityMaskFilter" filterUnits="userSpaceOnUse" x="127.87" y="331.75" width="2286.57" height="3091.33">
					<feFlood  style="flood-color:white;flood-opacity:1" result="back"/>
					<feBlend  in="SourceGraphic" in2="back" mode="normal"/>
				</filter>
			</defs>
			<mask maskUnits="userSpaceOnUse" x="127.87" y="331.75" width="2286.57" height="3091.33" id="SVGID_5_">
				<g style="filter:url(#Adobe_OpacityMaskFilter);">
					<defs>
						
							<filter id="Adobe_OpacityMaskFilter_1_" filterUnits="userSpaceOnUse" x="127.87" y="331.75" width="2286.57" height="3091.33">
							<feFlood  style="flood-color:white;flood-opacity:1" result="back"/>
							<feBlend  in="SourceGraphic" in2="back" mode="normal"/>
						</filter>
					</defs>
					<mask maskUnits="userSpaceOnUse" x="127.87" y="331.75" width="2286.57" height="3091.33" id="SVGID_5_">
						<g style="filter:url(#Adobe_OpacityMaskFilter_1_);">
						</g>
					</mask>
					<linearGradient id="SVGID_6_" gradientUnits="userSpaceOnUse" x1="2130.7776" y1="914.8015" x2="-796.842" y2="4661.2559">
						<stop  offset="0" style="stop-color:#FFFFFF"/>
						<stop  offset="1" style="stop-color:#000000"/>
					</linearGradient>
					<path style="mask:url(#SVGID_5_);fill:url(#SVGID_6_);" d="M423.85,404.94l1901.25-73.2
						c-78.42,580.54-45.32,1762.75-15.4,2927.86c1.77,69.07,42.28,131.24,104.75,160.76l0,0c0,0-1268.12,14.61-1813-24.04
						c-128.3-9.1-232.95-106.18-252.02-233.38c-74.8-499.18-253.77-1788.73-216.52-2471.45
						C141.44,535.17,267.39,410.96,423.85,404.94z"/>
				</g>
			</mask>
			<linearGradient id="SVGID_7_" gradientUnits="userSpaceOnUse" x1="2130.7776" y1="914.8015" x2="-796.842" y2="4661.2559">
				<stop  offset="0" style="stop-color:#FFFFFF"/>
				<stop  offset="1" style="stop-color:#FFFFFF"/>
			</linearGradient>
			<path style="opacity:0.53;fill:url(#SVGID_7_);" d="M423.85,404.94l1901.25-73.2c-78.42,580.54-45.32,1762.75-15.4,2927.86
				c1.77,69.07,42.28,131.24,104.75,160.76l0,0c0,0-1268.12,14.61-1813-24.04c-128.3-9.1-232.95-106.18-252.02-233.38
				c-74.8-499.18-253.77-1788.73-216.52-2471.45C141.44,535.17,267.39,410.96,423.85,404.94z"/>
			<g>
				<linearGradient id="SVGID_8_" gradientUnits="userSpaceOnUse" x1="398.2551" y1="1400.087" x2="702.2058" y2="1400.087">
					<stop  offset="0" style="stop-color:#DAE3FE"/>
					<stop  offset="1" style="stop-color:#E9EFFD"/>
				</linearGradient>
				<path style="fill:url(#SVGID_8_);" d="M398.69,1305.41l22.19,212.96c4.07,39.04,36.21,69.15,75.43,70.65l123.99,4.76
					c44.72,1.72,81.91-34.07,81.91-78.82v-229.73c0-46.11-39.39-82.39-85.34-78.62l-146.18,12.01
					C426.59,1222.24,394.1,1261.41,398.69,1305.41z"/>
				<linearGradient id="SVGID_9_" gradientUnits="userSpaceOnUse" x1="791.4399" y1="1267.9833" x2="2079.3818" y2="1267.9833">
					<stop  offset="0" style="stop-color:#DAE3FE"/>
					<stop  offset="1" style="stop-color:#E9EFFD"/>
				</linearGradient>
				<path style="fill:url(#SVGID_9_);" d="M834.7,1239.77c206.37-6.42,998.55-32.17,1198.6-38.68
					c25.23-0.82,46.09,19.41,46.09,44.66l0,0c0,24.03-19.01,43.76-43.02,44.65l-1197.82,44.47c-23.07,0.86-43-16.01-45.97-38.9
					l-0.75-5.79C788.42,1263.99,808.31,1240.59,834.7,1239.77z"/>
				<linearGradient id="SVGID_10_" gradientUnits="userSpaceOnUse" x1="815.0508" y1="1474.7413" x2="1679.5509" y2="1474.7413">
					<stop  offset="0" style="stop-color:#DAE3FE"/>
					<stop  offset="1" style="stop-color:#E9EFFD"/>
				</linearGradient>
				<path style="fill:url(#SVGID_10_);" d="M821.74,1520.52L821.74,1520.52c3.5,5.88,9.89,9.41,16.73,9.27l822.49-17.87
					c10.33-0.22,18.59-8.66,18.59-19v-54.22c0-10.77-8.95-19.39-19.71-18.99l-799.55,29.9
					C824.67,1450.93,803.48,1489.91,821.74,1520.52z"/>
			</g>
			<g>
				<linearGradient id="SVGID_11_" gradientUnits="userSpaceOnUse" x1="398.2551" y1="1991.1353" x2="702.2058" y2="1991.1353">
					<stop  offset="0" style="stop-color:#DAE3FE"/>
					<stop  offset="1" style="stop-color:#E9EFFD"/>
				</linearGradient>
				<path style="fill:url(#SVGID_11_);" d="M398.69,1896.46l22.19,212.96c4.07,39.04,36.21,69.15,75.43,70.65l123.99,4.76
					c44.72,1.72,81.91-34.07,81.91-78.82v-229.73c0-46.11-39.39-82.39-85.34-78.62l-146.18,12.01
					C426.59,1813.29,394.1,1852.46,398.69,1896.46z"/>
				<linearGradient id="SVGID_12_" gradientUnits="userSpaceOnUse" x1="791.4399" y1="1859.0319" x2="2079.3818" y2="1859.0319">
					<stop  offset="0" style="stop-color:#DAE3FE"/>
					<stop  offset="1" style="stop-color:#E9EFFD"/>
				</linearGradient>
				<path style="fill:url(#SVGID_12_);" d="M834.7,1830.82c206.37-6.42,998.55-32.17,1198.6-38.68
					c25.23-0.82,46.09,19.41,46.09,44.66v0c0,24.03-19.01,43.76-43.02,44.65l-1197.82,44.47c-23.07,0.86-43-16.01-45.97-38.9
					l-0.75-5.79C788.42,1855.04,808.31,1831.64,834.7,1830.82z"/>
				<path style="opacity:0.78;fill:#FFFFFF;" d="M821.74,2111.57L821.74,2111.57c3.5,5.88,9.89,9.41,16.73,9.27l822.49-17.87
					c10.33-0.22,18.59-8.66,18.59-19v-54.22c0-10.77-8.95-19.39-19.71-18.99l-799.55,29.9
					C824.67,2041.98,803.48,2080.96,821.74,2111.57z"/>
			</g>
			<g>
				<linearGradient id="SVGID_13_" gradientUnits="userSpaceOnUse" x1="398.2551" y1="2582.1836" x2="702.2058" y2="2582.1836">
					<stop  offset="0" style="stop-color:#DAE3FE"/>
					<stop  offset="1" style="stop-color:#E9EFFD"/>
				</linearGradient>
				<path style="fill:url(#SVGID_13_);" d="M398.69,2487.51l22.19,212.96c4.07,39.04,36.21,69.15,75.43,70.65l123.99,4.76
					c44.72,1.72,81.91-34.07,81.91-78.82v-229.73c0-46.11-39.39-82.39-85.34-78.62l-146.18,12.01
					C426.59,2404.34,394.1,2443.51,398.69,2487.51z"/>
				<linearGradient id="SVGID_14_" gradientUnits="userSpaceOnUse" x1="791.4399" y1="2450.0801" x2="2079.3818" y2="2450.0801">
					<stop  offset="0" style="stop-color:#DAE3FE"/>
					<stop  offset="1" style="stop-color:#E9EFFD"/>
				</linearGradient>
				<path style="fill:url(#SVGID_14_);" d="M834.7,2421.87c206.37-6.42,998.55-32.17,1198.6-38.68
					c25.23-0.82,46.09,19.41,46.09,44.66l0,0c0,24.03-19.01,43.76-43.02,44.65l-1197.82,44.47c-23.07,0.86-43-16.01-45.97-38.9
					l-0.75-5.79C788.42,2446.09,808.31,2422.69,834.7,2421.87z"/>
				<linearGradient id="SVGID_15_" gradientUnits="userSpaceOnUse" x1="815.0508" y1="2656.8384" x2="1679.5509" y2="2656.8384">
					<stop  offset="0" style="stop-color:#DAE3FE"/>
					<stop  offset="1" style="stop-color:#E9EFFD"/>
				</linearGradient>
				<path style="fill:url(#SVGID_15_);" d="M821.74,2702.62L821.74,2702.62c3.5,5.88,9.89,9.41,16.73,9.27l822.49-17.87
					c10.33-0.22,18.59-8.66,18.59-19v-54.23c0-10.77-8.95-19.39-19.71-18.99l-799.55,29.9
					C824.67,2633.03,803.48,2672.01,821.74,2702.62z"/>
			</g>
			<path style="fill:#FFFFFF;" d="M2794.91,2549.85c-5.03,0-9.15-4.03-9.25-9.08c-0.01-0.28-0.57-29.45-3.37-129.38
				c-0.15-5.11,3.88-9.37,8.99-9.51c4.99-0.25,9.37,3.88,9.51,8.99c2.81,100.06,3.38,129.26,3.38,129.55
				c0.1,5.11-3.97,9.34-9.08,9.43C2795.03,2549.85,2794.97,2549.85,2794.91,2549.85z"/>
			<path style="fill:#FFFFFF;" d="M2788.18,2305.92c-4.98,0-9.09-3.96-9.25-8.97c-1.99-65.05-5.09-136.96-8.38-213.1
				c-4.43-102.87-9.02-209.24-11.44-311.71c-6.39-270.44,38.22-374.25,76.77-413.72c20.95-21.45,38.5-22.08,40.44-22.08
				c5.11,0,9.26,4.15,9.26,9.26c0,5.05-4.04,9.15-9.07,9.26c-2.11,0.15-108.46,11.84-98.88,416.85
				c2.42,102.29,7,208.57,11.43,311.35c3.28,76.19,6.39,148.16,8.38,213.33c0.16,5.11-3.86,9.38-8.97,9.53
				C2788.37,2305.92,2788.28,2305.92,2788.18,2305.92z"/>
			<linearGradient id="SVGID_16_" gradientUnits="userSpaceOnUse" x1="1832.1327" y1="2454.7593" x2="1427.4709" y2="3490.8086">
				<stop  offset="0" style="stop-color:#09005D"/>
				<stop  offset="1" style="stop-color:#1A0F91"/>
			</linearGradient>
			<path style="fill:url(#SVGID_16_);" d="M1446.86,3303.33c-9.38,0-18.78-4.44-28.7-13.55c-36.45-33.49-45.87-84.95-48.43-133.91
				c-16.82,18.83-34.03,37.16-51.05,55.29l-9.42-8.84c19.98-21.29,40.23-42.87,59.77-65.16c-1.62-67.05,1.48-134.81,9.2-201.46
				c4.74-40.86,11.56-84.11,29.28-123.56c5.65-12.58,15.02-30.61,31.14-41.88c16.82-11.76,38.87-13.04,53.63-3.12
				c16.59,11.15,21.06,32.27,22.98,47.19c11.28,87.69-22.94,168.06-53.62,220.05c-22.79,38.59-50.36,73.9-79.56,107.48
				c1.51,50.11,8.46,105.01,44.81,138.41c7.66,7.04,14.33,10.38,20.57,10.13c10.25-0.37,18.54-10.32,25.3-19.99
				c30.74-44.02,54.64-91.76,71.35-142.38c1.95-15.24,6.21-30.17,12.69-44.12l12.13,4.25c-3.51,14.45-7.57,28.7-12.17,42.73
				c-1.71,14.34-1.19,28.94,1.66,43.12c1.51,7.54,7.87,32.41,26.24,35.91c13.7,2.59,27.98-7.77,43.76-31.74l64.65-98.27l-8.17,35.18
				c-2.88,12.42-7.71,42.08,9.62,49.21c9.87,4.07,20.3-1.81,32.37-8.62c12.01-6.76,24.41-13.77,38.52-11.88l6.65,0.89l-1.14,6.61
				c-0.66,3.78-5.88,37.05,11.38,40.86c7.9,1.76,14.51-3.72,24.47-12.92c7.83-7.24,15.92-14.72,26.57-17.3l3.04,12.55
				c-7.38,1.79-13.92,7.83-20.84,14.22c-9.82,9.08-20.94,19.38-36.02,16.06c-19.65-4.34-24.48-26.48-22.35-48.09
				c-7.74,1.13-15.66,5.59-23.94,10.25c-13.12,7.38-27.98,15.75-43.63,9.31c-12.91-5.31-19.91-18.14-20.44-36.5l-29.95,45.53
				c-12.09,18.38-31.12,42.28-56.96,37.34c-17.74-3.38-31.38-20.6-36.48-46.06c-0.71-3.55-1.29-7.13-1.74-10.71
				c-15.85,39.37-36.14,76.82-60.68,111.97c-8.08,11.57-19.41,24.93-35.41,25.51C1447.58,3303.32,1447.22,3303.33,1446.86,3303.33z
				 M1469.33,2773.31c-8.49,0-17.05,3.19-23.28,7.54c-13.5,9.44-21.74,25.4-26.76,36.58c-16.99,37.84-23.61,79.92-28.23,119.76
				c-7.1,61.3-10.26,123.57-9.39,185.32c25.3-29.83,48.99-61.06,68.84-94.7c29.66-50.24,62.74-127.78,51.94-211.83
				c-2.54-19.75-8.06-31.86-17.38-38.12C1480.3,2774.64,1474.83,2773.31,1469.33,2773.31z"/>
			<path style="opacity:0.78;fill:#FFFFFF;" d="M2013.52,973.67l-1514.6,44.94c-54.41,1.61-100.1-40.62-102.76-94.98l-5.56-113.3
				c-2.75-56,41.11-103.3,97.16-104.78l1522.12-40.24c56.91-1.5,103.57,44.77,102.54,101.69l-1.97,108.6
				C2109.49,928.93,2066.83,972.09,2013.52,973.67z"/>
		</g>
		<g>
			
				<linearGradient id="SVGID_17_" gradientUnits="userSpaceOnUse" x1="-1944.0446" y1="-10516.4766" x2="-1870.5847" y2="-10516.4766" gradientTransform="matrix(-0.9813 0.1926 -0.1926 -0.9813 -2396.9971 -7779.7432)">
				<stop  offset="0" style="stop-color:#FEBBBA"/>
				<stop  offset="1" style="stop-color:#FF928E"/>
			</linearGradient>
			<path style="fill:url(#SVGID_17_);" d="M1536.43,2166.99c0,0-50.52-33.14-57.51-25.5c-2.49,2.72-8.3,11.96-13.72,22.04
				c-3.82,7.11-2.64,15.88,2.97,21.68l13.02,13.46c12.41,12.83,33.41,11.91,44.36-2.18
				C1531.08,2189.38,1535.48,2179.8,1536.43,2166.99z"/>
			<g>
				<g>
					
						<linearGradient id="SVGID_18_" gradientUnits="userSpaceOnUse" x1="185.3132" y1="2093.2454" x2="519.8175" y2="2093.2454" gradientTransform="matrix(1 0 0 1 1290.1023 0)">
						<stop  offset="0" style="stop-color:#FEBBBA"/>
						<stop  offset="1" style="stop-color:#FF928E"/>
					</linearGradient>
					<path style="fill:url(#SVGID_18_);" d="M1587.93,2104.04c0,0-17.34-45.64-37.59-41.46c-20.25,4.18-42.4,19.74-42.4,19.74
						l-32.53,44c0,0,91.32,35.98,123.44,15.36c0,0,93.28,16.12,211.07-3.21c-17.05-36-27.21-72.04-33.18-100.02
						C1717.08,2072.21,1652.82,2097.44,1587.93,2104.04z"/>
					<linearGradient id="SVGID_19_" gradientUnits="userSpaceOnUse" x1="2467.8945" y1="970.4845" x2="2264.1279" y2="1372.2778">
						<stop  offset="0" style="stop-color:#09005D"/>
						<stop  offset="1" style="stop-color:#1A0F91"/>
					</linearGradient>
					<path style="fill:url(#SVGID_19_);" d="M2082.03,1773.02c0,0-133.55,168.21-305.29,265.42c5.97,27.98,16.13,64.02,33.18,100.02
						c89.09-14.62,192.2-49.51,279.62-127.03L2082.03,1773.02z"/>
				</g>
				<linearGradient id="SVGID_20_" gradientUnits="userSpaceOnUse" x1="2793.2595" y1="1135.4924" x2="2589.4937" y2="1537.2843">
					<stop  offset="0" style="stop-color:#09005D"/>
					<stop  offset="1" style="stop-color:#1A0F91"/>
				</linearGradient>
				<path style="fill:url(#SVGID_20_);" d="M2248.58,2518.56c-26.12-124.06-52.23-195.88-139.68-431.02
					c-27.52-74-52.51-148.87-40.43-226.89l13.57-87.63c0,0,169.95-57.51,358.33-2.42c0,0,257.02,111.65,82.44,663.08
					C2444.12,2521.71,2352.03,2546.8,2248.58,2518.56z"/>
				
					<linearGradient id="SVGID_21_" gradientUnits="userSpaceOnUse" x1="933.7643" y1="1758.6725" x2="880.1246" y2="1597.7528" gradientTransform="matrix(1 0 0 1 1290.1023 0)">
					<stop  offset="0" style="stop-color:#FEBBBA"/>
					<stop  offset="1" style="stop-color:#FF928E"/>
				</linearGradient>
				<path style="fill:url(#SVGID_21_);" d="M2110.96,1661.19l44.07,105.87c2.78,6.69,8.8,11.45,15.94,12.68
					c25.41,4.36,86.86,11.16,127.21-15.37c4.81-3.16,6.03-9.7,2.74-14.42l-81.42-116.89L2110.96,1661.19z"/>
				<g>
					<linearGradient id="SVGID_22_" gradientUnits="userSpaceOnUse" x1="2098.5725" y1="1561.1949" x2="2291.3647" y2="1645.0178">
						<stop  offset="0" style="stop-color:#FEBBBA"/>
						<stop  offset="1" style="stop-color:#FF928E"/>
					</linearGradient>
					<path style="fill:url(#SVGID_22_);" d="M2156.53,1499.21c-1.85,1.74-78.11,151.5-78.11,151.5l86.43,41.72l93.36-131.2
						C2258.22,1561.23,2187.52,1470.04,2156.53,1499.21z"/>
					
						<linearGradient id="SVGID_23_" gradientUnits="userSpaceOnUse" x1="4914.2275" y1="5742.5962" x2="5144.5303" y2="5742.5962" gradientTransform="matrix(-0.6854 -0.7281 -0.7281 0.6854 9787.373 1318.7853)">
						<stop  offset="0" style="stop-color:#09005D"/>
						<stop  offset="1" style="stop-color:#1A0F91"/>
					</linearGradient>
					<path style="fill:url(#SVGID_23_);" d="M2218.94,1576.97l-43.11,71.86c-0.65,1.09-1.43,2.08-2.36,2.94
						c-5.13,4.78-22.69,18.67-36.26-0.25c-11.57-16.12-22.42-30.78-34.05-36.82c-6.79-3.53-15.15-0.71-18.6,6.12
						c-7.1,14.08-20.86,42.77-29.5,69.98c-2.17,6.82,1.35,14.14,7.99,16.83c17.5,7.09,52.09,19.91,82.79,24.15
						c5.04,0.7,10.03-1.43,13.03-5.54c13.21-18.09,50.43-68.65,63.13-81.3c11.8-11.76,33.58-7.32,43.4-4.5
						c3.73,1.07,7.69,0.56,11.01-1.44c9.96-6,27.34-20.93,11.44-46.22c-3.95-6.29-1.94-14.66,4.27-18.74
						c11.12-7.31,23.18-21.04,11.69-43.27c-11.64-22.5-32.41-24.53-46.57-22.8c-6.26,0.77-12.62-2.52-15.02-8.35
						c-1.07-2.59-3.18-4.81-7.11-5.6c-7.42-1.5-12.29-8.29-10.83-15.72c2.5-12.74,0.62-29.28-19.72-40.46
						c-37.29-20.5-69.96,12.91-78.27,41.11c-8.31,28.2,33.39,48.13,59.62,51.46c19.27,2.44,29.83,23.47,34.08,34.46
						C2221.52,1568.85,2221.14,1573.3,2218.94,1576.97z"/>
					<linearGradient id="SVGID_24_" gradientUnits="userSpaceOnUse" x1="2086.5588" y1="1588.8265" x2="2279.3506" y2="1672.6492">
						<stop  offset="0" style="stop-color:#FEBBBA"/>
						<stop  offset="1" style="stop-color:#FF928E"/>
					</linearGradient>
					<path style="fill:url(#SVGID_24_);" d="M2203.83,1666.46c0,0,18.55-43.65,39.78-41.86c21.23,1.78,37.93,22.93,11.63,46.7
						C2222.51,1700.86,2203.83,1666.46,2203.83,1666.46z"/>
				</g>
				<g>
					
						<linearGradient id="SVGID_25_" gradientUnits="userSpaceOnUse" x1="2289.0771" y1="3623.4614" x2="2528.6758" y2="3623.4614" gradientTransform="matrix(-1 0 0 1 4753.7588 0)">
						<stop  offset="0" style="stop-color:#4042E2"/>
						<stop  offset="1" style="stop-color:#4F52FF"/>
					</linearGradient>
					<path style="fill:url(#SVGID_25_);" d="M2231.85,3611.87c41.05,3.55,112.28,9.31,168.44,11.78c33.76,1.49,53.19-1.82,64.39-6.3
						c-0.02,1.26-0.05,2.45-0.1,3.56c-0.27,5.91-5.07,10.64-11.04,10.97c-106.12,5.92-190.51,2.05-220.56,0.22
						c-6.21-0.38-9.92-7.13-6.74-12.43C2227.83,3617.03,2229.76,3614.44,2231.85,3611.87z"/>
					<linearGradient id="SVGID_26_" gradientUnits="userSpaceOnUse" x1="3043.0002" y1="3399.2947" x2="2175.4363" y2="3646.5708">
						<stop  offset="0" style="stop-color:#09005D"/>
						<stop  offset="1" style="stop-color:#1A0F91"/>
					</linearGradient>
					<path style="fill:url(#SVGID_26_);" d="M2400.29,3623.66c-56.16-2.47-127.4-8.23-168.44-11.78
						c40.36-49.51,168.44-82.88,168.44-82.88h36.18c24.88,35.87,28.48,70.01,28.21,88.36
						C2453.49,3621.84,2434.05,3625.14,2400.29,3623.66z"/>
					
						<linearGradient id="SVGID_27_" gradientUnits="userSpaceOnUse" x1="2311.1975" y1="3510.9436" x2="2378.6882" y2="3510.9436" gradientTransform="matrix(-1 0 0 1 4753.7588 0)">
						<stop  offset="0" style="stop-color:#FEBBBA"/>
						<stop  offset="1" style="stop-color:#FF928E"/>
					</linearGradient>
					<path style="fill:url(#SVGID_27_);" d="M2442.56,3469.93l-3.39,66.99c-0.37,7.25-5.8,13.35-13.06,14.39
						c-7.23,1.03-16.91,1.17-27.17-2.25c-6.32-2.1-11.01-7.42-12.17-13.92l-11.7-65.21H2442.56z"/>
				</g>
				<g>
					<g>
						
							<linearGradient id="SVGID_28_" gradientUnits="userSpaceOnUse" x1="1811.4176" y1="3618.2944" x2="1903.2351" y2="3618.2944" gradientTransform="matrix(-1 0 0 1 4753.7588 0)">
							<stop  offset="0" style="stop-color:#4042E2"/>
							<stop  offset="1" style="stop-color:#4F52FF"/>
						</linearGradient>
						<path style="fill:url(#SVGID_28_);" d="M2912.44,3623.15c17.8-2.48,25.85-11.73,29.23-21.61c0.02,0.09,0.05,0.18,0.07,0.27
							c2.62,10.43-3.45,21.23-15.59,26.37c-14.67,6.21-30.71,7.27-43.16,6.76c-13.36-0.55-25.62-6.08-32.36-14.93l-0.1-0.13
							C2863.93,3626.51,2882.76,3627.29,2912.44,3623.15z"/>
						<linearGradient id="SVGID_29_" gradientUnits="userSpaceOnUse" x1="2559.3474" y1="3349.0356" x2="3100.0027" y2="3701.0906">
							<stop  offset="0" style="stop-color:#09005D"/>
							<stop  offset="1" style="stop-color:#1A0F91"/>
						</linearGradient>
						<path style="fill:url(#SVGID_29_);" d="M2828.52,3469.5h29.83c45.44-0.93,73.98,94.92,83.32,132.04
							c-3.38,9.89-11.43,19.13-29.23,21.61c-29.69,4.14-48.51,3.36-61.92-3.28c-24.55-32.31-36.72-79.62-42.57-107.24
							C2801.3,3481.23,2828.52,3469.5,2828.52,3469.5z"/>
					</g>
					
						<linearGradient id="SVGID_30_" gradientUnits="userSpaceOnUse" x1="1882.1371" y1="3454.6816" x2="1962.7944" y2="3454.6816" gradientTransform="matrix(-1 0 0 1 4753.7588 0)">
						<stop  offset="0" style="stop-color:#FEBBBA"/>
						<stop  offset="1" style="stop-color:#FF928E"/>
					</linearGradient>
					<path style="fill:url(#SVGID_30_);" d="M2854.52,3407.32l16.57,65.89c2.03,8.08-1.84,16.43-9.3,20.27
						c-9.27,4.76-22.31,9.75-34.31,8.31c-5.64-0.68-10.32-4.65-12.19-9.96l-24.32-69.32L2854.52,3407.32z"/>
				</g>
				
					<linearGradient id="SVGID_31_" gradientUnits="userSpaceOnUse" x1="-462.2387" y1="3573.1106" x2="768.52" y2="1871.5277" gradientTransform="matrix(-1 0 0 1 2420.7585 0)">
					<stop  offset="0" style="stop-color:#09005D"/>
					<stop  offset="1" style="stop-color:#1A0F91"/>
				</linearGradient>
				<path style="fill:url(#SVGID_31_);" d="M2874.28,3426.37c-20.61,18.28-87.65,20.7-87.65,20.7
					c-241.49-579.6-342.17-739.16-342.17-739.16c34.87,218.77,7.52,780.31,7.52,780.31c-39.85,17.58-91.23,0-91.23,0
					c-3.24-358.15-53.66-743-118.69-989.25c163.22-3.67,251.92-39.25,280.26-61.67C2658.37,2656.65,2874.28,3426.37,2874.28,3426.37
					z"/>
				<g>
					
						<linearGradient id="SVGID_32_" gradientUnits="userSpaceOnUse" x1="88.8835" y1="4004.8982" x2="81.3987" y2="3313.7974" gradientTransform="matrix(0.9919 -0.127 0.127 0.9919 1989.9969 -609.5969)">
						<stop  offset="0" style="stop-color:#FF928E"/>
						<stop  offset="1" style="stop-color:#FE7062"/>
					</linearGradient>
					<path style="fill:url(#SVGID_32_);" d="M2200.93,2660.94l30.03,186.8c5.24,32.57,35.41,55.17,68.31,51.15l449.51-54.83
						c21.99-2.68,38.67-21.04,39.11-43.09c0.96-48.27-0.93-134.17-21.19-212.43L2200.93,2660.94z"/>
					<path style="fill:#FFFFFF;" d="M2314.43,2886.36c-0.74,0-1.37-0.55-1.47-1.3c-0.1-0.81,0.48-1.55,1.29-1.65l11.75-1.43
						c0.86-0.09,1.55,0.48,1.65,1.29c0.1,0.81-0.48,1.55-1.29,1.65l-11.75,1.43C2314.55,2886.35,2314.49,2886.36,2314.43,2886.36z
						 M2287.04,2885.84c-0.12,0-0.24-0.02-0.36-0.05c-3.91-0.97-7.74-2.34-11.39-4.07c-0.74-0.35-1.05-1.24-0.7-1.97
						c0.36-0.74,1.25-1.05,1.97-0.7c3.47,1.65,7.11,2.95,10.83,3.88c0.79,0.19,1.27,1,1.08,1.79
						C2288.31,2885.39,2287.7,2885.84,2287.04,2885.84z M2353.58,2881.58c-0.74,0-1.37-0.55-1.47-1.3c-0.1-0.81,0.48-1.55,1.29-1.64
						l11.75-1.43c0.79-0.11,1.54,0.48,1.64,1.29c0.1,0.81-0.48,1.55-1.29,1.64l-11.74,1.43
						C2353.7,2881.58,2353.64,2881.58,2353.58,2881.58z M2392.72,2876.81c-0.74,0-1.37-0.55-1.47-1.3c-0.1-0.81,0.48-1.55,1.29-1.65
						l11.74-1.43c0.86-0.13,1.55,0.48,1.65,1.29c0.1,0.81-0.48,1.55-1.29,1.65l-11.74,1.43
						C2392.83,2876.81,2392.78,2876.81,2392.72,2876.81z M2431.86,2872.03c-0.74,0-1.37-0.55-1.47-1.3
						c-0.1-0.81,0.48-1.55,1.29-1.65l11.74-1.43c0.86-0.1,1.55,0.48,1.65,1.29c0.1,0.81-0.48,1.55-1.29,1.65l-11.74,1.43
						C2431.97,2872.03,2431.92,2872.03,2431.86,2872.03z M2471,2867.26c-0.74,0-1.37-0.55-1.47-1.3c-0.1-0.81,0.48-1.55,1.29-1.65
						l11.74-1.43c0.86-0.11,1.55,0.48,1.65,1.29c0.1,0.81-0.48,1.55-1.29,1.65l-11.74,1.43
						C2471.11,2867.26,2471.05,2867.26,2471,2867.26z M2254.64,2864.71c-0.44,0-0.88-0.2-1.17-0.58c-2.47-3.2-4.62-6.65-6.38-10.29
						c-0.36-0.74-0.05-1.62,0.68-1.98c0.74-0.35,1.62-0.05,1.98,0.68c1.68,3.46,3.72,6.74,6.06,9.78c0.5,0.65,0.38,1.58-0.26,2.07
						C2255.27,2864.61,2254.95,2864.71,2254.64,2864.71z M2510.14,2862.49c-0.74,0-1.37-0.55-1.47-1.3
						c-0.1-0.81,0.48-1.55,1.29-1.65l11.74-1.43c0.86-0.13,1.55,0.48,1.65,1.29c0.1,0.81-0.48,1.55-1.29,1.65l-11.74,1.43
						C2510.25,2862.48,2510.19,2862.49,2510.14,2862.49z M2549.27,2857.71c-0.74,0-1.37-0.55-1.47-1.3
						c-0.1-0.81,0.48-1.55,1.29-1.65l11.75-1.43c0.79-0.09,1.54,0.48,1.64,1.29c0.1,0.81-0.48,1.55-1.29,1.65l-11.74,1.43
						C2549.39,2857.71,2549.33,2857.71,2549.27,2857.71z M2588.41,2852.94c-0.74,0-1.37-0.55-1.47-1.3
						c-0.1-0.81,0.48-1.55,1.29-1.65l11.74-1.43c0.86-0.11,1.55,0.48,1.65,1.29s-0.48,1.55-1.29,1.65l-11.74,1.43
						C2588.53,2852.94,2588.47,2852.94,2588.41,2852.94z M2627.55,2848.16c-0.74,0-1.37-0.55-1.47-1.3
						c-0.1-0.81,0.48-1.55,1.29-1.65l11.74-1.43c0.86-0.13,1.55,0.48,1.65,1.29c0.1,0.81-0.48,1.55-1.29,1.65l-11.74,1.43
						C2627.67,2848.16,2627.61,2848.16,2627.55,2848.16z M2666.69,2843.39c-0.74,0-1.37-0.55-1.47-1.3
						c-0.1-0.81,0.48-1.55,1.29-1.65l11.74-1.43c0.86-0.09,1.55,0.48,1.65,1.29c0.1,0.81-0.48,1.55-1.29,1.65l-11.74,1.43
						C2666.81,2843.38,2666.75,2843.39,2666.69,2843.39z M2705.83,2838.62c-0.74,0-1.37-0.55-1.47-1.3
						c-0.1-0.81,0.48-1.55,1.29-1.65l11.74-1.43c0.86-0.11,1.55,0.48,1.65,1.29c0.1,0.81-0.48,1.55-1.29,1.65l-11.74,1.43
						C2705.95,2838.61,2705.89,2838.62,2705.83,2838.62z M2744.79,2832.92c-0.61,0-1.19-0.39-1.4-1c-0.27-0.77,0.15-1.61,0.92-1.88
						c3.59-1.24,7-2.97,10.14-5.15c0.66-0.47,1.59-0.31,2.06,0.37c0.47,0.67,0.31,1.59-0.37,2.06c-3.36,2.35-7.02,4.2-10.87,5.53
						C2745.11,2832.9,2744.95,2832.92,2744.79,2832.92z M2241.62,2828.05c-0.71,0-1.35-0.52-1.46-1.24l-1.88-11.68
						c-0.13-0.81,0.42-1.56,1.22-1.69c0.81-0.13,1.57,0.42,1.69,1.22l1.87,11.68c0.13,0.81-0.42,1.56-1.22,1.69
						C2241.78,2828.04,2241.7,2828.05,2241.62,2828.05z M2771.36,2805.74c-0.15,0-0.3-0.03-0.45-0.07
						c-0.78-0.24-1.21-1.08-0.96-1.85c1.14-3.62,1.77-7.39,1.86-11.22c0.02-0.81,0.68-1.45,1.48-1.45c0.01,0,0.03,0,0.03,0
						c0.82,0.02,1.46,0.7,1.45,1.51c-0.1,4.1-0.77,8.16-2.01,12.04C2772.57,2805.34,2771.99,2805.74,2771.36,2805.74z
						 M2235.37,2789.12c-0.71,0-1.34-0.52-1.46-1.24l-1.88-11.68c-0.13-0.81,0.42-1.56,1.22-1.69c0.84-0.15,1.56,0.42,1.69,1.22
						l1.88,11.68c0.13,0.81-0.42,1.56-1.22,1.69C2235.52,2789.11,2235.44,2789.12,2235.37,2789.12z M2773.45,2766.51
						c-0.81,0-1.47-0.66-1.48-1.47c-0.03-3.82-0.09-7.76-0.18-11.82c-0.02-0.82,0.63-1.49,1.45-1.51c0.88-0.14,1.49,0.63,1.51,1.45
						c0.08,4.07,0.14,8.03,0.18,11.85c0,0.82-0.65,1.48-1.47,1.49C2773.46,2766.51,2773.46,2766.51,2773.45,2766.51z
						 M2229.11,2750.19c-0.71,0-1.34-0.52-1.46-1.24l-1.88-11.68c-0.13-0.81,0.42-1.56,1.22-1.69c0.82-0.12,1.56,0.42,1.69,1.22
						l1.88,11.68c0.13,0.81-0.42,1.56-1.22,1.69C2229.27,2750.18,2229.19,2750.19,2229.11,2750.19z M2772.29,2727.09
						c-0.78,0-1.44-0.61-1.48-1.4c-0.2-3.87-0.42-7.8-0.68-11.79c-0.05-0.82,0.57-1.52,1.38-1.57c0.98,0.06,1.52,0.57,1.57,1.38
						c0.26,4.01,0.48,7.95,0.68,11.83c0.04,0.82-0.58,1.51-1.4,1.55C2772.34,2727.09,2772.32,2727.09,2772.29,2727.09z
						 M2222.85,2711.26c-0.71,0-1.35-0.52-1.46-1.24l-1.88-11.68c-0.13-0.81,0.42-1.56,1.22-1.69c0.84-0.13,1.57,0.42,1.69,1.22
						l1.88,11.68c0.13,0.81-0.42,1.56-1.22,1.69C2223.01,2711.25,2222.93,2711.26,2222.85,2711.26z M2769.42,2687.76
						c-0.75,0-1.4-0.57-1.47-1.34c-0.38-3.88-0.79-7.8-1.23-11.75c-0.09-0.81,0.49-1.54,1.3-1.63c0.8-0.1,1.54,0.49,1.63,1.3
						c0.45,3.95,0.86,7.89,1.24,11.79c0.08,0.81-0.52,1.53-1.33,1.61C2769.51,2687.75,2769.46,2687.76,2769.42,2687.76z
						 M2216.59,2672.33c-0.71,0-1.34-0.52-1.46-1.24l-2.12-13.19l10.83-1.39c0.84-0.13,1.56,0.48,1.66,1.28
						c0.11,0.81-0.47,1.55-1.28,1.66l-7.8,1l1.64,10.17c0.13,0.81-0.42,1.56-1.22,1.69
						C2216.75,2672.32,2216.67,2672.33,2216.59,2672.33z M2251.41,2655.96c-0.74,0-1.37-0.55-1.47-1.29
						c-0.1-0.81,0.47-1.55,1.28-1.66l11.73-1.5c0.94-0.12,1.55,0.47,1.66,1.28c0.11,0.81-0.47,1.55-1.28,1.66l-11.73,1.5
						C2251.53,2655.95,2251.47,2655.96,2251.41,2655.96z M2290.52,2650.95c-0.74,0-1.37-0.55-1.47-1.29
						c-0.11-0.81,0.47-1.55,1.28-1.66l11.73-1.5c0.93-0.11,1.55,0.47,1.66,1.28c0.1,0.81-0.47,1.55-1.28,1.66l-11.73,1.5
						C2290.64,2650.95,2290.58,2650.95,2290.52,2650.95z M2764.6,2648.62c-0.72,0-1.35-0.53-1.46-1.26
						c-0.58-3.88-1.21-7.76-1.87-11.66c-0.13-0.81,0.41-1.57,1.21-1.71c0.84-0.13,1.57,0.41,1.71,1.21
						c0.66,3.91,1.29,7.82,1.88,11.71c0.12,0.81-0.43,1.56-1.24,1.69C2764.74,2648.62,2764.67,2648.62,2764.6,2648.62z
						 M2329.63,2645.95c-0.74,0-1.37-0.55-1.47-1.29c-0.11-0.81,0.47-1.55,1.28-1.66l11.73-1.5c0.92-0.1,1.55,0.47,1.66,1.28
						c0.11,0.81-0.47,1.55-1.28,1.66l-11.73,1.5C2329.75,2645.94,2329.69,2645.95,2329.63,2645.95z M2368.74,2640.94
						c-0.74,0-1.37-0.55-1.47-1.29c-0.1-0.81,0.47-1.55,1.28-1.66l11.73-1.5c0.92-0.09,1.55,0.48,1.66,1.28
						c0.1,0.81-0.47,1.55-1.28,1.66l-11.73,1.5C2368.86,2640.94,2368.8,2640.94,2368.74,2640.94z M2407.85,2635.94
						c-0.74,0-1.37-0.55-1.47-1.29c-0.1-0.81,0.47-1.55,1.28-1.66l11.73-1.5c0.91-0.08,1.55,0.47,1.66,1.28
						c0.1,0.81-0.47,1.55-1.28,1.66l-11.73,1.5C2407.97,2635.93,2407.91,2635.94,2407.85,2635.94z M2446.97,2630.93
						c-0.74,0-1.37-0.55-1.47-1.29c-0.1-0.81,0.47-1.55,1.28-1.66l11.73-1.5c0.9-0.13,1.56,0.48,1.66,1.28
						c0.11,0.81-0.47,1.55-1.28,1.66l-11.73,1.5C2447.09,2630.93,2447.02,2630.93,2446.97,2630.93z M2486.08,2625.93
						c-0.74,0-1.37-0.55-1.47-1.29c-0.11-0.81,0.47-1.55,1.28-1.66l11.73-1.51c0.84-0.11,1.56,0.47,1.66,1.28
						c0.11,0.81-0.47,1.55-1.28,1.66l-11.73,1.5C2486.2,2625.93,2486.13,2625.93,2486.08,2625.93z M2525.19,2620.92
						c-0.74,0-1.37-0.55-1.47-1.29c-0.1-0.81,0.47-1.55,1.28-1.66l11.73-1.5c0.89-0.1,1.56,0.48,1.66,1.28
						c0.11,0.81-0.47,1.55-1.28,1.66l-11.73,1.5C2525.31,2620.92,2525.24,2620.92,2525.19,2620.92z M2564.3,2615.92
						c-0.74,0-1.37-0.55-1.47-1.29c-0.1-0.81,0.47-1.55,1.28-1.66l11.73-1.5c0.94-0.1,1.55,0.48,1.66,1.28
						c0.1,0.81-0.47,1.55-1.28,1.66l-11.73,1.5C2564.42,2615.92,2564.35,2615.92,2564.3,2615.92z M2603.41,2610.91
						c-0.74,0-1.37-0.55-1.47-1.29c-0.11-0.81,0.47-1.55,1.28-1.66l11.73-1.5c0.93-0.08,1.55,0.48,1.66,1.28
						c0.11,0.81-0.47,1.55-1.28,1.66l-11.73,1.5C2603.53,2610.91,2603.47,2610.91,2603.41,2610.91z M2757.46,2609.85
						c-0.68,0-1.29-0.47-1.45-1.16c-0.84-3.84-1.73-7.68-2.66-11.49c-0.19-0.79,0.29-1.59,1.09-1.79c0.82-0.21,1.6,0.29,1.79,1.09
						c0.93,3.84,1.82,7.69,2.67,11.56c0.17,0.79-0.33,1.58-1.13,1.76C2757.67,2609.84,2757.56,2609.85,2757.46,2609.85z
						 M2642.52,2605.91c-0.74,0-1.37-0.55-1.47-1.29c-0.1-0.81,0.47-1.55,1.28-1.66l11.73-1.5c0.93-0.13,1.55,0.48,1.66,1.28
						c0.11,0.81-0.47,1.55-1.28,1.66l-11.73,1.5C2642.64,2605.91,2642.58,2605.91,2642.52,2605.91z M2681.63,2600.9
						c-0.74,0-1.37-0.55-1.47-1.29c-0.1-0.81,0.47-1.55,1.28-1.66l11.73-1.5c0.92-0.12,1.55,0.48,1.66,1.28
						c0.11,0.81-0.47,1.55-1.28,1.66l-11.73,1.5C2681.75,2600.9,2681.69,2600.9,2681.63,2600.9z M2720.74,2595.9
						c-0.74,0-1.37-0.55-1.47-1.29c-0.1-0.81,0.47-1.55,1.28-1.66l11.73-1.5c0.91-0.11,1.55,0.48,1.66,1.28
						c0.1,0.81-0.47,1.55-1.28,1.66l-11.73,1.5C2720.86,2595.9,2720.8,2595.9,2720.74,2595.9z"/>
					
						<linearGradient id="SVGID_33_" gradientUnits="userSpaceOnUse" x1="-32.7356" y1="3171.4082" x2="-36.0621" y2="3090.7402" gradientTransform="matrix(0.9919 -0.127 0.127 0.9919 1989.9969 -609.5969)">
						<stop  offset="0" style="stop-color:#E1473D"/>
						<stop  offset="1" style="stop-color:#E9605A"/>
					</linearGradient>
					<path style="fill:url(#SVGID_33_);" d="M2315.14,2507.93l-0.5-14.64c1.08-3.65,3.94-6.5,7.6-7.57
						c13.71-4.02,47.91-12.37,66.22-2.02l4.65,16.49L2315.14,2507.93z"/>
					
						<linearGradient id="SVGID_34_" gradientUnits="userSpaceOnUse" x1="-36.9435" y1="3050.3022" x2="-20.3129" y2="3281.4692" gradientTransform="matrix(0.9919 -0.127 0.127 0.9919 1989.9969 -609.5969)">
						<stop  offset="0" style="stop-color:#E1473D"/>
						<stop  offset="1" style="stop-color:#E9605A"/>
					</linearGradient>
					<path style="fill:url(#SVGID_34_);" d="M2357.08,2488.41c-3.12,1.2-6.35,1.61-9.68,1.23c-4.04-0.46-7.24-3.61-7.76-7.62
						l-5.8-45.3l23.05-2.95l5.79,45.26C2363.2,2483.07,2360.88,2486.95,2357.08,2488.41z"/>
					
						<linearGradient id="SVGID_35_" gradientUnits="userSpaceOnUse" x1="191.9779" y1="3162.1565" x2="188.6514" y2="3081.4893" gradientTransform="matrix(0.9919 -0.127 0.127 0.9919 1989.9969 -609.5969)">
						<stop  offset="0" style="stop-color:#E1473D"/>
						<stop  offset="1" style="stop-color:#E9605A"/>
					</linearGradient>
					<path style="fill:url(#SVGID_35_);" d="M2538.42,2479.36l-0.5-14.64c1.08-3.65,3.94-6.5,7.6-7.57
						c13.71-4.02,47.91-12.37,66.22-2.02l4.65,16.49L2538.42,2479.36z"/>
					
						<linearGradient id="SVGID_36_" gradientUnits="userSpaceOnUse" x1="187.1659" y1="3034.1963" x2="203.7965" y2="3265.3618" gradientTransform="matrix(0.9919 -0.127 0.127 0.9919 1989.9969 -609.5969)">
						<stop  offset="0" style="stop-color:#E1473D"/>
						<stop  offset="1" style="stop-color:#E9605A"/>
					</linearGradient>
					<path style="fill:url(#SVGID_36_);" d="M2580.35,2459.84c-3.12,1.2-6.35,1.61-9.68,1.23c-4.04-0.46-7.24-3.61-7.76-7.62
						l-6.41-50.07l23.05-2.95l6.4,50.04C2586.47,2454.5,2584.16,2458.38,2580.35,2459.84z"/>
					
						<linearGradient id="SVGID_37_" gradientUnits="userSpaceOnUse" x1="94.8586" y1="2921.6375" x2="72.4108" y2="3086.2537" gradientTransform="matrix(0.9919 -0.127 0.127 0.9919 1989.9969 -609.5969)">
						<stop  offset="0" style="stop-color:#E1473D"/>
						<stop  offset="1" style="stop-color:#E9605A"/>
					</linearGradient>
					<path style="fill:url(#SVGID_37_);" d="M2332.92,2448.13l246.86-39.93c5.63-0.91,9.9-5.6,10.16-11.27
						c0.37-7.93,0.08-19.71-3.25-31.52c-3.78-13.44-16.87-22.1-30.81-20.66c-46.39,4.82-164.12,19.92-225.72,53.89
						c-6.52,3.59-10.86,10.11-11.68,17.48c-0.79,7.03-0.72,16.27,2.63,25.25C2322.88,2446.14,2327.87,2448.95,2332.92,2448.13z"/>
					<linearGradient id="SVGID_38_" gradientUnits="userSpaceOnUse" x1="2359.3225" y1="2391.905" x2="2283.2688" y2="1959.9788">
						<stop  offset="0" style="stop-color:#FEBBBA"/>
						<stop  offset="1" style="stop-color:#FF928E"/>
					</linearGradient>
					<path style="fill:url(#SVGID_38_);" d="M2326.84,2438.65c-1.79,0-3.41-1.23-3.84-3.05c-0.09-0.41-2.3-10.11-0.95-19.9
						c1.11-8.03,6.44-15.05,13.92-18.33c13.42-5.88,39.19-16.24,60.99-19.66c2.18-0.28,4.17,1.14,4.51,3.29
						c0.34,2.15-1.14,4.17-3.29,4.51c-21.7,3.4-48.52,14.48-59.05,19.09c-4.99,2.19-8.54,6.85-9.27,12.18
						c-1.14,8.32,0.81,16.96,0.83,17.05c0.49,2.12-0.84,4.24-2.96,4.73C2327.43,2438.61,2327.13,2438.65,2326.84,2438.65z"/>
					
						<linearGradient id="SVGID_39_" gradientUnits="userSpaceOnUse" x1="101.6169" y1="3049.8633" x2="19.3021" y2="3818.135" gradientTransform="matrix(0.9919 -0.127 0.127 0.9919 1989.9969 -609.5969)">
						<stop  offset="0" style="stop-color:#FF928E"/>
						<stop  offset="1" style="stop-color:#FE7062"/>
					</linearGradient>
					<path style="fill:url(#SVGID_39_);" d="M2199.4,2517.01c79.96-11.27,425.96-59.25,528.16-59.98
						c8.8-0.06,16.68,5.37,19.64,13.62c9.39,26.12,29.34,87.05,35.85,149.14c0.88,8.45-4.38,16.35-12.5,18.99l-224.17,72.86
						l-81.6,10.44l-251.01-17.33c-8.85-0.61-16.14-7.1-17.71-15.79c-5.58-30.94-17.41-103.7-15.01-151.82
						C2181.56,2526.89,2189.22,2518.44,2199.4,2517.01z"/>
					<path style="fill:#FFFFFF;" d="M2464.38,2703.49l-12.09-0.81c-0.82-0.06-1.43-0.76-1.37-1.58c0.06-0.82,0.82-1.37,1.58-1.37
						l11.8,0.82l6.32-0.84c0.94-0.08,1.55,0.48,1.66,1.28c0.11,0.81-0.47,1.55-1.28,1.66L2464.38,2703.49z M2424.86,2700.78
						c-0.03,0-0.07,0-0.1,0l-11.8-0.82c-0.82-0.06-1.43-0.76-1.37-1.58c0.06-0.82,0.81-1.38,1.58-1.37l11.8,0.82
						c0.82,0.06,1.43,0.76,1.37,1.58C2426.28,2700.19,2425.63,2700.78,2424.86,2700.78z M2498.18,2699.15
						c-0.74,0-1.37-0.55-1.47-1.29c-0.1-0.81,0.47-1.55,1.28-1.66l11.73-1.5c0.93-0.12,1.55,0.48,1.66,1.28
						c0.11,0.81-0.47,1.55-1.28,1.66l-11.73,1.5C2498.31,2699.14,2498.24,2699.15,2498.18,2699.15z M2385.52,2698.07
						c-0.03,0-0.07,0-0.1,0l-11.8-0.82c-0.82-0.06-1.43-0.76-1.37-1.58c0.06-0.82,0.8-1.39,1.58-1.37l11.8,0.82
						c0.82,0.06,1.43,0.76,1.37,1.58C2386.94,2697.47,2386.29,2698.07,2385.52,2698.07z M2346.19,2695.35c-0.03,0-0.07,0-0.1,0
						l-11.8-0.82c-0.82-0.06-1.43-0.76-1.37-1.58c0.06-0.82,0.78-1.4,1.58-1.37l11.8,0.82c0.82,0.06,1.43,0.76,1.37,1.58
						C2347.61,2694.75,2346.96,2695.35,2346.19,2695.35z M2537.29,2694.15c-0.74,0-1.37-0.55-1.47-1.29
						c-0.1-0.81,0.47-1.55,1.28-1.66l4.7-0.6l6.47-2.13c0.78-0.24,1.61,0.18,1.87,0.95c0.25,0.78-0.18,1.61-0.95,1.87l-6.74,2.19
						l-4.97,0.66C2537.42,2694.14,2537.35,2694.15,2537.29,2694.15z M2306.85,2692.64c-0.03,0-0.07,0-0.1,0l-11.8-0.82
						c-0.82-0.06-1.43-0.76-1.37-1.58c0.06-0.82,0.77-1.31,1.58-1.37l11.8,0.82c0.82,0.06,1.43,0.76,1.37,1.58
						C2308.27,2692.04,2307.62,2692.64,2306.85,2692.64z M2267.51,2689.92c-0.03,0-0.07,0-0.1,0l-11.8-0.82
						c-0.82-0.06-1.43-0.76-1.37-1.58c0.06-0.82,0.76-1.32,1.58-1.37l11.8,0.82c0.82,0.06,1.43,0.76,1.37,1.58
						C2268.93,2689.32,2268.29,2689.92,2267.51,2689.92z M2228.18,2687.2c-0.03,0-0.07,0-0.1,0l-11.8-0.82
						c-0.82-0.06-1.43-0.76-1.37-1.58c0.06-0.82,0.84-1.32,1.58-1.37l11.8,0.82c0.82,0.06,1.43,0.76,1.37,1.58
						C2229.6,2686.61,2228.95,2687.2,2228.18,2687.2z M2574.99,2682.82c-0.62,0-1.2-0.4-1.41-1.02c-0.25-0.78,0.18-1.61,0.95-1.87
						l11.25-3.65c0.77-0.23,1.61,0.18,1.87,0.95c0.25,0.78-0.18,1.61-0.95,1.87l-11.25,3.65
						C2575.29,2682.79,2575.14,2682.82,2574.99,2682.82z M2612.49,2670.63c-0.62,0-1.2-0.4-1.41-1.02
						c-0.25-0.78,0.18-1.61,0.95-1.87l11.25-3.65c0.77-0.24,1.61,0.18,1.87,0.95c0.25,0.78-0.18,1.61-0.95,1.87l-11.25,3.65
						C2612.79,2670.61,2612.64,2670.63,2612.49,2670.63z M2211.14,2659.85c-0.72,0-1.35-0.52-1.46-1.25
						c-0.59-3.74-1.19-7.66-1.79-11.72c-0.12-0.81,0.44-1.56,1.25-1.68c0.78-0.13,1.56,0.44,1.68,1.25c0.6,4.05,1.2,7.96,1.78,11.69
						c0.13,0.81-0.42,1.56-1.23,1.69C2211.29,2659.84,2211.22,2659.85,2211.14,2659.85z M2649.99,2658.44c-0.62,0-1.2-0.4-1.41-1.02
						c-0.25-0.78,0.18-1.61,0.95-1.87l11.25-3.65c0.79-0.23,1.61,0.18,1.87,0.95c0.25,0.78-0.18,1.61-0.95,1.87l-11.25,3.65
						C2650.29,2658.42,2650.14,2658.44,2649.99,2658.44z M2687.49,2646.26c-0.62,0-1.2-0.4-1.41-1.02
						c-0.25-0.78,0.18-1.61,0.95-1.87l11.25-3.65c0.78-0.23,1.61,0.18,1.87,0.95c0.25,0.78-0.18,1.61-0.95,1.87l-11.25,3.65
						C2687.79,2646.23,2687.64,2646.26,2687.49,2646.26z M2724.99,2634.07c-0.62,0-1.2-0.4-1.41-1.02
						c-0.25-0.78,0.18-1.61,0.95-1.87l11.25-3.65c0.78-0.24,1.61,0.18,1.87,0.95c0.25,0.78-0.18,1.61-0.95,1.87l-11.25,3.65
						C2725.29,2634.04,2725.14,2634.07,2724.99,2634.07z M2762.49,2621.88c-0.63,0-1.21-0.4-1.41-1.03
						c-0.18-0.55-0.01-1.13,0.37-1.51c-0.37-3.37-0.79-6.74-1.24-10.1c-0.11-0.81,0.46-1.56,1.27-1.66
						c0.82-0.13,1.56,0.46,1.66,1.27c0.5,3.73,0.96,7.47,1.37,11.21l0.13,1.2l-1.69,0.55
						C2762.79,2621.86,2762.64,2621.88,2762.49,2621.88z M2205.64,2620.79c-0.74,0-1.37-0.55-1.47-1.3
						c-0.48-3.89-0.93-7.82-1.36-11.78c-0.09-0.81,0.5-1.54,1.31-1.63c0.87-0.05,1.54,0.51,1.63,1.31
						c0.42,3.94,0.88,7.86,1.35,11.73c0.1,0.81-0.48,1.55-1.29,1.65C2205.76,2620.78,2205.7,2620.79,2205.64,2620.79z
						 M2757.21,2583.29c-0.7,0-1.32-0.5-1.45-1.2c-0.74-3.9-1.53-7.76-2.33-11.57c-0.17-0.8,0.34-1.58,1.14-1.75
						c0.84-0.15,1.58,0.34,1.75,1.14c0.81,3.83,1.59,7.71,2.34,11.63c0.15,0.8-0.37,1.58-1.18,1.73
						C2757.39,2583.28,2757.3,2583.29,2757.21,2583.29z M2201.8,2581.53c-0.77,0-1.42-0.6-1.48-1.38
						c-0.28-3.99-0.51-7.95-0.69-11.85c-0.04-0.82,0.59-1.51,1.41-1.54c0.89-0.15,1.51,0.59,1.54,1.41
						c0.18,3.87,0.41,7.81,0.69,11.78c0.05,0.81-0.56,1.52-1.37,1.58C2201.86,2581.52,2201.83,2581.53,2201.8,2581.53z
						 M2748.59,2544.8c-0.66,0-1.26-0.45-1.43-1.11c-1-3.91-2.01-7.71-3.02-11.42c-0.21-0.79,0.25-1.6,1.03-1.82
						c0.82-0.23,1.61,0.25,1.82,1.03c1.02,3.72,2.03,7.55,3.04,11.46c0.2,0.79-0.27,1.6-1.06,1.8
						C2748.84,2544.78,2748.71,2544.8,2748.59,2544.8z M2200.87,2542.11c-0.02,0-0.04,0-0.06,0c-0.82-0.03-1.45-0.72-1.42-1.53
						l0.11-2.52c0.07-1.4,1.11-2.54,2.47-2.74l7.29-1.02c0.81-0.18,1.56,0.45,1.67,1.26c0.11,0.81-0.45,1.56-1.26,1.67l-7.28,1.02
						l-0.05,2.46C2202.32,2541.48,2201.66,2542.11,2200.87,2542.11z M2236.82,2533.41c-0.73,0-1.36-0.54-1.46-1.28
						c-0.11-0.81,0.45-1.56,1.26-1.66l11.72-1.62c0.88-0.14,1.56,0.46,1.66,1.26c0.11,0.81-0.45,1.56-1.26,1.66l-11.72,1.62
						C2236.96,2533.4,2236.89,2533.41,2236.82,2533.41z M2275.9,2528.04c-0.73,0-1.36-0.54-1.46-1.28
						c-0.11-0.81,0.45-1.56,1.26-1.66l11.73-1.6c0.84-0.11,1.55,0.46,1.66,1.27c0.11,0.81-0.46,1.55-1.27,1.66l-11.72,1.59
						C2276.03,2528.04,2275.96,2528.04,2275.9,2528.04z M2314.99,2522.76c-0.73,0-1.37-0.54-1.47-1.28
						c-0.11-0.81,0.46-1.56,1.27-1.66l11.73-1.56c0.77-0.1,1.55,0.47,1.66,1.27c0.11,0.81-0.46,1.55-1.27,1.66l-11.73,1.56
						C2315.12,2522.76,2315.06,2522.76,2314.99,2522.76z M2354.09,2517.57c-0.73,0-1.37-0.54-1.47-1.29
						c-0.11-0.81,0.47-1.55,1.27-1.66l11.73-1.54c0.82-0.13,1.56,0.47,1.66,1.27c0.11,0.81-0.47,1.55-1.27,1.66l-11.73,1.54
						C2354.22,2517.57,2354.15,2517.57,2354.09,2517.57z M2393.21,2512.49c-0.74,0-1.37-0.55-1.47-1.29
						c-0.11-0.81,0.47-1.55,1.28-1.66l11.74-1.51c0.85-0.12,1.55,0.48,1.65,1.28c0.1,0.81-0.47,1.55-1.28,1.65l-11.73,1.51
						C2393.34,2512.48,2393.27,2512.49,2393.21,2512.49z M2432.58,2507.48l-0.37-2.93l11.67-1.46c0.84-0.11,1.56,0.47,1.65,1.28
						c0.1,0.81-0.48,1.55-1.28,1.65L2432.58,2507.48z M2737.8,2506.86c-0.63,0-1.21-0.41-1.41-1.04c-1.25-4.01-2.47-7.77-3.61-11.25
						c-0.26-0.77,0.16-1.61,0.94-1.87c0.77-0.26,1.61,0.17,1.87,0.94c1.15,3.49,2.37,7.26,3.63,11.29c0.24,0.78-0.19,1.61-0.97,1.85
						C2738.09,2506.84,2737.95,2506.86,2737.8,2506.86z M2432.32,2506.02h0.04H2432.32z M2471.46,2502.65
						c-0.74,0-1.37-0.55-1.47-1.3c-0.1-0.81,0.48-1.55,1.29-1.65l11.75-1.43c0.79-0.08,1.54,0.48,1.64,1.29
						c0.1,0.81-0.48,1.55-1.29,1.64l-11.74,1.43C2471.58,2502.65,2471.52,2502.65,2471.46,2502.65z M2510.6,2497.95
						c-0.74,0-1.38-0.55-1.47-1.31c-0.1-0.81,0.48-1.55,1.29-1.64l11.75-1.37c0.87-0.1,1.55,0.49,1.64,1.29
						c0.1,0.81-0.48,1.55-1.29,1.64l-11.75,1.37C2510.72,2497.94,2510.66,2497.95,2510.6,2497.95z M2549.78,2493.43
						c-0.74,0-1.38-0.56-1.47-1.32c-0.09-0.81,0.5-1.54,1.31-1.64l11.75-1.31c0.82-0.07,1.55,0.5,1.64,1.31
						c0.09,0.81-0.5,1.54-1.31,1.64l-11.75,1.31C2549.89,2493.43,2549.83,2493.43,2549.78,2493.43z M2588.98,2489.15
						c-0.75,0-1.39-0.56-1.47-1.32c-0.08-0.81,0.5-1.54,1.32-1.63l11.77-1.22c0.81-0.08,1.54,0.51,1.62,1.32
						c0.08,0.81-0.51,1.54-1.32,1.62l-11.76,1.22C2589.08,2489.15,2589.03,2489.15,2588.98,2489.15z M2628.21,2485.2
						c-0.76,0-1.4-0.58-1.47-1.34c-0.08-0.81,0.52-1.53,1.33-1.61c4.02-0.38,7.95-0.75,11.78-1.1c0.85-0.1,1.53,0.53,1.61,1.34
						c0.08,0.82-0.53,1.53-1.34,1.61c-3.83,0.35-7.76,0.72-11.78,1.1C2628.31,2485.19,2628.26,2485.2,2628.21,2485.2z
						 M2667.49,2481.71c-0.77,0-1.41-0.59-1.48-1.36c-0.06-0.81,0.54-1.53,1.36-1.59c4.07-0.33,8.01-0.63,11.8-0.91
						c0.95,0.06,1.53,0.55,1.58,1.37c0.06,0.82-0.55,1.53-1.37,1.59c-3.8,0.28-7.72,0.58-11.79,0.91
						C2667.57,2481.71,2667.53,2481.71,2667.49,2481.71z M2706.84,2479.1c-0.79,0-1.44-0.62-1.48-1.41
						c-0.04-0.82,0.59-1.51,1.4-1.55c4.23-0.2,8.18-0.36,11.84-0.47c0.02,0,0.03,0,0.05,0c0.8,0,1.45,0.63,1.48,1.44
						c0.02,0.82-0.62,1.5-1.43,1.52c-3.65,0.11-7.58,0.26-11.79,0.46C2706.88,2479.1,2706.86,2479.1,2706.84,2479.1z"/>
					
						<linearGradient id="SVGID_40_" gradientUnits="userSpaceOnUse" x1="107.5833" y1="3144.6731" x2="75.1552" y2="3401.6023" gradientTransform="matrix(0.9919 -0.127 0.127 0.9919 1989.9969 -609.5969)">
						<stop  offset="0" style="stop-color:#E1473D"/>
						<stop  offset="1" style="stop-color:#E9605A"/>
					</linearGradient>
					<path style="fill:url(#SVGID_40_);" d="M2543.08,2746.87l-71.49,9.15c-9.37,1.2-18.15-4.76-20.45-13.88l-17.06-67.74
						c-2.72-10.79,4.65-21.53,15.73-22.95l85.89-10.99c10.86-1.39,20.58,6.79,20.99,17.68l2.67,69.58
						C2559.73,2737.33,2552.67,2745.64,2543.08,2746.87z"/>
					
						<linearGradient id="SVGID_41_" gradientUnits="userSpaceOnUse" x1="38.0837" y1="3346.2551" x2="132.3807" y2="3346.2551" gradientTransform="matrix(0.9919 -0.127 0.127 0.9919 1989.9969 -609.5969)">
						<stop  offset="0" style="stop-color:#FF928E"/>
						<stop  offset="1" style="stop-color:#FE7062"/>
					</linearGradient>
					<path style="fill:url(#SVGID_41_);" d="M2532.67,2735.34l-54.41,6.96c-7.13,0.91-13.81-3.62-15.56-10.56l-12.99-51.56
						c-2.07-8.21,3.54-16.39,11.98-17.47l65.37-8.36c8.27-1.06,15.66,5.17,15.98,13.46l2.03,52.96
						C2545.34,2728.08,2539.97,2734.41,2532.67,2735.34z"/>
				</g>
				<linearGradient id="SVGID_42_" gradientUnits="userSpaceOnUse" x1="2554.4875" y1="2226.072" x2="2371.8425" y2="2577.3127">
					<stop  offset="0" style="stop-color:#FEBBBA"/>
					<stop  offset="1" style="stop-color:#FF928E"/>
				</linearGradient>
				<path style="fill:url(#SVGID_42_);" d="M2490.15,2187.12c16.86,69.68,17.31,137.85,14.74,162.67
					c-0.97,9.36-8.49,16.66-17.87,17.32c-10.66,0.75-25.17,1.73-38.13,2.47c-14.25,0.82-30.07-8.19-40.65-15.71
					c-5.4-3.84-12.39,2.14-9.37,8.04c5.2,10.17,14.22,18.17,23.18,24.98c5.39,4.09,23.3,11.37,22.05,19.43
					c-0.39,2.54-1.93,4.76-3.58,6.74c-9.95,11.94-25.01,18.32-39.88,22.89c-1.86,0.57-3.83,1.18-5.15,2.62
					c-0.37,9.61,29.2,20.29,36.83,22.82c11.43,3.79,23.56,5.4,35.57,4.14c29.75-3.13,57.23-23.67,73.25-48.43
					c42.84-66.19,64.99-146.12,73.08-207.25C2574.37,2170.01,2514.21,2180.11,2490.15,2187.12z"/>
				<g>
					<linearGradient id="SVGID_43_" gradientUnits="userSpaceOnUse" x1="2922.2876" y1="1200.9292" x2="2718.522" y2="1602.7209">
						<stop  offset="0" style="stop-color:#09005D"/>
						<stop  offset="1" style="stop-color:#1A0F91"/>
					</linearGradient>
					<path style="fill:url(#SVGID_43_);" d="M2614.22,2216.14C2646,1976.07,2461,1791.48,2461,1791.48l-110.07,128.32
						c83.57,104.17,123.29,199.62,141.44,274.59C2516.43,2187.38,2574.37,2176.31,2614.22,2216.14z"/>
					<linearGradient id="SVGID_44_" gradientUnits="userSpaceOnUse" x1="2987.5713" y1="1406.0712" x2="1830.6947" y2="2714.5056">
						<stop  offset="0" style="stop-color:#4042E2"/>
						<stop  offset="1" style="stop-color:#4F52FF"/>
					</linearGradient>
					<path style="fill:url(#SVGID_44_);" d="M2489.74,2193.21c-3.07,0-5.86-2.09-6.62-5.21c-22.37-92.42-69.52-183.91-140.13-271.92
						c-2.36-2.94-1.89-7.23,1.05-9.59c2.93-2.35,7.23-1.88,9.58,1.05c71.88,89.59,119.91,182.88,142.75,277.25
						c0.89,3.66-1.36,7.34-5.02,8.23C2490.81,2193.15,2490.27,2193.21,2489.74,2193.21z"/>
				</g>
			</g>
			<g>
				<g>
					
						<linearGradient id="SVGID_45_" gradientUnits="userSpaceOnUse" x1="-448.3031" y1="3560.4363" x2="-291.124" y2="3560.4363" gradientTransform="matrix(1 0 0 1 1290.1023 0)">
						<stop  offset="0" style="stop-color:#09005D"/>
						<stop  offset="1" style="stop-color:#1A0F91"/>
					</linearGradient>
					<path style="fill:url(#SVGID_45_);" d="M998.98,3616.4c0.02-1.17-0.06-2.36-0.36-3.55c-17.7-70.19-105.57-113.9-105.57-113.9
						l-34.82,2.73c-20.02,61.86-17.45,99.8-14.23,116.7c0.09,0.47,0.23,0.92,0.36,1.38C873.08,3622.33,932.19,3624,998.98,3616.4z"
						/>
					
						<linearGradient id="SVGID_46_" gradientUnits="userSpaceOnUse" x1="-54.8132" y1="3375.0095" x2="-626.6357" y2="3824.0061" gradientTransform="matrix(1 0 0 1 1290.1023 0)">
						<stop  offset="0" style="stop-color:#4042E2"/>
						<stop  offset="1" style="stop-color:#4F52FF"/>
					</linearGradient>
					<path style="fill:url(#SVGID_46_);" d="M844.36,3619.76c1.55,5.64,5.72,10.04,11.05,11.16c40.86,8.59,105.79,1.68,133.06-1.89
						c6.02-0.79,10.41-6.35,10.51-12.63C932.19,3624,873.08,3622.33,844.36,3619.76z"/>
					
						<linearGradient id="SVGID_47_" gradientUnits="userSpaceOnUse" x1="-404.5931" y1="3381.4949" x2="-434.617" y2="3643.5227" gradientTransform="matrix(1 0 0 1 1290.1023 0)">
						<stop  offset="0" style="stop-color:#A22B25"/>
						<stop  offset="1" style="stop-color:#C0423C"/>
					</linearGradient>
					<path style="fill:url(#SVGID_47_);" d="M844.23,3449.82l14.75,70.99c1.08,5.2,5.08,9.1,9.92,9.55
						c5.93,0.56,14.36,0.88,22.85-0.36c7.61-1.12,12.9-8.85,11.56-17.14l-10.25-63.03H844.23z"/>
					
						<linearGradient id="SVGID_48_" gradientUnits="userSpaceOnUse" x1="46.768" y1="3504.1924" x2="-525.0556" y2="3953.1899" gradientTransform="matrix(1 0 0 1 1290.1023 0)">
						<stop  offset="0" style="stop-color:#4042E2"/>
						<stop  offset="1" style="stop-color:#4F52FF"/>
					</linearGradient>
					<path style="fill:url(#SVGID_48_);" d="M1149.77,3618.86c-38.45-1.08-58.34-5.6-68.63-9.81c-0.02,3.82,0,7.71,0.12,11.75
						c0.13,4.31,3.32,7.75,7.25,7.72l211.13-1.36c6.74-0.04,10.67-7.86,7.76-14.04C1279.72,3615.41,1209.21,3620.53,1149.77,3618.86
						z"/>
					
						<linearGradient id="SVGID_49_" gradientUnits="userSpaceOnUse" x1="-208.9612" y1="3564.4314" x2="17.2963" y2="3564.4314" gradientTransform="matrix(1 0 0 1 1290.1023 0)">
						<stop  offset="0" style="stop-color:#09005D"/>
						<stop  offset="1" style="stop-color:#1A0F91"/>
					</linearGradient>
					<path style="fill:url(#SVGID_49_);" d="M1307.4,3613.12c-0.25-0.54-0.47-1.08-0.84-1.59
						c-18.65-26.05-66.14-77.93-159.98-100.44l-45.02-1.42c0,0-20.05,34.84-20.42,99.38c10.28,4.2,30.17,8.73,68.63,9.81
						C1209.21,3620.53,1279.72,3615.41,1307.4,3613.12z"/>
					
						<linearGradient id="SVGID_50_" gradientUnits="userSpaceOnUse" x1="-77.798" y1="3345.2017" x2="-107.8223" y2="3607.2334" gradientTransform="matrix(0.998 -0.0629 0.0629 0.998 993.2088 65.7657)">
						<stop  offset="0" style="stop-color:#A22B25"/>
						<stop  offset="1" style="stop-color:#C0423C"/>
					</linearGradient>
					<path style="fill:url(#SVGID_50_);" d="M1091.21,3443.54c0.71,3.32,10.08,53.83,13.71,73.42c0.86,4.65,4.49,8.07,8.8,8.31
						c7.71,0.43,20.14,0.48,30.83-2.42c5.77-1.57,9.64-7.45,9.23-13.97l-5.04-79.9L1091.21,3443.54z"/>
					<linearGradient id="SVGID_51_" gradientUnits="userSpaceOnUse" x1="877.2206" y1="3681.1313" x2="1099.5023" y2="2054.4241">
						<stop  offset="0" style="stop-color:#4F52FF"/>
						<stop  offset="1" style="stop-color:#4042E2"/>
					</linearGradient>
					<path style="fill:url(#SVGID_51_);" d="M1057.1,2510.88c0,0,61.93,425.54,106.62,931.93c0.83,9.43-6.68,17.64-15.95,19.59
						c-13.65,2.88-33.72,6.29-50.34,5.82c-8.87-0.25-16.28-6.83-17.77-15.57c-15.22-89.28-123.86-568.46-152.38-673.92
						c0,0-32.75,447.98-22.28,680.39c0.26,5.78-3.97,10.79-9.72,11.46c-8.72,1.01-22.66,1.77-40.41-0.11
						c-6.74-0.72-12.17-5.81-13.13-12.51c-10.84-75.56-73.26-525.34-70.61-849.35c0.15-18.27,21.44-168.4,21.44-168.4
						L1057.1,2510.88z"/>
				</g>
				
					<linearGradient id="SVGID_52_" gradientUnits="userSpaceOnUse" x1="3613.5872" y1="-1610.6978" x2="2663.6384" y2="-646.3989" gradientTransform="matrix(0.991 -0.1339 0.1339 0.991 690.6002 157.8111)">
					<stop  offset="0" style="stop-color:#FF928E"/>
					<stop  offset="1" style="stop-color:#FE7062"/>
				</linearGradient>
				<path style="fill:url(#SVGID_52_);" d="M783.26,2535.41c-6.37-2.26-10.81-8.03-11.5-14.76
					c-8.23-79.9-48.11-575.29,203.62-779.07c0,0,14.44-37.77,133.1,55.08c118.66,92.84,55.13,190.16,26.72,324.39
					c-34.38,162.43-94.7,295.2-68.01,395.15c1.84,6.9-1.79,14.14-8.48,16.61C966.54,2566.79,874.72,2567.91,783.26,2535.41z"/>
				<linearGradient id="SVGID_53_" gradientUnits="userSpaceOnUse" x1="976.5741" y1="1891.4968" x2="1138.2343" y2="1527.7618">
					<stop  offset="0" style="stop-color:#A22B25"/>
					<stop  offset="1" style="stop-color:#C0423C"/>
				</linearGradient>
				<path style="fill:url(#SVGID_53_);" d="M1073.58,1593.15c-0.08,7.05-100.6,149.82-100.6,149.82s18.04,35.53,104.18,64.38
					l74.35-152.87L1073.58,1593.15z"/>
				<g>
					<linearGradient id="SVGID_54_" gradientUnits="userSpaceOnUse" x1="923.0604" y1="1322.0264" x2="1152.656" y2="1672.1593">
						<stop  offset="0" style="stop-color:#A22B25"/>
						<stop  offset="1" style="stop-color:#C0423C"/>
					</linearGradient>
					<path style="fill:url(#SVGID_54_);" d="M1152.72,1511.34c0,0,35.77,82.16,38.17,125.29c2.4,43.12,11.69,71.11-38.17,79.79
						c-49.86,8.68-91.87-16.16-114.62-59.11c0,0-35.66-66.19-27.66-93.3S1152.72,1511.34,1152.72,1511.34z"/>
					<linearGradient id="SVGID_55_" gradientUnits="userSpaceOnUse" x1="944.5549" y1="1383.2556" x2="1116.9602" y2="1585.1826">
						<stop  offset="0" style="stop-color:#09005D"/>
						<stop  offset="1" style="stop-color:#1A0F91"/>
					</linearGradient>
					<path style="fill:url(#SVGID_55_);" d="M1055.14,1626.42l2.84-1.25c3.61-1.59,5.16-5.89,3.34-9.4
						c-7.03-13.59-20.74-44.72-3.03-51.98c22.82-9.36,113.22-27.79,132.72-59.87c18.75-30.83,2.14-70.62-22.82-81.94
						c-1.67-0.76-3.64-0.16-4.5,1.47l-2.08,3.94c-1.42,2.69-5.4,2.29-6.25-0.64l0,0c-0.81-2.81-4.55-3.35-6.1-0.87
						c-6,9.6-22.18,25.15-65.46,33.14c-61.52,11.35-102.18,36.25-103.2,78.76c-0.06,2.7-2.94,4.2-5.24,2.8
						c-4.54-2.77-11.81-4.07-21.52,4.1c-16.89,14.2-9.98,51.05,27.05,81.37c1.76,1.44,1.75,4.19-0.16,5.43
						c-6.71,4.37-16.72,14.77,9.21,28.63c26.82,14.34,46.85,13.16,54.57,11.89c1.92-0.32,3.16-2.17,2.74-4.07l-8.23-37.36
						c-0.47-2.11,1.14-4.12,3.31-4.12H1055.14z"/>
					<linearGradient id="SVGID_56_" gradientUnits="userSpaceOnUse" x1="863.0244" y1="1361.3943" x2="1092.6202" y2="1711.5275">
						<stop  offset="0" style="stop-color:#A22B25"/>
						<stop  offset="1" style="stop-color:#C0423C"/>
					</linearGradient>
					<path style="fill:url(#SVGID_56_);" d="M1056.69,1634.3c0,0-13.64-52.48-37.18-37.77c-23.53,14.72,12.21,58.81,31.13,60.77
						L1056.69,1634.3z"/>
				</g>
				<g>
					<linearGradient id="SVGID_57_" gradientUnits="userSpaceOnUse" x1="2222.8069" y1="880.4695" x2="1272.8568" y2="1844.7697">
						<stop  offset="0" style="stop-color:#FF928E"/>
						<stop  offset="1" style="stop-color:#FE7062"/>
					</linearGradient>
					<path style="fill:url(#SVGID_57_);" d="M1146.66,1839.74l6.93,186.13c19.68,6.77,38.43,12.04,56.27,15.98
						c11.16-35.94,35.74-80.05,55.87-112.84C1191.78,1902.87,1146.66,1839.74,1146.66,1839.74z"/>
					<linearGradient id="SVGID_58_" gradientUnits="userSpaceOnUse" x1="1649.7791" y1="1820.9363" x2="1211.127" y2="2039.1414">
						<stop  offset="0" style="stop-color:#A22B25"/>
						<stop  offset="1" style="stop-color:#C0423C"/>
					</linearGradient>
					<path style="fill:url(#SVGID_58_);" d="M1515.86,1836.58c-101.44,109.52-183.55,115.97-250.13,92.43
						c-20.13,32.8-44.71,76.91-55.87,112.84c270.89,59.72,334.68-189.31,334.68-189.31L1515.86,1836.58z"/>
					<linearGradient id="SVGID_59_" gradientUnits="userSpaceOnUse" x1="1643.3575" y1="1766.2094" x2="1493.3154" y2="1922.9202">
						<stop  offset="0" style="stop-color:#A22B25"/>
						<stop  offset="1" style="stop-color:#C0423C"/>
					</linearGradient>
					<path style="fill:url(#SVGID_59_);" d="M1536.43,1824.94c0,0,11.69-12.55,33.31-8.6c21.63,3.94,40.88,11.46,54.35,0
						c13.48-11.46,18.21,3.92,18.21,3.92l-40.35,30.67L1536.43,1824.94z"/>
					<linearGradient id="SVGID_60_" gradientUnits="userSpaceOnUse" x1="1651.8641" y1="1818.3502" x2="1213.2134" y2="2036.5546">
						<stop  offset="0" style="stop-color:#A22B25"/>
						<stop  offset="1" style="stop-color:#C0423C"/>
					</linearGradient>
					<path style="fill:url(#SVGID_60_);" d="M1512.3,1846.39c0,0,8.01-33.48,32.14-28.89c24.13,4.59,78.91,34.38,93.02,28.89
						c14.12-5.49,32.17-18.62,41.43-13.98l-16.31,20.28c0,0,41.94-24.19,49.16-9.33l-69.78,39.27
						C1641.95,1882.64,1539.85,1872.41,1512.3,1846.39z"/>
				</g>
				<linearGradient id="SVGID_61_" gradientUnits="userSpaceOnUse" x1="1835.1705" y1="2188.5842" x2="562.1654" y2="1958.3896">
					<stop  offset="0" style="stop-color:#A22B25"/>
					<stop  offset="1" style="stop-color:#C0423C"/>
				</linearGradient>
				<path style="fill:url(#SVGID_61_);" d="M1034.05,2083.35c0,0,190.71,159.72,396.65,90.03c12.77-4.32,26.74-3.38,38.66,2.91
					l59.21,31.27c24.85,13.12,55.62,4.51,70.04-19.61c8.22-13.76,15.24-29.47,16.64-44.53l-115.85-46.9l8.54-14.21
					c0,0-56.56-4.79-71.37,35.75c0,0-107.73,44.81-289.42-155.03C1147.16,1963.03,1064.71,2033.14,1034.05,2083.35z"/>
				<linearGradient id="SVGID_62_" gradientUnits="userSpaceOnUse" x1="1383.2301" y1="1218.6138" x2="233.8755" y2="3388.1858">
					<stop  offset="0" style="stop-color:#E1473D"/>
					<stop  offset="1" style="stop-color:#E9605A"/>
				</linearGradient>
				<path style="fill:url(#SVGID_62_);" d="M1023.78,2081.7c-0.63,0-1.27-0.18-1.82-0.56c-80.3-54.25-118.08-141.82-118.45-142.71
					c-0.7-1.66,0.07-3.58,1.73-4.28c1.66-0.71,3.57,0.06,4.28,1.73c0.36,0.86,37.44,86.7,116.09,139.85
					c1.5,1.01,1.89,3.03,0.88,4.53C1025.86,2081.2,1024.83,2081.7,1023.78,2081.7z"/>
				<linearGradient id="SVGID_63_" gradientUnits="userSpaceOnUse" x1="1387.2406" y1="1220.7424" x2="237.8862" y2="3390.3137">
					<stop  offset="0" style="stop-color:#E1473D"/>
					<stop  offset="1" style="stop-color:#E9605A"/>
				</linearGradient>
				<path style="fill:url(#SVGID_63_);" d="M1143.39,1960.32c-1.07,0-2.12-0.53-2.75-1.5c-0.24-0.38-24.78-38.56-71.5-122.23
					c-14.37-25.73-33.25-42.02-56.13-48.42c-37.88-10.58-74.39,9.73-74.75,9.93c-1.57,0.87-3.56,0.34-4.45-1.22
					c-0.89-1.57-0.34-3.56,1.22-4.45c1.57-0.89,39.12-21.9,79.67-10.55c24.64,6.87,44.87,24.21,60.13,51.53
					c46.61,83.46,71.05,121.51,71.29,121.89c0.98,1.51,0.54,3.53-0.98,4.51C1144.61,1960.16,1144,1960.32,1143.39,1960.32z"/>
			</g>
		</g>
	</g>
</g>
</svg>
