<?xml version="1.0" encoding="utf-8"?>
<!-- Generator: Adobe Illustrator 23.0.0, SVG Export Plug-In . SVG Version: 6.00 Build 0)  -->
<svg version="1.1" id="Layer_1" xmlns="http://www.w3.org/2000/svg" xmlns:xlink="http://www.w3.org/1999/xlink" x="0px" y="0px"
	 viewBox="0 0 752.14 288" style="enable-background:new 0 0 752.14 288;" xml:space="preserve">
<style type="text/css">
	.st0{fill:#FFFFFF;}
	.st1{fill:none;}
</style>
<g>
	<g>
		<g>
			<path class="st0" d="M227.48,58.26c-1.59-0.89-3.4-1.34-5.42-1.34c-5.7,0-8.55,3.59-8.55,10.78v7.85h11.93v6.96h-11.93v43.93
				h-8.1V82.51h-8.7v-6.96h8.7v-8.25c0-5.33,1.54-9.55,4.62-12.65c3.08-3.1,6.92-4.65,11.53-4.65c2.48,0,4.45,0.3,5.91,0.89V58.26z"
				/>
			<path class="st0" d="M270.61,126.44h-8.15v-7.95h-0.2c-3.55,6.1-8.76,9.14-15.65,9.14c-5.07,0-9.04-1.34-11.9-4.02
				c-2.87-2.68-4.3-6.24-4.3-10.68c0-9.51,5.6-15.04,16.79-16.6l15.25-2.14c0-8.65-3.5-12.97-10.48-12.97
				c-6.13,0-11.66,2.09-16.6,6.26v-8.35c5-3.18,10.77-4.77,17.29-4.77c11.96,0,17.94,6.33,17.94,18.98V126.44z M262.46,100.7
				l-12.27,1.69c-3.78,0.53-6.63,1.47-8.55,2.81c-1.92,1.34-2.88,3.72-2.88,7.13c0,2.48,0.89,4.51,2.66,6.09
				c1.77,1.57,4.13,2.36,7.08,2.36c4.04,0,7.38-1.42,10.01-4.25c2.63-2.83,3.95-6.42,3.95-10.76V100.7z"/>
			<path class="st0" d="M358.22,126.44h-8.15V97.22c0-5.63-0.87-9.71-2.61-12.22c-1.74-2.52-4.66-3.78-8.77-3.78
				c-3.48,0-6.44,1.59-8.87,4.77c-2.44,3.18-3.65,6.99-3.65,11.43v29.02h-8.15V96.23c0-10-3.86-15.01-11.58-15.01
				c-3.58,0-6.53,1.5-8.84,4.5c-2.32,3-3.48,6.9-3.48,11.7v29.02h-8.15V75.56h8.15v8.05h0.2c3.61-6.16,8.88-9.24,15.8-9.24
				c3.48,0,6.51,0.97,9.09,2.91s4.36,4.48,5.32,7.63c3.78-7.02,9.41-10.53,16.89-10.53c11.2,0,16.79,6.91,16.79,20.72V126.44z"/>
			<path class="st0" d="M377.79,62.64c-1.46,0-2.7-0.5-3.73-1.49c-1.03-0.99-1.54-2.25-1.54-3.78c0-1.52,0.51-2.79,1.54-3.8
				c1.03-1.01,2.27-1.52,3.73-1.52c1.49,0,2.76,0.51,3.8,1.52c1.04,1.01,1.57,2.28,1.57,3.8c0,1.46-0.52,2.7-1.57,3.73
				C380.55,62.12,379.28,62.64,377.79,62.64z M381.77,126.44h-8.15V75.56h8.15V126.44z"/>
			<path class="st0" d="M439.16,103.03h-35.92c0.13,5.66,1.66,10.04,4.57,13.12c2.91,3.08,6.92,4.62,12.02,4.62
				c5.73,0,11-1.89,15.8-5.66v7.65c-4.47,3.25-10.39,4.87-17.74,4.87c-7.19,0-12.84-2.31-16.94-6.93s-6.16-11.12-6.16-19.5
				c0-7.92,2.24-14.37,6.73-19.35c4.49-4.99,10.06-7.48,16.72-7.48s11.81,2.15,15.45,6.46c3.64,4.31,5.47,10.29,5.47,17.94V103.03z
				 M430.81,96.13c-0.03-4.7-1.17-8.36-3.4-10.98c-2.24-2.62-5.34-3.93-9.32-3.93c-3.84,0-7.11,1.38-9.79,4.12
				c-2.68,2.75-4.34,6.34-4.97,10.78H430.81z"/>
			<path class="st0" d="M448.4,124.6v-8.75c4.44,3.28,9.32,4.92,14.66,4.92c7.16,0,10.73-2.39,10.73-7.16
				c0-1.36-0.31-2.51-0.92-3.45c-0.61-0.94-1.44-1.78-2.48-2.51c-1.04-0.73-2.27-1.38-3.68-1.96c-1.41-0.58-2.92-1.18-4.55-1.81
				c-2.25-0.89-4.23-1.8-5.94-2.71c-1.71-0.91-3.13-1.94-4.27-3.08c-1.14-1.14-2-2.44-2.58-3.9c-0.58-1.46-0.87-3.16-0.87-5.12
				c0-2.38,0.55-4.5,1.64-6.34c1.09-1.84,2.55-3.38,4.37-4.62c1.82-1.24,3.9-2.18,6.24-2.81c2.33-0.63,4.75-0.94,7.23-0.94
				c4.41,0,8.35,0.76,11.83,2.29v8.25c-3.74-2.45-8.05-3.68-12.92-3.68c-1.52,0-2.9,0.17-4.12,0.52c-1.23,0.35-2.28,0.84-3.16,1.47
				c-0.88,0.63-1.56,1.38-2.04,2.26c-0.48,0.88-0.72,1.85-0.72,2.91c0,1.33,0.24,2.43,0.72,3.33c0.48,0.89,1.18,1.69,2.11,2.38
				c0.93,0.7,2.05,1.33,3.38,1.89c1.32,0.56,2.83,1.18,4.52,1.84c2.25,0.86,4.27,1.75,6.06,2.66c1.79,0.91,3.31,1.94,4.57,3.08
				c1.26,1.14,2.23,2.46,2.91,3.95c0.68,1.49,1.02,3.26,1.02,5.32c0,2.52-0.56,4.7-1.67,6.56c-1.11,1.86-2.59,3.4-4.45,4.62
				s-3.99,2.14-6.41,2.73c-2.42,0.6-4.95,0.89-7.6,0.89C456.78,127.63,452.24,126.62,448.4,124.6z"/>
		</g>
	</g>
	<g>
		<g>
			<path class="st0" d="M326.18,197.47h-8.15v-8.65h-0.2c-3.78,6.56-9.61,9.84-17.49,9.84c-6.39,0-11.5-2.28-15.33-6.83
				s-5.74-10.76-5.74-18.61c0-8.41,2.12-15.16,6.36-20.22c4.24-5.07,9.89-7.6,16.94-7.6c6.99,0,12.07,2.75,15.25,8.25h0.2v-31.5
				h8.15V197.47z M318.03,174.46v-7.5c0-4.11-1.36-7.58-4.07-10.43c-2.72-2.85-6.16-4.27-10.34-4.27c-4.97,0-8.88,1.82-11.73,5.47
				c-2.85,3.64-4.27,8.68-4.27,15.11c0,5.86,1.37,10.49,4.1,13.89s6.4,5.09,11.01,5.09c4.54,0,8.22-1.64,11.06-4.92
				C316.61,183.6,318.03,179.46,318.03,174.46z"/>
			<path class="st0" d="M383.57,174.06h-35.93c0.13,5.66,1.66,10.04,4.57,13.12c2.91,3.08,6.92,4.62,12.02,4.62
				c5.73,0,11-1.89,15.8-5.66v7.65c-4.47,3.25-10.39,4.87-17.74,4.87c-7.19,0-12.84-2.31-16.94-6.93
				c-4.11-4.62-6.16-11.12-6.16-19.5c0-7.92,2.24-14.37,6.73-19.35c4.49-4.99,10.06-7.48,16.72-7.48c6.66,0,11.81,2.15,15.45,6.46
				c3.64,4.31,5.47,10.29,5.47,17.94V174.06z M375.22,167.16c-0.03-4.7-1.17-8.36-3.4-10.98c-2.24-2.62-5.34-3.93-9.32-3.93
				c-3.84,0-7.11,1.38-9.79,4.12c-2.68,2.75-4.34,6.34-4.97,10.78H375.22z"/>
			<path class="st0" d="M435.89,146.58l-20.27,50.88h-8l-19.28-50.88h8.94l12.92,36.97c0.96,2.72,1.56,5.08,1.79,7.11h0.2
				c0.33-2.55,0.86-4.85,1.59-6.91l13.52-37.17H435.89z"/>
			<path class="st0" d="M485.53,174.06h-35.92c0.13,5.66,1.66,10.04,4.57,13.12c2.91,3.08,6.92,4.62,12.02,4.62
				c5.73,0,11-1.89,15.8-5.66v7.65c-4.47,3.25-10.39,4.87-17.74,4.87c-7.19,0-12.84-2.31-16.94-6.93s-6.16-11.12-6.16-19.5
				c0-7.92,2.24-14.37,6.73-19.35c4.49-4.99,10.06-7.48,16.72-7.48s11.81,2.15,15.45,6.46c3.64,4.31,5.47,10.29,5.47,17.94V174.06z
				 M477.18,167.16c-0.03-4.7-1.17-8.36-3.4-10.98c-2.24-2.62-5.34-3.93-9.32-3.93c-3.84,0-7.11,1.38-9.79,4.12
				c-2.68,2.75-4.34,6.34-4.97,10.78H477.18z"/>
			<path class="st0" d="M506,197.47h-8.15v-75.33H506V197.47z"/>
			<path class="st0" d="M543.77,198.66c-7.52,0-13.52-2.38-18.01-7.13c-4.49-4.75-6.73-11.06-6.73-18.91
				c0-8.55,2.33-15.22,7.01-20.03c4.67-4.8,10.98-7.21,18.93-7.21c7.59,0,13.51,2.34,17.76,7.01c4.26,4.67,6.38,11.15,6.38,19.43
				c0,8.12-2.29,14.62-6.88,19.5C557.64,196.22,551.49,198.66,543.77,198.66z M544.36,152.25c-5.24,0-9.38,1.78-12.42,5.34
				c-3.05,3.56-4.57,8.47-4.57,14.73c0,6.03,1.54,10.78,4.62,14.26s7.21,5.22,12.37,5.22c5.27,0,9.32-1.71,12.15-5.12
				c2.83-3.41,4.25-8.27,4.25-14.56c0-6.36-1.42-11.26-4.25-14.71C553.68,153.97,549.63,152.25,544.36,152.25z"/>
			<path class="st0" d="M590.48,190.11h-0.2v30.76h-8.15v-74.29h8.15v8.94h0.2c4.01-6.76,9.87-10.14,17.59-10.14
				c6.56,0,11.68,2.28,15.35,6.83c3.68,4.55,5.51,10.66,5.51,18.31c0,8.51-2.07,15.33-6.21,20.45c-4.14,5.12-9.81,7.68-16.99,7.68
				C599.14,198.66,594.05,195.81,590.48,190.11z M590.28,169.59v7.11c0,4.21,1.37,7.78,4.1,10.71c2.73,2.93,6.2,4.4,10.41,4.4
				c4.94,0,8.8-1.89,11.6-5.66c2.8-3.78,4.2-9.03,4.2-15.75c0-5.66-1.31-10.1-3.92-13.32c-2.62-3.21-6.16-4.82-10.63-4.82
				c-4.74,0-8.55,1.65-11.43,4.94C591.72,160.49,590.28,164.62,590.28,169.59z"/>
			<path class="st0" d="M682.85,174.06h-35.92c0.13,5.66,1.66,10.04,4.57,13.12c2.91,3.08,6.92,4.62,12.02,4.62
				c5.73,0,11-1.89,15.8-5.66v7.65c-4.47,3.25-10.39,4.87-17.74,4.87c-7.19,0-12.84-2.31-16.94-6.93s-6.16-11.12-6.16-19.5
				c0-7.92,2.24-14.37,6.73-19.35c4.49-4.99,10.06-7.48,16.72-7.48s11.81,2.15,15.45,6.46c3.64,4.31,5.47,10.29,5.47,17.94V174.06z
				 M674.5,167.16c-0.03-4.7-1.17-8.36-3.4-10.98c-2.24-2.62-5.34-3.93-9.32-3.93c-3.84,0-7.11,1.38-9.79,4.12
				c-2.68,2.75-4.34,6.34-4.97,10.78H674.5z"/>
			<path class="st0" d="M721.71,154.83c-1.42-1.09-3.48-1.64-6.16-1.64c-3.48,0-6.38,1.64-8.72,4.92c-2.33,3.28-3.5,7.75-3.5,13.42
				v25.94h-8.15v-50.88h8.15v10.49h0.2c1.16-3.58,2.93-6.37,5.32-8.37c2.38-2,5.05-3.01,8-3.01c2.12,0,3.74,0.23,4.87,0.7V154.83z"
				/>
		</g>
	</g>
	<path class="st0" d="M165.45,183.51c1.98-4.2-1.79-16.22-5.92-14.11c-68.76,35.11,2.53,59.57,2.53,59.57s-27.79-14.91-17.86-27.5
		C148.9,195.52,162.22,190.37,165.45,183.51z"/>
	<path class="st0" d="M167.18,146.26c4.13-8.77-3.75-33.91-12.38-29.5c-143.79,73.42,5.29,124.58,5.29,124.58
		s-58.11-31.18-37.35-57.51C132.55,171.39,160.42,160.61,167.18,146.26z"/>
	<circle class="st0" cx="162.01" cy="207.94" r="8.47"/>
	<path class="st0" d="M163.92,86.09c7.21-15.31-6.54-59.17-21.61-51.47c-250.9,128.12,9.23,217.37,9.23,217.37
		S50.15,197.58,86.38,151.65C103.51,129.93,152.13,111.12,163.92,86.09z"/>
	<g>
		<g>
			<path class="st0" d="M249.14,223.18c0,7.05-3.18,10.58-9.55,10.58c-6.1,0-9.14-3.39-9.14-10.18v-15.36h2.94v15.17
				c0,5.15,2.17,7.72,6.52,7.72c4.19,0,6.29-2.49,6.29-7.46v-15.43h2.94V223.18z"/>
			<path class="st0" d="M269.91,233.34h-2.87v-10.23c0-3.81-1.39-5.71-4.17-5.71c-1.44,0-2.62,0.54-3.56,1.62s-1.41,2.44-1.41,4.09
				v10.23h-2.87V215.4h2.87v2.98h0.07c1.35-2.26,3.32-3.4,5.88-3.4c1.96,0,3.46,0.63,4.5,1.9c1.04,1.27,1.56,3.1,1.56,5.49V233.34z"
				/>
			<path class="st0" d="M290.63,231.9c0,6.59-3.15,9.88-9.46,9.88c-2.22,0-4.16-0.42-5.81-1.26v-2.87c2.02,1.12,3.95,1.68,5.78,1.68
				c4.41,0,6.62-2.35,6.62-7.04v-1.96h-0.07c-1.37,2.29-3.42,3.43-6.17,3.43c-2.23,0-4.03-0.8-5.39-2.39
				c-1.36-1.59-2.04-3.73-2.04-6.42c0-3.05,0.73-5.47,2.2-7.27s3.47-2.7,6.02-2.7c2.42,0,4.21,0.97,5.38,2.91h0.07v-2.49h2.87V231.9
				z M287.76,225.23v-2.64c0-1.42-0.48-2.65-1.45-3.66c-0.96-1.02-2.16-1.52-3.6-1.52c-1.77,0-3.16,0.65-4.17,1.94
				c-1,1.29-1.51,3.1-1.51,5.42c0,2,0.48,3.59,1.44,4.79s2.24,1.79,3.83,1.79c1.61,0,2.92-0.57,3.93-1.72
				C287.25,228.48,287.76,227.01,287.76,225.23z"/>
			<path class="st0" d="M311.33,233.34h-4.03l-7.92-8.62h-0.07v8.62h-2.87v-26.55h2.87v16.83h0.07l7.53-8.21h3.77l-8.32,8.65
				L311.33,233.34z"/>
			<path class="st0" d="M327.11,233.34h-2.87v-2.8h-0.07c-1.25,2.15-3.09,3.22-5.52,3.22c-1.79,0-3.19-0.47-4.19-1.42
				c-1.01-0.95-1.52-2.2-1.52-3.77c0-3.35,1.97-5.3,5.92-5.85l5.38-0.75c0-3.05-1.23-4.57-3.7-4.57c-2.16,0-4.11,0.74-5.85,2.21
				v-2.94c1.76-1.12,3.79-1.68,6.1-1.68c4.22,0,6.32,2.23,6.32,6.69V233.34z M324.24,224.26l-4.33,0.6
				c-1.33,0.19-2.34,0.52-3.01,0.99c-0.68,0.47-1.02,1.31-1.02,2.51c0,0.88,0.31,1.59,0.94,2.15c0.62,0.55,1.46,0.83,2.5,0.83
				c1.42,0,2.6-0.5,3.53-1.5s1.39-2.26,1.39-3.79V224.26z"/>
			<path class="st0" d="M335.47,230.75h-0.07v10.84h-2.87V215.4h2.87v3.15h0.07c1.41-2.38,3.48-3.57,6.2-3.57
				c2.31,0,4.12,0.8,5.41,2.41c1.3,1.61,1.94,3.76,1.94,6.45c0,3-0.73,5.4-2.19,7.21c-1.46,1.8-3.46,2.71-5.99,2.71
				C338.52,233.76,336.73,232.75,335.47,230.75z M335.4,223.51v2.5c0,1.48,0.48,2.74,1.45,3.77s2.19,1.55,3.67,1.55
				c1.74,0,3.1-0.67,4.09-2s1.48-3.18,1.48-5.55c0-2-0.46-3.56-1.38-4.69c-0.92-1.13-2.17-1.7-3.75-1.7c-1.67,0-3.01,0.58-4.03,1.74
				C335.91,220.3,335.4,221.76,335.4,223.51z"/>
			<path class="st0" d="M368.5,233.34h-4.03l-7.92-8.62h-0.07v8.62h-2.87v-26.55h2.87v16.83h0.07l7.53-8.21h3.77l-8.32,8.65
				L368.5,233.34z"/>
			<path class="st0" d="M384.28,233.34h-2.87v-2.8h-0.07c-1.25,2.15-3.09,3.22-5.52,3.22c-1.79,0-3.19-0.47-4.19-1.42
				c-1.01-0.95-1.52-2.2-1.52-3.77c0-3.35,1.97-5.3,5.92-5.85l5.38-0.75c0-3.05-1.23-4.57-3.7-4.57c-2.16,0-4.11,0.74-5.85,2.21
				v-2.94c1.76-1.12,3.79-1.68,6.1-1.68c4.22,0,6.32,2.23,6.32,6.69V233.34z M381.41,224.26l-4.33,0.6
				c-1.33,0.19-2.34,0.52-3.01,0.99c-0.68,0.47-1.02,1.31-1.02,2.51c0,0.88,0.31,1.59,0.94,2.15c0.62,0.55,1.46,0.83,2.5,0.83
				c1.42,0,2.6-0.5,3.53-1.5s1.39-2.26,1.39-3.79V224.26z"/>
			<path class="st0" d="M404.58,233.34h-2.87v-10.23c0-3.81-1.39-5.71-4.17-5.71c-1.44,0-2.62,0.54-3.56,1.62
				c-0.94,1.08-1.41,2.44-1.41,4.09v10.23h-2.87V215.4h2.87v2.98h0.07c1.35-2.26,3.32-3.4,5.89-3.4c1.96,0,3.46,0.63,4.5,1.9
				c1.04,1.27,1.56,3.1,1.56,5.49V233.34z"/>
			<path class="st0" d="M437.69,233.34h-4.1l-9.7-11.49c-0.36-0.43-0.58-0.72-0.67-0.88h-0.07v12.37h-2.94v-25.12h2.94v11.8h0.07
				c0.16-0.26,0.38-0.54,0.67-0.86l9.39-10.95h3.66l-10.77,12.05L437.69,233.34z"/>
			<path class="st0" d="M449.98,218.31c-0.5-0.38-1.23-0.58-2.17-0.58c-1.23,0-2.25,0.58-3.07,1.73s-1.23,2.73-1.23,4.73v9.14h-2.87
				V215.4h2.87v3.7h0.07c0.41-1.26,1.03-2.25,1.88-2.95c0.84-0.71,1.78-1.06,2.82-1.06c0.75,0,1.32,0.08,1.72,0.25V218.31z"/>
			<path class="st0" d="M467.51,225.09h-12.66c0.05,2,0.58,3.54,1.61,4.62s2.44,1.63,4.24,1.63c2.02,0,3.88-0.67,5.57-2v2.7
				c-1.58,1.14-3.66,1.72-6.25,1.72c-2.53,0-4.53-0.81-5.97-2.44c-1.45-1.63-2.17-3.92-2.17-6.87c0-2.79,0.79-5.06,2.37-6.82
				c1.58-1.76,3.55-2.64,5.89-2.64c2.35,0,4.16,0.76,5.45,2.28c1.28,1.52,1.93,3.63,1.93,6.32V225.09z M464.57,222.65
				c-0.01-1.66-0.41-2.95-1.2-3.87c-0.79-0.92-1.88-1.38-3.28-1.38c-1.36,0-2.5,0.48-3.45,1.45c-0.95,0.97-1.53,2.24-1.75,3.8
				H464.57z"/>
			<path class="st0" d="M484.7,233.34h-2.87v-2.8h-0.07c-1.25,2.15-3.09,3.22-5.52,3.22c-1.79,0-3.18-0.47-4.19-1.42
				c-1.01-0.95-1.52-2.2-1.52-3.77c0-3.35,1.97-5.3,5.92-5.85l5.38-0.75c0-3.05-1.23-4.57-3.7-4.57c-2.16,0-4.11,0.74-5.85,2.21
				v-2.94c1.76-1.12,3.79-1.68,6.09-1.68c4.22,0,6.32,2.23,6.32,6.69V233.34z M481.82,224.26l-4.33,0.6
				c-1.33,0.19-2.33,0.52-3.01,0.99c-0.68,0.47-1.02,1.31-1.02,2.51c0,0.88,0.31,1.59,0.94,2.15c0.62,0.55,1.46,0.83,2.5,0.83
				c1.42,0,2.6-0.5,3.53-1.5c0.93-1,1.39-2.26,1.39-3.79V224.26z"/>
			<path class="st0" d="M489.02,232.69v-3.08c1.56,1.16,3.29,1.73,5.17,1.73c2.52,0,3.78-0.84,3.78-2.52c0-0.48-0.11-0.88-0.32-1.22
				c-0.22-0.33-0.51-0.63-0.88-0.88c-0.37-0.26-0.8-0.49-1.3-0.69c-0.5-0.2-1.03-0.42-1.6-0.64c-0.79-0.32-1.49-0.63-2.09-0.95
				s-1.1-0.68-1.51-1.09c-0.4-0.4-0.71-0.86-0.91-1.38s-0.31-1.12-0.31-1.8c0-0.84,0.19-1.59,0.58-2.23
				c0.39-0.65,0.9-1.19,1.54-1.63c0.64-0.44,1.38-0.77,2.2-0.99c0.82-0.22,1.67-0.33,2.55-0.33c1.55,0,2.94,0.27,4.17,0.81v2.91
				c-1.32-0.86-2.84-1.3-4.55-1.3c-0.54,0-1.02,0.06-1.45,0.18c-0.43,0.12-0.8,0.29-1.11,0.52c-0.31,0.22-0.55,0.49-0.72,0.8
				c-0.17,0.31-0.25,0.65-0.25,1.02c0,0.47,0.08,0.86,0.25,1.17c0.17,0.32,0.42,0.6,0.75,0.84c0.33,0.25,0.72,0.47,1.19,0.67
				c0.47,0.2,1,0.41,1.59,0.65c0.79,0.3,1.51,0.62,2.14,0.94c0.63,0.32,1.17,0.68,1.61,1.09c0.44,0.4,0.79,0.87,1.02,1.39
				s0.36,1.15,0.36,1.87c0,0.89-0.2,1.66-0.59,2.31c-0.39,0.65-0.91,1.2-1.57,1.63c-0.65,0.43-1.41,0.75-2.26,0.96
				c-0.85,0.21-1.75,0.31-2.68,0.31C491.98,233.76,490.38,233.4,489.02,232.69z"/>
			<path class="st0" d="M506.8,210.85c-0.51,0-0.95-0.17-1.31-0.53c-0.36-0.35-0.54-0.79-0.54-1.33s0.18-0.98,0.54-1.34
				c0.36-0.36,0.8-0.53,1.31-0.53c0.53,0,0.97,0.18,1.34,0.53s0.55,0.8,0.55,1.34c0,0.51-0.18,0.95-0.55,1.31
				S507.33,210.85,506.8,210.85z M508.2,233.34h-2.87V215.4h2.87V233.34z"/>
			<path class="st0" d="M539.48,233.34h-2.87v-10.3c0-1.99-0.31-3.42-0.92-4.31c-0.61-0.89-1.64-1.33-3.09-1.33
				c-1.23,0-2.27,0.56-3.13,1.68c-0.86,1.12-1.29,2.46-1.29,4.03v10.23h-2.87v-10.65c0-3.53-1.36-5.29-4.08-5.29
				c-1.26,0-2.3,0.53-3.12,1.58s-1.23,2.43-1.23,4.13v10.23h-2.87V215.4h2.87v2.84h0.07c1.27-2.17,3.13-3.26,5.57-3.26
				c1.23,0,2.29,0.34,3.21,1.02c0.91,0.68,1.54,1.58,1.87,2.69c1.33-2.48,3.32-3.71,5.96-3.71c3.95,0,5.92,2.43,5.92,7.3V233.34z"/>
			<path class="st0" d="M559.42,233.34h-2.87v-2.84h-0.07c-1.19,2.17-3.04,3.26-5.54,3.26c-4.27,0-6.41-2.54-6.41-7.64V215.4h2.85
				v10.26c0,3.78,1.45,5.67,4.34,5.67c1.4,0,2.55-0.52,3.46-1.55c0.91-1.03,1.36-2.38,1.36-4.05V215.4h2.87V233.34z"/>
		</g>
	</g>
</g>
<rect class="st1" width="752.14" height="288"/>
</svg>
