<?xml version="1.0" encoding="utf-8"?>
<!-- Generator: Adobe Illustrator 23.0.0, SVG Export Plug-In . SVG Version: 6.00 Build 0)  -->
<svg version="1.1" xmlns="http://www.w3.org/2000/svg" xmlns:xlink="http://www.w3.org/1999/xlink" x="0px" y="0px"
	 viewBox="0 0 3710 3710" style="enable-background:new 0 0 3710 3710;" xml:space="preserve">
<style type="text/css">
	.st0{fill:none;}
	.st1{fill:url(#SVGID_1_);}
	.st2{fill:#BDD0FB;}
	.st3{fill:url(#SVGID_2_);}
	.st4{fill:#FFFFFF;}
	.st5{fill:url(#SVGID_3_);}
	.st6{fill:url(#SVGID_4_);}
	.st7{fill:url(#SVGID_5_);}
	.st8{fill:url(#SVGID_6_);}
	.st9{fill:#91B3FA;}
	.st10{opacity:0.3;}
	.st11{fill:url(#SVGID_7_);}
	.st12{fill:url(#SVGID_8_);}
	.st13{fill:url(#SVGID_9_);}
	.st14{fill:url(#SVGID_10_);}
	.st15{fill:url(#SVGID_11_);}
	.st16{fill:url(#SVGID_12_);}
	.st17{fill:url(#SVGID_13_);}
	.st18{fill:url(#SVGID_14_);}
	.st19{fill:url(#SVGID_15_);}
	.st20{fill:url(#SVGID_16_);}
	.st21{fill:url(#SVGID_17_);}
	.st22{fill:url(#SVGID_18_);}
	.st23{fill:url(#SVGID_19_);}
	.st24{fill:url(#SVGID_20_);}
	.st25{fill:url(#SVGID_21_);}
	.st26{fill:url(#SVGID_22_);}
	.st27{fill:url(#SVGID_23_);}
	.st28{fill:url(#SVGID_24_);}
	.st29{fill:url(#SVGID_25_);}
	.st30{fill:url(#SVGID_26_);}
	.st31{fill:url(#SVGID_27_);}
	.st32{fill:url(#SVGID_28_);}
	.st33{fill:url(#SVGID_29_);}
	.st34{fill:url(#SVGID_30_);}
	.st35{fill:url(#SVGID_31_);}
	.st36{fill:url(#SVGID_32_);}
	.st37{fill:url(#SVGID_33_);}
	.st38{fill:url(#SVGID_34_);}
	.st39{fill:url(#SVGID_35_);}
	.st40{fill:url(#SVGID_36_);}
	.st41{fill:url(#SVGID_37_);}
	.st42{fill:#7D97F4;}
	.st43{fill:url(#SVGID_38_);}
	.st44{fill:url(#SVGID_39_);}
	.st45{fill:url(#SVGID_40_);}
	.st46{fill:url(#SVGID_41_);}
	.st47{fill:url(#SVGID_42_);}
	.st48{fill:url(#SVGID_43_);}
	.st49{fill:url(#SVGID_44_);}
	.st50{fill:url(#SVGID_45_);}
	.st51{fill:url(#SVGID_46_);}
	.st52{fill:url(#SVGID_47_);}
	.st53{fill:url(#SVGID_48_);}
	.st54{fill:url(#SVGID_49_);}
	.st55{fill:url(#SVGID_50_);}
	.st56{fill:url(#SVGID_51_);}
	.st57{fill:url(#SVGID_52_);}
	.st58{fill:url(#SVGID_53_);}
	.st59{fill:url(#SVGID_54_);}
	.st60{fill:url(#SVGID_55_);}
</style>
<g id="Background">
</g>
<g id="Illustration">
	<g>
		<g>
			<g>
				<rect class="st0" width="3710" height="3710"/>
			</g>
		</g>
		<linearGradient id="SVGID_1_" gradientUnits="userSpaceOnUse" x1="3926.9526" y1="4494.6499" x2="970.8384" y2="823.3412">
			<stop  offset="0" style="stop-color:#DAE3FE"/>
			<stop  offset="1" style="stop-color:#E9EFFD"/>
		</linearGradient>
		<path class="st1" d="M3113.7,3046.8c-67.9,71.5-132.1,117.6-182.9,154c-596.7,428.1-1302.7,303.3-1452.8,272.9
			c-221.6-45-649.9-132-959.5-496.1C50,2426.6,123,1558.6,486.4,985.7c66.5-104.8,417.6-686.5,1131.2-779.8
			c431.9-56.5,935.3,57.4,1299.9,362.8C3682.7,1209.9,3628.3,2505.1,3113.7,3046.8z"/>
		
			<ellipse transform="matrix(0.7071 -0.7071 0.7071 0.7071 -813.0683 1686.1672)" class="st2" cx="1628.8" cy="1824.5" rx="1280.3" ry="1280.3"/>
		<g>
			<linearGradient id="SVGID_2_" gradientUnits="userSpaceOnUse" x1="2580.7874" y1="560.693" x2="120.4564" y2="3827.1807">
				<stop  offset="0" style="stop-color:#4F52FF"/>
				<stop  offset="1" style="stop-color:#4042E2"/>
			</linearGradient>
			<circle class="st3" cx="1628.9" cy="1824.5" r="1092.7"/>
			<path class="st4" d="M1628.8,2972c-632.7,0-1147.4-514.7-1147.4-1147.4S996.2,677.1,1628.8,677.1s1147.4,514.7,1147.4,1147.4
				S2261.5,2972,1628.8,2972z M1628.8,731.9c-602.5,0-1092.7,490.2-1092.7,1092.7c0,602.5,490.2,1092.7,1092.7,1092.7
				c602.5,0,1092.7-490.2,1092.7-1092.7C2721.5,1222,2231.4,731.9,1628.8,731.9z"/>
		</g>
		<g>
			<linearGradient id="SVGID_3_" gradientUnits="userSpaceOnUse" x1="2580.7866" y1="560.6932" x2="120.4599" y2="3827.1753">
				<stop  offset="0" style="stop-color:#4F52FF"/>
				<stop  offset="1" style="stop-color:#4042E2"/>
			</linearGradient>
			<circle class="st5" cx="1628.8" cy="1824.5" r="666.2"/>
			<path class="st4" d="M1628.8,2545.4c-397.5,0-720.9-323.4-720.9-720.9s323.4-720.9,720.9-720.9c397.5,0,720.9,323.4,720.9,720.9
				S2026.3,2545.4,1628.8,2545.4z M1628.8,1213.1c-337.1,0-611.4,274.3-611.4,611.4s274.3,611.4,611.4,611.4
				c337.1,0,611.4-274.3,611.4-611.4S1966,1213.1,1628.8,1213.1z"/>
		</g>
		<g>
			<linearGradient id="SVGID_4_" gradientUnits="userSpaceOnUse" x1="1851.9595" y1="65.902" x2="1715.0048" y2="1145.4347">
				<stop  offset="0" style="stop-color:#FF928E"/>
				<stop  offset="1" style="stop-color:#FE7062"/>
			</linearGradient>
			<circle class="st6" cx="1628.8" cy="1824.5" r="258.1"/>
			<path class="st4" d="M1628.8,2137.4c-172.5,0-312.8-140.3-312.8-312.8s140.3-312.8,312.8-312.8c172.5,0,312.8,140.3,312.8,312.8
				S1801.3,2137.4,1628.8,2137.4z M1628.8,1621.2c-112.1,0-203.4,91.2-203.4,203.4s91.2,203.4,203.4,203.4
				c112.1,0,203.4-91.2,203.4-203.4S1741,1621.2,1628.8,1621.2z"/>
		</g>
		<g>
			
				<linearGradient id="SVGID_5_" gradientUnits="userSpaceOnUse" x1="252.122" y1="3830.6567" x2="-55.4336" y2="5080.0967" gradientTransform="matrix(-0.7071 -0.7071 0.7071 -0.7071 -1192.2574 4633.1733)">
				<stop  offset="0" style="stop-color:#09005D"/>
				<stop  offset="1" style="stop-color:#1A0F91"/>
			</linearGradient>
			<polygon class="st7" points="2850.5,606.2 2877.7,633.4 1848.3,1662.8 1821.1,1635.6 			"/>
			
				<linearGradient id="SVGID_6_" gradientUnits="userSpaceOnUse" x1="-10.1226" y1="4093.2859" x2="-104.1017" y2="5101.4331" gradientTransform="matrix(-0.7071 -0.7071 0.7071 -0.7071 -1192.2574 4633.1733)">
				<stop  offset="0" style="stop-color:#09005D"/>
				<stop  offset="1" style="stop-color:#1A0F91"/>
			</linearGradient>
			<path class="st8" d="M1840.4,1570c15.6-15.6,89.1,57.9,73.5,73.5l-272.7,214.4c-10.1,7.9-23.1-5.1-15.2-15.2L1840.4,1570z"/>
			<path class="st9" d="M2877.1,634l138.5,13.8l-190.1,190.1c-62.3,62.3-149.2,93.4-236.9,84.6l0,0L2877.1,634z"/>
			<path class="st9" d="M2849.9,606.8l-13.8-138.5L2646,658.4c-62.3,62.3-93.4,149.2-84.6,236.9l0,0L2849.9,606.8z"/>
		</g>
		<g>
			<g>
				<g class="st10">
					<path class="st9" d="M949.4,415.1c-3.9,3.9-10.1,3.9-14,0c-7.5-7.5-15.5-14.8-23.6-21.7c-4.1-3.5-4.7-9.6-1.3-13.8
						c0,0,0.1-0.1,0.1-0.2c3.5-4.2,9.8-4.7,14-1.2c8.6,7.2,17,14.9,24.9,22.9c3.6,3.6,3.8,9.3,0.7,13.2
						C949.9,414.6,949.7,414.9,949.4,415.1z M869.7,362.6c-9-5.7-18.4-11.1-27.8-16c-4.9-2.5-6.8-8.5-4.2-13.4
						c2.5-4.9,8.5-6.7,13.4-4.2c9.9,5.1,19.8,10.8,29.3,16.8c4.6,2.9,6,9,3.1,13.7c-0.2,0.3-0.4,0.7-0.7,1
						C879.6,364.3,874,365.3,869.7,362.6z M794.1,325.9c-10-3.5-20.4-6.7-30.7-9.4c-5.3-1.4-8.5-6.8-7.1-12.1
						c1.4-5.3,6.8-8.5,12.1-7.1c10.9,2.8,21.7,6.1,32.3,9.9c5.2,1.8,7.9,7.5,6,12.6c-0.4,1.1-1,2.1-1.6,2.9
						C802.5,326,798.1,327.3,794.1,325.9z M712.1,307c-10.6-1.2-21.4-2-32-2.3c-5.5-0.2-9.8-4.7-9.6-10.2c0.2-5.5,4.7-9.8,10.2-9.6
						c11.2,0.3,22.6,1.1,33.7,2.4c5.4,0.6,9.3,5.5,8.7,11c-0.2,1.9-1,3.7-2.1,5.1C718.9,306,715.6,307.4,712.1,307z M628,306.9
						c-10.6,1.2-21.2,2.8-31.7,4.9c-5.4,1.1-10.6-2.4-11.6-7.8c-1.1-5.4,2.4-10.6,7.8-11.6c11-2.2,22.3-3.9,33.4-5.1
						c5.4-0.6,10.3,3.3,10.9,8.8c0.3,2.7-0.5,5.3-2.2,7.3C633.1,305.3,630.7,306.6,628,306.9z M546,325.4
						c-10.1,3.5-20.1,7.4-29.9,11.8c-5,2.2-10.9,0-13.1-5c-2.2-5,0-10.9,5-13.1c10.2-4.6,20.8-8.7,31.4-12.4
						c5.2-1.8,10.8,1,12.6,6.1c1.2,3.4,0.4,6.9-1.7,9.5C549.3,323.7,547.8,324.8,546,325.4z M293.3,592.7c-5.3-1.4-8.5-6.8-7.1-12.1
						c2.8-10.8,6.2-21.7,9.9-32.3c1.8-5.2,7.5-7.9,12.6-6c5.2,1.8,7.9,7.5,6,12.6c-3.6,10.1-6.7,20.4-9.4,30.7
						c-0.4,1.4-1,2.7-1.9,3.7C301.1,592.3,297.2,593.8,293.3,592.7z M470.2,361.6c-9,5.6-17.9,11.7-26.5,18.1
						c-4.4,3.3-10.6,2.4-13.9-2c-3.3-4.4-2.4-10.6,2-13.9c9-6.7,18.3-13.1,27.9-19.1c4.6-2.9,10.8-1.5,13.6,3.2
						c2.3,3.7,1.9,8.3-0.7,11.5C471.9,360.2,471.1,361,470.2,361.6z M322.3,511.4c-4.9-2.5-6.7-8.5-4.2-13.4
						c5.2-9.9,10.9-19.8,16.9-29.3c2.9-4.6,9.1-6,13.7-3.1c4.6,2.9,6,9.1,3.1,13.7c-5.7,9-11.1,18.4-16,27.8
						c-0.3,0.6-0.7,1.2-1.1,1.7C331.6,512.5,326.5,513.6,322.3,511.4z M404.3,413.8c-7.5,7.5-14.9,15.4-21.8,23.6
						c-3.5,4.2-9.8,4.7-14,1.2c-4.1-3.5-4.7-9.6-1.3-13.8c0-0.1,0.1-0.1,0.1-0.2c7.3-8.6,15-16.9,22.9-24.8c3.9-3.9,10.2-3.8,14,0
						c3.6,3.6,3.8,9.3,0.7,13.2C404.8,413.3,404.6,413.5,404.3,413.8z"/>
					<path class="st9" d="M292.1,658c1.2-1.5,2-3.4,2.2-5.5c0.4-5.1,0.9-10.3,1.4-15.4c0.6-5.4-3.3-10.3-8.7-11
						c-5.4-0.6-10.4,3.3-11,8.7c-0.6,5.4-1.1,10.8-1.5,16.2c-0.4,5.5,3.7,10.2,9.1,10.6C287.1,661.9,290.2,660.5,292.1,658z"/>
				</g>
				<g class="st10">
					<path class="st9" d="M389.3,944c3-3.7,3-9.2-0.3-12.8c-3.4-3.8-6.8-7.7-10.1-11.7c-3.5-4.2-9.7-4.8-13.9-1.3
						c-4.2,3.5-4.8,9.7-1.3,13.9c3.4,4.2,7,8.3,10.6,12.3c3.7,4.1,9.9,4.4,14,0.8C388.6,944.8,389,944.4,389.3,944z"/>
					<path class="st9" d="M963.7,944.9c-3.6,4.1-9.9,4.4-14,0.8c-4.1-3.7-4.4-9.9-0.8-14c6.9-7.8,13.7-15.9,20.1-24.4
						c3.3-4.4,9.5-5.2,13.9-1.9c4.4,3.3,5.2,9.5,1.9,13.9c-2.8,3.7-5.6,7.3-8.5,10.8C972.2,935.1,968,940.1,963.7,944.9z
						 M1000.9,877.8c-4.8-2.7-6.5-8.7-3.8-13.5c5.1-9.2,10-18.6,14.3-28.2c2.3-5,8.1-7.2,13.1-4.9c5,2.3,7.2,8.1,4.9,13.1
						c-4.6,10-9.6,20-15.1,29.6c-0.3,0.5-0.6,1-0.9,1.4C1010.4,879.1,1005.1,880.2,1000.9,877.8z M925,982.5
						c-8.4,7.1-17.2,14-26.2,20.4c-4.5,3.2-10.6,2.1-13.8-2.3c-3.2-4.5-2.1-10.6,2.3-13.8c8.6-6.1,16.9-12.6,24.9-19.4
						c4.2-3.5,10.4-3,14,1.1c3.1,3.7,3.1,9,0.1,12.6C925.9,981.7,925.5,982.1,925,982.5z M1036.1,800.5c-5.2-1.6-8.2-7.1-6.7-12.3
						c3-10,5.6-20.3,7.8-30.6c1.1-5.4,6.4-8.8,11.7-7.7c5.4,1.1,8.8,6.4,7.7,11.7c-2.3,10.8-5,21.6-8.2,32.2c-0.4,1.3-1,2.4-1.8,3.4
						C1044.2,800.3,1040,801.7,1036.1,800.5z M852.8,1031.1c-9.8,5.1-19.9,9.9-30.1,14.1c-5,2.1-10.8-0.3-13-5.3
						c-2.1-5,0.3-10.9,5.3-13c9.7-4.1,19.3-8.6,28.6-13.4c4.8-2.5,10.8-0.7,13.4,4.2c1.9,3.6,1.3,7.9-1.1,10.8
						C855,1029.6,854,1030.5,852.8,1031.1z M771.6,1062.7c-10.7,2.9-21.6,5.3-32.4,7.2c-5.4,1-10.5-2.6-11.5-8
						c-1-5.4,2.6-10.5,8-11.5c10.3-1.9,20.7-4.2,30.8-6.9c5.3-1.4,10.7,1.7,12.1,7c0.8,3.2,0,6.4-1.9,8.8
						C775.5,1061,773.7,1062.2,771.6,1062.7z M685.5,1075.9c-11,0.5-22.2,0.5-33.2,0c-5.5-0.2-9.7-4.8-9.5-10.3
						c0.2-5.5,4.8-9.7,10.3-9.5c10.5,0.4,21.1,0.4,31.6,0c5.5-0.2,10.1,4,10.3,9.5c0.1,2.5-0.7,4.8-2.2,6.7
						C691.1,1074.3,688.5,1075.7,685.5,1075.9z M598.6,1069.9c-10.9-2-21.8-4.4-32.4-7.3c-5.3-1.4-8.4-6.9-7-12.1
						c1.4-5.3,6.9-8.4,12.1-7c10.1,2.7,20.5,5.1,30.8,6.9c5.4,1,9,6.1,8,11.5c-0.3,1.7-1,3.2-2,4.5
						C605.9,1069.1,602.3,1070.6,598.6,1069.9z M515.1,1045c-10.1-4.3-20.2-9.1-30-14.2c-4.8-2.6-6.7-8.5-4.1-13.4
						c2.5-4.8,8.5-6.7,13.4-4.1c9.3,4.9,18.9,9.4,28.5,13.5c5,2.1,7.4,7.9,5.3,13c-0.4,0.9-0.9,1.7-1.4,2.4
						C523.9,1045.5,519.3,1046.8,515.1,1045z M439.2,1002.4c-6.6-4.7-13.2-9.7-19.5-14.8c-2.3-1.8-4.5-3.7-6.8-5.6
						c-4.2-3.5-4.8-9.8-1.2-14c3.5-4.2,9.8-4.7,14-1.2c2.1,1.8,4.3,3.6,6.4,5.3c6,4.9,12.2,9.6,18.5,14.1c4.5,3.2,5.5,9.4,2.3,13.8
						c-0.1,0.2-0.2,0.3-0.4,0.5C449.3,1004.7,443.4,1005.5,439.2,1002.4z"/>
					<path class="st9" d="M1061.8,713.4c1.2-1.5,2-3.4,2.2-5.6c0.4-5.4,0.6-10.8,0.8-16.2c0.2-5.5-4.2-10-9.6-10.2
						c-5.5-0.1-10,4.2-10.2,9.6c-0.1,5.1-0.4,10.3-0.7,15.4c-0.4,5.5,3.7,10.2,9.2,10.6C1056.8,717.3,1059.8,715.9,1061.8,713.4z"/>
				</g>
				<g>
					<path class="st9" d="M950.4,585.3c-0.4-1.9-2-3.4-3.9-3.6l-55.9-7.1c-11.1-23.9-26.1-46.1-44.7-65.8l13.8-54.6
						c0.5-1.9-0.3-3.9-2-5l-56.5-37.1c-1.7-1.1-3.8-1-5.4,0.2l-44.5,34.5c-25.4-9.3-51.8-14.2-78.1-14.8l-28.8-48.4
						c-1-1.7-3-2.6-4.9-2.2l-66.2,13.8c-1.9,0.4-3.4,2-3.6,3.9l-7.1,55.9c-23.9,11.1-46.1,26.1-65.8,44.7L442,485.9
						c-1.9-0.5-3.9,0.3-5,1.9l-37.1,56.5c-1.1,1.7-1,3.8,0.2,5.4l34.5,44.5c-9.3,25.4-14.2,51.8-14.8,78.1l-48.4,28.8
						c-1.7,1-2.6,3-2.2,4.9l13.8,66.2c0.4,1.9,2,3.4,3.9,3.6l55.9,7.1c11.1,23.9,26.1,46.1,44.7,65.8l-13.8,54.6
						c-0.5,1.9,0.3,3.9,1.9,5l56.5,37.1c1.7,1.1,3.8,1,5.4-0.2l44.5-34.5c25.4,9.3,51.8,14.2,78.1,14.8l28.8,48.4
						c1,1.7,3,2.6,4.9,2.2l66.2-13.8c1.9-0.4,3.4-2,3.6-3.9l7.1-55.9c23.9-11.1,46.1-26.1,65.8-44.7l54.6,13.8
						c1.9,0.5,3.9-0.3,5-1.9l37.1-56.5c1.1-1.7,1-3.8-0.2-5.4l-34.5-44.5c9.3-25.4,14.1-51.8,14.8-78.1l48.4-28.8
						c1.7-1,2.6-3,2.2-4.9L950.4,585.3z"/>
					<g>
						<path class="st2" d="M712.6,728.8c-27.6,25.3-70.7,23.5-96-4.1c-12.3-13.4-18.6-30.7-17.9-48.8c0.8-18.1,8.5-34.9,21.9-47.2
							c27.6-25.3,70.7-23.5,96,4.1c23.1,25.1,23.6,63,2.8,88.7C717.4,724.1,715.1,726.5,712.6,728.8z M614.6,676.6
							c-0.6,13.9,4.3,27.2,13.7,37.4c19.4,21.1,52.5,22.5,73.6,3.1c21.2-19.4,22.5-52.5,3.1-73.6c-19.4-21.1-52.5-22.5-73.6-3.1
							c-1.9,1.8-3.7,3.6-5.3,5.6C619.1,654.7,615.1,665.3,614.6,676.6z"/>
					</g>
					<path class="st2" d="M794.8,784.4c3.6-4.4,7-9,10.1-13.9l0,0c1-1.5,2-3.1,2.9-4.6c4.7-7.6,8.7-15.6,12.1-23.9
						c0-0.1,0.1-0.2,0.1-0.3c0.1-0.3,0.3-0.6,0.4-1c0.3-0.6,0.5-1.2,0.7-1.9c0.6-1.6,0.1-3.4-1.2-4.5c-0.3-0.3-0.7-0.5-1.1-0.6
						c-2-0.8-4.3,0.2-5.1,2.3c-4.1,10.5-9.3,20.6-15.5,30.1c-30.9,47.2-82.8,72.5-135.4,71.8c-29.3-0.4-58.7-8.8-85-26
						c-4.6-3-9-6.2-13.2-9.7c-28.4-23-47.8-54.8-55.3-91c-8.7-41.6-0.6-84.1,22.7-119.7c48.1-73.4,147-93.9,220.3-45.8
						c4.5,3,8.9,6.2,13.1,9.5c18.1,14.7,32.8,33.1,42.9,54.1c0.3,0.5,0.6,1,1.1,1.4c1.2,0.9,2.8,1.2,4.2,0.5c2-1,2.8-3.3,1.8-5.3
						c-10.7-22-26.1-41.4-45.1-56.8c-4.4-3.6-9-6.9-13.7-10c-77-50.5-180.8-28.9-231.3,48.1c-24.5,37.3-32.9,81.9-23.8,125.6
						c7.9,38,28.3,71.4,58.1,95.6c4.4,3.6,9.1,7,13.9,10.1c37.3,24.5,81.9,32.9,125.6,23.9C737.3,834.6,770.7,814.2,794.8,784.4z"/>
				</g>
			</g>
			<g>
				<g class="st10">
					<path class="st9" d="M1365.8,316.1c1.7-2.1,1.9-5,0.3-7.3c-2.9-4.3-6.1-8.5-9.3-12.6c-2.1-2.7-5.9-3.1-8.6-1
						c-2.7,2.1-3.1,5.9-1,8.6c3.1,3.9,6,7.9,8.8,12c1.9,2.8,5.7,3.5,8.5,1.6C1365,317,1365.5,316.6,1365.8,316.1z"/>
					<path class="st9" d="M1335.2,280.5c-2.4,2.4-6.3,2.4-8.7,0c-6-6-12.5-11.8-19.1-17.2c-1.4-1.1-2.8-2.3-4.2-3.4
						c-2.7-2.1-3.1-5.9-1.1-8.6c2.1-2.4,5.9-3.1,8.6-1.1c1.5,1.2,3,2.3,4.4,3.5c6.9,5.6,13.7,11.7,20,18c2.2,2.2,2.4,5.8,0.4,8.2
						C1335.5,280.2,1335.4,280.3,1335.2,280.5z M1277.6,242.5c-8.9-5.3-18.2-10.1-27.6-14.3c-3.1-1.4-4.5-5-3.1-8.1
						c1.4-3.1,5-4.5,8.1-3.1c9.9,4.4,19.6,9.4,28.9,15c2.9,1.7,3.8,5.5,2.1,8.4c-0.2,0.3-0.3,0.5-0.5,0.7
						C1283.6,243.4,1280.2,244,1277.6,242.5z M1220.8,217.5c-9.9-3-20.1-5.3-30.3-7c-3.3-0.6-5.6-3.7-5-7c0.6-3.3,3.7-5.6,7-5
						c10.7,1.8,21.4,4.3,31.7,7.4c3.2,1,5.1,4.4,4.1,7.6c-0.2,0.8-0.6,1.5-1.1,2.1C1225.8,217.3,1223.3,218.2,1220.8,217.5z
						 M1159.6,207.2c-10.3-0.4-20.8-0.3-31.1,0.6c-3.4,0.3-6.3-2.2-6.6-5.6c-0.3-3.4,2.2-6.3,5.6-6.6c10.8-0.9,21.7-1.1,32.6-0.6
						c3.4,0.1,6,3,5.9,6.4c-0.1,1.4-0.6,2.6-1.4,3.6C1163.5,206.3,1161.7,207.2,1159.6,207.2z M1097.8,212.1
						c-10.1,2.1-20.2,4.8-30,8.1c-3.2,1.1-6.7-0.6-7.8-3.8c-1.1-3.2,0.6-6.7,3.8-7.8c10.2-3.5,20.8-6.3,31.4-8.5
						c3.3-0.7,6.5,1.5,7.2,4.8c0.4,1.9-0.1,3.7-1.2,5.1C1100.5,211,1099.3,211.8,1097.8,212.1z M1039.1,231.9
						c-9.3,4.5-18.4,9.6-27.1,15.2c-2.8,1.8-6.6,1-8.5-1.8c-1.8-2.8-1-6.6,1.8-8.5c9.1-5.9,18.6-11.2,28.4-15.9
						c3-1.5,6.7-0.2,8.2,2.9c1.1,2.2,0.7,4.7-0.8,6.5C1040.6,230.9,1039.9,231.5,1039.1,231.9z M987,265.5
						c-7.9,6.6-15.5,13.8-22.6,21.4c-2.3,2.5-6.2,2.6-8.6,0.3c-2.5-2.3-2.6-6.1-0.3-8.7c7.4-7.9,15.4-15.5,23.6-22.4
						c2.6-2.2,6.5-1.8,8.6,0.8c1.9,2.3,1.9,5.5,0.1,7.8C987.6,264.9,987.3,265.2,987,265.5z M919.7,339.4c-3-1.6-4-5.4-2.4-8.3
						c4.5-8.2,9.6-16.3,15-24c0.8-1.2,1.7-2.3,2.5-3.5c1.9-2.8,5.8-3.3,8.5-1.3c2.7,2,3.3,5.8,1.3,8.5c-0.8,1.1-1.6,2.2-2.4,3.3
						c-5.2,7.4-10,15.1-14.3,22.9c-0.2,0.3-0.4,0.6-0.6,0.9C925.5,340.2,922.3,340.9,919.7,339.4z"/>
				</g>
				<g class="st10">
					<path class="st9" d="M1351.5,628.2c-6.8,8.2-14.2,16-21.9,23.3c-2.5,2.3-6.3,2.2-8.7-0.3c-2.3-2.5-2.2-6.3,0.3-8.7
						c7.4-6.9,14.4-14.4,20.9-22.3c2.2-2.6,6-2.9,8.6-0.8C1353.3,621.8,1353.6,625.6,1351.5,628.2
						C1351.5,628.2,1351.5,628.2,1351.5,628.2z M1362,604.2c-2.8-1.8-3.6-5.6-1.8-8.5c5.5-8.5,10.6-17.5,15-26.6
						c1.5-3,5.1-4.3,8.2-2.8c3,1.5,4.3,5.1,2.8,8.2c-4.7,9.6-10,19-15.8,27.9c-0.1,0.2-0.3,0.4-0.4,0.5
						C1368.1,605.4,1364.7,606,1362,604.2z M1304.9,672.1c-8.6,6.3-17.7,12.1-26.9,17.3c-2.9,1.7-6.7,0.6-8.3-2.3
						c-1.7-2.9-0.6-6.7,2.3-8.3c8.8-5,17.5-10.5,25.7-16.5c2.7-2,6.6-1.4,8.5,1.3c1.7,2.3,1.5,5.4-0.2,7.5
						C1305.7,671.4,1305.3,671.8,1304.9,672.1z M1390.7,548.7c-3.2-1.1-4.9-4.6-3.8-7.8c3.3-9.6,6.1-19.5,8.2-29.5
						c0.7-3.3,4-5.4,7.3-4.7c3.3,0.7,5.4,4,4.7,7.3c-2.2,10.4-5.1,20.8-8.6,30.9c-0.2,0.7-0.6,1.3-1,1.9
						C1395.9,548.7,1393.2,549.6,1390.7,548.7z M1249.1,703.4c-9.8,4-20,7.5-30.3,10.4c-3.3,0.9-6.6-1-7.5-4.3
						c-0.9-3.3,1-6.6,4.3-7.5c9.8-2.7,19.5-6,28.9-9.9c3.1-1.3,6.7,0.2,8,3.3c0.9,2.1,0.5,4.5-0.9,6.2
						C1250.9,702.3,1250.1,703,1249.1,703.4z M1187.5,720.3c-10.6,1.6-21.3,2.5-31.9,2.8c-3.4,0.1-6.2-2.6-6.3-5.9
						c-0.1-3.4,2.6-6.2,5.9-6.3c10.1-0.3,20.4-1.2,30.4-2.7c3.3-0.5,6.5,1.8,7,5.2c0.3,1.8-0.3,3.5-1.3,4.8
						C1190.4,719.3,1189.1,720.1,1187.5,720.3z M1123.5,722.1c-10.6-1-21.3-2.7-31.7-4.9c-3.3-0.7-5.4-4-4.7-7.3
						c0.7-3.3,4-5.4,7.3-4.7c9.9,2.2,20.1,3.8,30.2,4.7c3.4,0.3,5.8,3.3,5.5,6.7c-0.1,1.2-0.6,2.4-1.3,3.3
						C1127.6,721.4,1125.7,722.3,1123.5,722.1z"/>
					<path class="st9" d="M1410.5,485.3c0.7-0.9,1.2-2.1,1.3-3.3c0.5-5.2,0.8-10.5,0.9-15.6c0.1-3.4-2.6-6.2-6-6.3
						c-3.4-0.1-6.2,2.6-6.3,6c-0.1,4.9-0.4,9.9-0.8,14.9c-0.3,3.4,2.2,6.3,5.6,6.6C1407.3,487.8,1409.3,486.9,1410.5,485.3z"/>
				</g>
				<g>
					<path class="st9" d="M1336.7,395.2c-0.3-1.3-1.3-2.3-2.6-2.4l-37.4-4.8c-7.4-16-17.4-30.9-29.9-44l9.3-36.5
						c0.3-1.3-0.2-2.6-1.3-3.4l-37.8-24.8c-1.1-0.7-2.5-0.7-3.6,0.1l-29.8,23.1c-17-6.2-34.7-9.5-52.3-9.9l-19.3-32.4
						c-0.7-1.1-2-1.7-3.3-1.4l-44.3,9.2c-1.3,0.3-2.3,1.3-2.4,2.6l-4.8,37.4c-16,7.4-30.9,17.4-44,29.9l-36.5-9.3
						c-1.3-0.3-2.6,0.2-3.4,1.3l-24.8,37.8c-0.7,1.1-0.7,2.5,0.1,3.6l23.1,29.8c-6.2,17-9.5,34.7-9.9,52.3l-32.4,19.3
						c-1.1,0.7-1.7,2-1.4,3.3l9.2,44.3c0.3,1.3,1.3,2.3,2.6,2.4l37.4,4.8c7.4,16,17.4,30.9,29.9,44l-9.3,36.5
						c-0.3,1.3,0.2,2.6,1.3,3.4l37.8,24.8c1.1,0.7,2.5,0.7,3.6-0.1l29.8-23.1c17,6.2,34.7,9.5,52.3,9.9l19.3,32.4
						c0.7,1.1,2,1.7,3.3,1.4l44.3-9.2c1.3-0.3,2.3-1.3,2.4-2.6l4.8-37.4c16-7.4,30.9-17.4,44-29.9l36.5,9.3c1.3,0.3,2.6-0.2,3.4-1.3
						l24.8-37.8c0.7-1.1,0.7-2.5-0.1-3.6l-23.1-29.8c6.2-17,9.5-34.7,9.9-52.3l32.4-19.3c1.1-0.7,1.7-2,1.4-3.3L1336.7,395.2z"/>
					<g>
						<path class="st2" d="M1178.2,491.9c-9.1,8.4-20.9,12.7-33.3,12.2c-12.3-0.5-23.8-5.8-32.1-14.9c-17.3-18.8-16-48.1,2.8-65.4
							c18.8-17.3,48.1-16,65.4,2.8c8.4,9.1,12.7,20.9,12.2,33.3c-0.4,10-4,19.5-10.2,27.1C1181.4,488.7,1179.9,490.3,1178.2,491.9z
							 M1121.8,480.9c6.2,6.7,14.5,10.6,23.6,11c9.1,0.4,17.8-2.8,24.5-8.9l0,0c6.7-6.2,10.6-14.5,11-23.6
							c0.4-9.1-2.8-17.8-8.9-24.5c-12.7-13.8-34.3-14.7-48.1-2c-1.2,1.1-2.4,2.4-3.4,3.6C1109.9,449.3,1110.2,468.3,1121.8,480.9z"
							/>
					</g>
					<path class="st2" d="M1235.4,530.6c2.4-3,4.7-6.2,6.9-9.5c4.3-6.6,7.9-13.6,10.8-20.8c0.1-0.3,0.3-0.7,0.4-1
						c1-2.5,0.2-5.3-1.8-7c-0.5-0.4-1-0.7-1.7-1c-3.2-1.2-6.7,0.4-7.9,3.5c-2.6,6.8-6,13.4-10,19.5l0,0c-0.2,0.3-0.4,0.7-0.7,1
						c-9.7,14.4-22.5,25.9-37.5,33.7c-8.1,4.3-16.9,7.4-26.1,9.4c-0.1,0-0.1,0-0.2,0c-0.2,0-0.5,0.1-0.7,0.1
						c-26.9,5.6-54.5,0.4-77.5-14.7c-3-2-5.8-4-8.6-6.3c-18.4-14.9-30.9-35.5-35.8-58.9c-5.6-26.9-0.4-54.5,14.7-77.5
						c15.1-23,38.2-38.8,65.2-44.4c26.9-5.6,54.5-0.4,77.5,14.7c2.9,1.9,5.7,4,8.5,6.2c11.7,9.5,21.2,21.5,27.8,35
						c0.4,0.8,1,1.5,1.7,2.1c1.8,1.4,4.3,1.8,6.5,0.8c3-1.5,4.3-5.1,2.8-8.2c-7.4-15.2-18-28.6-31.1-39.2c-3-2.5-6.2-4.8-9.5-6.9
						c-25.8-16.9-56.5-22.7-86.7-16.5c-30.1,6.3-56,23.9-72.9,49.6c-16.9,25.7-22.7,56.5-16.5,86.7c5.5,26.2,19.5,49.3,40.1,65.9
						c3,2.5,6.2,4.8,9.6,7C1132.6,587,1198.6,575.9,1235.4,530.6z"/>
				</g>
			</g>
		</g>
		<g>
			
				<linearGradient id="SVGID_7_" gradientUnits="userSpaceOnUse" x1="14586.2773" y1="3296.395" x2="13955.1182" y2="3982.9199" gradientTransform="matrix(1 9.500000e-03 -9.500000e-03 1 -13735.6787 -63.4747)">
				<stop  offset="0" style="stop-color:#09005D"/>
				<stop  offset="1" style="stop-color:#1A0F91"/>
			</linearGradient>
			<path class="st11" d="M619.3,3420.7c0,0-6.9,36.9-10.4,73.5c-1.4,14.3,9.5,26.8,23.9,27.6c48.8,2.5,153.1,7.4,190.5,6.1
				c5.6-0.2,9.4-5.9,7.3-11.2c-1.7-4.4-5-8-9.3-10l-171.6-80.9L619.3,3420.7z"/>
			
				<linearGradient id="SVGID_8_" gradientUnits="userSpaceOnUse" x1="14381.4121" y1="3347.3779" x2="14437.4756" y2="3347.3779" gradientTransform="matrix(1 9.500000e-03 -9.500000e-03 1 -13735.6787 -63.4747)">
				<stop  offset="0" style="stop-color:#FEBBBA"/>
				<stop  offset="1" style="stop-color:#FF928E"/>
			</linearGradient>
			<path class="st12" d="M614.1,3398.9l4.8,44.3c0,0,30.1,14.3,50.8-1.3l-12-49.4L614.1,3398.9z"/>
			
				<linearGradient id="SVGID_9_" gradientUnits="userSpaceOnUse" x1="14636.0088" y1="2519.9573" x2="14098.916" y2="3247.9167" gradientTransform="matrix(1 9.500000e-03 -9.500000e-03 1 -13735.6787 -63.4747)">
				<stop  offset="0" style="stop-color:#09005D"/>
				<stop  offset="1" style="stop-color:#1A0F91"/>
			</linearGradient>
			<path class="st13" d="M626,2566.8c-2.4,11.5-17.7,576.7,40.3,830.6c0.9,4.1-1.2,8.4-5.1,10c-9.3,3.7-27.5,9-49.3,9.5
				c-6.7,0.2-12.7-4.3-14.6-10.8c-16.7-58.9-96.7-354.2-104.8-635.6c-9.1-314.4,0.1-10.7,0.1-10.7l8.9-194.2L626,2566.8z"/>
			
				<linearGradient id="SVGID_10_" gradientUnits="userSpaceOnUse" x1="14444.6865" y1="3166.2009" x2="13813.501" y2="3852.7542" gradientTransform="matrix(1 9.500000e-03 -9.500000e-03 1 -13735.6787 -63.4747)">
				<stop  offset="0" style="stop-color:#09005D"/>
				<stop  offset="1" style="stop-color:#1A0F91"/>
			</linearGradient>
			<path class="st14" d="M420.8,3438.1c0,0-10.6,18.6-21.1,68.1c-1.9,8.9,4.3,17.6,13.4,18.6c16.1,1.7,40.9,4,60.7,4.1
				c9.2,0,16.4-7.9,15.4-17c-2-18.1-8.6-47.9-29.6-71.3L420.8,3438.1z"/>
			
				<linearGradient id="SVGID_11_" gradientUnits="userSpaceOnUse" x1="14179.3555" y1="3344.4949" x2="14227.7598" y2="3344.4949" gradientTransform="matrix(1 9.500000e-03 -9.500000e-03 1 -13735.6787 -63.4747)">
				<stop  offset="0" style="stop-color:#FEBBBA"/>
				<stop  offset="1" style="stop-color:#FF928E"/>
			</linearGradient>
			<path class="st15" d="M412.2,3381.1l11.6,67.1c0,0,12,9.1,36.1,2.8l-5.2-72.1L412.2,3381.1z"/>
			
				<linearGradient id="SVGID_12_" gradientUnits="userSpaceOnUse" x1="14540.2842" y1="2449.3325" x2="14003.1973" y2="3177.2842" gradientTransform="matrix(1 9.500000e-03 -9.500000e-03 1 -13735.6787 -63.4747)">
				<stop  offset="0" style="stop-color:#09005D"/>
				<stop  offset="1" style="stop-color:#1A0F91"/>
			</linearGradient>
			<path class="st16" d="M386.7,2581.9c-52.3,297.8,3.7,737.2,23.1,823.3c1.2,5.3,5.4,9.3,10.7,10.3c9,1.6,23.9,3,38.7-1.2
				c5.1-1.4,8.7-6,8.9-11.2c3.4-69.4,2.6-495.8,50.2-663.9c2.4-8.5,7.7-15.9,15-21l90-62.7l7.8-102.6L386.7,2581.9z"/>
			<g>
				
					<linearGradient id="SVGID_13_" gradientUnits="userSpaceOnUse" x1="15111.1807" y1="-10210.1602" x2="14539.1895" y2="-9787.208" gradientTransform="matrix(-1 0 0 1 -1192.0675 0)">
					<stop  offset="0" style="stop-color:#FF928E"/>
					<stop  offset="1" style="stop-color:#FE7062"/>
				</linearGradient>
				<path class="st17" d="M707,2019.8c-148.1-3.9-311.9,35.9-311.9,35.9c-46.6,257.2-13,554.6-13,554.6
					c114.4,31.2,244.2-16.1,244.2-16.1c20.1-107.5,111.9-409.6,111.9-409.6c72.4-8.3,132.3-28.6,181.6-55.7
					c-37-43.8-54.2-99.2-61.5-131.9C805.7,2012.8,752.7,2021,707,2019.8z"/>
				
					<linearGradient id="SVGID_14_" gradientUnits="userSpaceOnUse" x1="14612.1758" y1="1884.7296" x2="14898.6084" y2="1884.7296" gradientTransform="matrix(1 9.500000e-03 -9.500000e-03 1 -13735.6787 -63.4747)">
					<stop  offset="0" style="stop-color:#FEBBBA"/>
					<stop  offset="1" style="stop-color:#FF928E"/>
				</linearGradient>
				<path class="st18" d="M1146.5,1805.8c-14.4-17.7-32.9-9.6-32.9-9.6C1091,1888.1,976,1961.6,858.2,1997
					c7.4,32.7,24.5,88.1,61.5,131.9C1115.6,2021.2,1146.5,1805.8,1146.5,1805.8z"/>
			</g>
			<g>
				
					<linearGradient id="SVGID_15_" gradientUnits="userSpaceOnUse" x1="-4388.0693" y1="1835.7913" x2="-4195.8706" y2="2273.0869" gradientTransform="matrix(-1 -9.500000e-03 -9.500000e-03 1 -3288.9529 36.7017)">
					<stop  offset="0" style="stop-color:#FEBBBA"/>
					<stop  offset="1" style="stop-color:#FF928E"/>
				</linearGradient>
				<path class="st19" d="M1142.9,1810.2c1.5,4.9-16.2,12.1-26.4-7.8c-0.3-9.5-5.7-50.2,0.1-57.9c30.6-40.9,89.6-91.9,89.6-91.9
					c9.8,9.9,1.6,19.4,1.6,19.4l-28.7,29.3c5.8,10.8,13,19.9,16.3,32.9c2.5,9.9,0.8,20.3-4.2,29.2c-5.1,8.9-12,20.5-18.5,29.6
					C1160.3,1810.3,1142.9,1810.2,1142.9,1810.2z"/>
				
					<linearGradient id="SVGID_16_" gradientUnits="userSpaceOnUse" x1="14897.2354" y1="1691.0886" x2="14977.4336" y2="1567.7842" gradientTransform="matrix(1 9.500000e-03 -9.500000e-03 1 -13735.6787 -63.4747)">
					<stop  offset="0" style="stop-color:#FEBBBA"/>
					<stop  offset="1" style="stop-color:#FF928E"/>
				</linearGradient>
				<path class="st20" d="M1166.5,1720.4l-26.1,21.7l-8.3,21.8l22.8,25.8c0,0,8.2-43.3,14-52.6
					C1174.8,1727.7,1171.8,1723.2,1166.5,1720.4z"/>
			</g>
			
				<linearGradient id="SVGID_17_" gradientUnits="userSpaceOnUse" x1="15151.6123" y1="-10155.4873" x2="14579.6221" y2="-9732.5361" gradientTransform="matrix(-1 0 0 1 -1192.0675 0)">
				<stop  offset="0" style="stop-color:#FF928E"/>
				<stop  offset="1" style="stop-color:#FE7062"/>
			</linearGradient>
			<path class="st21" d="M450.5,2199.6l-55.4-143.9c0,0-139.2,92.7-163.1,211.6c26.1,2.2,73.6,9.4,119.9,33.4
				C362.7,2244.5,450.5,2199.6,450.5,2199.6z"/>
			
				<linearGradient id="SVGID_18_" gradientUnits="userSpaceOnUse" x1="13985.4053" y1="2290.4146" x2="14347.876" y2="2290.4146" gradientTransform="matrix(1 9.500000e-03 -9.500000e-03 1 -13735.6787 -63.4747)">
				<stop  offset="0" style="stop-color:#FEBBBA"/>
				<stop  offset="1" style="stop-color:#FF928E"/>
			</linearGradient>
			<path class="st22" d="M570.1,2335.7c0,0-156.1,86.3-207.8,10.8c-10.7-15.7-13.2-31.2-10.4-45.9c-46.3-24-93.8-31.2-119.9-33.4
				c-7.2,35.9-3.9,74.1,16.8,112.9c90.2,168.8,341.5-6,341.5-6L570.1,2335.7z"/>
			<linearGradient id="SVGID_19_" gradientUnits="userSpaceOnUse" x1="494.4521" y1="2159.6448" x2="631.4076" y2="1893.7897">
				<stop  offset="0" style="stop-color:#FEBBBA"/>
				<stop  offset="1" style="stop-color:#FF928E"/>
			</linearGradient>
			<path class="st23" d="M558.1,1898.1l-48.4,135.8c-0.8,2.2,0.1,4.8,2.2,5.9c12.8,7.2,58.9,28.2,115-6.6c5.8-3.6,9.9-9.6,10.8-16.4
				L654,1899L558.1,1898.1z"/>
			<g>
				
					<linearGradient id="SVGID_20_" gradientUnits="userSpaceOnUse" x1="5208.2632" y1="8154.7603" x2="5154.7085" y2="7978.124" gradientTransform="matrix(0.7523 -0.6588 0.6588 0.7523 -8602.2764 -818.1582)">
					<stop  offset="0" style="stop-color:#FEBBBA"/>
					<stop  offset="1" style="stop-color:#FF928E"/>
				</linearGradient>
				<path class="st24" d="M661.9,1772.9c0,0,50.8,97.9,43.8,137.2c-7,39.3-71.1,35.8-126.8,3.4l-38.1-105.5L661.9,1772.9z"/>
				
					<linearGradient id="SVGID_21_" gradientUnits="userSpaceOnUse" x1="5159.9502" y1="7846.9976" x2="5204.7476" y2="8102.5103" gradientTransform="matrix(0.7523 -0.6588 0.6588 0.7523 -8602.2764 -818.1582)">
					<stop  offset="0" style="stop-color:#09005D"/>
					<stop  offset="1" style="stop-color:#1A0F91"/>
				</linearGradient>
				<path class="st25" d="M581.8,1861.8c2.3-1,3.2-3.8,1.8-5.9c-4.1-6.4-11.7-19.4-14.1-30.7c0,0-9.2-6,23.8-13.6
					c33.1-7.6,82.3-19.4,93-47.3c10.3-27.3-15.5-96.3-58.3-41.9c-1.6,2.1-4.8,2.1-6.4,0c-6.8-9.1-24.9-28-50.3-16.9
					c-23.8,10.4-26.6,27.7-26.3,36.4c0.1,2.6-2.2,4.5-4.8,4c-11.9-2.4-40.6-4.6-54.3,24.7c-11.3,24.1-4.2,37.9,2.2,44.7
					c2.1,2.2,1.1,5.8-1.8,6.6c-7.9,2.3-18.1,8.9-17.3,27.3c1.2,25.5,29.6,23.5,37.8,22.4c1.3-0.2,2.7,0.3,3.6,1.3
					c6.9,7.8,37.9,40.7,71.7,45c2.9,0.4,5.2-2.5,4.3-5.3l-14.3-42.8c-0.7-2,0.3-4.1,2.2-5L581.8,1861.8z"/>
				
					<linearGradient id="SVGID_22_" gradientUnits="userSpaceOnUse" x1="5153.5186" y1="8153.936" x2="5105.334" y2="7995.0132" gradientTransform="matrix(0.7523 -0.6588 0.6588 0.7523 -8602.2764 -818.1582)">
					<stop  offset="0" style="stop-color:#FEBBBA"/>
					<stop  offset="1" style="stop-color:#FF928E"/>
				</linearGradient>
				<path class="st26" d="M587.7,1867.9c0,0-36.6-25.6-39.5-4.4c-2.9,21.3,32.9,31.2,50.7,23.4L587.7,1867.9z"/>
			</g>
			<g>
				<g>
					
						<linearGradient id="SVGID_23_" gradientUnits="userSpaceOnUse" x1="14155.0234" y1="2129.4861" x2="14355.0342" y2="2962.8672" gradientTransform="matrix(1 0 0 1 -13467.3896 0)">
						<stop  offset="0" style="stop-color:#09005D"/>
						<stop  offset="1" style="stop-color:#1A0F91"/>
					</linearGradient>
					<path class="st27" d="M538.2,2472.1l85.1-297c1-3.4,3.8-5.8,7.3-6.2c15.4-1.8,60.1-6.8,111.6-11.2
						c62.1-5.3,134.2-9.5,177.3-5.9c6.1,0.5,9.8,7,7.1,12.5c-24.5,49.6-125.3,251.3-175.8,317.4c-1.7,2.2-4.3,3.5-7,3.4l-197.4-1.8
						C540.8,2483.1,536.7,2477.6,538.2,2472.1z"/>
					
						<linearGradient id="SVGID_24_" gradientUnits="userSpaceOnUse" x1="14017.9697" y1="2349.9597" x2="14131.291" y2="2349.9597" gradientTransform="matrix(1 0 0 1 -13467.3896 0)">
						<stop  offset="0" style="stop-color:#FEBBBA"/>
						<stop  offset="1" style="stop-color:#FF928E"/>
					</linearGradient>
					<path class="st28" d="M558.8,2400.3c0,0-11.8-48.7-7.1-66c4.8-17.3,14-39.5,44.9-34.6c30.9,4.9,67.3,17.9,67.3,17.9
						s-1.8,22.5-25.3,15.3l14.5,11.3c0,0-2.1,18-21.9,8.4l13.5,14.9c0,0-8.5,14.8-23.1,5.3C607.1,2363.3,600.1,2406.2,558.8,2400.3z
						"/>
				</g>
				<path class="st9" d="M736.6,2246.3c0,13.8,11.2,25,25,25c13.8,0,25-11.2,25-25c0-13.8-11.2-25-25-25
					C747.8,2221.3,736.6,2232.5,736.6,2246.3z"/>
				<path class="st2" d="M632.9,2262.7l17.3-58.7c2.1-7.2,7.9-12.6,15.1-14.1c54.3-11.3,202.8-13.7,204.3-13.7l-0.1-6.6
					c-6.1,0.1-150.7,2.4-205.6,13.9c-9.6,2-17.3,9.2-20.1,18.8l-17.3,58.7L632.9,2262.7z"/>
			</g>
		</g>
		<g>
			<g>
				
					<linearGradient id="SVGID_25_" gradientUnits="userSpaceOnUse" x1="5290.7114" y1="1652.0227" x2="4928.271" y2="2097.5923" gradientTransform="matrix(-0.9922 -0.1247 -0.1247 0.9922 8264.5254 715.4178)">
					<stop  offset="0" style="stop-color:#FEBBBA"/>
					<stop  offset="1" style="stop-color:#FF928E"/>
				</linearGradient>
				<path class="st29" d="M2843.6,1821c2.4-4.5,9-3.8,10.4,1.1c5,18.2,17.3,49.8,42.9,61.1c1.3,0.6,2.5,1.1,3.7,1.7
					c1.2-3.5,1.2-7.5-1.6-11.8c-8-12.2,6.4-28.8,6.4-28.8s1,14.6,12.1,23.9c9.6,7.9,14.2,25.6,7.6,40.1
					c-13.9,53.9-34.6,125.1,46.2,177.1c80.9,52,194.8-98.2,194.8-98.2l-56.5,179.2c0,0-87.3,64.4-188.7-26.2
					c-101.5-90.5-34.2-222.3-34.2-222.3S2809.2,1886.7,2843.6,1821z"/>
				
					<linearGradient id="SVGID_26_" gradientUnits="userSpaceOnUse" x1="-4802.502" y1="2285.0425" x2="-5040.1714" y2="2567.45" gradientTransform="matrix(0.9602 0.2794 -0.2794 0.9602 8902.9297 797.6744)">
					<stop  offset="0" style="stop-color:#09005D"/>
					<stop  offset="1" style="stop-color:#1A0F91"/>
				</linearGradient>
				<path class="st30" d="M3180.3,1723.9c0,0-23.4-105.1,97-77.3c0,0,58.4-9.5,61.4,45.6c0,0,37.7,24.8,10.1,72.6
					c0,0,112-43.2,160.7,54.9c48.8,98.1,3.9,152.1-43.1,166.2c0,0,38.1,19.1,20.1,62.3c-18,43.2-109.3,73.6-163.2,21.1
					c0,0-153.4,20.3-150.4-88.1c0,0-71.4-46.1,3.6-135.7C3251.4,1755.9,3180.3,1723.9,3180.3,1723.9z"/>
				<linearGradient id="SVGID_27_" gradientUnits="userSpaceOnUse" x1="3567.0229" y1="1684.3223" x2="3345.4773" y2="2026.7119">
					<stop  offset="0" style="stop-color:#FF928E"/>
					<stop  offset="1" style="stop-color:#FE7062"/>
				</linearGradient>
				<path class="st31" d="M3173.7,1967.5c24.2-7.3,94.6-20.6,161.6,41.2c11.4,10.5,16,26.4,12,41.3c-18,66.3-65.5,262-23.8,346.7
					c0,0-73.4,80.9-153.4,15.7c0,0-35.9-156.5-82.9-225.2c-32.5-47.4,51.8-178.1,73.1-209.7
					C3163.4,1972.7,3168.1,1969.2,3173.7,1967.5z"/>
				
					<linearGradient id="SVGID_28_" gradientUnits="userSpaceOnUse" x1="-5146.6616" y1="2782.9478" x2="-5127.2983" y2="2645.4678" gradientTransform="matrix(0.9602 0.2794 -0.2794 0.9602 8902.9297 797.6744)">
					<stop  offset="0" style="stop-color:#FEBBBA"/>
					<stop  offset="1" style="stop-color:#FF928E"/>
				</linearGradient>
				<path class="st32" d="M3240.5,1835.9c0,0,35.8,101.2,38.5,145.8c0,0-39.5,18-76.8-12.4c0,0-3.9-101.1-9.6-119.2L3240.5,1835.9z"
					/>
				
					<linearGradient id="SVGID_29_" gradientUnits="userSpaceOnUse" x1="-5235.4346" y1="2488.3667" x2="-5054.3818" y2="2696.5288" gradientTransform="matrix(0.9602 0.2794 -0.2794 0.9602 8902.9297 797.6744)">
					<stop  offset="0" style="stop-color:#FEBBBA"/>
					<stop  offset="1" style="stop-color:#FF928E"/>
				</linearGradient>
				<path class="st33" d="M3190.8,1697.9c0,0-93.6,131-37.6,169c55.9,38,122.6-55,122.6-55s21.7-71.7-1-96
					C3252,1691.5,3190.8,1697.9,3190.8,1697.9z"/>
				
					<linearGradient id="SVGID_30_" gradientUnits="userSpaceOnUse" x1="-4916.3335" y1="2189.2461" x2="-5154.0088" y2="2471.6604" gradientTransform="matrix(0.9602 0.2794 -0.2794 0.9602 8902.9297 797.6744)">
					<stop  offset="0" style="stop-color:#09005D"/>
					<stop  offset="1" style="stop-color:#1A0F91"/>
				</linearGradient>
				<path class="st34" d="M3234.1,1666.6c0,0-43,10.2-49,29.6c-6,19.5,61,37.5,79.7,38.4l15.1,78.5c0,0,44.7-73.8,27-116.5
					C3289.2,1654,3234.1,1666.6,3234.1,1666.6z"/>
				
					<linearGradient id="SVGID_31_" gradientUnits="userSpaceOnUse" x1="-5190.2002" y1="2449.0198" x2="-5009.1504" y2="2657.1785" gradientTransform="matrix(0.9602 0.2794 -0.2794 0.9602 8902.9297 797.6744)">
					<stop  offset="0" style="stop-color:#FEBBBA"/>
					<stop  offset="1" style="stop-color:#FF928E"/>
				</linearGradient>
				<path class="st35" d="M3257.5,1802.2c0,0,36.4-42.2,50.9-14.7c14.5,27.5-32.8,48.1-49.2,34.6L3257.5,1802.2z"/>
				
					<linearGradient id="SVGID_32_" gradientUnits="userSpaceOnUse" x1="4470.8472" y1="3593.9707" x2="4902.7983" y2="2831.4836" gradientTransform="matrix(-1 -9.500000e-03 -9.500000e-03 1 8008.4194 56.9446)">
					<stop  offset="0" style="stop-color:#FEBBBA"/>
					<stop  offset="1" style="stop-color:#FF928E"/>
				</linearGradient>
				<path class="st36" d="M3076.6,2741c0.3,7.1-12.2,63.5-19,93.5c-2.7,12.1-0.8,24.8,5.3,35.5l235.1,395.7c2.8,4.8,4.9,10,6.2,15.4
					c4.3,18.6,13.2,64.1,8.6,105.5l-12.2,25.3l52.6-11.9l11.4-141.3l-14.9-9.1c-12.9-7.8-22.9-19.6-28.6-33.5
					c-21.3-51.6-74.1-183.1-87.7-247.2c-15.5-72.8-96.3-132-96.3-132l14.2-33.6L3076.6,2741z"/>
				
					<linearGradient id="SVGID_33_" gradientUnits="userSpaceOnUse" x1="4565.0093" y1="3324.3877" x2="4691.27" y2="3324.3877" gradientTransform="matrix(-1 -9.500000e-03 -9.500000e-03 1 8008.4194 56.9446)">
					<stop  offset="0" style="stop-color:#09005D"/>
					<stop  offset="1" style="stop-color:#1A0F91"/>
				</linearGradient>
				<path class="st37" d="M3411.7,3351.4c0,0-28.4-45-31.8-62.6c-3.3-17.5-12.6-48.5-30.2-39.2c0,0-8.3,85.2-5.4,118.4
					c2.8,33.3-37.6,32.2-37.6,32.2s-11.2,1.6-19.3,9.7c-5.6,5.6-1.6,15.4,6.4,15.9c13.2,0.9,34.3,1.1,56.4-3.2
					c7.7-1.5,13.4-8.1,13.9-15.9l5.8-98l35.8,45.2L3411.7,3351.4z"/>
				
					<linearGradient id="SVGID_34_" gradientUnits="userSpaceOnUse" x1="4960.3545" y1="3029.9016" x2="4314.3535" y2="3236.4719" gradientTransform="matrix(-1 -9.500000e-03 -9.500000e-03 1 8008.4194 56.9446)">
					<stop  offset="0" style="stop-color:#FEBBBA"/>
					<stop  offset="1" style="stop-color:#FF928E"/>
				</linearGradient>
				<path class="st38" d="M3217,2804.1c0,0,8.3,354,9.4,404.3c1.1,50.3-7.9,161.7-58.3,195l21.9,16.2c0,0,27.4-23.3,54.2-68.1
					c30.1-50.4,39.2-59.6,39.2-59.6l-10-20.4c-4.4-8.9-5.7-19.1-3.6-28.8c10.9-52.7,47.2-228,57.1-265.8
					c11.7-44.6,12.5-104.1-28.2-153.9C3258,2773.1,3217,2804.1,3217,2804.1z"/>
				
					<linearGradient id="SVGID_35_" gradientUnits="userSpaceOnUse" x1="4682.0693" y1="3347.1909" x2="4832.5845" y2="3347.1909" gradientTransform="matrix(-1 -9.500000e-03 -9.500000e-03 1 8008.4194 56.9446)">
					<stop  offset="0" style="stop-color:#09005D"/>
					<stop  offset="1" style="stop-color:#1A0F91"/>
				</linearGradient>
				<path class="st39" d="M3263.6,3435.5c1.6,0,2.9-1.1,3.1-2.7c1.7-11.8,8.7-59.1,14.4-71.4c6.5-14,27.9-73.1,0-78.1
					c0,0-69.4,101.5-82.8,115.1c-13.3,13.7-30.2,4.8-30.2,4.8s-13,3.8-22.8,16.4c-4.7,6-0.3,14.7,7.2,14.8l46.8,0.4
					c13.6,0.1,25.8-8.1,30.9-20.7c8.2-20.6,22.4-50.7,38.9-64.1l-8.6,82C3260.3,3433.9,3261.7,3435.5,3263.6,3435.5L3263.6,3435.5z"
					/>
				<linearGradient id="SVGID_36_" gradientUnits="userSpaceOnUse" x1="3743.1372" y1="2233.4521" x2="3380.6074" y2="2511.3918">
					<stop  offset="0" style="stop-color:#09005D"/>
					<stop  offset="1" style="stop-color:#1A0F91"/>
				</linearGradient>
				<path class="st40" d="M3158.9,2374.2c0,0,10.5,33.6-5.7,88.9L3052.8,2814c-1.6,5.5,1.4,11.3,6.8,13.2
					c30,10.8,128.8,41.3,263.7,32c6.8-0.5,12.5-5.3,14-11.9c8.9-40,39.2-176.4,45.4-204.5c23.8-106.8,50.3-222-66.5-291.7
					C3262.4,2374.1,3212.1,2387.7,3158.9,2374.2z"/>
				
					<linearGradient id="SVGID_37_" gradientUnits="userSpaceOnUse" x1="4551.0996" y1="2295.7642" x2="5267.6558" y2="1476.1294" gradientTransform="matrix(-0.9922 -0.1247 -0.1247 0.9922 8264.5254 715.4178)">
					<stop  offset="0" style="stop-color:#FEBBBA"/>
					<stop  offset="1" style="stop-color:#FF928E"/>
				</linearGradient>
				<path class="st41" d="M3344.9,2021.9c0,0,114.3,95,142.7,224.8c28.4,129.8-167,143.6-167,143.6s-26.5-29.6-58-19.1
					c-31.5,10.6-2.4-51.7,34.4-51.5c36.8,0.2,19.8,29.3,71.9,5.7c50.8-23,82.2-94.1-47.4-201.9c-7.5-6.3-13.5-14.2-17.1-23.3
					C3279.2,2036.8,3299.1,1995.3,3344.9,2021.9z"/>
			</g>
			<g>
				<g>
					<g>
						<rect x="2588.9" y="2991.7" class="st42" width="40.8" height="440.9"/>
					</g>
					<g>
						<path class="st42" d="M2787.8,3441.1h-357.1v-23.6c0-1.6,1.3-2.9,2.9-2.9h351.2c1.6,0,2.9,1.3,2.9,2.9V3441.1z"/>
					</g>
					<path class="st42" d="M2855.3,2975.4c0,25.6-21,46.6-46.6,46.6h-384c-25.6,0-46.6-21-46.6-46.6v-42.1c0-25.6,21-46.6,46.6-46.6
						h384c25.6,0,46.6,21,46.6,46.6V2975.4z"/>
				</g>
				<g>
					
						<linearGradient id="SVGID_38_" gradientUnits="userSpaceOnUse" x1="559.2102" y1="3100.1721" x2="487.2445" y2="3241.7043" gradientTransform="matrix(-0.9764 -0.2161 -0.2161 0.9764 3385.2073 288.5267)">
						<stop  offset="0" style="stop-color:#09005D"/>
						<stop  offset="1" style="stop-color:#1A0F91"/>
					</linearGradient>
					<path class="st43" d="M2247.9,3298.7c0,0-131.8,56.8-124.3,116.2c0,0,136.2-26.1,160.6-65.1c24.4-38.9,10.9-61.5,10.9-61.5
						L2247.9,3298.7z"/>
					
						<linearGradient id="SVGID_39_" gradientUnits="userSpaceOnUse" x1="422.3565" y1="3156.4934" x2="494.0497" y2="3156.4934" gradientTransform="matrix(-0.9764 -0.2161 -0.2161 0.9764 3385.2073 288.5267)">
						<stop  offset="0" style="stop-color:#FEBBBA"/>
						<stop  offset="1" style="stop-color:#FF928E"/>
					</linearGradient>
					<path class="st44" d="M2280.1,3233.8l6.7,57.8c1,8.7-3.8,17.3-12.1,20.3c-4.1,1.5-9.6,2.5-16.7,2.6c-10.1,0.1-19-6.6-21.6-16.2
						l-13-46.8L2280.1,3233.8z"/>
					
						<linearGradient id="SVGID_40_" gradientUnits="userSpaceOnUse" x1="323.1378" y1="2966.792" x2="627.8018" y2="2539.7822" gradientTransform="matrix(-0.9764 -0.2161 -0.2161 0.9764 3385.2073 288.5267)">
						<stop  offset="0" style="stop-color:#09005D"/>
						<stop  offset="1" style="stop-color:#1A0F91"/>
					</linearGradient>
					<path class="st45" d="M2568.1,2790.2c0,0-242.4-11.2-363.1,59.1c-120.6,70.3,6.1,408,6.1,408s31.5,6.8,76.9-17.5
						c0,0-64.8-247.2,47.7-290.2c126.5-48.3,257.2-36.6,257.2-36.6l-24.2-115.3L2568.1,2790.2z"/>
					
						<linearGradient id="SVGID_41_" gradientUnits="userSpaceOnUse" x1="517.4509" y1="3243.2683" x2="267.9474" y2="3569.5415" gradientTransform="matrix(-0.9764 -0.2161 -0.2161 0.9764 3385.2073 288.5267)">
						<stop  offset="0" style="stop-color:#09005D"/>
						<stop  offset="1" style="stop-color:#1A0F91"/>
					</linearGradient>
					<path class="st46" d="M2150.1,3388.8c27.6-6,109.3-39.9,121.7-39.5c12.4,0.5,30,19.1,30,19.1s3,10.2-5.8,24.8
						c-21.1,16.4-66.4,46.6-119.2,49.9c-38.8,2.4-62.1-13-75.5-28C2113,3403.7,2131.7,3392.8,2150.1,3388.8z"/>
					
						<linearGradient id="SVGID_42_" gradientUnits="userSpaceOnUse" x1="392.5887" y1="3313.9321" x2="585.3743" y2="3313.9321" gradientTransform="matrix(-0.9764 -0.2161 -0.2161 0.9764 3385.2073 288.5267)">
						<stop  offset="0" style="stop-color:#4F52FF"/>
						<stop  offset="1" style="stop-color:#4042E2"/>
					</linearGradient>
					<path class="st47" d="M2176.8,3443.1c52.8-3.3,98.1-33.5,119.2-49.9c-6,9.9-17.4,21.8-38.9,33.9
						c-53.3,30.1-141.4,25.7-158.9,18.9c-14-5.4-9.7-18.5,3.1-30.9C2114.6,3430.1,2138,3445.5,2176.8,3443.1z"/>
					
						<linearGradient id="SVGID_43_" gradientUnits="userSpaceOnUse" x1="370.5146" y1="3222.6572" x2="437.8025" y2="3222.6572" gradientTransform="matrix(-0.9764 -0.2161 -0.2161 0.9764 3385.2073 288.5267)">
						<stop  offset="0" style="stop-color:#FEBBBA"/>
						<stop  offset="1" style="stop-color:#FF928E"/>
					</linearGradient>
					<path class="st48" d="M2330.8,3338.1c-1.8,6.8-21.1,27.3-32.3,38.8c-5.3,5.4-13,7.8-20.4,6.1c-4.7-1-10-2.6-14.6-5.1
						c-6.9-3.7-9.3-12.5-5.5-19.4l28.2-51.3L2330.8,3338.1z"/>
					
						<linearGradient id="SVGID_44_" gradientUnits="userSpaceOnUse" x1="213.3215" y1="3179.5847" x2="230.114" y2="2608.6431" gradientTransform="matrix(-0.9764 -0.2161 -0.2161 0.9764 3385.2073 288.5267)">
						<stop  offset="0" style="stop-color:#09005D"/>
						<stop  offset="1" style="stop-color:#1A0F91"/>
					</linearGradient>
					<path class="st49" d="M2808.3,2769.9c0,0,21.2,150.1-40,180.8c-61.2,30.7-195.4,50.8-241.6,128.6
						c-46.2,77.9-129.2,230.7-204.8,274.6c0,0-43.1-14-55.8-35.3c0,0,89.7-235.7,127.1-293c32.4-49.6,79.8-121.1,147.1-152
						c19.3-8.9,20.8-29.3,17.4-50.2l-6.2-38.1L2808.3,2769.9z"/>
					<linearGradient id="SVGID_45_" gradientUnits="userSpaceOnUse" x1="2698.926" y1="2262.9897" x2="2052.446" y2="2764.4653">
						<stop  offset="0" style="stop-color:#FF928E"/>
						<stop  offset="1" style="stop-color:#FE7062"/>
					</linearGradient>
					<path class="st50" d="M2241.3,2599.7c85.8,24.5,124.2-216.9,123.8-222.8l131.5,153.8c0,0-78.4,137.9-196.7,152.6
						c-29.9,3.7-55.4-1.5-76.8-11.3C2238.9,2646.2,2242.5,2620.8,2241.3,2599.7z"/>
					
						<linearGradient id="SVGID_46_" gradientUnits="userSpaceOnUse" x1="612.6746" y1="2514.4246" x2="847.394" y2="2514.4246" gradientTransform="matrix(-0.9764 -0.2161 -0.2161 0.9764 3385.2073 288.5267)">
						<stop  offset="0" style="stop-color:#FEBBBA"/>
						<stop  offset="1" style="stop-color:#FF928E"/>
					</linearGradient>
					<path class="st51" d="M2082.4,2520.7c37.4-15.4,69.1,15.3,69.1,15.3c37,37.9,66.4,57.1,89.8,63.7c1.2,21.1-2.4,46.5-18.1,72.3
						c-46.2-21.2-73.2-64-84.3-85.3c-4-7.7-13.4-10.9-21.2-7.2c-7.9,3.8-16.1,9.7-16.6,17.6c-1,15.7-19.6,16.6-19.8,10.8
						c-0.1-5.8,14.4-36.7,14.4-36.7s-43,27.6-59.7,38.1c-16.7,10.5-31-6.9-31-6.9S2045,2536.1,2082.4,2520.7z"/>
					<linearGradient id="SVGID_47_" gradientUnits="userSpaceOnUse" x1="1955.6895" y1="2959.2554" x2="2571.959" y2="2578.6189">
						<stop  offset="0" style="stop-color:#FF928E"/>
						<stop  offset="1" style="stop-color:#FE7062"/>
					</linearGradient>
					<path class="st52" d="M2775.3,2277.6c0,0-115.3-78.6-393.7,63.6c0,0-28.7,36.3-15.2,77.3c13.4,41,178.7,262.7,185.1,366.8
						c0,0,113,66.5,259.7,0.6C2811.2,2785.9,2860.4,2511,2775.3,2277.6z"/>
					
						<linearGradient id="SVGID_48_" gradientUnits="userSpaceOnUse" x1="352.1175" y1="2100.3318" x2="507.8485" y2="2100.3318" gradientTransform="matrix(-0.9764 -0.2161 -0.2161 0.9764 3385.2073 288.5267)">
						<stop  offset="0" style="stop-color:#FEBBBA"/>
						<stop  offset="1" style="stop-color:#FF928E"/>
					</linearGradient>
					<path class="st53" d="M2535.2,2177l45.6,89.3c4.5,8.9,3.6,19.6-2.6,27.4c-12.5,15.7-38.7,36.8-83.4,23.2
						c-13.3-4.1-23.5-14.9-26.7-28.4l-23.6-99.6L2535.2,2177z"/>
					<linearGradient id="SVGID_49_" gradientUnits="userSpaceOnUse" x1="1992.9376" y1="3019.5579" x2="2609.208" y2="2638.9207">
						<stop  offset="0" style="stop-color:#FF928E"/>
						<stop  offset="1" style="stop-color:#FE7062"/>
					</linearGradient>
					<path class="st54" d="M2860.6,2589.3c7.8-54.3-135.6-159.4-135.6-159.4l50.2-152.3c0,0,273.6,195.3,216.1,354.7
						c-8.2,22.9-20.6,39.5-35.6,51.3C2926.8,2624.2,2887.5,2599.5,2860.6,2589.3z"/>
					
						<linearGradient id="SVGID_50_" gradientUnits="userSpaceOnUse" x1="653.2101" y1="2697.7664" x2="134.9268" y2="3598.3899" gradientTransform="matrix(-0.9952 9.780000e-02 9.780000e-02 0.9952 3094.5051 -105.42)">
						<stop  offset="0" style="stop-color:#FEBBBA"/>
						<stop  offset="1" style="stop-color:#FF928E"/>
					</linearGradient>
					<path class="st55" d="M2660.6,2604.3c0,0,162.2,45.3,195.8-4.1c2.3-3.3,3.6-7,4.2-11c26.9,10.2,66.2,34.9,95.2,94.3
						c-77,60.6-225.5-7.3-265.8-27.7c-6.6-3.3-14.3-4-21.4-1.8c-14.3,4.5-39.2,11.4-53.1,10.7c-20.3-1.1-42,72.1-76.5,53.6
						C2539,2718.4,2554.7,2593.3,2660.6,2604.3z"/>
					<g>
						
							<linearGradient id="SVGID_51_" gradientUnits="userSpaceOnUse" x1="579.8638" y1="-109.5415" x2="358.924" y2="182.7438" gradientTransform="matrix(-0.6545 -0.7561 -0.7561 0.6545 2800.0559 2578.439)">
							<stop  offset="0" style="stop-color:#FEBBBA"/>
							<stop  offset="1" style="stop-color:#FF928E"/>
						</linearGradient>
						<path class="st56" d="M2476.9,2031.2c-1.4,1.3-61.5,106.2-92.1,159.7c-9.3,16.3-2.3,37.1,14.9,44.5l13.2,5.7
							c18.1,7.8,57,14.3,72.4,1.9l96.6-102C2581.9,2141,2509.4,2003,2476.9,2031.2z"/>
						
							<linearGradient id="SVGID_52_" gradientUnits="userSpaceOnUse" x1="438.3944" y1="-126.8021" x2="670.9525" y2="-126.8021" gradientTransform="matrix(-0.6545 -0.7561 -0.7561 0.6545 2800.0559 2578.439)">
							<stop  offset="0" style="stop-color:#09005D"/>
							<stop  offset="1" style="stop-color:#1A0F91"/>
						</linearGradient>
						<path class="st57" d="M2609.1,2113.2c11.8-6.7,26.1-20.1,15-44c-11.3-24.2-33.5-26.3-47.9-24.8c-5.8,0.6-11.1-3.1-12.7-8.6
							c-1-3.2-3.3-6-8.4-6.8c-6.9-1.1-11.1-8.1-9.3-14.8c3.4-12.9,2.9-30.4-17.9-42.9c-36.8-22.3-71.1,10.1-80.7,38.2
							c-9.6,28.1,31.7,50,58,54.4c20,3.4,29.8,26.5,33.3,37.4c1.1,3.4,0.6,7.2-1.4,10.2l-29.4,44.6c8.1,10.2,15.2,20.9,22.3,31.8
							c2.6-2.8,5-5.2,6.8-6.9c12.8-11.7,35.4-5.7,44.8-2.4c3.1,1.1,6.4,0.8,9.3-0.7c10.2-5.3,30.7-20,13.9-48
							C2601.2,2124.1,2603.2,2116.5,2609.1,2113.2z"/>
						
							<linearGradient id="SVGID_53_" gradientUnits="userSpaceOnUse" x1="301.9431" y1="91.2845" x2="458.098" y2="-68.9262" gradientTransform="matrix(-0.6545 -0.7561 -0.7561 0.6545 2800.0559 2578.439)">
							<stop  offset="0" style="stop-color:#FEBBBA"/>
							<stop  offset="1" style="stop-color:#FF928E"/>
						</linearGradient>
						<path class="st58" d="M2519.3,2206.9c0,0,18.8-48.3,40.1-45.6c21.3,2.7,37.3,24.7,9.8,47.6
							C2534.9,2237.4,2519.3,2206.9,2519.3,2206.9z"/>
					</g>
				</g>
				<g>
					
						<linearGradient id="SVGID_54_" gradientUnits="userSpaceOnUse" x1="12898.6826" y1="3303.1265" x2="12593.3828" y2="3386.801" gradientTransform="matrix(0.9988 -4.940000e-02 4.940000e-02 0.9988 -10528.5889 -55.0328)">
						<stop  offset="0" style="stop-color:#09005D"/>
						<stop  offset="1" style="stop-color:#1A0F91"/>
					</linearGradient>
					<path class="st59" d="M2453.5,2707.6c-0.3,0-0.6,0-0.9,0l-378.9-0.4c-9.4,0-17-7.6-16.9-17c0-9.4,7.6-17.1,17-16.9l378.9,0.4
						c9.4,0,17,7.6,16.9,17C2469.6,2699.8,2462.5,2707.2,2453.5,2707.6z"/>
					
						<linearGradient id="SVGID_55_" gradientUnits="userSpaceOnUse" x1="12591.7012" y1="2409.7085" x2="12375.0771" y2="2638.6667" gradientTransform="matrix(1 0 0 1 -10487.1201 0)">
						<stop  offset="0" style="stop-color:#09005D"/>
						<stop  offset="1" style="stop-color:#1A0F91"/>
					</linearGradient>
					<path class="st60" d="M1733.1,2363.6h315.6c23.3,0,44.5,13.4,54.4,34.5l145.9,309.3h-392.2c-15,0-28.5-9.2-34-23.1L1709.6,2398
						C1703.1,2381.5,1715.3,2363.6,1733.1,2363.6z"/>
					<path class="st9" d="M1955.4,2522.2c6.8,21.2,1.8,41.9-11.3,46.1c-13.1,4.2-29.2-9.6-36-30.9c-6.8-21.2-1.8-41.9,11.3-46.1
						C1932.4,2487.1,1948.6,2500.9,1955.4,2522.2z"/>
				</g>
				<g>
					<g>
						<path class="st9" d="M1784.2,3520.3c-2.1,0-4.2-0.4-6.3-1.3c-8.1-3.4-11.8-12.4-8.3-20.3l334-751.6
							c3.5-7.8,12.8-11.4,20.9-8.1c8.1,3.4,11.8,12.4,8.3,20.3l-334,751.6C1796.3,3516.8,1790.4,3520.3,1784.2,3520.3z"/>
						<path class="st9" d="M2160.4,3520.3c-6.2,0-12-3.5-14.6-9.3l-334-751.6c-3.5-7.8,0.3-16.9,8.3-20.3c8.1-3.4,17.4,0.2,20.9,8.1
							l334,751.6c3.5,7.8-0.3,16.9-8.3,20.3C2164.7,3519.9,2162.5,3520.3,2160.4,3520.3z"/>
						<path class="st9" d="M2818,3520.3c-2.1,0-4.2-0.4-6.3-1.3c-8.1-3.4-11.8-12.4-8.3-20.3l334-751.6c3.5-7.8,12.8-11.4,20.9-8.1
							c8.1,3.4,11.8,12.4,8.3,20.3l-334,751.6C2830,3516.8,2824.1,3520.3,2818,3520.3z"/>
						<path class="st9" d="M3194.2,3520.3c-6.2,0-12-3.5-14.6-9.3l-334-751.6c-3.5-7.8,0.3-16.9,8.3-20.3c8.1-3.4,17.4,0.2,20.9,8.1
							l334,751.6c3.5,7.8-0.3,16.9-8.3,20.3C3198.4,3519.9,3196.3,3520.3,3194.2,3520.3z"/>
					</g>
					<path class="st9" d="M3233.3,2724c0.9-4.9-0.3-10-3.2-13.9c-2.9-3.9-7.1-6.1-11.6-6.1H1699.3c-5.9,0-11.4,3.4-14.6,8.9
						c-3.2,5.6-3.6,12.6-1.1,18.5l16.5,39.9c3.8,9.1,11.9,15,20.9,15h1487.1c8.4,0,15.5-6.6,17.1-15.8L3233.3,2724z"/>
				</g>
			</g>
		</g>
		<rect class="st0" width="3710" height="3710"/>
	</g>
</g>
</svg>
