<svg id="SvgjsSvg1092" width="288" height="288" xmlns="http://www.w3.org/2000/svg" version="1.1" xmlns:xlink="http://www.w3.org/1999/xlink" xmlns:svgjs="http://svgjs.com/svgjs"><defs id="SvgjsDefs1093"></defs><g id="SvgjsG1094"><svg xmlns="http://www.w3.org/2000/svg" data-name="Layer 1" viewBox="0 0 24 24" width="288" height="288"><path fill="#6384ff" d="M14 11h-1v-1a1 1 0 0 0-2 0v1h-1a1 1 0 0 0 0 2h1v1a1 1 0 0 0 2 0v-1h1a1 1 0 0 0 0-2Z" class="color6563ff svgShape"></path><path fill="#b1ccff" d="M19.63 3.65a1.002 1.002 0 0 0-.835-.203 7.985 7.985 0 0 1-6.223-1.267.999.999 0 0 0-1.144 0 7.98 7.98 0 0 1-6.223 1.267A1 1 0 0 0 4 4.427v7.456a9.019 9.019 0 0 0 3.769 7.324l3.65 2.607a1 1 0 0 0 1.162 0l3.65-2.607A9.017 9.017 0 0 0 20 11.883V4.426a1.001 1.001 0 0 0-.37-.776ZM14 13h-1v1a1 1 0 0 1-2 0v-1h-1a1 1 0 0 1 0-2h1v-1a1 1 0 0 1 2 0v1h1a1 1 0 0 1 0 2Z" class="colorb2b1ff svgShape"></path></svg></g></svg>