<?xml version="1.0" encoding="utf-8"?>
<!-- Generator: Adobe Illustrator 23.0.0, SVG Export Plug-In . SVG Version: 6.00 Build 0)  -->
<svg version="1.1" id="OBJEKTS" xmlns="http://www.w3.org/2000/svg" xmlns:xlink="http://www.w3.org/1999/xlink" x="0px" y="0px"
	 viewBox="0 0 430 429.8" style="enable-background:new 0 0 430 429.8;" xml:space="preserve">
<style type="text/css">
	.st0{opacity:9.000000e-02;fill:#1C2229;enable-background:new    ;}
	.st1{opacity:0.45;}
	.st2{fill:#FFFFFF;}
	.st3{opacity:0.7;}
	.st4{fill:#111314;}
	.st5{fill:#404D5C;}
	.st6{fill:#9FCAFF;}
	.st7{fill:none;stroke:#1959A8;stroke-width:3;stroke-miterlimit:10;}
	.st8{fill:#79B4C9;}
	.st9{fill:none;stroke:#79B4C9;stroke-width:2;stroke-miterlimit:10;}
	.st10{fill:#007CAA;}
	.st11{fill:#4D8BA1;}
	.st12{opacity:0.58;fill:#404D5C;enable-background:new    ;}
	.st13{fill:none;stroke:#004174;stroke-width:4;stroke-miterlimit:10;}
	.st14{fill:none;stroke:#C0C8D1;stroke-width:2;stroke-miterlimit:10;}
	.st15{opacity:0.35;fill:#C0C8D1;enable-background:new    ;}
	.st16{fill:none;stroke:#404D5C;stroke-width:5;stroke-miterlimit:10;}
	.st17{fill:#308BCE;}
	.st18{fill:#005C74;}
	.st19{fill:none;stroke:#404D5C;stroke-width:2;stroke-miterlimit:10;}
	.st20{fill:#004174;}
	.st21{fill:#1974A8;}
	.st22{fill:url(#SVGID_1_);}
	.st23{fill:#FFFFF6;}
	.st24{fill:#020183;}
	.st25{fill:#E0AC9B;}
	.st26{fill:none;stroke:#000000;stroke-width:0.5;stroke-miterlimit:10;}
	.st27{fill:#CC9281;}
	.st28{fill:#13285E;}
	.st29{fill:#C9CDD1;}
	.st30{fill:#6498B0;}
	.st31{fill:#4A92C2;}
	.st32{fill:#FBFFFA;}
	.st33{fill:#0A0A0A;}
	.st34{fill:#110809;}
</style>
<path class="st0" d="M331.7,346.6H74.1c-1.9,0-3.3-1.4-3.3-3.3v-5.5c0-1.9,1.4-3.3,3.3-3.3h257.6c1.9,0,3.3,1.4,3.3,3.3v5.5
	C335,345.1,333.5,346.6,331.7,346.6z"/>
<path class="st0" d="M219.4,353.9c-0.2,1.2-1.3,2.3-3,2.7c-6.6,1.7-13,1-19.6,1c-11.2,0-22.5,0-33.6,0c-17.2,0-34.8,1.3-51.9-0.1
	c-1.8-0.1-3.6-0.9-4.4-2.6c-0.1-0.4-0.4-0.6-0.2-1.1c0-0.9,0.8-1.5,1.4-1.9c3.3-2.1,7.2-1,10.8-1c4.4,0,8.7,0,13.1,0
	c8.7,0,17.5,0,26.3,0c10.6,0,21.1-0.2,31.7-0.4c5.4,0,10.7-0.1,16.1,0c3.5,0,7.8-1,11.2,0.4C218.9,351.7,219.6,352.7,219.4,353.9z"
	/>
<g class="st1">
	<path class="st2" d="M286,58.8c-4.2,0-7.7-3.7-7.7-8.2c0-4.6,3.3-8.2,7.7-8.2c0.2,0,0.5,0.1,0.8,0.1c-0.5-3.2-1.3-6.3-2.3-9.3
		c-0.2,0.2-0.4,0.4-0.6,0.5c-3.6,2.3-8.3,0.9-10.4-3.1s-0.9-9,2.8-11.3c0.2-0.1,0.5-0.2,0.8-0.4c-1.9-2.6-4.1-4.8-6.3-6.9
		c-0.1,0.4-0.2,0.6-0.4,0.9c-2.1,4-6.8,5.3-10.4,3.1c-3.6-2.3-4.9-7.3-2.8-11.3c0.1-0.4,0.4-0.5,0.5-0.8C254.9,2.9,252,2,249,1.4
		c0,0.4,0.1,0.8,0.1,1.1c0,4.6-3.3,8.2-7.7,8.2s-7.7-3.7-7.7-8.2c0-0.4,0.1-0.8,0.1-1.1c-3.1,0.5-6,1.4-8.9,2.6
		c0.2,0.4,0.4,0.6,0.6,1c2.1,4,0.9,9-2.8,11.3c-3.6,2.3-8.3,0.9-10.4-3.1c-0.2-0.4-0.4-0.8-0.4-1.1c-2.4,2.1-4.6,4.5-6.4,7
		c0.4,0.1,0.8,0.4,1.1,0.5c3.6,2.3,4.9,7.3,2.8,11.3c-2.1,4-6.8,5.3-10.4,3.1c-0.4-0.2-0.6-0.4-1-0.8c-1.1,3.1-1.9,6.3-2.4,9.6
		c0.4-0.1,0.9-0.1,1.2-0.1c4.2,0,7.7,3.7,7.7,8.2c0,4.6-3.3,8.2-7.7,8.2c-0.4,0-0.8-0.1-1.2-0.1c0.5,3.3,1.3,6.6,2.4,9.6
		c0.4-0.4,0.6-0.5,1-0.8c3.6-2.3,8.3-0.9,10.4,3.1c2.1,4,0.9,9-2.8,11.3c-0.4,0.2-0.6,0.4-1.1,0.5c1.9,2.6,4.1,4.9,6.6,7
		c0.1-0.4,0.4-0.8,0.4-1.2c2.1-4,6.8-5.3,10.4-3.1c3.6,2.3,4.9,7.3,2.8,11.3c-0.2,0.4-0.4,0.6-0.6,1c2.8,1.1,5.8,1.9,8.9,2.6
		c0-0.4-0.1-0.8-0.1-1.2c0-4.6,3.3-8.2,7.7-8.2s7.7,3.7,7.7,8.2c0,0.4-0.1,0.6-0.1,1c3.1-0.5,5.9-1.4,8.7-2.6
		c-0.2-0.4-0.4-0.5-0.5-0.9c-2.1-4-0.9-9,2.8-11.3c3.6-2.3,8.3-0.9,10.4,3.1c0.1,0.2,0.2,0.5,0.4,0.9c2.3-2.1,4.4-4.4,6.3-6.9
		c-0.2-0.1-0.5-0.2-0.8-0.4c-3.6-2.3-4.9-7.3-2.8-11.3s6.8-5.3,10.4-3.1c0.2,0.1,0.4,0.4,0.6,0.5c1-3,1.8-6.2,2.3-9.3
		C286.5,58.8,286.3,58.8,286,58.8z M241.1,84.3C224,84.3,210,69.3,210,50.8c0-18.6,13.9-33.6,31.1-33.6s31.1,15.1,31.1,33.6
		C272.2,69.3,258.3,84.3,241.1,84.3z"/>
</g>
<g class="st3">
	<path class="st2" d="M344.2,106c-2.8-0.5-4.7-3.5-4.1-6.6s3.3-5.1,6.2-4.5c0.2,0,0.4,0.1,0.5,0.1c0-2.2-0.1-4.5-0.4-6.6
		c-0.2,0.1-0.4,0.2-0.5,0.2c-2.7,1.1-5.7-0.5-6.7-3.3c-1-3,0.4-6.2,3.2-7.2c0.2-0.1,0.4-0.1,0.5-0.1c-1-1.9-2.2-3.7-3.5-5.5
		c-0.1,0.2-0.2,0.4-0.4,0.5c-1.9,2.4-5.1,2.6-7.3,0.6c-2.2-2.1-2.4-5.6-0.5-8c0.1-0.2,0.4-0.4,0.4-0.4c-1.8-1.1-3.6-2.1-5.6-2.8
		c0,0.2,0,0.5-0.1,0.8c-0.5,3.1-3.3,5.1-6.2,4.5c-2.8-0.5-4.7-3.5-4.1-6.6c0-0.2,0.1-0.4,0.2-0.8c-2.1,0-4.1,0.1-6.3,0.5
		c0.1,0.2,0.2,0.4,0.4,0.8c1,3-0.4,6.2-3.2,7.2c-2.7,1.1-5.7-0.5-6.7-3.3c-0.1-0.2-0.1-0.5-0.2-0.8c-1.9,1.1-3.6,2.4-5.1,3.8
		c0.2,0.1,0.4,0.4,0.6,0.5c2.2,2.1,2.4,5.6,0.5,8c-1.9,2.5-5.1,2.6-7.3,0.6c-0.2-0.2-0.4-0.4-0.5-0.6c-1.1,1.9-1.9,4-2.7,6.2
		c0.4,0,0.5,0,0.9,0.1c2.8,0.5,4.7,3.5,4.1,6.6s-3.3,5.1-6.2,4.5c-0.4-0.1-0.5-0.1-0.8-0.2c0,2.3,0.1,4.6,0.5,6.8
		c0.2-0.1,0.5-0.4,0.8-0.4c2.7-1.1,5.7,0.5,6.7,3.3c1,3-0.4,6.2-3.2,7.2c-0.2,0.1-0.5,0.1-0.8,0.2c1,1.9,2.2,3.8,3.6,5.6
		c0.1-0.2,0.4-0.4,0.4-0.8c1.9-2.4,5.1-2.6,7.3-0.6c2.2,2.1,2.4,5.6,0.5,8c-0.2,0.2-0.4,0.4-0.5,0.5c1.8,1.1,3.6,2.1,5.7,2.8
		c0-0.2,0-0.5,0.1-0.8c0.5-3.1,3.3-5.1,6.2-4.5c2.8,0.5,4.7,3.5,4.1,6.6c0,0.2-0.1,0.4-0.2,0.6c2.1,0,4.1-0.2,6.2-0.5
		c-0.1-0.2-0.2-0.4-0.4-0.6c-1-3,0.4-6.2,3.2-7.2c2.7-1.1,5.7,0.5,6.7,3.3c0.1,0.2,0.1,0.4,0.1,0.6c1.8-1.1,3.5-2.4,5-3.8
		c-0.2-0.1-0.4-0.2-0.4-0.4c-2.2-2.1-2.4-5.6-0.5-8c1.9-2.4,5.1-2.6,7.3-0.6c0.1,0.1,0.2,0.4,0.4,0.4c1-1.9,1.9-3.8,2.6-6
		C344.7,106,344.4,106,344.2,106z M311,117.2c-11.6-2.3-19.3-14.4-17.1-26.8c2.2-12.5,13.2-20.8,24.8-18.4
		c11.6,2.3,19.3,14.4,17.1,26.8C333.8,111.1,322.6,119.5,311,117.2z"/>
</g>
<g class="st3">
	<path class="st2" d="M72.9,120.8c-0.5,3.1-3.3,5-6.2,4.5c-2.8-0.6-4.7-3.6-4.1-6.7c0-0.2,0.1-0.4,0.1-0.5c-2.1-0.1-4.1,0.1-6.2,0.4
		c0.1,0.2,0.2,0.4,0.2,0.5c0.9,3-0.5,6.2-3.3,7.1c-2.7,1-5.7-0.5-6.7-3.5c-0.1-0.2-0.1-0.4-0.1-0.5c-1.9,1.1-3.5,2.3-5.1,3.7
		c0.2,0.1,0.4,0.2,0.5,0.4c2.2,2.1,2.4,5.6,0.4,8c-1.9,2.3-5.3,2.6-7.3,0.5c-0.1-0.1-0.4-0.4-0.4-0.5c-1.1,1.9-1.9,3.8-2.7,6
		c0.2,0,0.4,0,0.6,0.1c2.8,0.6,4.7,3.6,4.1,6.7s-3.3,5-6.2,4.5c-0.2,0-0.4-0.1-0.6-0.2c-0.1,2.3,0.1,4.5,0.4,6.8
		c0.2-0.1,0.4-0.2,0.6-0.4c2.7-1,5.7,0.5,6.7,3.5c0.9,3-0.5,6.2-3.3,7.1c-0.2,0.1-0.5,0.1-0.8,0.2c1,1.9,2.2,4,3.5,5.7
		c0.1-0.2,0.4-0.5,0.4-0.8c1.9-2.3,5.3-2.6,7.3-0.5c2.2,2.1,2.4,5.6,0.4,8c-0.2,0.2-0.4,0.4-0.6,0.6c1.8,1.2,3.7,2.2,5.7,3
		c0-0.4,0-0.6,0.1-0.9c0.5-3.1,3.3-5,6.2-4.5c2.8,0.6,4.7,3.6,4.1,6.7c-0.1,0.4-0.1,0.5-0.2,0.9c2.2,0.1,4.2-0.1,6.3-0.4
		c-0.1-0.2-0.2-0.5-0.4-0.9c-0.9-3,0.5-6.2,3.3-7.1s5.7,0.5,6.7,3.5c0.1,0.4,0.1,0.5,0.2,0.9c1.9-1.1,3.6-2.4,5.3-3.8
		c-0.2-0.1-0.4-0.4-0.6-0.5c-2.2-2.1-2.4-5.6-0.4-8c1.9-2.3,5.3-2.6,7.3-0.5c0.2,0.2,0.4,0.4,0.5,0.5c1.1-1.9,1.9-4,2.7-6.2
		c-0.2,0-0.4,0-0.8-0.1c-2.8-0.6-4.7-3.6-4.1-6.7c0.5-3.1,3.3-5,6.2-4.5c0.2,0,0.4,0.1,0.6,0.2c0.1-2.3-0.1-4.5-0.4-6.7
		c-0.2,0.1-0.4,0.2-0.6,0.4c-2.7,1-5.7-0.5-6.7-3.5c-0.9-3,0.5-6.2,3.3-7.1c0.2-0.1,0.4-0.1,0.5-0.1c-1-1.9-2.2-3.8-3.3-5.5
		c-0.1,0.2-0.2,0.4-0.4,0.5c-1.9,2.3-5.3,2.6-7.3,0.5c-2.2-2.1-2.4-5.6-0.4-8c0.1-0.1,0.2-0.2,0.4-0.4c-1.8-1.1-3.6-2.1-5.5-2.8
		C72.9,120.4,72.9,120.5,72.9,120.8z M82.8,156.7c-2.3,12.5-13.6,20.5-25,18.1c-11.5-2.6-19-14.5-16.7-27.1s13.6-20.5,25-18.1
		C77.5,132.1,85.1,144.3,82.8,156.7z"/>
</g>
<g>
	<path class="st4" d="M298.7,198.3H56.9V46.6c0-3.1,2.6-5.6,5.6-5.6H293c3.1,0,5.6,2.6,5.6,5.6L298.7,198.3L298.7,198.3z"/>
	<path class="st5" d="M317.2,204.3H38.4c-0.9,0-1.7-0.8-1.7-1.7v-4.9c0-0.9,0.8-1.7,1.7-1.7h278.9c0.9,0,1.7,0.8,1.7,1.7v4.9
		C318.9,203.5,318.1,204.3,317.2,204.3z"/>
	<path class="st2" d="M293.7,189.4H61.9V51.9c0-3.1,2.6-5.6,5.6-5.6H288c3.1,0,5.6,2.6,5.6,5.6L293.7,189.4L293.7,189.4z"/>
</g>
<path class="st6" d="M109.9,76.1c0,7.7-5.8,13.9-13,13.9s-13-6.3-13-13.9s5.8-13.9,13-13.9C104.1,62.1,109.9,68.4,109.9,76.1z"/>
<polyline class="st7" points="86.7,74.5 96.8,84.2 111.8,62.1 "/>
<g>
	<rect x="126.2" y="67.2" class="st8" width="90.9" height="5.9"/>
	<rect x="126.2" y="79" class="st8" width="52.6" height="5.9"/>
</g>
<path class="st6" d="M109.9,116.3c0,7.7-5.8,13.9-13,13.9s-13-6.3-13-13.9s5.8-13.9,13-13.9C104.1,102.4,109.9,108.7,109.9,116.3z"
	/>
<polyline class="st7" points="86.7,114.7 96.8,124.4 111.8,102.4 "/>
<g>
	<rect x="126.2" y="107.4" class="st8" width="90.9" height="5.9"/>
	<rect x="126.2" y="119.2" class="st8" width="52.6" height="5.9"/>
</g>
<path class="st6" d="M109.9,156.6c0,7.7-5.8,13.9-13,13.9s-13-6.3-13-13.9c0-7.7,5.8-13.9,13-13.9
	C104.1,142.7,109.9,148.9,109.9,156.6z"/>
<polyline class="st7" points="86.7,155 96.8,164.7 111.8,142.7 "/>
<g>
	<rect x="126.2" y="147.7" class="st8" width="90.9" height="5.9"/>
	<rect x="126.2" y="159.5" class="st8" width="52.6" height="5.9"/>
</g>
<rect x="237" y="65.7" class="st9" width="27.1" height="20.4"/>
<rect x="237" y="106.5" class="st8" width="27.1" height="20.4"/>
<rect x="237" y="147.3" class="st9" width="27.1" height="20.4"/>
<path class="st10" d="M272.5,244.2h-241c-3.8-12.1-3.8-25.8,0-41.3h241V244.2z"/>
<path class="st8" d="M303.7,296.5H62.8c-6.3-18.4-5.8-36.2,0-53.4h240.9V296.5z"/>
<path class="st11" d="M274.3,279.1H121.5c-1.8,0-3.2-1.4-3.2-3.2v-16.4c0-1.8,1.4-3.2,3.2-3.2h152.9c1.8,0,3.2,1.4,3.2,3.2v16.4
	C277.5,277.6,276,279.1,274.3,279.1z"/>
<path class="st12" d="M81,287.8h-3.3c-1.7,0-2.8-1.3-2.8-2.8v-28c0-1.7,1.3-2.8,2.8-2.8H81c1.7,0,2.8,1.3,2.8,2.8v28
	C83.9,286.5,82.6,287.8,81,287.8z"/>
<path class="st5" d="M324,337.8H82.9c-5.1-12.7-5.5-26.8,0-42.5h241L324,337.8L324,337.8z"/>
<path class="st0" d="M355.2,336.8c-7,15.9-33.4,32.2-57.4,39.2l-31.3-233.1c23.2-7.7,51.5-20.7,56.5-34.9L355.2,336.8z"/>
<path class="st0" d="M413.7,297.6c-7,15.9-34.4,32.2-58.5,39.2L322.9,108c19.6-3.3,40.3-12.7,54.5-30.5L413.7,297.6z"/>
<path class="st10" d="M392.3,308.5l-100.6,62.6c-1.8,1.1-4.1-0.1-4.2-2.3L261.3,146c-0.5-4.7,1.7-9.3,5.6-11.5L370.2,77l27.3,220.1
	C398.1,301.7,396,306.2,392.3,308.5z"/>
<path class="st13" d="M287.7,372.7l-28.4-228.2c-0.5-4.1,1.5-8.3,5-10.1l56.6-29.5l44.3-25.5c2.4-1.4,5.5,0.2,5.8,3.3l27.5,219.4"/>
<path class="st2" d="M356.1,333.5c-7,15.9-33.4,32.2-57.4,39.2l-31.3-233.1c23.2-7.7,51.5-20.7,56.5-34.9L356.1,333.5z"/>
<path class="st2" d="M414.6,294.3c-7,15.9-34.4,32.2-58.5,39.2l-32.2-228.7c19.6-3.3,40.3-12.7,54.5-30.5L414.6,294.3z"/>
<path class="st14" d="M324,104.7c0,2.2,32.2,228.7,32.2,228.7"/>
<path class="st15" d="M304.8,170.8c7.8-3.3,14.9-7.8,21.8-13c-1.9-12.5-3.5-21.7-3.6-21.6c-13,9.4-26.3,17.4-46.3,22.9l3.1,19.1
	C287.9,176,296.6,174.4,304.8,170.8z"/>
<path class="st15" d="M328.4,168.9c-0.4-2.8-0.9-5.6-1.3-8.2c-6.3,4.6-12.8,8.6-19.7,11.8c-8.9,4.1-18.2,5.6-27.3,8.3l1,6.6
	C297.8,185.8,316.1,181,328.4,168.9z"/>
<path class="st15" d="M328.8,172c-12.6,11.6-30.7,16.3-47.4,18.1l9.2,58.5c18.2-5.4,37.2-11.7,46.3-22.9
	C337,225.8,332.6,196.9,328.8,172z"/>
<path class="st15" d="M382.3,126c-6.3,5.8-13,10.8-20.7,14.5c-8.3,4-17.2,6.2-26.1,8.5l18.7,122.2c14-1.8,28.2-10.6,39.7-18.4
	c2.7-1.9,5.5-3.8,8.1-5.8C396,209,387.3,155.8,382.3,126z"/>
<path class="st15" d="M357.4,139.9c9.2-3.8,17.2-9.5,24.4-16.4c-2.1-12.3-3.3-20-3.5-19.9c-9.1,9.9-25.2,22.9-45.4,28.4l2.3,15
	C342.7,144.9,350.3,143,357.4,139.9z"/>
<path class="st15" d="M385.5,266.6c5.8-3.5,12.3-6.9,18.1-11.3c-0.4-1.9-0.6-3.8-1-5.8c-3.3,2.6-6.8,4.8-10.3,7.1
	c-11,7.2-24.4,15.2-37.6,16.8l0.8,4.8C365.7,278,377,271.7,385.5,266.6z"/>
<path class="st15" d="M381.4,288.2c8.7-4.4,16.7-10.1,24.9-15.5c-0.8-4.5-1.5-9.5-2.4-15c-5.7,4.1-12.1,7.6-17.7,10.9
	c-8.6,5.1-20,11.5-30.5,11.9l2.6,16.3C366.2,294.4,373.9,291.9,381.4,288.2z"/>
<path class="st15" d="M380.7,292.5c-0.1,0-0.1,0-0.2,0.1c-4.8,2.4-9.8,4.8-14.8,6.8C370.9,297.7,375.9,295.2,380.7,292.5z"/>
<path class="st15" d="M393,287.9c-2.3,1.4-4.6,2.8-7,4.2c-8.5,4.7-17.3,9.6-26.7,11.2l3,19.5c18.2-5.4,38.2-19.4,47.4-30.5
	c0,0-0.8-4.6-1.9-12.2C403.2,283.3,398.2,285.8,393,287.9z"/>
<path class="st15" d="M345.6,298.3c-3.2-22.6-8.1-57.5-8.5-57.4c-13,9.4-24.9,13.9-42.4,19.6l8.5,54.7
	C318.4,312.8,333,308.4,345.6,298.3z"/>
<path class="st15" d="M303.6,317.8l3.2,20c18.2-5.4,32.2-9.5,41.3-20.7c0,0-0.9-6.7-2.2-15.9C333.4,311,318.7,315.5,303.6,317.8z"/>
<path class="st16" d="M185,283.1h-39.8c-4,0-7.2-3.2-7.2-7.2v-11.6c0-4,3.2-7.2,7.2-7.2H185c4,0,7.2,3.2,7.2,7.2V276
	C192.2,279.9,189,283.1,185,283.1z"/>
<path class="st6" d="M208.3,354.3H119c-5.8,0-10.5-4.7-10.5-10.5v-72.1h110.1v72C218.8,349.6,214.1,354.3,208.3,354.3z"/>
<path class="st17" d="M210.7,322.5h-93.9c-6.4,0-11.7-5.3-11.7-11.7v-39.2h117.3v39.2C222.5,317.3,217.2,322.5,210.7,322.5z"/>
<path class="st18" d="M163.6,325.4h-3.2c-1.1,0-1.9-0.9-1.9-1.9v-3.7c0-1.1,0.9-1.9,1.9-1.9h3.2c1.1,0,1.9,0.9,1.9,1.9v3.7
	C165.5,324.5,164.7,325.4,163.6,325.4z"/>
<path class="st19" d="M166.3,328.3h-8.7c-1,0-1.9-0.9-1.9-1.9v-9.8c0-1,0.9-1.9,1.9-1.9h8.7c1,0,1.9,0.9,1.9,1.9v9.8
	C168.2,327.4,167.4,328.3,166.3,328.3z"/>
<rect x="172.7" y="212.6" class="st20" width="83.7" height="17.4"/>
<ellipse class="st20" cx="53.7" cy="223.6" rx="10" ry="10.9"/>
<path class="st0" d="M424.1,363.7c1.1,0.1,2.2,0.2,3.1,0.8c1,0.5,1.9,1.7,1.9,2.8c-0.1,4.5-8.1,4-10.7,4.1
	c-5.3,0.4-10.4,0.5-15.7,0.4c-10.4,0-20.9-0.4-31.3,0.2c-5.4,0.4-10.7,1-15.8-1.2c-0.5-0.2-1.2-0.6-1.4-1.5
	c-0.4-1.4,0.8-2.7,1.7-3.3c4.1-2.7,10.7-2.1,15.3-2.6c5.9-0.5,11.8-0.9,17.7-1c11.7-0.4,23.3,0,35,1
	C424,363.7,424,363.7,424.1,363.7z"/>
<g>
	<g>
		<polygon class="st21" points="422.4,296.7 427.1,294.7 411,252.4 406.5,254.5 		"/>
	</g>
	<g>
		
			<linearGradient id="SVGID_1_" gradientUnits="userSpaceOnUse" x1="-380.4359" y1="313.0029" x2="-375.4129" y2="301.2182" gradientTransform="matrix(-0.9948 -0.1023 -0.1023 0.9948 62.8472 -95.2135)">
			<stop  offset="4.700000e-07" style="stop-color:#E8B47D"/>
			<stop  offset="0.1698" style="stop-color:#E8B47D"/>
			<stop  offset="0.3228" style="stop-color:#E9B883"/>
			<stop  offset="0.52" style="stop-color:#EEC293"/>
			<stop  offset="0.7414" style="stop-color:#F5D4AD"/>
			<stop  offset="0.979" style="stop-color:#FEEDD2"/>
			<stop  offset="0.9911" style="stop-color:#FFEED4"/>
		</linearGradient>
		<polygon class="st22" points="405.8,244.4 411,252.4 406.5,254.5 		"/>
	</g>
	<g>
		<g>
			<path class="st23" d="M425.8,298.7L425.8,298.7c1.2-0.5,1.9-2.1,1.3-3.5l-0.5-1.4l-4.6,1.9l0.5,1.4
				C423.2,298.5,424.6,299.2,425.8,298.7z"/>
		</g>
	</g>
	<g>
		<polygon class="st24" points="406.3,246.6 406.8,246.4 405.6,243.1 405,243.3 		"/>
	</g>
</g>
<path class="st5" d="M417.5,367.7c-0.9,0-1.7,0.1-2.4,0.4c-0.1-0.9-0.2-1.8-0.4-2.7c-0.1-0.5,0-1.9-0.4-2.3
	c-2.3,3.3-6.8,5.4-10.6,4.7c-0.6-0.1-1.4-0.4-1.4-1.2c0-0.5,0.4-1,0.8-1.3c1.5-1.2,3.5-1.8,5-3.1c2.6-2.1,3.2-5.4,2.7-8.6
	c0.9-0.4,1.9-0.4,3-0.6c1-0.2,1.9-0.5,3-0.9c0.5,2.8,1.3,5.7,1.1,8.6C417.6,361.4,417.3,367.6,417.5,367.7z"/>
<path class="st25" d="M352.2,174.4c0.6-1,1.9-1.7,3-1.5c0.1-0.2,0-0.5-0.1-1.1c-0.1-0.5-0.4-1.1-0.4-1.7s-0.1-1.5,0.5-1.9
	c0.1-0.1,0.2-0.1,0.4,0c0.4,0.4,0.5,0.9,0.6,1.4c0.2,0.5,0.4,1.2,0.4,1.9c0.2,1.4,0.5,2.8,0.9,4.1l0.1,0.1c0.4-0.9-0.1-2.4,0.4-3.3
	c0.1-0.1,0.2-0.2,0.4-0.1c0.5,0.2,0.6,1,0.6,1.8c0.2,1.3,0.2,2.7,0.2,4.1c0,0.8-0.2,1.5-0.5,2.3c0.5,1.9,1.2,3.8,1.9,5.6
	c1.9,4.8,4.5,9.5,6.4,14.5c0.9,2.2,5.4,1.5,7.4,1.7c3,0.1,5.9,0.1,8.9-0.1c3.3-0.2,6.9-0.5,10,1c1.5,0.8,3,2.3,2.8,4.1
	c-0.1,1.2-1,2.3-1.9,3c-2.2,1.8-4.9,2.6-7.7,2.7c-1.9,0.1-4-0.1-5.9-0.4c-1.7-0.2-3.2,0.1-4.8,0c-3.6-0.2-7.3-0.9-10.6-2.4
	c-0.9-0.4-1.8-0.9-2.6-1.5c-0.5-0.4-1-1.1-1.3-1.8c-1.9-2.3-3.1-6.3-3.5-8.1c-1.2-4.6-1.9-9.2-2.7-13.7c-0.2-1.1-0.4-2.2-0.8-3.2
	C353,179.9,350.7,176.7,352.2,174.4z"/>
<path class="st25" d="M399.6,178.3c-0.8,1.2-1.4,2.6-1.8,4c-0.5,1.7-1,4-0.2,5.6c0.5,1.2,2.1,1.7,2.4,3.1c0.4,1.5-0.6,3.1-1.2,4.4
	c-0.8,1.9-1.9,3.6-2.6,5.5c-0.1,0.2-0.1,0.4,0,0.5c0.5,1,4.1,3,5,3.3c4.4,1.9,4.9-1.9,5.7-5.6c0.8-3.7,1.9-7.3,3.5-10.7
	c0.8-1.5,1.5-2.7,1.7-4.5s-0.1-3.5-0.6-5.3c-0.4-1.3-2.8-3.7-4.1-4.2c-2.1-0.9-4.8,0.5-6.3,2.1C400.5,177,400,177.6,399.6,178.3z"/>
<g>
	<path class="st25" d="M422.4,255.2c-1,4.6-2.6,8.7-4.2,13.1c-0.4,0.9-0.5,1.9-0.6,3c-0.1,1.1-0.1,2.2-0.4,3.3
		c-0.2,1.1-0.6,2.1-1.5,2.8c-0.1,0.1-0.2,0.1-0.4,0.1c-0.1,0-0.2-0.1-0.4-0.1c-1.3-1.2-2.3-2.8-2.4-4.6c-0.2-2.4,1.1-4.9,1.8-7.2
		c0.4-1.3,0.4-2.6,0.5-4c0.2-2.6,0.4-5.1,0.5-7.8c0.1-2.2,0.4-4.4-0.1-6.6c-0.4-2.4-1.3-4.9-1.9-7.2c-0.8-2.7-1.9-5.4-3.1-8
		c-0.6-1.5-1.2-3.3-1-4.9c0.4-1.7,1.1-2.6,2.2-3.6c0.4-0.4,0.9-0.9,1.4-1c1-0.2,1.9,0.1,2.6,1c0.6,0.8,1.1,1.8,1.4,2.7
		c2.2,5.6,4.9,10.8,6.2,16.7C424.1,247.1,423.4,251.2,422.4,255.2z"/>
</g>
<path class="st10" d="M406.1,221.3c0.4,1.2,1.9,7.7,2.3,11.4c4-1.9,7.8-4,11.6-6c0,0,0.1,0,0.1-0.1c0-0.1-0.1-0.2-0.1-0.4
	c-0.4-1-0.6-1.9-1.1-3c-0.8-2.1-1.4-4.1-2.2-6.3c-1-2.7-1.9-5.6-3.3-8.1c-1.5-2.7-4.2-6.4-7.4-6.9c-0.4-0.1-1-0.1-1.4,0.1
	c-1.2,0.5-1.4,2.3-1.4,3.7C403.3,211.1,404.6,216.3,406.1,221.3z"/>
<path class="st5" d="M371.1,361.4c-0.4,0.4-0.6,0.8-1,1.1c-1.4,1.5-3.3,2.6-5.5,2.8c-0.8,0.1-1.5,0.1-2.1,0.5c-1.7,1.2,0,2.7,1.2,3
	c3,0.5,6.3,0.5,8.6-1.3c1-0.8,1.8-1.9,2.7-2.6c0.8-0.6,1-0.4,1.2,0.5c0,0.4-0.1,4.2-0.4,4.2c0.1,0,2.4-0.1,2.4-0.1
	c-0.1-2.1,0.2-4.1,0.5-6c0.4-1.9,0.4-3.8,0.8-5.8c-0.5-0.1-6.2-1-6.3-0.5C373.2,358.9,372.2,360.3,371.1,361.4z"/>
<path class="st10" d="M412.3,221.1c-1.3,2.2-3,4.2-4.1,6.4c-2.6,4.7-4.6,9.8-6.2,15c-0.8,2.8-0.6,5-0.5,7.8
	c-5,1.4-10.9,1.4-16.1,1.7c-1.1,0-2.1,0.1-3.1-0.4c-3.8-1.5-1-10.5-0.2-13.2c1.5-5.9,3-11.9,1.7-18.2c-0.4-1.9-1.2-4-1.1-6
	c0.1-3.8,2.6-7,5.1-9.8c2.8-3.2,5.8-6.2,10-5.4c4.1,0.8,8.1,1.9,11.5,4.5c3.3,2.6,5.9,6.7,5.6,11
	C414.5,217.2,413.5,219.2,412.3,221.1z"/>
<path class="st5" d="M372.1,333.3c0.9-7.6,1.7-15.1,1.9-22.7c0.5-15-0.2-30.4,2.1-45.2c1-6.3,3.8-23.7,13.1-18.7
	c3.7,1.9,4.2,7.3,4.2,11.8c0,1.5,0,3.1,0,4.6c-0.2,32.5-6.3,64.3-9.2,96.5c0-0.1-14.8-0.9-14.8-1.9
	C370.1,349.6,371.2,341.4,372.1,333.3z"/>
<path d="M414.8,314.2c1.3,6.2,1.9,12.2,2.8,18.2c0.5,3.5,1,7.1,1.1,10.6c0,1.1,0.8,9.2-0.1,9.6c-4,1.9-8.1,3.6-12.2,4.8
	c0-0.5,0-1.1-0.1-1.5c-0.8-17.2-5-35.6-13.3-50.3c-6.3-11.2-5.9-25.8-10.8-37.7c-2.1-4.9-4.9-10-3.7-15.3c0.4-1.2,1-5.6,1.7-6.3
	c1.1-1.4,3.6-0.6,5.5-0.6c4.8,0.2,9.5,0.4,14.4,0.6c0.4,0,0.9,0,1.3,0.4s0.5,0.8,0.8,1.2c1.9,4.7,3.8,9,3.7,14.2
	c0,3-0.4,5.8-0.4,8.7c0,4.8,1.5,10.4,2.6,15.1c1.4,6,3,11.9,4.5,17.8C413.2,307.3,414.1,310.7,414.8,314.2z"/>
<path d="M411.5,172.9c-0.8-0.4-1.5-0.6-2.2-1.1c-1.1-0.9-1.9-2.1-3.3-2.6c-2.8-1.2-5.1,1.7-5.1,4.5c-0.1,3,2.3,5.5,3.2,8.1
	c1.1,3.3-0.2,5.9,0.4,9.1c0.4,1.3,1.4,2.7,2.7,2.7c1.4,0.1,2.6-1.4,3.6-2.1c0.5-0.2,1-0.4,1.5-0.6c4-1.5,6.2-5.7,5.4-10.1
	c-0.4-1.9-1.3-4.4-2.6-5.8C414.5,173.9,413,173.4,411.5,172.9z"/>
<path class="st25" d="M406.5,184.8c0,0.9-0.9,1.7-1.9,1.7c-1.1,0-1.9-0.8-1.9-1.7s0.9-1.7,1.9-1.7
	C405.6,183.1,406.5,183.9,406.5,184.8z"/>
<path d="M416.5,173.8c1.7-0.8,3.5-0.4,4.8,0.9s1.9,3.2,1.3,4.8c-0.2,0.4-0.4,0.9-0.8,1.3C416.7,187.5,410.1,176.6,416.5,173.8z"/>
<path class="st26" d="M407.8,228.6c1.9-4.1,5.6-7.3,5.8-12.1"/>
<path class="st10" d="M384.7,200.6c-0.4-0.1-0.8-0.1-1.2,0c-0.6,0.2-0.9,1-1.1,1.7c-1.4,4-2.8,8-4.2,11.9c2.2,1.1,4.6,1.9,7.1,2.3
	c1.7,0.2,3.3,0.4,4.9-0.4c1.7-0.8,2.8-2.4,4-4.1c1.5-2.4,6.3-9.2,3.3-12.2C395,197,387.8,201.1,384.7,200.6z"/>
<path class="st0" d="M59.6,393.5c-1.4,0.1-2.7,0.1-4.1,0.2c-4.9,0.4-10,1.4-14.9,1.4c-4.5,0-9,1.4-13.1,3.7c-2.4,1.3-6.3,4.7-6.8,8
	c-0.5,3.7,2.7,6.7,5.7,7.8c3.3,1.3,6.9,1.7,10.5,1.9c12.7,1.1,25.4,1.3,38.1,1.2c17.4-0.2,34.9-1,52.1-4.1c1.5-0.4,3-0.5,4.2-1.5
	c1.3-0.9,2.3-2.6,2.2-4.4c-0.2-2.4-2.2-3.8-4-4.9c-3.3-1.9-6.9-3.5-10.5-4.7c-10.1-3.5-20.9-4-31.5-4.4
	C78.2,393.5,69,393.3,59.6,393.5z"/>
<path class="st11" d="M45.5,370H3.7c-1.4-2.6-1.4-5.4,0-8h41.8L45.5,370L45.5,370z"/>
<path class="st10" d="M42.1,381.5H0.3c-1.4-2.6-2.1-7.1,0-12.3h41.8V381.5z"/>
<path class="st11" d="M47.6,394H6.5c-2.1-2.6-2.7-8.9-0.6-12.3h41.8L47.6,394L47.6,394z"/>
<path class="st5" d="M50.3,406.4H9.2c-2.1-2.6-2.1-8-0.6-12.3h41.8L50.3,406.4L50.3,406.4z"/>
<path class="st8" d="M34.7,389.5H17.2c-0.6,0-1.2-0.5-1.2-1.2v-0.2c0-0.6,0.5-1.2,1.2-1.2h17.4c0.6,0,1.2,0.5,1.2,1.2v0.2
	C35.9,388.9,35.3,389.5,34.7,389.5z"/>
<path class="st8" d="M34.8,367.4H15.8c-0.2,0-0.4-0.2-0.4-0.4v-2.6c0-0.2,0.2-0.4,0.4-0.4h18.9c0.2,0,0.4,0.2,0.4,0.4v2.6
	C35.2,367.2,35,367.4,34.8,367.4z"/>
<path class="st20" d="M6.1,378L6.1,378c-1.3,0-2.4-1.1-2.4-2.4v-0.5c0-1.3,1.1-2.4,2.4-2.4l0,0c1.3,0,2.4,1.1,2.4,2.4v0.5
	C8.5,377,7.5,378,6.1,378z"/>
<path class="st20" d="M34.9,377.1H13c-0.5,0-1-0.4-1-1v-1.4c0-0.5,0.4-1,1-1h21.9c0.5,0,1,0.4,1,1v1.4
	C35.9,376.7,35.5,377.1,34.9,377.1z"/>
<rect x="10.6" y="398.4" class="st11" width="21.2" height="3.5"/>
<path class="st8" d="M8.4,367.4H6.7c-0.4,0-0.9-0.4-0.9-0.9v-1c0-0.4,0.4-0.9,0.9-0.9h1.8c0.4,0,0.9,0.4,0.9,0.9v1
	C9.2,367.1,8.9,367.4,8.4,367.4z"/>
<path class="st0" d="M139.2,413.8c5.6-0.4,11.3,0.1,16.7,1.4c1.9,0.4,4.1,1.1,5.6,2.4c1.7,1.3,2.6,3.7,2.1,5.8c-0.6,2.3-3,3.6-5,4.4
	c-6.2,2.1-12.7,1.8-19,1c-4.5-0.5-9.2-1.4-13-4.1c-1.9-1.5-3.8-4.1-3-6.6c0.8-2.1,3.1-3,5.1-3.3c5.3-1.1,10.6-1.3,15.9-0.6"/>
<g id="XMLID_401_">
	<g id="XMLID_194_">
		<path id="XMLID_1673_" class="st27" d="M124.4,397.9l-5.3,8.3c1.9,1.1,7.4,5,13.6,7.2c0,0,3.2,0.9,4.5-2.1c0.4-1.1-0.5-2.2-0.4-3
			C134.7,406.9,125.6,399.3,124.4,397.9z"/>
	</g>
</g>
<g id="XMLID_192_">
	<g id="XMLID_225_">
		<path d="M133.7,418.9c-0.4,0-0.6,0-1,0.1c-0.8-1.2-1.7-2.3-2.6-3.3c-0.8-1.7-2.6-4.1,0.1-4.1c0.6,0,1.3,0,1.9-0.1
			c1-0.2,1.9-0.5,2.6-1.3c0.6-0.6,0.9-2.2,1.8-2.4c0.4-0.1,1.5,0.5,2.1,0.6c0.8,0.2,1.7,0.2,2.4,0.2c4.1,0,8.1-1.9,12.1-1.3
			c1.1,0.2,2.2,0.6,2.6,1.8c0.6,1.4-0.4,3.2-1.8,4c-4,2.6-8.3,3.1-12.8,4c-0.1,0-0.1,0-0.1,0c-1.4,0.2-2.8,0.4-4.2,0.4
			C135.7,417.9,134.6,418.5,133.7,418.9z"/>
	</g>
</g>
<path d="M22.2,336.4c0.5-2.1,1.5-4.1,2.7-5.9c1.7-2.6,3.7-4.7,5.6-7.2c3.3-4.6,6-10,9.5-14.5c2.3-3,4.6-4.6,8.1-3.5
	c3.2,1,5.8,3.3,8.5,5.5c3.3,2.7,1.7,8.3,1.4,12.2c-0.1,2.4-0.2,4.7-0.6,7.1c-0.6,3.3-1.9,6.3-3.1,9.4c-1.9,4.4-4,8.7-6.7,12.5
	c-2.8,3.7-6.4,7-10.6,8.5c-6.9,2.6-12.1-8.2-13.7-13.7c-0.8-2.6-1.5-5.1-1.4-7.8C21.9,338.3,22,337.3,22.2,336.4z"/>
<g id="XMLID_229_">
	<g id="XMLID_226_">
		<path class="st25" d="M139.7,421.9c-0.6,0.2-1.3,0.2-2.1-0.1c-4.5-2.2-9-4.4-13.5-6.4c2.2-2.7,4.1-5.9,6.2-8.9
			c2.3,1.9,4.5,3.7,7,5.4c1.7,1.1,3.2,2.3,4.8,3.3c0.4,1.2,0.8,2.6,0.5,3.3C142,420,141,421.5,139.7,421.9z"/>
	</g>
</g>
<g id="XMLID_191_">
	<g id="XMLID_228_">
		<path class="st25" d="M39.3,331.6c0.8-0.8,1.8-1.2,2.4-1.9c1.2-1.2,1.5-3,1.7-4.7c0-1.3-1-4.4-0.2-5.4c0.8-1.1,4.2-0.1,5.3,0
			c1,0.1,1.9,0.4,3.1,0.4c0.6,0,1.4-0.1,1.9,0.2c-0.2,0.9-0.4,1.8-0.6,2.6c-0.4,1.5-0.9,3.5,0.1,4.9c1,1.3,2.2,2.4,3.7,3.2
			c0.4,0.2,1,0.4,1.4,0.6c1.3,0.9,1.1,2.4,0.4,3.6c-0.8,1.2-1.5,2.3-2.6,3.2c-0.6,0.6-1.4,1.3-2.2,1.9c-1.8,1.4-3.7,2.7-6,2.8
			c-2.7,0.1-5.1-1.2-6.9-3.3C39.1,337.7,37,334,39.3,331.6z"/>
	</g>
</g>
<g id="XMLID_389_">
	<g id="XMLID_230_">
		<path id="XMLID_1658_" class="st27" d="M69.9,344.5c-0.4-1.1-2.4-3.3-3.2-4.1c-1.3-1.2-3-1.7-4.5-0.6c-0.6,0.4-1.2,1.1-1.8,1.9
			c-1.5,2.6-1.3,5.6-0.8,8.5c1,4.9,2.1,9.9,4.1,14.4c2,4.5,5.5,8.5,9.8,10.3c2.1,1,4.6,1.3,6.7,0.2c0.4-0.1,0.5-0.4,0.8-0.6
			c0.4-0.6-0.1-1.4-0.5-1.9c-1.9-2.3-4.6-4-5.8-6.8c-1.1-2.4-1.8-5.5-2.2-8.1C72,354,70.9,346.7,69.9,344.5z"/>
	</g>
</g>
<g id="XMLID_385_">
	<g id="XMLID_190_">
		<path class="st20" d="M39.3,331.4c0,0,3.8,4.8,10,3.6c4-0.8,5.7-2.6,6.4-4.7c1.5,0.8,3.3,1.3,4.7,1.9c1,0.4,1.9,0.8,2.8,1.2
			c-1.9,2.2-1.2,10.6-1.1,13.7c0.1,1.7,0.2,5.3,0.2,5.3c0.1,4.1,0.2,6.7,0.8,9.4c0.8,4.4,0.4,5.1,1.1,7.6c0.8,2.4-0.4,4.6-0.8,7.1
			c-0.1,1.2-6.8,0.8-7.8,1.1c-1.9,0.5-14.5,4.1-15.9-0.9c-0.6-2.4-1.2-8.1-1.8-12.2c-0.1-2.1,0.1-6.9,0.1-8.9c0.1,0,0.2-0.1,0.2-0.4
			c0.4-2.7,1.1-5.5,0.8-8.2c-0.2-1.9-1.2-3.8-2.6-5.1c-2.2-1.9-5.9,0.1-8.6,0.5C29,334.7,33.1,333.8,39.3,331.4z"/>
	</g>
</g>
<g id="XMLID_188_">
	<g id="XMLID_189_">
		<path class="st20" d="M62.3,332.9c1.9,0.8,3.6,1.8,5.1,3.3c0.5,0.8,1.1,1.4,1.5,2.3c1.9,4.6,2.6,10.4,2.6,10.4s-11.2,3-12.8,2.4
			C57.1,345.8,56.2,333.7,62.3,332.9z"/>
	</g>
</g>
<g id="XMLID_186_">
	<g id="XMLID_187_">
		<path id="XMLID_1639_" class="st8" d="M100.9,374.8c-2.7-2.4-6.4-3.2-17.1,0.1c-6.7,2.1,4.7,8.9,7.8,13.7
			c7.7,11.8,15.4,9.4,26.8,16.8c0.4,0.2,8.7-3.3,9.9-6.3C122.6,393.8,102.1,375.7,100.9,374.8z"/>
	</g>
</g>
<g id="XMLID_184_">
	<g id="XMLID_185_">
		<path class="st11" d="M40.5,374c0.2-1.5,0.2-2.7,1.8-3.3l0,0c3.3,0.1,6.6-0.4,9.9-1c0.5-0.1,1.1-0.2,1.7-0.4
			c3.5-0.4,7.1-0.4,10.3-1.8c0.4,0.4,0.5,0.9,0.8,1.1c1.1,1.4,2.2,2.7,3.5,4c4.1,3.7,9.5,6,14.6,7.6c7.1,2.1,21.4,4.7,28.4,9.6
			c7.6,5.3,20.5,15.2,20.9,15.5c0.4,0.4-2.8,6-3.2,6.6c-0.6,1.3-1.3,2.6-1.9,3.7c-0.9,1.5-1.5,1.2-3.1,0.5
			c-8-3.3-15.3-8.2-22.9-12.7c-2.4-1.4-4.9-2.8-7.8-3c-3.7-0.1-7.3,2.1-10.9,2.6c-4.1,0.5-8.1,1.1-12.2,1.5
			c-6,0.6-12.5,1.1-18.4-0.6c-4-1.1-7.8-3.3-10.1-7c-1.2-1.9-2.3-3.3-2.6-5.7c-0.4-2.3-0.1-4.7,0.1-7.1
			C39.5,380.8,39.8,377.5,40.5,374z"/>
	</g>
</g>
<g id="XMLID_183_">
	<g id="XMLID_1243_">
		<path id="XMLID_1636_" class="st25" d="M38.5,376.2c2.7,2.4,6,4.1,9.4,4.9c4.8,1.3,9.9,1,14.6-0.4c0.5-0.1,1.1-0.4,1.4-0.8
			c0.4-0.4,0.6-1.1,0.4-1.7c-0.1-0.4-0.4-0.5-0.8-0.8c-1.2-0.8-2.6-1.1-4-1.5c-4-1.2-8-2.7-11.5-5.1c-3.3-2.3-7-5.9-7.8-10.1
			c-1-4.5-1.4-9.2-3.5-13.3c-0.4-0.6-0.8-0.4-1.3-0.9c-0.6-0.4-1.2-3-1.9-2.6c-4,1.5-5.1,4.7-5.1,9c0,5.8,1.4,10.6,4.1,15.7
			c0.9,1.5,1.8,3.1,2.8,4.5C36.5,374.1,37.4,375.3,38.5,376.2z"/>
	</g>
</g>
<g id="XMLID_384_">
	<g id="XMLID_282_">
		<path id="XMLID_1627_" class="st20" d="M38.2,338.6c-2.1-1.9-6.3-0.4-8.9,0.1c-0.5,0.9-1.2,2.6-1.5,4.5
			c-0.4,2.8,0.6,12.7,0.6,12.7c3.3,0.6,7.6-0.9,10.9-1.1C40.1,350.7,41.8,341.7,38.2,338.6z"/>
	</g>
</g>
<g id="XMLID_305_">
	<g id="XMLID_1203_">
		<path class="st8" d="M38.9,385c0.4-3.3,3.3-5.6,6.4-4.8l0,0c2.1,0.5,4.2,1,6.4,1.1c6,0.4,11.5-1.4,17.2-3c6-1.7,12.2-3.3,18.2-4.5
			c6.2-1.2,7.7-1,11.7,3c2.4,2.4,7.4,5.6,9.2,8.5c-2.1,1-3.2,1-5.4,1.5c-3.2,0.8-6.3,2.8-9.4,4.1c-6.7,3.1-8.6,6.6-15.3,9.8
			c-4.1,1.9-18.1,8-22.5,8.3c-4,0.2-7.7,0.4-10.9-2.4C38.7,401.6,38,393,38.9,385z"/>
	</g>
</g>
<g id="XMLID_392_">
	<g id="XMLID_395_">
		<g id="XMLID_396_">
			<g id="XMLID_1183_">
				<path id="XMLID_1559_" class="st5" d="M149.3,405.8c0.6-0.9,1.4-1.9,2.4-2.4c1-0.5,2.3-0.6,3.1,0.2c0.5,0.5,0.6,1.1,0.5,1.9
					c-0.1,0.6-0.2,1.3-0.5,1.9c-0.4,1-6.4,13.7-9.9,18.5c-0.6,1-1.4,0.9-1.9,0.5c-1.8-1-3.7-2.2-5.4-3.3c-0.5-0.4-0.5-1.3,0-1.7
					c5.6-3.3,2.6-7.7,2.6-7.7C144.4,411.1,149.2,405.8,149.3,405.8z"/>
			</g>
		</g>
	</g>
</g>
<g>
	<g id="XMLID_182_">
		<g id="XMLID_227_">
			<path id="XMLID_1664_" class="st25" d="M42.4,320.6c1.9,1.9,4.1,4,6.8,3.6c1.5-0.1,3.3-1,4.5-2.3c1.1-1.3,1.5-3.5,1.9-5.1
				c0.6-3.1,1.1-6.4-0.4-9.1c-1.3-2.6-5.1-3.1-7.6-2.6c-2.3,0.5-4.4,2.2-5.3,4.6c-0.1,0.4-0.4,0.9-0.4,1.4c-0.2,1.4-0.4,2.7-0.4,4.1
				c0,1.2,0.2,2.3,0.4,3.3C42.1,319.3,42.4,319.9,42.4,320.6z"/>
		</g>
	</g>
	<g id="XMLID_386_">
		<g id="XMLID_1193_">
			<path id="XMLID_1575_" class="st28" d="M50.5,319.7c-0.6,0.6-1.8,0.5-2.3-0.2c-0.2-0.4-0.8,0-0.5,0.4c0.9,1.2,2.3,1.3,3.3,0.4
				C51.2,319.9,50.7,319.5,50.5,319.7z"/>
		</g>
	</g>
	<g id="XMLID_1286_">
		<g id="XMLID_1380_">
			<path id="XMLID_1535_" d="M55,303.6c-1.7-1.3-3.7-2.1-5.8-2.2c-4-0.1-7.8,2.1-10.5,5.3c-0.8,0.9-1.4,1.9-1.9,3
				c-0.4,1.1-0.6,2.2-1,3.3c-0.4,1.7-1,3.2-1.7,4.7c-0.5,1.3-1.4,2.6-1.8,4c-0.4,2.3,0.5,4.9,2.4,6.3c1.3,0.9,3,1.1,4.5,0.8
				c1.1-0.4,3.3-0.5,4-1.7c0.5-1.5,0.4-3.1,0.2-4.6c-0.2-1.9-0.2-3.8-0.1-5.7c0.1-1.3,0.2-2.6,0.6-3.7c1.1-2.8,4.1-4.6,6.8-4.1
				c1.9,0.4,2.2,2.2,2.6,3.8c0.2,1,0.5,1.9,0.9,2.8c0.4,0.9,0.8,1.9,1.3,2.6c0.6,0.8,1.4,1.3,2.4,1.3c1,0,1.9-0.5,2.7-1.3
				c0.6-0.5,1.2-1.4,0.9-2.3c-0.2-0.8-0.9-1.1-1.3-1.7c-1.2-1.4-1.3-3.7-1.8-5.5C57.7,306.6,56.5,304.8,55,303.6z"/>
		</g>
	</g>
	<g id="XMLID_180_">
		<g id="XMLID_181_">
			<path id="XMLID_1515_" class="st25" d="M44.3,315.1c-0.1-0.4-0.4-0.5-0.5-0.8c-0.4-0.4-0.9-0.4-1.2-0.2c-0.5,0.2-1,0.9-1,1.5
				c0,1.4,1.5,2.2,2.4,1.2C44.4,316.4,44.6,315.6,44.3,315.1z"/>
		</g>
	</g>
</g>
<g id="XMLID_170_">
	<path id="XMLID_177_" class="st2" d="M87.7,373.9l-33,8l0,0c-0.1-0.6,0.2-1.4,0.9-1.5l31.8-7.8L87.7,373.9z"/>
	<path id="XMLID_176_" class="st2" d="M93.2,371.2l-33,8l1.9-20.3c0.1-0.6,0.5-1.3,1.2-1.4l29.8-7.2c1.1-0.2,1.9,0.5,1.9,1.7
		L93.2,371.2z"/>
	<polygon id="XMLID_175_" class="st29" points="93.5,372.5 60.2,380.6 60.1,379.2 93.2,371.2 	"/>
	<path id="XMLID_172_" class="st2" d="M77.8,362.5L77.8,362.5h-0.2c-0.8,0.2-1.3,1-1.2,1.9c0.1,0.8,0.9,1.2,1.7,1.1
		c0.8-0.2,1.3-0.8,1.3-1.5C79.2,363.1,78.6,362.5,77.8,362.5z M77.9,364.9c-0.6,0.1-1.4-0.4-1.1-1.2c0.1-0.4,0.4-0.6,0.8-0.8l0,0
		c0,0,0,0,0.1,0C78.9,362.9,79.1,364.6,77.9,364.9z"/>
</g>
<path class="st30" d="M124,182.3c-1.7,3.2,0.9,5.4,3,7.6c0.5,0.5,1.2,1.1,1.9,1.4c1.2,0.5,2.6,0.4,4,0.4c9.6-1.2,19.4-2.6,28.9-4.7
	c2.2-0.5,4.4-1.1,6.7-1.7c2.8-0.6,5.9-2.1,8.6-3.3c2.8-1.2,5.4-3,7.7-5l0.1-0.1c0.4-0.2,0.8-0.5,1-1.1c1.2-1.4,1.9-3.3,1.3-5
	c-0.8-1.9-3.1-2.6-5-2.7c-5.9-0.5-11.8,0.2-17.6,1.1c-4,0.6-7.8,1.5-11.7,2.1c-4.1,0.5-7.8,0-11.8,0.1
	C134,171.5,127.5,175.7,124,182.3z"/>
<path class="st25" d="M121.2,154.5c0.1,0.5,0.2,1.1,0.4,1.7c1.1,3.3,3.3,6.3,5.8,8.6c2.4,2.4,4.4,4.8,7.4,6.3
	c1.7,0.8,3.5,1.4,5.3,1.5c1.3,0.1,3.6-0.2,3.7-2.1c0.1-1.7-1.4-3.2-2.7-3.7c-1.5-0.6-3.2-0.6-4.7-1.3c-1.9-0.8-3.5-2.4-4.6-4.2
	c-2.2-3.5-3.6-7.4-2.8-11.6c0.5-3.2,1.4-6.2,2.7-9c1-2.1,3.5-5.1,2.4-7.7c-1.2-2.7-5.1-1.3-6.6,0.4c-2.3,2.7-4.1,6.8-5.4,10.1
	C121,147.1,120.4,150.9,121.2,154.5z"/>
<path class="st25" d="M176.8,155.8c0.1,3.7-2.8,6.2-5.1,8.5c-3.7,4-8,6.6-13.2,7.1c-1.9,0.2-5.7-1.2-3.8-4.2c0.6-1,1.9-1.4,3-1.9
	c2.1-0.9,4.1-1.9,5.9-3.3c1.7-1.1,3.8-2.3,5-4c0.9-1.2,0.5-3,0.1-4.4c-1.1-3.8-3-7.4-4.4-11.2c-0.9-2.2-3-9.8,1.2-9.9
	c4.1-0.1,5.4,4.5,6.7,7.7c1.7,4.1,3,8.1,4.1,12.2C176.6,153.6,176.8,154.7,176.8,155.8z"/>
<path class="st6" d="M168.8,132.5c-1-1.5-1.9-3-3.2-4.2c-1.3-1.4-2.6-2.6-4.2-3.3c-1.9-0.6-3.8-0.9-5.8-0.9c-2.2,0-4.1,1.2-6.3,1.3
	s-4.4-0.5-6.4-0.9c-2.2-0.4-4-0.4-6,0.5c-6.2,2.6-10.7,8.2-14.5,13.9c-0.4,0.5-0.1,1.2,0.4,1.4c2.8,1.1,5.6,2.4,8.3,3.7
	c0.5-1.1,1.2-2.2,1.8-3.2c0.8,2.1-1,16.2-0.5,22.2c0.2,2.4,0.4,4.9,1,7.2c0.1,0.4,0.2,0.8,0.4,1.2c4.7-0.1,9.3-0.1,14-0.1
	c3.3,0,6.7,0,10-0.5c1.8-0.2,3.3-0.5,5.1-0.5c0.9-3.3,0.5-7.4,0.6-10.8c0.1-5.5-0.2-10.9-0.4-16.4c0.6,0.9,1.3,1.8,1.9,2.6
	c1.5-1.4,3.2-2.7,4.7-4.1c1.1-1,3.3-1.9,2.3-3.7C170.9,136.1,169.9,134.2,168.8,132.5z"/>
<path class="st25" d="M145.3,192.5c-0.6,0.6-13.7,3.7-13.7,3.7l-0.6-7.1l12.2-4.7L145.3,192.5z"/>
<path class="st25" d="M155.5,124.1c-0.8-0.1-1.8-0.1-2.3-0.8c-1.1-1.4-1.2-3.7-1-5.5c0-0.4,0.1-0.8,0.2-1.1c0.2-0.4,0.5-0.9,0.8-1.3
	c1.1-1.9,1.1-4,1-6c-0.1-1.4,0.1-3.3-1-4.5c-0.5-0.5-1.2-1.1-1.9-1.5c-0.8-0.5-1.8-1-2.6-1.1c-1.7-0.4-3.1,0.1-4.4,1.1
	c-1.4,1-1.8,2.7-1.9,4.4c-0.4,1.9-0.4,3.8,0.4,5.6c0.4,0.8,0.6,1.4,1,2.2c0.4,0.6,0.6,1.3,0.8,2.1c0.1,0.8,0,1.4,0,2.2
	c-0.1,1.3-0.1,4.5-1.9,4.6c-0.4,0-0.8-0.1-1.1-0.2c0.2,0.2,0.4,0.9,0.4,1.3c0.2,0.5,0.4,1,0.6,1.4c0.8,1.1,2.1,2.1,3.3,2.3
	c1.9,0.4,4.1,0.4,6-0.4c1.1-0.4,1.9-1.1,2.7-1.9C154.9,126.4,156.4,124.2,155.5,124.1z"/>
<path class="st31" d="M187.2,169.2c-2.2-1-4.8-1-7.2-0.9c-1.4,0.1-2.8,0.2-4.2,0.4c-3.2,0.5-6.3,1.7-9.2,3.1
	c-1.5,0.8-3.2,1.3-4.8,1.9c-1.3,0.4-2.6,1-3.8,1.5c-6,2.6-11.9,5.3-17.8,7.8c1.7,4,3.1,7.8,4.6,11.8c3.8-0.4,7.7-1,11.5-1.7
	c7.2-1.3,14.5-2.6,21.7-4.5c5.3-1.4,13.1-2.7,14.4-9.6C192.8,175.1,190.6,170.8,187.2,169.2z"/>
<path class="st5" d="M131.2,197c-2.4,0.5-4.8,0-7.4-0.4c-1.9-0.2-4.1,0.2-6.2-0.2c-2.6-0.4-5.5-3.2-5.6-6c0-0.9,0.2-1.9,0.5-2.6
	c0.2-0.4,0.4-0.9,0.6-1.2c0.6-0.9,1.7-1.3,2.6-1.4c1.9-0.2,4.1,0.8,5.8,1.2c2.1,0.5,4.1,1.2,6,2.2c0.9,0.4,1.7,0.8,2.6,0.8
	c0.2,0,2.6-0.4,2.6-0.6c0.6,2.4,0.2,5,1.2,7.2C133,196.5,132.1,196.9,131.2,197z"/>
<polygon class="st25" points="132,228.5 136.1,241.9 143,240.4 140.2,226.9 "/>
<path class="st21" d="M141.4,232.9c0.6-0.1,1.4-0.4,2.1-0.4c0.1-0.4,0-0.9,0-1.3c-0.9-8.5-1.7-16.8-2.3-25.3
	c-0.4-4.6-0.2-9.3-0.8-13.9c-0.4-3.7-0.6-6.8,2.2-9.6c2.6-2.6,6.2-3.3,8.6-5.7c0.6-0.6,1.3-1.5,1.4-2.6c0.1-3.5-7.8-5.1-10.3-5.3
	c-1.4-0.1-2.8-0.2-4.1-0.2c-7.3-0.4-14,1.5-15.7,10.3c-0.9,4.6,0,9.4,0.8,14c1.7,8.9,3.2,17.8,4.8,26.7c0.6,4,0.8,9.9,2.4,13.3
	c1.1,2.3,1.7,1.4,4.1,1C137,233.7,139.2,233.3,141.4,232.9z"/>
<path class="st5" d="M133.6,257.9c0.4-0.2,0.6-0.4,1-0.6c2.2-1.7,4.1-4,5.9-6c1.7-1.9,4-3.6,5.3-5.7c0.4-0.8,0.5-1.8,0.2-2.6
	c-0.2-0.9-0.8-1.7-1.2-2.3c-0.5-0.8-1.1-1.7-1.9-2.3c-0.1-0.1-0.2-0.2-0.4-0.2c0,0.1-1.4,0.6-1.7,0.6c-1.1,0.4-2.1,0.5-3.2,0.6
	s-2.3,0.1-3.3,0c0.1,1.2,0.2,2.7,0.2,3c0.1,3.2-1,5.7-2.6,8.1c-0.4,0.6-0.8,1.2-1.1,1.9c-1.1,1.8-2.7,6.3,0.8,6.3
	C132.4,258.4,133,258.2,133.6,257.9z"/>
<path class="st5" d="M155.8,104.7L155.8,104.7c0.2-1.9-0.4-3.4-1.1-5.1c-0.5-1.4-1.9-3.3-3.3-3.5c-1.3-0.2-2.4,1.2-3.7,1.2
	c-0.4,0-0.8-0.1-1.1-0.1c-0.6,0-1.3,0.4-1.9,0.8c-1.9,1.1-3,2.3-3.6,4.5c-0.6,1.9-0.5,4.2,0,6.3c0.2,0.6,0.4,1.2,0.6,1.8
	c0.1,0.4,0,0.8,0.2,1.1c0.6,1.2,1.5,0.4,1.4-0.6c0-0.5-0.1-1.1-0.1-1.8c0-0.5-0.1-1.1,0-1.7c0.1-0.6,0.4-1.1,0.8-1.4
	c1.2-1,2.3,1.2,3.3-0.4c1.1-1.9,2.3-2.4,4.1-1.9c2.1,0.5,2.6,2.6,1.9,4.6c-0.1,0.4-0.6,1.5-0.4,1.9c0.2,0.5,0.6,0.4,1.2,0.4
	c0.1,0,0.4,0,0.4,0c0.1-0.1,0.2-0.2,0.4-0.4C155.6,108.6,155.6,106.7,155.8,104.7z"/>
<path class="st25" d="M154.7,109.6c-0.5-0.2-1.2,0.1-1.5,0.6c-0.1,0.1-0.1,0.4-0.1,0.5c-0.2,0.9,0.4,1.9,1.4,1.7
	C155.7,112.2,156,110,154.7,109.6z"/>
<path class="st25" d="M143.4,110.7c0-0.1-0.1-0.2-0.2-0.2v-0.1c-0.4-0.6-1.3-0.4-1.8,0.1c-0.4,0.4-0.6,1.3-0.4,1.9
	c0.3,0.6,1.4,0.8,1.9,0.4C143.8,112.3,143.8,111.4,143.4,110.7z"/>
<path d="M149.3,114.2c-0.4-0.2-0.6,0-1.1,0c-0.5,0-1-0.2-1.4-0.5c-0.1-0.1-0.4,0.1-0.2,0.4c0.4,0.4,0.9,0.6,1.4,0.8
	c0.4,0.1,1,0.1,1.3-0.2C149.4,114.5,149.4,114.3,149.3,114.2z"/>
<path class="st32" d="M165.1,175.1h-37.7c-0.9,0-1.5-0.6-1.5-1.5V149c0-0.9,0.6-1.5,1.5-1.5h37.7c0.9,0,1.5,0.6,1.5,1.5v24.6
	C166.6,174.4,165.9,175.1,165.1,175.1z"/>
<path class="st33" d="M148.5,160.4c0,1.4-1.1,2.6-2.4,2.6c-1.3,0-2.4-1.2-2.4-2.6c0-1.4,1.1-2.6,2.4-2.6
	C147.5,157.7,148.5,159,148.5,160.4z"/>
<path class="st0" d="M339.6,417.1c3.1,0.4,6.3,1.1,8.6,3.2c0.5,0.4,1.1,1.2,0.9,1.9c-0.1,0.4-0.4,0.8-0.8,1
	c-1.9,1.7-4.5,1.9-6.9,2.3c-33.9,4.1-68.2,2.3-102.1,4.9c-10.1,0.8-20.4,1.9-30.4-0.6c-1.1-0.4-2.4-0.8-2.8-1.9
	c-0.8-1.9,1.2-3.7,3-4.6c7.8-3.8,16.8-4,25.5-4.1c14.5-0.4,29-1,43.4-1.9c12.7-0.9,25.4-2.3,38.1-2.1
	C324,415.3,331.8,416,339.6,417.1z"/>
<path class="st25" d="M290.6,357c-1.7-1.5-3.1-1-4.6,1c-0.6,0.8-1.4,1.5-2.4,2.2c-0.4,0.2-1.9,1-1.2,1.4v0.1c0,0,0,0,0,0.1
	c0.1,0.2,0.5,0.4,0.8,0.2c0.2,0,0.5-0.1,0.8-0.2c0.5,0.2,1.2,0.2,1.9,0.2c1.7-0.1,3.3-0.6,4.7,0.5c1.2,1,2.2,2.3,3,3.7
	c0.4,0.9,0.9,1.9,1.4,2.6c0.5,0.8,1.4,1.4,2.4,1.3c0.4,0,0.8-0.2,1.1-0.4c1.3-0.9,2.2-2.6,1.7-4.1c-0.6-1.9-2.8-2.6-4.2-3.6
	C294.4,360.8,290.7,357.1,290.6,357z"/>
<g id="XMLID_250_">
	<g id="XMLID_251_">
		<g id="XMLID_252_">
			<path id="XMLID_1815_" class="st25" d="M271.8,358.6c-0.1-0.9,0.1-1.7,0.2-2.6c0.4-2.3-0.5-4-1.7-5.8c-0.1-0.2-0.2-0.4-0.4-0.4
				c-0.2-0.1-0.5,0.1-0.6,0.4c-0.1,0.2-0.1,0.5-0.2,0.8c-0.1,1.4-0.4,2.7-0.9,4.1c-0.4,1.2-0.9,2.4-1.2,3.6c-0.4,1.3-0.4,2.6,0,3.8
				c0.5,1.3,1.1,2.6,1.8,3.6c0.9,1.5,1.8,3.1,2.6,4.6c0.4,0.5,0.6,1.3,1.3,1.3s1.4-0.4,2.1-0.6c1.1-0.4,2.3-1,1.8-2.4
				c-0.1-0.4-0.4-0.9-0.6-1.2c-0.8-1.1-1.7-2.2-2.4-3.3c-0.4-0.4-0.6-0.9-0.8-1.4c-0.1-0.4-0.1-0.9-0.1-1.4c-0.1-1-0.6-1.9-0.9-2.8
				C271.8,358.7,271.8,358.7,271.8,358.6z"/>
		</g>
	</g>
</g>
<g id="XMLID_246_">
	<g id="XMLID_247_">
		<g id="XMLID_248_">
			<path id="XMLID_1811_" class="st20" d="M339,408.5c1.1-3.1,1.1-6.7,1.8-10c-6.9-3.3-14.2-8.7-20.5-13.5
				c-5.1-3.7-10-8.1-14.8-12.3c-4.2-3.8-8.7-8.3-13.5-11.4c-1.1-0.6-2.3-1.2-3.6-1.5c-2.8-0.8-6-0.6-8.6,0.6c-3,1.4-5.5,4.4-4.9,7.8
				c0.8,4.6,1.9,8.7,4.4,12.8c3,5,6.8,8.6,9.3,14c3,6.2,7.3,11.3,11.8,16.1c2.7,3,5.6,5.8,8.9,7.8c4.7,3,10.1,4.1,15.5,3.3
				c5.4-0.8,9.8-4,13-8.6C338.8,412.5,338.4,410.3,339,408.5z"/>
		</g>
	</g>
</g>
<g id="XMLID_242_">
	<g id="XMLID_244_">
		<g id="XMLID_245_">
			<path id="XMLID_1803_" class="st20" d="M292.6,370.7c-1.9,3.5-4.8,6.4-7.8,9.2c-3.3,3.1-6.7,5.8-10.1,8.5
				c-9.6,7.8-19.4,15.7-30,21.9c-2.3-1.9-4.8-3.6-7.3-5.3c0,0,5.7-8.3,6-8.9c3.3-4.7,6.8-9.3,10.5-13.6c0.5-0.6,1.2-1.3,1.8-1.9
				c4.1-4.6,8.6-9,13.3-13c4.5-3.7,9.2-8.2,15.2-8.5c3-0.1,5.1,1.5,7.4,3.3c1,0.8,1.7,1.3,1.9,2.6c0.4,1.7,0,3.3-0.8,4.7
				C292.8,370.2,292.7,370.3,292.6,370.7z"/>
		</g>
	</g>
</g>
<g id="XMLID_238_">
	<g>
		<g id="XMLID_17_">
			<g id="XMLID_18_">
				<path d="M243.7,407.5c-1.2-0.8-2.4-1.7-3.7-2.3c-0.5-0.4-1.1-0.6-1.5-1c-0.6,0.4-1.3,1.2-1.9,1.7c-1.4,1.2-3,2.3-4.6,3.2
					c-3.2,1.9-6.7,3.2-10.3,3.7c-1.1,0.2-3.7,0.4-3.8,1.9s1.8,3.2,3,3.7c1,0.4,2.1,0.4,3.2,0.5c4.8,0.2,9.8,0.5,14.5,0.5
					c1.9,0,4,0.1,6,0c0.4,0,0.8,0,1.2-0.1c1.8-0.2,2.3-1.3,2.4-3.1c0-0.9,0.1-1.8,0.1-2.6c0.1-1.1,0.1-2.2,0.2-3.3
					C246.9,409.4,245.2,408.5,243.7,407.5z"/>
			</g>
		</g>
	</g>
</g>
<g id="XMLID_215_">
	<g id="XMLID_222_">
		<g id="XMLID_223_">
			<g id="XMLID_231_">
				<g id="XMLID_237_">
					<g id="XMLID_1357_">
						<path class="st25" d="M297.3,331C297.3,331,297.2,331,297.3,331c-0.1,0.1,0.1,1,0.4,2.4C297.6,332.7,297.4,331.8,297.3,331z"
							/>
						<path class="st25" d="M321.3,349.5c-1.8-3.1-3.3-6.3-5-9.3c-1.5-3.1-3.1-6.2-4.5-9.2c-0.5-1.1-1.1-2.3-1.5-3.5
							c-0.4-1.2-0.6-2.6-1.1-3.7c-0.9-0.1-1.5-0.5-2.4-0.4c-0.9,0.1-1.9,0.5-2.8,0.8c-1.5,0.4-2.6,1.7-3.5,3c-1.1,1.5-1,3.3-0.9,5
							c0.6,8.5,3.2,16.9,7.4,24.1c0.4,0.6,0.8,1.3,1.2,1.9s1,1.3,1.5,1.9c3.2-0.4,6.3-1.4,9.2-3.1c2.2-1.2,3.3-2.8,4.5-4.6
							C322.3,351.1,321.3,349.6,321.3,349.5z"/>
					</g>
				</g>
			</g>
		</g>
	</g>
	<g id="XMLID_217_">
		<g id="XMLID_218_">
			<g id="XMLID_219_">
				<g id="XMLID_221_">
					<g id="XMLID_1352_">
						<path id="XMLID_1789_" class="st25" d="M304.6,336.7c1.3-0.4,2.6-1,3.5-1.9c0.5-0.6,3.1-4.5,2.7-5.1
							c-1.7-3.6-0.9-12.1-1.8-12.8c-1.9-1.5-5.8-2.4-8.2-2.2c-3.3,0.2-5.9,0.8-6.9,4.4c-1.2,4.4-2.4,8.9-1.3,13.5
							c0.2,0.9,0.5,1.9,1.1,2.6c1,1.4,2.6,2.2,4.2,2.4s3.3-0.1,4.9-0.4C303.5,336.9,304,336.8,304.6,336.7z"/>
					</g>
				</g>
			</g>
		</g>
	</g>
</g>
<g id="XMLID_213_">
	<g id="XMLID_214_">
		<path id="XMLID_1762_" class="st8" d="M339.7,377.4c-0.6-2.6-1.4-5.1-2.2-7.7c-1.9-5.7-4.6-11-7.8-15.9
			c-3.1-4.7-6.8-9.6-11.3-12.7c-1.9-1.3-4.1-2.3-6.3-1.8c-3.2,0.8-6.3,4.5-8.2,7.1c-2.1,3.1-2.7,6.3-1.9,10c0.8,3.3,1.9,6.3,3.1,9.5
			c2.3,6.3,4.8,12.3,5.5,19c0.4,2.6,0.4,5.4,0.2,8c-0.1,1.1-0.4,1.9,0.8,2.2c0.9,0.4,1.9,0.4,2.8,0.6c1.4,0.4,2.6,1.4,3.8,2.3
			c3,2.2,6,4.1,9.3,5.5c3,1.3,6.2,2.4,8.5,4.8c1,1,1.8,2.2,2.8,3c-0.1,0,1.2-4.1,1.3-4.5C342.7,397.4,342,387,339.7,377.4z"/>
	</g>
</g>
<g id="XMLID_210_">
	<g id="XMLID_211_">
		<g id="XMLID_212_">
			<path class="st10" d="M335.8,407.2c-4.1-3.8-8.2-7.4-12.5-11c-4.5-3.8-8.6-7.7-12.5-12.2c-5-5.8-10.6-11-16.7-15.7
				c-2.4-1.9-1.5-1.1-4.1-2.6c-2.6-1.7-5.7-2.6-8.5-1.9l-7.3,6.8c-0.6,5.4,1.3,10.6,4,15.2c3,5,6.3,8.9,9.3,14
				c3.5,5.8,7.3,11.3,11.8,16.1c2.7,3,5.6,5.8,8.9,7.8c4.7,3,10.1,4.1,15.5,3.3c5.4-0.8,10.5-3.3,13-8.6c1.1-2.3,1.9-5,2.6-7.7
				c-0.4-0.4-0.6-0.6-0.6-0.6C337.6,408.9,336.7,408.1,335.8,407.2z"/>
		</g>
	</g>
</g>
<path class="st34" d="M264.8,332.2l8.5,29.3c0.1,0.4,0.4,0.5,0.8,0.4l0,0c0.4-0.1,0.5-0.4,0.4-0.9l-8.5-29.3
	c-0.1-0.4-0.4-0.5-0.8-0.4l0,0C264.8,331.4,264.7,331.8,264.8,332.2z"/>
<path class="st34" d="M273.7,360.9v1.2c0,0,25,1.9,25.7,2.3l0.4-1.9L273.7,360.9z"/>
<g id="XMLID_207_">
	<g id="XMLID_208_">
		<g id="XMLID_209_">
			<path class="st10" d="M294.3,369.6c-0.2-1.9-1.5-2.6-3-3.5c-2.1-1.3-5-2.7-7.4-3c-2.7-0.4-5.9,1.9-8.1,3.3
				c-8.9,5.8-16.7,13.3-24.1,21.2c-3.7,4.1-7.6,8.1-10.8,12.5c-0.9,1.1-8.7,12.6-9.2,12.2c3.5,2.2,8.3,2.6,11.7,4.8
				c2.2-1.9,4.8-4.2,7.2-6c3.3-2.3,6.6-4.7,9.9-7.2c6.6-5,13-10.5,19-16.2c3.1-2.8,6-5.8,9-8.7C291,376.8,294.9,373.6,294.3,369.6z"
				/>
		</g>
	</g>
</g>
<g id="XMLID_204_">
	<g id="XMLID_205_">
		<g id="XMLID_206_">
			<path class="st5" d="M244.8,416.8c-1-0.4-2.2-0.6-3.2-1.1c-1-0.4-2.1-1-3.1-1.3c-2.2-0.8-4.5-1.4-6.7-2.1
				c-0.9,0.4-1.8,1.3-2.6,1.9c-1.4,1.1-2.8,2.1-4.4,2.8c-1.2,0.5-2.6,1-3.8,1.3c-1.7,0.4-3.3,0.9-4.9,1.3c-1.2,0.4-3.3,0.4-4,1.9
				c-0.2,0.5-0.1,1.1,0,1.5c0.4,1.5,1.5,2.8,2.8,3.3c1,0.4,2.1,0.4,3.1,0.5c4.5,0.2,9,0.5,13.3,0.5c2.2,0,4.5,0,6.7-0.1
				c1.2,0,2.4-0.1,3.6-0.2c0.6,0,2.4,0.2,2.8-0.4c0.2-0.4,0.2-0.8,0.2-1.2c0-2.6,0.1-5.4,0.1-8c0-0.4,0-0.6,0-1
				C244.8,416.8,244.8,416.8,244.8,416.8z"/>
		</g>
	</g>
</g>
<path class="st8" d="M319.5,348.8c-0.5-5.6-5.9-7.7-10.4-5.9c-2.4,0.9-4.5,2.8-6,5.1c-1.5,2.3-2.6,4.8-3.7,7.3l-6.7,15.4
	c-0.4,0.8-0.9,2.8-1.7,3.2c-0.8,0.2-1.7-0.5-2.2-1c-0.8-0.5-1.5-1.3-2.3-1.9c-1.9-1.5-3.8-3.3-5.7-5c-0.4-0.4-4.4-4.1-5.6-5.1
	c-1.5,0.9-3,2.2-4.2,3.2c-1,0.8-2.1,1.5-3.1,2.4c1.9,2.8,10,13.2,10.7,14.2c3,3.5,6.2,7,10,9.3c2.6,1.4,5.6,1.3,7.8-0.6
	c9.4-8.3,16.7-19.3,21.3-31.4C318.9,355.1,319.8,351.8,319.5,348.8z"/>
<path class="st25" d="M273.5,360.3c0.2-0.6,0.4-1,0.4-1.7c0.1-0.7,0.1-1.3,0.4-1.9c0-0.2,0.1-0.5,0.1-0.8s-0.2-0.5-0.4-0.5
	c-0.2-0.1-0.5,0.1-0.6,0.4c-0.8,1.1-0.4,3.7-2.3,3.7c-0.2,0-0.4-0.1-0.5,0c-0.4,0-0.9,0.4-1,1c-0.1,0.4,0,1,0.1,1.4
	c0.2,0.5,0.5,1.9,1.1,2.1c0.6,0.1,1.5-0.9,1.9-1.3C272.9,361.9,273.2,361,273.5,360.3z"/>
<path d="M312.5,326.7c0.1-0.4,0.1-0.5,0.2-0.8c0.4-1.4,1.7-3,1.9-4.4c0.5-2.7-2.1-5.6-4.1-6.7c-3-1.7-6.4-1.4-9.8-1.8
	c-2.2-0.2-4.5-0.8-5.9-2.6c-1.9,0.6-3.5,2.3-4.1,4.2c-0.6,1.7-0.6,3.8,0.6,5c1.5,1.4,3.3,0.8,5,0.5c1.3-0.2,2.7-0.2,4.1,0
	c1.2,0.2,2.8,0.6,3.5,1.8c0.9,1.7,1.5,3.5,1.2,5.4c-0.1,0.5-0.2,1.2,0.2,1.4c0.1,0.1,0.4,0.1,0.4,0.1c1.5,0,3.2-0.1,4.2,1
	c0.2,0.2,0.4,0.5,0.8,0.8c0.2,0.2,0.5,0.1,0.8,0.4C311.9,329.6,312.2,328.1,312.5,326.7z"/>
<path class="st25" d="M282.4,361.4c0.8,0.1,1.4,0.1,2.2,0.1c0.5,0,1.1,0.1,1.7,0.1c1.1,0.1,2.1,0.1,3.2,0.2c0.4,0,0.9,0.1,1.4,0
	c1-0.2,1.8-1.4,1.7-2.6c-0.1-1-1-1.9-1.8-2.4c-0.9-0.6-1.9-1.2-3.1-1.2c-1.3,0-2.7,0.8-3.8,1.3c-0.8,0.4-1.5,0.8-2.2,1.3
	c-0.7,0.5-1.2,1.3-1.4,2.2c0,0.2-0.1,0.4,0.1,0.6c0.1,0.2,0.4,0.2,0.6,0.2C281.3,361.4,281.8,361.4,282.4,361.4z"/>
<path class="st28" d="M297.2,331.5c-0.5,0.4-1,0.8-1.7,0.8c-0.5,0-1.2-0.2-1.8-0.5c-0.4-0.2-0.5,0.2-0.4,0.4c1,1.2,3.3,1.4,4.1-0.1
	C297.8,331.8,297.4,331.4,297.2,331.5z"/>
<path class="st11" d="M318.6,359.4c-2.8,6-6.3,11.5-10.7,16.3c-0.4,0.4,0.2,1.2,0.6,0.8c4.6-4.7,8.3-10.1,10.8-16.5
	C319.6,359.3,318.9,358.9,318.6,359.4z"/>
<path class="st25" d="M307.1,327.3c0,1.1-0.9,2.1-1.9,2.1s-1.9-0.9-1.9-2.1c0-1.1,0.9-2.1,1.9-2.1S307.1,326.3,307.1,327.3z"/>
</svg>
