<?xml version="1.0" encoding="utf-8"?>
<!-- Generator: Adobe Illustrator 23.0.0, SVG Export Plug-In . SVG Version: 6.00 Build 0)  -->
<svg version="1.1" id="Layer_1" xmlns="http://www.w3.org/2000/svg" xmlns:xlink="http://www.w3.org/1999/xlink" x="0px" y="0px"
	 viewBox="0 0 136 118" style="enable-background:new 0 0 136 118;" xml:space="preserve">
<style type="text/css">
	.st0{fill:#F5F2E8;}
	.st1{fill:url(#SVGID_1_);}
	.st2{fill:#494855;}
	.st3{fill:#7C78F0;}
	.st4{fill:#FFE568;}
	.st5{fill:#FFEC8B;}
	.st6{fill:#C4C8D8;}
	.st7{fill:#EFF0F5;}
	.st8{fill:#FC797E;}
	.st9{fill:#323333;}
	.st10{fill:url(#SVGID_2_);}
	.st11{fill:#E1E3EB;}
	.st12{fill:#D9DBE6;}
	.st13{fill:#C5C9D8;}
	.st14{fill:#393842;}
	.st15{fill:#57565E;}
</style>
<g>
	<path class="st0" d="M127.3,75.3L94.5,56.4c-1-0.6-2.7-0.6-3.7,0l-0.4,0.2L90,56.4c-0.8-0.5-2.1-0.6-3.1-0.3l-21.2-6.5
		c-1-0.6-2.7-0.6-3.7,0L9.9,79.9c-1,0.6-1,1.6,0,2.1l26.7,8.2L67,107.7c0.5,0.3,1.2,0.5,1.9,0.6l0,0h5.7l0,0c0.7-0.1,1.4-0.3,2-0.6
		l50.7-29.5C128.7,77.4,128.7,76.1,127.3,75.3z"/>
	<g>
		<g>
			<linearGradient id="SVGID_1_" gradientUnits="userSpaceOnUse" x1="45.8941" y1="79.6037" x2="72.5154" y2="10.8599">
				<stop  offset="1.384730e-02" style="stop-color:#A0A6C0"/>
				<stop  offset="0.3825" style="stop-color:#A0A6C0"/>
				<stop  offset="0.386" style="stop-color:#ADB2C9"/>
				<stop  offset="0.3943" style="stop-color:#C6C9DA"/>
				<stop  offset="0.4029" style="stop-color:#D9DAE6"/>
				<stop  offset="0.4119" style="stop-color:#E3E4EE"/>
				<stop  offset="0.422" style="stop-color:#E7E7F0"/>
			</linearGradient>
			<path class="st1" d="M91.5,52.7L80.4,10.9c-0.2-0.8-0.6-1.3-1.1-1.6l0-0.2L78.5,9l0,0c-0.3,0-0.6,0.1-0.9,0.3L26.7,38.7
				c-1.2,0.7-1.8,2.5-1.4,4l11.1,41.8c0.2,0.9,0.8,1.3,1.5,1.3l0,0l0,0l0,0l0.8,0.1l-0.1-0.2l51.8-29.9
				C91.3,55.2,91.8,53.9,91.5,52.7z"/>
			<path class="st2" d="M78.4,9.3L27.4,38.8c-1.2,0.7-1.8,2.5-1.4,4l11.1,41.8c0.3,1.1,1.3,1.7,2.2,1.1l52-30c0.9-0.5,1.4-1.9,1.1-3
				L81.2,10.8C80.8,9.3,79.5,8.7,78.4,9.3L78.4,9.3z"/>
			<polygon class="st3" points="79.8,10.5 26.9,41 37.7,81.8 90.6,51.3 			"/>
			<g>
				<path class="st4" d="M37.7,51.2l-1.8,1c-0.1,0.1-0.3,0-0.3-0.1l-0.1-0.1C35.4,52,35.3,52,35.2,52L33.5,53
					c-0.1,0.1-0.2,0.2-0.2,0.4l0,0.3c0,0,0,0.1,0,0.1l0.8,3.1c0,0.1,0.2,0.2,0.3,0.1l4.3-2.5c0.1-0.1,0.2-0.2,0.2-0.4l-0.7-2.8
					C38.1,51.2,37.9,51.1,37.7,51.2z"/>
				<path class="st5" d="M37.9,51.5l-4.3,2.5c-0.1,0.1-0.2,0.2-0.2,0.4l0.6,2.6c0,0.1,0.2,0.2,0.3,0.1l4.3-2.5
					c0.1-0.1,0.2-0.2,0.2-0.4l-0.6-2.6C38.1,51.5,38,51.4,37.9,51.5z"/>
			</g>
			<g>
				<path class="st4" d="M35.5,43.9l-1.8,1c-0.1,0.1-0.3,0-0.3-0.1l-0.1-0.1c-0.1-0.1-0.2-0.1-0.3-0.1l-1.6,0.9
					c-0.1,0.1-0.2,0.2-0.2,0.4l0,0.3c0,0,0,0.1,0,0.1l0.8,3.1c0,0.1,0.2,0.2,0.3,0.1l4.3-2.5c0.1-0.1,0.2-0.2,0.2-0.4l-0.7-2.8
					C35.8,43.9,35.7,43.8,35.5,43.9z"/>
				<path class="st5" d="M35.7,44.2l-4.3,2.5c-0.1,0.1-0.2,0.2-0.2,0.4l0.6,2.6c0,0.1,0.2,0.2,0.3,0.1l4.3-2.5
					c0.1-0.1,0.2-0.2,0.2-0.4l-0.6-2.6C35.9,44.2,35.8,44.1,35.7,44.2z"/>
			</g>
			<g>
				<path class="st4" d="M78.6,17.4l-1.8,1c-0.1,0.1-0.3,0-0.3-0.1l-0.1-0.1c-0.1-0.1-0.2-0.1-0.3-0.1l-1.6,0.9
					c-0.1,0.1-0.2,0.2-0.2,0.4l0,0.3c0,0,0,0.1,0,0.1l0.8,3.1c0,0.1,0.2,0.2,0.3,0.1l4.3-2.5c0.1-0.1,0.2-0.2,0.2-0.4L79,17.6
					C79,17.4,78.8,17.3,78.6,17.4z"/>
				<path class="st5" d="M78.8,17.7l-4.3,2.5c-0.1,0.1-0.2,0.2-0.2,0.4l0.6,2.6c0,0.1,0.2,0.2,0.3,0.1l4.3-2.5
					c0.1-0.1,0.2-0.2,0.2-0.4l-0.6-2.6C79,17.7,78.9,17.6,78.8,17.7z"/>
			</g>
			<polygon class="st6" points="90.1,49.6 37.3,80.1 37.7,81.8 90.6,51.3 			"/>
			<g>
				<polygon class="st7" points="79.5,51.3 47.6,69.7 40.8,43.8 39.7,39.9 71.6,21.5 72.6,25.4 				"/>
				<polygon class="st6" points="72.6,25.4 40.8,43.8 39.7,39.9 71.6,21.5 				"/>
				<polygon class="st8" points="41.5,42.4 43.6,41.1 43.2,39.5 41.1,40.7 41.5,42.4 				"/>
				<polygon class="st9" points="68.4,15.1 68.4,65.8 46.3,78.6 46.3,27.8 				"/>
			</g>
		</g>
		<g>
			<g>
				<linearGradient id="SVGID_2_" gradientUnits="userSpaceOnUse" x1="39.0928" y1="81.4664" x2="127.9508" y2="81.4664">
					<stop  offset="1.384730e-02" style="stop-color:#A0A6C0"/>
					<stop  offset="0.3825" style="stop-color:#A0A6C0"/>
					<stop  offset="0.3848" style="stop-color:#A3A9C2"/>
					<stop  offset="0.3997" style="stop-color:#B6BACE"/>
					<stop  offset="0.4155" style="stop-color:#C0C5D6"/>
					<stop  offset="0.4331" style="stop-color:#C4C8D8"/>
					<stop  offset="0.9356" style="stop-color:#C4C8D8"/>
					<stop  offset="0.979" style="stop-color:#C4C8D8"/>
					<stop  offset="1" style="stop-color:#C4C8D8"/>
				</linearGradient>
				<path class="st10" d="M128,76.2C128,76.2,128,76.2,128,76.2v-2l-1.6,0.2L94.7,56.2c-1-0.6-2.6-0.6-3.6,0L42.4,84.4l-3.3,0.4v2.1
					l0,0c0,0.4,0.2,0.8,0.8,1.1l32.2,18.6c1.4,0.8,3.6,0.8,5,0l49.9-29C127.6,77.3,127.9,76.7,128,76.2L128,76.2L128,76.2z"/>
				<path class="st7" d="M126.9,72.8L94.7,54.2c-1-0.6-2.6-0.6-3.6,0L39.8,84c-1,0.6-1,1.5,0,2.1l32.2,18.6c1.4,0.8,3.6,0.8,5,0
					l49.9-29C128.3,74.9,128.3,73.6,126.9,72.8L126.9,72.8z"/>
				<path class="st11" d="M113.6,66.5l-19-11c-0.7-0.4-1.7-0.4-2.4,0L42.1,84.6c-0.7,0.4-0.7,1,0,1.4l19,11c0.7,0.4,1.7,0.4,2.4,0
					l50.1-29.1C114.2,67.5,114.2,66.9,113.6,66.5z"/>
				<path class="st12" d="M111.1,82.3l-9.4-5.5c-0.6-0.3-1.4-0.3-2,0L78.9,88.9c-0.5,0.3-0.5,0.8,0,1.2l9.4,5.5c0.6,0.3,1.4,0.3,2,0
					l20.8-12.1C111.7,83.1,111.7,82.6,111.1,82.3L111.1,82.3z"/>
				<path class="st13" d="M78.9,89.2l20.8-12.1c0.5-0.3,1.4-0.3,2,0l9.4,5.5c0.2,0.1,0.3,0.3,0.4,0.4c0.1-0.3,0-0.5-0.4-0.7
					l-9.4-5.5c-0.6-0.3-1.4-0.3-2,0L78.9,88.9c-0.3,0.2-0.5,0.5-0.4,0.7C78.6,89.5,78.7,89.3,78.9,89.2z"/>
			</g>
			<g>
				<path class="st14" d="M50.6,86.4v-0.3l-0.2,0l-2.3-1.3c-0.2-0.1-0.6-0.1-0.8,0L45,86.2l-0.2,0v0.3v0v0h0c0,0.1,0.1,0.2,0.2,0.2
					l2.3,1.3c0.2,0.1,0.6,0.1,0.8,0l2.3-1.3C50.5,86.6,50.6,86.5,50.6,86.4z"/>
				<path class="st14" d="M65.3,94.9v-0.3l-0.2,0l-2.3-1.3c-0.2-0.1-0.6-0.1-0.8,0l-2.3,1.3l-0.2,0v0.3v0v0h0c0,0.1,0.1,0.2,0.2,0.2
					l2.3,1.3c0.2,0.1,0.6,0.1,0.8,0l2.3-1.3C65.2,95.1,65.3,95,65.3,94.9z"/>
				<path class="st14" d="M68.9,92.8v-0.3l-0.2,0l-2.3-1.3c-0.2-0.1-0.6-0.1-0.8,0l-2.3,1.3l-0.2,0v0.3v0v0h0c0,0.1,0.1,0.2,0.2,0.2
					l2.3,1.3c0.2,0.1,0.6,0.1,0.8,0l2.3-1.3C68.8,93,68.9,92.9,68.9,92.8z"/>
				<path class="st14" d="M72.5,90.7v-0.3l-0.2,0L70,89.1c-0.2-0.1-0.6-0.1-0.8,0l-2.3,1.3l-0.2,0v0.3v0v0h0c0,0.1,0.1,0.2,0.2,0.2
					l2.3,1.3c0.2,0.1,0.6,0.1,0.8,0l2.3-1.3C72.4,90.9,72.5,90.8,72.5,90.7z"/>
				<path class="st14" d="M76.1,88.6v-0.3l-0.2,0L73.6,87c-0.2-0.1-0.6-0.1-0.8,0l-2.3,1.3l-0.2,0v0.3v0v0h0c0,0.1,0.1,0.2,0.2,0.2
					l2.3,1.3c0.2,0.1,0.6,0.1,0.8,0l2.3-1.3C76.1,88.8,76.1,88.7,76.1,88.6z"/>
				<path class="st14" d="M54.2,84.3V84L54,84l-2.3-1.3c-0.2-0.1-0.6-0.1-0.8,0l-2.3,1.3l-0.2,0v0.3v0v0h0c0,0.1,0.1,0.2,0.2,0.2
					l2.3,1.3c0.2,0.1,0.6,0.1,0.8,0l2.3-1.3C54.2,84.5,54.2,84.4,54.2,84.3z"/>
				<path class="st14" d="M59.9,85.2V85l-0.2,0l-2.3-1.3c-0.2-0.1-0.6-0.1-0.8,0L54.3,85l-0.2,0v0.3v0v0h0c0,0.1,0.1,0.2,0.2,0.2
					l2.3,1.3c0.2,0.1,0.6,0.1,0.8,0l2.3-1.3C59.8,85.4,59.9,85.3,59.9,85.2z"/>
				<path class="st14" d="M63.5,83.1v-0.3l-0.2,0L61,81.5c-0.2-0.1-0.6-0.1-0.8,0l-2.3,1.3l-0.2,0v0.3v0v0h0c0,0.1,0.1,0.2,0.2,0.2
					l2.3,1.3c0.2,0.1,0.6,0.1,0.8,0l2.3-1.3C63.5,83.3,63.5,83.2,63.5,83.1z"/>
				<path class="st14" d="M65.4,86.3V86l-0.2,0l-2.3-1.3c-0.2-0.1-0.6-0.1-0.8,0L59.8,86l-0.2,0v0.3v0v0h0c0,0.1,0.1,0.2,0.2,0.2
					l2.3,1.3c0.2,0.1,0.6,0.1,0.8,0l2.3-1.3C65.3,86.5,65.4,86.4,65.4,86.3z"/>
				<path class="st14" d="M69.1,88.4v-0.3l-0.2,0l-2.3-1.3c-0.2-0.1-0.6-0.1-0.8,0l-2.3,1.3l-0.2,0v0.3v0v0h0c0,0.1,0.1,0.2,0.2,0.2
					l2.3,1.3c0.2,0.1,0.6,0.1,0.8,0l2.3-1.3C69,88.6,69.1,88.5,69.1,88.4z"/>
				<path class="st14" d="M72.7,86.3v-0.3l-0.2,0l-2.3-1.3c-0.2-0.1-0.6-0.1-0.8,0l-2.3,1.3l-0.2,0v0.3v0v0h0c0,0.1,0.1,0.2,0.2,0.2
					l2.3,1.3c0.2,0.1,0.6,0.1,0.8,0l2.3-1.3C72.7,86.5,72.7,86.4,72.7,86.3z"/>
				<path class="st14" d="M76.3,84.2V84l-0.2,0l-2.3-1.3c-0.2-0.1-0.6-0.1-0.8,0L70.7,84l-0.2,0v0.3v0v0h0c0,0.1,0.1,0.2,0.2,0.2
					l2.3,1.3c0.2,0.1,0.6,0.1,0.8,0l2.3-1.3C76.3,84.4,76.3,84.3,76.3,84.2z"/>
				<path class="st14" d="M80,82.1v-0.3l-0.2,0l-2.3-1.3c-0.2-0.1-0.6-0.1-0.8,0l-2.3,1.3l-0.2,0v0.3v0v0h0c0,0.1,0.1,0.2,0.2,0.2
					l2.3,1.3c0.2,0.1,0.6,0.1,0.8,0l2.3-1.3C79.9,82.3,80,82.2,80,82.1z"/>
				<path class="st14" d="M83.6,80v-0.3l-0.2,0l-2.3-1.3c-0.2-0.1-0.6-0.1-0.8,0l-2.3,1.3l-0.2,0V80v0v0l0,0c0,0.1,0.1,0.2,0.2,0.2
					l2.3,1.3c0.2,0.1,0.6,0.1,0.8,0l2.3-1.3C83.5,80.2,83.6,80.1,83.6,80z"/>
				<path class="st14" d="M87.2,77.9v-0.3l-0.2,0l-2.3-1.3c-0.2-0.1-0.6-0.1-0.8,0l-2.3,1.3l-0.2,0v0.3v0v0l0,0
					c0,0.1,0.1,0.2,0.2,0.2l2.3,1.3c0.2,0.1,0.6,0.1,0.8,0l2.3-1.3C87.1,78.1,87.2,78,87.2,77.9z"/>
				<path class="st14" d="M90.8,75.8v-0.3l-0.2,0l-2.3-1.3c-0.2-0.1-0.6-0.1-0.8,0l-2.3,1.3l-0.2,0v0.3v0v0l0,0
					c0,0.1,0.1,0.2,0.2,0.2l2.3,1.3c0.2,0.1,0.6,0.1,0.8,0l2.3-1.3C90.8,76,90.8,75.9,90.8,75.8z"/>
				<path class="st14" d="M94.4,73.7v-0.3l-0.2,0l-2.3-1.3c-0.2-0.1-0.6-0.1-0.8,0l-2.3,1.3l-0.2,0v0.3v0v0h0c0,0.1,0.1,0.2,0.2,0.2
					l2.3,1.3c0.2,0.1,0.6,0.1,0.8,0l2.3-1.3C94.4,73.9,94.4,73.8,94.4,73.7z"/>
				<path class="st14" d="M98,71.6v-0.3l-0.2,0L95.5,70c-0.2-0.1-0.6-0.1-0.8,0l-2.3,1.3l-0.2,0v0.3v0v0h0c0,0.1,0.1,0.2,0.2,0.2
					l2.3,1.3c0.2,0.1,0.6,0.1,0.8,0l2.3-1.3C98,71.8,98,71.7,98,71.6z"/>
				<path class="st14" d="M101.9,73.6v-0.3l-0.2,0L99.4,72c-0.2-0.1-0.6-0.1-0.8,0l-2.3,1.3l-0.2,0v0.3v0v0h0c0,0.1,0.1,0.2,0.2,0.2
					l2.3,1.3c0.2,0.1,0.6,0.1,0.8,0l2.3-1.3C101.9,73.8,101.9,73.7,101.9,73.6z"/>
				<path class="st14" d="M105.5,71.5v-0.3l-0.2,0l-2.3-1.3c-0.2-0.1-0.6-0.1-0.8,0l-2.3,1.3l-0.2,0v0.3v0v0h0
					c0,0.1,0.1,0.2,0.2,0.2l2.3,1.3c0.2,0.1,0.6,0.1,0.8,0l2.3-1.3C105.5,71.7,105.5,71.6,105.5,71.5z"/>
				<path class="st14" d="M112.9,67.2v-0.3l-0.2,0l-2.3-1.3c-0.2-0.1-0.6-0.1-0.8,0l-2.3,1.3l-0.2,0v0.3v0v0h0
					c0,0.1,0.1,0.2,0.2,0.2l2.3,1.3c0.2,0.1,0.6,0.1,0.8,0l2.3-1.3C112.8,67.4,112.9,67.3,112.9,67.2z"/>
				<path class="st14" d="M109,64.8l-2.3-1.3c-0.2-0.1-0.6-0.1-0.8,0l-0.3,0.2h0l-2,1.1l-0.2,0V65l-0.1,0.1l-0.2,0v0.3v0v0h0
					c0,0.1,0.1,0.2,0.2,0.2l2.3,1.3c0.2,0.1,0.6,0.1,0.8,0l2.6-1.5c0.1-0.1,0.2-0.2,0.2-0.2v-0.3L109,64.8z"/>
				<path class="st14" d="M101.7,69.5v-0.3l-0.2,0l-2.3-1.3c-0.2-0.1-0.6-0.1-0.8,0L96,69.2l-0.2,0v0.3v0v0h0c0,0.1,0.1,0.2,0.2,0.2
					l2.3,1.3c0.2,0.1,0.6,0.1,0.8,0l2.3-1.3C101.6,69.7,101.7,69.6,101.7,69.5z"/>
				<path class="st14" d="M105.3,67.4v-0.3l-0.2,0l-2.3-1.3c-0.2-0.1-0.6-0.1-0.8,0l-2.3,1.3l-0.2,0v0.3v0v0h0
					c0,0.1,0.1,0.2,0.2,0.2L102,69c0.2,0.1,0.6,0.1,0.8,0l2.3-1.3C105.2,67.6,105.3,67.5,105.3,67.4z"/>
				<path class="st14" d="M69,84.2v-0.3l-0.2,0l-2.3-1.3c-0.2-0.1-0.6-0.1-0.8,0l-2.3,1.3l-0.2,0v0.3v0v0h0c0,0.1,0.1,0.2,0.2,0.2
					l2.3,1.3c0.2,0.1,0.6,0.1,0.8,0l2.3-1.3C69,84.4,69,84.3,69,84.2z"/>
				<path class="st14" d="M72.6,82.1v-0.3l-0.2,0l-2.3-1.3c-0.2-0.1-0.6-0.1-0.8,0L67,81.8l-0.2,0v0.3v0v0h0c0,0.1,0.1,0.2,0.2,0.2
					l2.3,1.3c0.2,0.1,0.6,0.1,0.8,0l2.3-1.3C72.6,82.3,72.6,82.2,72.6,82.1z"/>
				<path class="st14" d="M76.3,80v-0.3l-0.2,0l-2.3-1.3c-0.2-0.1-0.6-0.1-0.8,0l-2.3,1.3l-0.2,0V80v0v0h0c0,0.1,0.1,0.2,0.2,0.2
					l2.3,1.3c0.2,0.1,0.6,0.1,0.8,0l2.3-1.3C76.2,80.2,76.3,80.1,76.3,80z"/>
				<path class="st14" d="M79.9,77.9v-0.3l-0.2,0l-2.3-1.3c-0.2-0.1-0.6-0.1-0.8,0l-2.3,1.3l-0.2,0v0.3v0v0h0c0,0.1,0.1,0.2,0.2,0.2
					l2.3,1.3c0.2,0.1,0.6,0.1,0.8,0l2.3-1.3C79.8,78.1,79.9,78,79.9,77.9z"/>
				<path class="st14" d="M83.5,75.8v-0.3l-0.2,0L81,74.2c-0.2-0.1-0.6-0.1-0.8,0l-2.3,1.3l-0.2,0v0.3v0v0h0c0,0.1,0.1,0.2,0.2,0.2
					l2.3,1.3c0.2,0.1,0.6,0.1,0.8,0l2.3-1.3C83.4,76,83.5,75.9,83.5,75.8z"/>
				<path class="st14" d="M87.1,73.7v-0.3l-0.2,0l-2.3-1.3c-0.2-0.1-0.6-0.1-0.8,0l-2.3,1.3l-0.2,0v0.3v0v0h0c0,0.1,0.1,0.2,0.2,0.2
					l2.3,1.3c0.2,0.1,0.6,0.1,0.8,0l2.3-1.3C87.1,73.9,87.1,73.8,87.1,73.7z"/>
				<path class="st14" d="M90.7,71.6v-0.3l-0.2,0L88.2,70c-0.2-0.1-0.6-0.1-0.8,0l-2.3,1.3l-0.2,0v0.3v0v0h0c0,0.1,0.1,0.2,0.2,0.2
					l2.3,1.3c0.2,0.1,0.6,0.1,0.8,0l2.3-1.3C90.7,71.8,90.7,71.7,90.7,71.6z"/>
				<path class="st14" d="M94.4,69.5v-0.3l-0.2,0l-2.3-1.3c-0.2-0.1-0.6-0.1-0.8,0l-2.3,1.3l-0.2,0v0.3v0v0h0c0,0.1,0.1,0.2,0.2,0.2
					l2.3,1.3c0.2,0.1,0.6,0.1,0.8,0l2.3-1.3C94.3,69.7,94.4,69.6,94.4,69.5z"/>
				<path class="st14" d="M98,67.4v-0.3l-0.2,0l-2.3-1.3c-0.2-0.1-0.6-0.1-0.8,0l-2.3,1.3l-0.2,0v0.3v0v0h0c0,0.1,0.1,0.2,0.2,0.2
					l2.3,1.3c0.2,0.1,0.6,0.1,0.8,0l2.3-1.3C97.9,67.6,98,67.5,98,67.4z"/>
				<path class="st14" d="M67.1,81v-0.3l-0.2,0l-2.3-1.3c-0.2-0.1-0.6-0.1-0.8,0l-2.3,1.3l-0.2,0V81v0v0h0c0,0.1,0.1,0.2,0.2,0.2
					l2.3,1.3c0.2,0.1,0.6,0.1,0.8,0l2.3-1.3C67.1,81.2,67.1,81.1,67.1,81z"/>
				<path class="st14" d="M70.8,78.9v-0.3l-0.2,0l-2.3-1.3c-0.2-0.1-0.6-0.1-0.8,0l-2.3,1.3l-0.2,0v0.3v0v0h0c0,0.1,0.1,0.2,0.2,0.2
					l2.3,1.3c0.2,0.1,0.6,0.1,0.8,0l2.3-1.3C70.7,79.1,70.8,79,70.8,78.9z"/>
				<path class="st14" d="M74.4,76.8v-0.3l-0.2,0l-2.3-1.3c-0.2-0.1-0.6-0.1-0.8,0l-2.3,1.3l-0.2,0v0.3v0v0h0c0,0.1,0.1,0.2,0.2,0.2
					l2.3,1.3c0.2,0.1,0.6,0.1,0.8,0l2.3-1.3C74.3,77,74.4,76.9,74.4,76.8z"/>
				<path class="st14" d="M78,74.7v-0.3l-0.2,0l-2.3-1.3c-0.2-0.1-0.6-0.1-0.8,0l-2.3,1.3l-0.2,0v0.3v0v0h0c0,0.1,0.1,0.2,0.2,0.2
					l2.3,1.3c0.2,0.1,0.6,0.1,0.8,0l2.3-1.3C77.9,74.9,78,74.8,78,74.7z"/>
				<path class="st14" d="M81.6,72.6v-0.3l-0.2,0L79.1,71c-0.2-0.1-0.6-0.1-0.8,0L76,72.3l-0.2,0v0.3v0v0h0c0,0.1,0.1,0.2,0.2,0.2
					l2.3,1.3c0.2,0.1,0.6,0.1,0.8,0l2.3-1.3C81.6,72.8,81.6,72.7,81.6,72.6z"/>
				<path class="st14" d="M85.2,70.5v-0.3l-0.2,0l-2.3-1.3c-0.2-0.1-0.6-0.1-0.8,0l-2.3,1.3l-0.2,0v0.3v0v0h0c0,0.1,0.1,0.2,0.2,0.2
					l2.3,1.3c0.2,0.1,0.6,0.1,0.8,0l2.3-1.3C85.2,70.7,85.2,70.6,85.2,70.5z"/>
				<path class="st14" d="M88.9,68.4v-0.3l-0.2,0l-2.3-1.3c-0.2-0.1-0.6-0.1-0.8,0l-2.3,1.3l-0.2,0v0.3v0v0h0c0,0.1,0.1,0.2,0.2,0.2
					l2.3,1.3c0.2,0.1,0.6,0.1,0.8,0l2.3-1.3C88.8,68.6,88.9,68.5,88.9,68.4z"/>
				<path class="st14" d="M92.5,66.3V66l-0.2,0L90,64.7c-0.2-0.1-0.6-0.1-0.8,0L86.8,66l-0.2,0v0.3v0v0h0c0,0.1,0.1,0.2,0.2,0.2
					l2.3,1.3c0.2,0.1,0.6,0.1,0.8,0l2.3-1.3C92.4,66.5,92.5,66.4,92.5,66.3z"/>
				<path class="st14" d="M96.1,64.2v-0.3l-0.2,0l-2.3-1.3c-0.2-0.1-0.6-0.1-0.8,0l-2.3,1.3l-0.2,0v0.3v0v0l0,0
					c0,0.1,0.1,0.2,0.2,0.2l2.3,1.3c0.2,0.1,0.6,0.1,0.8,0l2.3-1.3C96,64.4,96.1,64.3,96.1,64.2z"/>
				<path class="st14" d="M57.8,82.2v-0.3l-0.2,0l-2.3-1.3c-0.2-0.1-0.6-0.1-0.8,0l-2.3,1.3L52,82v0.3v0v0h0c0,0.1,0.1,0.2,0.2,0.2
					l2.3,1.3c0.2,0.1,0.6,0.1,0.8,0l2.3-1.3C57.8,82.4,57.8,82.3,57.8,82.2z"/>
				<path class="st14" d="M61.5,80.1v-0.3l-0.2,0l-2.3-1.3c-0.2-0.1-0.6-0.1-0.8,0l-2.3,1.3l-0.2,0v0.3v0v0h0c0,0.1,0.1,0.2,0.2,0.2
					l2.3,1.3c0.2,0.1,0.6,0.1,0.8,0l2.3-1.3C61.4,80.3,61.5,80.2,61.5,80.1z"/>
				<path class="st14" d="M65.1,78v-0.3l-0.2,0l-2.3-1.3c-0.2-0.1-0.6-0.1-0.8,0l-2.3,1.3l-0.2,0V78v0v0h0c0,0.1,0.1,0.2,0.2,0.2
					l2.3,1.3c0.2,0.1,0.6,0.1,0.8,0l2.3-1.3C65,78.2,65.1,78.1,65.1,78z"/>
				<path class="st14" d="M68.7,75.9v-0.3l-0.2,0l-2.3-1.3c-0.2-0.1-0.6-0.1-0.8,0l-2.3,1.3l-0.2,0v0.3v0v0h0c0,0.1,0.1,0.2,0.2,0.2
					l2.3,1.3c0.2,0.1,0.6,0.1,0.8,0l2.3-1.3C68.6,76.1,68.7,76,68.7,75.9z"/>
				<path class="st14" d="M72.3,73.8v-0.3l-0.2,0l-2.3-1.3c-0.2-0.1-0.6-0.1-0.8,0l-2.3,1.3l-0.2,0v0.3v0v0h0c0,0.1,0.1,0.2,0.2,0.2
					l2.3,1.3c0.2,0.1,0.6,0.1,0.8,0l2.3-1.3C72.3,74,72.3,73.9,72.3,73.8z"/>
				<path class="st14" d="M75.9,71.7v-0.3l-0.2,0l-2.3-1.3c-0.2-0.1-0.6-0.1-0.8,0l-2.3,1.3l-0.2,0v0.3v0v0h0c0,0.1,0.1,0.2,0.2,0.2
					l2.3,1.3c0.2,0.1,0.6,0.1,0.8,0l2.3-1.3C75.9,71.9,75.9,71.8,75.9,71.7z"/>
				<path class="st14" d="M79.5,69.6v-0.3l-0.2,0L77,68c-0.2-0.1-0.6-0.1-0.8,0l-2.3,1.3l-0.2,0v0.3v0v0h0c0,0.1,0.1,0.2,0.2,0.2
					l2.3,1.3c0.2,0.1,0.6,0.1,0.8,0l2.3-1.3C79.5,69.8,79.5,69.7,79.5,69.6z"/>
				<path class="st14" d="M83.2,67.5v-0.3l-0.2,0l-2.3-1.3c-0.2-0.1-0.6-0.1-0.8,0l-2.3,1.3l-0.2,0v0.3v0v0h0c0,0.1,0.1,0.2,0.2,0.2
					l2.3,1.3c0.2,0.1,0.6,0.1,0.8,0l2.3-1.3C83.1,67.7,83.2,67.6,83.2,67.5z"/>
				<path class="st14" d="M86.8,65.4v-0.3l-0.2,0l-2.3-1.3c-0.2-0.1-0.6-0.1-0.8,0l-2.3,1.3l-0.2,0v0.3v0v0h0c0,0.1,0.1,0.2,0.2,0.2
					l2.3,1.3c0.2,0.1,0.6,0.1,0.8,0l2.3-1.3C86.7,65.6,86.8,65.5,86.8,65.4z"/>
				<path class="st14" d="M90.4,63.3V63l-0.2,0l-2.3-1.3c-0.2-0.1-0.6-0.1-0.8,0L84.8,63l-0.2,0v0.3v0v0h0c0,0.1,0.1,0.2,0.2,0.2
					l2.3,1.3c0.2,0.1,0.6,0.1,0.8,0l2.3-1.3C90.3,63.5,90.4,63.4,90.4,63.3z"/>
				<path class="st14" d="M94,61.2v-0.3l-0.2,0l-2.3-1.3c-0.2-0.1-0.6-0.1-0.8,0l-2.3,1.3l-0.2,0v0.3v0v0h0c0,0.1,0.1,0.2,0.2,0.2
					l2.3,1.3c0.2,0.1,0.6,0.1,0.8,0l2.3-1.3C94,61.4,94,61.3,94,61.2z"/>
				<path class="st14" d="M98.2,58.5l-0.2,0l-2.3-1.3c-0.2-0.1-0.6-0.1-0.8,0L92,58.8l-0.2,0l0,0.2c0,0,0,0,0,0l0,0l0,0
					c0,0.1,0.1,0.2,0.2,0.2l2.3,1.3c0.2,0.1,0.6,0.1,0.8,0L98,59c0.1-0.1,0.2-0.2,0.2-0.3l0,0V58.5z"/>
				<path class="st14" d="M98.3,75.7v-0.3l-0.2,0l-2.3-1.3C95.6,74,95.4,74,95.2,74c-0.1,0-0.1,0-0.2,0.1l-2.3,1.3l-0.2,0v0.1
					l-16.1,9.3l0,0l-2.3,1.3l-0.2,0v0.3v0v0h0c0,0,0,0,0,0c0,0,0,0,0,0.1c0,0,0,0,0,0c0,0,0,0,0,0c0,0,0,0,0,0c0,0,0,0,0,0
					c0,0,0,0,0.1,0.1l0,0l2.3,1.3c0.1,0,0.1,0.1,0.2,0.1c0.1,0,0.1,0,0.2,0c0.2,0,0.3,0,0.4-0.1l2.3-1.3l0,0l18.6-10.8
					C98.3,75.9,98.3,75.8,98.3,75.7z"/>
				<path class="st14" d="M51.1,81.9C51.1,81.9,51.1,81.9,51.1,81.9v-0.3l-0.1,0c0,0,0,0,0,0l-0.6-0.4c-0.2-0.1-0.6-0.1-0.8,0
					l-2.1,1.2L47,82.6l0,0.3c0,0.1,0.1,0.2,0.2,0.2l0.6,0.4c0.2,0.1,0.6,0.1,0.8,0l2.3-1.3C51.1,82.1,51.1,82,51.1,81.9L51.1,81.9
					L51.1,81.9z"/>
				<path class="st14" d="M54.7,79.8C54.7,79.8,54.7,79.8,54.7,79.8v-0.3l-0.1,0c0,0,0,0,0,0l-0.6-0.4c-0.2-0.1-0.6-0.1-0.8,0
					L51,80.4l-0.3,0.1l0,0.3c0,0.1,0.1,0.2,0.2,0.2l0.6,0.4c0.2,0.1,0.6,0.1,0.8,0l2.3-1.3C54.7,80,54.7,79.9,54.7,79.8L54.7,79.8
					L54.7,79.8z"/>
				<path class="st14" d="M58.4,77.7C58.4,77.7,58.4,77.7,58.4,77.7v-0.3l-0.1,0c0,0,0,0,0,0l-0.6-0.4c-0.2-0.1-0.6-0.1-0.8,0
					l-2.1,1.2l-0.3,0.1l0,0.3c0,0.1,0.1,0.2,0.2,0.2l0.6,0.4c0.2,0.1,0.6,0.1,0.8,0l2.3-1.3C58.3,77.9,58.4,77.8,58.4,77.7
					L58.4,77.7L58.4,77.7z"/>
				<path class="st14" d="M62,75.6C62,75.6,62,75.6,62,75.6v-0.3l-0.1,0c0,0,0,0,0,0L61.2,75c-0.2-0.1-0.6-0.1-0.8,0l-2.1,1.2
					l-0.3,0.1l0,0.3c0,0.1,0.1,0.2,0.2,0.2l0.6,0.4c0.2,0.1,0.6,0.1,0.8,0l2.3-1.3C61.9,75.8,62,75.7,62,75.6L62,75.6L62,75.6z"/>
				<path class="st14" d="M65.6,73.5C65.6,73.5,65.6,73.5,65.6,73.5v-0.3l-0.1,0c0,0,0,0,0,0l-0.6-0.4c-0.2-0.1-0.6-0.1-0.8,0
					l-2.1,1.2l-0.3,0.1l0,0.3c0,0.1,0.1,0.2,0.2,0.2l0.6,0.4c0.2,0.1,0.6,0.1,0.8,0l2.3-1.3C65.5,73.6,65.6,73.6,65.6,73.5
					L65.6,73.5L65.6,73.5z"/>
				<path class="st14" d="M69.2,71.4C69.2,71.4,69.2,71.4,69.2,71.4v-0.3l-0.1,0c0,0,0,0,0,0l-0.6-0.4c-0.2-0.1-0.6-0.1-0.8,0
					L65.4,72l-0.3,0.1l0,0.3c0,0.1,0.1,0.2,0.2,0.2l0.6,0.4c0.2,0.1,0.6,0.1,0.8,0l2.3-1.3C69.2,71.5,69.2,71.5,69.2,71.4L69.2,71.4
					L69.2,71.4z"/>
				<path class="st14" d="M72.8,69.3C72.8,69.3,72.8,69.3,72.8,69.3V69l-0.1,0c0,0,0,0,0,0L72,68.7c-0.2-0.1-0.6-0.1-0.8,0l-2.1,1.2
					L68.7,70l0,0.3c0,0.1,0.1,0.2,0.2,0.2l0.6,0.4c0.2,0.1,0.6,0.1,0.8,0l2.3-1.3C72.8,69.4,72.8,69.4,72.8,69.3L72.8,69.3
					L72.8,69.3z"/>
				<path class="st14" d="M76.5,67.2C76.5,67.2,76.5,67.2,76.5,67.2v-0.3l-0.1,0c0,0,0,0,0,0l-0.6-0.4c-0.2-0.1-0.6-0.1-0.8,0
					l-2.1,1.2l-0.3,0.1l0,0.3c0,0.1,0.1,0.2,0.2,0.2l0.6,0.4c0.2,0.1,0.6,0.1,0.8,0l2.3-1.3C76.4,67.3,76.5,67.3,76.5,67.2
					L76.5,67.2L76.5,67.2z"/>
				<path class="st14" d="M80.1,65.1C80.1,65.1,80.1,65.1,80.1,65.1v-0.3l-0.1,0c0,0,0,0,0,0l-0.6-0.4c-0.2-0.1-0.6-0.1-0.8,0
					l-2.1,1.2L76,65.8l0,0.3c0,0.1,0.1,0.2,0.2,0.2l0.6,0.4c0.2,0.1,0.6,0.1,0.8,0l2.3-1.3C80,65.2,80.1,65.1,80.1,65.1L80.1,65.1
					L80.1,65.1z"/>
				<path class="st14" d="M83.7,63C83.7,63,83.7,63,83.7,63v-0.3l-0.1,0c0,0,0,0,0,0l-0.6-0.4c-0.2-0.1-0.6-0.1-0.8,0l-2.1,1.2
					l-0.3,0.1l0,0.3c0,0.1,0.1,0.2,0.2,0.2l0.6,0.4c0.2,0.1,0.6,0.1,0.8,0l2.3-1.3C83.6,63.1,83.7,63,83.7,63L83.7,63L83.7,63z"/>
				<path class="st14" d="M87.3,60.9C87.3,60.9,87.3,60.8,87.3,60.9v-0.3l-0.1,0c0,0,0,0,0,0l-0.6-0.4c-0.2-0.1-0.6-0.1-0.8,0
					l-2.1,1.2l-0.3,0.1l0,0.3c0,0.1,0.1,0.2,0.2,0.2l0.6,0.4c0.2,0.1,0.6,0.1,0.8,0l2.3-1.3C87.3,61,87.3,60.9,87.3,60.9L87.3,60.9
					L87.3,60.9z"/>
				<path class="st14" d="M90.9,58.7C90.9,58.7,90.9,58.7,90.9,58.7v-0.3l-0.1,0c0,0,0,0,0,0l-0.6-0.4c-0.2-0.1-0.6-0.1-0.8,0
					l-2.1,1.2l-0.3,0.1l0,0.3c0,0.1,0.1,0.2,0.2,0.2l0.6,0.4c0.2,0.1,0.6,0.1,0.8,0l2.3-1.3C90.9,58.9,90.9,58.8,90.9,58.7
					L90.9,58.7L90.9,58.7z"/>
				<path class="st14" d="M94.6,56.6C94.6,56.6,94.6,56.6,94.6,56.6v-0.3l-0.1,0c0,0,0,0,0,0L93.8,56c-0.2-0.1-0.6-0.1-0.8,0
					l-2.1,1.2l-0.3,0.1l0,0.3c0,0.1,0.1,0.2,0.2,0.2l0.6,0.4c0.2,0.1,0.6,0.1,0.8,0l2.3-1.3C94.5,56.8,94.6,56.7,94.6,56.6
					L94.6,56.6L94.6,56.6z"/>
				<path class="st14" d="M56.3,87.1l-0.2,0c0,0,0,0,0,0l-2.3-1.3c-0.2-0.1-0.6-0.1-0.8,0l-4.3,2.5l-0.2,0v0.2c0,0,0,0,0,0v0l0,0
					c0,0.1,0.1,0.2,0.2,0.2l2.3,1.3c0.2,0.1,0.6,0.1,0.8,0l4.4-2.5c0.1-0.1,0.2-0.2,0.2-0.2l0,0V87.1z"/>
				<path class="st14" d="M61.8,88.1l-0.2,0c0,0,0,0,0,0l-2.3-1.3c-0.2-0.1-0.6-0.1-0.8,0l-6,3.5l-0.3,0.1v0.3l0,0
					c0,0.1,0.1,0.2,0.2,0.2l2.3,1.3c0.2,0.1,0.6,0.1,0.8,0l6.2-3.6c0.1-0.1,0.2-0.2,0.2-0.2l0,0V88.1z"/>
				<path class="st14" d="M65.5,90.3l-0.2,0c0,0,0,0,0,0L63,89c-0.2-0.1-0.6-0.1-0.8,0l-6,3.5l-0.3,0.1v0.3l0,0
					c0,0.1,0.1,0.2,0.2,0.2l2.3,1.3c0.2,0.1,0.6,0.1,0.8,0l6.2-3.6c0.1-0.1,0.2-0.2,0.2-0.2l0,0V90.3z"/>
				<path class="st14" d="M101.9,60.6l-0.2,0c0,0,0,0,0,0l-2.3-1.3c-0.2-0.1-0.6-0.1-0.8,0l-4.4,2.5l-0.2,0v0.2c0,0,0,0,0,0v0l0,0
					c0,0.1,0.1,0.2,0.2,0.2l2.3,1.3c0.2,0.1,0.6,0.1,0.8,0l4.4-2.6c0.1-0.1,0.2-0.2,0.2-0.2l0,0V60.6z"/>
				<path class="st14" d="M105.4,62.7l-2.3-1.3c-0.2-0.1-0.6-0.1-0.8,0L95.9,65c-0.2,0.1-0.2,0.4,0,0.5l2.3,1.3
					c0.2,0.1,0.6,0.1,0.8,0l6.3-3.6C105.6,63.1,105.6,62.9,105.4,62.7L105.4,62.7z"/>
				<path class="st14" d="M107.5,68.4C107.5,68.4,107.5,68.4,107.5,68.4v-0.3l-0.1,0c0,0,0,0,0,0l-0.6-0.4c-0.2-0.1-0.6-0.1-0.8,0
					l-2.1,1.2l-0.3,0.1l0,0.3c0,0.1,0.1,0.2,0.2,0.2l0.6,0.4c0.2,0.1,0.6,0.1,0.8,0l2.3-1.3C107.4,68.6,107.5,68.5,107.5,68.4
					L107.5,68.4L107.5,68.4z"/>
				<path class="st14" d="M109.2,69.4C109.2,69.4,109.2,69.4,109.2,69.4v-0.3l-0.1,0c0,0,0,0,0,0l-0.6-0.4c-0.2-0.1-0.6-0.1-0.8,0
					l-2.1,1.2l-0.3,0.1l0,0.3c0,0.1,0.1,0.2,0.2,0.2l0.6,0.4c0.2,0.1,0.6,0.1,0.8,0l2.3-1.3C109.1,69.5,109.2,69.5,109.2,69.4
					L109.2,69.4L109.2,69.4z"/>
				<path class="st14" d="M68.9,88.2l-2.3-1.3c-0.2-0.1-0.6-0.1-0.8,0l-2.3,1.3c-0.2,0.1-0.2,0.4,0,0.5l2.3,1.3
					c0.2,0.1,0.6,0.1,0.8,0l2.3-1.3C69.2,88.5,69.2,88.3,68.9,88.2L68.9,88.2z"/>
			</g>
			<path class="st14" d="M47.5,84L47.5,84l0-0.3l-0.2,0c0,0,0,0,0,0l-0.6-0.4c-0.2-0.1-0.6-0.1-0.8,0l-2.7,1.5L42.8,85v0.3l0,0
				c0,0.1,0.1,0.2,0.2,0.2l0.6,0.4c0.2,0.1,0.6,0.1,0.8,0l2.9-1.7C47.5,84.2,47.5,84.1,47.5,84z"/>
			<g>
				<path class="st15" d="M50.4,85.9l-2.3-1.3c-0.2-0.1-0.6-0.1-0.8,0l-2.3,1.3c-0.2,0.1-0.2,0.4,0,0.5l2.3,1.3
					c0.2,0.1,0.6,0.1,0.8,0l2.3-1.3C50.7,86.3,50.6,86,50.4,85.9L50.4,85.9z"/>
				<path class="st15" d="M54,83.8l-2.3-1.3c-0.2-0.1-0.6-0.1-0.8,0l-2.3,1.3c-0.2,0.1-0.2,0.4,0,0.5l2.3,1.3c0.2,0.1,0.6,0.1,0.8,0
					l2.3-1.3C54.3,84.2,54.3,83.9,54,83.8L54,83.8z"/>
				<path class="st15" d="M57.7,81.7l-2.3-1.3c-0.2-0.1-0.6-0.1-0.8,0l-2.3,1.3c-0.2,0.1-0.2,0.4,0,0.5l2.3,1.3
					c0.2,0.1,0.6,0.1,0.8,0l2.3-1.3C57.9,82.1,57.9,81.8,57.7,81.7L57.7,81.7z"/>
				<path class="st15" d="M61.3,79.6L59,78.3c-0.2-0.1-0.6-0.1-0.8,0l-2.3,1.3c-0.2,0.1-0.2,0.4,0,0.5l2.3,1.3
					c0.2,0.1,0.6,0.1,0.8,0l2.3-1.3C61.5,80,61.5,79.7,61.3,79.6L61.3,79.6z"/>
				<path class="st15" d="M64.9,77.5l-2.3-1.3c-0.2-0.1-0.6-0.1-0.8,0l-2.3,1.3c-0.2,0.1-0.2,0.4,0,0.5l2.3,1.3
					c0.2,0.1,0.6,0.1,0.8,0l2.3-1.3C65.1,77.9,65.1,77.6,64.9,77.5L64.9,77.5z"/>
				<path class="st15" d="M68.5,75.4l-2.3-1.3c-0.2-0.1-0.6-0.1-0.8,0L63,75.4c-0.2,0.1-0.2,0.4,0,0.5l2.3,1.3
					c0.2,0.1,0.6,0.1,0.8,0l2.3-1.3C68.7,75.7,68.7,75.5,68.5,75.4L68.5,75.4z"/>
				<path class="st15" d="M72.1,73.3L69.8,72c-0.2-0.1-0.6-0.1-0.8,0l-2.3,1.3c-0.2,0.1-0.2,0.4,0,0.5l2.3,1.3
					c0.2,0.1,0.6,0.1,0.8,0l2.3-1.3C72.4,73.6,72.4,73.4,72.1,73.3L72.1,73.3z"/>
				<path class="st15" d="M75.8,71.2l-2.3-1.3c-0.2-0.1-0.6-0.1-0.8,0l-2.3,1.3c-0.2,0.1-0.2,0.4,0,0.5l2.3,1.3
					c0.2,0.1,0.6,0.1,0.8,0l2.3-1.3C76,71.5,76,71.3,75.8,71.2L75.8,71.2z"/>
				<path class="st15" d="M79.4,69.1L77,67.7c-0.2-0.1-0.6-0.1-0.8,0l-2.3,1.3c-0.2,0.1-0.2,0.4,0,0.5l2.3,1.3
					c0.2,0.1,0.6,0.1,0.8,0l2.3-1.3C79.6,69.4,79.6,69.2,79.4,69.1L79.4,69.1z"/>
				<path class="st15" d="M83,67l-2.3-1.3c-0.2-0.1-0.6-0.1-0.8,0L77.5,67c-0.2,0.1-0.2,0.4,0,0.5l2.3,1.3c0.2,0.1,0.6,0.1,0.8,0
					l2.3-1.3C83.2,67.3,83.2,67.1,83,67L83,67z"/>
				<path class="st15" d="M86.6,64.9l-2.3-1.3c-0.2-0.1-0.6-0.1-0.8,0l-2.3,1.3c-0.2,0.1-0.2,0.4,0,0.5l2.3,1.3
					c0.2,0.1,0.6,0.1,0.8,0l2.3-1.3C86.8,65.2,86.8,65,86.6,64.9L86.6,64.9z"/>
				<path class="st15" d="M63.3,82.6L61,81.3c-0.2-0.1-0.6-0.1-0.8,0l-2.3,1.3c-0.2,0.1-0.2,0.4,0,0.5l2.3,1.3
					c0.2,0.1,0.6,0.1,0.8,0l2.3-1.3C63.6,83,63.6,82.8,63.3,82.6L63.3,82.6z"/>
				<path class="st15" d="M67,80.5l-2.3-1.3c-0.2-0.1-0.6-0.1-0.8,0l-2.3,1.3c-0.2,0.1-0.2,0.4,0,0.5l2.3,1.3c0.2,0.1,0.6,0.1,0.8,0
					L67,81C67.2,80.9,67.2,80.7,67,80.5L67,80.5z"/>
				<path class="st15" d="M70.6,78.4l-2.3-1.3c-0.2-0.1-0.6-0.1-0.8,0l-2.3,1.3c-0.2,0.1-0.2,0.4,0,0.5l2.3,1.3
					c0.2,0.1,0.6,0.1,0.8,0l2.3-1.3C70.8,78.8,70.8,78.5,70.6,78.4L70.6,78.4z"/>
				<path class="st15" d="M74.2,76.3L71.9,75c-0.2-0.1-0.6-0.1-0.8,0l-2.3,1.3c-0.2,0.1-0.2,0.4,0,0.5l2.3,1.3
					c0.2,0.1,0.6,0.1,0.8,0l2.3-1.3C74.4,76.7,74.4,76.4,74.2,76.3L74.2,76.3z"/>
				<path class="st15" d="M77.8,74.2l-2.3-1.3c-0.2-0.1-0.6-0.1-0.8,0l-2.3,1.3c-0.2,0.1-0.2,0.4,0,0.5l2.3,1.3
					c0.2,0.1,0.6,0.1,0.8,0l2.3-1.3C78.1,74.6,78.1,74.3,77.8,74.2L77.8,74.2z"/>
				<path class="st15" d="M81.4,72.1l-2.3-1.3c-0.2-0.1-0.6-0.1-0.8,0L76,72.1c-0.2,0.1-0.2,0.4,0,0.5l2.3,1.3
					c0.2,0.1,0.6,0.1,0.8,0l2.3-1.3C81.7,72.5,81.7,72.2,81.4,72.1L81.4,72.1z"/>
				<path class="st15" d="M85.1,70l-2.3-1.3c-0.2-0.1-0.6-0.1-0.8,0L79.6,70c-0.2,0.1-0.2,0.4,0,0.5l2.3,1.3c0.2,0.1,0.6,0.1,0.8,0
					l2.3-1.3C85.3,70.4,85.3,70.1,85.1,70L85.1,70z"/>
				<path class="st15" d="M88.7,67.9l-2.3-1.3c-0.2-0.1-0.6-0.1-0.8,0l-2.3,1.3c-0.2,0.1-0.2,0.4,0,0.5l2.3,1.3
					c0.2,0.1,0.6,0.1,0.8,0l2.3-1.3C88.9,68.3,88.9,68,88.7,67.9L88.7,67.9z"/>
				<path class="st15" d="M92.3,65.8L90,64.5c-0.2-0.1-0.6-0.1-0.8,0l-2.3,1.3c-0.2,0.1-0.2,0.4,0,0.5l2.3,1.3
					c0.2,0.1,0.6,0.1,0.8,0l2.3-1.3C92.5,66.1,92.5,65.9,92.3,65.8L92.3,65.8z"/>
				<path class="st15" d="M95.9,63.7l-2.3-1.3c-0.2-0.1-0.6-0.1-0.8,0l-2.3,1.3c-0.2,0.1-0.2,0.4,0,0.5l2.3,1.3
					c0.2,0.1,0.6,0.1,0.8,0l2.3-1.3C96.2,64,96.2,63.8,95.9,63.7L95.9,63.7z"/>
				<path class="st15" d="M90.2,62.8l-2.3-1.3c-0.2-0.1-0.6-0.1-0.8,0l-2.3,1.3c-0.2,0.1-0.2,0.4,0,0.5l2.3,1.3
					c0.2,0.1,0.6,0.1,0.8,0l2.3-1.3C90.5,63.1,90.5,62.9,90.2,62.8L90.2,62.8z"/>
				<path class="st15" d="M93.8,60.7l-2.3-1.3c-0.2-0.1-0.6-0.1-0.8,0l-2.3,1.3c-0.2,0.1-0.2,0.4,0,0.5l2.3,1.3
					c0.2,0.1,0.6,0.1,0.8,0l2.3-1.3C94.1,61,94.1,60.8,93.8,60.7L93.8,60.7z"/>
				<path class="st15" d="M65.1,94.4L62.8,93c-0.2-0.1-0.6-0.1-0.8,0l-2.3,1.3c-0.2,0.1-0.2,0.4,0,0.5l2.3,1.3
					c0.2,0.1,0.6,0.1,0.8,0l2.3-1.3C65.3,94.7,65.3,94.5,65.1,94.4L65.1,94.4z"/>
				<path class="st15" d="M68.7,92.3l-2.3-1.3c-0.2-0.1-0.6-0.1-0.8,0l-2.3,1.3c-0.2,0.1-0.2,0.4,0,0.5l2.3,1.3
					c0.2,0.1,0.6,0.1,0.8,0l2.3-1.3C68.9,92.6,68.9,92.4,68.7,92.3L68.7,92.3z"/>
				<path class="st15" d="M72.3,90.2L70,88.8c-0.2-0.1-0.6-0.1-0.8,0l-2.3,1.3c-0.2,0.1-0.2,0.4,0,0.5l2.3,1.3
					c0.2,0.1,0.6,0.1,0.8,0l2.3-1.3C72.6,90.5,72.6,90.3,72.3,90.2L72.3,90.2z"/>
				<path class="st15" d="M75.9,88.1l-2.3-1.3c-0.2-0.1-0.6-0.1-0.8,0l-2.3,1.3c-0.2,0.1-0.2,0.4,0,0.5l2.3,1.3
					c0.2,0.1,0.6,0.1,0.8,0l2.3-1.3C76.2,88.4,76.2,88.2,75.9,88.1L75.9,88.1z"/>
				<path class="st15" d="M59.7,84.7l-2.3-1.3c-0.2-0.1-0.6-0.1-0.8,0l-2.3,1.3c-0.2,0.1-0.2,0.4,0,0.5l2.3,1.3
					c0.2,0.1,0.6,0.1,0.8,0l2.3-1.3C60,85.1,60,84.9,59.7,84.7L59.7,84.7z"/>
				<path class="st15" d="M98,58.2l-2.3-1.3c-0.2-0.1-0.6-0.1-0.8,0L92,58.6c-0.2,0.1-0.2,0.4,0,0.5l2.3,1.3c0.2,0.1,0.6,0.1,0.8,0
					l2.9-1.7C98.3,58.6,98.3,58.4,98,58.2L98,58.2z"/>
				<path class="st15" d="M98.1,75.2l-2.3-1.3c-0.2-0.1-0.6-0.1-0.8,0L74.1,86c-0.2,0.1-0.2,0.4,0,0.5l2.3,1.3
					c0.2,0.1,0.6,0.1,0.8,0l20.9-12.1C98.4,75.5,98.4,75.3,98.1,75.2L98.1,75.2z"/>
				<path class="st15" d="M51,81.4L50.3,81c-0.2-0.1-0.6-0.1-0.8,0l-2.3,1.3c-0.2,0.1-0.2,0.4,0,0.5l0.6,0.4c0.2,0.1,0.6,0.1,0.8,0
					l2.3-1.3C51.2,81.7,51.2,81.5,51,81.4L51,81.4z"/>
				<path class="st15" d="M54.6,79.3l-0.6-0.4c-0.2-0.1-0.6-0.1-0.8,0l-2.3,1.3c-0.2,0.1-0.2,0.4,0,0.5l0.6,0.4
					c0.2,0.1,0.6,0.1,0.8,0l2.3-1.3C54.8,79.6,54.8,79.4,54.6,79.3L54.6,79.3z"/>
				<path class="st15" d="M58.2,77.2l-0.6-0.4c-0.2-0.1-0.6-0.1-0.8,0l-2.3,1.3c-0.2,0.1-0.2,0.4,0,0.5L55,79c0.2,0.1,0.6,0.1,0.8,0
					l2.3-1.3C58.4,77.5,58.4,77.3,58.2,77.2L58.2,77.2z"/>
				<path class="st15" d="M61.8,75.1l-0.6-0.4c-0.2-0.1-0.6-0.1-0.8,0L58,76.1c-0.2,0.1-0.2,0.4,0,0.5l0.6,0.4
					c0.2,0.1,0.6,0.1,0.8,0l2.3-1.3C62,75.4,62,75.2,61.8,75.1L61.8,75.1z"/>
				<path class="st15" d="M65.4,73l-0.6-0.4c-0.2-0.1-0.6-0.1-0.8,0l-2.3,1.3c-0.2,0.1-0.2,0.4,0,0.5l0.6,0.4c0.2,0.1,0.6,0.1,0.8,0
					l2.3-1.3C65.7,73.3,65.7,73.1,65.4,73L65.4,73z"/>
				<path class="st15" d="M69,70.9l-0.6-0.4c-0.2-0.1-0.6-0.1-0.8,0l-2.3,1.3c-0.2,0.1-0.2,0.4,0,0.5l0.6,0.4c0.2,0.1,0.6,0.1,0.8,0
					l2.3-1.3C69.3,71.2,69.3,71,69,70.9L69,70.9z"/>
				<path class="st15" d="M72.7,68.8L72,68.4c-0.2-0.1-0.6-0.1-0.8,0l-2.3,1.3c-0.2,0.1-0.2,0.4,0,0.5l0.6,0.4
					c0.2,0.1,0.6,0.1,0.8,0l2.3-1.3C72.9,69.1,72.9,68.9,72.7,68.8L72.7,68.8z"/>
				<path class="st15" d="M76.3,66.7l-0.6-0.4c-0.2-0.1-0.6-0.1-0.8,0l-2.3,1.3c-0.2,0.1-0.2,0.4,0,0.5l0.6,0.4
					c0.2,0.1,0.6,0.1,0.8,0l2.3-1.3C76.5,67,76.5,66.8,76.3,66.7L76.3,66.7z"/>
				<path class="st15" d="M79.9,64.6l-0.6-0.4c-0.2-0.1-0.6-0.1-0.8,0l-2.3,1.3c-0.2,0.1-0.2,0.4,0,0.5l0.6,0.4
					c0.2,0.1,0.6,0.1,0.8,0l2.3-1.3C80.1,64.9,80.1,64.7,79.9,64.6L79.9,64.6z"/>
				<path class="st15" d="M83.5,62.5l-0.6-0.4c-0.2-0.1-0.6-0.1-0.8,0l-2.3,1.3c-0.2,0.1-0.2,0.4,0,0.5l0.6,0.4
					c0.2,0.1,0.6,0.1,0.8,0l2.3-1.3C83.8,62.8,83.8,62.6,83.5,62.5L83.5,62.5z"/>
				<path class="st15" d="M87.1,60.3L86.5,60c-0.2-0.1-0.6-0.1-0.8,0l-2.3,1.3c-0.2,0.1-0.2,0.4,0,0.5l0.6,0.4
					c0.2,0.1,0.6,0.1,0.8,0l2.3-1.3C87.4,60.7,87.4,60.5,87.1,60.3L87.1,60.3z"/>
				<path class="st15" d="M90.8,58.2l-0.6-0.4c-0.2-0.1-0.6-0.1-0.8,0L87,59.2c-0.2,0.1-0.2,0.4,0,0.5l0.6,0.4
					c0.2,0.1,0.6,0.1,0.8,0l2.3-1.3C91,58.6,91,58.4,90.8,58.2L90.8,58.2z"/>
				<path class="st15" d="M94.4,56.1l-0.6-0.4c-0.2-0.1-0.6-0.1-0.8,0l-2.3,1.3c-0.2,0.1-0.2,0.4,0,0.5l0.6,0.4
					c0.2,0.1,0.6,0.1,0.8,0l2.3-1.3C94.6,56.5,94.6,56.3,94.4,56.1L94.4,56.1z"/>
				<path class="st15" d="M47.3,83.5l-0.6-0.4c-0.2-0.1-0.6-0.1-0.8,0L43,84.8c-0.2,0.1-0.2,0.4,0,0.5l0.6,0.4
					c0.2,0.1,0.6,0.1,0.8,0l2.9-1.7C47.6,83.8,47.6,83.6,47.3,83.5L47.3,83.5z"/>
				<path class="st15" d="M56.1,86.8l-2.3-1.3c-0.2-0.1-0.6-0.1-0.8,0L48.6,88c-0.2,0.1-0.2,0.4,0,0.5l2.3,1.3
					c0.2,0.1,0.6,0.1,0.8,0l4.4-2.5C56.4,87.2,56.4,87,56.1,86.8L56.1,86.8z"/>
				<path class="st15" d="M61.6,87.9l-2.3-1.3c-0.2-0.1-0.6-0.1-0.8,0l-6.2,3.6c-0.2,0.1-0.2,0.4,0,0.5l2.3,1.3
					c0.2,0.1,0.6,0.1,0.8,0l6.2-3.6C61.8,88.3,61.8,88,61.6,87.9L61.6,87.9z"/>
				<path class="st15" d="M65.3,90L63,88.7c-0.2-0.1-0.6-0.1-0.8,0L56,92.3c-0.2,0.1-0.2,0.4,0,0.5l2.3,1.3c0.2,0.1,0.6,0.1,0.8,0
					l6.2-3.6C65.5,90.4,65.5,90.2,65.3,90L65.3,90z"/>
				<path class="st15" d="M101.7,60.4L99.4,59c-0.2-0.1-0.6-0.1-0.8,0l-4.4,2.6c-0.2,0.1-0.2,0.4,0,0.5l2.3,1.3
					c0.2,0.1,0.6,0.1,0.8,0l4.4-2.6C101.9,60.7,101.9,60.5,101.7,60.4L101.7,60.4z"/>
				<path class="st15" d="M105.4,62.5l-2.3-1.3c-0.2-0.1-0.6-0.1-0.8,0l-6.3,3.6c-0.2,0.1-0.2,0.4,0,0.5l2.3,1.3
					c0.2,0.1,0.6,0.1,0.8,0l6.3-3.6C105.6,62.8,105.6,62.6,105.4,62.5L105.4,62.5z"/>
				<path class="st15" d="M107.3,67.9l-0.6-0.4c-0.2-0.1-0.6-0.1-0.8,0l-2.3,1.3c-0.2,0.1-0.2,0.4,0,0.5l0.6,0.4
					c0.2,0.1,0.6,0.1,0.8,0l2.3-1.3C107.5,68.2,107.5,68,107.3,67.9L107.3,67.9z"/>
				<path class="st15" d="M109,68.9l-0.6-0.4c-0.2-0.1-0.6-0.1-0.8,0l-2.3,1.3c-0.2,0.1-0.2,0.4,0,0.5l0.6,0.4
					c0.2,0.1,0.6,0.1,0.8,0l2.3-1.3C109.2,69.2,109.2,69,109,68.9L109,68.9z"/>
				<path class="st15" d="M94.2,69l-2.3-1.3c-0.2-0.1-0.6-0.1-0.8,0L88.7,69c-0.2,0.1-0.2,0.4,0,0.5l2.3,1.3c0.2,0.1,0.6,0.1,0.8,0
					l2.3-1.3C94.4,69.3,94.4,69.1,94.2,69L94.2,69z"/>
				<path class="st15" d="M97.8,66.9l-2.3-1.3c-0.2-0.1-0.6-0.1-0.8,0l-2.3,1.3c-0.2,0.1-0.2,0.4,0,0.5l2.3,1.3
					c0.2,0.1,0.6,0.1,0.8,0l2.3-1.3C98,67.2,98,67,97.8,66.9L97.8,66.9z"/>
				<path class="st15" d="M97.9,71.1l-2.3-1.3c-0.2-0.1-0.6-0.1-0.8,0l-2.3,1.3c-0.2,0.1-0.2,0.4,0,0.5l2.3,1.3
					c0.2,0.1,0.6,0.1,0.8,0l2.3-1.3C98.1,71.5,98.1,71.2,97.9,71.1L97.9,71.1z"/>
				<path class="st15" d="M101.5,69l-2.3-1.3c-0.2-0.1-0.6-0.1-0.8,0L96,69c-0.2,0.1-0.2,0.4,0,0.5l2.3,1.3c0.2,0.1,0.6,0.1,0.8,0
					l2.3-1.3C101.7,69.4,101.7,69.1,101.5,69L101.5,69z"/>
				<path class="st15" d="M105.1,66.9l-2.3-1.3c-0.2-0.1-0.6-0.1-0.8,0l-2.3,1.3c-0.2,0.1-0.2,0.4,0,0.5l2.3,1.3
					c0.2,0.1,0.6,0.1,0.8,0l2.3-1.3C105.3,67.3,105.3,67,105.1,66.9L105.1,66.9z"/>
				<path class="st15" d="M109.1,64.6l-2.3-1.3c-0.2-0.1-0.6-0.1-0.8,0l-2.6,1.5c-0.2,0.1-0.2,0.4,0,0.5l2.3,1.3
					c0.2,0.1,0.6,0.1,0.8,0l2.6-1.5C109.3,65,109.3,64.7,109.1,64.6L109.1,64.6z"/>
				<path class="st15" d="M86.9,73.2l-2.3-1.3c-0.2-0.1-0.6-0.1-0.8,0l-2.3,1.3c-0.2,0.1-0.2,0.4,0,0.5l2.3,1.3
					c0.2,0.1,0.6,0.1,0.8,0l2.3-1.3C87.2,73.5,87.2,73.3,86.9,73.2L86.9,73.2z"/>
				<path class="st15" d="M90.6,71.1l-2.3-1.3c-0.2-0.1-0.6-0.1-0.8,0l-2.3,1.3c-0.2,0.1-0.2,0.4,0,0.5l2.3,1.3
					c0.2,0.1,0.6,0.1,0.8,0l2.3-1.3C90.8,71.4,90.8,71.2,90.6,71.1L90.6,71.1z"/>
				<path class="st15" d="M90.6,75.3L88.3,74c-0.2-0.1-0.6-0.1-0.8,0l-2.3,1.3c-0.2,0.1-0.2,0.4,0,0.5l2.3,1.3
					c0.2,0.1,0.6,0.1,0.8,0l2.3-1.3C90.9,75.7,90.9,75.5,90.6,75.3L90.6,75.3z"/>
				<path class="st15" d="M94.3,73.2l-2.3-1.3c-0.2-0.1-0.6-0.1-0.8,0l-2.3,1.3c-0.2,0.1-0.2,0.4,0,0.5l2.3,1.3
					c0.2,0.1,0.6,0.1,0.8,0l2.3-1.3C94.5,73.6,94.5,73.3,94.3,73.2L94.3,73.2z"/>
				<path class="st15" d="M79.7,77.4L77.4,76c-0.2-0.1-0.6-0.1-0.8,0l-2.3,1.3c-0.2,0.1-0.2,0.4,0,0.5l2.3,1.3
					c0.2,0.1,0.6,0.1,0.8,0l2.3-1.3C79.9,77.7,79.9,77.5,79.7,77.4L79.7,77.4z"/>
				<path class="st15" d="M83.3,75.3L81,73.9c-0.2-0.1-0.6-0.1-0.8,0l-2.3,1.3c-0.2,0.1-0.2,0.4,0,0.5l2.3,1.3
					c0.2,0.1,0.6,0.1,0.8,0l2.3-1.3C83.6,75.6,83.6,75.4,83.3,75.3L83.3,75.3z"/>
				<path class="st15" d="M83.4,79.5l-2.3-1.3c-0.2-0.1-0.6-0.1-0.8,0l-2.3,1.3c-0.2,0.1-0.2,0.4,0,0.5l2.3,1.3
					c0.2,0.1,0.6,0.1,0.8,0l2.3-1.3C83.6,79.9,83.6,79.7,83.4,79.5L83.4,79.5z"/>
				<path class="st15" d="M87,77.4l-2.3-1.3c-0.2-0.1-0.6-0.1-0.8,0l-2.3,1.3c-0.2,0.1-0.2,0.4,0,0.5l2.3,1.3c0.2,0.1,0.6,0.1,0.8,0
					l2.3-1.3C87.2,77.8,87.2,77.6,87,77.4L87,77.4z"/>
				<path class="st15" d="M72.5,81.6l-2.3-1.3c-0.2-0.1-0.6-0.1-0.8,0L67,81.6c-0.2,0.1-0.2,0.4,0,0.5l2.3,1.3
					c0.2,0.1,0.6,0.1,0.8,0l2.3-1.3C72.7,82,72.7,81.7,72.5,81.6L72.5,81.6z"/>
				<path class="st15" d="M76.1,79.5l-2.3-1.3c-0.2-0.1-0.6-0.1-0.8,0l-2.3,1.3c-0.2,0.1-0.2,0.4,0,0.5l2.3,1.3
					c0.2,0.1,0.6,0.1,0.8,0l2.3-1.3C76.3,79.8,76.3,79.6,76.1,79.5L76.1,79.5z"/>
				<path class="st15" d="M76.2,83.7l-2.3-1.3c-0.2-0.1-0.6-0.1-0.8,0l-2.3,1.3c-0.2,0.1-0.2,0.4,0,0.5l2.3,1.3
					c0.2,0.1,0.6,0.1,0.8,0l2.3-1.3C76.4,84.1,76.4,83.9,76.2,83.7L76.2,83.7z"/>
				<path class="st15" d="M79.8,81.6l-2.3-1.3c-0.2-0.1-0.6-0.1-0.8,0l-2.3,1.3c-0.2,0.1-0.2,0.4,0,0.5l2.3,1.3
					c0.2,0.1,0.6,0.1,0.8,0l2.3-1.3C80,82,80,81.8,79.8,81.6L79.8,81.6z"/>
				<path class="st15" d="M65.2,85.8l-2.3-1.3c-0.2-0.1-0.6-0.1-0.8,0l-2.3,1.3c-0.2,0.1-0.2,0.4,0,0.5l2.3,1.3
					c0.2,0.1,0.6,0.1,0.8,0l2.3-1.3C65.5,86.2,65.5,85.9,65.2,85.8L65.2,85.8z"/>
				<path class="st15" d="M68.8,83.7l-2.3-1.3c-0.2-0.1-0.6-0.1-0.8,0l-2.3,1.3c-0.2,0.1-0.2,0.4,0,0.5l2.3,1.3
					c0.2,0.1,0.6,0.1,0.8,0l2.3-1.3C69.1,84.1,69.1,83.8,68.8,83.7L68.8,83.7z"/>
				<path class="st15" d="M68.9,87.9l-2.3-1.3c-0.2-0.1-0.6-0.1-0.8,0l-2.3,1.3c-0.2,0.1-0.2,0.4,0,0.5l2.3,1.3
					c0.2,0.1,0.6,0.1,0.8,0l2.3-1.3C69.2,88.3,69.1,88.1,68.9,87.9L68.9,87.9z"/>
				<path class="st15" d="M72.5,85.8l-2.3-1.3c-0.2-0.1-0.6-0.1-0.8,0l-2.3,1.3c-0.2,0.1-0.2,0.4,0,0.5l2.3,1.3
					c0.2,0.1,0.6,0.1,0.8,0l2.3-1.3C72.8,86.2,72.8,86,72.5,85.8L72.5,85.8z"/>
				<path class="st15" d="M101.8,73.1l-2.3-1.3c-0.2-0.1-0.6-0.1-0.8,0l-2.3,1.3c-0.2,0.1-0.2,0.4,0,0.5l2.3,1.3
					c0.2,0.1,0.6,0.1,0.8,0l2.3-1.3C102,73.4,102,73.2,101.8,73.1L101.8,73.1z"/>
				<path class="st15" d="M105.4,71l-2.3-1.3c-0.2-0.1-0.6-0.1-0.8,0L99.9,71c-0.2,0.1-0.2,0.4,0,0.5l2.3,1.3c0.2,0.1,0.6,0.1,0.8,0
					l2.3-1.3C105.6,71.3,105.6,71.1,105.4,71L105.4,71z"/>
				<path class="st15" d="M112.7,66.7l-2.3-1.3c-0.2-0.1-0.6-0.1-0.8,0l-2.3,1.3c-0.2,0.1-0.2,0.4,0,0.5l2.3,1.3
					c0.2,0.1,0.6,0.1,0.8,0l2.3-1.3C112.9,67.1,112.9,66.8,112.7,66.7L112.7,66.7z"/>
			</g>
		</g>
	</g>
</g>
</svg>
