<?xml version="1.0" standalone="no"?><svg xmlns="http://www.w3.org/2000/svg" viewBox="0 0 1440 320"><path fill="#8DCBE6" fill-opacity="1" d="M0,288L26.7,272C53.3,256,107,224,160,176C213.3,128,267,64,320,64C373.3,64,427,128,480,154.7C533.3,181,587,171,640,176C693.3,181,747,203,800,181.3C853.3,160,907,96,960,112C1013.3,128,1067,224,1120,229.3C1173.3,235,1227,149,1280,122.7C1333.3,96,1387,128,1413,144L1440,160L1440,0L1413.3,0C1386.7,0,1333,0,1280,0C1226.7,0,1173,0,1120,0C1066.7,0,1013,0,960,0C906.7,0,853,0,800,0C746.7,0,693,0,640,0C586.7,0,533,0,480,0C426.7,0,373,0,320,0C266.7,0,213,0,160,0C106.7,0,53,0,27,0L0,0Z"></path></svg>