<?xml version="1.0" standalone="no"?><svg xmlns="http://www.w3.org/2000/svg" viewBox="0 0 1440 320"><path fill="#00337C" fill-opacity="1" d="M0,32L15,48C30,64,60,96,90,133.3C120,171,150,213,180,208C210,203,240,149,270,117.3C300,85,330,75,360,80C390,85,420,107,450,112C480,117,510,107,540,85.3C570,64,600,32,630,42.7C660,53,690,107,720,117.3C750,128,780,96,810,69.3C840,43,870,21,900,16C930,11,960,21,990,42.7C1020,64,1050,96,1080,106.7C1110,117,1140,107,1170,117.3C1200,128,1230,160,1260,170.7C1290,181,1320,171,1350,138.7C1380,107,1410,53,1425,26.7L1440,0L1440,0L1425,0C1410,0,1380,0,1350,0C1320,0,1290,0,1260,0C1230,0,1200,0,1170,0C1140,0,1110,0,1080,0C1050,0,1020,0,990,0C960,0,930,0,900,0C870,0,840,0,810,0C780,0,750,0,720,0C690,0,660,0,630,0C600,0,570,0,540,0C510,0,480,0,450,0C420,0,390,0,360,0C330,0,300,0,270,0C240,0,210,0,180,0C150,0,120,0,90,0C60,0,30,0,15,0L0,0Z"></path></svg>