<?xml version="1.0" standalone="no"?><svg xmlns="http://www.w3.org/2000/svg" viewBox="0 0 1440 320"><path fill="#0081B4" fill-opacity="1" d="M0,96L16,96C32,96,64,96,96,101.3C128,107,160,117,192,112C224,107,256,85,288,96C320,107,352,149,384,149.3C416,149,448,107,480,122.7C512,139,544,213,576,250.7C608,288,640,288,672,266.7C704,245,736,203,768,170.7C800,139,832,117,864,128C896,139,928,181,960,197.3C992,213,1024,203,1056,170.7C1088,139,1120,85,1152,85.3C1184,85,1216,139,1248,170.7C1280,203,1312,213,1344,192C1376,171,1408,117,1424,90.7L1440,64L1440,0L1424,0C1408,0,1376,0,1344,0C1312,0,1280,0,1248,0C1216,0,1184,0,1152,0C1120,0,1088,0,1056,0C1024,0,992,0,960,0C928,0,896,0,864,0C832,0,800,0,768,0C736,0,704,0,672,0C640,0,608,0,576,0C544,0,512,0,480,0C448,0,416,0,384,0C352,0,320,0,288,0C256,0,224,0,192,0C160,0,128,0,96,0C64,0,32,0,16,0L0,0Z"></path></svg>