<?xml version="1.0" encoding="utf-8"?>
<!-- Generator: Adobe Illustrator 23.0.0, SVG Export Plug-In . SVG Version: 6.00 Build 0)  -->
<svg version="1.1" xmlns="http://www.w3.org/2000/svg" xmlns:xlink="http://www.w3.org/1999/xlink" x="0px" y="0px"
	 viewBox="0 0 3710 3710" style="enable-background:new 0 0 3710 3710;" xml:space="preserve">
<style type="text/css">
	.st0{fill:none;}
	.st1{fill:#F4F7FA;}
	.st2{fill:url(#SVGID_1_);}
	.st3{clip-path:url(#SVGID_3_);}
	.st4{fill:#FCFDFE;}
	.st5{fill:url(#SVGID_4_);}
	.st6{clip-path:url(#SVGID_6_);}
	.st7{fill:#97A6B7;}
	.st8{fill:url(#SVGID_7_);}
	.st9{fill:url(#SVGID_8_);}
	.st10{fill:#FFFFFF;}
	.st11{fill:url(#SVGID_9_);}
	.st12{fill:#9D3060;}
	.st13{fill:url(#SVGID_10_);}
	.st14{fill:url(#SVGID_11_);}
	.st15{fill:url(#SVGID_12_);}
	.st16{fill:url(#SVGID_13_);}
	.st17{opacity:0.48;}
	.st18{fill:url(#SVGID_14_);}
	.st19{fill:url(#SVGID_15_);}
	.st20{fill:url(#SVGID_16_);}
	.st21{fill:url(#SVGID_17_);}
	.st22{fill:url(#SVGID_18_);}
	.st23{fill:url(#SVGID_19_);}
	.st24{fill:url(#SVGID_20_);}
	.st25{fill:#DE8BDF;}
	.st26{fill:url(#SVGID_21_);}
	.st27{fill:url(#SVGID_22_);}
	.st28{fill:url(#SVGID_23_);}
	.st29{fill:url(#SVGID_24_);}
	.st30{fill:url(#SVGID_25_);}
	.st31{fill:url(#SVGID_26_);}
	.st32{fill:url(#SVGID_27_);}
	.st33{fill:url(#SVGID_28_);}
	.st34{fill:url(#SVGID_29_);}
	.st35{fill:url(#SVGID_30_);}
	.st36{opacity:0.3;fill:url(#SVGID_31_);}
	.st37{fill:url(#SVGID_32_);}
	.st38{fill:url(#SVGID_33_);}
	.st39{fill:url(#SVGID_34_);}
	.st40{fill:url(#SVGID_35_);}
	.st41{opacity:0.3;fill:url(#SVGID_36_);}
	.st42{fill:url(#SVGID_37_);}
	.st43{fill:#D8DEE8;}
	.st44{fill:url(#SVGID_38_);}
	.st45{fill:url(#SVGID_39_);}
	.st46{fill:url(#SVGID_40_);}
	.st47{fill:url(#SVGID_41_);}
	.st48{fill:url(#SVGID_42_);}
	.st49{fill:url(#SVGID_43_);}
	.st50{fill:url(#SVGID_44_);}
</style>
<g id="Background">
	<g>
		<g>
			<rect class="st0" width="3710" height="3710"/>
		</g>
	</g>
</g>
<g id="Illustration">
	<g id="Responsive_web_design">
		<path class="st1" d="M1623.9,510.2c-378.3,6.4-963.7,144.7-1132.2,500c-58.8,124.1-54.9,306.5-46.9,671.4
			c2.3,107.3,6.2,263.6,33.5,457.5c56.7,402.9,95.2,677.2,241.2,836.9c365.7,400.2,1686.8,388.6,2250.9-331.9
			c307.7-393,355.1-952.1,73.7-1414.2C2734.3,721.4,2130.3,501.6,1623.9,510.2z"/>
		<g>
			<g>
				<g>
					<g>
						
							<linearGradient id="SVGID_1_" gradientUnits="userSpaceOnUse" x1="2110.7603" y1="2600.1472" x2="506.7326" y2="-173.4802" gradientTransform="matrix(0.9938 0.1108 -0.1108 0.9938 95.5955 -262.3796)">
							<stop  offset="0" style="stop-color:#AA80F9"/>
							<stop  offset="0.9964" style="stop-color:#6165D7"/>
						</linearGradient>
						<path class="st2" d="M1317.9,2044.2c-10.7,45.1-24.5,81.1-36.9,124.7c193.1-30.2,384.7-24,580.5-54.3
							c-147.1-208.8-275.8-294.3-226.5-586.3c23.1-137,108.9-400.3,42.7-525.4c-75.5-142.4-178-94.5-162.5-230.1
							c24.2-211.9-97.1-421.9-371.3-308.3c-270.7,112.1-187.7,868.1-9.1,1059.3C1254,1717.1,1373.5,1808.5,1317.9,2044.2z"/>
						<g>
							<defs>
								<path id="SVGID_2_" d="M1638.2,1505.2c8.9-51.4,110.9-404.9,40.4-507.8c-80.4-117.2-177.4-95.8-162.9-227
									c22.6-205.1-97.1-421.1-371.7-306.5c-271.1,113.2-187.4,869.6-9.4,1058.3c121.4,213.2,236.7,256.9,183.8,536.2
									C1281.3,2254.1,1604.8,1698.6,1638.2,1505.2z"/>
							</defs>
							<clipPath id="SVGID_3_">
								<use xlink:href="#SVGID_2_"  style="overflow:visible;"/>
							</clipPath>
							<g class="st3">
								<path class="st4" d="M1579.4,2117.7c-21.3-68.9-48.2-137-74.2-202.8l-9.8-24.9c-20.9-52.9-38.6-100.6-54.2-142.7
									c-8.8-23.7-17.1-46-25.3-67.7c-25-65.8-42.7-111.9-51.6-134.9c-3-7.9-5-13.1-5.9-15.5c-68.9-181.2-95.9-452.8-110.4-598.8
									c-1.6-15.8-3-29.9-4.3-42.1c-21.9-208.4-69.7-422.7-142-636.8l2.9-1c72.4,214.3,120.2,428.8,142.2,637.4
									c1.3,12.1,2.7,26.3,4.3,42.1c14.5,145.8,41.5,417.2,110.2,598c0.9,2.4,2.9,7.6,5.9,15.5c8.9,23.1,26.5,69.2,51.6,134.9
									c8.2,21.6,16.5,44,25.3,67.7c15.6,42.1,33.3,89.8,54.2,142.7l9.8,24.9c26.1,65.9,53,134,74.3,203L1579.4,2117.7z"/>
								<path class="st4" d="M1449.3,1783.6c-39.8-121.9-37.5-281.1,6.7-460.4c36.8-149.4,102.2-307.8,179.3-434.5l2.6,1.6
									c-76.9,126.5-142.1,284.5-178.9,433.6c-44.1,178.8-46.4,337.4-6.7,458.7L1449.3,1783.6z"/>
								<path class="st4" d="M1253,954.4l-3-0.5c16.9-109.6,47.7-217.7,77.6-322.3c20.4-71.6,41.5-145.6,58-219.5l3,0.7
									c-16.5,74-37.6,148-58.1,219.7C1300.7,736.9,1269.9,844.9,1253,954.4z"/>
								<path class="st4" d="M1299.2,1310.1c-72.9-136.1-232.1-285.2-340.9-319.2l0.9-2.9c109.4,34.2,269.5,184,342.6,320.7
									L1299.2,1310.1z"/>
							</g>
						</g>
					</g>
					<g>
						<linearGradient id="SVGID_4_" gradientUnits="userSpaceOnUse" x1="539.424" y1="1567.1289" x2="1556.1683" y2="1567.1289">
							<stop  offset="3.597120e-03" style="stop-color:#E38DDD"/>
							<stop  offset="1" style="stop-color:#9571F6"/>
						</linearGradient>
						<path class="st5" d="M1156.6,1418.9c53.9,260.8,204.3,204.1,399.6,140.1c-32.7,245.9-55.5,486.5-77.8,730.8
							c-131.3,40.9-226.1,67.8-300.5-81.7c-84.1-169.1-127-269.5-331-310.4C643,1856.7,488,1707.5,555.4,1510.8
							c70.9-207-108.8-475.4,63.8-626.7C920,620.7,1100.5,1147.3,1156.6,1418.9z"/>
						<g>
							<defs>
								<path id="SVGID_5_" d="M1575.1,2242.8c-141.4,72.4-300.8,155.1-398-37c-80.9-159.9-127.2-270.4-330.4-308.7
									S488,1705.9,555.3,1510.9c70.8-205.3-108.1-478.2,63.9-626.6c299.7-258.6,483,253.8,536.8,538.6
									c53.8,284.8,233.7,157.6,416.2,146.8C1821.4,1554.9,1689.4,2184.3,1575.1,2242.8z"/>
							</defs>
							<clipPath id="SVGID_6_">
								<use xlink:href="#SVGID_5_"  style="overflow:visible;"/>
							</clipPath>
							<g class="st6">
								<path class="st4" d="M1459.8,1976.2c-202.3-97.4-368.1-184.1-507.9-338.5c-133.8-147.8-199.4-307.2-219.6-533.2
									c-10.5-117.2-31.2-200-61.7-313l2.9-0.8c30.5,113.1,51.3,196,61.8,313.5c20.1,225.2,85.6,384.2,218.8,531.4
									c139.4,154,305,240.6,507,337.8L1459.8,1976.2z"/>
								<path class="st4" d="M1204.4,2301.3l-2.4-1.9c46.5-57.3,96.7-104,153.4-142.6c29-19.7,58.7-33.2,94.4-47.2l1.1,2.8
									c-35.5,14-65.1,27.3-93.8,46.9C1300.7,2197.7,1250.8,2244.1,1204.4,2301.3z"/>
								<path class="st4" d="M1042.4,1726.6c-152.8-73.9-342.4-91.3-533.9-49l-0.7-3c192.1-42.5,382.5-25,535.9,49.2L1042.4,1726.6z
									"/>
								<path class="st4" d="M778.8,1345.5c-2.4-19.8,23.4-185.8,48.3-334.6c25-149.3,53.9-309.8,59-319.7l2.7,1.4
									c-4.3,8.5-30.6,151.6-58.7,318.8c-24.9,148.5-50.7,314.2-48.3,333.7L778.8,1345.5z"/>
							</g>
						</g>
					</g>
				</g>
			</g>
		</g>
		<g>
			<path class="st7" d="M2363.3,2408.5c-34.3-11.4-59.9-40.4-67.1-76.2l-49.9-246.8l-426.6,15.1l-52.5,257.1
				c-7.4,36,22.1,72.1,56,85.4l178.5,69.8c33.2,13,68.9,18.2,104.3,15.1l377.2-32.3c11-0.9,19.9-9.6,21.2-20.7
				c1.3-11.1,9-23.6-1.5-27.1L2363.3,2408.5z"/>
			<linearGradient id="SVGID_7_" gradientUnits="userSpaceOnUse" x1="2138.3196" y1="2173.2749" x2="2144.8037" y2="2416.4385">
				<stop  offset="0" style="stop-color:#444B8C"/>
				<stop  offset="0.9964" style="stop-color:#26264F"/>
			</linearGradient>
			<path class="st8" d="M2367.5,2393.5c-34.2-11.2-59.8-39.9-67-75.2l-49.8-243.7l-416.2,15l-52.4,253.9
				c-7.3,35.6,12.1,71.2,46,84.3l178.3,69c33.2,12.8,68.8,17.9,104.2,14.9l376.8-31.9c11-0.9,19.9-9.5,21.1-20.5
				c1.3-11-5.3-21.3-15.8-24.8L2367.5,2393.5z"/>
			<linearGradient id="SVGID_8_" gradientUnits="userSpaceOnUse" x1="2191.259" y1="1870.9767" x2="1476.7126" y2="-637.6411">
				<stop  offset="0" style="stop-color:#444B8C"/>
				<stop  offset="0.9964" style="stop-color:#26264F"/>
			</linearGradient>
			<path class="st9" d="M3048.8,1913.9V807.2c0-22.7-18.7-42-41.6-42.9l-1901.3-76.4c-28.9-1.2-52.7,18.8-52.7,44.4v1223.1
				L3048.8,1913.9z"/>
			<g>
				<path class="st10" d="M1111.9,902.5v955.4c0,23.8,22,42.7,48.9,42l1804.5-51.3c21.5-0.6,39.1-18.5,39.1-39.8V956.6L1111.9,902.5
					z"/>
				<linearGradient id="SVGID_9_" gradientUnits="userSpaceOnUse" x1="1476.625" y1="248.7037" x2="2778.8528" y2="1646.8295">
					<stop  offset="0" style="stop-color:#FF9085"/>
					<stop  offset="1" style="stop-color:#FB6FBB"/>
				</linearGradient>
				<path class="st11" d="M3004.4,956.6v-97.8c0-20.8-17.2-38.5-38.3-39.3l-1806.3-67.4c-26.3-1-47.9,17.3-47.9,40.7v109.6
					L3004.4,956.6z"/>
				<g>
					<path class="st12" d="M1244,828.1c0,8.2-7.5,14.6-16.7,14.3c-9.3-0.3-16.8-7.2-16.8-15.4c0-8.2,7.5-14.6,16.8-14.3
						C1236.5,813,1244,819.9,1244,828.1z"/>
					<path class="st12" d="M1316.1,830.5c0,8.2-7.4,14.5-16.5,14.3c-9.1-0.3-16.6-7.2-16.6-15.3c0-8.2,7.4-14.6,16.6-14.3
						C1308.7,815.4,1316.1,822.3,1316.1,830.5z"/>
					<path class="st12" d="M1387.3,832.8c0,8.1-7.3,14.5-16.3,14.2c-9-0.3-16.4-7.1-16.4-15.3c0-8.1,7.3-14.5,16.4-14.2
						C1380,817.9,1387.3,824.7,1387.3,832.8z"/>
				</g>
			</g>
			<linearGradient id="SVGID_10_" gradientUnits="userSpaceOnUse" x1="1053.1425" y1="2075.3665" x2="3048.7517" y2="2075.3665">
				<stop  offset="0" style="stop-color:#444B8C"/>
				<stop  offset="0.9964" style="stop-color:#26264F"/>
			</linearGradient>
			<path class="st13" d="M1053.1,1955.3v244.3c0,25.6,23.7,45.5,52.7,44.3l1901.3-80.4c22.9-1,41.6-20.3,41.6-43v-213.7
				L1053.1,1955.3z"/>
			<g>
				<g>
					<linearGradient id="SVGID_11_" gradientUnits="userSpaceOnUse" x1="1674.3269" y1="1016.6592" x2="2244.6619" y2="2252.8975">
						<stop  offset="0" style="stop-color:#FFC444"/>
						<stop  offset="0.9964" style="stop-color:#F36F56"/>
					</linearGradient>
					<polygon class="st14" points="2298.9,1437.9 1250.5,1443.6 1250.5,1005.8 2298.9,1024.9 					"/>
					<linearGradient id="SVGID_12_" gradientUnits="userSpaceOnUse" x1="2397.3323" y1="741.6507" x2="2923.094" y2="1881.2736">
						<stop  offset="0" style="stop-color:#FFC444"/>
						<stop  offset="0.9964" style="stop-color:#F36F56"/>
					</linearGradient>
					<polygon class="st15" points="2890.9,1434.7 2360.4,1437.6 2360.4,1026 2890.9,1035.7 					"/>
					<linearGradient id="SVGID_13_" gradientUnits="userSpaceOnUse" x1="1768.9851" y1="973.65" x2="2314.9363" y2="2157.0349">
						<stop  offset="0" style="stop-color:#FFC444"/>
						<stop  offset="0.9964" style="stop-color:#F36F56"/>
					</linearGradient>
					<polygon class="st16" points="2890.9,1730.9 1250.5,1768.5 1250.5,1500.8 2890.9,1486.8 					"/>
				</g>
			</g>
			<g class="st17">
				<path class="st10" d="M2842.8,1771c-156.2-52.7-285.3,54.8-397.6-29.9c-126.5-95.5-24.3-279-141.3-387
					c-162.6-150.1-487.7,82.7-628.9-58.8c-97.1-97.3,17.4-253.1-64.8-417c-41.8-83.3-120.1-140.1-215.2-178.8l-289.2-11.6
					c-28.9-1.2-52.7,18.8-52.7,44.4v1223.1v244.3c0,25.6,23.7,45.5,52.7,44.3l1901.3-80.4c22.9-1,41.6-20.3,41.6-43v-157.9
					C2981.8,1844.2,2907.9,1793,2842.8,1771z"/>
			</g>
		</g>
		<g>
			<g>
				<g>
					<linearGradient id="SVGID_14_" gradientUnits="userSpaceOnUse" x1="1681.5682" y1="2914.968" x2="1015.0447" y2="2346.3928">
						<stop  offset="0" style="stop-color:#444B8C"/>
						<stop  offset="0.9964" style="stop-color:#26264F"/>
					</linearGradient>
					<path class="st18" d="M1593.6,1757.6v1280.3c0,19.1-20.9,24.8-44.7,27.1l-822,91.9l-12.6,1.2c-25.8,2.5-46.9-11.8-46.9-31.8
						V1788.4c0-20,21.1-37,46.9-37.9l17-0.5l824.9,2.7C1580.1,1751.9,1593.6,1738.4,1593.6,1757.6z"/>
					
						<linearGradient id="SVGID_15_" gradientUnits="userSpaceOnUse" x1="-1355.8611" y1="2519.9556" x2="1011.434" y2="2608.0168" gradientTransform="matrix(0 -1 1 0 -1389.0323 1734.3226)">
						<stop  offset="0" style="stop-color:#444B8C"/>
						<stop  offset="0.9964" style="stop-color:#26264F"/>
					</linearGradient>
					<path class="st19" d="M1619,1756.1v1279.9c0,19.1-19.4,36.7-43.1,39l-835.6,81.2c-25.8,2.5-46.9-11.8-46.9-31.8V1786.9
						c0-20,21.1-37,46.9-37.8l835.6-26.4C1599.6,1721.9,1619,1737,1619,1756.1z"/>
					<g>
						<path class="st10" d="M758.4,1824.7l796.5-27.8c20.3-0.7,37.1,15.5,37.1,35.8l1.5,1175.2c0,22.1-16.7,40.5-38.7,42.7
							l-794.2,77.1c-20.3,2-37.8-14-37.9-34.3l-0.3-1231.4C722.5,1841.9,738.4,1825.4,758.4,1824.7z"/>
						<linearGradient id="SVGID_16_" gradientUnits="userSpaceOnUse" x1="877.071" y1="2031.0911" x2="1217.9111" y2="2769.8843">
							<stop  offset="0" style="stop-color:#FFC444"/>
							<stop  offset="0.9964" style="stop-color:#F36F56"/>
						</linearGradient>
						<polygon class="st20" points="785.4,2117.7 1238.7,2095.9 1239,2520.5 785.5,2551.7 						"/>
						<linearGradient id="SVGID_17_" gradientUnits="userSpaceOnUse" x1="1039.3051" y1="2449.6104" x2="1344.161" y2="3110.4058">
							<stop  offset="0" style="stop-color:#FFC444"/>
							<stop  offset="0.9964" style="stop-color:#F36F56"/>
						</linearGradient>
						<polygon class="st21" points="785.6,2606.3 1534.9,2552.8 1535.2,2807.9 785.6,2870.9 						"/>
						<linearGradient id="SVGID_18_" gradientUnits="userSpaceOnUse" x1="1028.1993" y1="1656.0861" x2="1346.2018" y2="2345.3772">
							<stop  offset="0" style="stop-color:#FF9085"/>
							<stop  offset="1" style="stop-color:#FB6FBB"/>
						</linearGradient>
						<path class="st22" d="M761.6,1823.9l793-27c20.6-0.7,37.7,15.8,37.7,36.4l0.2,174.8L722.6,2047l0-182.6
							C722.5,1842.6,739.8,1824.7,761.6,1823.9z"/>
						<linearGradient id="SVGID_19_" gradientUnits="userSpaceOnUse" x1="1073.4833" y1="2767.9082" x2="1293.9255" y2="3245.7314">
							<stop  offset="0" style="stop-color:#FFC444"/>
							<stop  offset="0.9964" style="stop-color:#F36F56"/>
						</linearGradient>
						<polygon class="st23" points="785.7,2929.4 1535.3,2864.3 1535.4,2979.3 785.7,3048.7 						"/>
						<linearGradient id="SVGID_20_" gradientUnits="userSpaceOnUse" x1="1292.6083" y1="2050.3599" x2="1584.204" y2="2682.4126">
							<stop  offset="0" style="stop-color:#FFC444"/>
							<stop  offset="0.9964" style="stop-color:#F36F56"/>
						</linearGradient>
						<polygon class="st24" points="1280.5,2093.9 1534.5,2081.7 1534.9,2500.1 1280.8,2517.6 						"/>
					</g>
				</g>
				<path class="st25" d="M1181.9,1774.6c0,6.8-6.9,12.5-15.5,12.8c-8.6,0.3-15.5-5-15.5-11.8c0-6.8,7-12.5,15.5-12.8
					C1174.9,1762.5,1181.9,1767.8,1181.9,1774.6z"/>
			</g>
			<g class="st17">
				<path class="st10" d="M1348.9,2492.6c-76-152.6-253.7-116.1-320.4-282.5c-39.8-99.3,9.7-146.3-20.1-267.4
					c-20.2-81.9-64.3-147.2-114.3-198.5l-153.8,4.9c-25.8,0.8-46.9,17.8-46.9,37.8v1337.5c0,20,21.1,34.3,46.9,31.8l672.4-65.3
					c-49.8-69.2-71.1-134.3-78.8-190.7C1310.1,2725,1416.4,2628.1,1348.9,2492.6z"/>
			</g>
		</g>
		<g>
			<g>
				<g>
					<linearGradient id="SVGID_21_" gradientUnits="userSpaceOnUse" x1="2044.2797" y1="2960.0298" x2="1629.1625" y2="2605.9158">
						<stop  offset="0" style="stop-color:#444B8C"/>
						<stop  offset="0.9964" style="stop-color:#26264F"/>
					</linearGradient>
					<path class="st26" d="M1950.2,2197.7v883.6c0,13.2-11.3,16.9-24.1,18.2l-441.1,54.6l-6.7,0.7c-13.8,1.4-25.1-8.6-25.1-22.4
						v-919.1c0-13.7,11.3-25.3,25.1-25.7l9.1-0.3l442.7,6.8C1942.9,2193.7,1950.2,2184.5,1950.2,2197.7z"/>
					
						<linearGradient id="SVGID_22_" gradientUnits="userSpaceOnUse" x1="-1372.168" y1="3087.3574" x2="239.0028" y2="3147.2917" gradientTransform="matrix(0 -1 1 0 -1389.0323 1734.3226)">
						<stop  offset="0" style="stop-color:#444B8C"/>
						<stop  offset="0.9964" style="stop-color:#26264F"/>
					</linearGradient>
					<path class="st27" d="M1963.9,2196.8v883.4c0,13.2-10.5,25.1-23.3,26.5l-448.5,47.1c-13.8,1.4-25.1-8.6-25.1-22.4v-919
						c0-13.7,11.3-25.3,25.1-25.7l448.5-13.2C1953.4,2173.1,1963.9,2183.6,1963.9,2196.8z"/>
					<g>
						<path class="st10" d="M1507,2238.8l392.3-14.3c27.4-1,50.2,20.9,50.2,48.4l0,791.6c0,13-9.8,23.8-22.7,25.2l-420.3,44.2
							c-12.8,1.3-23.9-8.7-23.9-21.5l0-848.2C1482.6,2250.5,1493.4,2239.3,1507,2238.8z"/>
						<g>
							
								<linearGradient id="SVGID_23_" gradientUnits="userSpaceOnUse" x1="1561.3329" y1="2407.5767" x2="1777.8088" y2="2876.8025">
								<stop  offset="0" style="stop-color:#FFC444"/>
								<stop  offset="0.9964" style="stop-color:#F36F56"/>
							</linearGradient>
							<polygon class="st28" points="1531.4,2449.6 1762.6,2437.3 1762.6,2731.6 1531.4,2749.2 							"/>
							
								<linearGradient id="SVGID_24_" gradientUnits="userSpaceOnUse" x1="1646.9564" y1="2710.3826" x2="1825.0032" y2="3096.3105">
								<stop  offset="0" style="stop-color:#FFC444"/>
								<stop  offset="0.9964" style="stop-color:#F36F56"/>
							</linearGradient>
							<polygon class="st29" points="1531.4,2786.9 1903.7,2757.5 1903.7,2934.8 1531.4,2969.4 							"/>
							
								<linearGradient id="SVGID_25_" gradientUnits="userSpaceOnUse" x1="1670.0383" y1="2921.9138" x2="1790.4415" y2="3182.8958">
								<stop  offset="0" style="stop-color:#FFC444"/>
								<stop  offset="0.9964" style="stop-color:#F36F56"/>
							</linearGradient>
							<polygon class="st30" points="1531.4,3001.5 1903.7,2966.1 1903.7,3046 1531.4,3083.8 							"/>
							<linearGradient id="SVGID_26_" gradientUnits="userSpaceOnUse" x1="1771.358" y1="2418.9121" x2="1959.8894" y2="2827.5664">
								<stop  offset="0" style="stop-color:#FFC444"/>
								<stop  offset="0.9964" style="stop-color:#F36F56"/>
							</linearGradient>
							<polygon class="st31" points="1787.4,2436 1903.7,2429.9 1903.7,2720.9 1787.4,2729.7 							"/>
						</g>
						<linearGradient id="SVGID_27_" gradientUnits="userSpaceOnUse" x1="1638.907" y1="2150.595" x2="1827.4557" y2="2559.2866">
							<stop  offset="0" style="stop-color:#FF9085"/>
							<stop  offset="1" style="stop-color:#FB6FBB"/>
						</linearGradient>
						<path class="st32" d="M1505.1,2238.8l419-15.3c13.8-0.5,25.3,10.6,25.3,24.4l0,122.5l-466.9,22.5l0-130.8
							C1482.6,2249.6,1492.5,2239.3,1505.1,2238.8z"/>
					</g>
				</g>
				<path class="st25" d="M1728.7,2206.9c0,4.7-3.7,8.6-8.3,8.7c-4.6,0.1-8.3-3.5-8.3-8.2c0-4.7,3.7-8.6,8.3-8.7
					C1724.9,2198.6,1728.7,2202.2,1728.7,2206.9z"/>
			</g>
			<g class="st17">
				<path class="st10" d="M1818.1,2725.9c-40.9-102.9-151.2-78.6-185.6-182.6c-28.1-84.9,34.3-134.6,9.9-232.9
					c-13.7-55.1-47.4-96.1-81.9-125.7l-68.4,2c-13.8,0.4-25.1,12-25.1,25.7v919c0,13.7,11.3,23.8,25.1,22.4l343.9-36.1
					c-27.6-43.5-38.7-83.3-42.6-116.3C1779.1,2881.3,1855.6,2820.2,1818.1,2725.9z"/>
			</g>
		</g>
		<g>
			<linearGradient id="SVGID_28_" gradientUnits="userSpaceOnUse" x1="2748.697" y1="2705.7793" x2="2737.9004" y2="2919.0115">
				<stop  offset="0" style="stop-color:#FF9085"/>
				<stop  offset="1" style="stop-color:#FB6FBB"/>
			</linearGradient>
			<polygon class="st33" points="2737.3,2869.5 3241,2743.5 3266.2,2865.8 2805.1,3078.7 2440,2988.5 2219.7,2772.2 			"/>
			<linearGradient id="SVGID_29_" gradientUnits="userSpaceOnUse" x1="2748.697" y1="2705.7793" x2="2737.9004" y2="2919.0115">
				<stop  offset="0" style="stop-color:#444B8C"/>
				<stop  offset="0.9964" style="stop-color:#26264F"/>
			</linearGradient>
			<polygon class="st34" points="2737.3,2869.5 3241,2743.5 3266.2,2865.8 2805.1,3078.7 2440,2988.5 2219.7,2772.2 			"/>
			<linearGradient id="SVGID_30_" gradientUnits="userSpaceOnUse" x1="2721.4854" y1="2897.0664" x2="3352.5513" y2="2897.0664">
				<stop  offset="0" style="stop-color:#444B8C"/>
				<stop  offset="0.9964" style="stop-color:#26264F"/>
			</linearGradient>
			<path class="st35" d="M2721.5,3038.8c100.1-53.7,174-108.3,224.2-149.7c98.7-81.3,144-142.6,244-166.9
				c17.9-4.3,119.7-29,152.5,16.2c36.4,50-34.3,154.7-42.9,167.4c-127.7,189-453,180.2-555,174.1
				C2736.7,3066.3,2729.1,3052.6,2721.5,3038.8z"/>
			<linearGradient id="SVGID_31_" gradientUnits="userSpaceOnUse" x1="2721.4849" y1="2898.5352" x2="3352.55" y2="2898.5352">
				<stop  offset="0" style="stop-color:#FF9085"/>
				<stop  offset="1" style="stop-color:#FB6FBB"/>
			</linearGradient>
			<path class="st36" d="M3342.2,2738.5c-9.6-13.2-25.2-20.3-42.7-23.9c5.8,20.2,6.4,39.2-0.9,55.8c-20,45.3-79.1,31.4-120.6,84.6
				c-40.8,52.3-12.5,102.6-48.6,124.2c-41.3,24.7-92.5-33-136.8-5.4c-30.1,18.8-20.7,54.4-55.8,73.8c-24.2,13.4-48,7.1-75.6,3.6
				c-31.6-4-75-4.8-129.4,6.5c4.1,7.4,8.3,14.9,12.4,22.3c102,6.1,427.2,15,555-174.1C3307.9,2893.2,3378.6,2788.6,3342.2,2738.5z"
				/>
			<linearGradient id="SVGID_32_" gradientUnits="userSpaceOnUse" x1="2900.1882" y1="3142.6196" x2="2778.7271" y2="2991.4683">
				<stop  offset="0" style="stop-color:#AA80F9"/>
				<stop  offset="0.9964" style="stop-color:#6165D7"/>
			</linearGradient>
			<path class="st37" d="M2797.2,3067.1c0,0,18.3-13.2,45-4.2c26.6,9,68.9,16.2,68.8,29.2s-42.4,21.2-71.6,15.8
				C2811.4,3102.8,2789.4,3078.5,2797.2,3067.1z"/>
			<linearGradient id="SVGID_33_" gradientUnits="userSpaceOnUse" x1="2825.6177" y1="3106.7258" x2="2658.269" y2="2896.1902">
				<stop  offset="0" style="stop-color:#FFC444"/>
				<stop  offset="0.9964" style="stop-color:#F36F56"/>
			</linearGradient>
			<path class="st38" d="M2770.3,3044.9l49,15.8c0,0,8,13.3-2.8,21.7c-10.7,8.4-48.1-9.4-48.1-9.4L2770.3,3044.9z"/>
			<linearGradient id="SVGID_34_" gradientUnits="userSpaceOnUse" x1="2465.3369" y1="2890.0049" x2="2326.2878" y2="3179.2273">
				<stop  offset="0" style="stop-color:#444B8C"/>
				<stop  offset="0.9964" style="stop-color:#26264F"/>
			</linearGradient>
			<path class="st39" d="M2089.4,2819c-14.5,84.2,167.3,175.3,208.9,196.2c84.8,42.5,244.4,102.5,481.2,79.6
				c3.1-18.9,6.3-37.8,9.4-56.7c-31.3-10.7-77.6-28.1-131.4-54.6c-91.8-45.2-126.7-77.4-254.1-154.4c-141-85.2-182-96.2-224-85.6
				C2143.4,2752.5,2096.1,2779.9,2089.4,2819z"/>
			<linearGradient id="SVGID_35_" gradientUnits="userSpaceOnUse" x1="2777.0449" y1="2816.804" x2="2611.0474" y2="2285.0732">
				<stop  offset="3.597120e-03" style="stop-color:#E38DDD"/>
				<stop  offset="1" style="stop-color:#9571F6"/>
			</linearGradient>
			<path class="st40" d="M2278.8,2658.9c-30.7-111.1,20-261.1,126.9-333.3c87.2-59,189.4-55.2,221.3-54
				c34.9,1.3,31.3,5.8,141.2,26.2c152.6,28.2,166.7,21.4,211,42.7c83.5,40,123.9,112.7,131.5,126.8c38.8,72.4,70.3,206.9-3.3,272.7
				c-41.9,37.4-100.6,37.2-133.6,33.7c-2.2-14.8-4.5-29.7-6.7-44.5c6.7-5.2,46.4-37,51.3-93.1c5.6-64.5-39.5-106.1-44.5-110.7
				c-16,30.9-35.7,77.7-44.5,137.7c-11.4,77.4,0.4,141,10.4,178.4c-40.3,22.1-107.1,52.2-194,61.8c-65.5,7.2-146.6,16.2-198.4-24.3
				c-73.1-57.2-79.3-206-7.1-360.9c-26.4,17.7-64.7,49.8-80.6,100.5c-2.4,7.7-6.5,22.7-8.1,81
				C2448.6,2804,2310.6,2774,2278.8,2658.9z"/>
			<linearGradient id="SVGID_36_" gradientUnits="userSpaceOnUse" x1="2670.5852" y1="2377.7766" x2="2693.5278" y2="2748.9087">
				<stop  offset="0" style="stop-color:#FF9085"/>
				<stop  offset="1" style="stop-color:#FB6FBB"/>
			</linearGradient>
			<path class="st41" d="M2774.1,2735.8c-36.8,4.5-46.8,42.7-81,40.5c-74.3-4.9-134-133.5-102.6-203.8
				c20.5-45.8,73.8-53.8,70.2-83.7c-2.9-23.9-39.9-42.3-70.2-43.2c-47.1-1.4-78.2,39.6-89.1,54c-25.5,33.6-31,70.5-31.6,94.3
				c18.7-36.7,48.5-61.3,70.4-76c-72.2,154.9-66.1,303.8,7.1,360.9c51.8,40.5,132.9,31.5,198.4,24.3c70.5-7.8,127.8-29.1,168.4-48.6
				C2874.6,2790.2,2824.4,2729.6,2774.1,2735.8z"/>
			<linearGradient id="SVGID_37_" gradientUnits="userSpaceOnUse" x1="2471.6545" y1="2861.8379" x2="2903.4199" y2="2861.8379">
				<stop  offset="0" style="stop-color:#AA80F9"/>
				<stop  offset="0.9964" style="stop-color:#6165D7"/>
			</linearGradient>
			<polygon class="st42" points="2902.3,2840.6 2471.7,2834.2 2586.2,2889.5 2903.4,2868.7 			"/>
			<path class="st43" d="M2456.5,2845.6L2456.5,2845.6c0,8.1,5,15.3,12.6,18l137.6,53.9l0.6-37.4l-135.7-46
				C2464,2832,2456.5,2837.7,2456.5,2845.6z"/>
			<linearGradient id="SVGID_38_" gradientUnits="userSpaceOnUse" x1="2494.8406" y1="2904.9033" x2="2328.8428" y2="2373.1711">
				<stop  offset="3.597120e-03" style="stop-color:#E38DDD"/>
				<stop  offset="1" style="stop-color:#9571F6"/>
			</linearGradient>
			<path class="st44" d="M2299.6,2584.8c33.2-31.5,114.8-11.6,145.2,33.6c22.4,33.3,3.9,60.6,20.2,102.6
				c20.1,51.4,95.8,97.8,142.3,113.2c-7.3,15.7-5.1,19.7-12.4,35.4c-29.6-3.7-243.5-36.5-295.9-163.5
				C2296.3,2699.5,2263.9,2618.6,2299.6,2584.8z"/>
			<linearGradient id="SVGID_39_" gradientUnits="userSpaceOnUse" x1="2763.7058" y1="2258.7898" x2="2705.6743" y2="2397.7957">
				<stop  offset="0" style="stop-color:#FFC444"/>
				<stop  offset="0.9964" style="stop-color:#F36F56"/>
			</linearGradient>
			<path class="st45" d="M2785.2,2253.2c0,0-34.8,37.7-63.7,41.6c-28.9,3.9-70.7-3.8-77.9,0c-7.2,3.8,36.3,19.2,70.8,28.7
				c34.5,9.5,97.2,28.4,114.5,24.2c17.3-4.1-18.9-26.4-33.3-32.2c-14.4-5.9,6.2-36.1,6.2-36.1L2785.2,2253.2z"/>
			<g>
				
					<linearGradient id="SVGID_40_" gradientUnits="userSpaceOnUse" x1="-2432.2097" y1="382.7343" x2="-2495.1931" y2="222.7679" gradientTransform="matrix(-0.7945 -0.6073 -0.6073 0.7945 992.7459 529.0761)">
					<stop  offset="0" style="stop-color:#311944"/>
					<stop  offset="1" style="stop-color:#6B3976"/>
				</linearGradient>
				<path class="st46" d="M2836.9,2274.8c12.6-3.5,24.1-17.6,24-32.3c-0.1-12.6-9-21.2-14.3-26.4c-15.3-14.9-42-24.3-61.4-14.5
					c-11.5,5.8-16.7,32.2-17.9,36.8c-1.3,5.2,0.7,8.9,1.3,14c0.8,7.1,1.9,18.3,3.5,36.8c3.2-2.6,7.5-5.6,12.6-8.5
					c2-1.1,9.9-5.3,18.3-7.3C2820.2,2269.5,2825,2278.1,2836.9,2274.8z"/>
				
					<linearGradient id="SVGID_41_" gradientUnits="userSpaceOnUse" x1="3974.7849" y1="461.3059" x2="3971.8882" y2="694.6819" gradientTransform="matrix(0.8301 0.5575 -0.5575 0.8301 -235.6197 -346.7824)">
					<stop  offset="0" style="stop-color:#FFC444"/>
					<stop  offset="0.9964" style="stop-color:#F36F56"/>
				</linearGradient>
				<path class="st47" d="M2764.9,2269.2c0,0-2.9,26.7,20.2,42.3c20.7,13.9,57.7-28.1,52.4-47.2c-1.8-6.4-9.2-14.2-17.5-17.5
					c-4.9-2-7.6-1.4-15.6-4.8c-7.4-3.1-8.6-5.1-11.6-5c-3.8,0.2-9.2,3.6-15.3,19.6c-0.8-6.7-4.2-11.7-8.6-12.6
					c-0.7-0.2-2.8-0.3-4.6,0.5C2757.7,2247.3,2757.3,2257.3,2764.9,2269.2z"/>
				
					<linearGradient id="SVGID_42_" gradientUnits="userSpaceOnUse" x1="-2451.4478" y1="390.3995" x2="-2514.4995" y2="230.2595" gradientTransform="matrix(-0.7945 -0.6073 -0.6073 0.7945 992.7459 529.0761)">
					<stop  offset="0" style="stop-color:#311944"/>
					<stop  offset="1" style="stop-color:#6B3976"/>
				</linearGradient>
				<path class="st48" d="M2794,2233.5c0.4,1.4-5.2,2.8-9.3,7.6c-7.9,9.4-7.1,28.8,2.2,37.5c5.5,5.2,9.9,2.8,20.6,9.4
					c6.6,4.1,11.1,8.7,13.7,11.9c-5.2,13.1-16.3,21.5-27.3,21c-11.8-0.6-19.2-11.4-22.2-15.9c-2.1-3-8.7-12.7-7-24.3
					c1.7-12.1,10.3-13.6,9.2-23.5c-0.6-5-3.3-9.1-2.5-17.4c0.2-2.3,0.6-4.1,0.9-5.3C2781.5,2233,2793.4,2231.5,2794,2233.5z"/>
				
					<linearGradient id="SVGID_43_" gradientUnits="userSpaceOnUse" x1="-2513.1543" y1="293.9116" x2="-2509.876" y2="323.1393" gradientTransform="matrix(-0.7945 -0.6073 -0.6073 0.7945 992.7459 529.0761)">
					<stop  offset="0" style="stop-color:#FFC444"/>
					<stop  offset="1" style="stop-color:#F36F56"/>
				</linearGradient>
				<path class="st49" d="M2810.9,2298.4c0,0-6-1.1-13-7.1c-0.3-0.3-0.8-0.5-1-0.3c-0.7,0.6,1.6,7.3,6.9,9.5
					c3.8,1.5,8.4,0.4,8.6-0.6C2812.4,2299.3,2811.7,2298.8,2810.9,2298.4z"/>
			</g>
			<g>
				<path class="st43" d="M2618.7,2617.8l-30.4,276.4c-1,9.5,12.3,23.7,21.9,23.3l445.3-27.3c7.3-0.3,13.4-5.7,14.6-13l55.9-267
					c1.7-9.7-15.8-19.7-25.6-19.5l-466.7,13.1C2626,2604.1,2619.6,2610,2618.7,2617.8z"/>
				<path class="st10" d="M2628.9,2625.8l-30.4,276.4c-1,9.5,6.7,17.8,16.3,17.3l451-21.3c7.3-0.3,13.4-5.7,14.6-13l46.1-268.2
					c1.7-9.7-6-18.5-15.8-18.3l-466.7,13.1C2636.2,2612.2,2629.8,2618.1,2628.9,2625.8z"/>
			</g>
			<linearGradient id="SVGID_44_" gradientUnits="userSpaceOnUse" x1="2598.4624" y1="2765.2803" x2="3086.7834" y2="2765.2803">
				<stop  offset="0.494" style="stop-color:#EBEFF2"/>
				<stop  offset="1" style="stop-color:#FFFFFF"/>
			</linearGradient>
			<path class="st50" d="M2893.7,2833.4c-39.4-16.7-25.5-48.5-72-88.2c-61.3-52.3-123.9-29.6-145.8-70.2
				c-6.8-12.6-10.1-32.3,1.8-64.1l-33.8,1c-7.8,0.2-14.2,6.2-15.1,13.9l-30.4,276.4c-1,9.5,6.7,17.8,16.3,17.3l451-21.3
				c7.3-0.3,13.4-5.7,14.6-13l6.4-37c-13.7-7.6-30-14.5-49.1-18.4C2971.5,2816.4,2939.1,2852.6,2893.7,2833.4z"/>
		</g>
	</g>
</g>
</svg>
